<?xml version="1.0" encoding="utf-8" standalone="no"?>
<!DOCTYPE svg PUBLIC "-//W3C//DTD SVG 1.1//EN"
  "http://www.w3.org/Graphics/SVG/1.1/DTD/svg11.dtd">
<svg xmlns:xlink="http://www.w3.org/1999/xlink" width="136.8pt" height="1209.6pt" viewBox="0 0 136.8 1209.6" xmlns="http://www.w3.org/2000/svg" version="1.1">
 <metadata>
  <rdf:RDF xmlns:dc="http://purl.org/dc/elements/1.1/" xmlns:cc="http://creativecommons.org/ns#" xmlns:rdf="http://www.w3.org/1999/02/22-rdf-syntax-ns#">
   <cc:Work>
    <dc:type rdf:resource="http://purl.org/dc/dcmitype/StillImage"/>
    <dc:date>2025-05-06T21:59:49.633690</dc:date>
    <dc:format>image/svg+xml</dc:format>
    <dc:creator>
     <cc:Agent>
      <dc:title>Matplotlib v3.10.1, https://matplotlib.org/</dc:title>
     </cc:Agent>
    </dc:creator>
   </cc:Work>
  </rdf:RDF>
 </metadata>
 <defs>
  <style type="text/css">*{stroke-linejoin: round; stroke-linecap: butt}</style>
 </defs>
 <g id="figure_1">
  <g id="patch_1">
   <path d="M 0 1209.6 
L 136.8 1209.6 
L 136.8 0 
L 0 0 
z
" style="fill: #ffffff"/>
  </g>
  <g id="axes_1">
   <g id="patch_2">
    <path d="M 7.2 53.169231 
L 129.6 53.169231 
L 129.6 10.736095 
L 7.2 10.736095 
z
" clip-path="url(#p6628f76c26)" style="fill: #40e0d0; stroke: #000000; stroke-linejoin: miter"/>
   </g>
   <g id="patch_3">
    <path d="M 7.2 99.138462 
L 129.6 99.138462 
L 129.6 56.705325 
L 7.2 56.705325 
z
" clip-path="url(#p6628f76c26)" style="fill: #ffd700; stroke: #000000; stroke-linejoin: miter"/>
   </g>
   <g id="patch_4">
    <path d="M 7.2 145.107692 
L 129.6 145.107692 
L 129.6 102.674556 
L 7.2 102.674556 
z
" clip-path="url(#p6628f76c26)" style="fill: #00ff7f; stroke: #000000; stroke-linejoin: miter"/>
   </g>
   <g id="patch_5">
    <path d="M 7.2 191.076923 
L 129.6 191.076923 
L 129.6 148.643787 
L 7.2 148.643787 
z
" clip-path="url(#p6628f76c26)" style="fill: #c71585; stroke: #000000; stroke-linejoin: miter"/>
   </g>
   <g id="patch_6">
    <path d="M 7.2 237.046154 
L 129.6 237.046154 
L 129.6 194.613018 
L 7.2 194.613018 
z
" clip-path="url(#p6628f76c26)" style="fill: #c0c0c0; stroke: #000000; stroke-linejoin: miter"/>
   </g>
   <g id="patch_7">
    <path d="M 7.2 283.015385 
L 129.6 283.015385 
L 129.6 240.582249 
L 7.2 240.582249 
z
" clip-path="url(#p6628f76c26)" style="fill: #ff0000; stroke: #000000; stroke-linejoin: miter"/>
   </g>
   <g id="patch_8">
    <path d="M 7.2 328.984615 
L 129.6 328.984615 
L 129.6 286.551479 
L 7.2 286.551479 
z
" clip-path="url(#p6628f76c26)" style="fill: #ff69b4; stroke: #000000; stroke-linejoin: miter"/>
   </g>
   <g id="patch_9">
    <path d="M 7.2 374.953846 
L 129.6 374.953846 
L 129.6 332.52071 
L 7.2 332.52071 
z
" clip-path="url(#p6628f76c26)" style="fill: #00ffff; stroke: #000000; stroke-linejoin: miter"/>
   </g>
   <g id="patch_10">
    <path d="M 7.2 420.923077 
L 129.6 420.923077 
L 129.6 378.489941 
L 7.2 378.489941 
z
" clip-path="url(#p6628f76c26)" style="fill: #add8e6; stroke: #000000; stroke-linejoin: miter"/>
   </g>
   <g id="patch_11">
    <path d="M 7.2 466.892308 
L 129.6 466.892308 
L 129.6 424.459172 
L 7.2 424.459172 
z
" clip-path="url(#p6628f76c26)" style="fill: #7b68ee; stroke: #000000; stroke-linejoin: miter"/>
   </g>
   <g id="patch_12">
    <path d="M 7.2 512.861538 
L 129.6 512.861538 
L 129.6 470.428402 
L 7.2 470.428402 
z
" clip-path="url(#p6628f76c26)" style="fill: #6495ed; stroke: #000000; stroke-linejoin: miter"/>
   </g>
   <g id="patch_13">
    <path d="M 7.2 558.830769 
L 129.6 558.830769 
L 129.6 516.397633 
L 7.2 516.397633 
z
" clip-path="url(#p6628f76c26)" style="fill: #adff2f; stroke: #000000; stroke-linejoin: miter"/>
   </g>
   <g id="patch_14">
    <path d="M 7.2 604.8 
L 129.6 604.8 
L 129.6 562.366864 
L 7.2 562.366864 
z
" clip-path="url(#p6628f76c26)" style="fill: #ff8c00; stroke: #000000; stroke-linejoin: miter"/>
   </g>
   <g id="patch_15">
    <path d="M 7.2 650.769231 
L 129.6 650.769231 
L 129.6 608.336095 
L 7.2 608.336095 
z
" clip-path="url(#p6628f76c26)" style="fill: #00bfff; stroke: #000000; stroke-linejoin: miter"/>
   </g>
   <g id="patch_16">
    <path d="M 7.2 696.738462 
L 129.6 696.738462 
L 129.6 654.305325 
L 7.2 654.305325 
z
" clip-path="url(#p6628f76c26)" style="fill: #006400; stroke: #000000; stroke-linejoin: miter"/>
   </g>
   <g id="patch_17">
    <path d="M 7.2 742.707692 
L 129.6 742.707692 
L 129.6 700.274556 
L 7.2 700.274556 
z
" clip-path="url(#p6628f76c26)" style="fill: #f0fff0; stroke: #000000; stroke-linejoin: miter"/>
   </g>
   <g id="patch_18">
    <path d="M 7.2 788.676923 
L 129.6 788.676923 
L 129.6 746.243787 
L 7.2 746.243787 
z
" clip-path="url(#p6628f76c26)" style="fill: #0000ff; stroke: #000000; stroke-linejoin: miter"/>
   </g>
   <g id="patch_19">
    <path d="M 7.2 834.646154 
L 129.6 834.646154 
L 129.6 792.213018 
L 7.2 792.213018 
z
" clip-path="url(#p6628f76c26)" style="fill: #ffe4b5; stroke: #000000; stroke-linejoin: miter"/>
   </g>
   <g id="patch_20">
    <path d="M 7.2 880.615385 
L 129.6 880.615385 
L 129.6 838.182249 
L 7.2 838.182249 
z
" clip-path="url(#p6628f76c26)" style="fill: #ffff00; stroke: #000000; stroke-linejoin: miter"/>
   </g>
   <g id="patch_21">
    <path d="M 7.2 926.584615 
L 129.6 926.584615 
L 129.6 884.151479 
L 7.2 884.151479 
z
" clip-path="url(#p6628f76c26)" style="fill: #a0522d; stroke: #000000; stroke-linejoin: miter"/>
   </g>
   <g id="patch_22">
    <path d="M 7.2 972.553846 
L 129.6 972.553846 
L 129.6 930.12071 
L 7.2 930.12071 
z
" clip-path="url(#p6628f76c26)" style="fill: #f08080; stroke: #000000; stroke-linejoin: miter"/>
   </g>
   <g id="patch_23">
    <path d="M 7.2 1018.523077 
L 129.6 1018.523077 
L 129.6 976.089941 
L 7.2 976.089941 
z
" clip-path="url(#p6628f76c26)" style="fill: #8fbc8f; stroke: #000000; stroke-linejoin: miter"/>
   </g>
   <g id="patch_24">
    <path d="M 7.2 1064.492308 
L 129.6 1064.492308 
L 129.6 1022.059172 
L 7.2 1022.059172 
z
" clip-path="url(#p6628f76c26)" style="fill: #9acd32; stroke: #000000; stroke-linejoin: miter"/>
   </g>
   <g id="patch_25">
    <path d="M 7.2 1110.461538 
L 129.6 1110.461538 
L 129.6 1068.028402 
L 7.2 1068.028402 
z
" clip-path="url(#p6628f76c26)" style="fill: #bdb76b; stroke: #000000; stroke-linejoin: miter"/>
   </g>
   <g id="patch_26">
    <path d="M 7.2 1156.430769 
L 129.6 1156.430769 
L 129.6 1113.997633 
L 7.2 1113.997633 
z
" clip-path="url(#p6628f76c26)" style="fill: #ffc0cb; stroke: #000000; stroke-linejoin: miter"/>
   </g>
   <g id="patch_27">
    <path d="M 7.2 1202.4 
L 129.6 1202.4 
L 129.6 1159.966864 
L 7.2 1159.966864 
z
" clip-path="url(#p6628f76c26)" style="fill: #dda0dd; stroke: #000000; stroke-linejoin: miter"/>
   </g>
   <g id="text_1">
    <!-- A: receiving -->
    <g transform="translate(21.380625 26.744194) scale(0.18 -0.18)">
     <defs>
      <path id="ArialMT-41" d="M -9 0 
L 1750 4581 
L 2403 4581 
L 4278 0 
L 3588 0 
L 3053 1388 
L 1138 1388 
L 634 0 
L -9 0 
z
M 1313 1881 
L 2866 1881 
L 2388 3150 
Q 2169 3728 2063 4100 
Q 1975 3659 1816 3225 
L 1313 1881 
z
" transform="scale(0.015625)"/>
      <path id="ArialMT-3a" d="M 578 2678 
L 578 3319 
L 1219 3319 
L 1219 2678 
L 578 2678 
z
M 578 0 
L 578 641 
L 1219 641 
L 1219 0 
L 578 0 
z
" transform="scale(0.015625)"/>
      <path id="ArialMT-20" transform="scale(0.015625)"/>
      <path id="ArialMT-72" d="M 416 0 
L 416 3319 
L 922 3319 
L 922 2816 
Q 1116 3169 1280 3281 
Q 1444 3394 1641 3394 
Q 1925 3394 2219 3213 
L 2025 2691 
Q 1819 2813 1613 2813 
Q 1428 2813 1281 2702 
Q 1134 2591 1072 2394 
Q 978 2094 978 1738 
L 978 0 
L 416 0 
z
" transform="scale(0.015625)"/>
      <path id="ArialMT-65" d="M 2694 1069 
L 3275 997 
Q 3138 488 2766 206 
Q 2394 -75 1816 -75 
Q 1088 -75 661 373 
Q 234 822 234 1631 
Q 234 2469 665 2931 
Q 1097 3394 1784 3394 
Q 2450 3394 2872 2941 
Q 3294 2488 3294 1666 
Q 3294 1616 3291 1516 
L 816 1516 
Q 847 969 1125 678 
Q 1403 388 1819 388 
Q 2128 388 2347 550 
Q 2566 713 2694 1069 
z
M 847 1978 
L 2700 1978 
Q 2663 2397 2488 2606 
Q 2219 2931 1791 2931 
Q 1403 2931 1139 2672 
Q 875 2413 847 1978 
z
" transform="scale(0.015625)"/>
      <path id="ArialMT-63" d="M 2588 1216 
L 3141 1144 
Q 3050 572 2676 248 
Q 2303 -75 1759 -75 
Q 1078 -75 664 370 
Q 250 816 250 1647 
Q 250 2184 428 2587 
Q 606 2991 970 3192 
Q 1334 3394 1763 3394 
Q 2303 3394 2647 3120 
Q 2991 2847 3088 2344 
L 2541 2259 
Q 2463 2594 2264 2762 
Q 2066 2931 1784 2931 
Q 1359 2931 1093 2626 
Q 828 2322 828 1663 
Q 828 994 1084 691 
Q 1341 388 1753 388 
Q 2084 388 2306 591 
Q 2528 794 2588 1216 
z
" transform="scale(0.015625)"/>
      <path id="ArialMT-69" d="M 425 3934 
L 425 4581 
L 988 4581 
L 988 3934 
L 425 3934 
z
M 425 0 
L 425 3319 
L 988 3319 
L 988 0 
L 425 0 
z
" transform="scale(0.015625)"/>
      <path id="ArialMT-76" d="M 1344 0 
L 81 3319 
L 675 3319 
L 1388 1331 
Q 1503 1009 1600 663 
Q 1675 925 1809 1294 
L 2547 3319 
L 3125 3319 
L 1869 0 
L 1344 0 
z
" transform="scale(0.015625)"/>
      <path id="ArialMT-6e" d="M 422 0 
L 422 3319 
L 928 3319 
L 928 2847 
Q 1294 3394 1984 3394 
Q 2284 3394 2536 3286 
Q 2788 3178 2913 3003 
Q 3038 2828 3088 2588 
Q 3119 2431 3119 2041 
L 3119 0 
L 2556 0 
L 2556 2019 
Q 2556 2363 2490 2533 
Q 2425 2703 2258 2804 
Q 2091 2906 1866 2906 
Q 1506 2906 1245 2678 
Q 984 2450 984 1813 
L 984 0 
L 422 0 
z
" transform="scale(0.015625)"/>
      <path id="ArialMT-67" d="M 319 -275 
L 866 -356 
Q 900 -609 1056 -725 
Q 1266 -881 1628 -881 
Q 2019 -881 2231 -725 
Q 2444 -569 2519 -288 
Q 2563 -116 2559 434 
Q 2191 0 1641 0 
Q 956 0 581 494 
Q 206 988 206 1678 
Q 206 2153 378 2554 
Q 550 2956 876 3175 
Q 1203 3394 1644 3394 
Q 2231 3394 2613 2919 
L 2613 3319 
L 3131 3319 
L 3131 450 
Q 3131 -325 2973 -648 
Q 2816 -972 2473 -1159 
Q 2131 -1347 1631 -1347 
Q 1038 -1347 672 -1080 
Q 306 -813 319 -275 
z
M 784 1719 
Q 784 1066 1043 766 
Q 1303 466 1694 466 
Q 2081 466 2343 764 
Q 2606 1063 2606 1700 
Q 2606 2309 2336 2618 
Q 2066 2928 1684 2928 
Q 1309 2928 1046 2623 
Q 784 2319 784 1719 
z
" transform="scale(0.015625)"/>
     </defs>
     <use xlink:href="#ArialMT-41"/>
     <use xlink:href="#ArialMT-3a" transform="translate(66.699219 0)"/>
     <use xlink:href="#ArialMT-20" transform="translate(94.482422 0)"/>
     <use xlink:href="#ArialMT-72" transform="translate(122.265625 0)"/>
     <use xlink:href="#ArialMT-65" transform="translate(155.566406 0)"/>
     <use xlink:href="#ArialMT-63" transform="translate(211.181641 0)"/>
     <use xlink:href="#ArialMT-65" transform="translate(261.181641 0)"/>
     <use xlink:href="#ArialMT-69" transform="translate(316.796875 0)"/>
     <use xlink:href="#ArialMT-76" transform="translate(339.013672 0)"/>
     <use xlink:href="#ArialMT-69" transform="translate(389.013672 0)"/>
     <use xlink:href="#ArialMT-6e" transform="translate(411.230469 0)"/>
     <use xlink:href="#ArialMT-67" transform="translate(466.845703 0)"/>
    </g>
    <!-- offerings -->
    <g transform="translate(34.041094 46.256756) scale(0.18 -0.18)">
     <defs>
      <path id="ArialMT-6f" d="M 213 1659 
Q 213 2581 725 3025 
Q 1153 3394 1769 3394 
Q 2453 3394 2887 2945 
Q 3322 2497 3322 1706 
Q 3322 1066 3130 698 
Q 2938 331 2570 128 
Q 2203 -75 1769 -75 
Q 1072 -75 642 372 
Q 213 819 213 1659 
z
M 791 1659 
Q 791 1022 1069 705 
Q 1347 388 1769 388 
Q 2188 388 2466 706 
Q 2744 1025 2744 1678 
Q 2744 2294 2464 2611 
Q 2184 2928 1769 2928 
Q 1347 2928 1069 2612 
Q 791 2297 791 1659 
z
" transform="scale(0.015625)"/>
      <path id="ArialMT-66" d="M 556 0 
L 556 2881 
L 59 2881 
L 59 3319 
L 556 3319 
L 556 3672 
Q 556 4006 616 4169 
Q 697 4388 901 4523 
Q 1106 4659 1475 4659 
Q 1713 4659 2000 4603 
L 1916 4113 
Q 1741 4144 1584 4144 
Q 1328 4144 1222 4034 
Q 1116 3925 1116 3625 
L 1116 3319 
L 1763 3319 
L 1763 2881 
L 1116 2881 
L 1116 0 
L 556 0 
z
" transform="scale(0.015625)"/>
      <path id="ArialMT-73" d="M 197 991 
L 753 1078 
Q 800 744 1014 566 
Q 1228 388 1613 388 
Q 2000 388 2187 545 
Q 2375 703 2375 916 
Q 2375 1106 2209 1216 
Q 2094 1291 1634 1406 
Q 1016 1563 777 1677 
Q 538 1791 414 1992 
Q 291 2194 291 2438 
Q 291 2659 392 2848 
Q 494 3038 669 3163 
Q 800 3259 1026 3326 
Q 1253 3394 1513 3394 
Q 1903 3394 2198 3281 
Q 2494 3169 2634 2976 
Q 2775 2784 2828 2463 
L 2278 2388 
Q 2241 2644 2061 2787 
Q 1881 2931 1553 2931 
Q 1166 2931 1000 2803 
Q 834 2675 834 2503 
Q 834 2394 903 2306 
Q 972 2216 1119 2156 
Q 1203 2125 1616 2013 
Q 2213 1853 2448 1751 
Q 2684 1650 2818 1456 
Q 2953 1263 2953 975 
Q 2953 694 2789 445 
Q 2625 197 2315 61 
Q 2006 -75 1616 -75 
Q 969 -75 630 194 
Q 291 463 197 991 
z
" transform="scale(0.015625)"/>
     </defs>
     <use xlink:href="#ArialMT-6f"/>
     <use xlink:href="#ArialMT-66" transform="translate(55.615234 0)"/>
     <use xlink:href="#ArialMT-66" transform="translate(81.648438 0)"/>
     <use xlink:href="#ArialMT-65" transform="translate(109.431641 0)"/>
     <use xlink:href="#ArialMT-72" transform="translate(165.046875 0)"/>
     <use xlink:href="#ArialMT-69" transform="translate(198.347656 0)"/>
     <use xlink:href="#ArialMT-6e" transform="translate(220.564453 0)"/>
     <use xlink:href="#ArialMT-67" transform="translate(276.179688 0)"/>
     <use xlink:href="#ArialMT-73" transform="translate(331.794922 0)"/>
    </g>
   </g>
   <g id="text_2">
    <!-- B: born -->
    <g transform="translate(39.384844 82.575175) scale(0.18 -0.18)">
     <defs>
      <path id="ArialMT-42" d="M 469 0 
L 469 4581 
L 2188 4581 
Q 2713 4581 3030 4442 
Q 3347 4303 3526 4014 
Q 3706 3725 3706 3409 
Q 3706 3116 3547 2856 
Q 3388 2597 3066 2438 
Q 3481 2316 3704 2022 
Q 3928 1728 3928 1328 
Q 3928 1006 3792 729 
Q 3656 453 3456 303 
Q 3256 153 2954 76 
Q 2653 0 2216 0 
L 469 0 
z
M 1075 2656 
L 2066 2656 
Q 2469 2656 2644 2709 
Q 2875 2778 2992 2937 
Q 3109 3097 3109 3338 
Q 3109 3566 3000 3739 
Q 2891 3913 2687 3977 
Q 2484 4041 1991 4041 
L 1075 4041 
L 1075 2656 
z
M 1075 541 
L 2216 541 
Q 2509 541 2628 563 
Q 2838 600 2978 687 
Q 3119 775 3209 942 
Q 3300 1109 3300 1328 
Q 3300 1584 3169 1773 
Q 3038 1963 2805 2039 
Q 2572 2116 2134 2116 
L 1075 2116 
L 1075 541 
z
" transform="scale(0.015625)"/>
      <path id="ArialMT-62" d="M 941 0 
L 419 0 
L 419 4581 
L 981 4581 
L 981 2947 
Q 1338 3394 1891 3394 
Q 2197 3394 2470 3270 
Q 2744 3147 2920 2923 
Q 3097 2700 3197 2384 
Q 3297 2069 3297 1709 
Q 3297 856 2875 390 
Q 2453 -75 1863 -75 
Q 1275 -75 941 416 
L 941 0 
z
M 934 1684 
Q 934 1088 1097 822 
Q 1363 388 1816 388 
Q 2184 388 2453 708 
Q 2722 1028 2722 1663 
Q 2722 2313 2464 2622 
Q 2206 2931 1841 2931 
Q 1472 2931 1203 2611 
Q 934 2291 934 1684 
z
" transform="scale(0.015625)"/>
     </defs>
     <use xlink:href="#ArialMT-42"/>
     <use xlink:href="#ArialMT-3a" transform="translate(66.699219 0)"/>
     <use xlink:href="#ArialMT-20" transform="translate(94.482422 0)"/>
     <use xlink:href="#ArialMT-62" transform="translate(122.265625 0)"/>
     <use xlink:href="#ArialMT-6f" transform="translate(177.880859 0)"/>
     <use xlink:href="#ArialMT-72" transform="translate(233.496094 0)"/>
     <use xlink:href="#ArialMT-6e" transform="translate(266.796875 0)"/>
    </g>
   </g>
   <g id="text_3">
    <!-- C: creating -->
    <g transform="translate(24.883594 128.548624) scale(0.18 -0.18)">
     <defs>
      <path id="ArialMT-43" d="M 3763 1606 
L 4369 1453 
Q 4178 706 3683 314 
Q 3188 -78 2472 -78 
Q 1731 -78 1267 223 
Q 803 525 561 1097 
Q 319 1669 319 2325 
Q 319 3041 592 3573 
Q 866 4106 1370 4382 
Q 1875 4659 2481 4659 
Q 3169 4659 3637 4309 
Q 4106 3959 4291 3325 
L 3694 3184 
Q 3534 3684 3231 3912 
Q 2928 4141 2469 4141 
Q 1941 4141 1586 3887 
Q 1231 3634 1087 3207 
Q 944 2781 944 2328 
Q 944 1744 1114 1308 
Q 1284 872 1643 656 
Q 2003 441 2422 441 
Q 2931 441 3284 734 
Q 3638 1028 3763 1606 
z
" transform="scale(0.015625)"/>
      <path id="ArialMT-61" d="M 2588 409 
Q 2275 144 1986 34 
Q 1697 -75 1366 -75 
Q 819 -75 525 192 
Q 231 459 231 875 
Q 231 1119 342 1320 
Q 453 1522 633 1644 
Q 813 1766 1038 1828 
Q 1203 1872 1538 1913 
Q 2219 1994 2541 2106 
Q 2544 2222 2544 2253 
Q 2544 2597 2384 2738 
Q 2169 2928 1744 2928 
Q 1347 2928 1158 2789 
Q 969 2650 878 2297 
L 328 2372 
Q 403 2725 575 2942 
Q 747 3159 1072 3276 
Q 1397 3394 1825 3394 
Q 2250 3394 2515 3294 
Q 2781 3194 2906 3042 
Q 3031 2891 3081 2659 
Q 3109 2516 3109 2141 
L 3109 1391 
Q 3109 606 3145 398 
Q 3181 191 3288 0 
L 2700 0 
Q 2613 175 2588 409 
z
M 2541 1666 
Q 2234 1541 1622 1453 
Q 1275 1403 1131 1340 
Q 988 1278 909 1158 
Q 831 1038 831 891 
Q 831 666 1001 516 
Q 1172 366 1500 366 
Q 1825 366 2078 508 
Q 2331 650 2450 897 
Q 2541 1088 2541 1459 
L 2541 1666 
z
" transform="scale(0.015625)"/>
      <path id="ArialMT-74" d="M 1650 503 
L 1731 6 
Q 1494 -44 1306 -44 
Q 1000 -44 831 53 
Q 663 150 594 308 
Q 525 466 525 972 
L 525 2881 
L 113 2881 
L 113 3319 
L 525 3319 
L 525 4141 
L 1084 4478 
L 1084 3319 
L 1650 3319 
L 1650 2881 
L 1084 2881 
L 1084 941 
Q 1084 700 1114 631 
Q 1144 563 1211 522 
Q 1278 481 1403 481 
Q 1497 481 1650 503 
z
" transform="scale(0.015625)"/>
     </defs>
     <use xlink:href="#ArialMT-43"/>
     <use xlink:href="#ArialMT-3a" transform="translate(72.216797 0)"/>
     <use xlink:href="#ArialMT-20" transform="translate(100 0)"/>
     <use xlink:href="#ArialMT-63" transform="translate(127.783203 0)"/>
     <use xlink:href="#ArialMT-72" transform="translate(177.783203 0)"/>
     <use xlink:href="#ArialMT-65" transform="translate(211.083984 0)"/>
     <use xlink:href="#ArialMT-61" transform="translate(266.699219 0)"/>
     <use xlink:href="#ArialMT-74" transform="translate(322.314453 0)"/>
     <use xlink:href="#ArialMT-69" transform="translate(350.097656 0)"/>
     <use xlink:href="#ArialMT-6e" transform="translate(372.314453 0)"/>
     <use xlink:href="#ArialMT-67" transform="translate(427.929688 0)"/>
    </g>
   </g>
   <g id="text_4">
    <!-- D: protection -->
    <g style="fill: #ffffff" transform="translate(17.378438 174.513636) scale(0.18 -0.18)">
     <defs>
      <path id="ArialMT-44" d="M 494 0 
L 494 4581 
L 2072 4581 
Q 2606 4581 2888 4516 
Q 3281 4425 3559 4188 
Q 3922 3881 4101 3404 
Q 4281 2928 4281 2316 
Q 4281 1794 4159 1391 
Q 4038 988 3847 723 
Q 3656 459 3429 307 
Q 3203 156 2883 78 
Q 2563 0 2147 0 
L 494 0 
z
M 1100 541 
L 2078 541 
Q 2531 541 2789 625 
Q 3047 709 3200 863 
Q 3416 1078 3536 1442 
Q 3656 1806 3656 2325 
Q 3656 3044 3420 3430 
Q 3184 3816 2847 3947 
Q 2603 4041 2063 4041 
L 1100 4041 
L 1100 541 
z
" transform="scale(0.015625)"/>
      <path id="ArialMT-70" d="M 422 -1272 
L 422 3319 
L 934 3319 
L 934 2888 
Q 1116 3141 1344 3267 
Q 1572 3394 1897 3394 
Q 2322 3394 2647 3175 
Q 2972 2956 3137 2557 
Q 3303 2159 3303 1684 
Q 3303 1175 3120 767 
Q 2938 359 2589 142 
Q 2241 -75 1856 -75 
Q 1575 -75 1351 44 
Q 1128 163 984 344 
L 984 -1272 
L 422 -1272 
z
M 931 1641 
Q 931 1000 1190 694 
Q 1450 388 1819 388 
Q 2194 388 2461 705 
Q 2728 1022 2728 1688 
Q 2728 2322 2467 2637 
Q 2206 2953 1844 2953 
Q 1484 2953 1207 2617 
Q 931 2281 931 1641 
z
" transform="scale(0.015625)"/>
     </defs>
     <use xlink:href="#ArialMT-44"/>
     <use xlink:href="#ArialMT-3a" transform="translate(72.216797 0)"/>
     <use xlink:href="#ArialMT-20" transform="translate(100 0)"/>
     <use xlink:href="#ArialMT-70" transform="translate(127.783203 0)"/>
     <use xlink:href="#ArialMT-72" transform="translate(183.398438 0)"/>
     <use xlink:href="#ArialMT-6f" transform="translate(216.699219 0)"/>
     <use xlink:href="#ArialMT-74" transform="translate(272.314453 0)"/>
     <use xlink:href="#ArialMT-65" transform="translate(300.097656 0)"/>
     <use xlink:href="#ArialMT-63" transform="translate(355.712891 0)"/>
     <use xlink:href="#ArialMT-74" transform="translate(405.712891 0)"/>
     <use xlink:href="#ArialMT-69" transform="translate(433.496094 0)"/>
     <use xlink:href="#ArialMT-6f" transform="translate(455.712891 0)"/>
     <use xlink:href="#ArialMT-6e" transform="translate(511.328125 0)"/>
    </g>
   </g>
   <g id="text_5">
    <!-- E: equation -->
    <g transform="translate(22.867031 220.482867) scale(0.18 -0.18)">
     <defs>
      <path id="ArialMT-45" d="M 506 0 
L 506 4581 
L 3819 4581 
L 3819 4041 
L 1113 4041 
L 1113 2638 
L 3647 2638 
L 3647 2100 
L 1113 2100 
L 1113 541 
L 3925 541 
L 3925 0 
L 506 0 
z
" transform="scale(0.015625)"/>
      <path id="ArialMT-71" d="M 2538 -1272 
L 2538 353 
Q 2406 169 2170 47 
Q 1934 -75 1669 -75 
Q 1078 -75 651 397 
Q 225 869 225 1691 
Q 225 2191 398 2587 
Q 572 2984 901 3189 
Q 1231 3394 1625 3394 
Q 2241 3394 2594 2875 
L 2594 3319 
L 3100 3319 
L 3100 -1272 
L 2538 -1272 
z
M 803 1669 
Q 803 1028 1072 708 
Q 1341 388 1716 388 
Q 2075 388 2334 692 
Q 2594 997 2594 1619 
Q 2594 2281 2320 2615 
Q 2047 2950 1678 2950 
Q 1313 2950 1058 2639 
Q 803 2328 803 1669 
z
" transform="scale(0.015625)"/>
      <path id="ArialMT-75" d="M 2597 0 
L 2597 488 
Q 2209 -75 1544 -75 
Q 1250 -75 995 37 
Q 741 150 617 320 
Q 494 491 444 738 
Q 409 903 409 1263 
L 409 3319 
L 972 3319 
L 972 1478 
Q 972 1038 1006 884 
Q 1059 663 1231 536 
Q 1403 409 1656 409 
Q 1909 409 2131 539 
Q 2353 669 2445 892 
Q 2538 1116 2538 1541 
L 2538 3319 
L 3100 3319 
L 3100 0 
L 2597 0 
z
" transform="scale(0.015625)"/>
     </defs>
     <use xlink:href="#ArialMT-45"/>
     <use xlink:href="#ArialMT-3a" transform="translate(66.699219 0)"/>
     <use xlink:href="#ArialMT-20" transform="translate(94.482422 0)"/>
     <use xlink:href="#ArialMT-65" transform="translate(122.265625 0)"/>
     <use xlink:href="#ArialMT-71" transform="translate(177.880859 0)"/>
     <use xlink:href="#ArialMT-75" transform="translate(233.496094 0)"/>
     <use xlink:href="#ArialMT-61" transform="translate(289.111328 0)"/>
     <use xlink:href="#ArialMT-74" transform="translate(344.726562 0)"/>
     <use xlink:href="#ArialMT-69" transform="translate(372.509766 0)"/>
     <use xlink:href="#ArialMT-6f" transform="translate(394.726562 0)"/>
     <use xlink:href="#ArialMT-6e" transform="translate(450.341797 0)"/>
    </g>
   </g>
   <g id="text_6">
    <!-- F: fighting -->
    <g style="fill: #ffffff" transform="translate(28.882969 266.456317) scale(0.18 -0.18)">
     <defs>
      <path id="ArialMT-46" d="M 525 0 
L 525 4581 
L 3616 4581 
L 3616 4041 
L 1131 4041 
L 1131 2622 
L 3281 2622 
L 3281 2081 
L 1131 2081 
L 1131 0 
L 525 0 
z
" transform="scale(0.015625)"/>
      <path id="ArialMT-68" d="M 422 0 
L 422 4581 
L 984 4581 
L 984 2938 
Q 1378 3394 1978 3394 
Q 2347 3394 2619 3248 
Q 2891 3103 3008 2847 
Q 3125 2591 3125 2103 
L 3125 0 
L 2563 0 
L 2563 2103 
Q 2563 2525 2380 2717 
Q 2197 2909 1863 2909 
Q 1613 2909 1392 2779 
Q 1172 2650 1078 2428 
Q 984 2206 984 1816 
L 984 0 
L 422 0 
z
" transform="scale(0.015625)"/>
     </defs>
     <use xlink:href="#ArialMT-46"/>
     <use xlink:href="#ArialMT-3a" transform="translate(61.083984 0)"/>
     <use xlink:href="#ArialMT-20" transform="translate(88.867188 0)"/>
     <use xlink:href="#ArialMT-66" transform="translate(116.650391 0)"/>
     <use xlink:href="#ArialMT-69" transform="translate(144.433594 0)"/>
     <use xlink:href="#ArialMT-67" transform="translate(166.650391 0)"/>
     <use xlink:href="#ArialMT-68" transform="translate(222.265625 0)"/>
     <use xlink:href="#ArialMT-74" transform="translate(277.880859 0)"/>
     <use xlink:href="#ArialMT-69" transform="translate(305.664062 0)"/>
     <use xlink:href="#ArialMT-6e" transform="translate(327.880859 0)"/>
     <use xlink:href="#ArialMT-67" transform="translate(383.496094 0)"/>
    </g>
   </g>
   <g id="text_7">
    <!-- G: great -->
    <g transform="translate(35.8875 312.425547) scale(0.18 -0.18)">
     <defs>
      <path id="ArialMT-47" d="M 2638 1797 
L 2638 2334 
L 4578 2338 
L 4578 638 
Q 4131 281 3656 101 
Q 3181 -78 2681 -78 
Q 2006 -78 1454 211 
Q 903 500 622 1047 
Q 341 1594 341 2269 
Q 341 2938 620 3517 
Q 900 4097 1425 4378 
Q 1950 4659 2634 4659 
Q 3131 4659 3532 4498 
Q 3934 4338 4162 4050 
Q 4391 3763 4509 3300 
L 3963 3150 
Q 3859 3500 3706 3700 
Q 3553 3900 3268 4020 
Q 2984 4141 2638 4141 
Q 2222 4141 1919 4014 
Q 1616 3888 1430 3681 
Q 1244 3475 1141 3228 
Q 966 2803 966 2306 
Q 966 1694 1177 1281 
Q 1388 869 1791 669 
Q 2194 469 2647 469 
Q 3041 469 3416 620 
Q 3791 772 3984 944 
L 3984 1797 
L 2638 1797 
z
" transform="scale(0.015625)"/>
     </defs>
     <use xlink:href="#ArialMT-47"/>
     <use xlink:href="#ArialMT-3a" transform="translate(77.783203 0)"/>
     <use xlink:href="#ArialMT-20" transform="translate(105.566406 0)"/>
     <use xlink:href="#ArialMT-67" transform="translate(133.349609 0)"/>
     <use xlink:href="#ArialMT-72" transform="translate(188.964844 0)"/>
     <use xlink:href="#ArialMT-65" transform="translate(222.265625 0)"/>
     <use xlink:href="#ArialMT-61" transform="translate(277.880859 0)"/>
     <use xlink:href="#ArialMT-74" transform="translate(333.496094 0)"/>
    </g>
   </g>
   <g id="text_8">
    <!-- H: with Horus -->
    <g transform="translate(14.38875 358.390559) scale(0.18 -0.18)">
     <defs>
      <path id="ArialMT-48" d="M 513 0 
L 513 4581 
L 1119 4581 
L 1119 2700 
L 3500 2700 
L 3500 4581 
L 4106 4581 
L 4106 0 
L 3500 0 
L 3500 2159 
L 1119 2159 
L 1119 0 
L 513 0 
z
" transform="scale(0.015625)"/>
      <path id="ArialMT-77" d="M 1034 0 
L 19 3319 
L 600 3319 
L 1128 1403 
L 1325 691 
Q 1338 744 1497 1375 
L 2025 3319 
L 2603 3319 
L 3100 1394 
L 3266 759 
L 3456 1400 
L 4025 3319 
L 4572 3319 
L 3534 0 
L 2950 0 
L 2422 1988 
L 2294 2553 
L 1622 0 
L 1034 0 
z
" transform="scale(0.015625)"/>
     </defs>
     <use xlink:href="#ArialMT-48"/>
     <use xlink:href="#ArialMT-3a" transform="translate(72.216797 0)"/>
     <use xlink:href="#ArialMT-20" transform="translate(100 0)"/>
     <use xlink:href="#ArialMT-77" transform="translate(127.783203 0)"/>
     <use xlink:href="#ArialMT-69" transform="translate(200 0)"/>
     <use xlink:href="#ArialMT-74" transform="translate(222.216797 0)"/>
     <use xlink:href="#ArialMT-68" transform="translate(250 0)"/>
     <use xlink:href="#ArialMT-20" transform="translate(305.615234 0)"/>
     <use xlink:href="#ArialMT-48" transform="translate(333.398438 0)"/>
     <use xlink:href="#ArialMT-6f" transform="translate(405.615234 0)"/>
     <use xlink:href="#ArialMT-72" transform="translate(461.230469 0)"/>
     <use xlink:href="#ArialMT-75" transform="translate(494.53125 0)"/>
     <use xlink:href="#ArialMT-73" transform="translate(550.146484 0)"/>
    </g>
   </g>
   <g id="text_9">
    <!-- I: name=Isis -->
    <g transform="translate(19.63125 404.35979) scale(0.18 -0.18)">
     <defs>
      <path id="ArialMT-49" d="M 597 0 
L 597 4581 
L 1203 4581 
L 1203 0 
L 597 0 
z
" transform="scale(0.015625)"/>
      <path id="ArialMT-6d" d="M 422 0 
L 422 3319 
L 925 3319 
L 925 2853 
Q 1081 3097 1340 3245 
Q 1600 3394 1931 3394 
Q 2300 3394 2536 3241 
Q 2772 3088 2869 2813 
Q 3263 3394 3894 3394 
Q 4388 3394 4653 3120 
Q 4919 2847 4919 2278 
L 4919 0 
L 4359 0 
L 4359 2091 
Q 4359 2428 4304 2576 
Q 4250 2725 4106 2815 
Q 3963 2906 3769 2906 
Q 3419 2906 3187 2673 
Q 2956 2441 2956 1928 
L 2956 0 
L 2394 0 
L 2394 2156 
Q 2394 2531 2256 2718 
Q 2119 2906 1806 2906 
Q 1569 2906 1367 2781 
Q 1166 2656 1075 2415 
Q 984 2175 984 1722 
L 984 0 
L 422 0 
z
" transform="scale(0.015625)"/>
      <path id="ArialMT-3d" d="M 3381 2694 
L 356 2694 
L 356 3219 
L 3381 3219 
L 3381 2694 
z
M 3381 1303 
L 356 1303 
L 356 1828 
L 3381 1828 
L 3381 1303 
z
" transform="scale(0.015625)"/>
     </defs>
     <use xlink:href="#ArialMT-49"/>
     <use xlink:href="#ArialMT-3a" transform="translate(27.783203 0)"/>
     <use xlink:href="#ArialMT-20" transform="translate(55.566406 0)"/>
     <use xlink:href="#ArialMT-6e" transform="translate(83.349609 0)"/>
     <use xlink:href="#ArialMT-61" transform="translate(138.964844 0)"/>
     <use xlink:href="#ArialMT-6d" transform="translate(194.580078 0)"/>
     <use xlink:href="#ArialMT-65" transform="translate(277.880859 0)"/>
     <use xlink:href="#ArialMT-3d" transform="translate(333.496094 0)"/>
     <use xlink:href="#ArialMT-49" transform="translate(391.894531 0)"/>
     <use xlink:href="#ArialMT-73" transform="translate(419.677734 0)"/>
     <use xlink:href="#ArialMT-69" transform="translate(469.677734 0)"/>
     <use xlink:href="#ArialMT-73" transform="translate(491.894531 0)"/>
    </g>
   </g>
   <g id="text_10">
    <!-- J: rejoicing -->
    <g style="fill: #ffffff" transform="translate(25.384219 450.223552) scale(0.18 -0.18)">
     <defs>
      <path id="ArialMT-4a" d="M 184 1300 
L 731 1375 
Q 753 850 928 656 
Q 1103 463 1413 463 
Q 1641 463 1806 567 
Q 1972 672 2034 851 
Q 2097 1031 2097 1425 
L 2097 4581 
L 2703 4581 
L 2703 1459 
Q 2703 884 2564 568 
Q 2425 253 2123 87 
Q 1822 -78 1416 -78 
Q 813 -78 492 269 
Q 172 616 184 1300 
z
" transform="scale(0.015625)"/>
      <path id="ArialMT-6a" d="M 419 3928 
L 419 4581 
L 981 4581 
L 981 3928 
L 419 3928 
z
M -294 -1288 
L -188 -809 
Q -19 -853 78 -853 
Q 250 -853 334 -739 
Q 419 -625 419 -169 
L 419 3319 
L 981 3319 
L 981 -181 
Q 981 -794 822 -1034 
Q 619 -1347 147 -1347 
Q -81 -1347 -294 -1288 
z
" transform="scale(0.015625)"/>
     </defs>
     <use xlink:href="#ArialMT-4a"/>
     <use xlink:href="#ArialMT-3a" transform="translate(50 0)"/>
     <use xlink:href="#ArialMT-20" transform="translate(77.783203 0)"/>
     <use xlink:href="#ArialMT-72" transform="translate(105.566406 0)"/>
     <use xlink:href="#ArialMT-65" transform="translate(138.867188 0)"/>
     <use xlink:href="#ArialMT-6a" transform="translate(194.482422 0)"/>
     <use xlink:href="#ArialMT-6f" transform="translate(216.699219 0)"/>
     <use xlink:href="#ArialMT-69" transform="translate(272.314453 0)"/>
     <use xlink:href="#ArialMT-63" transform="translate(294.53125 0)"/>
     <use xlink:href="#ArialMT-69" transform="translate(344.53125 0)"/>
     <use xlink:href="#ArialMT-6e" transform="translate(366.748047 0)"/>
     <use xlink:href="#ArialMT-67" transform="translate(422.363281 0)"/>
    </g>
   </g>
   <g id="text_11">
    <!-- K: legitimacy -->
    <g transform="translate(17.385469 496.192783) scale(0.18 -0.18)">
     <defs>
      <path id="ArialMT-4b" d="M 469 0 
L 469 4581 
L 1075 4581 
L 1075 2309 
L 3350 4581 
L 4172 4581 
L 2250 2725 
L 4256 0 
L 3456 0 
L 1825 2319 
L 1075 1588 
L 1075 0 
L 469 0 
z
" transform="scale(0.015625)"/>
      <path id="ArialMT-6c" d="M 409 0 
L 409 4581 
L 972 4581 
L 972 0 
L 409 0 
z
" transform="scale(0.015625)"/>
      <path id="ArialMT-79" d="M 397 -1278 
L 334 -750 
Q 519 -800 656 -800 
Q 844 -800 956 -737 
Q 1069 -675 1141 -563 
Q 1194 -478 1313 -144 
Q 1328 -97 1363 -6 
L 103 3319 
L 709 3319 
L 1400 1397 
Q 1534 1031 1641 628 
Q 1738 1016 1872 1384 
L 2581 3319 
L 3144 3319 
L 1881 -56 
Q 1678 -603 1566 -809 
Q 1416 -1088 1222 -1217 
Q 1028 -1347 759 -1347 
Q 597 -1347 397 -1278 
z
" transform="scale(0.015625)"/>
     </defs>
     <use xlink:href="#ArialMT-4b"/>
     <use xlink:href="#ArialMT-3a" transform="translate(66.699219 0)"/>
     <use xlink:href="#ArialMT-20" transform="translate(94.482422 0)"/>
     <use xlink:href="#ArialMT-6c" transform="translate(122.265625 0)"/>
     <use xlink:href="#ArialMT-65" transform="translate(144.482422 0)"/>
     <use xlink:href="#ArialMT-67" transform="translate(200.097656 0)"/>
     <use xlink:href="#ArialMT-69" transform="translate(255.712891 0)"/>
     <use xlink:href="#ArialMT-74" transform="translate(277.929688 0)"/>
     <use xlink:href="#ArialMT-69" transform="translate(305.712891 0)"/>
     <use xlink:href="#ArialMT-6d" transform="translate(327.929688 0)"/>
     <use xlink:href="#ArialMT-61" transform="translate(411.230469 0)"/>
     <use xlink:href="#ArialMT-63" transform="translate(466.845703 0)"/>
     <use xlink:href="#ArialMT-79" transform="translate(516.845703 0)"/>
    </g>
   </g>
   <g id="text_12">
    <!-- L: alive -->
    <g transform="translate(39.885469 532.748295) scale(0.18 -0.18)">
     <defs>
      <path id="ArialMT-4c" d="M 469 0 
L 469 4581 
L 1075 4581 
L 1075 541 
L 3331 541 
L 3331 0 
L 469 0 
z
" transform="scale(0.015625)"/>
     </defs>
     <use xlink:href="#ArialMT-4c"/>
     <use xlink:href="#ArialMT-3a" transform="translate(55.615234 0)"/>
     <use xlink:href="#ArialMT-20" transform="translate(83.398438 0)"/>
     <use xlink:href="#ArialMT-61" transform="translate(111.181641 0)"/>
     <use xlink:href="#ArialMT-6c" transform="translate(166.796875 0)"/>
     <use xlink:href="#ArialMT-69" transform="translate(189.013672 0)"/>
     <use xlink:href="#ArialMT-76" transform="translate(211.230469 0)"/>
     <use xlink:href="#ArialMT-65" transform="translate(261.230469 0)"/>
    </g>
    <!-- revived -->
    <g transform="translate(39.389063 551.78667) scale(0.18 -0.18)">
     <defs>
      <path id="ArialMT-64" d="M 2575 0 
L 2575 419 
Q 2259 -75 1647 -75 
Q 1250 -75 917 144 
Q 584 363 401 755 
Q 219 1147 219 1656 
Q 219 2153 384 2558 
Q 550 2963 881 3178 
Q 1213 3394 1622 3394 
Q 1922 3394 2156 3267 
Q 2391 3141 2538 2938 
L 2538 4581 
L 3097 4581 
L 3097 0 
L 2575 0 
z
M 797 1656 
Q 797 1019 1065 703 
Q 1334 388 1700 388 
Q 2069 388 2326 689 
Q 2584 991 2584 1609 
Q 2584 2291 2321 2609 
Q 2059 2928 1675 2928 
Q 1300 2928 1048 2622 
Q 797 2316 797 1656 
z
" transform="scale(0.015625)"/>
     </defs>
     <use xlink:href="#ArialMT-72"/>
     <use xlink:href="#ArialMT-65" transform="translate(33.300781 0)"/>
     <use xlink:href="#ArialMT-76" transform="translate(88.916016 0)"/>
     <use xlink:href="#ArialMT-69" transform="translate(138.916016 0)"/>
     <use xlink:href="#ArialMT-76" transform="translate(161.132812 0)"/>
     <use xlink:href="#ArialMT-65" transform="translate(211.132812 0)"/>
     <use xlink:href="#ArialMT-64" transform="translate(266.748047 0)"/>
    </g>
   </g>
   <g id="text_13">
    <!-- M: mother -->
    <g transform="translate(27.894375 588.236713) scale(0.18 -0.18)">
     <defs>
      <path id="ArialMT-4d" d="M 475 0 
L 475 4581 
L 1388 4581 
L 2472 1338 
Q 2622 884 2691 659 
Q 2769 909 2934 1394 
L 4031 4581 
L 4847 4581 
L 4847 0 
L 4263 0 
L 4263 3834 
L 2931 0 
L 2384 0 
L 1059 3900 
L 1059 0 
L 475 0 
z
" transform="scale(0.015625)"/>
     </defs>
     <use xlink:href="#ArialMT-4d"/>
     <use xlink:href="#ArialMT-3a" transform="translate(83.300781 0)"/>
     <use xlink:href="#ArialMT-20" transform="translate(111.083984 0)"/>
     <use xlink:href="#ArialMT-6d" transform="translate(138.867188 0)"/>
     <use xlink:href="#ArialMT-6f" transform="translate(222.167969 0)"/>
     <use xlink:href="#ArialMT-74" transform="translate(277.783203 0)"/>
     <use xlink:href="#ArialMT-68" transform="translate(305.566406 0)"/>
     <use xlink:href="#ArialMT-65" transform="translate(361.181641 0)"/>
     <use xlink:href="#ArialMT-72" transform="translate(416.796875 0)"/>
    </g>
   </g>
   <g id="text_14">
    <!-- N: flooding -->
    <g transform="translate(25.375781 634.210163) scale(0.18 -0.18)">
     <defs>
      <path id="ArialMT-4e" d="M 488 0 
L 488 4581 
L 1109 4581 
L 3516 984 
L 3516 4581 
L 4097 4581 
L 4097 0 
L 3475 0 
L 1069 3600 
L 1069 0 
L 488 0 
z
" transform="scale(0.015625)"/>
     </defs>
     <use xlink:href="#ArialMT-4e"/>
     <use xlink:href="#ArialMT-3a" transform="translate(72.216797 0)"/>
     <use xlink:href="#ArialMT-20" transform="translate(100 0)"/>
     <use xlink:href="#ArialMT-66" transform="translate(127.783203 0)"/>
     <use xlink:href="#ArialMT-6c" transform="translate(155.566406 0)"/>
     <use xlink:href="#ArialMT-6f" transform="translate(177.783203 0)"/>
     <use xlink:href="#ArialMT-6f" transform="translate(233.398438 0)"/>
     <use xlink:href="#ArialMT-64" transform="translate(289.013672 0)"/>
     <use xlink:href="#ArialMT-69" transform="translate(344.628906 0)"/>
     <use xlink:href="#ArialMT-6e" transform="translate(366.845703 0)"/>
     <use xlink:href="#ArialMT-67" transform="translate(422.460938 0)"/>
    </g>
   </g>
   <g id="text_15">
    <!-- O: with Osiris -->
    <g style="fill: #ffffff" transform="translate(14.897813 680.175175) scale(0.18 -0.18)">
     <defs>
      <path id="ArialMT-4f" d="M 309 2231 
Q 309 3372 921 4017 
Q 1534 4663 2503 4663 
Q 3138 4663 3647 4359 
Q 4156 4056 4423 3514 
Q 4691 2972 4691 2284 
Q 4691 1588 4409 1038 
Q 4128 488 3612 205 
Q 3097 -78 2500 -78 
Q 1853 -78 1343 234 
Q 834 547 571 1087 
Q 309 1628 309 2231 
z
M 934 2222 
Q 934 1394 1379 917 
Q 1825 441 2497 441 
Q 3181 441 3623 922 
Q 4066 1403 4066 2288 
Q 4066 2847 3877 3264 
Q 3688 3681 3323 3911 
Q 2959 4141 2506 4141 
Q 1863 4141 1398 3698 
Q 934 3256 934 2222 
z
" transform="scale(0.015625)"/>
     </defs>
     <use xlink:href="#ArialMT-4f"/>
     <use xlink:href="#ArialMT-3a" transform="translate(77.783203 0)"/>
     <use xlink:href="#ArialMT-20" transform="translate(105.566406 0)"/>
     <use xlink:href="#ArialMT-77" transform="translate(133.349609 0)"/>
     <use xlink:href="#ArialMT-69" transform="translate(205.566406 0)"/>
     <use xlink:href="#ArialMT-74" transform="translate(227.783203 0)"/>
     <use xlink:href="#ArialMT-68" transform="translate(255.566406 0)"/>
     <use xlink:href="#ArialMT-20" transform="translate(311.181641 0)"/>
     <use xlink:href="#ArialMT-4f" transform="translate(338.964844 0)"/>
     <use xlink:href="#ArialMT-73" transform="translate(416.748047 0)"/>
     <use xlink:href="#ArialMT-69" transform="translate(466.748047 0)"/>
     <use xlink:href="#ArialMT-72" transform="translate(488.964844 0)"/>
     <use xlink:href="#ArialMT-69" transform="translate(522.265625 0)"/>
     <use xlink:href="#ArialMT-73" transform="translate(544.482422 0)"/>
    </g>
   </g>
   <g id="text_16">
    <!-- P: primeval -->
    <g transform="translate(23.38875 726.144406) scale(0.18 -0.18)">
     <defs>
      <path id="ArialMT-50" d="M 494 0 
L 494 4581 
L 2222 4581 
Q 2678 4581 2919 4538 
Q 3256 4481 3484 4323 
Q 3713 4166 3852 3881 
Q 3991 3597 3991 3256 
Q 3991 2672 3619 2267 
Q 3247 1863 2275 1863 
L 1100 1863 
L 1100 0 
L 494 0 
z
M 1100 2403 
L 2284 2403 
Q 2872 2403 3119 2622 
Q 3366 2841 3366 3238 
Q 3366 3525 3220 3729 
Q 3075 3934 2838 4000 
Q 2684 4041 2272 4041 
L 1100 4041 
L 1100 2403 
z
" transform="scale(0.015625)"/>
     </defs>
     <use xlink:href="#ArialMT-50"/>
     <use xlink:href="#ArialMT-3a" transform="translate(66.699219 0)"/>
     <use xlink:href="#ArialMT-20" transform="translate(94.482422 0)"/>
     <use xlink:href="#ArialMT-70" transform="translate(122.265625 0)"/>
     <use xlink:href="#ArialMT-72" transform="translate(177.880859 0)"/>
     <use xlink:href="#ArialMT-69" transform="translate(211.181641 0)"/>
     <use xlink:href="#ArialMT-6d" transform="translate(233.398438 0)"/>
     <use xlink:href="#ArialMT-65" transform="translate(316.699219 0)"/>
     <use xlink:href="#ArialMT-76" transform="translate(372.314453 0)"/>
     <use xlink:href="#ArialMT-61" transform="translate(422.314453 0)"/>
     <use xlink:href="#ArialMT-6c" transform="translate(477.929688 0)"/>
    </g>
   </g>
   <g id="text_17">
    <!-- Q: reign -->
    <g style="fill: #ffffff" transform="translate(36.388125 772.12348) scale(0.18 -0.18)">
     <defs>
      <path id="ArialMT-51" d="M 3966 491 
Q 4388 200 4744 66 
L 4566 -356 
Q 4072 -178 3581 206 
Q 3072 -78 2456 -78 
Q 1834 -78 1328 222 
Q 822 522 548 1065 
Q 275 1609 275 2291 
Q 275 2969 550 3525 
Q 825 4081 1333 4372 
Q 1841 4663 2469 4663 
Q 3103 4663 3612 4361 
Q 4122 4059 4389 3517 
Q 4656 2975 4656 2294 
Q 4656 1728 4484 1276 
Q 4313 825 3966 491 
z
M 2631 1266 
Q 3156 1119 3497 828 
Q 4031 1316 4031 2294 
Q 4031 2850 3842 3265 
Q 3653 3681 3289 3911 
Q 2925 4141 2472 4141 
Q 1794 4141 1347 3677 
Q 900 3213 900 2291 
Q 900 1397 1342 919 
Q 1784 441 2472 441 
Q 2797 441 3084 563 
Q 2800 747 2484 825 
L 2631 1266 
z
" transform="scale(0.015625)"/>
     </defs>
     <use xlink:href="#ArialMT-51"/>
     <use xlink:href="#ArialMT-3a" transform="translate(77.783203 0)"/>
     <use xlink:href="#ArialMT-20" transform="translate(105.566406 0)"/>
     <use xlink:href="#ArialMT-72" transform="translate(133.349609 0)"/>
     <use xlink:href="#ArialMT-65" transform="translate(166.650391 0)"/>
     <use xlink:href="#ArialMT-69" transform="translate(222.265625 0)"/>
     <use xlink:href="#ArialMT-67" transform="translate(244.482422 0)"/>
     <use xlink:href="#ArialMT-6e" transform="translate(300.097656 0)"/>
    </g>
   </g>
   <g id="text_18">
    <!-- R: illuminious -->
    <g transform="translate(14.885156 818.082867) scale(0.18 -0.18)">
     <defs>
      <path id="ArialMT-52" d="M 503 0 
L 503 4581 
L 2534 4581 
Q 3147 4581 3465 4457 
Q 3784 4334 3975 4021 
Q 4166 3709 4166 3331 
Q 4166 2844 3850 2509 
Q 3534 2175 2875 2084 
Q 3116 1969 3241 1856 
Q 3506 1613 3744 1247 
L 4541 0 
L 3778 0 
L 3172 953 
Q 2906 1366 2734 1584 
Q 2563 1803 2427 1890 
Q 2291 1978 2150 2013 
Q 2047 2034 1813 2034 
L 1109 2034 
L 1109 0 
L 503 0 
z
M 1109 2559 
L 2413 2559 
Q 2828 2559 3062 2645 
Q 3297 2731 3419 2920 
Q 3541 3109 3541 3331 
Q 3541 3656 3305 3865 
Q 3069 4075 2559 4075 
L 1109 4075 
L 1109 2559 
z
" transform="scale(0.015625)"/>
     </defs>
     <use xlink:href="#ArialMT-52"/>
     <use xlink:href="#ArialMT-3a" transform="translate(72.216797 0)"/>
     <use xlink:href="#ArialMT-20" transform="translate(100 0)"/>
     <use xlink:href="#ArialMT-69" transform="translate(127.783203 0)"/>
     <use xlink:href="#ArialMT-6c" transform="translate(150 0)"/>
     <use xlink:href="#ArialMT-6c" transform="translate(172.216797 0)"/>
     <use xlink:href="#ArialMT-75" transform="translate(194.433594 0)"/>
     <use xlink:href="#ArialMT-6d" transform="translate(250.048828 0)"/>
     <use xlink:href="#ArialMT-69" transform="translate(333.349609 0)"/>
     <use xlink:href="#ArialMT-6e" transform="translate(355.566406 0)"/>
     <use xlink:href="#ArialMT-69" transform="translate(411.181641 0)"/>
     <use xlink:href="#ArialMT-6f" transform="translate(433.398438 0)"/>
     <use xlink:href="#ArialMT-75" transform="translate(489.013672 0)"/>
     <use xlink:href="#ArialMT-73" transform="translate(544.628906 0)"/>
    </g>
   </g>
   <g id="text_19">
    <!-- S: stars -->
    <g transform="translate(37.894219 864.052098) scale(0.18 -0.18)">
     <defs>
      <path id="ArialMT-53" d="M 288 1472 
L 859 1522 
Q 900 1178 1048 958 
Q 1197 738 1509 602 
Q 1822 466 2213 466 
Q 2559 466 2825 569 
Q 3091 672 3220 851 
Q 3350 1031 3350 1244 
Q 3350 1459 3225 1620 
Q 3100 1781 2813 1891 
Q 2628 1963 1997 2114 
Q 1366 2266 1113 2400 
Q 784 2572 623 2826 
Q 463 3081 463 3397 
Q 463 3744 659 4045 
Q 856 4347 1234 4503 
Q 1613 4659 2075 4659 
Q 2584 4659 2973 4495 
Q 3363 4331 3572 4012 
Q 3781 3694 3797 3291 
L 3216 3247 
Q 3169 3681 2898 3903 
Q 2628 4125 2100 4125 
Q 1550 4125 1298 3923 
Q 1047 3722 1047 3438 
Q 1047 3191 1225 3031 
Q 1400 2872 2139 2705 
Q 2878 2538 3153 2413 
Q 3553 2228 3743 1945 
Q 3934 1663 3934 1294 
Q 3934 928 3725 604 
Q 3516 281 3123 101 
Q 2731 -78 2241 -78 
Q 1619 -78 1198 103 
Q 778 284 539 648 
Q 300 1013 288 1472 
z
" transform="scale(0.015625)"/>
     </defs>
     <use xlink:href="#ArialMT-53"/>
     <use xlink:href="#ArialMT-3a" transform="translate(66.699219 0)"/>
     <use xlink:href="#ArialMT-20" transform="translate(94.482422 0)"/>
     <use xlink:href="#ArialMT-73" transform="translate(122.265625 0)"/>
     <use xlink:href="#ArialMT-74" transform="translate(172.265625 0)"/>
     <use xlink:href="#ArialMT-61" transform="translate(200.048828 0)"/>
     <use xlink:href="#ArialMT-72" transform="translate(255.664062 0)"/>
     <use xlink:href="#ArialMT-73" transform="translate(288.964844 0)"/>
    </g>
   </g>
   <g id="text_20">
    <!-- T: topography -->
    <g style="fill: #ffffff" transform="translate(13.872656 909.91586) scale(0.18 -0.18)">
     <defs>
      <path id="ArialMT-54" d="M 1659 0 
L 1659 4041 
L 150 4041 
L 150 4581 
L 3781 4581 
L 3781 4041 
L 2266 4041 
L 2266 0 
L 1659 0 
z
" transform="scale(0.015625)"/>
     </defs>
     <use xlink:href="#ArialMT-54"/>
     <use xlink:href="#ArialMT-3a" transform="translate(49.958984 0)"/>
     <use xlink:href="#ArialMT-20" transform="translate(77.742188 0)"/>
     <use xlink:href="#ArialMT-74" transform="translate(105.525391 0)"/>
     <use xlink:href="#ArialMT-6f" transform="translate(133.308594 0)"/>
     <use xlink:href="#ArialMT-70" transform="translate(188.923828 0)"/>
     <use xlink:href="#ArialMT-6f" transform="translate(244.539062 0)"/>
     <use xlink:href="#ArialMT-67" transform="translate(300.154297 0)"/>
     <use xlink:href="#ArialMT-72" transform="translate(355.769531 0)"/>
     <use xlink:href="#ArialMT-61" transform="translate(389.070312 0)"/>
     <use xlink:href="#ArialMT-70" transform="translate(444.685547 0)"/>
     <use xlink:href="#ArialMT-68" transform="translate(500.300781 0)"/>
     <use xlink:href="#ArialMT-79" transform="translate(555.916016 0)"/>
    </g>
   </g>
   <g id="text_21">
    <!-- U: Ureaus -->
    <g transform="translate(27.88875 955.990559) scale(0.18 -0.18)">
     <defs>
      <path id="ArialMT-55" d="M 3500 4581 
L 4106 4581 
L 4106 1934 
Q 4106 1244 3950 837 
Q 3794 431 3386 176 
Q 2978 -78 2316 -78 
Q 1672 -78 1262 144 
Q 853 366 678 786 
Q 503 1206 503 1934 
L 503 4581 
L 1109 4581 
L 1109 1938 
Q 1109 1341 1220 1058 
Q 1331 775 1601 622 
Q 1872 469 2263 469 
Q 2931 469 3215 772 
Q 3500 1075 3500 1938 
L 3500 4581 
z
" transform="scale(0.015625)"/>
     </defs>
     <use xlink:href="#ArialMT-55"/>
     <use xlink:href="#ArialMT-3a" transform="translate(72.216797 0)"/>
     <use xlink:href="#ArialMT-20" transform="translate(100 0)"/>
     <use xlink:href="#ArialMT-55" transform="translate(127.783203 0)"/>
     <use xlink:href="#ArialMT-72" transform="translate(200 0)"/>
     <use xlink:href="#ArialMT-65" transform="translate(233.300781 0)"/>
     <use xlink:href="#ArialMT-61" transform="translate(288.916016 0)"/>
     <use xlink:href="#ArialMT-75" transform="translate(344.53125 0)"/>
     <use xlink:href="#ArialMT-73" transform="translate(400.146484 0)"/>
    </g>
   </g>
   <g id="text_22">
    <!-- V: vizier -->
    <g transform="translate(36.732656 1001.95979) scale(0.18 -0.18)">
     <defs>
      <path id="ArialMT-56" d="M 1803 0 
L 28 4581 
L 684 4581 
L 1875 1253 
Q 2019 853 2116 503 
Q 2222 878 2363 1253 
L 3600 4581 
L 4219 4581 
L 2425 0 
L 1803 0 
z
" transform="scale(0.015625)"/>
      <path id="ArialMT-7a" d="M 125 0 
L 125 456 
L 2238 2881 
Q 1878 2863 1603 2863 
L 250 2863 
L 250 3319 
L 2963 3319 
L 2963 2947 
L 1166 841 
L 819 456 
Q 1197 484 1528 484 
L 3063 484 
L 3063 0 
L 125 0 
z
" transform="scale(0.015625)"/>
     </defs>
     <use xlink:href="#ArialMT-56"/>
     <use xlink:href="#ArialMT-3a" transform="translate(62.949219 0)"/>
     <use xlink:href="#ArialMT-20" transform="translate(90.732422 0)"/>
     <use xlink:href="#ArialMT-76" transform="translate(118.515625 0)"/>
     <use xlink:href="#ArialMT-69" transform="translate(168.515625 0)"/>
     <use xlink:href="#ArialMT-7a" transform="translate(190.732422 0)"/>
     <use xlink:href="#ArialMT-69" transform="translate(240.732422 0)"/>
     <use xlink:href="#ArialMT-65" transform="translate(262.949219 0)"/>
     <use xlink:href="#ArialMT-72" transform="translate(318.564453 0)"/>
    </g>
   </g>
   <g id="text_23">
    <!-- W: offering -->
    <g transform="translate(25.202813 1047.93324) scale(0.18 -0.18)">
     <defs>
      <path id="ArialMT-57" d="M 1294 0 
L 78 4581 
L 700 4581 
L 1397 1578 
Q 1509 1106 1591 641 
Q 1766 1375 1797 1488 
L 2669 4581 
L 3400 4581 
L 4056 2263 
Q 4303 1400 4413 641 
Q 4500 1075 4641 1638 
L 5359 4581 
L 5969 4581 
L 4713 0 
L 4128 0 
L 3163 3491 
Q 3041 3928 3019 4028 
Q 2947 3713 2884 3491 
L 1913 0 
L 1294 0 
z
" transform="scale(0.015625)"/>
     </defs>
     <use xlink:href="#ArialMT-57"/>
     <use xlink:href="#ArialMT-3a" transform="translate(92.634766 0)"/>
     <use xlink:href="#ArialMT-20" transform="translate(120.417969 0)"/>
     <use xlink:href="#ArialMT-6f" transform="translate(148.201172 0)"/>
     <use xlink:href="#ArialMT-66" transform="translate(203.816406 0)"/>
     <use xlink:href="#ArialMT-66" transform="translate(229.849609 0)"/>
     <use xlink:href="#ArialMT-65" transform="translate(257.632812 0)"/>
     <use xlink:href="#ArialMT-72" transform="translate(313.248047 0)"/>
     <use xlink:href="#ArialMT-69" transform="translate(346.548828 0)"/>
     <use xlink:href="#ArialMT-6e" transform="translate(368.765625 0)"/>
     <use xlink:href="#ArialMT-67" transform="translate(424.380859 0)"/>
    </g>
   </g>
   <g id="text_24">
    <!-- X: funeral -->
    <g transform="translate(29.88 1093.898252) scale(0.18 -0.18)">
     <defs>
      <path id="ArialMT-58" d="M 28 0 
L 1800 2388 
L 238 4581 
L 959 4581 
L 1791 3406 
Q 2050 3041 2159 2844 
Q 2313 3094 2522 3366 
L 3444 4581 
L 4103 4581 
L 2494 2422 
L 4228 0 
L 3478 0 
L 2325 1634 
Q 2228 1775 2125 1941 
Q 1972 1691 1906 1597 
L 756 0 
L 28 0 
z
" transform="scale(0.015625)"/>
     </defs>
     <use xlink:href="#ArialMT-58"/>
     <use xlink:href="#ArialMT-3a" transform="translate(66.699219 0)"/>
     <use xlink:href="#ArialMT-20" transform="translate(94.482422 0)"/>
     <use xlink:href="#ArialMT-66" transform="translate(122.265625 0)"/>
     <use xlink:href="#ArialMT-75" transform="translate(150.048828 0)"/>
     <use xlink:href="#ArialMT-6e" transform="translate(205.664062 0)"/>
     <use xlink:href="#ArialMT-65" transform="translate(261.279297 0)"/>
     <use xlink:href="#ArialMT-72" transform="translate(316.894531 0)"/>
     <use xlink:href="#ArialMT-61" transform="translate(350.195312 0)"/>
     <use xlink:href="#ArialMT-6c" transform="translate(405.810547 0)"/>
    </g>
   </g>
   <g id="text_25">
    <!-- Y: sister -->
    <g transform="translate(36.389531 1139.867482) scale(0.18 -0.18)">
     <defs>
      <path id="ArialMT-59" d="M 1784 0 
L 1784 1941 
L 19 4581 
L 756 4581 
L 1659 3200 
Q 1909 2813 2125 2425 
Q 2331 2784 2625 3234 
L 3513 4581 
L 4219 4581 
L 2391 1941 
L 2391 0 
L 1784 0 
z
" transform="scale(0.015625)"/>
     </defs>
     <use xlink:href="#ArialMT-59"/>
     <use xlink:href="#ArialMT-3a" transform="translate(61.199219 0)"/>
     <use xlink:href="#ArialMT-20" transform="translate(88.982422 0)"/>
     <use xlink:href="#ArialMT-73" transform="translate(116.765625 0)"/>
     <use xlink:href="#ArialMT-69" transform="translate(166.765625 0)"/>
     <use xlink:href="#ArialMT-73" transform="translate(188.982422 0)"/>
     <use xlink:href="#ArialMT-74" transform="translate(238.982422 0)"/>
     <use xlink:href="#ArialMT-65" transform="translate(266.765625 0)"/>
     <use xlink:href="#ArialMT-72" transform="translate(322.380859 0)"/>
    </g>
   </g>
   <g id="text_26">
    <!-- Z: daughter -->
    <g transform="translate(22.37625 1185.731244) scale(0.18 -0.18)">
     <defs>
      <path id="ArialMT-5a" d="M 128 0 
L 128 563 
L 2475 3497 
Q 2725 3809 2950 4041 
L 394 4041 
L 394 4581 
L 3675 4581 
L 3675 4041 
L 1103 863 
L 825 541 
L 3750 541 
L 3750 0 
L 128 0 
z
" transform="scale(0.015625)"/>
     </defs>
     <use xlink:href="#ArialMT-5a"/>
     <use xlink:href="#ArialMT-3a" transform="translate(61.083984 0)"/>
     <use xlink:href="#ArialMT-20" transform="translate(88.867188 0)"/>
     <use xlink:href="#ArialMT-64" transform="translate(116.650391 0)"/>
     <use xlink:href="#ArialMT-61" transform="translate(172.265625 0)"/>
     <use xlink:href="#ArialMT-75" transform="translate(227.880859 0)"/>
     <use xlink:href="#ArialMT-67" transform="translate(283.496094 0)"/>
     <use xlink:href="#ArialMT-68" transform="translate(339.111328 0)"/>
     <use xlink:href="#ArialMT-74" transform="translate(394.726562 0)"/>
     <use xlink:href="#ArialMT-65" transform="translate(422.509766 0)"/>
     <use xlink:href="#ArialMT-72" transform="translate(478.125 0)"/>
    </g>
   </g>
  </g>
 </g>
 <defs>
  <clipPath id="p6628f76c26">
   <rect x="7.2" y="7.2" width="122.4" height="1195.2"/>
  </clipPath>
 </defs>
</svg>
