<?xml version="1.0" encoding="utf-8" standalone="no"?>
<!DOCTYPE svg PUBLIC "-//W3C//DTD SVG 1.1//EN"
  "http://www.w3.org/Graphics/SVG/1.1/DTD/svg11.dtd">
<svg xmlns:xlink="http://www.w3.org/1999/xlink" width="1346.544pt" height="1130.544pt" viewBox="0 0 1346.544 1130.544" xmlns="http://www.w3.org/2000/svg" version="1.1">
 <metadata>
  <rdf:RDF xmlns:dc="http://purl.org/dc/elements/1.1/" xmlns:cc="http://creativecommons.org/ns#" xmlns:rdf="http://www.w3.org/1999/02/22-rdf-syntax-ns#">
   <cc:Work>
    <dc:type rdf:resource="http://purl.org/dc/dcmitype/StillImage"/>
    <dc:date>2025-05-06T22:08:06.915604</dc:date>
    <dc:format>image/svg+xml</dc:format>
    <dc:creator>
     <cc:Agent>
      <dc:title>Matplotlib v3.10.1, https://matplotlib.org/</dc:title>
     </cc:Agent>
    </dc:creator>
   </cc:Work>
  </rdf:RDF>
 </metadata>
 <defs>
  <style type="text/css">*{stroke-linejoin: round; stroke-linecap: butt}</style>
 </defs>
 <g id="figure_1">
  <g id="patch_1">
   <path d="M -0 1130.544 
L 1346.544 1130.544 
L 1346.544 0 
L -0 0 
z
" style="fill: #ffffff"/>
  </g>
  <g id="axes_1">
   <g id="patch_2">
    <path d="M 168.372 102.835636 
L 252.522 102.835636 
L 252.522 72.006545 
L 168.372 72.006545 
z
" clip-path="url(#p1af116ecf6)" style="fill: #add8e6; stroke: #ffffff; stroke-linejoin: miter"/>
   </g>
   <g id="patch_3">
    <path d="M 252.522 102.835636 
L 336.672 102.835636 
L 336.672 72.006545 
L 252.522 72.006545 
z
" clip-path="url(#p1af116ecf6)" style="fill: #ff69b4; stroke: #ffffff; stroke-linejoin: miter"/>
   </g>
   <g id="patch_4">
    <path d="M 336.672 102.835636 
L 420.822 102.835636 
L 420.822 72.006545 
L 336.672 72.006545 
z
" clip-path="url(#p1af116ecf6)" style="fill: #ff8c00; stroke: #ffffff; stroke-linejoin: miter"/>
   </g>
   <g id="patch_5">
    <path d="M 420.822 102.835636 
L 504.972 102.835636 
L 504.972 72.006545 
L 420.822 72.006545 
z
" clip-path="url(#p1af116ecf6)" style="fill: #0000ff; stroke: #ffffff; stroke-linejoin: miter"/>
   </g>
   <g id="patch_6">
    <path d="M 504.972 102.835636 
L 589.122 102.835636 
L 589.122 72.006545 
L 504.972 72.006545 
z
" clip-path="url(#p1af116ecf6)" style="fill: #a0522d; stroke: #ffffff; stroke-linejoin: miter"/>
   </g>
   <g id="patch_7">
    <path d="M 589.122 102.835636 
L 673.272 102.835636 
L 673.272 72.006545 
L 589.122 72.006545 
z
" clip-path="url(#p1af116ecf6)" style="fill: #a0522d; stroke: #ffffff; stroke-linejoin: miter"/>
   </g>
   <g id="patch_8">
    <path d="M 673.272 102.835636 
L 757.422 102.835636 
L 757.422 72.006545 
L 673.272 72.006545 
z
" clip-path="url(#p1af116ecf6)" style="fill: #a0522d; stroke: #ffffff; stroke-linejoin: miter"/>
   </g>
   <g id="patch_9">
    <path d="M 757.422 102.835636 
L 841.572 102.835636 
L 841.572 72.006545 
L 757.422 72.006545 
z
" clip-path="url(#p1af116ecf6)" style="fill: #ff0000; stroke: #ffffff; stroke-linejoin: miter"/>
   </g>
   <g id="patch_10">
    <path d="M 841.572 102.835636 
L 925.722 102.835636 
L 925.722 72.006545 
L 841.572 72.006545 
z
" clip-path="url(#p1af116ecf6)" style="fill: #ff69b4; stroke: #ffffff; stroke-linejoin: miter"/>
   </g>
   <g id="patch_11">
    <path d="M 168.372 154.217455 
L 252.522 154.217455 
L 252.522 123.388364 
L 168.372 123.388364 
z
" clip-path="url(#p1af116ecf6)" style="fill: #add8e6; stroke: #ffffff; stroke-linejoin: miter"/>
   </g>
   <g id="patch_12">
    <path d="M 252.522 154.217455 
L 336.672 154.217455 
L 336.672 123.388364 
L 252.522 123.388364 
z
" clip-path="url(#p1af116ecf6)" style="fill: #ff69b4; stroke: #ffffff; stroke-linejoin: miter"/>
   </g>
   <g id="patch_13">
    <path d="M 336.672 154.217455 
L 420.822 154.217455 
L 420.822 123.388364 
L 336.672 123.388364 
z
" clip-path="url(#p1af116ecf6)" style="fill: #ff8c00; stroke: #ffffff; stroke-linejoin: miter"/>
   </g>
   <g id="patch_14">
    <path d="M 420.822 154.217455 
L 504.972 154.217455 
L 504.972 123.388364 
L 420.822 123.388364 
z
" clip-path="url(#p1af116ecf6)" style="fill: #0000ff; stroke: #ffffff; stroke-linejoin: miter"/>
   </g>
   <g id="patch_15">
    <path d="M 504.972 154.217455 
L 589.122 154.217455 
L 589.122 123.388364 
L 504.972 123.388364 
z
" clip-path="url(#p1af116ecf6)" style="fill: #a0522d; stroke: #ffffff; stroke-linejoin: miter"/>
   </g>
   <g id="patch_16">
    <path d="M 589.122 154.217455 
L 673.272 154.217455 
L 673.272 123.388364 
L 589.122 123.388364 
z
" clip-path="url(#p1af116ecf6)" style="fill: #bdb76b; stroke: #ffffff; stroke-linejoin: miter"/>
   </g>
   <g id="patch_17">
    <path d="M 168.372 205.599273 
L 252.522 205.599273 
L 252.522 174.770182 
L 168.372 174.770182 
z
" clip-path="url(#p1af116ecf6)" style="fill: #add8e6; stroke: #ffffff; stroke-linejoin: miter"/>
   </g>
   <g id="patch_18">
    <path d="M 252.522 205.599273 
L 336.672 205.599273 
L 336.672 174.770182 
L 252.522 174.770182 
z
" clip-path="url(#p1af116ecf6)" style="fill: #ff69b4; stroke: #ffffff; stroke-linejoin: miter"/>
   </g>
   <g id="patch_19">
    <path d="M 336.672 205.599273 
L 420.822 205.599273 
L 420.822 174.770182 
L 336.672 174.770182 
z
" clip-path="url(#p1af116ecf6)" style="fill: #ff8c00; stroke: #ffffff; stroke-linejoin: miter"/>
   </g>
   <g id="patch_20">
    <path d="M 420.822 205.599273 
L 504.972 205.599273 
L 504.972 174.770182 
L 420.822 174.770182 
z
" clip-path="url(#p1af116ecf6)" style="fill: #0000ff; stroke: #ffffff; stroke-linejoin: miter"/>
   </g>
   <g id="patch_21">
    <path d="M 504.972 205.599273 
L 589.122 205.599273 
L 589.122 174.770182 
L 504.972 174.770182 
z
" clip-path="url(#p1af116ecf6)" style="fill: #a0522d; stroke: #ffffff; stroke-linejoin: miter"/>
   </g>
   <g id="patch_22">
    <path d="M 589.122 205.599273 
L 673.272 205.599273 
L 673.272 174.770182 
L 589.122 174.770182 
z
" clip-path="url(#p1af116ecf6)" style="fill: #0000ff; stroke: #ffffff; stroke-linejoin: miter"/>
   </g>
   <g id="patch_23">
    <path d="M 673.272 205.599273 
L 757.422 205.599273 
L 757.422 174.770182 
L 673.272 174.770182 
z
" clip-path="url(#p1af116ecf6)" style="fill: #a0522d; stroke: #ffffff; stroke-linejoin: miter"/>
   </g>
   <g id="patch_24">
    <path d="M 757.422 205.599273 
L 841.572 205.599273 
L 841.572 174.770182 
L 757.422 174.770182 
z
" clip-path="url(#p1af116ecf6)" style="fill: #bdb76b; stroke: #ffffff; stroke-linejoin: miter"/>
   </g>
   <g id="patch_25">
    <path d="M 841.572 205.599273 
L 925.722 205.599273 
L 925.722 174.770182 
L 841.572 174.770182 
z
" clip-path="url(#p1af116ecf6)" style="fill: #006400; stroke: #ffffff; stroke-linejoin: miter"/>
   </g>
   <g id="patch_26">
    <path d="M 925.722 205.599273 
L 1009.872 205.599273 
L 1009.872 174.770182 
L 925.722 174.770182 
z
" clip-path="url(#p1af116ecf6)" style="fill: #00ffff; stroke: #ffffff; stroke-linejoin: miter"/>
   </g>
   <g id="patch_27">
    <path d="M 168.372 256.981091 
L 252.522 256.981091 
L 252.522 226.152 
L 168.372 226.152 
z
" clip-path="url(#p1af116ecf6)" style="fill: #add8e6; stroke: #ffffff; stroke-linejoin: miter"/>
   </g>
   <g id="patch_28">
    <path d="M 252.522 256.981091 
L 336.672 256.981091 
L 336.672 226.152 
L 252.522 226.152 
z
" clip-path="url(#p1af116ecf6)" style="fill: #ff69b4; stroke: #ffffff; stroke-linejoin: miter"/>
   </g>
   <g id="patch_29">
    <path d="M 336.672 256.981091 
L 420.822 256.981091 
L 420.822 226.152 
L 336.672 226.152 
z
" clip-path="url(#p1af116ecf6)" style="fill: #ff8c00; stroke: #ffffff; stroke-linejoin: miter"/>
   </g>
   <g id="patch_30">
    <path d="M 420.822 256.981091 
L 504.972 256.981091 
L 504.972 226.152 
L 420.822 226.152 
z
" clip-path="url(#p1af116ecf6)" style="fill: #0000ff; stroke: #ffffff; stroke-linejoin: miter"/>
   </g>
   <g id="patch_31">
    <path d="M 504.972 256.981091 
L 589.122 256.981091 
L 589.122 226.152 
L 504.972 226.152 
z
" clip-path="url(#p1af116ecf6)" style="fill: #a0522d; stroke: #ffffff; stroke-linejoin: miter"/>
   </g>
   <g id="patch_32">
    <path d="M 589.122 256.981091 
L 673.272 256.981091 
L 673.272 226.152 
L 589.122 226.152 
z
" clip-path="url(#p1af116ecf6)" style="fill: #0000ff; stroke: #ffffff; stroke-linejoin: miter"/>
   </g>
   <g id="patch_33">
    <path d="M 673.272 256.981091 
L 757.422 256.981091 
L 757.422 226.152 
L 673.272 226.152 
z
" clip-path="url(#p1af116ecf6)" style="fill: #0000ff; stroke: #ffffff; stroke-linejoin: miter"/>
   </g>
   <g id="patch_34">
    <path d="M 757.422 256.981091 
L 841.572 256.981091 
L 841.572 226.152 
L 757.422 226.152 
z
" clip-path="url(#p1af116ecf6)" style="fill: #ff0000; stroke: #ffffff; stroke-linejoin: miter"/>
   </g>
   <g id="patch_35">
    <path d="M 841.572 256.981091 
L 925.722 256.981091 
L 925.722 226.152 
L 841.572 226.152 
z
" clip-path="url(#p1af116ecf6)" style="fill: #bdb76b; stroke: #ffffff; stroke-linejoin: miter"/>
   </g>
   <g id="patch_36">
    <path d="M 168.372 308.362909 
L 252.522 308.362909 
L 252.522 277.533818 
L 168.372 277.533818 
z
" clip-path="url(#p1af116ecf6)" style="fill: #add8e6; stroke: #ffffff; stroke-linejoin: miter"/>
   </g>
   <g id="patch_37">
    <path d="M 252.522 308.362909 
L 336.672 308.362909 
L 336.672 277.533818 
L 252.522 277.533818 
z
" clip-path="url(#p1af116ecf6)" style="fill: #ff69b4; stroke: #ffffff; stroke-linejoin: miter"/>
   </g>
   <g id="patch_38">
    <path d="M 336.672 308.362909 
L 420.822 308.362909 
L 420.822 277.533818 
L 336.672 277.533818 
z
" clip-path="url(#p1af116ecf6)" style="fill: #ff8c00; stroke: #ffffff; stroke-linejoin: miter"/>
   </g>
   <g id="patch_39">
    <path d="M 420.822 308.362909 
L 504.972 308.362909 
L 504.972 277.533818 
L 420.822 277.533818 
z
" clip-path="url(#p1af116ecf6)" style="fill: #0000ff; stroke: #ffffff; stroke-linejoin: miter"/>
   </g>
   <g id="patch_40">
    <path d="M 504.972 308.362909 
L 589.122 308.362909 
L 589.122 277.533818 
L 504.972 277.533818 
z
" clip-path="url(#p1af116ecf6)" style="fill: #a0522d; stroke: #ffffff; stroke-linejoin: miter"/>
   </g>
   <g id="patch_41">
    <path d="M 589.122 308.362909 
L 673.272 308.362909 
L 673.272 277.533818 
L 589.122 277.533818 
z
" clip-path="url(#p1af116ecf6)" style="fill: #a0522d; stroke: #ffffff; stroke-linejoin: miter"/>
   </g>
   <g id="patch_42">
    <path d="M 673.272 308.362909 
L 757.422 308.362909 
L 757.422 277.533818 
L 673.272 277.533818 
z
" clip-path="url(#p1af116ecf6)" style="fill: #0000ff; stroke: #ffffff; stroke-linejoin: miter"/>
   </g>
   <g id="patch_43">
    <path d="M 757.422 308.362909 
L 841.572 308.362909 
L 841.572 277.533818 
L 757.422 277.533818 
z
" clip-path="url(#p1af116ecf6)" style="fill: #ff0000; stroke: #ffffff; stroke-linejoin: miter"/>
   </g>
   <g id="patch_44">
    <path d="M 841.572 308.362909 
L 925.722 308.362909 
L 925.722 277.533818 
L 841.572 277.533818 
z
" clip-path="url(#p1af116ecf6)" style="fill: #006400; stroke: #ffffff; stroke-linejoin: miter"/>
   </g>
   <g id="patch_45">
    <path d="M 168.372 359.744727 
L 252.522 359.744727 
L 252.522 328.915636 
L 168.372 328.915636 
z
" clip-path="url(#p1af116ecf6)" style="fill: #add8e6; stroke: #ffffff; stroke-linejoin: miter"/>
   </g>
   <g id="patch_46">
    <path d="M 252.522 359.744727 
L 336.672 359.744727 
L 336.672 328.915636 
L 252.522 328.915636 
z
" clip-path="url(#p1af116ecf6)" style="fill: #ff69b4; stroke: #ffffff; stroke-linejoin: miter"/>
   </g>
   <g id="patch_47">
    <path d="M 336.672 359.744727 
L 420.822 359.744727 
L 420.822 328.915636 
L 336.672 328.915636 
z
" clip-path="url(#p1af116ecf6)" style="fill: #ff8c00; stroke: #ffffff; stroke-linejoin: miter"/>
   </g>
   <g id="patch_48">
    <path d="M 420.822 359.744727 
L 504.972 359.744727 
L 504.972 328.915636 
L 420.822 328.915636 
z
" clip-path="url(#p1af116ecf6)" style="fill: #0000ff; stroke: #ffffff; stroke-linejoin: miter"/>
   </g>
   <g id="patch_49">
    <path d="M 504.972 359.744727 
L 589.122 359.744727 
L 589.122 328.915636 
L 504.972 328.915636 
z
" clip-path="url(#p1af116ecf6)" style="fill: #a0522d; stroke: #ffffff; stroke-linejoin: miter"/>
   </g>
   <g id="patch_50">
    <path d="M 589.122 359.744727 
L 673.272 359.744727 
L 673.272 328.915636 
L 589.122 328.915636 
z
" clip-path="url(#p1af116ecf6)" style="fill: #ffff00; stroke: #ffffff; stroke-linejoin: miter"/>
   </g>
   <g id="patch_51">
    <path d="M 673.272 359.744727 
L 757.422 359.744727 
L 757.422 328.915636 
L 673.272 328.915636 
z
" clip-path="url(#p1af116ecf6)" style="fill: #ffff00; stroke: #ffffff; stroke-linejoin: miter"/>
   </g>
   <g id="patch_52">
    <path d="M 757.422 359.744727 
L 841.572 359.744727 
L 841.572 328.915636 
L 757.422 328.915636 
z
" clip-path="url(#p1af116ecf6)" style="fill: #ffe4b5; stroke: #ffffff; stroke-linejoin: miter"/>
   </g>
   <g id="patch_53">
    <path d="M 841.572 359.744727 
L 925.722 359.744727 
L 925.722 328.915636 
L 841.572 328.915636 
z
" clip-path="url(#p1af116ecf6)" style="fill: #0000ff; stroke: #ffffff; stroke-linejoin: miter"/>
   </g>
   <g id="patch_54">
    <path d="M 168.372 411.126545 
L 252.522 411.126545 
L 252.522 380.297455 
L 168.372 380.297455 
z
" clip-path="url(#p1af116ecf6)" style="fill: #add8e6; stroke: #ffffff; stroke-linejoin: miter"/>
   </g>
   <g id="patch_55">
    <path d="M 252.522 411.126545 
L 336.672 411.126545 
L 336.672 380.297455 
L 252.522 380.297455 
z
" clip-path="url(#p1af116ecf6)" style="fill: #ff69b4; stroke: #ffffff; stroke-linejoin: miter"/>
   </g>
   <g id="patch_56">
    <path d="M 336.672 411.126545 
L 420.822 411.126545 
L 420.822 380.297455 
L 336.672 380.297455 
z
" clip-path="url(#p1af116ecf6)" style="fill: #ff8c00; stroke: #ffffff; stroke-linejoin: miter"/>
   </g>
   <g id="patch_57">
    <path d="M 420.822 411.126545 
L 504.972 411.126545 
L 504.972 380.297455 
L 420.822 380.297455 
z
" clip-path="url(#p1af116ecf6)" style="fill: #0000ff; stroke: #ffffff; stroke-linejoin: miter"/>
   </g>
   <g id="patch_58">
    <path d="M 504.972 411.126545 
L 589.122 411.126545 
L 589.122 380.297455 
L 504.972 380.297455 
z
" clip-path="url(#p1af116ecf6)" style="fill: #ffff00; stroke: #ffffff; stroke-linejoin: miter"/>
   </g>
   <g id="patch_59">
    <path d="M 589.122 411.126545 
L 673.272 411.126545 
L 673.272 380.297455 
L 589.122 380.297455 
z
" clip-path="url(#p1af116ecf6)" style="fill: #ffff00; stroke: #ffffff; stroke-linejoin: miter"/>
   </g>
   <g id="patch_60">
    <path d="M 673.272 411.126545 
L 757.422 411.126545 
L 757.422 380.297455 
L 673.272 380.297455 
z
" clip-path="url(#p1af116ecf6)" style="fill: #ffff00; stroke: #ffffff; stroke-linejoin: miter"/>
   </g>
   <g id="patch_61">
    <path d="M 757.422 411.126545 
L 841.572 411.126545 
L 841.572 380.297455 
L 757.422 380.297455 
z
" clip-path="url(#p1af116ecf6)" style="fill: #c0c0c0; stroke: #ffffff; stroke-linejoin: miter"/>
   </g>
   <g id="patch_62">
    <path d="M 841.572 411.126545 
L 925.722 411.126545 
L 925.722 380.297455 
L 841.572 380.297455 
z
" clip-path="url(#p1af116ecf6)" style="fill: #ffff00; stroke: #ffffff; stroke-linejoin: miter"/>
   </g>
   <g id="patch_63">
    <path d="M 925.722 411.126545 
L 1009.872 411.126545 
L 1009.872 380.297455 
L 925.722 380.297455 
z
" clip-path="url(#p1af116ecf6)" style="fill: #ff69b4; stroke: #ffffff; stroke-linejoin: miter"/>
   </g>
   <g id="patch_64">
    <path d="M 1009.872 411.126545 
L 1094.022 411.126545 
L 1094.022 380.297455 
L 1009.872 380.297455 
z
" clip-path="url(#p1af116ecf6)" style="fill: #ffff00; stroke: #ffffff; stroke-linejoin: miter"/>
   </g>
   <g id="patch_65">
    <path d="M 1094.022 411.126545 
L 1178.172 411.126545 
L 1178.172 380.297455 
L 1094.022 380.297455 
z
" clip-path="url(#p1af116ecf6)" style="fill: #0000ff; stroke: #ffffff; stroke-linejoin: miter"/>
   </g>
   <g id="patch_66">
    <path d="M 1178.172 411.126545 
L 1262.322 411.126545 
L 1262.322 380.297455 
L 1178.172 380.297455 
z
" clip-path="url(#p1af116ecf6)" style="fill: #a0522d; stroke: #ffffff; stroke-linejoin: miter"/>
   </g>
   <g id="patch_67">
    <path d="M 168.372 462.508364 
L 252.522 462.508364 
L 252.522 431.679273 
L 168.372 431.679273 
z
" clip-path="url(#p1af116ecf6)" style="fill: #add8e6; stroke: #ffffff; stroke-linejoin: miter"/>
   </g>
   <g id="patch_68">
    <path d="M 252.522 462.508364 
L 336.672 462.508364 
L 336.672 431.679273 
L 252.522 431.679273 
z
" clip-path="url(#p1af116ecf6)" style="fill: #ff69b4; stroke: #ffffff; stroke-linejoin: miter"/>
   </g>
   <g id="patch_69">
    <path d="M 336.672 462.508364 
L 420.822 462.508364 
L 420.822 431.679273 
L 336.672 431.679273 
z
" clip-path="url(#p1af116ecf6)" style="fill: #ff8c00; stroke: #ffffff; stroke-linejoin: miter"/>
   </g>
   <g id="patch_70">
    <path d="M 420.822 462.508364 
L 504.972 462.508364 
L 504.972 431.679273 
L 420.822 431.679273 
z
" clip-path="url(#p1af116ecf6)" style="fill: #0000ff; stroke: #ffffff; stroke-linejoin: miter"/>
   </g>
   <g id="patch_71">
    <path d="M 504.972 462.508364 
L 589.122 462.508364 
L 589.122 431.679273 
L 504.972 431.679273 
z
" clip-path="url(#p1af116ecf6)" style="fill: #a0522d; stroke: #ffffff; stroke-linejoin: miter"/>
   </g>
   <g id="patch_72">
    <path d="M 589.122 462.508364 
L 673.272 462.508364 
L 673.272 431.679273 
L 589.122 431.679273 
z
" clip-path="url(#p1af116ecf6)" style="fill: #f08080; stroke: #ffffff; stroke-linejoin: miter"/>
   </g>
   <g id="patch_73">
    <path d="M 673.272 462.508364 
L 757.422 462.508364 
L 757.422 431.679273 
L 673.272 431.679273 
z
" clip-path="url(#p1af116ecf6)" style="fill: #0000ff; stroke: #ffffff; stroke-linejoin: miter"/>
   </g>
   <g id="patch_74">
    <path d="M 757.422 462.508364 
L 841.572 462.508364 
L 841.572 431.679273 
L 757.422 431.679273 
z
" clip-path="url(#p1af116ecf6)" style="fill: #ffff00; stroke: #ffffff; stroke-linejoin: miter"/>
   </g>
   <g id="patch_75">
    <path d="M 841.572 462.508364 
L 925.722 462.508364 
L 925.722 431.679273 
L 841.572 431.679273 
z
" clip-path="url(#p1af116ecf6)" style="fill: #0000ff; stroke: #ffffff; stroke-linejoin: miter"/>
   </g>
   <g id="patch_76">
    <path d="M 168.372 513.890182 
L 252.522 513.890182 
L 252.522 483.061091 
L 168.372 483.061091 
z
" clip-path="url(#p1af116ecf6)" style="fill: #add8e6; stroke: #ffffff; stroke-linejoin: miter"/>
   </g>
   <g id="patch_77">
    <path d="M 252.522 513.890182 
L 336.672 513.890182 
L 336.672 483.061091 
L 252.522 483.061091 
z
" clip-path="url(#p1af116ecf6)" style="fill: #ff69b4; stroke: #ffffff; stroke-linejoin: miter"/>
   </g>
   <g id="patch_78">
    <path d="M 336.672 513.890182 
L 420.822 513.890182 
L 420.822 483.061091 
L 336.672 483.061091 
z
" clip-path="url(#p1af116ecf6)" style="fill: #ff8c00; stroke: #ffffff; stroke-linejoin: miter"/>
   </g>
   <g id="patch_79">
    <path d="M 420.822 513.890182 
L 504.972 513.890182 
L 504.972 483.061091 
L 420.822 483.061091 
z
" clip-path="url(#p1af116ecf6)" style="fill: #a0522d; stroke: #ffffff; stroke-linejoin: miter"/>
   </g>
   <g id="patch_80">
    <path d="M 504.972 513.890182 
L 589.122 513.890182 
L 589.122 483.061091 
L 504.972 483.061091 
z
" clip-path="url(#p1af116ecf6)" style="fill: #0000ff; stroke: #ffffff; stroke-linejoin: miter"/>
   </g>
   <g id="patch_81">
    <path d="M 589.122 513.890182 
L 673.272 513.890182 
L 673.272 483.061091 
L 589.122 483.061091 
z
" clip-path="url(#p1af116ecf6)" style="fill: #9acd32; stroke: #ffffff; stroke-linejoin: miter"/>
   </g>
   <g id="patch_82">
    <path d="M 673.272 513.890182 
L 757.422 513.890182 
L 757.422 483.061091 
L 673.272 483.061091 
z
" clip-path="url(#p1af116ecf6)" style="fill: #a0522d; stroke: #ffffff; stroke-linejoin: miter"/>
   </g>
   <g id="patch_83">
    <path d="M 757.422 513.890182 
L 841.572 513.890182 
L 841.572 483.061091 
L 757.422 483.061091 
z
" clip-path="url(#p1af116ecf6)" style="fill: #9acd32; stroke: #ffffff; stroke-linejoin: miter"/>
   </g>
   <g id="patch_84">
    <path d="M 841.572 513.890182 
L 925.722 513.890182 
L 925.722 483.061091 
L 841.572 483.061091 
z
" clip-path="url(#p1af116ecf6)" style="fill: #a0522d; stroke: #ffffff; stroke-linejoin: miter"/>
   </g>
   <g id="patch_85">
    <path d="M 168.372 565.272 
L 252.522 565.272 
L 252.522 534.442909 
L 168.372 534.442909 
z
" clip-path="url(#p1af116ecf6)" style="fill: #add8e6; stroke: #ffffff; stroke-linejoin: miter"/>
   </g>
   <g id="patch_86">
    <path d="M 252.522 565.272 
L 336.672 565.272 
L 336.672 534.442909 
L 252.522 534.442909 
z
" clip-path="url(#p1af116ecf6)" style="fill: #ff69b4; stroke: #ffffff; stroke-linejoin: miter"/>
   </g>
   <g id="patch_87">
    <path d="M 336.672 565.272 
L 420.822 565.272 
L 420.822 534.442909 
L 336.672 534.442909 
z
" clip-path="url(#p1af116ecf6)" style="fill: #0000ff; stroke: #ffffff; stroke-linejoin: miter"/>
   </g>
   <g id="patch_88">
    <path d="M 168.372 616.653818 
L 252.522 616.653818 
L 252.522 585.824727 
L 168.372 585.824727 
z
" clip-path="url(#p1af116ecf6)" style="fill: #add8e6; stroke: #ffffff; stroke-linejoin: miter"/>
   </g>
   <g id="patch_89">
    <path d="M 252.522 616.653818 
L 336.672 616.653818 
L 336.672 585.824727 
L 252.522 585.824727 
z
" clip-path="url(#p1af116ecf6)" style="fill: #ff69b4; stroke: #ffffff; stroke-linejoin: miter"/>
   </g>
   <g id="patch_90">
    <path d="M 336.672 616.653818 
L 420.822 616.653818 
L 420.822 585.824727 
L 336.672 585.824727 
z
" clip-path="url(#p1af116ecf6)" style="fill: #ff8c00; stroke: #ffffff; stroke-linejoin: miter"/>
   </g>
   <g id="patch_91">
    <path d="M 420.822 616.653818 
L 504.972 616.653818 
L 504.972 585.824727 
L 420.822 585.824727 
z
" clip-path="url(#p1af116ecf6)" style="fill: #0000ff; stroke: #ffffff; stroke-linejoin: miter"/>
   </g>
   <g id="patch_92">
    <path d="M 504.972 616.653818 
L 589.122 616.653818 
L 589.122 585.824727 
L 504.972 585.824727 
z
" clip-path="url(#p1af116ecf6)" style="fill: #ff69b4; stroke: #ffffff; stroke-linejoin: miter"/>
   </g>
   <g id="patch_93">
    <path d="M 589.122 616.653818 
L 673.272 616.653818 
L 673.272 585.824727 
L 589.122 585.824727 
z
" clip-path="url(#p1af116ecf6)" style="fill: #0000ff; stroke: #ffffff; stroke-linejoin: miter"/>
   </g>
   <g id="patch_94">
    <path d="M 673.272 616.653818 
L 757.422 616.653818 
L 757.422 585.824727 
L 673.272 585.824727 
z
" clip-path="url(#p1af116ecf6)" style="fill: #0000ff; stroke: #ffffff; stroke-linejoin: miter"/>
   </g>
   <g id="patch_95">
    <path d="M 168.372 668.035636 
L 252.522 668.035636 
L 252.522 637.206545 
L 168.372 637.206545 
z
" clip-path="url(#p1af116ecf6)" style="fill: #0000ff; stroke: #ffffff; stroke-linejoin: miter"/>
   </g>
   <g id="patch_96">
    <path d="M 252.522 668.035636 
L 336.672 668.035636 
L 336.672 637.206545 
L 252.522 637.206545 
z
" clip-path="url(#p1af116ecf6)" style="fill: #0000ff; stroke: #ffffff; stroke-linejoin: miter"/>
   </g>
   <g id="patch_97">
    <path d="M 336.672 668.035636 
L 420.822 668.035636 
L 420.822 637.206545 
L 336.672 637.206545 
z
" clip-path="url(#p1af116ecf6)" style="fill: #0000ff; stroke: #ffffff; stroke-linejoin: miter"/>
   </g>
   <g id="patch_98">
    <path d="M 420.822 668.035636 
L 504.972 668.035636 
L 504.972 637.206545 
L 420.822 637.206545 
z
" clip-path="url(#p1af116ecf6)" style="fill: #0000ff; stroke: #ffffff; stroke-linejoin: miter"/>
   </g>
   <g id="patch_99">
    <path d="M 504.972 668.035636 
L 589.122 668.035636 
L 589.122 637.206545 
L 504.972 637.206545 
z
" clip-path="url(#p1af116ecf6)" style="fill: #0000ff; stroke: #ffffff; stroke-linejoin: miter"/>
   </g>
   <g id="patch_100">
    <path d="M 589.122 668.035636 
L 673.272 668.035636 
L 673.272 637.206545 
L 589.122 637.206545 
z
" clip-path="url(#p1af116ecf6)" style="fill: #ff69b4; stroke: #ffffff; stroke-linejoin: miter"/>
   </g>
   <g id="patch_101">
    <path d="M 673.272 668.035636 
L 757.422 668.035636 
L 757.422 637.206545 
L 673.272 637.206545 
z
" clip-path="url(#p1af116ecf6)" style="fill: #6495ed; stroke: #ffffff; stroke-linejoin: miter"/>
   </g>
   <g id="patch_102">
    <path d="M 168.372 719.417455 
L 252.522 719.417455 
L 252.522 688.588364 
L 168.372 688.588364 
z
" clip-path="url(#p1af116ecf6)" style="fill: #0000ff; stroke: #ffffff; stroke-linejoin: miter"/>
   </g>
   <g id="patch_103">
    <path d="M 252.522 719.417455 
L 336.672 719.417455 
L 336.672 688.588364 
L 252.522 688.588364 
z
" clip-path="url(#p1af116ecf6)" style="fill: #0000ff; stroke: #ffffff; stroke-linejoin: miter"/>
   </g>
   <g id="patch_104">
    <path d="M 336.672 719.417455 
L 420.822 719.417455 
L 420.822 688.588364 
L 336.672 688.588364 
z
" clip-path="url(#p1af116ecf6)" style="fill: #0000ff; stroke: #ffffff; stroke-linejoin: miter"/>
   </g>
   <g id="patch_105">
    <path d="M 420.822 719.417455 
L 504.972 719.417455 
L 504.972 688.588364 
L 420.822 688.588364 
z
" clip-path="url(#p1af116ecf6)" style="fill: #a0522d; stroke: #ffffff; stroke-linejoin: miter"/>
   </g>
   <g id="patch_106">
    <path d="M 504.972 719.417455 
L 589.122 719.417455 
L 589.122 688.588364 
L 504.972 688.588364 
z
" clip-path="url(#p1af116ecf6)" style="fill: #7b68ee; stroke: #ffffff; stroke-linejoin: miter"/>
   </g>
   <g id="patch_107">
    <path d="M 589.122 719.417455 
L 673.272 719.417455 
L 673.272 688.588364 
L 589.122 688.588364 
z
" clip-path="url(#p1af116ecf6)" style="fill: #7b68ee; stroke: #ffffff; stroke-linejoin: miter"/>
   </g>
   <g id="patch_108">
    <path d="M 673.272 719.417455 
L 757.422 719.417455 
L 757.422 688.588364 
L 673.272 688.588364 
z
" clip-path="url(#p1af116ecf6)" style="fill: #a0522d; stroke: #ffffff; stroke-linejoin: miter"/>
   </g>
   <g id="patch_109">
    <path d="M 168.372 770.799273 
L 252.522 770.799273 
L 252.522 739.970182 
L 168.372 739.970182 
z
" clip-path="url(#p1af116ecf6)" style="fill: #0000ff; stroke: #ffffff; stroke-linejoin: miter"/>
   </g>
   <g id="patch_110">
    <path d="M 252.522 770.799273 
L 336.672 770.799273 
L 336.672 739.970182 
L 252.522 739.970182 
z
" clip-path="url(#p1af116ecf6)" style="fill: #f08080; stroke: #ffffff; stroke-linejoin: miter"/>
   </g>
   <g id="patch_111">
    <path d="M 336.672 770.799273 
L 420.822 770.799273 
L 420.822 739.970182 
L 336.672 739.970182 
z
" clip-path="url(#p1af116ecf6)" style="fill: #0000ff; stroke: #ffffff; stroke-linejoin: miter"/>
   </g>
   <g id="patch_112">
    <path d="M 420.822 770.799273 
L 504.972 770.799273 
L 504.972 739.970182 
L 420.822 739.970182 
z
" clip-path="url(#p1af116ecf6)" style="fill: #a0522d; stroke: #ffffff; stroke-linejoin: miter"/>
   </g>
   <g id="patch_113">
    <path d="M 168.372 822.181091 
L 252.522 822.181091 
L 252.522 791.352 
L 168.372 791.352 
z
" clip-path="url(#p1af116ecf6)" style="fill: #0000ff; stroke: #ffffff; stroke-linejoin: miter"/>
   </g>
   <g id="patch_114">
    <path d="M 252.522 822.181091 
L 336.672 822.181091 
L 336.672 791.352 
L 252.522 791.352 
z
" clip-path="url(#p1af116ecf6)" style="fill: #a0522d; stroke: #ffffff; stroke-linejoin: miter"/>
   </g>
   <g id="patch_115">
    <path d="M 336.672 822.181091 
L 420.822 822.181091 
L 420.822 791.352 
L 336.672 791.352 
z
" clip-path="url(#p1af116ecf6)" style="fill: #c71585; stroke: #ffffff; stroke-linejoin: miter"/>
   </g>
   <g id="patch_116">
    <path d="M 420.822 822.181091 
L 504.972 822.181091 
L 504.972 791.352 
L 420.822 791.352 
z
" clip-path="url(#p1af116ecf6)" style="fill: #ff0000; stroke: #ffffff; stroke-linejoin: miter"/>
   </g>
   <g id="patch_117">
    <path d="M 504.972 822.181091 
L 589.122 822.181091 
L 589.122 791.352 
L 504.972 791.352 
z
" clip-path="url(#p1af116ecf6)" style="fill: #a0522d; stroke: #ffffff; stroke-linejoin: miter"/>
   </g>
   <g id="patch_118">
    <path d="M 589.122 822.181091 
L 673.272 822.181091 
L 673.272 791.352 
L 589.122 791.352 
z
" clip-path="url(#p1af116ecf6)" style="fill: #ff0000; stroke: #ffffff; stroke-linejoin: miter"/>
   </g>
   <g id="patch_119">
    <path d="M 168.372 873.562909 
L 252.522 873.562909 
L 252.522 842.733818 
L 168.372 842.733818 
z
" clip-path="url(#p1af116ecf6)" style="fill: #0000ff; stroke: #ffffff; stroke-linejoin: miter"/>
   </g>
   <g id="patch_120">
    <path d="M 252.522 873.562909 
L 336.672 873.562909 
L 336.672 842.733818 
L 252.522 842.733818 
z
" clip-path="url(#p1af116ecf6)" style="fill: #ffff00; stroke: #ffffff; stroke-linejoin: miter"/>
   </g>
   <g id="patch_121">
    <path d="M 336.672 873.562909 
L 420.822 873.562909 
L 420.822 842.733818 
L 336.672 842.733818 
z
" clip-path="url(#p1af116ecf6)" style="fill: #add8e6; stroke: #ffffff; stroke-linejoin: miter"/>
   </g>
   <g id="patch_122">
    <path d="M 420.822 873.562909 
L 504.972 873.562909 
L 504.972 842.733818 
L 420.822 842.733818 
z
" clip-path="url(#p1af116ecf6)" style="fill: #bdb76b; stroke: #ffffff; stroke-linejoin: miter"/>
   </g>
   <g id="patch_123">
    <path d="M 504.972 873.562909 
L 589.122 873.562909 
L 589.122 842.733818 
L 504.972 842.733818 
z
" clip-path="url(#p1af116ecf6)" style="fill: #006400; stroke: #ffffff; stroke-linejoin: miter"/>
   </g>
   <g id="patch_124">
    <path d="M 589.122 873.562909 
L 673.272 873.562909 
L 673.272 842.733818 
L 589.122 842.733818 
z
" clip-path="url(#p1af116ecf6)" style="fill: #ffff00; stroke: #ffffff; stroke-linejoin: miter"/>
   </g>
   <g id="patch_125">
    <path d="M 673.272 873.562909 
L 757.422 873.562909 
L 757.422 842.733818 
L 673.272 842.733818 
z
" clip-path="url(#p1af116ecf6)" style="fill: #00ffff; stroke: #ffffff; stroke-linejoin: miter"/>
   </g>
   <g id="patch_126">
    <path d="M 757.422 873.562909 
L 841.572 873.562909 
L 841.572 842.733818 
L 757.422 842.733818 
z
" clip-path="url(#p1af116ecf6)" style="fill: #00bfff; stroke: #ffffff; stroke-linejoin: miter"/>
   </g>
   <g id="patch_127">
    <path d="M 841.572 873.562909 
L 925.722 873.562909 
L 925.722 842.733818 
L 841.572 842.733818 
z
" clip-path="url(#p1af116ecf6)" style="fill: #9acd32; stroke: #ffffff; stroke-linejoin: miter"/>
   </g>
   <g id="patch_128">
    <path d="M 925.722 873.562909 
L 1009.872 873.562909 
L 1009.872 842.733818 
L 925.722 842.733818 
z
" clip-path="url(#p1af116ecf6)" style="fill: #006400; stroke: #ffffff; stroke-linejoin: miter"/>
   </g>
   <g id="patch_129">
    <path d="M 1009.872 873.562909 
L 1094.022 873.562909 
L 1094.022 842.733818 
L 1009.872 842.733818 
z
" clip-path="url(#p1af116ecf6)" style="fill: #00ffff; stroke: #ffffff; stroke-linejoin: miter"/>
   </g>
   <g id="patch_130">
    <path d="M 168.372 924.944727 
L 252.522 924.944727 
L 252.522 894.115636 
L 168.372 894.115636 
z
" clip-path="url(#p1af116ecf6)" style="fill: #0000ff; stroke: #ffffff; stroke-linejoin: miter"/>
   </g>
   <g id="patch_131">
    <path d="M 252.522 924.944727 
L 336.672 924.944727 
L 336.672 894.115636 
L 252.522 894.115636 
z
" clip-path="url(#p1af116ecf6)" style="fill: #6495ed; stroke: #ffffff; stroke-linejoin: miter"/>
   </g>
   <g id="patch_132">
    <path d="M 336.672 924.944727 
L 420.822 924.944727 
L 420.822 894.115636 
L 336.672 894.115636 
z
" clip-path="url(#p1af116ecf6)" style="fill: #ffff00; stroke: #ffffff; stroke-linejoin: miter"/>
   </g>
   <g id="patch_133">
    <path d="M 420.822 924.944727 
L 504.972 924.944727 
L 504.972 894.115636 
L 420.822 894.115636 
z
" clip-path="url(#p1af116ecf6)" style="fill: #ffff00; stroke: #ffffff; stroke-linejoin: miter"/>
   </g>
   <g id="patch_134">
    <path d="M 504.972 924.944727 
L 589.122 924.944727 
L 589.122 894.115636 
L 504.972 894.115636 
z
" clip-path="url(#p1af116ecf6)" style="fill: #bdb76b; stroke: #ffffff; stroke-linejoin: miter"/>
   </g>
   <g id="patch_135">
    <path d="M 589.122 924.944727 
L 673.272 924.944727 
L 673.272 894.115636 
L 589.122 894.115636 
z
" clip-path="url(#p1af116ecf6)" style="fill: #6495ed; stroke: #ffffff; stroke-linejoin: miter"/>
   </g>
   <g id="patch_136">
    <path d="M 673.272 924.944727 
L 757.422 924.944727 
L 757.422 894.115636 
L 673.272 894.115636 
z
" clip-path="url(#p1af116ecf6)" style="fill: #006400; stroke: #ffffff; stroke-linejoin: miter"/>
   </g>
   <g id="patch_137">
    <path d="M 168.372 976.326545 
L 252.522 976.326545 
L 252.522 945.497455 
L 168.372 945.497455 
z
" clip-path="url(#p1af116ecf6)" style="fill: #0000ff; stroke: #ffffff; stroke-linejoin: miter"/>
   </g>
   <g id="patch_138">
    <path d="M 252.522 976.326545 
L 336.672 976.326545 
L 336.672 945.497455 
L 252.522 945.497455 
z
" clip-path="url(#p1af116ecf6)" style="fill: #ffff00; stroke: #ffffff; stroke-linejoin: miter"/>
   </g>
   <g id="patch_139">
    <path d="M 336.672 976.326545 
L 420.822 976.326545 
L 420.822 945.497455 
L 336.672 945.497455 
z
" clip-path="url(#p1af116ecf6)" style="fill: #ffff00; stroke: #ffffff; stroke-linejoin: miter"/>
   </g>
   <g id="patch_140">
    <path d="M 420.822 976.326545 
L 504.972 976.326545 
L 504.972 945.497455 
L 420.822 945.497455 
z
" clip-path="url(#p1af116ecf6)" style="fill: #ffff00; stroke: #ffffff; stroke-linejoin: miter"/>
   </g>
   <g id="patch_141">
    <path d="M 168.372 1027.708364 
L 252.522 1027.708364 
L 252.522 996.879273 
L 168.372 996.879273 
z
" clip-path="url(#p1af116ecf6)" style="fill: #9acd32; stroke: #ffffff; stroke-linejoin: miter"/>
   </g>
   <g id="patch_142">
    <path d="M 252.522 1027.708364 
L 336.672 1027.708364 
L 336.672 996.879273 
L 252.522 996.879273 
z
" clip-path="url(#p1af116ecf6)" style="fill: #0000ff; stroke: #ffffff; stroke-linejoin: miter"/>
   </g>
   <g id="patch_143">
    <path d="M 168.372 1079.090182 
L 252.522 1079.090182 
L 252.522 1048.261091 
L 168.372 1048.261091 
z
" clip-path="url(#p1af116ecf6)" style="fill: #0000ff; stroke: #ffffff; stroke-linejoin: miter"/>
   </g>
   <g id="patch_144">
    <path d="M 252.522 1079.090182 
L 336.672 1079.090182 
L 336.672 1048.261091 
L 252.522 1048.261091 
z
" clip-path="url(#p1af116ecf6)" style="fill: #ffc0cb; stroke: #ffffff; stroke-linejoin: miter"/>
   </g>
   <g id="patch_145">
    <path d="M 336.672 1079.090182 
L 420.822 1079.090182 
L 420.822 1048.261091 
L 336.672 1048.261091 
z
" clip-path="url(#p1af116ecf6)" style="fill: #00ff7f; stroke: #ffffff; stroke-linejoin: miter"/>
   </g>
   <g id="patch_146">
    <path d="M 420.822 1079.090182 
L 504.972 1079.090182 
L 504.972 1048.261091 
L 420.822 1048.261091 
z
" clip-path="url(#p1af116ecf6)" style="fill: #ffff00; stroke: #ffffff; stroke-linejoin: miter"/>
   </g>
   <g id="text_1">
    <!-- I -->
    <g transform="translate(207.668875 92.591403) scale(0.2 -0.2)">
     <defs>
      <path id="ArialMT-49" d="M 597 0 
L 597 4581 
L 1203 4581 
L 1203 0 
L 597 0 
z
" transform="scale(0.015625)"/>
     </defs>
     <use xlink:href="#ArialMT-49"/>
    </g>
   </g>
   <g id="text_2">
    <!-- G -->
    <g transform="translate(286.818875 92.591403) scale(0.2 -0.2)">
     <defs>
      <path id="ArialMT-47" d="M 2638 1797 
L 2638 2334 
L 4578 2338 
L 4578 638 
Q 4131 281 3656 101 
Q 3181 -78 2681 -78 
Q 2006 -78 1454 211 
Q 903 500 622 1047 
Q 341 1594 341 2269 
Q 341 2938 620 3517 
Q 900 4097 1425 4378 
Q 1950 4659 2634 4659 
Q 3131 4659 3532 4498 
Q 3934 4338 4162 4050 
Q 4391 3763 4509 3300 
L 3963 3150 
Q 3859 3500 3706 3700 
Q 3553 3900 3268 4020 
Q 2984 4141 2638 4141 
Q 2222 4141 1919 4014 
Q 1616 3888 1430 3681 
Q 1244 3475 1141 3228 
Q 966 2803 966 2306 
Q 966 1694 1177 1281 
Q 1388 869 1791 669 
Q 2194 469 2647 469 
Q 3041 469 3416 620 
Q 3791 772 3984 944 
L 3984 1797 
L 2638 1797 
z
" transform="scale(0.015625)"/>
     </defs>
     <use xlink:href="#ArialMT-47"/>
    </g>
   </g>
   <g id="text_3">
    <!-- M -->
    <g transform="translate(370.417313 92.591403) scale(0.2 -0.2)">
     <defs>
      <path id="ArialMT-4d" d="M 475 0 
L 475 4581 
L 1388 4581 
L 2472 1338 
Q 2622 884 2691 659 
Q 2769 909 2934 1394 
L 4031 4581 
L 4847 4581 
L 4847 0 
L 4263 0 
L 4263 3834 
L 2931 0 
L 2384 0 
L 1059 3900 
L 1059 0 
L 475 0 
z
" transform="scale(0.015625)"/>
     </defs>
     <use xlink:href="#ArialMT-4d"/>
    </g>
   </g>
   <g id="text_4">
    <!-- Q -->
    <g style="fill: #ffffff" transform="translate(455.118875 92.591403) scale(0.2 -0.2)">
     <defs>
      <path id="ArialMT-51" d="M 3966 491 
Q 4388 200 4744 66 
L 4566 -356 
Q 4072 -178 3581 206 
Q 3072 -78 2456 -78 
Q 1834 -78 1328 222 
Q 822 522 548 1065 
Q 275 1609 275 2291 
Q 275 2969 550 3525 
Q 825 4081 1333 4372 
Q 1841 4663 2469 4663 
Q 3103 4663 3612 4361 
Q 4122 4059 4389 3517 
Q 4656 2975 4656 2294 
Q 4656 1728 4484 1276 
Q 4313 825 3966 491 
z
M 2631 1266 
Q 3156 1119 3497 828 
Q 4031 1316 4031 2294 
Q 4031 2850 3842 3265 
Q 3653 3681 3289 3911 
Q 2925 4141 2472 4141 
Q 1794 4141 1347 3677 
Q 900 3213 900 2291 
Q 900 1397 1342 919 
Q 1784 441 2472 441 
Q 2797 441 3084 563 
Q 2800 747 2484 825 
L 2631 1266 
z
" transform="scale(0.015625)"/>
     </defs>
     <use xlink:href="#ArialMT-51"/>
    </g>
   </g>
   <g id="text_5">
    <!-- T -->
    <g style="fill: #ffffff" transform="translate(540.939188 92.591403) scale(0.2 -0.2)">
     <defs>
      <path id="ArialMT-54" d="M 1659 0 
L 1659 4041 
L 150 4041 
L 150 4581 
L 3781 4581 
L 3781 4041 
L 2266 4041 
L 2266 0 
L 1659 0 
z
" transform="scale(0.015625)"/>
     </defs>
     <use xlink:href="#ArialMT-54"/>
    </g>
   </g>
   <g id="text_6">
    <!-- T -->
    <g style="fill: #ffffff" transform="translate(625.089188 92.591403) scale(0.2 -0.2)">
     <use xlink:href="#ArialMT-54"/>
    </g>
   </g>
   <g id="text_7">
    <!-- T -->
    <g style="fill: #ffffff" transform="translate(709.239187 92.591403) scale(0.2 -0.2)">
     <use xlink:href="#ArialMT-54"/>
    </g>
   </g>
   <g id="text_8">
    <!-- F -->
    <g style="fill: #ffffff" transform="translate(793.389188 92.591403) scale(0.2 -0.2)">
     <defs>
      <path id="ArialMT-46" d="M 525 0 
L 525 4581 
L 3616 4581 
L 3616 4041 
L 1131 4041 
L 1131 2622 
L 3281 2622 
L 3281 2081 
L 1131 2081 
L 1131 0 
L 525 0 
z
" transform="scale(0.015625)"/>
     </defs>
     <use xlink:href="#ArialMT-46"/>
    </g>
   </g>
   <g id="text_9">
    <!-- G -->
    <g transform="translate(875.868875 92.591403) scale(0.2 -0.2)">
     <use xlink:href="#ArialMT-47"/>
    </g>
   </g>
   <g id="text_10">
    <!-- ID 213 -->
    <g style="fill: #262626" transform="translate(101.035125 92.591403) scale(0.2 -0.2)">
     <defs>
      <path id="ArialMT-44" d="M 494 0 
L 494 4581 
L 2072 4581 
Q 2606 4581 2888 4516 
Q 3281 4425 3559 4188 
Q 3922 3881 4101 3404 
Q 4281 2928 4281 2316 
Q 4281 1794 4159 1391 
Q 4038 988 3847 723 
Q 3656 459 3429 307 
Q 3203 156 2883 78 
Q 2563 0 2147 0 
L 494 0 
z
M 1100 541 
L 2078 541 
Q 2531 541 2789 625 
Q 3047 709 3200 863 
Q 3416 1078 3536 1442 
Q 3656 1806 3656 2325 
Q 3656 3044 3420 3430 
Q 3184 3816 2847 3947 
Q 2603 4041 2063 4041 
L 1100 4041 
L 1100 541 
z
" transform="scale(0.015625)"/>
      <path id="ArialMT-20" transform="scale(0.015625)"/>
      <path id="ArialMT-32" d="M 3222 541 
L 3222 0 
L 194 0 
Q 188 203 259 391 
Q 375 700 629 1000 
Q 884 1300 1366 1694 
Q 2113 2306 2375 2664 
Q 2638 3022 2638 3341 
Q 2638 3675 2398 3904 
Q 2159 4134 1775 4134 
Q 1369 4134 1125 3890 
Q 881 3647 878 3216 
L 300 3275 
Q 359 3922 746 4261 
Q 1134 4600 1788 4600 
Q 2447 4600 2831 4234 
Q 3216 3869 3216 3328 
Q 3216 3053 3103 2787 
Q 2991 2522 2730 2228 
Q 2469 1934 1863 1422 
Q 1356 997 1212 845 
Q 1069 694 975 541 
L 3222 541 
z
" transform="scale(0.015625)"/>
      <path id="ArialMT-31" d="M 2384 0 
L 1822 0 
L 1822 3584 
Q 1619 3391 1289 3197 
Q 959 3003 697 2906 
L 697 3450 
Q 1169 3672 1522 3987 
Q 1875 4303 2022 4600 
L 2384 4600 
L 2384 0 
z
" transform="scale(0.015625)"/>
      <path id="ArialMT-33" d="M 269 1209 
L 831 1284 
Q 928 806 1161 595 
Q 1394 384 1728 384 
Q 2125 384 2398 659 
Q 2672 934 2672 1341 
Q 2672 1728 2419 1979 
Q 2166 2231 1775 2231 
Q 1616 2231 1378 2169 
L 1441 2663 
Q 1497 2656 1531 2656 
Q 1891 2656 2178 2843 
Q 2466 3031 2466 3422 
Q 2466 3731 2256 3934 
Q 2047 4138 1716 4138 
Q 1388 4138 1169 3931 
Q 950 3725 888 3313 
L 325 3413 
Q 428 3978 793 4289 
Q 1159 4600 1703 4600 
Q 2078 4600 2393 4439 
Q 2709 4278 2876 4000 
Q 3044 3722 3044 3409 
Q 3044 3113 2884 2869 
Q 2725 2625 2413 2481 
Q 2819 2388 3044 2092 
Q 3269 1797 3269 1353 
Q 3269 753 2831 336 
Q 2394 -81 1725 -81 
Q 1122 -81 723 278 
Q 325 638 269 1209 
z
" transform="scale(0.015625)"/>
     </defs>
     <use xlink:href="#ArialMT-49"/>
     <use xlink:href="#ArialMT-44" transform="translate(27.783203 0)"/>
     <use xlink:href="#ArialMT-20" transform="translate(100 0)"/>
     <use xlink:href="#ArialMT-32" transform="translate(127.783203 0)"/>
     <use xlink:href="#ArialMT-31" transform="translate(183.398438 0)"/>
     <use xlink:href="#ArialMT-33" transform="translate(239.013672 0)"/>
    </g>
   </g>
   <g id="text_11">
    <!-- I -->
    <g transform="translate(207.668875 143.973222) scale(0.2 -0.2)">
     <use xlink:href="#ArialMT-49"/>
    </g>
   </g>
   <g id="text_12">
    <!-- G -->
    <g transform="translate(286.818875 143.973222) scale(0.2 -0.2)">
     <use xlink:href="#ArialMT-47"/>
    </g>
   </g>
   <g id="text_13">
    <!-- M -->
    <g transform="translate(370.417313 143.973222) scale(0.2 -0.2)">
     <use xlink:href="#ArialMT-4d"/>
    </g>
   </g>
   <g id="text_14">
    <!-- Q -->
    <g style="fill: #ffffff" transform="translate(455.118875 143.973222) scale(0.2 -0.2)">
     <use xlink:href="#ArialMT-51"/>
    </g>
   </g>
   <g id="text_15">
    <!-- T -->
    <g style="fill: #ffffff" transform="translate(540.939188 143.973222) scale(0.2 -0.2)">
     <use xlink:href="#ArialMT-54"/>
    </g>
   </g>
   <g id="text_16">
    <!-- X -->
    <g transform="translate(624.526688 143.973222) scale(0.2 -0.2)">
     <defs>
      <path id="ArialMT-58" d="M 28 0 
L 1800 2388 
L 238 4581 
L 959 4581 
L 1791 3406 
Q 2050 3041 2159 2844 
Q 2313 3094 2522 3366 
L 3444 4581 
L 4103 4581 
L 2494 2422 
L 4228 0 
L 3478 0 
L 2325 1634 
Q 2228 1775 2125 1941 
Q 1972 1691 1906 1597 
L 756 0 
L 28 0 
z
" transform="scale(0.015625)"/>
     </defs>
     <use xlink:href="#ArialMT-58"/>
    </g>
   </g>
   <g id="text_17">
    <!-- ID 205 -->
    <g style="fill: #262626" transform="translate(101.035125 143.973222) scale(0.2 -0.2)">
     <defs>
      <path id="ArialMT-30" d="M 266 2259 
Q 266 3072 433 3567 
Q 600 4063 929 4331 
Q 1259 4600 1759 4600 
Q 2128 4600 2406 4451 
Q 2684 4303 2865 4023 
Q 3047 3744 3150 3342 
Q 3253 2941 3253 2259 
Q 3253 1453 3087 958 
Q 2922 463 2592 192 
Q 2263 -78 1759 -78 
Q 1097 -78 719 397 
Q 266 969 266 2259 
z
M 844 2259 
Q 844 1131 1108 757 
Q 1372 384 1759 384 
Q 2147 384 2411 759 
Q 2675 1134 2675 2259 
Q 2675 3391 2411 3762 
Q 2147 4134 1753 4134 
Q 1366 4134 1134 3806 
Q 844 3388 844 2259 
z
" transform="scale(0.015625)"/>
      <path id="ArialMT-35" d="M 266 1200 
L 856 1250 
Q 922 819 1161 601 
Q 1400 384 1738 384 
Q 2144 384 2425 690 
Q 2706 997 2706 1503 
Q 2706 1984 2436 2262 
Q 2166 2541 1728 2541 
Q 1456 2541 1237 2417 
Q 1019 2294 894 2097 
L 366 2166 
L 809 4519 
L 3088 4519 
L 3088 3981 
L 1259 3981 
L 1013 2750 
Q 1425 3038 1878 3038 
Q 2478 3038 2890 2622 
Q 3303 2206 3303 1553 
Q 3303 931 2941 478 
Q 2500 -78 1738 -78 
Q 1113 -78 717 272 
Q 322 622 266 1200 
z
" transform="scale(0.015625)"/>
     </defs>
     <use xlink:href="#ArialMT-49"/>
     <use xlink:href="#ArialMT-44" transform="translate(27.783203 0)"/>
     <use xlink:href="#ArialMT-20" transform="translate(100 0)"/>
     <use xlink:href="#ArialMT-32" transform="translate(127.783203 0)"/>
     <use xlink:href="#ArialMT-30" transform="translate(183.398438 0)"/>
     <use xlink:href="#ArialMT-35" transform="translate(239.013672 0)"/>
    </g>
   </g>
   <g id="text_18">
    <!-- I -->
    <g transform="translate(207.668875 195.35504) scale(0.2 -0.2)">
     <use xlink:href="#ArialMT-49"/>
    </g>
   </g>
   <g id="text_19">
    <!-- G -->
    <g transform="translate(286.818875 195.35504) scale(0.2 -0.2)">
     <use xlink:href="#ArialMT-47"/>
    </g>
   </g>
   <g id="text_20">
    <!-- M -->
    <g transform="translate(370.417313 195.35504) scale(0.2 -0.2)">
     <use xlink:href="#ArialMT-4d"/>
    </g>
   </g>
   <g id="text_21">
    <!-- Q -->
    <g style="fill: #ffffff" transform="translate(455.118875 195.35504) scale(0.2 -0.2)">
     <use xlink:href="#ArialMT-51"/>
    </g>
   </g>
   <g id="text_22">
    <!-- T -->
    <g style="fill: #ffffff" transform="translate(540.939188 195.35504) scale(0.2 -0.2)">
     <use xlink:href="#ArialMT-54"/>
    </g>
   </g>
   <g id="text_23">
    <!-- Q -->
    <g style="fill: #ffffff" transform="translate(623.418875 195.35504) scale(0.2 -0.2)">
     <use xlink:href="#ArialMT-51"/>
    </g>
   </g>
   <g id="text_24">
    <!-- T -->
    <g style="fill: #ffffff" transform="translate(709.239187 195.35504) scale(0.2 -0.2)">
     <use xlink:href="#ArialMT-54"/>
    </g>
   </g>
   <g id="text_25">
    <!-- X -->
    <g transform="translate(792.826688 195.35504) scale(0.2 -0.2)">
     <use xlink:href="#ArialMT-58"/>
    </g>
   </g>
   <g id="text_26">
    <!-- O -->
    <g style="fill: #ffffff" transform="translate(875.868875 195.35504) scale(0.2 -0.2)">
     <defs>
      <path id="ArialMT-4f" d="M 309 2231 
Q 309 3372 921 4017 
Q 1534 4663 2503 4663 
Q 3138 4663 3647 4359 
Q 4156 4056 4423 3514 
Q 4691 2972 4691 2284 
Q 4691 1588 4409 1038 
Q 4128 488 3612 205 
Q 3097 -78 2500 -78 
Q 1853 -78 1343 234 
Q 834 547 571 1087 
Q 309 1628 309 2231 
z
M 934 2222 
Q 934 1394 1379 917 
Q 1825 441 2497 441 
Q 3181 441 3623 922 
Q 4066 1403 4066 2288 
Q 4066 2847 3877 3264 
Q 3688 3681 3323 3911 
Q 2959 4141 2506 4141 
Q 1863 4141 1398 3698 
Q 934 3256 934 2222 
z
" transform="scale(0.015625)"/>
     </defs>
     <use xlink:href="#ArialMT-4f"/>
    </g>
   </g>
   <g id="text_27">
    <!-- H -->
    <g transform="translate(960.575125 195.35504) scale(0.2 -0.2)">
     <defs>
      <path id="ArialMT-48" d="M 513 0 
L 513 4581 
L 1119 4581 
L 1119 2700 
L 3500 2700 
L 3500 4581 
L 4106 4581 
L 4106 0 
L 3500 0 
L 3500 2159 
L 1119 2159 
L 1119 0 
L 513 0 
z
" transform="scale(0.015625)"/>
     </defs>
     <use xlink:href="#ArialMT-48"/>
    </g>
   </g>
   <g id="text_28">
    <!-- ID 214 -->
    <g style="fill: #262626" transform="translate(101.035125 195.35504) scale(0.2 -0.2)">
     <defs>
      <path id="ArialMT-34" d="M 2069 0 
L 2069 1097 
L 81 1097 
L 81 1613 
L 2172 4581 
L 2631 4581 
L 2631 1613 
L 3250 1613 
L 3250 1097 
L 2631 1097 
L 2631 0 
L 2069 0 
z
M 2069 1613 
L 2069 3678 
L 634 1613 
L 2069 1613 
z
" transform="scale(0.015625)"/>
     </defs>
     <use xlink:href="#ArialMT-49"/>
     <use xlink:href="#ArialMT-44" transform="translate(27.783203 0)"/>
     <use xlink:href="#ArialMT-20" transform="translate(100 0)"/>
     <use xlink:href="#ArialMT-32" transform="translate(127.783203 0)"/>
     <use xlink:href="#ArialMT-31" transform="translate(183.398438 0)"/>
     <use xlink:href="#ArialMT-34" transform="translate(239.013672 0)"/>
    </g>
   </g>
   <g id="text_29">
    <!-- I -->
    <g transform="translate(207.668875 246.736858) scale(0.2 -0.2)">
     <use xlink:href="#ArialMT-49"/>
    </g>
   </g>
   <g id="text_30">
    <!-- G -->
    <g transform="translate(286.818875 246.736858) scale(0.2 -0.2)">
     <use xlink:href="#ArialMT-47"/>
    </g>
   </g>
   <g id="text_31">
    <!-- M -->
    <g transform="translate(370.417313 246.736858) scale(0.2 -0.2)">
     <use xlink:href="#ArialMT-4d"/>
    </g>
   </g>
   <g id="text_32">
    <!-- Q -->
    <g style="fill: #ffffff" transform="translate(455.118875 246.736858) scale(0.2 -0.2)">
     <use xlink:href="#ArialMT-51"/>
    </g>
   </g>
   <g id="text_33">
    <!-- T -->
    <g style="fill: #ffffff" transform="translate(540.939188 246.736858) scale(0.2 -0.2)">
     <use xlink:href="#ArialMT-54"/>
    </g>
   </g>
   <g id="text_34">
    <!-- Q -->
    <g style="fill: #ffffff" transform="translate(623.418875 246.736858) scale(0.2 -0.2)">
     <use xlink:href="#ArialMT-51"/>
    </g>
   </g>
   <g id="text_35">
    <!-- Q -->
    <g style="fill: #ffffff" transform="translate(707.568875 246.736858) scale(0.2 -0.2)">
     <use xlink:href="#ArialMT-51"/>
    </g>
   </g>
   <g id="text_36">
    <!-- F -->
    <g style="fill: #ffffff" transform="translate(793.389188 246.736858) scale(0.2 -0.2)">
     <use xlink:href="#ArialMT-46"/>
    </g>
   </g>
   <g id="text_37">
    <!-- X -->
    <g transform="translate(876.976688 246.736858) scale(0.2 -0.2)">
     <use xlink:href="#ArialMT-58"/>
    </g>
   </g>
   <g id="text_38">
    <!-- ID 204 -->
    <g style="fill: #262626" transform="translate(101.035125 246.736858) scale(0.2 -0.2)">
     <use xlink:href="#ArialMT-49"/>
     <use xlink:href="#ArialMT-44" transform="translate(27.783203 0)"/>
     <use xlink:href="#ArialMT-20" transform="translate(100 0)"/>
     <use xlink:href="#ArialMT-32" transform="translate(127.783203 0)"/>
     <use xlink:href="#ArialMT-30" transform="translate(183.398438 0)"/>
     <use xlink:href="#ArialMT-34" transform="translate(239.013672 0)"/>
    </g>
   </g>
   <g id="text_39">
    <!-- I -->
    <g transform="translate(207.668875 298.118676) scale(0.2 -0.2)">
     <use xlink:href="#ArialMT-49"/>
    </g>
   </g>
   <g id="text_40">
    <!-- G -->
    <g transform="translate(286.818875 298.118676) scale(0.2 -0.2)">
     <use xlink:href="#ArialMT-47"/>
    </g>
   </g>
   <g id="text_41">
    <!-- M -->
    <g transform="translate(370.417313 298.118676) scale(0.2 -0.2)">
     <use xlink:href="#ArialMT-4d"/>
    </g>
   </g>
   <g id="text_42">
    <!-- Q -->
    <g style="fill: #ffffff" transform="translate(455.118875 298.118676) scale(0.2 -0.2)">
     <use xlink:href="#ArialMT-51"/>
    </g>
   </g>
   <g id="text_43">
    <!-- T -->
    <g style="fill: #ffffff" transform="translate(540.939188 298.118676) scale(0.2 -0.2)">
     <use xlink:href="#ArialMT-54"/>
    </g>
   </g>
   <g id="text_44">
    <!-- T -->
    <g style="fill: #ffffff" transform="translate(625.089188 298.118676) scale(0.2 -0.2)">
     <use xlink:href="#ArialMT-54"/>
    </g>
   </g>
   <g id="text_45">
    <!-- Q -->
    <g style="fill: #ffffff" transform="translate(707.568875 298.118676) scale(0.2 -0.2)">
     <use xlink:href="#ArialMT-51"/>
    </g>
   </g>
   <g id="text_46">
    <!-- F -->
    <g style="fill: #ffffff" transform="translate(793.389188 298.118676) scale(0.2 -0.2)">
     <use xlink:href="#ArialMT-46"/>
    </g>
   </g>
   <g id="text_47">
    <!-- O -->
    <g style="fill: #ffffff" transform="translate(875.868875 298.118676) scale(0.2 -0.2)">
     <use xlink:href="#ArialMT-4f"/>
    </g>
   </g>
   <g id="text_48">
    <!-- ID 212 -->
    <g style="fill: #262626" transform="translate(101.035125 298.118676) scale(0.2 -0.2)">
     <use xlink:href="#ArialMT-49"/>
     <use xlink:href="#ArialMT-44" transform="translate(27.783203 0)"/>
     <use xlink:href="#ArialMT-20" transform="translate(100 0)"/>
     <use xlink:href="#ArialMT-32" transform="translate(127.783203 0)"/>
     <use xlink:href="#ArialMT-31" transform="translate(183.398438 0)"/>
     <use xlink:href="#ArialMT-32" transform="translate(239.013672 0)"/>
    </g>
   </g>
   <g id="text_49">
    <!-- I -->
    <g transform="translate(207.668875 349.500494) scale(0.2 -0.2)">
     <use xlink:href="#ArialMT-49"/>
    </g>
   </g>
   <g id="text_50">
    <!-- G -->
    <g transform="translate(286.818875 349.500494) scale(0.2 -0.2)">
     <use xlink:href="#ArialMT-47"/>
    </g>
   </g>
   <g id="text_51">
    <!-- M -->
    <g transform="translate(370.417313 349.500494) scale(0.2 -0.2)">
     <use xlink:href="#ArialMT-4d"/>
    </g>
   </g>
   <g id="text_52">
    <!-- Q -->
    <g style="fill: #ffffff" transform="translate(455.118875 349.500494) scale(0.2 -0.2)">
     <use xlink:href="#ArialMT-51"/>
    </g>
   </g>
   <g id="text_53">
    <!-- T -->
    <g style="fill: #ffffff" transform="translate(540.939188 349.500494) scale(0.2 -0.2)">
     <use xlink:href="#ArialMT-54"/>
    </g>
   </g>
   <g id="text_54">
    <!-- S -->
    <g transform="translate(624.526688 349.500494) scale(0.2 -0.2)">
     <defs>
      <path id="ArialMT-53" d="M 288 1472 
L 859 1522 
Q 900 1178 1048 958 
Q 1197 738 1509 602 
Q 1822 466 2213 466 
Q 2559 466 2825 569 
Q 3091 672 3220 851 
Q 3350 1031 3350 1244 
Q 3350 1459 3225 1620 
Q 3100 1781 2813 1891 
Q 2628 1963 1997 2114 
Q 1366 2266 1113 2400 
Q 784 2572 623 2826 
Q 463 3081 463 3397 
Q 463 3744 659 4045 
Q 856 4347 1234 4503 
Q 1613 4659 2075 4659 
Q 2584 4659 2973 4495 
Q 3363 4331 3572 4012 
Q 3781 3694 3797 3291 
L 3216 3247 
Q 3169 3681 2898 3903 
Q 2628 4125 2100 4125 
Q 1550 4125 1298 3923 
Q 1047 3722 1047 3438 
Q 1047 3191 1225 3031 
Q 1400 2872 2139 2705 
Q 2878 2538 3153 2413 
Q 3553 2228 3743 1945 
Q 3934 1663 3934 1294 
Q 3934 928 3725 604 
Q 3516 281 3123 101 
Q 2731 -78 2241 -78 
Q 1619 -78 1198 103 
Q 778 284 539 648 
Q 300 1013 288 1472 
z
" transform="scale(0.015625)"/>
     </defs>
     <use xlink:href="#ArialMT-53"/>
    </g>
   </g>
   <g id="text_55">
    <!-- S -->
    <g transform="translate(708.676687 349.500494) scale(0.2 -0.2)">
     <use xlink:href="#ArialMT-53"/>
    </g>
   </g>
   <g id="text_56">
    <!-- R -->
    <g transform="translate(792.275125 349.500494) scale(0.2 -0.2)">
     <defs>
      <path id="ArialMT-52" d="M 503 0 
L 503 4581 
L 2534 4581 
Q 3147 4581 3465 4457 
Q 3784 4334 3975 4021 
Q 4166 3709 4166 3331 
Q 4166 2844 3850 2509 
Q 3534 2175 2875 2084 
Q 3116 1969 3241 1856 
Q 3506 1613 3744 1247 
L 4541 0 
L 3778 0 
L 3172 953 
Q 2906 1366 2734 1584 
Q 2563 1803 2427 1890 
Q 2291 1978 2150 2013 
Q 2047 2034 1813 2034 
L 1109 2034 
L 1109 0 
L 503 0 
z
M 1109 2559 
L 2413 2559 
Q 2828 2559 3062 2645 
Q 3297 2731 3419 2920 
Q 3541 3109 3541 3331 
Q 3541 3656 3305 3865 
Q 3069 4075 2559 4075 
L 1109 4075 
L 1109 2559 
z
" transform="scale(0.015625)"/>
     </defs>
     <use xlink:href="#ArialMT-52"/>
    </g>
   </g>
   <g id="text_57">
    <!-- Q -->
    <g style="fill: #ffffff" transform="translate(875.868875 349.500494) scale(0.2 -0.2)">
     <use xlink:href="#ArialMT-51"/>
    </g>
   </g>
   <g id="text_58">
    <!-- ID 207 -->
    <g style="fill: #262626" transform="translate(101.035125 349.500494) scale(0.2 -0.2)">
     <defs>
      <path id="ArialMT-37" d="M 303 3981 
L 303 4522 
L 3269 4522 
L 3269 4084 
Q 2831 3619 2401 2847 
Q 1972 2075 1738 1259 
Q 1569 684 1522 0 
L 944 0 
Q 953 541 1156 1306 
Q 1359 2072 1739 2783 
Q 2119 3494 2547 3981 
L 303 3981 
z
" transform="scale(0.015625)"/>
     </defs>
     <use xlink:href="#ArialMT-49"/>
     <use xlink:href="#ArialMT-44" transform="translate(27.783203 0)"/>
     <use xlink:href="#ArialMT-20" transform="translate(100 0)"/>
     <use xlink:href="#ArialMT-32" transform="translate(127.783203 0)"/>
     <use xlink:href="#ArialMT-30" transform="translate(183.398438 0)"/>
     <use xlink:href="#ArialMT-37" transform="translate(239.013672 0)"/>
    </g>
   </g>
   <g id="text_59">
    <!-- I -->
    <g transform="translate(207.668875 400.882312) scale(0.2 -0.2)">
     <use xlink:href="#ArialMT-49"/>
    </g>
   </g>
   <g id="text_60">
    <!-- G -->
    <g transform="translate(286.818875 400.882312) scale(0.2 -0.2)">
     <use xlink:href="#ArialMT-47"/>
    </g>
   </g>
   <g id="text_61">
    <!-- M -->
    <g transform="translate(370.417313 400.882312) scale(0.2 -0.2)">
     <use xlink:href="#ArialMT-4d"/>
    </g>
   </g>
   <g id="text_62">
    <!-- Q -->
    <g style="fill: #ffffff" transform="translate(455.118875 400.882312) scale(0.2 -0.2)">
     <use xlink:href="#ArialMT-51"/>
    </g>
   </g>
   <g id="text_63">
    <!-- S -->
    <g transform="translate(540.376688 400.882312) scale(0.2 -0.2)">
     <use xlink:href="#ArialMT-53"/>
    </g>
   </g>
   <g id="text_64">
    <!-- S -->
    <g transform="translate(624.526688 400.882312) scale(0.2 -0.2)">
     <use xlink:href="#ArialMT-53"/>
    </g>
   </g>
   <g id="text_65">
    <!-- S -->
    <g transform="translate(708.676687 400.882312) scale(0.2 -0.2)">
     <use xlink:href="#ArialMT-53"/>
    </g>
   </g>
   <g id="text_66">
    <!-- E -->
    <g transform="translate(792.826688 400.882312) scale(0.2 -0.2)">
     <defs>
      <path id="ArialMT-45" d="M 506 0 
L 506 4581 
L 3819 4581 
L 3819 4041 
L 1113 4041 
L 1113 2638 
L 3647 2638 
L 3647 2100 
L 1113 2100 
L 1113 541 
L 3925 541 
L 3925 0 
L 506 0 
z
" transform="scale(0.015625)"/>
     </defs>
     <use xlink:href="#ArialMT-45"/>
    </g>
   </g>
   <g id="text_67">
    <!-- S -->
    <g transform="translate(876.976688 400.882312) scale(0.2 -0.2)">
     <use xlink:href="#ArialMT-53"/>
    </g>
   </g>
   <g id="text_68">
    <!-- G -->
    <g transform="translate(960.018875 400.882312) scale(0.2 -0.2)">
     <use xlink:href="#ArialMT-47"/>
    </g>
   </g>
   <g id="text_69">
    <!-- S -->
    <g transform="translate(1045.276688 400.882312) scale(0.2 -0.2)">
     <use xlink:href="#ArialMT-53"/>
    </g>
   </g>
   <g id="text_70">
    <!-- Q -->
    <g style="fill: #ffffff" transform="translate(1128.318875 400.882312) scale(0.2 -0.2)">
     <use xlink:href="#ArialMT-51"/>
    </g>
   </g>
   <g id="text_71">
    <!-- T -->
    <g style="fill: #ffffff" transform="translate(1214.139188 400.882312) scale(0.2 -0.2)">
     <use xlink:href="#ArialMT-54"/>
    </g>
   </g>
   <g id="text_72">
    <!-- ID 206 -->
    <g style="fill: #262626" transform="translate(101.035125 400.882312) scale(0.2 -0.2)">
     <defs>
      <path id="ArialMT-36" d="M 3184 3459 
L 2625 3416 
Q 2550 3747 2413 3897 
Q 2184 4138 1850 4138 
Q 1581 4138 1378 3988 
Q 1113 3794 959 3422 
Q 806 3050 800 2363 
Q 1003 2672 1297 2822 
Q 1591 2972 1913 2972 
Q 2475 2972 2870 2558 
Q 3266 2144 3266 1488 
Q 3266 1056 3080 686 
Q 2894 316 2569 119 
Q 2244 -78 1831 -78 
Q 1128 -78 684 439 
Q 241 956 241 2144 
Q 241 3472 731 4075 
Q 1159 4600 1884 4600 
Q 2425 4600 2770 4297 
Q 3116 3994 3184 3459 
z
M 888 1484 
Q 888 1194 1011 928 
Q 1134 663 1356 523 
Q 1578 384 1822 384 
Q 2178 384 2434 671 
Q 2691 959 2691 1453 
Q 2691 1928 2437 2201 
Q 2184 2475 1800 2475 
Q 1419 2475 1153 2201 
Q 888 1928 888 1484 
z
" transform="scale(0.015625)"/>
     </defs>
     <use xlink:href="#ArialMT-49"/>
     <use xlink:href="#ArialMT-44" transform="translate(27.783203 0)"/>
     <use xlink:href="#ArialMT-20" transform="translate(100 0)"/>
     <use xlink:href="#ArialMT-32" transform="translate(127.783203 0)"/>
     <use xlink:href="#ArialMT-30" transform="translate(183.398438 0)"/>
     <use xlink:href="#ArialMT-36" transform="translate(239.013672 0)"/>
    </g>
   </g>
   <g id="text_73">
    <!-- I -->
    <g transform="translate(207.668875 452.264131) scale(0.2 -0.2)">
     <use xlink:href="#ArialMT-49"/>
    </g>
   </g>
   <g id="text_74">
    <!-- G -->
    <g transform="translate(286.818875 452.264131) scale(0.2 -0.2)">
     <use xlink:href="#ArialMT-47"/>
    </g>
   </g>
   <g id="text_75">
    <!-- M -->
    <g transform="translate(370.417313 452.264131) scale(0.2 -0.2)">
     <use xlink:href="#ArialMT-4d"/>
    </g>
   </g>
   <g id="text_76">
    <!-- Q -->
    <g style="fill: #ffffff" transform="translate(455.118875 452.264131) scale(0.2 -0.2)">
     <use xlink:href="#ArialMT-51"/>
    </g>
   </g>
   <g id="text_77">
    <!-- T -->
    <g style="fill: #ffffff" transform="translate(540.939188 452.264131) scale(0.2 -0.2)">
     <use xlink:href="#ArialMT-54"/>
    </g>
   </g>
   <g id="text_78">
    <!-- U -->
    <g transform="translate(623.975125 452.264131) scale(0.2 -0.2)">
     <defs>
      <path id="ArialMT-55" d="M 3500 4581 
L 4106 4581 
L 4106 1934 
Q 4106 1244 3950 837 
Q 3794 431 3386 176 
Q 2978 -78 2316 -78 
Q 1672 -78 1262 144 
Q 853 366 678 786 
Q 503 1206 503 1934 
L 503 4581 
L 1109 4581 
L 1109 1938 
Q 1109 1341 1220 1058 
Q 1331 775 1601 622 
Q 1872 469 2263 469 
Q 2931 469 3215 772 
Q 3500 1075 3500 1938 
L 3500 4581 
z
" transform="scale(0.015625)"/>
     </defs>
     <use xlink:href="#ArialMT-55"/>
    </g>
   </g>
   <g id="text_79">
    <!-- Q -->
    <g style="fill: #ffffff" transform="translate(707.568875 452.264131) scale(0.2 -0.2)">
     <use xlink:href="#ArialMT-51"/>
    </g>
   </g>
   <g id="text_80">
    <!-- S -->
    <g transform="translate(792.826688 452.264131) scale(0.2 -0.2)">
     <use xlink:href="#ArialMT-53"/>
    </g>
   </g>
   <g id="text_81">
    <!-- Q -->
    <g style="fill: #ffffff" transform="translate(875.868875 452.264131) scale(0.2 -0.2)">
     <use xlink:href="#ArialMT-51"/>
    </g>
   </g>
   <g id="text_82">
    <!-- ID 208 -->
    <g style="fill: #262626" transform="translate(101.035125 452.264131) scale(0.2 -0.2)">
     <defs>
      <path id="ArialMT-38" d="M 1131 2484 
Q 781 2613 612 2850 
Q 444 3088 444 3419 
Q 444 3919 803 4259 
Q 1163 4600 1759 4600 
Q 2359 4600 2725 4251 
Q 3091 3903 3091 3403 
Q 3091 3084 2923 2848 
Q 2756 2613 2416 2484 
Q 2838 2347 3058 2040 
Q 3278 1734 3278 1309 
Q 3278 722 2862 322 
Q 2447 -78 1769 -78 
Q 1091 -78 675 323 
Q 259 725 259 1325 
Q 259 1772 486 2073 
Q 713 2375 1131 2484 
z
M 1019 3438 
Q 1019 3113 1228 2906 
Q 1438 2700 1772 2700 
Q 2097 2700 2305 2904 
Q 2513 3109 2513 3406 
Q 2513 3716 2298 3927 
Q 2084 4138 1766 4138 
Q 1444 4138 1231 3931 
Q 1019 3725 1019 3438 
z
M 838 1322 
Q 838 1081 952 856 
Q 1066 631 1291 507 
Q 1516 384 1775 384 
Q 2178 384 2440 643 
Q 2703 903 2703 1303 
Q 2703 1709 2433 1975 
Q 2163 2241 1756 2241 
Q 1359 2241 1098 1978 
Q 838 1716 838 1322 
z
" transform="scale(0.015625)"/>
     </defs>
     <use xlink:href="#ArialMT-49"/>
     <use xlink:href="#ArialMT-44" transform="translate(27.783203 0)"/>
     <use xlink:href="#ArialMT-20" transform="translate(100 0)"/>
     <use xlink:href="#ArialMT-32" transform="translate(127.783203 0)"/>
     <use xlink:href="#ArialMT-30" transform="translate(183.398438 0)"/>
     <use xlink:href="#ArialMT-38" transform="translate(239.013672 0)"/>
    </g>
   </g>
   <g id="text_83">
    <!-- I -->
    <g transform="translate(207.668875 503.645949) scale(0.2 -0.2)">
     <use xlink:href="#ArialMT-49"/>
    </g>
   </g>
   <g id="text_84">
    <!-- G -->
    <g transform="translate(286.818875 503.645949) scale(0.2 -0.2)">
     <use xlink:href="#ArialMT-47"/>
    </g>
   </g>
   <g id="text_85">
    <!-- M -->
    <g transform="translate(370.417313 503.645949) scale(0.2 -0.2)">
     <use xlink:href="#ArialMT-4d"/>
    </g>
   </g>
   <g id="text_86">
    <!-- T -->
    <g style="fill: #ffffff" transform="translate(456.789188 503.645949) scale(0.2 -0.2)">
     <use xlink:href="#ArialMT-54"/>
    </g>
   </g>
   <g id="text_87">
    <!-- Q -->
    <g style="fill: #ffffff" transform="translate(539.268875 503.645949) scale(0.2 -0.2)">
     <use xlink:href="#ArialMT-51"/>
    </g>
   </g>
   <g id="text_88">
    <!-- W -->
    <g transform="translate(621.757938 503.645949) scale(0.2 -0.2)">
     <defs>
      <path id="ArialMT-57" d="M 1294 0 
L 78 4581 
L 700 4581 
L 1397 1578 
Q 1509 1106 1591 641 
Q 1766 1375 1797 1488 
L 2669 4581 
L 3400 4581 
L 4056 2263 
Q 4303 1400 4413 641 
Q 4500 1075 4641 1638 
L 5359 4581 
L 5969 4581 
L 4713 0 
L 4128 0 
L 3163 3491 
Q 3041 3928 3019 4028 
Q 2947 3713 2884 3491 
L 1913 0 
L 1294 0 
z
" transform="scale(0.015625)"/>
     </defs>
     <use xlink:href="#ArialMT-57"/>
    </g>
   </g>
   <g id="text_89">
    <!-- T -->
    <g style="fill: #ffffff" transform="translate(709.239187 503.645949) scale(0.2 -0.2)">
     <use xlink:href="#ArialMT-54"/>
    </g>
   </g>
   <g id="text_90">
    <!-- W -->
    <g transform="translate(790.057938 503.645949) scale(0.2 -0.2)">
     <use xlink:href="#ArialMT-57"/>
    </g>
   </g>
   <g id="text_91">
    <!-- T -->
    <g style="fill: #ffffff" transform="translate(877.539188 503.645949) scale(0.2 -0.2)">
     <use xlink:href="#ArialMT-54"/>
    </g>
   </g>
   <g id="text_92">
    <!-- ID 204 -->
    <g style="fill: #262626" transform="translate(101.035125 503.645949) scale(0.2 -0.2)">
     <use xlink:href="#ArialMT-49"/>
     <use xlink:href="#ArialMT-44" transform="translate(27.783203 0)"/>
     <use xlink:href="#ArialMT-20" transform="translate(100 0)"/>
     <use xlink:href="#ArialMT-32" transform="translate(127.783203 0)"/>
     <use xlink:href="#ArialMT-30" transform="translate(183.398438 0)"/>
     <use xlink:href="#ArialMT-34" transform="translate(239.013672 0)"/>
    </g>
   </g>
   <g id="text_93">
    <!-- I -->
    <g transform="translate(207.668875 555.027767) scale(0.2 -0.2)">
     <use xlink:href="#ArialMT-49"/>
    </g>
   </g>
   <g id="text_94">
    <!-- G -->
    <g transform="translate(286.818875 555.027767) scale(0.2 -0.2)">
     <use xlink:href="#ArialMT-47"/>
    </g>
   </g>
   <g id="text_95">
    <!-- Q -->
    <g style="fill: #ffffff" transform="translate(370.968875 555.027767) scale(0.2 -0.2)">
     <use xlink:href="#ArialMT-51"/>
    </g>
   </g>
   <g id="text_96">
    <!-- ID 201 -->
    <g style="fill: #262626" transform="translate(101.035125 555.027767) scale(0.2 -0.2)">
     <use xlink:href="#ArialMT-49"/>
     <use xlink:href="#ArialMT-44" transform="translate(27.783203 0)"/>
     <use xlink:href="#ArialMT-20" transform="translate(100 0)"/>
     <use xlink:href="#ArialMT-32" transform="translate(127.783203 0)"/>
     <use xlink:href="#ArialMT-30" transform="translate(183.398438 0)"/>
     <use xlink:href="#ArialMT-31" transform="translate(239.013672 0)"/>
    </g>
   </g>
   <g id="text_97">
    <!-- I -->
    <g transform="translate(207.668875 606.409585) scale(0.2 -0.2)">
     <use xlink:href="#ArialMT-49"/>
    </g>
   </g>
   <g id="text_98">
    <!-- G -->
    <g transform="translate(286.818875 606.409585) scale(0.2 -0.2)">
     <use xlink:href="#ArialMT-47"/>
    </g>
   </g>
   <g id="text_99">
    <!-- M -->
    <g transform="translate(370.417313 606.409585) scale(0.2 -0.2)">
     <use xlink:href="#ArialMT-4d"/>
    </g>
   </g>
   <g id="text_100">
    <!-- Q -->
    <g style="fill: #ffffff" transform="translate(455.118875 606.409585) scale(0.2 -0.2)">
     <use xlink:href="#ArialMT-51"/>
    </g>
   </g>
   <g id="text_101">
    <!-- G -->
    <g transform="translate(539.268875 606.409585) scale(0.2 -0.2)">
     <use xlink:href="#ArialMT-47"/>
    </g>
   </g>
   <g id="text_102">
    <!-- Q -->
    <g style="fill: #ffffff" transform="translate(623.418875 606.409585) scale(0.2 -0.2)">
     <use xlink:href="#ArialMT-51"/>
    </g>
   </g>
   <g id="text_103">
    <!-- Q -->
    <g style="fill: #ffffff" transform="translate(707.568875 606.409585) scale(0.2 -0.2)">
     <use xlink:href="#ArialMT-51"/>
    </g>
   </g>
   <g id="text_104">
    <!-- ID 211 -->
    <g style="fill: #262626" transform="translate(102.510125 606.409585) scale(0.2 -0.2)">
     <use xlink:href="#ArialMT-49"/>
     <use xlink:href="#ArialMT-44" transform="translate(27.783203 0)"/>
     <use xlink:href="#ArialMT-20" transform="translate(100 0)"/>
     <use xlink:href="#ArialMT-32" transform="translate(127.783203 0)"/>
     <use xlink:href="#ArialMT-31" transform="translate(183.398438 0)"/>
     <use xlink:href="#ArialMT-31" transform="translate(231.638672 0)"/>
    </g>
   </g>
   <g id="text_105">
    <!-- Q -->
    <g style="fill: #ffffff" transform="translate(202.668875 657.791403) scale(0.2 -0.2)">
     <use xlink:href="#ArialMT-51"/>
    </g>
   </g>
   <g id="text_106">
    <!-- Q -->
    <g style="fill: #ffffff" transform="translate(286.818875 657.791403) scale(0.2 -0.2)">
     <use xlink:href="#ArialMT-51"/>
    </g>
   </g>
   <g id="text_107">
    <!-- Q -->
    <g style="fill: #ffffff" transform="translate(370.968875 657.791403) scale(0.2 -0.2)">
     <use xlink:href="#ArialMT-51"/>
    </g>
   </g>
   <g id="text_108">
    <!-- Q -->
    <g style="fill: #ffffff" transform="translate(455.118875 657.791403) scale(0.2 -0.2)">
     <use xlink:href="#ArialMT-51"/>
    </g>
   </g>
   <g id="text_109">
    <!-- Q -->
    <g style="fill: #ffffff" transform="translate(539.268875 657.791403) scale(0.2 -0.2)">
     <use xlink:href="#ArialMT-51"/>
    </g>
   </g>
   <g id="text_110">
    <!-- G -->
    <g transform="translate(623.418875 657.791403) scale(0.2 -0.2)">
     <use xlink:href="#ArialMT-47"/>
    </g>
   </g>
   <g id="text_111">
    <!-- K -->
    <g transform="translate(708.676687 657.791403) scale(0.2 -0.2)">
     <defs>
      <path id="ArialMT-4b" d="M 469 0 
L 469 4581 
L 1075 4581 
L 1075 2309 
L 3350 4581 
L 4172 4581 
L 2250 2725 
L 4256 0 
L 3456 0 
L 1825 2319 
L 1075 1588 
L 1075 0 
L 469 0 
z
" transform="scale(0.015625)"/>
     </defs>
     <use xlink:href="#ArialMT-4b"/>
    </g>
   </g>
   <g id="text_112">
    <!-- ID 214 -->
    <g style="fill: #262626" transform="translate(101.035125 657.791403) scale(0.2 -0.2)">
     <use xlink:href="#ArialMT-49"/>
     <use xlink:href="#ArialMT-44" transform="translate(27.783203 0)"/>
     <use xlink:href="#ArialMT-20" transform="translate(100 0)"/>
     <use xlink:href="#ArialMT-32" transform="translate(127.783203 0)"/>
     <use xlink:href="#ArialMT-31" transform="translate(183.398438 0)"/>
     <use xlink:href="#ArialMT-34" transform="translate(239.013672 0)"/>
    </g>
   </g>
   <g id="text_113">
    <!-- Q -->
    <g style="fill: #ffffff" transform="translate(202.668875 709.173222) scale(0.2 -0.2)">
     <use xlink:href="#ArialMT-51"/>
    </g>
   </g>
   <g id="text_114">
    <!-- Q -->
    <g style="fill: #ffffff" transform="translate(286.818875 709.173222) scale(0.2 -0.2)">
     <use xlink:href="#ArialMT-51"/>
    </g>
   </g>
   <g id="text_115">
    <!-- Q -->
    <g style="fill: #ffffff" transform="translate(370.968875 709.173222) scale(0.2 -0.2)">
     <use xlink:href="#ArialMT-51"/>
    </g>
   </g>
   <g id="text_116">
    <!-- T -->
    <g style="fill: #ffffff" transform="translate(456.789188 709.173222) scale(0.2 -0.2)">
     <use xlink:href="#ArialMT-54"/>
    </g>
   </g>
   <g id="text_117">
    <!-- J -->
    <g style="fill: #ffffff" transform="translate(542.047 709.173222) scale(0.2 -0.2)">
     <defs>
      <path id="ArialMT-4a" d="M 184 1300 
L 731 1375 
Q 753 850 928 656 
Q 1103 463 1413 463 
Q 1641 463 1806 567 
Q 1972 672 2034 851 
Q 2097 1031 2097 1425 
L 2097 4581 
L 2703 4581 
L 2703 1459 
Q 2703 884 2564 568 
Q 2425 253 2123 87 
Q 1822 -78 1416 -78 
Q 813 -78 492 269 
Q 172 616 184 1300 
z
" transform="scale(0.015625)"/>
     </defs>
     <use xlink:href="#ArialMT-4a"/>
    </g>
   </g>
   <g id="text_118">
    <!-- J -->
    <g style="fill: #ffffff" transform="translate(626.197 709.173222) scale(0.2 -0.2)">
     <use xlink:href="#ArialMT-4a"/>
    </g>
   </g>
   <g id="text_119">
    <!-- T -->
    <g style="fill: #ffffff" transform="translate(709.239187 709.173222) scale(0.2 -0.2)">
     <use xlink:href="#ArialMT-54"/>
    </g>
   </g>
   <g id="text_120">
    <!-- ID 213 -->
    <g style="fill: #262626" transform="translate(101.035125 709.173222) scale(0.2 -0.2)">
     <use xlink:href="#ArialMT-49"/>
     <use xlink:href="#ArialMT-44" transform="translate(27.783203 0)"/>
     <use xlink:href="#ArialMT-20" transform="translate(100 0)"/>
     <use xlink:href="#ArialMT-32" transform="translate(127.783203 0)"/>
     <use xlink:href="#ArialMT-31" transform="translate(183.398438 0)"/>
     <use xlink:href="#ArialMT-33" transform="translate(239.013672 0)"/>
    </g>
   </g>
   <g id="text_121">
    <!-- Q -->
    <g style="fill: #ffffff" transform="translate(202.668875 760.55504) scale(0.2 -0.2)">
     <use xlink:href="#ArialMT-51"/>
    </g>
   </g>
   <g id="text_122">
    <!-- U -->
    <g transform="translate(287.375125 760.55504) scale(0.2 -0.2)">
     <use xlink:href="#ArialMT-55"/>
    </g>
   </g>
   <g id="text_123">
    <!-- Q -->
    <g style="fill: #ffffff" transform="translate(370.968875 760.55504) scale(0.2 -0.2)">
     <use xlink:href="#ArialMT-51"/>
    </g>
   </g>
   <g id="text_124">
    <!-- T -->
    <g style="fill: #ffffff" transform="translate(456.789188 760.55504) scale(0.2 -0.2)">
     <use xlink:href="#ArialMT-54"/>
    </g>
   </g>
   <g id="text_125">
    <!-- ID 211 -->
    <g style="fill: #262626" transform="translate(102.510125 760.55504) scale(0.2 -0.2)">
     <use xlink:href="#ArialMT-49"/>
     <use xlink:href="#ArialMT-44" transform="translate(27.783203 0)"/>
     <use xlink:href="#ArialMT-20" transform="translate(100 0)"/>
     <use xlink:href="#ArialMT-32" transform="translate(127.783203 0)"/>
     <use xlink:href="#ArialMT-31" transform="translate(183.398438 0)"/>
     <use xlink:href="#ArialMT-31" transform="translate(231.638672 0)"/>
    </g>
   </g>
   <g id="text_126">
    <!-- Q -->
    <g style="fill: #ffffff" transform="translate(202.668875 811.936858) scale(0.2 -0.2)">
     <use xlink:href="#ArialMT-51"/>
    </g>
   </g>
   <g id="text_127">
    <!-- T -->
    <g style="fill: #ffffff" transform="translate(288.489188 811.936858) scale(0.2 -0.2)">
     <use xlink:href="#ArialMT-54"/>
    </g>
   </g>
   <g id="text_128">
    <!-- D -->
    <g style="fill: #ffffff" transform="translate(371.525125 811.936858) scale(0.2 -0.2)">
     <use xlink:href="#ArialMT-44"/>
    </g>
   </g>
   <g id="text_129">
    <!-- F -->
    <g style="fill: #ffffff" transform="translate(456.789188 811.936858) scale(0.2 -0.2)">
     <use xlink:href="#ArialMT-46"/>
    </g>
   </g>
   <g id="text_130">
    <!-- T -->
    <g style="fill: #ffffff" transform="translate(540.939188 811.936858) scale(0.2 -0.2)">
     <use xlink:href="#ArialMT-54"/>
    </g>
   </g>
   <g id="text_131">
    <!-- F -->
    <g style="fill: #ffffff" transform="translate(625.089188 811.936858) scale(0.2 -0.2)">
     <use xlink:href="#ArialMT-46"/>
    </g>
   </g>
   <g id="text_132">
    <!-- ID 212 -->
    <g style="fill: #262626" transform="translate(101.035125 811.936858) scale(0.2 -0.2)">
     <use xlink:href="#ArialMT-49"/>
     <use xlink:href="#ArialMT-44" transform="translate(27.783203 0)"/>
     <use xlink:href="#ArialMT-20" transform="translate(100 0)"/>
     <use xlink:href="#ArialMT-32" transform="translate(127.783203 0)"/>
     <use xlink:href="#ArialMT-31" transform="translate(183.398438 0)"/>
     <use xlink:href="#ArialMT-32" transform="translate(239.013672 0)"/>
    </g>
   </g>
   <g id="text_133">
    <!-- Q -->
    <g style="fill: #ffffff" transform="translate(202.668875 863.318676) scale(0.2 -0.2)">
     <use xlink:href="#ArialMT-51"/>
    </g>
   </g>
   <g id="text_134">
    <!-- S -->
    <g transform="translate(287.926688 863.318676) scale(0.2 -0.2)">
     <use xlink:href="#ArialMT-53"/>
    </g>
   </g>
   <g id="text_135">
    <!-- I -->
    <g transform="translate(375.968875 863.318676) scale(0.2 -0.2)">
     <use xlink:href="#ArialMT-49"/>
    </g>
   </g>
   <g id="text_136">
    <!-- X -->
    <g transform="translate(456.226688 863.318676) scale(0.2 -0.2)">
     <use xlink:href="#ArialMT-58"/>
    </g>
   </g>
   <g id="text_137">
    <!-- O -->
    <g style="fill: #ffffff" transform="translate(539.268875 863.318676) scale(0.2 -0.2)">
     <use xlink:href="#ArialMT-4f"/>
    </g>
   </g>
   <g id="text_138">
    <!-- S -->
    <g transform="translate(624.526688 863.318676) scale(0.2 -0.2)">
     <use xlink:href="#ArialMT-53"/>
    </g>
   </g>
   <g id="text_139">
    <!-- H -->
    <g transform="translate(708.125125 863.318676) scale(0.2 -0.2)">
     <use xlink:href="#ArialMT-48"/>
    </g>
   </g>
   <g id="text_140">
    <!-- N -->
    <g transform="translate(792.275125 863.318676) scale(0.2 -0.2)">
     <defs>
      <path id="ArialMT-4e" d="M 488 0 
L 488 4581 
L 1109 4581 
L 3516 984 
L 3516 4581 
L 4097 4581 
L 4097 0 
L 3475 0 
L 1069 3600 
L 1069 0 
L 488 0 
z
" transform="scale(0.015625)"/>
     </defs>
     <use xlink:href="#ArialMT-4e"/>
    </g>
   </g>
   <g id="text_141">
    <!-- W -->
    <g transform="translate(874.207938 863.318676) scale(0.2 -0.2)">
     <use xlink:href="#ArialMT-57"/>
    </g>
   </g>
   <g id="text_142">
    <!-- O -->
    <g style="fill: #ffffff" transform="translate(960.018875 863.318676) scale(0.2 -0.2)">
     <use xlink:href="#ArialMT-4f"/>
    </g>
   </g>
   <g id="text_143">
    <!-- H -->
    <g transform="translate(1044.725125 863.318676) scale(0.2 -0.2)">
     <use xlink:href="#ArialMT-48"/>
    </g>
   </g>
   <g id="text_144">
    <!-- ID 205 -->
    <g style="fill: #262626" transform="translate(101.035125 863.318676) scale(0.2 -0.2)">
     <use xlink:href="#ArialMT-49"/>
     <use xlink:href="#ArialMT-44" transform="translate(27.783203 0)"/>
     <use xlink:href="#ArialMT-20" transform="translate(100 0)"/>
     <use xlink:href="#ArialMT-32" transform="translate(127.783203 0)"/>
     <use xlink:href="#ArialMT-30" transform="translate(183.398438 0)"/>
     <use xlink:href="#ArialMT-35" transform="translate(239.013672 0)"/>
    </g>
   </g>
   <g id="text_145">
    <!-- Q -->
    <g style="fill: #ffffff" transform="translate(202.668875 914.700494) scale(0.2 -0.2)">
     <use xlink:href="#ArialMT-51"/>
    </g>
   </g>
   <g id="text_146">
    <!-- K -->
    <g transform="translate(287.926688 914.700494) scale(0.2 -0.2)">
     <use xlink:href="#ArialMT-4b"/>
    </g>
   </g>
   <g id="text_147">
    <!-- S -->
    <g transform="translate(372.076687 914.700494) scale(0.2 -0.2)">
     <use xlink:href="#ArialMT-53"/>
    </g>
   </g>
   <g id="text_148">
    <!-- S -->
    <g transform="translate(456.226688 914.700494) scale(0.2 -0.2)">
     <use xlink:href="#ArialMT-53"/>
    </g>
   </g>
   <g id="text_149">
    <!-- X -->
    <g transform="translate(540.376688 914.700494) scale(0.2 -0.2)">
     <use xlink:href="#ArialMT-58"/>
    </g>
   </g>
   <g id="text_150">
    <!-- K -->
    <g transform="translate(624.526688 914.700494) scale(0.2 -0.2)">
     <use xlink:href="#ArialMT-4b"/>
    </g>
   </g>
   <g id="text_151">
    <!-- O -->
    <g style="fill: #ffffff" transform="translate(707.568875 914.700494) scale(0.2 -0.2)">
     <use xlink:href="#ArialMT-4f"/>
    </g>
   </g>
   <g id="text_152">
    <!-- ID 204 -->
    <g style="fill: #262626" transform="translate(101.035125 914.700494) scale(0.2 -0.2)">
     <use xlink:href="#ArialMT-49"/>
     <use xlink:href="#ArialMT-44" transform="translate(27.783203 0)"/>
     <use xlink:href="#ArialMT-20" transform="translate(100 0)"/>
     <use xlink:href="#ArialMT-32" transform="translate(127.783203 0)"/>
     <use xlink:href="#ArialMT-30" transform="translate(183.398438 0)"/>
     <use xlink:href="#ArialMT-34" transform="translate(239.013672 0)"/>
    </g>
   </g>
   <g id="text_153">
    <!-- Q -->
    <g style="fill: #ffffff" transform="translate(202.668875 966.082312) scale(0.2 -0.2)">
     <use xlink:href="#ArialMT-51"/>
    </g>
   </g>
   <g id="text_154">
    <!-- S -->
    <g transform="translate(287.926688 966.082312) scale(0.2 -0.2)">
     <use xlink:href="#ArialMT-53"/>
    </g>
   </g>
   <g id="text_155">
    <!-- S -->
    <g transform="translate(372.076687 966.082312) scale(0.2 -0.2)">
     <use xlink:href="#ArialMT-53"/>
    </g>
   </g>
   <g id="text_156">
    <!-- S -->
    <g transform="translate(456.226688 966.082312) scale(0.2 -0.2)">
     <use xlink:href="#ArialMT-53"/>
    </g>
   </g>
   <g id="text_157">
    <!-- ID 206 -->
    <g style="fill: #262626" transform="translate(101.035125 966.082312) scale(0.2 -0.2)">
     <use xlink:href="#ArialMT-49"/>
     <use xlink:href="#ArialMT-44" transform="translate(27.783203 0)"/>
     <use xlink:href="#ArialMT-20" transform="translate(100 0)"/>
     <use xlink:href="#ArialMT-32" transform="translate(127.783203 0)"/>
     <use xlink:href="#ArialMT-30" transform="translate(183.398438 0)"/>
     <use xlink:href="#ArialMT-36" transform="translate(239.013672 0)"/>
    </g>
   </g>
   <g id="text_158">
    <!-- W -->
    <g transform="translate(201.007937 1017.464131) scale(0.2 -0.2)">
     <use xlink:href="#ArialMT-57"/>
    </g>
   </g>
   <g id="text_159">
    <!-- Q -->
    <g style="fill: #ffffff" transform="translate(286.818875 1017.464131) scale(0.2 -0.2)">
     <use xlink:href="#ArialMT-51"/>
    </g>
   </g>
   <g id="text_160">
    <!-- ID 201 -->
    <g style="fill: #262626" transform="translate(101.035125 1017.464131) scale(0.2 -0.2)">
     <use xlink:href="#ArialMT-49"/>
     <use xlink:href="#ArialMT-44" transform="translate(27.783203 0)"/>
     <use xlink:href="#ArialMT-20" transform="translate(100 0)"/>
     <use xlink:href="#ArialMT-32" transform="translate(127.783203 0)"/>
     <use xlink:href="#ArialMT-30" transform="translate(183.398438 0)"/>
     <use xlink:href="#ArialMT-31" transform="translate(239.013672 0)"/>
    </g>
   </g>
   <g id="text_161">
    <!-- Q -->
    <g style="fill: #ffffff" transform="translate(202.668875 1068.845949) scale(0.2 -0.2)">
     <use xlink:href="#ArialMT-51"/>
    </g>
   </g>
   <g id="text_162">
    <!-- Y -->
    <g transform="translate(287.926688 1068.845949) scale(0.2 -0.2)">
     <defs>
      <path id="ArialMT-59" d="M 1784 0 
L 1784 1941 
L 19 4581 
L 756 4581 
L 1659 3200 
Q 1909 2813 2125 2425 
Q 2331 2784 2625 3234 
L 3513 4581 
L 4219 4581 
L 2391 1941 
L 2391 0 
L 1784 0 
z
" transform="scale(0.015625)"/>
     </defs>
     <use xlink:href="#ArialMT-59"/>
    </g>
   </g>
   <g id="text_163">
    <!-- C -->
    <g transform="translate(371.525125 1068.845949) scale(0.2 -0.2)">
     <defs>
      <path id="ArialMT-43" d="M 3763 1606 
L 4369 1453 
Q 4178 706 3683 314 
Q 3188 -78 2472 -78 
Q 1731 -78 1267 223 
Q 803 525 561 1097 
Q 319 1669 319 2325 
Q 319 3041 592 3573 
Q 866 4106 1370 4382 
Q 1875 4659 2481 4659 
Q 3169 4659 3637 4309 
Q 4106 3959 4291 3325 
L 3694 3184 
Q 3534 3684 3231 3912 
Q 2928 4141 2469 4141 
Q 1941 4141 1586 3887 
Q 1231 3634 1087 3207 
Q 944 2781 944 2328 
Q 944 1744 1114 1308 
Q 1284 872 1643 656 
Q 2003 441 2422 441 
Q 2931 441 3284 734 
Q 3638 1028 3763 1606 
z
" transform="scale(0.015625)"/>
     </defs>
     <use xlink:href="#ArialMT-43"/>
    </g>
   </g>
   <g id="text_164">
    <!-- S -->
    <g transform="translate(456.226688 1068.845949) scale(0.2 -0.2)">
     <use xlink:href="#ArialMT-53"/>
    </g>
   </g>
   <g id="text_165">
    <!-- ID 208 -->
    <g style="fill: #262626" transform="translate(101.035125 1068.845949) scale(0.2 -0.2)">
     <use xlink:href="#ArialMT-49"/>
     <use xlink:href="#ArialMT-44" transform="translate(27.783203 0)"/>
     <use xlink:href="#ArialMT-20" transform="translate(100 0)"/>
     <use xlink:href="#ArialMT-32" transform="translate(127.783203 0)"/>
     <use xlink:href="#ArialMT-30" transform="translate(183.398438 0)"/>
     <use xlink:href="#ArialMT-38" transform="translate(239.013672 0)"/>
    </g>
   </g>
  </g>
 </g>
 <defs>
  <clipPath id="p1af116ecf6">
   <rect x="0.072" y="0.072" width="1346.4" height="1130.4"/>
  </clipPath>
 </defs>
</svg>
