<?xml version="1.0" encoding="utf-8" standalone="no"?>
<!DOCTYPE svg PUBLIC "-//W3C//DTD SVG 1.1//EN"
  "http://www.w3.org/Graphics/SVG/1.1/DTD/svg11.dtd">
<svg xmlns:xlink="http://www.w3.org/1999/xlink" width="914.544pt" height="1015.344pt" viewBox="0 0 914.544 1015.344" xmlns="http://www.w3.org/2000/svg" version="1.1">
 <metadata>
  <rdf:RDF xmlns:dc="http://purl.org/dc/elements/1.1/" xmlns:cc="http://creativecommons.org/ns#" xmlns:rdf="http://www.w3.org/1999/02/22-rdf-syntax-ns#">
   <cc:Work>
    <dc:type rdf:resource="http://purl.org/dc/dcmitype/StillImage"/>
    <dc:date>2025-05-06T22:08:08.140036</dc:date>
    <dc:format>image/svg+xml</dc:format>
    <dc:creator>
     <cc:Agent>
      <dc:title>Matplotlib v3.10.1, https://matplotlib.org/</dc:title>
     </cc:Agent>
    </dc:creator>
   </cc:Work>
  </rdf:RDF>
 </metadata>
 <defs>
  <style type="text/css">*{stroke-linejoin: round; stroke-linecap: butt}</style>
 </defs>
 <g id="figure_1">
  <g id="patch_1">
   <path d="M 0 1015.344 
L 914.544 1015.344 
L 914.544 0 
L 0 0 
z
" style="fill: #ffffff"/>
  </g>
  <g id="axes_1">
   <g id="patch_2">
    <path d="M 182.952 101.592 
L 274.392 101.592 
L 274.392 71.136 
L 182.952 71.136 
z
" clip-path="url(#pd97bb932cd)" style="fill: #add8e6; stroke: #ffffff; stroke-linejoin: miter"/>
   </g>
   <g id="patch_3">
    <path d="M 274.392 101.592 
L 365.832 101.592 
L 365.832 71.136 
L 274.392 71.136 
z
" clip-path="url(#pd97bb932cd)" style="fill: #ff69b4; stroke: #ffffff; stroke-linejoin: miter"/>
   </g>
   <g id="patch_4">
    <path d="M 365.832 101.592 
L 457.272 101.592 
L 457.272 71.136 
L 365.832 71.136 
z
" clip-path="url(#pd97bb932cd)" style="fill: #ff8c00; stroke: #ffffff; stroke-linejoin: miter"/>
   </g>
   <g id="patch_5">
    <path d="M 457.272 101.592 
L 548.712 101.592 
L 548.712 71.136 
L 457.272 71.136 
z
" clip-path="url(#pd97bb932cd)" style="fill: #0000ff; stroke: #ffffff; stroke-linejoin: miter"/>
   </g>
   <g id="patch_6">
    <path d="M 548.712 101.592 
L 640.152 101.592 
L 640.152 71.136 
L 548.712 71.136 
z
" clip-path="url(#pd97bb932cd)" style="fill: #a0522d; stroke: #ffffff; stroke-linejoin: miter"/>
   </g>
   <g id="patch_7">
    <path d="M 182.952 152.352 
L 274.392 152.352 
L 274.392 121.896 
L 182.952 121.896 
z
" clip-path="url(#pd97bb932cd)" style="fill: #add8e6; stroke: #ffffff; stroke-linejoin: miter"/>
   </g>
   <g id="patch_8">
    <path d="M 274.392 152.352 
L 365.832 152.352 
L 365.832 121.896 
L 274.392 121.896 
z
" clip-path="url(#pd97bb932cd)" style="fill: #ff69b4; stroke: #ffffff; stroke-linejoin: miter"/>
   </g>
   <g id="patch_9">
    <path d="M 365.832 152.352 
L 457.272 152.352 
L 457.272 121.896 
L 365.832 121.896 
z
" clip-path="url(#pd97bb932cd)" style="fill: #ff8c00; stroke: #ffffff; stroke-linejoin: miter"/>
   </g>
   <g id="patch_10">
    <path d="M 457.272 152.352 
L 548.712 152.352 
L 548.712 121.896 
L 457.272 121.896 
z
" clip-path="url(#pd97bb932cd)" style="fill: #0000ff; stroke: #ffffff; stroke-linejoin: miter"/>
   </g>
   <g id="patch_11">
    <path d="M 548.712 152.352 
L 640.152 152.352 
L 640.152 121.896 
L 548.712 121.896 
z
" clip-path="url(#pd97bb932cd)" style="fill: #a0522d; stroke: #ffffff; stroke-linejoin: miter"/>
   </g>
   <g id="patch_12">
    <path d="M 182.952 203.112 
L 274.392 203.112 
L 274.392 172.656 
L 182.952 172.656 
z
" clip-path="url(#pd97bb932cd)" style="fill: #add8e6; stroke: #ffffff; stroke-linejoin: miter"/>
   </g>
   <g id="patch_13">
    <path d="M 274.392 203.112 
L 365.832 203.112 
L 365.832 172.656 
L 274.392 172.656 
z
" clip-path="url(#pd97bb932cd)" style="fill: #ff69b4; stroke: #ffffff; stroke-linejoin: miter"/>
   </g>
   <g id="patch_14">
    <path d="M 365.832 203.112 
L 457.272 203.112 
L 457.272 172.656 
L 365.832 172.656 
z
" clip-path="url(#pd97bb932cd)" style="fill: #ff8c00; stroke: #ffffff; stroke-linejoin: miter"/>
   </g>
   <g id="patch_15">
    <path d="M 457.272 203.112 
L 548.712 203.112 
L 548.712 172.656 
L 457.272 172.656 
z
" clip-path="url(#pd97bb932cd)" style="fill: #0000ff; stroke: #ffffff; stroke-linejoin: miter"/>
   </g>
   <g id="patch_16">
    <path d="M 548.712 203.112 
L 640.152 203.112 
L 640.152 172.656 
L 548.712 172.656 
z
" clip-path="url(#pd97bb932cd)" style="fill: #a0522d; stroke: #ffffff; stroke-linejoin: miter"/>
   </g>
   <g id="patch_17">
    <path d="M 640.152 203.112 
L 731.592 203.112 
L 731.592 172.656 
L 640.152 172.656 
z
" clip-path="url(#pd97bb932cd)" style="fill: #7b68ee; stroke: #ffffff; stroke-linejoin: miter"/>
   </g>
   <g id="patch_18">
    <path d="M 182.952 253.872 
L 274.392 253.872 
L 274.392 223.416 
L 182.952 223.416 
z
" clip-path="url(#pd97bb932cd)" style="fill: #add8e6; stroke: #ffffff; stroke-linejoin: miter"/>
   </g>
   <g id="patch_19">
    <path d="M 274.392 253.872 
L 365.832 253.872 
L 365.832 223.416 
L 274.392 223.416 
z
" clip-path="url(#pd97bb932cd)" style="fill: #ff69b4; stroke: #ffffff; stroke-linejoin: miter"/>
   </g>
   <g id="patch_20">
    <path d="M 365.832 253.872 
L 457.272 253.872 
L 457.272 223.416 
L 365.832 223.416 
z
" clip-path="url(#pd97bb932cd)" style="fill: #ff8c00; stroke: #ffffff; stroke-linejoin: miter"/>
   </g>
   <g id="patch_21">
    <path d="M 457.272 253.872 
L 548.712 253.872 
L 548.712 223.416 
L 457.272 223.416 
z
" clip-path="url(#pd97bb932cd)" style="fill: #0000ff; stroke: #ffffff; stroke-linejoin: miter"/>
   </g>
   <g id="patch_22">
    <path d="M 548.712 253.872 
L 640.152 253.872 
L 640.152 223.416 
L 548.712 223.416 
z
" clip-path="url(#pd97bb932cd)" style="fill: #a0522d; stroke: #ffffff; stroke-linejoin: miter"/>
   </g>
   <g id="patch_23">
    <path d="M 640.152 253.872 
L 731.592 253.872 
L 731.592 223.416 
L 640.152 223.416 
z
" clip-path="url(#pd97bb932cd)" style="fill: #7b68ee; stroke: #ffffff; stroke-linejoin: miter"/>
   </g>
   <g id="patch_24">
    <path d="M 182.952 304.632 
L 274.392 304.632 
L 274.392 274.176 
L 182.952 274.176 
z
" clip-path="url(#pd97bb932cd)" style="fill: #add8e6; stroke: #ffffff; stroke-linejoin: miter"/>
   </g>
   <g id="patch_25">
    <path d="M 274.392 304.632 
L 365.832 304.632 
L 365.832 274.176 
L 274.392 274.176 
z
" clip-path="url(#pd97bb932cd)" style="fill: #ff69b4; stroke: #ffffff; stroke-linejoin: miter"/>
   </g>
   <g id="patch_26">
    <path d="M 365.832 304.632 
L 457.272 304.632 
L 457.272 274.176 
L 365.832 274.176 
z
" clip-path="url(#pd97bb932cd)" style="fill: #ff8c00; stroke: #ffffff; stroke-linejoin: miter"/>
   </g>
   <g id="patch_27">
    <path d="M 457.272 304.632 
L 548.712 304.632 
L 548.712 274.176 
L 457.272 274.176 
z
" clip-path="url(#pd97bb932cd)" style="fill: #0000ff; stroke: #ffffff; stroke-linejoin: miter"/>
   </g>
   <g id="patch_28">
    <path d="M 548.712 304.632 
L 640.152 304.632 
L 640.152 274.176 
L 548.712 274.176 
z
" clip-path="url(#pd97bb932cd)" style="fill: #a0522d; stroke: #ffffff; stroke-linejoin: miter"/>
   </g>
   <g id="patch_29">
    <path d="M 640.152 304.632 
L 731.592 304.632 
L 731.592 274.176 
L 640.152 274.176 
z
" clip-path="url(#pd97bb932cd)" style="fill: #7b68ee; stroke: #ffffff; stroke-linejoin: miter"/>
   </g>
   <g id="patch_30">
    <path d="M 182.952 355.392 
L 274.392 355.392 
L 274.392 324.936 
L 182.952 324.936 
z
" clip-path="url(#pd97bb932cd)" style="fill: #add8e6; stroke: #ffffff; stroke-linejoin: miter"/>
   </g>
   <g id="patch_31">
    <path d="M 274.392 355.392 
L 365.832 355.392 
L 365.832 324.936 
L 274.392 324.936 
z
" clip-path="url(#pd97bb932cd)" style="fill: #0000ff; stroke: #ffffff; stroke-linejoin: miter"/>
   </g>
   <g id="patch_32">
    <path d="M 365.832 355.392 
L 457.272 355.392 
L 457.272 324.936 
L 365.832 324.936 
z
" clip-path="url(#pd97bb932cd)" style="fill: #dda0dd; stroke: #ffffff; stroke-linejoin: miter"/>
   </g>
   <g id="patch_33">
    <path d="M 457.272 355.392 
L 548.712 355.392 
L 548.712 324.936 
L 457.272 324.936 
z
" clip-path="url(#pd97bb932cd)" style="fill: #0000ff; stroke: #ffffff; stroke-linejoin: miter"/>
   </g>
   <g id="patch_34">
    <path d="M 548.712 355.392 
L 640.152 355.392 
L 640.152 324.936 
L 548.712 324.936 
z
" clip-path="url(#pd97bb932cd)" style="fill: #a0522d; stroke: #ffffff; stroke-linejoin: miter"/>
   </g>
   <g id="patch_35">
    <path d="M 640.152 355.392 
L 731.592 355.392 
L 731.592 324.936 
L 640.152 324.936 
z
" clip-path="url(#pd97bb932cd)" style="fill: #7b68ee; stroke: #ffffff; stroke-linejoin: miter"/>
   </g>
   <g id="patch_36">
    <path d="M 182.952 406.152 
L 274.392 406.152 
L 274.392 375.696 
L 182.952 375.696 
z
" clip-path="url(#pd97bb932cd)" style="fill: #add8e6; stroke: #ffffff; stroke-linejoin: miter"/>
   </g>
   <g id="patch_37">
    <path d="M 274.392 406.152 
L 365.832 406.152 
L 365.832 375.696 
L 274.392 375.696 
z
" clip-path="url(#pd97bb932cd)" style="fill: #0000ff; stroke: #ffffff; stroke-linejoin: miter"/>
   </g>
   <g id="patch_38">
    <path d="M 365.832 406.152 
L 457.272 406.152 
L 457.272 375.696 
L 365.832 375.696 
z
" clip-path="url(#pd97bb932cd)" style="fill: #ff8c00; stroke: #ffffff; stroke-linejoin: miter"/>
   </g>
   <g id="patch_39">
    <path d="M 457.272 406.152 
L 548.712 406.152 
L 548.712 375.696 
L 457.272 375.696 
z
" clip-path="url(#pd97bb932cd)" style="fill: #0000ff; stroke: #ffffff; stroke-linejoin: miter"/>
   </g>
   <g id="patch_40">
    <path d="M 548.712 406.152 
L 640.152 406.152 
L 640.152 375.696 
L 548.712 375.696 
z
" clip-path="url(#pd97bb932cd)" style="fill: #a0522d; stroke: #ffffff; stroke-linejoin: miter"/>
   </g>
   <g id="patch_41">
    <path d="M 640.152 406.152 
L 731.592 406.152 
L 731.592 375.696 
L 640.152 375.696 
z
" clip-path="url(#pd97bb932cd)" style="fill: #7b68ee; stroke: #ffffff; stroke-linejoin: miter"/>
   </g>
   <g id="patch_42">
    <path d="M 182.952 456.912 
L 274.392 456.912 
L 274.392 426.456 
L 182.952 426.456 
z
" clip-path="url(#pd97bb932cd)" style="fill: #add8e6; stroke: #ffffff; stroke-linejoin: miter"/>
   </g>
   <g id="patch_43">
    <path d="M 274.392 456.912 
L 365.832 456.912 
L 365.832 426.456 
L 274.392 426.456 
z
" clip-path="url(#pd97bb932cd)" style="fill: #adff2f; stroke: #ffffff; stroke-linejoin: miter"/>
   </g>
   <g id="patch_44">
    <path d="M 365.832 456.912 
L 457.272 456.912 
L 457.272 426.456 
L 365.832 426.456 
z
" clip-path="url(#pd97bb932cd)" style="fill: #0000ff; stroke: #ffffff; stroke-linejoin: miter"/>
   </g>
   <g id="patch_45">
    <path d="M 457.272 456.912 
L 548.712 456.912 
L 548.712 426.456 
L 457.272 426.456 
z
" clip-path="url(#pd97bb932cd)" style="fill: #a0522d; stroke: #ffffff; stroke-linejoin: miter"/>
   </g>
   <g id="patch_46">
    <path d="M 548.712 456.912 
L 640.152 456.912 
L 640.152 426.456 
L 548.712 426.456 
z
" clip-path="url(#pd97bb932cd)" style="fill: #0000ff; stroke: #ffffff; stroke-linejoin: miter"/>
   </g>
   <g id="patch_47">
    <path d="M 640.152 456.912 
L 731.592 456.912 
L 731.592 426.456 
L 640.152 426.456 
z
" clip-path="url(#pd97bb932cd)" style="fill: #0000ff; stroke: #ffffff; stroke-linejoin: miter"/>
   </g>
   <g id="patch_48">
    <path d="M 731.592 456.912 
L 823.032 456.912 
L 823.032 426.456 
L 731.592 426.456 
z
" clip-path="url(#pd97bb932cd)" style="fill: #a0522d; stroke: #ffffff; stroke-linejoin: miter"/>
   </g>
   <g id="patch_49">
    <path d="M 182.952 507.672 
L 274.392 507.672 
L 274.392 477.216 
L 182.952 477.216 
z
" clip-path="url(#pd97bb932cd)" style="fill: #add8e6; stroke: #ffffff; stroke-linejoin: miter"/>
   </g>
   <g id="patch_50">
    <path d="M 274.392 507.672 
L 365.832 507.672 
L 365.832 477.216 
L 274.392 477.216 
z
" clip-path="url(#pd97bb932cd)" style="fill: #bdb76b; stroke: #ffffff; stroke-linejoin: miter"/>
   </g>
   <g id="patch_51">
    <path d="M 365.832 507.672 
L 457.272 507.672 
L 457.272 477.216 
L 365.832 477.216 
z
" clip-path="url(#pd97bb932cd)" style="fill: #0000ff; stroke: #ffffff; stroke-linejoin: miter"/>
   </g>
   <g id="patch_52">
    <path d="M 457.272 507.672 
L 548.712 507.672 
L 548.712 477.216 
L 457.272 477.216 
z
" clip-path="url(#pd97bb932cd)" style="fill: #a0522d; stroke: #ffffff; stroke-linejoin: miter"/>
   </g>
   <g id="patch_53">
    <path d="M 548.712 507.672 
L 640.152 507.672 
L 640.152 477.216 
L 548.712 477.216 
z
" clip-path="url(#pd97bb932cd)" style="fill: #0000ff; stroke: #ffffff; stroke-linejoin: miter"/>
   </g>
   <g id="patch_54">
    <path d="M 640.152 507.672 
L 731.592 507.672 
L 731.592 477.216 
L 640.152 477.216 
z
" clip-path="url(#pd97bb932cd)" style="fill: #0000ff; stroke: #ffffff; stroke-linejoin: miter"/>
   </g>
   <g id="patch_55">
    <path d="M 731.592 507.672 
L 823.032 507.672 
L 823.032 477.216 
L 731.592 477.216 
z
" clip-path="url(#pd97bb932cd)" style="fill: #7b68ee; stroke: #ffffff; stroke-linejoin: miter"/>
   </g>
   <g id="patch_56">
    <path d="M 182.952 558.432 
L 274.392 558.432 
L 274.392 527.976 
L 182.952 527.976 
z
" clip-path="url(#pd97bb932cd)" style="fill: #add8e6; stroke: #ffffff; stroke-linejoin: miter"/>
   </g>
   <g id="patch_57">
    <path d="M 274.392 558.432 
L 365.832 558.432 
L 365.832 527.976 
L 274.392 527.976 
z
" clip-path="url(#pd97bb932cd)" style="fill: #bdb76b; stroke: #ffffff; stroke-linejoin: miter"/>
   </g>
   <g id="patch_58">
    <path d="M 365.832 558.432 
L 457.272 558.432 
L 457.272 527.976 
L 365.832 527.976 
z
" clip-path="url(#pd97bb932cd)" style="fill: #a0522d; stroke: #ffffff; stroke-linejoin: miter"/>
   </g>
   <g id="patch_59">
    <path d="M 457.272 558.432 
L 548.712 558.432 
L 548.712 527.976 
L 457.272 527.976 
z
" clip-path="url(#pd97bb932cd)" style="fill: #0000ff; stroke: #ffffff; stroke-linejoin: miter"/>
   </g>
   <g id="patch_60">
    <path d="M 548.712 558.432 
L 640.152 558.432 
L 640.152 527.976 
L 548.712 527.976 
z
" clip-path="url(#pd97bb932cd)" style="fill: #0000ff; stroke: #ffffff; stroke-linejoin: miter"/>
   </g>
   <g id="patch_61">
    <path d="M 640.152 558.432 
L 731.592 558.432 
L 731.592 527.976 
L 640.152 527.976 
z
" clip-path="url(#pd97bb932cd)" style="fill: #a0522d; stroke: #ffffff; stroke-linejoin: miter"/>
   </g>
   <g id="patch_62">
    <path d="M 182.952 609.192 
L 274.392 609.192 
L 274.392 578.736 
L 182.952 578.736 
z
" clip-path="url(#pd97bb932cd)" style="fill: #add8e6; stroke: #ffffff; stroke-linejoin: miter"/>
   </g>
   <g id="patch_63">
    <path d="M 274.392 609.192 
L 365.832 609.192 
L 365.832 578.736 
L 274.392 578.736 
z
" clip-path="url(#pd97bb932cd)" style="fill: #bdb76b; stroke: #ffffff; stroke-linejoin: miter"/>
   </g>
   <g id="patch_64">
    <path d="M 365.832 609.192 
L 457.272 609.192 
L 457.272 578.736 
L 365.832 578.736 
z
" clip-path="url(#pd97bb932cd)" style="fill: #adff2f; stroke: #ffffff; stroke-linejoin: miter"/>
   </g>
   <g id="patch_65">
    <path d="M 457.272 609.192 
L 548.712 609.192 
L 548.712 578.736 
L 457.272 578.736 
z
" clip-path="url(#pd97bb932cd)" style="fill: #0000ff; stroke: #ffffff; stroke-linejoin: miter"/>
   </g>
   <g id="patch_66">
    <path d="M 548.712 609.192 
L 640.152 609.192 
L 640.152 578.736 
L 548.712 578.736 
z
" clip-path="url(#pd97bb932cd)" style="fill: #a0522d; stroke: #ffffff; stroke-linejoin: miter"/>
   </g>
   <g id="patch_67">
    <path d="M 640.152 609.192 
L 731.592 609.192 
L 731.592 578.736 
L 640.152 578.736 
z
" clip-path="url(#pd97bb932cd)" style="fill: #7b68ee; stroke: #ffffff; stroke-linejoin: miter"/>
   </g>
   <g id="patch_68">
    <path d="M 182.952 659.952 
L 274.392 659.952 
L 274.392 629.496 
L 182.952 629.496 
z
" clip-path="url(#pd97bb932cd)" style="fill: #add8e6; stroke: #ffffff; stroke-linejoin: miter"/>
   </g>
   <g id="patch_69">
    <path d="M 274.392 659.952 
L 365.832 659.952 
L 365.832 629.496 
L 274.392 629.496 
z
" clip-path="url(#pd97bb932cd)" style="fill: #bdb76b; stroke: #ffffff; stroke-linejoin: miter"/>
   </g>
   <g id="patch_70">
    <path d="M 365.832 659.952 
L 457.272 659.952 
L 457.272 629.496 
L 365.832 629.496 
z
" clip-path="url(#pd97bb932cd)" style="fill: #0000ff; stroke: #ffffff; stroke-linejoin: miter"/>
   </g>
   <g id="patch_71">
    <path d="M 457.272 659.952 
L 548.712 659.952 
L 548.712 629.496 
L 457.272 629.496 
z
" clip-path="url(#pd97bb932cd)" style="fill: #a0522d; stroke: #ffffff; stroke-linejoin: miter"/>
   </g>
   <g id="patch_72">
    <path d="M 548.712 659.952 
L 640.152 659.952 
L 640.152 629.496 
L 548.712 629.496 
z
" clip-path="url(#pd97bb932cd)" style="fill: #7b68ee; stroke: #ffffff; stroke-linejoin: miter"/>
   </g>
   <g id="patch_73">
    <path d="M 640.152 659.952 
L 731.592 659.952 
L 731.592 629.496 
L 640.152 629.496 
z
" clip-path="url(#pd97bb932cd)" style="fill: #bdb76b; stroke: #ffffff; stroke-linejoin: miter"/>
   </g>
   <g id="patch_74">
    <path d="M 182.952 710.712 
L 274.392 710.712 
L 274.392 680.256 
L 182.952 680.256 
z
" clip-path="url(#pd97bb932cd)" style="fill: #add8e6; stroke: #ffffff; stroke-linejoin: miter"/>
   </g>
   <g id="patch_75">
    <path d="M 274.392 710.712 
L 365.832 710.712 
L 365.832 680.256 
L 274.392 680.256 
z
" clip-path="url(#pd97bb932cd)" style="fill: #bdb76b; stroke: #ffffff; stroke-linejoin: miter"/>
   </g>
   <g id="patch_76">
    <path d="M 365.832 710.712 
L 457.272 710.712 
L 457.272 680.256 
L 365.832 680.256 
z
" clip-path="url(#pd97bb932cd)" style="fill: #0000ff; stroke: #ffffff; stroke-linejoin: miter"/>
   </g>
   <g id="patch_77">
    <path d="M 457.272 710.712 
L 548.712 710.712 
L 548.712 680.256 
L 457.272 680.256 
z
" clip-path="url(#pd97bb932cd)" style="fill: #a0522d; stroke: #ffffff; stroke-linejoin: miter"/>
   </g>
   <g id="patch_78">
    <path d="M 548.712 710.712 
L 640.152 710.712 
L 640.152 680.256 
L 548.712 680.256 
z
" clip-path="url(#pd97bb932cd)" style="fill: #bdb76b; stroke: #ffffff; stroke-linejoin: miter"/>
   </g>
   <g id="patch_79">
    <path d="M 182.952 761.472 
L 274.392 761.472 
L 274.392 731.016 
L 182.952 731.016 
z
" clip-path="url(#pd97bb932cd)" style="fill: #add8e6; stroke: #ffffff; stroke-linejoin: miter"/>
   </g>
   <g id="patch_80">
    <path d="M 274.392 761.472 
L 365.832 761.472 
L 365.832 731.016 
L 274.392 731.016 
z
" clip-path="url(#pd97bb932cd)" style="fill: #bdb76b; stroke: #ffffff; stroke-linejoin: miter"/>
   </g>
   <g id="patch_81">
    <path d="M 365.832 761.472 
L 457.272 761.472 
L 457.272 731.016 
L 365.832 731.016 
z
" clip-path="url(#pd97bb932cd)" style="fill: #0000ff; stroke: #ffffff; stroke-linejoin: miter"/>
   </g>
   <g id="patch_82">
    <path d="M 457.272 761.472 
L 548.712 761.472 
L 548.712 731.016 
L 457.272 731.016 
z
" clip-path="url(#pd97bb932cd)" style="fill: #a0522d; stroke: #ffffff; stroke-linejoin: miter"/>
   </g>
   <g id="patch_83">
    <path d="M 548.712 761.472 
L 640.152 761.472 
L 640.152 731.016 
L 548.712 731.016 
z
" clip-path="url(#pd97bb932cd)" style="fill: #c0c0c0; stroke: #ffffff; stroke-linejoin: miter"/>
   </g>
   <g id="patch_84">
    <path d="M 640.152 761.472 
L 731.592 761.472 
L 731.592 731.016 
L 640.152 731.016 
z
" clip-path="url(#pd97bb932cd)" style="fill: #0000ff; stroke: #ffffff; stroke-linejoin: miter"/>
   </g>
   <g id="patch_85">
    <path d="M 182.952 812.232 
L 274.392 812.232 
L 274.392 781.776 
L 182.952 781.776 
z
" clip-path="url(#pd97bb932cd)" style="fill: #add8e6; stroke: #ffffff; stroke-linejoin: miter"/>
   </g>
   <g id="patch_86">
    <path d="M 274.392 812.232 
L 365.832 812.232 
L 365.832 781.776 
L 274.392 781.776 
z
" clip-path="url(#pd97bb932cd)" style="fill: #bdb76b; stroke: #ffffff; stroke-linejoin: miter"/>
   </g>
   <g id="patch_87">
    <path d="M 365.832 812.232 
L 457.272 812.232 
L 457.272 781.776 
L 365.832 781.776 
z
" clip-path="url(#pd97bb932cd)" style="fill: #adff2f; stroke: #ffffff; stroke-linejoin: miter"/>
   </g>
   <g id="patch_88">
    <path d="M 457.272 812.232 
L 548.712 812.232 
L 548.712 781.776 
L 457.272 781.776 
z
" clip-path="url(#pd97bb932cd)" style="fill: #a0522d; stroke: #ffffff; stroke-linejoin: miter"/>
   </g>
   <g id="patch_89">
    <path d="M 182.952 862.992 
L 274.392 862.992 
L 274.392 832.536 
L 182.952 832.536 
z
" clip-path="url(#pd97bb932cd)" style="fill: #add8e6; stroke: #ffffff; stroke-linejoin: miter"/>
   </g>
   <g id="patch_90">
    <path d="M 274.392 862.992 
L 365.832 862.992 
L 365.832 832.536 
L 274.392 832.536 
z
" clip-path="url(#pd97bb932cd)" style="fill: #adff2f; stroke: #ffffff; stroke-linejoin: miter"/>
   </g>
   <g id="patch_91">
    <path d="M 365.832 862.992 
L 457.272 862.992 
L 457.272 832.536 
L 365.832 832.536 
z
" clip-path="url(#pd97bb932cd)" style="fill: #a0522d; stroke: #ffffff; stroke-linejoin: miter"/>
   </g>
   <g id="patch_92">
    <path d="M 182.952 913.752 
L 274.392 913.752 
L 274.392 883.296 
L 182.952 883.296 
z
" clip-path="url(#pd97bb932cd)" style="fill: #add8e6; stroke: #ffffff; stroke-linejoin: miter"/>
   </g>
   <g id="patch_93">
    <path d="M 274.392 913.752 
L 365.832 913.752 
L 365.832 883.296 
L 274.392 883.296 
z
" clip-path="url(#pd97bb932cd)" style="fill: #a0522d; stroke: #ffffff; stroke-linejoin: miter"/>
   </g>
   <g id="patch_94">
    <path d="M 182.952 964.512 
L 274.392 964.512 
L 274.392 934.056 
L 182.952 934.056 
z
" clip-path="url(#pd97bb932cd)" style="fill: #add8e6; stroke: #ffffff; stroke-linejoin: miter"/>
   </g>
   <g id="patch_95">
    <path d="M 274.392 964.512 
L 365.832 964.512 
L 365.832 934.056 
L 274.392 934.056 
z
" clip-path="url(#pd97bb932cd)" style="fill: #c71585; stroke: #ffffff; stroke-linejoin: miter"/>
   </g>
   <g id="patch_96">
    <path d="M 365.832 964.512 
L 457.272 964.512 
L 457.272 934.056 
L 365.832 934.056 
z
" clip-path="url(#pd97bb932cd)" style="fill: #a0522d; stroke: #ffffff; stroke-linejoin: miter"/>
   </g>
   <g id="patch_97">
    <path d="M 457.272 964.512 
L 548.712 964.512 
L 548.712 934.056 
L 457.272 934.056 
z
" clip-path="url(#pd97bb932cd)" style="fill: #006400; stroke: #ffffff; stroke-linejoin: miter"/>
   </g>
   <g id="text_1">
    <!-- I -->
    <g transform="translate(225.893875 91.534312) scale(0.2 -0.2)">
     <defs>
      <path id="ArialMT-49" d="M 597 0 
L 597 4581 
L 1203 4581 
L 1203 0 
L 597 0 
z
" transform="scale(0.015625)"/>
     </defs>
     <use xlink:href="#ArialMT-49"/>
    </g>
   </g>
   <g id="text_2">
    <!-- G -->
    <g transform="translate(312.333875 91.534312) scale(0.2 -0.2)">
     <defs>
      <path id="ArialMT-47" d="M 2638 1797 
L 2638 2334 
L 4578 2338 
L 4578 638 
Q 4131 281 3656 101 
Q 3181 -78 2681 -78 
Q 2006 -78 1454 211 
Q 903 500 622 1047 
Q 341 1594 341 2269 
Q 341 2938 620 3517 
Q 900 4097 1425 4378 
Q 1950 4659 2634 4659 
Q 3131 4659 3532 4498 
Q 3934 4338 4162 4050 
Q 4391 3763 4509 3300 
L 3963 3150 
Q 3859 3500 3706 3700 
Q 3553 3900 3268 4020 
Q 2984 4141 2638 4141 
Q 2222 4141 1919 4014 
Q 1616 3888 1430 3681 
Q 1244 3475 1141 3228 
Q 966 2803 966 2306 
Q 966 1694 1177 1281 
Q 1388 869 1791 669 
Q 2194 469 2647 469 
Q 3041 469 3416 620 
Q 3791 772 3984 944 
L 3984 1797 
L 2638 1797 
z
" transform="scale(0.015625)"/>
     </defs>
     <use xlink:href="#ArialMT-47"/>
    </g>
   </g>
   <g id="text_3">
    <!-- M -->
    <g transform="translate(403.222313 91.534312) scale(0.2 -0.2)">
     <defs>
      <path id="ArialMT-4d" d="M 475 0 
L 475 4581 
L 1388 4581 
L 2472 1338 
Q 2622 884 2691 659 
Q 2769 909 2934 1394 
L 4031 4581 
L 4847 4581 
L 4847 0 
L 4263 0 
L 4263 3834 
L 2931 0 
L 2384 0 
L 1059 3900 
L 1059 0 
L 475 0 
z
" transform="scale(0.015625)"/>
     </defs>
     <use xlink:href="#ArialMT-4d"/>
    </g>
   </g>
   <g id="text_4">
    <!-- Q -->
    <g style="fill: #ffffff" transform="translate(495.213875 91.534312) scale(0.2 -0.2)">
     <defs>
      <path id="ArialMT-51" d="M 3966 491 
Q 4388 200 4744 66 
L 4566 -356 
Q 4072 -178 3581 206 
Q 3072 -78 2456 -78 
Q 1834 -78 1328 222 
Q 822 522 548 1065 
Q 275 1609 275 2291 
Q 275 2969 550 3525 
Q 825 4081 1333 4372 
Q 1841 4663 2469 4663 
Q 3103 4663 3612 4361 
Q 4122 4059 4389 3517 
Q 4656 2975 4656 2294 
Q 4656 1728 4484 1276 
Q 4313 825 3966 491 
z
M 2631 1266 
Q 3156 1119 3497 828 
Q 4031 1316 4031 2294 
Q 4031 2850 3842 3265 
Q 3653 3681 3289 3911 
Q 2925 4141 2472 4141 
Q 1794 4141 1347 3677 
Q 900 3213 900 2291 
Q 900 1397 1342 919 
Q 1784 441 2472 441 
Q 2797 441 3084 563 
Q 2800 747 2484 825 
L 2631 1266 
z
" transform="scale(0.015625)"/>
     </defs>
     <use xlink:href="#ArialMT-51"/>
    </g>
   </g>
   <g id="text_5">
    <!-- T -->
    <g style="fill: #ffffff" transform="translate(588.324188 91.534312) scale(0.2 -0.2)">
     <defs>
      <path id="ArialMT-54" d="M 1659 0 
L 1659 4041 
L 150 4041 
L 150 4581 
L 3781 4581 
L 3781 4041 
L 2266 4041 
L 2266 0 
L 1659 0 
z
" transform="scale(0.015625)"/>
     </defs>
     <use xlink:href="#ArialMT-54"/>
    </g>
   </g>
   <g id="text_6">
    <!-- ID 402 -->
    <g style="fill: #262626" transform="translate(114.886125 91.534312) scale(0.2 -0.2)">
     <defs>
      <path id="ArialMT-44" d="M 494 0 
L 494 4581 
L 2072 4581 
Q 2606 4581 2888 4516 
Q 3281 4425 3559 4188 
Q 3922 3881 4101 3404 
Q 4281 2928 4281 2316 
Q 4281 1794 4159 1391 
Q 4038 988 3847 723 
Q 3656 459 3429 307 
Q 3203 156 2883 78 
Q 2563 0 2147 0 
L 494 0 
z
M 1100 541 
L 2078 541 
Q 2531 541 2789 625 
Q 3047 709 3200 863 
Q 3416 1078 3536 1442 
Q 3656 1806 3656 2325 
Q 3656 3044 3420 3430 
Q 3184 3816 2847 3947 
Q 2603 4041 2063 4041 
L 1100 4041 
L 1100 541 
z
" transform="scale(0.015625)"/>
      <path id="ArialMT-20" transform="scale(0.015625)"/>
      <path id="ArialMT-34" d="M 2069 0 
L 2069 1097 
L 81 1097 
L 81 1613 
L 2172 4581 
L 2631 4581 
L 2631 1613 
L 3250 1613 
L 3250 1097 
L 2631 1097 
L 2631 0 
L 2069 0 
z
M 2069 1613 
L 2069 3678 
L 634 1613 
L 2069 1613 
z
" transform="scale(0.015625)"/>
      <path id="ArialMT-30" d="M 266 2259 
Q 266 3072 433 3567 
Q 600 4063 929 4331 
Q 1259 4600 1759 4600 
Q 2128 4600 2406 4451 
Q 2684 4303 2865 4023 
Q 3047 3744 3150 3342 
Q 3253 2941 3253 2259 
Q 3253 1453 3087 958 
Q 2922 463 2592 192 
Q 2263 -78 1759 -78 
Q 1097 -78 719 397 
Q 266 969 266 2259 
z
M 844 2259 
Q 844 1131 1108 757 
Q 1372 384 1759 384 
Q 2147 384 2411 759 
Q 2675 1134 2675 2259 
Q 2675 3391 2411 3762 
Q 2147 4134 1753 4134 
Q 1366 4134 1134 3806 
Q 844 3388 844 2259 
z
" transform="scale(0.015625)"/>
      <path id="ArialMT-32" d="M 3222 541 
L 3222 0 
L 194 0 
Q 188 203 259 391 
Q 375 700 629 1000 
Q 884 1300 1366 1694 
Q 2113 2306 2375 2664 
Q 2638 3022 2638 3341 
Q 2638 3675 2398 3904 
Q 2159 4134 1775 4134 
Q 1369 4134 1125 3890 
Q 881 3647 878 3216 
L 300 3275 
Q 359 3922 746 4261 
Q 1134 4600 1788 4600 
Q 2447 4600 2831 4234 
Q 3216 3869 3216 3328 
Q 3216 3053 3103 2787 
Q 2991 2522 2730 2228 
Q 2469 1934 1863 1422 
Q 1356 997 1212 845 
Q 1069 694 975 541 
L 3222 541 
z
" transform="scale(0.015625)"/>
     </defs>
     <use xlink:href="#ArialMT-49"/>
     <use xlink:href="#ArialMT-44" transform="translate(27.783203 0)"/>
     <use xlink:href="#ArialMT-20" transform="translate(100 0)"/>
     <use xlink:href="#ArialMT-34" transform="translate(127.783203 0)"/>
     <use xlink:href="#ArialMT-30" transform="translate(183.398438 0)"/>
     <use xlink:href="#ArialMT-32" transform="translate(239.013672 0)"/>
    </g>
   </g>
   <g id="text_7">
    <!-- I -->
    <g transform="translate(225.893875 142.294312) scale(0.2 -0.2)">
     <use xlink:href="#ArialMT-49"/>
    </g>
   </g>
   <g id="text_8">
    <!-- G -->
    <g transform="translate(312.333875 142.294312) scale(0.2 -0.2)">
     <use xlink:href="#ArialMT-47"/>
    </g>
   </g>
   <g id="text_9">
    <!-- M -->
    <g transform="translate(403.222313 142.294312) scale(0.2 -0.2)">
     <use xlink:href="#ArialMT-4d"/>
    </g>
   </g>
   <g id="text_10">
    <!-- Q -->
    <g style="fill: #ffffff" transform="translate(495.213875 142.294312) scale(0.2 -0.2)">
     <use xlink:href="#ArialMT-51"/>
    </g>
   </g>
   <g id="text_11">
    <!-- T -->
    <g style="fill: #ffffff" transform="translate(588.324188 142.294312) scale(0.2 -0.2)">
     <use xlink:href="#ArialMT-54"/>
    </g>
   </g>
   <g id="text_12">
    <!-- ID 418 -->
    <g style="fill: #262626" transform="translate(114.886125 142.294312) scale(0.2 -0.2)">
     <defs>
      <path id="ArialMT-31" d="M 2384 0 
L 1822 0 
L 1822 3584 
Q 1619 3391 1289 3197 
Q 959 3003 697 2906 
L 697 3450 
Q 1169 3672 1522 3987 
Q 1875 4303 2022 4600 
L 2384 4600 
L 2384 0 
z
" transform="scale(0.015625)"/>
      <path id="ArialMT-38" d="M 1131 2484 
Q 781 2613 612 2850 
Q 444 3088 444 3419 
Q 444 3919 803 4259 
Q 1163 4600 1759 4600 
Q 2359 4600 2725 4251 
Q 3091 3903 3091 3403 
Q 3091 3084 2923 2848 
Q 2756 2613 2416 2484 
Q 2838 2347 3058 2040 
Q 3278 1734 3278 1309 
Q 3278 722 2862 322 
Q 2447 -78 1769 -78 
Q 1091 -78 675 323 
Q 259 725 259 1325 
Q 259 1772 486 2073 
Q 713 2375 1131 2484 
z
M 1019 3438 
Q 1019 3113 1228 2906 
Q 1438 2700 1772 2700 
Q 2097 2700 2305 2904 
Q 2513 3109 2513 3406 
Q 2513 3716 2298 3927 
Q 2084 4138 1766 4138 
Q 1444 4138 1231 3931 
Q 1019 3725 1019 3438 
z
M 838 1322 
Q 838 1081 952 856 
Q 1066 631 1291 507 
Q 1516 384 1775 384 
Q 2178 384 2440 643 
Q 2703 903 2703 1303 
Q 2703 1709 2433 1975 
Q 2163 2241 1756 2241 
Q 1359 2241 1098 1978 
Q 838 1716 838 1322 
z
" transform="scale(0.015625)"/>
     </defs>
     <use xlink:href="#ArialMT-49"/>
     <use xlink:href="#ArialMT-44" transform="translate(27.783203 0)"/>
     <use xlink:href="#ArialMT-20" transform="translate(100 0)"/>
     <use xlink:href="#ArialMT-34" transform="translate(127.783203 0)"/>
     <use xlink:href="#ArialMT-31" transform="translate(183.398438 0)"/>
     <use xlink:href="#ArialMT-38" transform="translate(239.013672 0)"/>
    </g>
   </g>
   <g id="text_13">
    <!-- I -->
    <g transform="translate(225.893875 193.054312) scale(0.2 -0.2)">
     <use xlink:href="#ArialMT-49"/>
    </g>
   </g>
   <g id="text_14">
    <!-- G -->
    <g transform="translate(312.333875 193.054312) scale(0.2 -0.2)">
     <use xlink:href="#ArialMT-47"/>
    </g>
   </g>
   <g id="text_15">
    <!-- M -->
    <g transform="translate(403.222313 193.054312) scale(0.2 -0.2)">
     <use xlink:href="#ArialMT-4d"/>
    </g>
   </g>
   <g id="text_16">
    <!-- Q -->
    <g style="fill: #ffffff" transform="translate(495.213875 193.054312) scale(0.2 -0.2)">
     <use xlink:href="#ArialMT-51"/>
    </g>
   </g>
   <g id="text_17">
    <!-- T -->
    <g style="fill: #ffffff" transform="translate(588.324188 193.054312) scale(0.2 -0.2)">
     <use xlink:href="#ArialMT-54"/>
    </g>
   </g>
   <g id="text_18">
    <!-- J -->
    <g style="fill: #ffffff" transform="translate(680.872 193.054312) scale(0.2 -0.2)">
     <defs>
      <path id="ArialMT-4a" d="M 184 1300 
L 731 1375 
Q 753 850 928 656 
Q 1103 463 1413 463 
Q 1641 463 1806 567 
Q 1972 672 2034 851 
Q 2097 1031 2097 1425 
L 2097 4581 
L 2703 4581 
L 2703 1459 
Q 2703 884 2564 568 
Q 2425 253 2123 87 
Q 1822 -78 1416 -78 
Q 813 -78 492 269 
Q 172 616 184 1300 
z
" transform="scale(0.015625)"/>
     </defs>
     <use xlink:href="#ArialMT-4a"/>
    </g>
   </g>
   <g id="text_19">
    <!-- ID 412 -->
    <g style="fill: #262626" transform="translate(114.886125 193.054312) scale(0.2 -0.2)">
     <use xlink:href="#ArialMT-49"/>
     <use xlink:href="#ArialMT-44" transform="translate(27.783203 0)"/>
     <use xlink:href="#ArialMT-20" transform="translate(100 0)"/>
     <use xlink:href="#ArialMT-34" transform="translate(127.783203 0)"/>
     <use xlink:href="#ArialMT-31" transform="translate(183.398438 0)"/>
     <use xlink:href="#ArialMT-32" transform="translate(239.013672 0)"/>
    </g>
   </g>
   <g id="text_20">
    <!-- I -->
    <g transform="translate(225.893875 243.814312) scale(0.2 -0.2)">
     <use xlink:href="#ArialMT-49"/>
    </g>
   </g>
   <g id="text_21">
    <!-- G -->
    <g transform="translate(312.333875 243.814312) scale(0.2 -0.2)">
     <use xlink:href="#ArialMT-47"/>
    </g>
   </g>
   <g id="text_22">
    <!-- M -->
    <g transform="translate(403.222313 243.814312) scale(0.2 -0.2)">
     <use xlink:href="#ArialMT-4d"/>
    </g>
   </g>
   <g id="text_23">
    <!-- Q -->
    <g style="fill: #ffffff" transform="translate(495.213875 243.814312) scale(0.2 -0.2)">
     <use xlink:href="#ArialMT-51"/>
    </g>
   </g>
   <g id="text_24">
    <!-- T -->
    <g style="fill: #ffffff" transform="translate(588.324188 243.814312) scale(0.2 -0.2)">
     <use xlink:href="#ArialMT-54"/>
    </g>
   </g>
   <g id="text_25">
    <!-- J -->
    <g style="fill: #ffffff" transform="translate(680.872 243.814312) scale(0.2 -0.2)">
     <use xlink:href="#ArialMT-4a"/>
    </g>
   </g>
   <g id="text_26">
    <!-- ID 403 -->
    <g style="fill: #262626" transform="translate(114.886125 243.814312) scale(0.2 -0.2)">
     <defs>
      <path id="ArialMT-33" d="M 269 1209 
L 831 1284 
Q 928 806 1161 595 
Q 1394 384 1728 384 
Q 2125 384 2398 659 
Q 2672 934 2672 1341 
Q 2672 1728 2419 1979 
Q 2166 2231 1775 2231 
Q 1616 2231 1378 2169 
L 1441 2663 
Q 1497 2656 1531 2656 
Q 1891 2656 2178 2843 
Q 2466 3031 2466 3422 
Q 2466 3731 2256 3934 
Q 2047 4138 1716 4138 
Q 1388 4138 1169 3931 
Q 950 3725 888 3313 
L 325 3413 
Q 428 3978 793 4289 
Q 1159 4600 1703 4600 
Q 2078 4600 2393 4439 
Q 2709 4278 2876 4000 
Q 3044 3722 3044 3409 
Q 3044 3113 2884 2869 
Q 2725 2625 2413 2481 
Q 2819 2388 3044 2092 
Q 3269 1797 3269 1353 
Q 3269 753 2831 336 
Q 2394 -81 1725 -81 
Q 1122 -81 723 278 
Q 325 638 269 1209 
z
" transform="scale(0.015625)"/>
     </defs>
     <use xlink:href="#ArialMT-49"/>
     <use xlink:href="#ArialMT-44" transform="translate(27.783203 0)"/>
     <use xlink:href="#ArialMT-20" transform="translate(100 0)"/>
     <use xlink:href="#ArialMT-34" transform="translate(127.783203 0)"/>
     <use xlink:href="#ArialMT-30" transform="translate(183.398438 0)"/>
     <use xlink:href="#ArialMT-33" transform="translate(239.013672 0)"/>
    </g>
   </g>
   <g id="text_27">
    <!-- I -->
    <g transform="translate(225.893875 294.574312) scale(0.2 -0.2)">
     <use xlink:href="#ArialMT-49"/>
    </g>
   </g>
   <g id="text_28">
    <!-- G -->
    <g transform="translate(312.333875 294.574312) scale(0.2 -0.2)">
     <use xlink:href="#ArialMT-47"/>
    </g>
   </g>
   <g id="text_29">
    <!-- M -->
    <g transform="translate(403.222313 294.574312) scale(0.2 -0.2)">
     <use xlink:href="#ArialMT-4d"/>
    </g>
   </g>
   <g id="text_30">
    <!-- Q -->
    <g style="fill: #ffffff" transform="translate(495.213875 294.574312) scale(0.2 -0.2)">
     <use xlink:href="#ArialMT-51"/>
    </g>
   </g>
   <g id="text_31">
    <!-- T -->
    <g style="fill: #ffffff" transform="translate(588.324188 294.574312) scale(0.2 -0.2)">
     <use xlink:href="#ArialMT-54"/>
    </g>
   </g>
   <g id="text_32">
    <!-- J -->
    <g style="fill: #ffffff" transform="translate(680.872 294.574312) scale(0.2 -0.2)">
     <use xlink:href="#ArialMT-4a"/>
    </g>
   </g>
   <g id="text_33">
    <!-- ID 407 -->
    <g style="fill: #262626" transform="translate(114.886125 294.574312) scale(0.2 -0.2)">
     <defs>
      <path id="ArialMT-37" d="M 303 3981 
L 303 4522 
L 3269 4522 
L 3269 4084 
Q 2831 3619 2401 2847 
Q 1972 2075 1738 1259 
Q 1569 684 1522 0 
L 944 0 
Q 953 541 1156 1306 
Q 1359 2072 1739 2783 
Q 2119 3494 2547 3981 
L 303 3981 
z
" transform="scale(0.015625)"/>
     </defs>
     <use xlink:href="#ArialMT-49"/>
     <use xlink:href="#ArialMT-44" transform="translate(27.783203 0)"/>
     <use xlink:href="#ArialMT-20" transform="translate(100 0)"/>
     <use xlink:href="#ArialMT-34" transform="translate(127.783203 0)"/>
     <use xlink:href="#ArialMT-30" transform="translate(183.398438 0)"/>
     <use xlink:href="#ArialMT-37" transform="translate(239.013672 0)"/>
    </g>
   </g>
   <g id="text_34">
    <!-- I -->
    <g transform="translate(225.893875 345.334312) scale(0.2 -0.2)">
     <use xlink:href="#ArialMT-49"/>
    </g>
   </g>
   <g id="text_35">
    <!-- Q -->
    <g style="fill: #ffffff" transform="translate(312.333875 345.334312) scale(0.2 -0.2)">
     <use xlink:href="#ArialMT-51"/>
    </g>
   </g>
   <g id="text_36">
    <!-- Z -->
    <g transform="translate(405.444187 345.334312) scale(0.2 -0.2)">
     <defs>
      <path id="ArialMT-5a" d="M 128 0 
L 128 563 
L 2475 3497 
Q 2725 3809 2950 4041 
L 394 4041 
L 394 4581 
L 3675 4581 
L 3675 4041 
L 1103 863 
L 825 541 
L 3750 541 
L 3750 0 
L 128 0 
z
" transform="scale(0.015625)"/>
     </defs>
     <use xlink:href="#ArialMT-5a"/>
    </g>
   </g>
   <g id="text_37">
    <!-- Q -->
    <g style="fill: #ffffff" transform="translate(495.213875 345.334312) scale(0.2 -0.2)">
     <use xlink:href="#ArialMT-51"/>
    </g>
   </g>
   <g id="text_38">
    <!-- T -->
    <g style="fill: #ffffff" transform="translate(588.324188 345.334312) scale(0.2 -0.2)">
     <use xlink:href="#ArialMT-54"/>
    </g>
   </g>
   <g id="text_39">
    <!-- J -->
    <g style="fill: #ffffff" transform="translate(680.872 345.334312) scale(0.2 -0.2)">
     <use xlink:href="#ArialMT-4a"/>
    </g>
   </g>
   <g id="text_40">
    <!-- ID 410 -->
    <g style="fill: #262626" transform="translate(114.886125 345.334312) scale(0.2 -0.2)">
     <use xlink:href="#ArialMT-49"/>
     <use xlink:href="#ArialMT-44" transform="translate(27.783203 0)"/>
     <use xlink:href="#ArialMT-20" transform="translate(100 0)"/>
     <use xlink:href="#ArialMT-34" transform="translate(127.783203 0)"/>
     <use xlink:href="#ArialMT-31" transform="translate(183.398438 0)"/>
     <use xlink:href="#ArialMT-30" transform="translate(239.013672 0)"/>
    </g>
   </g>
   <g id="text_41">
    <!-- I -->
    <g transform="translate(225.893875 396.094312) scale(0.2 -0.2)">
     <use xlink:href="#ArialMT-49"/>
    </g>
   </g>
   <g id="text_42">
    <!-- Q -->
    <g style="fill: #ffffff" transform="translate(312.333875 396.094312) scale(0.2 -0.2)">
     <use xlink:href="#ArialMT-51"/>
    </g>
   </g>
   <g id="text_43">
    <!-- M -->
    <g transform="translate(403.222313 396.094312) scale(0.2 -0.2)">
     <use xlink:href="#ArialMT-4d"/>
    </g>
   </g>
   <g id="text_44">
    <!-- Q -->
    <g style="fill: #ffffff" transform="translate(495.213875 396.094312) scale(0.2 -0.2)">
     <use xlink:href="#ArialMT-51"/>
    </g>
   </g>
   <g id="text_45">
    <!-- T -->
    <g style="fill: #ffffff" transform="translate(588.324188 396.094312) scale(0.2 -0.2)">
     <use xlink:href="#ArialMT-54"/>
    </g>
   </g>
   <g id="text_46">
    <!-- J -->
    <g style="fill: #ffffff" transform="translate(680.872 396.094312) scale(0.2 -0.2)">
     <use xlink:href="#ArialMT-4a"/>
    </g>
   </g>
   <g id="text_47">
    <!-- ID 411 -->
    <g style="fill: #262626" transform="translate(116.361125 396.094312) scale(0.2 -0.2)">
     <use xlink:href="#ArialMT-49"/>
     <use xlink:href="#ArialMT-44" transform="translate(27.783203 0)"/>
     <use xlink:href="#ArialMT-20" transform="translate(100 0)"/>
     <use xlink:href="#ArialMT-34" transform="translate(127.783203 0)"/>
     <use xlink:href="#ArialMT-31" transform="translate(183.398438 0)"/>
     <use xlink:href="#ArialMT-31" transform="translate(231.638672 0)"/>
    </g>
   </g>
   <g id="text_48">
    <!-- I -->
    <g transform="translate(225.893875 446.854312) scale(0.2 -0.2)">
     <use xlink:href="#ArialMT-49"/>
    </g>
   </g>
   <g id="text_49">
    <!-- L -->
    <g transform="translate(314.551063 446.854312) scale(0.2 -0.2)">
     <defs>
      <path id="ArialMT-4c" d="M 469 0 
L 469 4581 
L 1075 4581 
L 1075 541 
L 3331 541 
L 3331 0 
L 469 0 
z
" transform="scale(0.015625)"/>
     </defs>
     <use xlink:href="#ArialMT-4c"/>
    </g>
   </g>
   <g id="text_50">
    <!-- Q -->
    <g style="fill: #ffffff" transform="translate(403.773875 446.854312) scale(0.2 -0.2)">
     <use xlink:href="#ArialMT-51"/>
    </g>
   </g>
   <g id="text_51">
    <!-- T -->
    <g style="fill: #ffffff" transform="translate(496.884188 446.854312) scale(0.2 -0.2)">
     <use xlink:href="#ArialMT-54"/>
    </g>
   </g>
   <g id="text_52">
    <!-- Q -->
    <g style="fill: #ffffff" transform="translate(586.653875 446.854312) scale(0.2 -0.2)">
     <use xlink:href="#ArialMT-51"/>
    </g>
   </g>
   <g id="text_53">
    <!-- Q -->
    <g style="fill: #ffffff" transform="translate(678.093875 446.854312) scale(0.2 -0.2)">
     <use xlink:href="#ArialMT-51"/>
    </g>
   </g>
   <g id="text_54">
    <!-- T -->
    <g style="fill: #ffffff" transform="translate(771.204188 446.854312) scale(0.2 -0.2)">
     <use xlink:href="#ArialMT-54"/>
    </g>
   </g>
   <g id="text_55">
    <!-- ID 408 -->
    <g style="fill: #262626" transform="translate(114.886125 446.854312) scale(0.2 -0.2)">
     <use xlink:href="#ArialMT-49"/>
     <use xlink:href="#ArialMT-44" transform="translate(27.783203 0)"/>
     <use xlink:href="#ArialMT-20" transform="translate(100 0)"/>
     <use xlink:href="#ArialMT-34" transform="translate(127.783203 0)"/>
     <use xlink:href="#ArialMT-30" transform="translate(183.398438 0)"/>
     <use xlink:href="#ArialMT-38" transform="translate(239.013672 0)"/>
    </g>
   </g>
   <g id="text_56">
    <!-- I -->
    <g transform="translate(225.893875 497.614312) scale(0.2 -0.2)">
     <use xlink:href="#ArialMT-49"/>
    </g>
   </g>
   <g id="text_57">
    <!-- X -->
    <g transform="translate(313.441688 497.614312) scale(0.2 -0.2)">
     <defs>
      <path id="ArialMT-58" d="M 28 0 
L 1800 2388 
L 238 4581 
L 959 4581 
L 1791 3406 
Q 2050 3041 2159 2844 
Q 2313 3094 2522 3366 
L 3444 4581 
L 4103 4581 
L 2494 2422 
L 4228 0 
L 3478 0 
L 2325 1634 
Q 2228 1775 2125 1941 
Q 1972 1691 1906 1597 
L 756 0 
L 28 0 
z
" transform="scale(0.015625)"/>
     </defs>
     <use xlink:href="#ArialMT-58"/>
    </g>
   </g>
   <g id="text_58">
    <!-- Q -->
    <g style="fill: #ffffff" transform="translate(403.773875 497.614312) scale(0.2 -0.2)">
     <use xlink:href="#ArialMT-51"/>
    </g>
   </g>
   <g id="text_59">
    <!-- T -->
    <g style="fill: #ffffff" transform="translate(496.884188 497.614312) scale(0.2 -0.2)">
     <use xlink:href="#ArialMT-54"/>
    </g>
   </g>
   <g id="text_60">
    <!-- Q -->
    <g style="fill: #ffffff" transform="translate(586.653875 497.614312) scale(0.2 -0.2)">
     <use xlink:href="#ArialMT-51"/>
    </g>
   </g>
   <g id="text_61">
    <!-- Q -->
    <g style="fill: #ffffff" transform="translate(678.093875 497.614312) scale(0.2 -0.2)">
     <use xlink:href="#ArialMT-51"/>
    </g>
   </g>
   <g id="text_62">
    <!-- J -->
    <g style="fill: #ffffff" transform="translate(772.312 497.614312) scale(0.2 -0.2)">
     <use xlink:href="#ArialMT-4a"/>
    </g>
   </g>
   <g id="text_63">
    <!-- ID 413 -->
    <g style="fill: #262626" transform="translate(114.886125 497.614312) scale(0.2 -0.2)">
     <use xlink:href="#ArialMT-49"/>
     <use xlink:href="#ArialMT-44" transform="translate(27.783203 0)"/>
     <use xlink:href="#ArialMT-20" transform="translate(100 0)"/>
     <use xlink:href="#ArialMT-34" transform="translate(127.783203 0)"/>
     <use xlink:href="#ArialMT-31" transform="translate(183.398438 0)"/>
     <use xlink:href="#ArialMT-33" transform="translate(239.013672 0)"/>
    </g>
   </g>
   <g id="text_64">
    <!-- I -->
    <g transform="translate(225.893875 548.374312) scale(0.2 -0.2)">
     <use xlink:href="#ArialMT-49"/>
    </g>
   </g>
   <g id="text_65">
    <!-- X -->
    <g transform="translate(313.441688 548.374312) scale(0.2 -0.2)">
     <use xlink:href="#ArialMT-58"/>
    </g>
   </g>
   <g id="text_66">
    <!-- T -->
    <g style="fill: #ffffff" transform="translate(405.444187 548.374312) scale(0.2 -0.2)">
     <use xlink:href="#ArialMT-54"/>
    </g>
   </g>
   <g id="text_67">
    <!-- Q -->
    <g style="fill: #ffffff" transform="translate(495.213875 548.374312) scale(0.2 -0.2)">
     <use xlink:href="#ArialMT-51"/>
    </g>
   </g>
   <g id="text_68">
    <!-- Q -->
    <g style="fill: #ffffff" transform="translate(586.653875 548.374312) scale(0.2 -0.2)">
     <use xlink:href="#ArialMT-51"/>
    </g>
   </g>
   <g id="text_69">
    <!-- T -->
    <g style="fill: #ffffff" transform="translate(679.764188 548.374312) scale(0.2 -0.2)">
     <use xlink:href="#ArialMT-54"/>
    </g>
   </g>
   <g id="text_70">
    <!-- ID 416 -->
    <g style="fill: #262626" transform="translate(114.886125 548.374312) scale(0.2 -0.2)">
     <defs>
      <path id="ArialMT-36" d="M 3184 3459 
L 2625 3416 
Q 2550 3747 2413 3897 
Q 2184 4138 1850 4138 
Q 1581 4138 1378 3988 
Q 1113 3794 959 3422 
Q 806 3050 800 2363 
Q 1003 2672 1297 2822 
Q 1591 2972 1913 2972 
Q 2475 2972 2870 2558 
Q 3266 2144 3266 1488 
Q 3266 1056 3080 686 
Q 2894 316 2569 119 
Q 2244 -78 1831 -78 
Q 1128 -78 684 439 
Q 241 956 241 2144 
Q 241 3472 731 4075 
Q 1159 4600 1884 4600 
Q 2425 4600 2770 4297 
Q 3116 3994 3184 3459 
z
M 888 1484 
Q 888 1194 1011 928 
Q 1134 663 1356 523 
Q 1578 384 1822 384 
Q 2178 384 2434 671 
Q 2691 959 2691 1453 
Q 2691 1928 2437 2201 
Q 2184 2475 1800 2475 
Q 1419 2475 1153 2201 
Q 888 1928 888 1484 
z
" transform="scale(0.015625)"/>
     </defs>
     <use xlink:href="#ArialMT-49"/>
     <use xlink:href="#ArialMT-44" transform="translate(27.783203 0)"/>
     <use xlink:href="#ArialMT-20" transform="translate(100 0)"/>
     <use xlink:href="#ArialMT-34" transform="translate(127.783203 0)"/>
     <use xlink:href="#ArialMT-31" transform="translate(183.398438 0)"/>
     <use xlink:href="#ArialMT-36" transform="translate(239.013672 0)"/>
    </g>
   </g>
   <g id="text_71">
    <!-- I -->
    <g transform="translate(225.893875 599.134312) scale(0.2 -0.2)">
     <use xlink:href="#ArialMT-49"/>
    </g>
   </g>
   <g id="text_72">
    <!-- X -->
    <g transform="translate(313.441688 599.134312) scale(0.2 -0.2)">
     <use xlink:href="#ArialMT-58"/>
    </g>
   </g>
   <g id="text_73">
    <!-- L -->
    <g transform="translate(405.991062 599.134312) scale(0.2 -0.2)">
     <use xlink:href="#ArialMT-4c"/>
    </g>
   </g>
   <g id="text_74">
    <!-- Q -->
    <g style="fill: #ffffff" transform="translate(495.213875 599.134312) scale(0.2 -0.2)">
     <use xlink:href="#ArialMT-51"/>
    </g>
   </g>
   <g id="text_75">
    <!-- T -->
    <g style="fill: #ffffff" transform="translate(588.324188 599.134312) scale(0.2 -0.2)">
     <use xlink:href="#ArialMT-54"/>
    </g>
   </g>
   <g id="text_76">
    <!-- J -->
    <g style="fill: #ffffff" transform="translate(680.872 599.134312) scale(0.2 -0.2)">
     <use xlink:href="#ArialMT-4a"/>
    </g>
   </g>
   <g id="text_77">
    <!-- ID 405 -->
    <g style="fill: #262626" transform="translate(114.886125 599.134312) scale(0.2 -0.2)">
     <defs>
      <path id="ArialMT-35" d="M 266 1200 
L 856 1250 
Q 922 819 1161 601 
Q 1400 384 1738 384 
Q 2144 384 2425 690 
Q 2706 997 2706 1503 
Q 2706 1984 2436 2262 
Q 2166 2541 1728 2541 
Q 1456 2541 1237 2417 
Q 1019 2294 894 2097 
L 366 2166 
L 809 4519 
L 3088 4519 
L 3088 3981 
L 1259 3981 
L 1013 2750 
Q 1425 3038 1878 3038 
Q 2478 3038 2890 2622 
Q 3303 2206 3303 1553 
Q 3303 931 2941 478 
Q 2500 -78 1738 -78 
Q 1113 -78 717 272 
Q 322 622 266 1200 
z
" transform="scale(0.015625)"/>
     </defs>
     <use xlink:href="#ArialMT-49"/>
     <use xlink:href="#ArialMT-44" transform="translate(27.783203 0)"/>
     <use xlink:href="#ArialMT-20" transform="translate(100 0)"/>
     <use xlink:href="#ArialMT-34" transform="translate(127.783203 0)"/>
     <use xlink:href="#ArialMT-30" transform="translate(183.398438 0)"/>
     <use xlink:href="#ArialMT-35" transform="translate(239.013672 0)"/>
    </g>
   </g>
   <g id="text_78">
    <!-- I -->
    <g transform="translate(225.893875 649.894312) scale(0.2 -0.2)">
     <use xlink:href="#ArialMT-49"/>
    </g>
   </g>
   <g id="text_79">
    <!-- X -->
    <g transform="translate(313.441688 649.894312) scale(0.2 -0.2)">
     <use xlink:href="#ArialMT-58"/>
    </g>
   </g>
   <g id="text_80">
    <!-- Q -->
    <g style="fill: #ffffff" transform="translate(403.773875 649.894312) scale(0.2 -0.2)">
     <use xlink:href="#ArialMT-51"/>
    </g>
   </g>
   <g id="text_81">
    <!-- T -->
    <g style="fill: #ffffff" transform="translate(496.884188 649.894312) scale(0.2 -0.2)">
     <use xlink:href="#ArialMT-54"/>
    </g>
   </g>
   <g id="text_82">
    <!-- J -->
    <g style="fill: #ffffff" transform="translate(589.432 649.894312) scale(0.2 -0.2)">
     <use xlink:href="#ArialMT-4a"/>
    </g>
   </g>
   <g id="text_83">
    <!-- X -->
    <g transform="translate(679.201688 649.894312) scale(0.2 -0.2)">
     <use xlink:href="#ArialMT-58"/>
    </g>
   </g>
   <g id="text_84">
    <!-- ID 417 -->
    <g style="fill: #262626" transform="translate(114.886125 649.894312) scale(0.2 -0.2)">
     <use xlink:href="#ArialMT-49"/>
     <use xlink:href="#ArialMT-44" transform="translate(27.783203 0)"/>
     <use xlink:href="#ArialMT-20" transform="translate(100 0)"/>
     <use xlink:href="#ArialMT-34" transform="translate(127.783203 0)"/>
     <use xlink:href="#ArialMT-31" transform="translate(183.398438 0)"/>
     <use xlink:href="#ArialMT-37" transform="translate(239.013672 0)"/>
    </g>
   </g>
   <g id="text_85">
    <!-- I -->
    <g transform="translate(225.893875 700.654312) scale(0.2 -0.2)">
     <use xlink:href="#ArialMT-49"/>
    </g>
   </g>
   <g id="text_86">
    <!-- X -->
    <g transform="translate(313.441688 700.654312) scale(0.2 -0.2)">
     <use xlink:href="#ArialMT-58"/>
    </g>
   </g>
   <g id="text_87">
    <!-- Q -->
    <g style="fill: #ffffff" transform="translate(403.773875 700.654312) scale(0.2 -0.2)">
     <use xlink:href="#ArialMT-51"/>
    </g>
   </g>
   <g id="text_88">
    <!-- T -->
    <g style="fill: #ffffff" transform="translate(496.884188 700.654312) scale(0.2 -0.2)">
     <use xlink:href="#ArialMT-54"/>
    </g>
   </g>
   <g id="text_89">
    <!-- X -->
    <g transform="translate(587.761688 700.654312) scale(0.2 -0.2)">
     <use xlink:href="#ArialMT-58"/>
    </g>
   </g>
   <g id="text_90">
    <!-- ID 404 -->
    <g style="fill: #262626" transform="translate(114.886125 700.654312) scale(0.2 -0.2)">
     <use xlink:href="#ArialMT-49"/>
     <use xlink:href="#ArialMT-44" transform="translate(27.783203 0)"/>
     <use xlink:href="#ArialMT-20" transform="translate(100 0)"/>
     <use xlink:href="#ArialMT-34" transform="translate(127.783203 0)"/>
     <use xlink:href="#ArialMT-30" transform="translate(183.398438 0)"/>
     <use xlink:href="#ArialMT-34" transform="translate(239.013672 0)"/>
    </g>
   </g>
   <g id="text_91">
    <!-- I -->
    <g transform="translate(225.893875 751.414312) scale(0.2 -0.2)">
     <use xlink:href="#ArialMT-49"/>
    </g>
   </g>
   <g id="text_92">
    <!-- X -->
    <g transform="translate(313.441688 751.414312) scale(0.2 -0.2)">
     <use xlink:href="#ArialMT-58"/>
    </g>
   </g>
   <g id="text_93">
    <!-- Q -->
    <g style="fill: #ffffff" transform="translate(403.773875 751.414312) scale(0.2 -0.2)">
     <use xlink:href="#ArialMT-51"/>
    </g>
   </g>
   <g id="text_94">
    <!-- T -->
    <g style="fill: #ffffff" transform="translate(496.884188 751.414312) scale(0.2 -0.2)">
     <use xlink:href="#ArialMT-54"/>
    </g>
   </g>
   <g id="text_95">
    <!-- E -->
    <g transform="translate(587.761688 751.414312) scale(0.2 -0.2)">
     <defs>
      <path id="ArialMT-45" d="M 506 0 
L 506 4581 
L 3819 4581 
L 3819 4041 
L 1113 4041 
L 1113 2638 
L 3647 2638 
L 3647 2100 
L 1113 2100 
L 1113 541 
L 3925 541 
L 3925 0 
L 506 0 
z
" transform="scale(0.015625)"/>
     </defs>
     <use xlink:href="#ArialMT-45"/>
    </g>
   </g>
   <g id="text_96">
    <!-- Q -->
    <g style="fill: #ffffff" transform="translate(678.093875 751.414312) scale(0.2 -0.2)">
     <use xlink:href="#ArialMT-51"/>
    </g>
   </g>
   <g id="text_97">
    <!-- ID 406 -->
    <g style="fill: #262626" transform="translate(114.886125 751.414312) scale(0.2 -0.2)">
     <use xlink:href="#ArialMT-49"/>
     <use xlink:href="#ArialMT-44" transform="translate(27.783203 0)"/>
     <use xlink:href="#ArialMT-20" transform="translate(100 0)"/>
     <use xlink:href="#ArialMT-34" transform="translate(127.783203 0)"/>
     <use xlink:href="#ArialMT-30" transform="translate(183.398438 0)"/>
     <use xlink:href="#ArialMT-36" transform="translate(239.013672 0)"/>
    </g>
   </g>
   <g id="text_98">
    <!-- I -->
    <g transform="translate(225.893875 802.174312) scale(0.2 -0.2)">
     <use xlink:href="#ArialMT-49"/>
    </g>
   </g>
   <g id="text_99">
    <!-- X -->
    <g transform="translate(313.441688 802.174312) scale(0.2 -0.2)">
     <use xlink:href="#ArialMT-58"/>
    </g>
   </g>
   <g id="text_100">
    <!-- L -->
    <g transform="translate(405.991062 802.174312) scale(0.2 -0.2)">
     <use xlink:href="#ArialMT-4c"/>
    </g>
   </g>
   <g id="text_101">
    <!-- T -->
    <g style="fill: #ffffff" transform="translate(496.884188 802.174312) scale(0.2 -0.2)">
     <use xlink:href="#ArialMT-54"/>
    </g>
   </g>
   <g id="text_102">
    <!-- ID 401 -->
    <g style="fill: #262626" transform="translate(114.886125 802.174312) scale(0.2 -0.2)">
     <use xlink:href="#ArialMT-49"/>
     <use xlink:href="#ArialMT-44" transform="translate(27.783203 0)"/>
     <use xlink:href="#ArialMT-20" transform="translate(100 0)"/>
     <use xlink:href="#ArialMT-34" transform="translate(127.783203 0)"/>
     <use xlink:href="#ArialMT-30" transform="translate(183.398438 0)"/>
     <use xlink:href="#ArialMT-31" transform="translate(239.013672 0)"/>
    </g>
   </g>
   <g id="text_103">
    <!-- I -->
    <g transform="translate(225.893875 852.934312) scale(0.2 -0.2)">
     <use xlink:href="#ArialMT-49"/>
    </g>
   </g>
   <g id="text_104">
    <!-- L -->
    <g transform="translate(314.551063 852.934312) scale(0.2 -0.2)">
     <use xlink:href="#ArialMT-4c"/>
    </g>
   </g>
   <g id="text_105">
    <!-- T -->
    <g style="fill: #ffffff" transform="translate(405.444187 852.934312) scale(0.2 -0.2)">
     <use xlink:href="#ArialMT-54"/>
    </g>
   </g>
   <g id="text_106">
    <!-- ID 409 -->
    <g style="fill: #262626" transform="translate(114.886125 852.934312) scale(0.2 -0.2)">
     <defs>
      <path id="ArialMT-39" d="M 350 1059 
L 891 1109 
Q 959 728 1153 556 
Q 1347 384 1650 384 
Q 1909 384 2104 503 
Q 2300 622 2425 820 
Q 2550 1019 2634 1356 
Q 2719 1694 2719 2044 
Q 2719 2081 2716 2156 
Q 2547 1888 2255 1720 
Q 1963 1553 1622 1553 
Q 1053 1553 659 1965 
Q 266 2378 266 3053 
Q 266 3750 677 4175 
Q 1088 4600 1706 4600 
Q 2153 4600 2523 4359 
Q 2894 4119 3086 3673 
Q 3278 3228 3278 2384 
Q 3278 1506 3087 986 
Q 2897 466 2520 194 
Q 2144 -78 1638 -78 
Q 1100 -78 759 220 
Q 419 519 350 1059 
z
M 2653 3081 
Q 2653 3566 2395 3850 
Q 2138 4134 1775 4134 
Q 1400 4134 1122 3828 
Q 844 3522 844 3034 
Q 844 2597 1108 2323 
Q 1372 2050 1759 2050 
Q 2150 2050 2401 2323 
Q 2653 2597 2653 3081 
z
" transform="scale(0.015625)"/>
     </defs>
     <use xlink:href="#ArialMT-49"/>
     <use xlink:href="#ArialMT-44" transform="translate(27.783203 0)"/>
     <use xlink:href="#ArialMT-20" transform="translate(100 0)"/>
     <use xlink:href="#ArialMT-34" transform="translate(127.783203 0)"/>
     <use xlink:href="#ArialMT-30" transform="translate(183.398438 0)"/>
     <use xlink:href="#ArialMT-39" transform="translate(239.013672 0)"/>
    </g>
   </g>
   <g id="text_107">
    <!-- I -->
    <g transform="translate(225.893875 903.694312) scale(0.2 -0.2)">
     <use xlink:href="#ArialMT-49"/>
    </g>
   </g>
   <g id="text_108">
    <!-- T -->
    <g style="fill: #ffffff" transform="translate(314.004188 903.694312) scale(0.2 -0.2)">
     <use xlink:href="#ArialMT-54"/>
    </g>
   </g>
   <g id="text_109">
    <!-- ID 414 -->
    <g style="fill: #262626" transform="translate(114.886125 903.694312) scale(0.2 -0.2)">
     <use xlink:href="#ArialMT-49"/>
     <use xlink:href="#ArialMT-44" transform="translate(27.783203 0)"/>
     <use xlink:href="#ArialMT-20" transform="translate(100 0)"/>
     <use xlink:href="#ArialMT-34" transform="translate(127.783203 0)"/>
     <use xlink:href="#ArialMT-31" transform="translate(183.398438 0)"/>
     <use xlink:href="#ArialMT-34" transform="translate(239.013672 0)"/>
    </g>
   </g>
   <g id="text_110">
    <!-- I -->
    <g transform="translate(225.893875 954.454312) scale(0.2 -0.2)">
     <use xlink:href="#ArialMT-49"/>
    </g>
   </g>
   <g id="text_111">
    <!-- D -->
    <g style="fill: #ffffff" transform="translate(312.890125 954.454312) scale(0.2 -0.2)">
     <use xlink:href="#ArialMT-44"/>
    </g>
   </g>
   <g id="text_112">
    <!-- T -->
    <g style="fill: #ffffff" transform="translate(405.444187 954.454312) scale(0.2 -0.2)">
     <use xlink:href="#ArialMT-54"/>
    </g>
   </g>
   <g id="text_113">
    <!-- O -->
    <g style="fill: #ffffff" transform="translate(495.213875 954.454312) scale(0.2 -0.2)">
     <defs>
      <path id="ArialMT-4f" d="M 309 2231 
Q 309 3372 921 4017 
Q 1534 4663 2503 4663 
Q 3138 4663 3647 4359 
Q 4156 4056 4423 3514 
Q 4691 2972 4691 2284 
Q 4691 1588 4409 1038 
Q 4128 488 3612 205 
Q 3097 -78 2500 -78 
Q 1853 -78 1343 234 
Q 834 547 571 1087 
Q 309 1628 309 2231 
z
M 934 2222 
Q 934 1394 1379 917 
Q 1825 441 2497 441 
Q 3181 441 3623 922 
Q 4066 1403 4066 2288 
Q 4066 2847 3877 3264 
Q 3688 3681 3323 3911 
Q 2959 4141 2506 4141 
Q 1863 4141 1398 3698 
Q 934 3256 934 2222 
z
" transform="scale(0.015625)"/>
     </defs>
     <use xlink:href="#ArialMT-4f"/>
    </g>
   </g>
   <g id="text_114">
    <!-- ID 415 -->
    <g style="fill: #262626" transform="translate(114.886125 954.454312) scale(0.2 -0.2)">
     <use xlink:href="#ArialMT-49"/>
     <use xlink:href="#ArialMT-44" transform="translate(27.783203 0)"/>
     <use xlink:href="#ArialMT-20" transform="translate(100 0)"/>
     <use xlink:href="#ArialMT-34" transform="translate(127.783203 0)"/>
     <use xlink:href="#ArialMT-31" transform="translate(183.398438 0)"/>
     <use xlink:href="#ArialMT-35" transform="translate(239.013672 0)"/>
    </g>
   </g>
  </g>
 </g>
 <defs>
  <clipPath id="pd97bb932cd">
   <rect x="0.072" y="0.072" width="914.4" height="1015.2"/>
  </clipPath>
 </defs>
</svg>
