<?xml version="1.0" encoding="utf-8" standalone="no"?>
<!DOCTYPE svg PUBLIC "-//W3C//DTD SVG 1.1//EN"
  "http://www.w3.org/Graphics/SVG/1.1/DTD/svg11.dtd">
<svg xmlns:xlink="http://www.w3.org/1999/xlink" width="1490.544pt" height="1072.944pt" viewBox="0 0 1490.544 1072.944" xmlns="http://www.w3.org/2000/svg" version="1.1">
 <metadata>
  <rdf:RDF xmlns:dc="http://purl.org/dc/elements/1.1/" xmlns:cc="http://creativecommons.org/ns#" xmlns:rdf="http://www.w3.org/1999/02/22-rdf-syntax-ns#">
   <cc:Work>
    <dc:type rdf:resource="http://purl.org/dc/dcmitype/StillImage"/>
    <dc:date>2025-05-06T22:08:07.728732</dc:date>
    <dc:format>image/svg+xml</dc:format>
    <dc:creator>
     <cc:Agent>
      <dc:title>Matplotlib v3.10.1, https://matplotlib.org/</dc:title>
     </cc:Agent>
    </dc:creator>
   </cc:Work>
  </rdf:RDF>
 </metadata>
 <defs>
  <style type="text/css">*{stroke-linejoin: round; stroke-linecap: butt}</style>
 </defs>
 <g id="figure_1">
  <g id="patch_1">
   <path d="M 0 1072.944 
L 1490.544 1072.944 
L 1490.544 0 
L 0 0 
z
" style="fill: #ffffff"/>
  </g>
  <g id="axes_1">
   <g id="patch_2">
    <path d="M 165.672 102.243429 
L 248.472 102.243429 
L 248.472 71.592 
L 165.672 71.592 
z
" clip-path="url(#pe0c2ce50fe)" style="fill: #add8e6; stroke: #ffffff; stroke-linejoin: miter"/>
   </g>
   <g id="patch_3">
    <path d="M 248.472 102.243429 
L 331.272 102.243429 
L 331.272 71.592 
L 248.472 71.592 
z
" clip-path="url(#pe0c2ce50fe)" style="fill: #ff69b4; stroke: #ffffff; stroke-linejoin: miter"/>
   </g>
   <g id="patch_4">
    <path d="M 331.272 102.243429 
L 414.072 102.243429 
L 414.072 71.592 
L 331.272 71.592 
z
" clip-path="url(#pe0c2ce50fe)" style="fill: #ff8c00; stroke: #ffffff; stroke-linejoin: miter"/>
   </g>
   <g id="patch_5">
    <path d="M 414.072 102.243429 
L 496.872 102.243429 
L 496.872 71.592 
L 414.072 71.592 
z
" clip-path="url(#pe0c2ce50fe)" style="fill: #0000ff; stroke: #ffffff; stroke-linejoin: miter"/>
   </g>
   <g id="patch_6">
    <path d="M 496.872 102.243429 
L 579.672 102.243429 
L 579.672 71.592 
L 496.872 71.592 
z
" clip-path="url(#pe0c2ce50fe)" style="fill: #a0522d; stroke: #ffffff; stroke-linejoin: miter"/>
   </g>
   <g id="patch_7">
    <path d="M 579.672 102.243429 
L 662.472 102.243429 
L 662.472 71.592 
L 579.672 71.592 
z
" clip-path="url(#pe0c2ce50fe)" style="fill: #a0522d; stroke: #ffffff; stroke-linejoin: miter"/>
   </g>
   <g id="patch_8">
    <path d="M 662.472 102.243429 
L 745.272 102.243429 
L 745.272 71.592 
L 662.472 71.592 
z
" clip-path="url(#pe0c2ce50fe)" style="fill: #ff8c00; stroke: #ffffff; stroke-linejoin: miter"/>
   </g>
   <g id="patch_9">
    <path d="M 745.272 102.243429 
L 828.072 102.243429 
L 828.072 71.592 
L 745.272 71.592 
z
" clip-path="url(#pe0c2ce50fe)" style="fill: #00ffff; stroke: #ffffff; stroke-linejoin: miter"/>
   </g>
   <g id="patch_10">
    <path d="M 828.072 102.243429 
L 910.872 102.243429 
L 910.872 71.592 
L 828.072 71.592 
z
" clip-path="url(#pe0c2ce50fe)" style="fill: #f0fff0; stroke: #ffffff; stroke-linejoin: miter"/>
   </g>
   <g id="patch_11">
    <path d="M 910.872 102.243429 
L 993.672 102.243429 
L 993.672 71.592 
L 910.872 71.592 
z
" clip-path="url(#pe0c2ce50fe)" style="fill: #ff8c00; stroke: #ffffff; stroke-linejoin: miter"/>
   </g>
   <g id="patch_12">
    <path d="M 993.672 102.243429 
L 1076.472 102.243429 
L 1076.472 71.592 
L 993.672 71.592 
z
" clip-path="url(#pe0c2ce50fe)" style="fill: #00ffff; stroke: #ffffff; stroke-linejoin: miter"/>
   </g>
   <g id="patch_13">
    <path d="M 1076.472 102.243429 
L 1159.272 102.243429 
L 1159.272 71.592 
L 1076.472 71.592 
z
" clip-path="url(#pe0c2ce50fe)" style="fill: #7b68ee; stroke: #ffffff; stroke-linejoin: miter"/>
   </g>
   <g id="patch_14">
    <path d="M 1159.272 102.243429 
L 1242.072 102.243429 
L 1242.072 71.592 
L 1159.272 71.592 
z
" clip-path="url(#pe0c2ce50fe)" style="fill: #40e0d0; stroke: #ffffff; stroke-linejoin: miter"/>
   </g>
   <g id="patch_15">
    <path d="M 165.672 153.329143 
L 248.472 153.329143 
L 248.472 122.677714 
L 165.672 122.677714 
z
" clip-path="url(#pe0c2ce50fe)" style="fill: #add8e6; stroke: #ffffff; stroke-linejoin: miter"/>
   </g>
   <g id="patch_16">
    <path d="M 248.472 153.329143 
L 331.272 153.329143 
L 331.272 122.677714 
L 248.472 122.677714 
z
" clip-path="url(#pe0c2ce50fe)" style="fill: #ff69b4; stroke: #ffffff; stroke-linejoin: miter"/>
   </g>
   <g id="patch_17">
    <path d="M 331.272 153.329143 
L 414.072 153.329143 
L 414.072 122.677714 
L 331.272 122.677714 
z
" clip-path="url(#pe0c2ce50fe)" style="fill: #ff8c00; stroke: #ffffff; stroke-linejoin: miter"/>
   </g>
   <g id="patch_18">
    <path d="M 414.072 153.329143 
L 496.872 153.329143 
L 496.872 122.677714 
L 414.072 122.677714 
z
" clip-path="url(#pe0c2ce50fe)" style="fill: #0000ff; stroke: #ffffff; stroke-linejoin: miter"/>
   </g>
   <g id="patch_19">
    <path d="M 496.872 153.329143 
L 579.672 153.329143 
L 579.672 122.677714 
L 496.872 122.677714 
z
" clip-path="url(#pe0c2ce50fe)" style="fill: #a0522d; stroke: #ffffff; stroke-linejoin: miter"/>
   </g>
   <g id="patch_20">
    <path d="M 579.672 153.329143 
L 662.472 153.329143 
L 662.472 122.677714 
L 579.672 122.677714 
z
" clip-path="url(#pe0c2ce50fe)" style="fill: #a0522d; stroke: #ffffff; stroke-linejoin: miter"/>
   </g>
   <g id="patch_21">
    <path d="M 662.472 153.329143 
L 745.272 153.329143 
L 745.272 122.677714 
L 662.472 122.677714 
z
" clip-path="url(#pe0c2ce50fe)" style="fill: #ffd700; stroke: #ffffff; stroke-linejoin: miter"/>
   </g>
   <g id="patch_22">
    <path d="M 745.272 153.329143 
L 828.072 153.329143 
L 828.072 122.677714 
L 745.272 122.677714 
z
" clip-path="url(#pe0c2ce50fe)" style="fill: #a0522d; stroke: #ffffff; stroke-linejoin: miter"/>
   </g>
   <g id="patch_23">
    <path d="M 165.672 204.414857 
L 248.472 204.414857 
L 248.472 173.763429 
L 165.672 173.763429 
z
" clip-path="url(#pe0c2ce50fe)" style="fill: #add8e6; stroke: #ffffff; stroke-linejoin: miter"/>
   </g>
   <g id="patch_24">
    <path d="M 248.472 204.414857 
L 331.272 204.414857 
L 331.272 173.763429 
L 248.472 173.763429 
z
" clip-path="url(#pe0c2ce50fe)" style="fill: #ff69b4; stroke: #ffffff; stroke-linejoin: miter"/>
   </g>
   <g id="patch_25">
    <path d="M 331.272 204.414857 
L 414.072 204.414857 
L 414.072 173.763429 
L 331.272 173.763429 
z
" clip-path="url(#pe0c2ce50fe)" style="fill: #ff8c00; stroke: #ffffff; stroke-linejoin: miter"/>
   </g>
   <g id="patch_26">
    <path d="M 414.072 204.414857 
L 496.872 204.414857 
L 496.872 173.763429 
L 414.072 173.763429 
z
" clip-path="url(#pe0c2ce50fe)" style="fill: #0000ff; stroke: #ffffff; stroke-linejoin: miter"/>
   </g>
   <g id="patch_27">
    <path d="M 496.872 204.414857 
L 579.672 204.414857 
L 579.672 173.763429 
L 496.872 173.763429 
z
" clip-path="url(#pe0c2ce50fe)" style="fill: #a0522d; stroke: #ffffff; stroke-linejoin: miter"/>
   </g>
   <g id="patch_28">
    <path d="M 579.672 204.414857 
L 662.472 204.414857 
L 662.472 173.763429 
L 579.672 173.763429 
z
" clip-path="url(#pe0c2ce50fe)" style="fill: #ffd700; stroke: #ffffff; stroke-linejoin: miter"/>
   </g>
   <g id="patch_29">
    <path d="M 662.472 204.414857 
L 745.272 204.414857 
L 745.272 173.763429 
L 662.472 173.763429 
z
" clip-path="url(#pe0c2ce50fe)" style="fill: #a0522d; stroke: #ffffff; stroke-linejoin: miter"/>
   </g>
   <g id="patch_30">
    <path d="M 165.672 255.500571 
L 248.472 255.500571 
L 248.472 224.849143 
L 165.672 224.849143 
z
" clip-path="url(#pe0c2ce50fe)" style="fill: #add8e6; stroke: #ffffff; stroke-linejoin: miter"/>
   </g>
   <g id="patch_31">
    <path d="M 248.472 255.500571 
L 331.272 255.500571 
L 331.272 224.849143 
L 248.472 224.849143 
z
" clip-path="url(#pe0c2ce50fe)" style="fill: #ff69b4; stroke: #ffffff; stroke-linejoin: miter"/>
   </g>
   <g id="patch_32">
    <path d="M 331.272 255.500571 
L 414.072 255.500571 
L 414.072 224.849143 
L 331.272 224.849143 
z
" clip-path="url(#pe0c2ce50fe)" style="fill: #ff8c00; stroke: #ffffff; stroke-linejoin: miter"/>
   </g>
   <g id="patch_33">
    <path d="M 414.072 255.500571 
L 496.872 255.500571 
L 496.872 224.849143 
L 414.072 224.849143 
z
" clip-path="url(#pe0c2ce50fe)" style="fill: #0000ff; stroke: #ffffff; stroke-linejoin: miter"/>
   </g>
   <g id="patch_34">
    <path d="M 496.872 255.500571 
L 579.672 255.500571 
L 579.672 224.849143 
L 496.872 224.849143 
z
" clip-path="url(#pe0c2ce50fe)" style="fill: #a0522d; stroke: #ffffff; stroke-linejoin: miter"/>
   </g>
   <g id="patch_35">
    <path d="M 579.672 255.500571 
L 662.472 255.500571 
L 662.472 224.849143 
L 579.672 224.849143 
z
" clip-path="url(#pe0c2ce50fe)" style="fill: #a0522d; stroke: #ffffff; stroke-linejoin: miter"/>
   </g>
   <g id="patch_36">
    <path d="M 662.472 255.500571 
L 745.272 255.500571 
L 745.272 224.849143 
L 662.472 224.849143 
z
" clip-path="url(#pe0c2ce50fe)" style="fill: #0000ff; stroke: #ffffff; stroke-linejoin: miter"/>
   </g>
   <g id="patch_37">
    <path d="M 745.272 255.500571 
L 828.072 255.500571 
L 828.072 224.849143 
L 745.272 224.849143 
z
" clip-path="url(#pe0c2ce50fe)" style="fill: #a0522d; stroke: #ffffff; stroke-linejoin: miter"/>
   </g>
   <g id="patch_38">
    <path d="M 828.072 255.500571 
L 910.872 255.500571 
L 910.872 224.849143 
L 828.072 224.849143 
z
" clip-path="url(#pe0c2ce50fe)" style="fill: #ff69b4; stroke: #ffffff; stroke-linejoin: miter"/>
   </g>
   <g id="patch_39">
    <path d="M 910.872 255.500571 
L 993.672 255.500571 
L 993.672 224.849143 
L 910.872 224.849143 
z
" clip-path="url(#pe0c2ce50fe)" style="fill: #ffff00; stroke: #ffffff; stroke-linejoin: miter"/>
   </g>
   <g id="patch_40">
    <path d="M 993.672 255.500571 
L 1076.472 255.500571 
L 1076.472 224.849143 
L 993.672 224.849143 
z
" clip-path="url(#pe0c2ce50fe)" style="fill: #0000ff; stroke: #ffffff; stroke-linejoin: miter"/>
   </g>
   <g id="patch_41">
    <path d="M 1076.472 255.500571 
L 1159.272 255.500571 
L 1159.272 224.849143 
L 1076.472 224.849143 
z
" clip-path="url(#pe0c2ce50fe)" style="fill: #7b68ee; stroke: #ffffff; stroke-linejoin: miter"/>
   </g>
   <g id="patch_42">
    <path d="M 165.672 306.586286 
L 248.472 306.586286 
L 248.472 275.934857 
L 165.672 275.934857 
z
" clip-path="url(#pe0c2ce50fe)" style="fill: #add8e6; stroke: #ffffff; stroke-linejoin: miter"/>
   </g>
   <g id="patch_43">
    <path d="M 248.472 306.586286 
L 331.272 306.586286 
L 331.272 275.934857 
L 248.472 275.934857 
z
" clip-path="url(#pe0c2ce50fe)" style="fill: #ff69b4; stroke: #ffffff; stroke-linejoin: miter"/>
   </g>
   <g id="patch_44">
    <path d="M 331.272 306.586286 
L 414.072 306.586286 
L 414.072 275.934857 
L 331.272 275.934857 
z
" clip-path="url(#pe0c2ce50fe)" style="fill: #ff8c00; stroke: #ffffff; stroke-linejoin: miter"/>
   </g>
   <g id="patch_45">
    <path d="M 414.072 306.586286 
L 496.872 306.586286 
L 496.872 275.934857 
L 414.072 275.934857 
z
" clip-path="url(#pe0c2ce50fe)" style="fill: #0000ff; stroke: #ffffff; stroke-linejoin: miter"/>
   </g>
   <g id="patch_46">
    <path d="M 496.872 306.586286 
L 579.672 306.586286 
L 579.672 275.934857 
L 496.872 275.934857 
z
" clip-path="url(#pe0c2ce50fe)" style="fill: #a0522d; stroke: #ffffff; stroke-linejoin: miter"/>
   </g>
   <g id="patch_47">
    <path d="M 579.672 306.586286 
L 662.472 306.586286 
L 662.472 275.934857 
L 579.672 275.934857 
z
" clip-path="url(#pe0c2ce50fe)" style="fill: #a0522d; stroke: #ffffff; stroke-linejoin: miter"/>
   </g>
   <g id="patch_48">
    <path d="M 662.472 306.586286 
L 745.272 306.586286 
L 745.272 275.934857 
L 662.472 275.934857 
z
" clip-path="url(#pe0c2ce50fe)" style="fill: #0000ff; stroke: #ffffff; stroke-linejoin: miter"/>
   </g>
   <g id="patch_49">
    <path d="M 745.272 306.586286 
L 828.072 306.586286 
L 828.072 275.934857 
L 745.272 275.934857 
z
" clip-path="url(#pe0c2ce50fe)" style="fill: #a0522d; stroke: #ffffff; stroke-linejoin: miter"/>
   </g>
   <g id="patch_50">
    <path d="M 828.072 306.586286 
L 910.872 306.586286 
L 910.872 275.934857 
L 828.072 275.934857 
z
" clip-path="url(#pe0c2ce50fe)" style="fill: #0000ff; stroke: #ffffff; stroke-linejoin: miter"/>
   </g>
   <g id="patch_51">
    <path d="M 910.872 306.586286 
L 993.672 306.586286 
L 993.672 275.934857 
L 910.872 275.934857 
z
" clip-path="url(#pe0c2ce50fe)" style="fill: #a0522d; stroke: #ffffff; stroke-linejoin: miter"/>
   </g>
   <g id="patch_52">
    <path d="M 993.672 306.586286 
L 1076.472 306.586286 
L 1076.472 275.934857 
L 993.672 275.934857 
z
" clip-path="url(#pe0c2ce50fe)" style="fill: #0000ff; stroke: #ffffff; stroke-linejoin: miter"/>
   </g>
   <g id="patch_53">
    <path d="M 1076.472 306.586286 
L 1159.272 306.586286 
L 1159.272 275.934857 
L 1076.472 275.934857 
z
" clip-path="url(#pe0c2ce50fe)" style="fill: #7b68ee; stroke: #ffffff; stroke-linejoin: miter"/>
   </g>
   <g id="patch_54">
    <path d="M 1159.272 306.586286 
L 1242.072 306.586286 
L 1242.072 275.934857 
L 1159.272 275.934857 
z
" clip-path="url(#pe0c2ce50fe)" style="fill: #ff8c00; stroke: #ffffff; stroke-linejoin: miter"/>
   </g>
   <g id="patch_55">
    <path d="M 1242.072 306.586286 
L 1324.872 306.586286 
L 1324.872 275.934857 
L 1242.072 275.934857 
z
" clip-path="url(#pe0c2ce50fe)" style="fill: #0000ff; stroke: #ffffff; stroke-linejoin: miter"/>
   </g>
   <g id="patch_56">
    <path d="M 1324.872 306.586286 
L 1407.672 306.586286 
L 1407.672 275.934857 
L 1324.872 275.934857 
z
" clip-path="url(#pe0c2ce50fe)" style="fill: #00ff7f; stroke: #ffffff; stroke-linejoin: miter"/>
   </g>
   <g id="patch_57">
    <path d="M 165.672 357.672 
L 248.472 357.672 
L 248.472 327.020571 
L 165.672 327.020571 
z
" clip-path="url(#pe0c2ce50fe)" style="fill: #add8e6; stroke: #ffffff; stroke-linejoin: miter"/>
   </g>
   <g id="patch_58">
    <path d="M 248.472 357.672 
L 331.272 357.672 
L 331.272 327.020571 
L 248.472 327.020571 
z
" clip-path="url(#pe0c2ce50fe)" style="fill: #ff69b4; stroke: #ffffff; stroke-linejoin: miter"/>
   </g>
   <g id="patch_59">
    <path d="M 331.272 357.672 
L 414.072 357.672 
L 414.072 327.020571 
L 331.272 327.020571 
z
" clip-path="url(#pe0c2ce50fe)" style="fill: #ff8c00; stroke: #ffffff; stroke-linejoin: miter"/>
   </g>
   <g id="patch_60">
    <path d="M 414.072 357.672 
L 496.872 357.672 
L 496.872 327.020571 
L 414.072 327.020571 
z
" clip-path="url(#pe0c2ce50fe)" style="fill: #0000ff; stroke: #ffffff; stroke-linejoin: miter"/>
   </g>
   <g id="patch_61">
    <path d="M 496.872 357.672 
L 579.672 357.672 
L 579.672 327.020571 
L 496.872 327.020571 
z
" clip-path="url(#pe0c2ce50fe)" style="fill: #a0522d; stroke: #ffffff; stroke-linejoin: miter"/>
   </g>
   <g id="patch_62">
    <path d="M 165.672 408.757714 
L 248.472 408.757714 
L 248.472 378.106286 
L 165.672 378.106286 
z
" clip-path="url(#pe0c2ce50fe)" style="fill: #add8e6; stroke: #ffffff; stroke-linejoin: miter"/>
   </g>
   <g id="patch_63">
    <path d="M 248.472 408.757714 
L 331.272 408.757714 
L 331.272 378.106286 
L 248.472 378.106286 
z
" clip-path="url(#pe0c2ce50fe)" style="fill: #ff69b4; stroke: #ffffff; stroke-linejoin: miter"/>
   </g>
   <g id="patch_64">
    <path d="M 331.272 408.757714 
L 414.072 408.757714 
L 414.072 378.106286 
L 331.272 378.106286 
z
" clip-path="url(#pe0c2ce50fe)" style="fill: #ff8c00; stroke: #ffffff; stroke-linejoin: miter"/>
   </g>
   <g id="patch_65">
    <path d="M 414.072 408.757714 
L 496.872 408.757714 
L 496.872 378.106286 
L 414.072 378.106286 
z
" clip-path="url(#pe0c2ce50fe)" style="fill: #0000ff; stroke: #ffffff; stroke-linejoin: miter"/>
   </g>
   <g id="patch_66">
    <path d="M 496.872 408.757714 
L 579.672 408.757714 
L 579.672 378.106286 
L 496.872 378.106286 
z
" clip-path="url(#pe0c2ce50fe)" style="fill: #a0522d; stroke: #ffffff; stroke-linejoin: miter"/>
   </g>
   <g id="patch_67">
    <path d="M 579.672 408.757714 
L 662.472 408.757714 
L 662.472 378.106286 
L 579.672 378.106286 
z
" clip-path="url(#pe0c2ce50fe)" style="fill: #a0522d; stroke: #ffffff; stroke-linejoin: miter"/>
   </g>
   <g id="patch_68">
    <path d="M 165.672 459.843429 
L 248.472 459.843429 
L 248.472 429.192 
L 165.672 429.192 
z
" clip-path="url(#pe0c2ce50fe)" style="fill: #add8e6; stroke: #ffffff; stroke-linejoin: miter"/>
   </g>
   <g id="patch_69">
    <path d="M 248.472 459.843429 
L 331.272 459.843429 
L 331.272 429.192 
L 248.472 429.192 
z
" clip-path="url(#pe0c2ce50fe)" style="fill: #ff69b4; stroke: #ffffff; stroke-linejoin: miter"/>
   </g>
   <g id="patch_70">
    <path d="M 331.272 459.843429 
L 414.072 459.843429 
L 414.072 429.192 
L 331.272 429.192 
z
" clip-path="url(#pe0c2ce50fe)" style="fill: #ff8c00; stroke: #ffffff; stroke-linejoin: miter"/>
   </g>
   <g id="patch_71">
    <path d="M 414.072 459.843429 
L 496.872 459.843429 
L 496.872 429.192 
L 414.072 429.192 
z
" clip-path="url(#pe0c2ce50fe)" style="fill: #0000ff; stroke: #ffffff; stroke-linejoin: miter"/>
   </g>
   <g id="patch_72">
    <path d="M 496.872 459.843429 
L 579.672 459.843429 
L 579.672 429.192 
L 496.872 429.192 
z
" clip-path="url(#pe0c2ce50fe)" style="fill: #a0522d; stroke: #ffffff; stroke-linejoin: miter"/>
   </g>
   <g id="patch_73">
    <path d="M 579.672 459.843429 
L 662.472 459.843429 
L 662.472 429.192 
L 579.672 429.192 
z
" clip-path="url(#pe0c2ce50fe)" style="fill: #a0522d; stroke: #ffffff; stroke-linejoin: miter"/>
   </g>
   <g id="patch_74">
    <path d="M 662.472 459.843429 
L 745.272 459.843429 
L 745.272 429.192 
L 662.472 429.192 
z
" clip-path="url(#pe0c2ce50fe)" style="fill: #0000ff; stroke: #ffffff; stroke-linejoin: miter"/>
   </g>
   <g id="patch_75">
    <path d="M 745.272 459.843429 
L 828.072 459.843429 
L 828.072 429.192 
L 745.272 429.192 
z
" clip-path="url(#pe0c2ce50fe)" style="fill: #a0522d; stroke: #ffffff; stroke-linejoin: miter"/>
   </g>
   <g id="patch_76">
    <path d="M 828.072 459.843429 
L 910.872 459.843429 
L 910.872 429.192 
L 828.072 429.192 
z
" clip-path="url(#pe0c2ce50fe)" style="fill: #7b68ee; stroke: #ffffff; stroke-linejoin: miter"/>
   </g>
   <g id="patch_77">
    <path d="M 910.872 459.843429 
L 993.672 459.843429 
L 993.672 429.192 
L 910.872 429.192 
z
" clip-path="url(#pe0c2ce50fe)" style="fill: #7b68ee; stroke: #ffffff; stroke-linejoin: miter"/>
   </g>
   <g id="patch_78">
    <path d="M 993.672 459.843429 
L 1076.472 459.843429 
L 1076.472 429.192 
L 993.672 429.192 
z
" clip-path="url(#pe0c2ce50fe)" style="fill: #7b68ee; stroke: #ffffff; stroke-linejoin: miter"/>
   </g>
   <g id="patch_79">
    <path d="M 165.672 510.929143 
L 248.472 510.929143 
L 248.472 480.277714 
L 165.672 480.277714 
z
" clip-path="url(#pe0c2ce50fe)" style="fill: #add8e6; stroke: #ffffff; stroke-linejoin: miter"/>
   </g>
   <g id="patch_80">
    <path d="M 248.472 510.929143 
L 331.272 510.929143 
L 331.272 480.277714 
L 248.472 480.277714 
z
" clip-path="url(#pe0c2ce50fe)" style="fill: #ff69b4; stroke: #ffffff; stroke-linejoin: miter"/>
   </g>
   <g id="patch_81">
    <path d="M 331.272 510.929143 
L 414.072 510.929143 
L 414.072 480.277714 
L 331.272 480.277714 
z
" clip-path="url(#pe0c2ce50fe)" style="fill: #ff8c00; stroke: #ffffff; stroke-linejoin: miter"/>
   </g>
   <g id="patch_82">
    <path d="M 414.072 510.929143 
L 496.872 510.929143 
L 496.872 480.277714 
L 414.072 480.277714 
z
" clip-path="url(#pe0c2ce50fe)" style="fill: #0000ff; stroke: #ffffff; stroke-linejoin: miter"/>
   </g>
   <g id="patch_83">
    <path d="M 496.872 510.929143 
L 579.672 510.929143 
L 579.672 480.277714 
L 496.872 480.277714 
z
" clip-path="url(#pe0c2ce50fe)" style="fill: #a0522d; stroke: #ffffff; stroke-linejoin: miter"/>
   </g>
   <g id="patch_84">
    <path d="M 579.672 510.929143 
L 662.472 510.929143 
L 662.472 480.277714 
L 579.672 480.277714 
z
" clip-path="url(#pe0c2ce50fe)" style="fill: #a0522d; stroke: #ffffff; stroke-linejoin: miter"/>
   </g>
   <g id="patch_85">
    <path d="M 662.472 510.929143 
L 745.272 510.929143 
L 745.272 480.277714 
L 662.472 480.277714 
z
" clip-path="url(#pe0c2ce50fe)" style="fill: #0000ff; stroke: #ffffff; stroke-linejoin: miter"/>
   </g>
   <g id="patch_86">
    <path d="M 745.272 510.929143 
L 828.072 510.929143 
L 828.072 480.277714 
L 745.272 480.277714 
z
" clip-path="url(#pe0c2ce50fe)" style="fill: #006400; stroke: #ffffff; stroke-linejoin: miter"/>
   </g>
   <g id="patch_87">
    <path d="M 165.672 562.014857 
L 248.472 562.014857 
L 248.472 531.363429 
L 165.672 531.363429 
z
" clip-path="url(#pe0c2ce50fe)" style="fill: #0000ff; stroke: #ffffff; stroke-linejoin: miter"/>
   </g>
   <g id="patch_88">
    <path d="M 248.472 562.014857 
L 331.272 562.014857 
L 331.272 531.363429 
L 248.472 531.363429 
z
" clip-path="url(#pe0c2ce50fe)" style="fill: #add8e6; stroke: #ffffff; stroke-linejoin: miter"/>
   </g>
   <g id="patch_89">
    <path d="M 331.272 562.014857 
L 414.072 562.014857 
L 414.072 531.363429 
L 331.272 531.363429 
z
" clip-path="url(#pe0c2ce50fe)" style="fill: #ff69b4; stroke: #ffffff; stroke-linejoin: miter"/>
   </g>
   <g id="patch_90">
    <path d="M 414.072 562.014857 
L 496.872 562.014857 
L 496.872 531.363429 
L 414.072 531.363429 
z
" clip-path="url(#pe0c2ce50fe)" style="fill: #ff8c00; stroke: #ffffff; stroke-linejoin: miter"/>
   </g>
   <g id="patch_91">
    <path d="M 496.872 562.014857 
L 579.672 562.014857 
L 579.672 531.363429 
L 496.872 531.363429 
z
" clip-path="url(#pe0c2ce50fe)" style="fill: #ffe4b5; stroke: #ffffff; stroke-linejoin: miter"/>
   </g>
   <g id="patch_92">
    <path d="M 579.672 562.014857 
L 662.472 562.014857 
L 662.472 531.363429 
L 579.672 531.363429 
z
" clip-path="url(#pe0c2ce50fe)" style="fill: #a0522d; stroke: #ffffff; stroke-linejoin: miter"/>
   </g>
   <g id="patch_93">
    <path d="M 662.472 562.014857 
L 745.272 562.014857 
L 745.272 531.363429 
L 662.472 531.363429 
z
" clip-path="url(#pe0c2ce50fe)" style="fill: #7b68ee; stroke: #ffffff; stroke-linejoin: miter"/>
   </g>
   <g id="patch_94">
    <path d="M 165.672 613.100571 
L 248.472 613.100571 
L 248.472 582.449143 
L 165.672 582.449143 
z
" clip-path="url(#pe0c2ce50fe)" style="fill: #0000ff; stroke: #ffffff; stroke-linejoin: miter"/>
   </g>
   <g id="patch_95">
    <path d="M 248.472 613.100571 
L 331.272 613.100571 
L 331.272 582.449143 
L 248.472 582.449143 
z
" clip-path="url(#pe0c2ce50fe)" style="fill: #0000ff; stroke: #ffffff; stroke-linejoin: miter"/>
   </g>
   <g id="patch_96">
    <path d="M 331.272 613.100571 
L 414.072 613.100571 
L 414.072 582.449143 
L 331.272 582.449143 
z
" clip-path="url(#pe0c2ce50fe)" style="fill: #ff8c00; stroke: #ffffff; stroke-linejoin: miter"/>
   </g>
   <g id="patch_97">
    <path d="M 414.072 613.100571 
L 496.872 613.100571 
L 496.872 582.449143 
L 414.072 582.449143 
z
" clip-path="url(#pe0c2ce50fe)" style="fill: #0000ff; stroke: #ffffff; stroke-linejoin: miter"/>
   </g>
   <g id="patch_98">
    <path d="M 496.872 613.100571 
L 579.672 613.100571 
L 579.672 582.449143 
L 496.872 582.449143 
z
" clip-path="url(#pe0c2ce50fe)" style="fill: #0000ff; stroke: #ffffff; stroke-linejoin: miter"/>
   </g>
   <g id="patch_99">
    <path d="M 579.672 613.100571 
L 662.472 613.100571 
L 662.472 582.449143 
L 579.672 582.449143 
z
" clip-path="url(#pe0c2ce50fe)" style="fill: #7b68ee; stroke: #ffffff; stroke-linejoin: miter"/>
   </g>
   <g id="patch_100">
    <path d="M 662.472 613.100571 
L 745.272 613.100571 
L 745.272 582.449143 
L 662.472 582.449143 
z
" clip-path="url(#pe0c2ce50fe)" style="fill: #7b68ee; stroke: #ffffff; stroke-linejoin: miter"/>
   </g>
   <g id="patch_101">
    <path d="M 745.272 613.100571 
L 828.072 613.100571 
L 828.072 582.449143 
L 745.272 582.449143 
z
" clip-path="url(#pe0c2ce50fe)" style="fill: #add8e6; stroke: #ffffff; stroke-linejoin: miter"/>
   </g>
   <g id="patch_102">
    <path d="M 828.072 613.100571 
L 910.872 613.100571 
L 910.872 582.449143 
L 828.072 582.449143 
z
" clip-path="url(#pe0c2ce50fe)" style="fill: #ff69b4; stroke: #ffffff; stroke-linejoin: miter"/>
   </g>
   <g id="patch_103">
    <path d="M 910.872 613.100571 
L 993.672 613.100571 
L 993.672 582.449143 
L 910.872 582.449143 
z
" clip-path="url(#pe0c2ce50fe)" style="fill: #ff8c00; stroke: #ffffff; stroke-linejoin: miter"/>
   </g>
   <g id="patch_104">
    <path d="M 165.672 664.186286 
L 248.472 664.186286 
L 248.472 633.534857 
L 165.672 633.534857 
z
" clip-path="url(#pe0c2ce50fe)" style="fill: #0000ff; stroke: #ffffff; stroke-linejoin: miter"/>
   </g>
   <g id="patch_105">
    <path d="M 248.472 664.186286 
L 331.272 664.186286 
L 331.272 633.534857 
L 248.472 633.534857 
z
" clip-path="url(#pe0c2ce50fe)" style="fill: #ffd700; stroke: #ffffff; stroke-linejoin: miter"/>
   </g>
   <g id="patch_106">
    <path d="M 331.272 664.186286 
L 414.072 664.186286 
L 414.072 633.534857 
L 331.272 633.534857 
z
" clip-path="url(#pe0c2ce50fe)" style="fill: #a0522d; stroke: #ffffff; stroke-linejoin: miter"/>
   </g>
   <g id="patch_107">
    <path d="M 414.072 664.186286 
L 496.872 664.186286 
L 496.872 633.534857 
L 414.072 633.534857 
z
" clip-path="url(#pe0c2ce50fe)" style="fill: #7b68ee; stroke: #ffffff; stroke-linejoin: miter"/>
   </g>
   <g id="patch_108">
    <path d="M 496.872 664.186286 
L 579.672 664.186286 
L 579.672 633.534857 
L 496.872 633.534857 
z
" clip-path="url(#pe0c2ce50fe)" style="fill: #7b68ee; stroke: #ffffff; stroke-linejoin: miter"/>
   </g>
   <g id="patch_109">
    <path d="M 579.672 664.186286 
L 662.472 664.186286 
L 662.472 633.534857 
L 579.672 633.534857 
z
" clip-path="url(#pe0c2ce50fe)" style="fill: #add8e6; stroke: #ffffff; stroke-linejoin: miter"/>
   </g>
   <g id="patch_110">
    <path d="M 662.472 664.186286 
L 745.272 664.186286 
L 745.272 633.534857 
L 662.472 633.534857 
z
" clip-path="url(#pe0c2ce50fe)" style="fill: #ff69b4; stroke: #ffffff; stroke-linejoin: miter"/>
   </g>
   <g id="patch_111">
    <path d="M 745.272 664.186286 
L 828.072 664.186286 
L 828.072 633.534857 
L 745.272 633.534857 
z
" clip-path="url(#pe0c2ce50fe)" style="fill: #ff8c00; stroke: #ffffff; stroke-linejoin: miter"/>
   </g>
   <g id="patch_112">
    <path d="M 165.672 715.272 
L 248.472 715.272 
L 248.472 684.620571 
L 165.672 684.620571 
z
" clip-path="url(#pe0c2ce50fe)" style="fill: #0000ff; stroke: #ffffff; stroke-linejoin: miter"/>
   </g>
   <g id="patch_113">
    <path d="M 248.472 715.272 
L 331.272 715.272 
L 331.272 684.620571 
L 248.472 684.620571 
z
" clip-path="url(#pe0c2ce50fe)" style="fill: #dda0dd; stroke: #ffffff; stroke-linejoin: miter"/>
   </g>
   <g id="patch_114">
    <path d="M 331.272 715.272 
L 414.072 715.272 
L 414.072 684.620571 
L 331.272 684.620571 
z
" clip-path="url(#pe0c2ce50fe)" style="fill: #ffd700; stroke: #ffffff; stroke-linejoin: miter"/>
   </g>
   <g id="patch_115">
    <path d="M 414.072 715.272 
L 496.872 715.272 
L 496.872 684.620571 
L 414.072 684.620571 
z
" clip-path="url(#pe0c2ce50fe)" style="fill: #a0522d; stroke: #ffffff; stroke-linejoin: miter"/>
   </g>
   <g id="patch_116">
    <path d="M 496.872 715.272 
L 579.672 715.272 
L 579.672 684.620571 
L 496.872 684.620571 
z
" clip-path="url(#pe0c2ce50fe)" style="fill: #0000ff; stroke: #ffffff; stroke-linejoin: miter"/>
   </g>
   <g id="patch_117">
    <path d="M 579.672 715.272 
L 662.472 715.272 
L 662.472 684.620571 
L 579.672 684.620571 
z
" clip-path="url(#pe0c2ce50fe)" style="fill: #a0522d; stroke: #ffffff; stroke-linejoin: miter"/>
   </g>
   <g id="patch_118">
    <path d="M 662.472 715.272 
L 745.272 715.272 
L 745.272 684.620571 
L 662.472 684.620571 
z
" clip-path="url(#pe0c2ce50fe)" style="fill: #add8e6; stroke: #ffffff; stroke-linejoin: miter"/>
   </g>
   <g id="patch_119">
    <path d="M 745.272 715.272 
L 828.072 715.272 
L 828.072 684.620571 
L 745.272 684.620571 
z
" clip-path="url(#pe0c2ce50fe)" style="fill: #ff69b4; stroke: #ffffff; stroke-linejoin: miter"/>
   </g>
   <g id="patch_120">
    <path d="M 828.072 715.272 
L 910.872 715.272 
L 910.872 684.620571 
L 828.072 684.620571 
z
" clip-path="url(#pe0c2ce50fe)" style="fill: #ff8c00; stroke: #ffffff; stroke-linejoin: miter"/>
   </g>
   <g id="patch_121">
    <path d="M 165.672 766.357714 
L 248.472 766.357714 
L 248.472 735.706286 
L 165.672 735.706286 
z
" clip-path="url(#pe0c2ce50fe)" style="fill: #0000ff; stroke: #ffffff; stroke-linejoin: miter"/>
   </g>
   <g id="patch_122">
    <path d="M 248.472 766.357714 
L 331.272 766.357714 
L 331.272 735.706286 
L 248.472 735.706286 
z
" clip-path="url(#pe0c2ce50fe)" style="fill: #0000ff; stroke: #ffffff; stroke-linejoin: miter"/>
   </g>
   <g id="patch_123">
    <path d="M 331.272 766.357714 
L 414.072 766.357714 
L 414.072 735.706286 
L 331.272 735.706286 
z
" clip-path="url(#pe0c2ce50fe)" style="fill: #0000ff; stroke: #ffffff; stroke-linejoin: miter"/>
   </g>
   <g id="patch_124">
    <path d="M 414.072 766.357714 
L 496.872 766.357714 
L 496.872 735.706286 
L 414.072 735.706286 
z
" clip-path="url(#pe0c2ce50fe)" style="fill: #ffd700; stroke: #ffffff; stroke-linejoin: miter"/>
   </g>
   <g id="patch_125">
    <path d="M 496.872 766.357714 
L 579.672 766.357714 
L 579.672 735.706286 
L 496.872 735.706286 
z
" clip-path="url(#pe0c2ce50fe)" style="fill: #a0522d; stroke: #ffffff; stroke-linejoin: miter"/>
   </g>
   <g id="patch_126">
    <path d="M 579.672 766.357714 
L 662.472 766.357714 
L 662.472 735.706286 
L 579.672 735.706286 
z
" clip-path="url(#pe0c2ce50fe)" style="fill: #ffd700; stroke: #ffffff; stroke-linejoin: miter"/>
   </g>
   <g id="patch_127">
    <path d="M 662.472 766.357714 
L 745.272 766.357714 
L 745.272 735.706286 
L 662.472 735.706286 
z
" clip-path="url(#pe0c2ce50fe)" style="fill: #add8e6; stroke: #ffffff; stroke-linejoin: miter"/>
   </g>
   <g id="patch_128">
    <path d="M 745.272 766.357714 
L 828.072 766.357714 
L 828.072 735.706286 
L 745.272 735.706286 
z
" clip-path="url(#pe0c2ce50fe)" style="fill: #ff69b4; stroke: #ffffff; stroke-linejoin: miter"/>
   </g>
   <g id="patch_129">
    <path d="M 828.072 766.357714 
L 910.872 766.357714 
L 910.872 735.706286 
L 828.072 735.706286 
z
" clip-path="url(#pe0c2ce50fe)" style="fill: #ff8c00; stroke: #ffffff; stroke-linejoin: miter"/>
   </g>
   <g id="patch_130">
    <path d="M 165.672 817.443429 
L 248.472 817.443429 
L 248.472 786.792 
L 165.672 786.792 
z
" clip-path="url(#pe0c2ce50fe)" style="fill: #add8e6; stroke: #ffffff; stroke-linejoin: miter"/>
   </g>
   <g id="patch_131">
    <path d="M 248.472 817.443429 
L 331.272 817.443429 
L 331.272 786.792 
L 248.472 786.792 
z
" clip-path="url(#pe0c2ce50fe)" style="fill: #ff69b4; stroke: #ffffff; stroke-linejoin: miter"/>
   </g>
   <g id="patch_132">
    <path d="M 331.272 817.443429 
L 414.072 817.443429 
L 414.072 786.792 
L 331.272 786.792 
z
" clip-path="url(#pe0c2ce50fe)" style="fill: #ff8c00; stroke: #ffffff; stroke-linejoin: miter"/>
   </g>
   <g id="patch_133">
    <path d="M 414.072 817.443429 
L 496.872 817.443429 
L 496.872 786.792 
L 414.072 786.792 
z
" clip-path="url(#pe0c2ce50fe)" style="fill: #a0522d; stroke: #ffffff; stroke-linejoin: miter"/>
   </g>
   <g id="patch_134">
    <path d="M 496.872 817.443429 
L 579.672 817.443429 
L 579.672 786.792 
L 496.872 786.792 
z
" clip-path="url(#pe0c2ce50fe)" style="fill: #ffd700; stroke: #ffffff; stroke-linejoin: miter"/>
   </g>
   <g id="patch_135">
    <path d="M 579.672 817.443429 
L 662.472 817.443429 
L 662.472 786.792 
L 579.672 786.792 
z
" clip-path="url(#pe0c2ce50fe)" style="fill: #a0522d; stroke: #ffffff; stroke-linejoin: miter"/>
   </g>
   <g id="patch_136">
    <path d="M 165.672 868.529143 
L 248.472 868.529143 
L 248.472 837.877714 
L 165.672 837.877714 
z
" clip-path="url(#pe0c2ce50fe)" style="fill: #add8e6; stroke: #ffffff; stroke-linejoin: miter"/>
   </g>
   <g id="patch_137">
    <path d="M 248.472 868.529143 
L 331.272 868.529143 
L 331.272 837.877714 
L 248.472 837.877714 
z
" clip-path="url(#pe0c2ce50fe)" style="fill: #ff69b4; stroke: #ffffff; stroke-linejoin: miter"/>
   </g>
   <g id="patch_138">
    <path d="M 331.272 868.529143 
L 414.072 868.529143 
L 414.072 837.877714 
L 331.272 837.877714 
z
" clip-path="url(#pe0c2ce50fe)" style="fill: #ff8c00; stroke: #ffffff; stroke-linejoin: miter"/>
   </g>
   <g id="patch_139">
    <path d="M 414.072 868.529143 
L 496.872 868.529143 
L 496.872 837.877714 
L 414.072 837.877714 
z
" clip-path="url(#pe0c2ce50fe)" style="fill: #a0522d; stroke: #ffffff; stroke-linejoin: miter"/>
   </g>
   <g id="patch_140">
    <path d="M 496.872 868.529143 
L 579.672 868.529143 
L 579.672 837.877714 
L 496.872 837.877714 
z
" clip-path="url(#pe0c2ce50fe)" style="fill: #f08080; stroke: #ffffff; stroke-linejoin: miter"/>
   </g>
   <g id="patch_141">
    <path d="M 579.672 868.529143 
L 662.472 868.529143 
L 662.472 837.877714 
L 579.672 837.877714 
z
" clip-path="url(#pe0c2ce50fe)" style="fill: #ffff00; stroke: #ffffff; stroke-linejoin: miter"/>
   </g>
   <g id="patch_142">
    <path d="M 662.472 868.529143 
L 745.272 868.529143 
L 745.272 837.877714 
L 662.472 837.877714 
z
" clip-path="url(#pe0c2ce50fe)" style="fill: #a0522d; stroke: #ffffff; stroke-linejoin: miter"/>
   </g>
   <g id="patch_143">
    <path d="M 745.272 868.529143 
L 828.072 868.529143 
L 828.072 837.877714 
L 745.272 837.877714 
z
" clip-path="url(#pe0c2ce50fe)" style="fill: #0000ff; stroke: #ffffff; stroke-linejoin: miter"/>
   </g>
   <g id="patch_144">
    <path d="M 828.072 868.529143 
L 910.872 868.529143 
L 910.872 837.877714 
L 828.072 837.877714 
z
" clip-path="url(#pe0c2ce50fe)" style="fill: #0000ff; stroke: #ffffff; stroke-linejoin: miter"/>
   </g>
   <g id="patch_145">
    <path d="M 910.872 868.529143 
L 993.672 868.529143 
L 993.672 837.877714 
L 910.872 837.877714 
z
" clip-path="url(#pe0c2ce50fe)" style="fill: #0000ff; stroke: #ffffff; stroke-linejoin: miter"/>
   </g>
   <g id="patch_146">
    <path d="M 165.672 919.614857 
L 248.472 919.614857 
L 248.472 888.963429 
L 165.672 888.963429 
z
" clip-path="url(#pe0c2ce50fe)" style="fill: #add8e6; stroke: #ffffff; stroke-linejoin: miter"/>
   </g>
   <g id="patch_147">
    <path d="M 248.472 919.614857 
L 331.272 919.614857 
L 331.272 888.963429 
L 248.472 888.963429 
z
" clip-path="url(#pe0c2ce50fe)" style="fill: #ff69b4; stroke: #ffffff; stroke-linejoin: miter"/>
   </g>
   <g id="patch_148">
    <path d="M 331.272 919.614857 
L 414.072 919.614857 
L 414.072 888.963429 
L 331.272 888.963429 
z
" clip-path="url(#pe0c2ce50fe)" style="fill: #ff8c00; stroke: #ffffff; stroke-linejoin: miter"/>
   </g>
   <g id="patch_149">
    <path d="M 414.072 919.614857 
L 496.872 919.614857 
L 496.872 888.963429 
L 414.072 888.963429 
z
" clip-path="url(#pe0c2ce50fe)" style="fill: #a0522d; stroke: #ffffff; stroke-linejoin: miter"/>
   </g>
   <g id="patch_150">
    <path d="M 496.872 919.614857 
L 579.672 919.614857 
L 579.672 888.963429 
L 496.872 888.963429 
z
" clip-path="url(#pe0c2ce50fe)" style="fill: #f0fff0; stroke: #ffffff; stroke-linejoin: miter"/>
   </g>
   <g id="patch_151">
    <path d="M 165.672 970.700571 
L 248.472 970.700571 
L 248.472 940.049143 
L 165.672 940.049143 
z
" clip-path="url(#pe0c2ce50fe)" style="fill: #0000ff; stroke: #ffffff; stroke-linejoin: miter"/>
   </g>
   <g id="patch_152">
    <path d="M 248.472 970.700571 
L 331.272 970.700571 
L 331.272 940.049143 
L 248.472 940.049143 
z
" clip-path="url(#pe0c2ce50fe)" style="fill: #ffe4b5; stroke: #ffffff; stroke-linejoin: miter"/>
   </g>
   <g id="patch_153">
    <path d="M 331.272 970.700571 
L 414.072 970.700571 
L 414.072 940.049143 
L 331.272 940.049143 
z
" clip-path="url(#pe0c2ce50fe)" style="fill: #0000ff; stroke: #ffffff; stroke-linejoin: miter"/>
   </g>
   <g id="patch_154">
    <path d="M 414.072 970.700571 
L 496.872 970.700571 
L 496.872 940.049143 
L 414.072 940.049143 
z
" clip-path="url(#pe0c2ce50fe)" style="fill: #a0522d; stroke: #ffffff; stroke-linejoin: miter"/>
   </g>
   <g id="patch_155">
    <path d="M 496.872 970.700571 
L 579.672 970.700571 
L 579.672 940.049143 
L 496.872 940.049143 
z
" clip-path="url(#pe0c2ce50fe)" style="fill: #9acd32; stroke: #ffffff; stroke-linejoin: miter"/>
   </g>
   <g id="patch_156">
    <path d="M 579.672 970.700571 
L 662.472 970.700571 
L 662.472 940.049143 
L 579.672 940.049143 
z
" clip-path="url(#pe0c2ce50fe)" style="fill: #a0522d; stroke: #ffffff; stroke-linejoin: miter"/>
   </g>
   <g id="patch_157">
    <path d="M 165.672 1021.786286 
L 248.472 1021.786286 
L 248.472 991.134857 
L 165.672 991.134857 
z
" clip-path="url(#pe0c2ce50fe)" style="fill: #0000ff; stroke: #ffffff; stroke-linejoin: miter"/>
   </g>
   <g id="patch_158">
    <path d="M 248.472 1021.786286 
L 331.272 1021.786286 
L 331.272 991.134857 
L 248.472 991.134857 
z
" clip-path="url(#pe0c2ce50fe)" style="fill: #ff8c00; stroke: #ffffff; stroke-linejoin: miter"/>
   </g>
   <g id="patch_159">
    <path d="M 331.272 1021.786286 
L 414.072 1021.786286 
L 414.072 991.134857 
L 331.272 991.134857 
z
" clip-path="url(#pe0c2ce50fe)" style="fill: #ffd700; stroke: #ffffff; stroke-linejoin: miter"/>
   </g>
   <g id="patch_160">
    <path d="M 414.072 1021.786286 
L 496.872 1021.786286 
L 496.872 991.134857 
L 414.072 991.134857 
z
" clip-path="url(#pe0c2ce50fe)" style="fill: #c0c0c0; stroke: #ffffff; stroke-linejoin: miter"/>
   </g>
   <g id="patch_161">
    <path d="M 496.872 1021.786286 
L 579.672 1021.786286 
L 579.672 991.134857 
L 496.872 991.134857 
z
" clip-path="url(#pe0c2ce50fe)" style="fill: #f08080; stroke: #ffffff; stroke-linejoin: miter"/>
   </g>
   <g id="patch_162">
    <path d="M 579.672 1021.786286 
L 662.472 1021.786286 
L 662.472 991.134857 
L 579.672 991.134857 
z
" clip-path="url(#pe0c2ce50fe)" style="fill: #ffe4b5; stroke: #ffffff; stroke-linejoin: miter"/>
   </g>
   <g id="patch_163">
    <path d="M 662.472 1021.786286 
L 745.272 1021.786286 
L 745.272 991.134857 
L 662.472 991.134857 
z
" clip-path="url(#pe0c2ce50fe)" style="fill: #ff0000; stroke: #ffffff; stroke-linejoin: miter"/>
   </g>
   <g id="patch_164">
    <path d="M 745.272 1021.786286 
L 828.072 1021.786286 
L 828.072 991.134857 
L 745.272 991.134857 
z
" clip-path="url(#pe0c2ce50fe)" style="fill: #ffe4b5; stroke: #ffffff; stroke-linejoin: miter"/>
   </g>
   <g id="text_1">
    <!-- I -->
    <g transform="translate(204.293875 92.088027) scale(0.2 -0.2)">
     <defs>
      <path id="ArialMT-49" d="M 597 0 
L 597 4581 
L 1203 4581 
L 1203 0 
L 597 0 
z
" transform="scale(0.015625)"/>
     </defs>
     <use xlink:href="#ArialMT-49"/>
    </g>
   </g>
   <g id="text_2">
    <!-- G -->
    <g transform="translate(282.093875 92.088027) scale(0.2 -0.2)">
     <defs>
      <path id="ArialMT-47" d="M 2638 1797 
L 2638 2334 
L 4578 2338 
L 4578 638 
Q 4131 281 3656 101 
Q 3181 -78 2681 -78 
Q 2006 -78 1454 211 
Q 903 500 622 1047 
Q 341 1594 341 2269 
Q 341 2938 620 3517 
Q 900 4097 1425 4378 
Q 1950 4659 2634 4659 
Q 3131 4659 3532 4498 
Q 3934 4338 4162 4050 
Q 4391 3763 4509 3300 
L 3963 3150 
Q 3859 3500 3706 3700 
Q 3553 3900 3268 4020 
Q 2984 4141 2638 4141 
Q 2222 4141 1919 4014 
Q 1616 3888 1430 3681 
Q 1244 3475 1141 3228 
Q 966 2803 966 2306 
Q 966 1694 1177 1281 
Q 1388 869 1791 669 
Q 2194 469 2647 469 
Q 3041 469 3416 620 
Q 3791 772 3984 944 
L 3984 1797 
L 2638 1797 
z
" transform="scale(0.015625)"/>
     </defs>
     <use xlink:href="#ArialMT-47"/>
    </g>
   </g>
   <g id="text_3">
    <!-- M -->
    <g transform="translate(364.342313 92.088027) scale(0.2 -0.2)">
     <defs>
      <path id="ArialMT-4d" d="M 475 0 
L 475 4581 
L 1388 4581 
L 2472 1338 
Q 2622 884 2691 659 
Q 2769 909 2934 1394 
L 4031 4581 
L 4847 4581 
L 4847 0 
L 4263 0 
L 4263 3834 
L 2931 0 
L 2384 0 
L 1059 3900 
L 1059 0 
L 475 0 
z
" transform="scale(0.015625)"/>
     </defs>
     <use xlink:href="#ArialMT-4d"/>
    </g>
   </g>
   <g id="text_4">
    <!-- Q -->
    <g style="fill: #ffffff" transform="translate(447.693875 92.088027) scale(0.2 -0.2)">
     <defs>
      <path id="ArialMT-51" d="M 3966 491 
Q 4388 200 4744 66 
L 4566 -356 
Q 4072 -178 3581 206 
Q 3072 -78 2456 -78 
Q 1834 -78 1328 222 
Q 822 522 548 1065 
Q 275 1609 275 2291 
Q 275 2969 550 3525 
Q 825 4081 1333 4372 
Q 1841 4663 2469 4663 
Q 3103 4663 3612 4361 
Q 4122 4059 4389 3517 
Q 4656 2975 4656 2294 
Q 4656 1728 4484 1276 
Q 4313 825 3966 491 
z
M 2631 1266 
Q 3156 1119 3497 828 
Q 4031 1316 4031 2294 
Q 4031 2850 3842 3265 
Q 3653 3681 3289 3911 
Q 2925 4141 2472 4141 
Q 1794 4141 1347 3677 
Q 900 3213 900 2291 
Q 900 1397 1342 919 
Q 1784 441 2472 441 
Q 2797 441 3084 563 
Q 2800 747 2484 825 
L 2631 1266 
z
" transform="scale(0.015625)"/>
     </defs>
     <use xlink:href="#ArialMT-51"/>
    </g>
   </g>
   <g id="text_5">
    <!-- T -->
    <g style="fill: #ffffff" transform="translate(532.164187 92.088027) scale(0.2 -0.2)">
     <defs>
      <path id="ArialMT-54" d="M 1659 0 
L 1659 4041 
L 150 4041 
L 150 4581 
L 3781 4581 
L 3781 4041 
L 2266 4041 
L 2266 0 
L 1659 0 
z
" transform="scale(0.015625)"/>
     </defs>
     <use xlink:href="#ArialMT-54"/>
    </g>
   </g>
   <g id="text_6">
    <!-- T -->
    <g style="fill: #ffffff" transform="translate(614.964187 92.088027) scale(0.2 -0.2)">
     <use xlink:href="#ArialMT-54"/>
    </g>
   </g>
   <g id="text_7">
    <!-- M -->
    <g transform="translate(695.542312 92.088027) scale(0.2 -0.2)">
     <use xlink:href="#ArialMT-4d"/>
    </g>
   </g>
   <g id="text_8">
    <!-- H -->
    <g transform="translate(779.450125 92.088027) scale(0.2 -0.2)">
     <defs>
      <path id="ArialMT-48" d="M 513 0 
L 513 4581 
L 1119 4581 
L 1119 2700 
L 3500 2700 
L 3500 4581 
L 4106 4581 
L 4106 0 
L 3500 0 
L 3500 2159 
L 1119 2159 
L 1119 0 
L 513 0 
z
" transform="scale(0.015625)"/>
     </defs>
     <use xlink:href="#ArialMT-48"/>
    </g>
   </g>
   <g id="text_9">
    <!-- P -->
    <g transform="translate(862.801687 92.088027) scale(0.2 -0.2)">
     <defs>
      <path id="ArialMT-50" d="M 494 0 
L 494 4581 
L 2222 4581 
Q 2678 4581 2919 4538 
Q 3256 4481 3484 4323 
Q 3713 4166 3852 3881 
Q 3991 3597 3991 3256 
Q 3991 2672 3619 2267 
Q 3247 1863 2275 1863 
L 1100 1863 
L 1100 0 
L 494 0 
z
M 1100 2403 
L 2284 2403 
Q 2872 2403 3119 2622 
Q 3366 2841 3366 3238 
Q 3366 3525 3220 3729 
Q 3075 3934 2838 4000 
Q 2684 4041 2272 4041 
L 1100 4041 
L 1100 2403 
z
" transform="scale(0.015625)"/>
     </defs>
     <use xlink:href="#ArialMT-50"/>
    </g>
   </g>
   <g id="text_10">
    <!-- M -->
    <g transform="translate(943.942313 92.088027) scale(0.2 -0.2)">
     <use xlink:href="#ArialMT-4d"/>
    </g>
   </g>
   <g id="text_11">
    <!-- H -->
    <g transform="translate(1027.850125 92.088027) scale(0.2 -0.2)">
     <use xlink:href="#ArialMT-48"/>
    </g>
   </g>
   <g id="text_12">
    <!-- J -->
    <g style="fill: #ffffff" transform="translate(1112.872 92.088027) scale(0.2 -0.2)">
     <defs>
      <path id="ArialMT-4a" d="M 184 1300 
L 731 1375 
Q 753 850 928 656 
Q 1103 463 1413 463 
Q 1641 463 1806 567 
Q 1972 672 2034 851 
Q 2097 1031 2097 1425 
L 2097 4581 
L 2703 4581 
L 2703 1459 
Q 2703 884 2564 568 
Q 2425 253 2123 87 
Q 1822 -78 1416 -78 
Q 813 -78 492 269 
Q 172 616 184 1300 
z
" transform="scale(0.015625)"/>
     </defs>
     <use xlink:href="#ArialMT-4a"/>
    </g>
   </g>
   <g id="text_13">
    <!-- A -->
    <g transform="translate(1194.001688 92.088027) scale(0.2 -0.2)">
     <defs>
      <path id="ArialMT-41" d="M -9 0 
L 1750 4581 
L 2403 4581 
L 4278 0 
L 3588 0 
L 3053 1388 
L 1138 1388 
L 634 0 
L -9 0 
z
M 1313 1881 
L 2866 1881 
L 2388 3150 
Q 2169 3728 2063 4100 
Q 1975 3659 1816 3225 
L 1313 1881 
z
" transform="scale(0.015625)"/>
     </defs>
     <use xlink:href="#ArialMT-41"/>
    </g>
   </g>
   <g id="text_14">
    <!-- ID 105 -->
    <g style="fill: #262626" transform="translate(98.470125 92.088027) scale(0.2 -0.2)">
     <defs>
      <path id="ArialMT-44" d="M 494 0 
L 494 4581 
L 2072 4581 
Q 2606 4581 2888 4516 
Q 3281 4425 3559 4188 
Q 3922 3881 4101 3404 
Q 4281 2928 4281 2316 
Q 4281 1794 4159 1391 
Q 4038 988 3847 723 
Q 3656 459 3429 307 
Q 3203 156 2883 78 
Q 2563 0 2147 0 
L 494 0 
z
M 1100 541 
L 2078 541 
Q 2531 541 2789 625 
Q 3047 709 3200 863 
Q 3416 1078 3536 1442 
Q 3656 1806 3656 2325 
Q 3656 3044 3420 3430 
Q 3184 3816 2847 3947 
Q 2603 4041 2063 4041 
L 1100 4041 
L 1100 541 
z
" transform="scale(0.015625)"/>
      <path id="ArialMT-20" transform="scale(0.015625)"/>
      <path id="ArialMT-31" d="M 2384 0 
L 1822 0 
L 1822 3584 
Q 1619 3391 1289 3197 
Q 959 3003 697 2906 
L 697 3450 
Q 1169 3672 1522 3987 
Q 1875 4303 2022 4600 
L 2384 4600 
L 2384 0 
z
" transform="scale(0.015625)"/>
      <path id="ArialMT-30" d="M 266 2259 
Q 266 3072 433 3567 
Q 600 4063 929 4331 
Q 1259 4600 1759 4600 
Q 2128 4600 2406 4451 
Q 2684 4303 2865 4023 
Q 3047 3744 3150 3342 
Q 3253 2941 3253 2259 
Q 3253 1453 3087 958 
Q 2922 463 2592 192 
Q 2263 -78 1759 -78 
Q 1097 -78 719 397 
Q 266 969 266 2259 
z
M 844 2259 
Q 844 1131 1108 757 
Q 1372 384 1759 384 
Q 2147 384 2411 759 
Q 2675 1134 2675 2259 
Q 2675 3391 2411 3762 
Q 2147 4134 1753 4134 
Q 1366 4134 1134 3806 
Q 844 3388 844 2259 
z
" transform="scale(0.015625)"/>
      <path id="ArialMT-35" d="M 266 1200 
L 856 1250 
Q 922 819 1161 601 
Q 1400 384 1738 384 
Q 2144 384 2425 690 
Q 2706 997 2706 1503 
Q 2706 1984 2436 2262 
Q 2166 2541 1728 2541 
Q 1456 2541 1237 2417 
Q 1019 2294 894 2097 
L 366 2166 
L 809 4519 
L 3088 4519 
L 3088 3981 
L 1259 3981 
L 1013 2750 
Q 1425 3038 1878 3038 
Q 2478 3038 2890 2622 
Q 3303 2206 3303 1553 
Q 3303 931 2941 478 
Q 2500 -78 1738 -78 
Q 1113 -78 717 272 
Q 322 622 266 1200 
z
" transform="scale(0.015625)"/>
     </defs>
     <use xlink:href="#ArialMT-49"/>
     <use xlink:href="#ArialMT-44" transform="translate(27.783203 0)"/>
     <use xlink:href="#ArialMT-20" transform="translate(100 0)"/>
     <use xlink:href="#ArialMT-31" transform="translate(127.783203 0)"/>
     <use xlink:href="#ArialMT-30" transform="translate(183.398438 0)"/>
     <use xlink:href="#ArialMT-35" transform="translate(239.013672 0)"/>
    </g>
   </g>
   <g id="text_15">
    <!-- I -->
    <g transform="translate(204.293875 143.173741) scale(0.2 -0.2)">
     <use xlink:href="#ArialMT-49"/>
    </g>
   </g>
   <g id="text_16">
    <!-- G -->
    <g transform="translate(282.093875 143.173741) scale(0.2 -0.2)">
     <use xlink:href="#ArialMT-47"/>
    </g>
   </g>
   <g id="text_17">
    <!-- M -->
    <g transform="translate(364.342313 143.173741) scale(0.2 -0.2)">
     <use xlink:href="#ArialMT-4d"/>
    </g>
   </g>
   <g id="text_18">
    <!-- Q -->
    <g style="fill: #ffffff" transform="translate(447.693875 143.173741) scale(0.2 -0.2)">
     <use xlink:href="#ArialMT-51"/>
    </g>
   </g>
   <g id="text_19">
    <!-- T -->
    <g style="fill: #ffffff" transform="translate(532.164187 143.173741) scale(0.2 -0.2)">
     <use xlink:href="#ArialMT-54"/>
    </g>
   </g>
   <g id="text_20">
    <!-- T -->
    <g style="fill: #ffffff" transform="translate(614.964187 143.173741) scale(0.2 -0.2)">
     <use xlink:href="#ArialMT-54"/>
    </g>
   </g>
   <g id="text_21">
    <!-- B -->
    <g transform="translate(697.201687 143.173741) scale(0.2 -0.2)">
     <defs>
      <path id="ArialMT-42" d="M 469 0 
L 469 4581 
L 2188 4581 
Q 2713 4581 3030 4442 
Q 3347 4303 3526 4014 
Q 3706 3725 3706 3409 
Q 3706 3116 3547 2856 
Q 3388 2597 3066 2438 
Q 3481 2316 3704 2022 
Q 3928 1728 3928 1328 
Q 3928 1006 3792 729 
Q 3656 453 3456 303 
Q 3256 153 2954 76 
Q 2653 0 2216 0 
L 469 0 
z
M 1075 2656 
L 2066 2656 
Q 2469 2656 2644 2709 
Q 2875 2778 2992 2937 
Q 3109 3097 3109 3338 
Q 3109 3566 3000 3739 
Q 2891 3913 2687 3977 
Q 2484 4041 1991 4041 
L 1075 4041 
L 1075 2656 
z
M 1075 541 
L 2216 541 
Q 2509 541 2628 563 
Q 2838 600 2978 687 
Q 3119 775 3209 942 
Q 3300 1109 3300 1328 
Q 3300 1584 3169 1773 
Q 3038 1963 2805 2039 
Q 2572 2116 2134 2116 
L 1075 2116 
L 1075 541 
z
" transform="scale(0.015625)"/>
     </defs>
     <use xlink:href="#ArialMT-42"/>
    </g>
   </g>
   <g id="text_22">
    <!-- T -->
    <g style="fill: #ffffff" transform="translate(780.564188 143.173741) scale(0.2 -0.2)">
     <use xlink:href="#ArialMT-54"/>
    </g>
   </g>
   <g id="text_23">
    <!-- ID 102 -->
    <g style="fill: #262626" transform="translate(98.470125 143.173741) scale(0.2 -0.2)">
     <defs>
      <path id="ArialMT-32" d="M 3222 541 
L 3222 0 
L 194 0 
Q 188 203 259 391 
Q 375 700 629 1000 
Q 884 1300 1366 1694 
Q 2113 2306 2375 2664 
Q 2638 3022 2638 3341 
Q 2638 3675 2398 3904 
Q 2159 4134 1775 4134 
Q 1369 4134 1125 3890 
Q 881 3647 878 3216 
L 300 3275 
Q 359 3922 746 4261 
Q 1134 4600 1788 4600 
Q 2447 4600 2831 4234 
Q 3216 3869 3216 3328 
Q 3216 3053 3103 2787 
Q 2991 2522 2730 2228 
Q 2469 1934 1863 1422 
Q 1356 997 1212 845 
Q 1069 694 975 541 
L 3222 541 
z
" transform="scale(0.015625)"/>
     </defs>
     <use xlink:href="#ArialMT-49"/>
     <use xlink:href="#ArialMT-44" transform="translate(27.783203 0)"/>
     <use xlink:href="#ArialMT-20" transform="translate(100 0)"/>
     <use xlink:href="#ArialMT-31" transform="translate(127.783203 0)"/>
     <use xlink:href="#ArialMT-30" transform="translate(183.398438 0)"/>
     <use xlink:href="#ArialMT-32" transform="translate(239.013672 0)"/>
    </g>
   </g>
   <g id="text_24">
    <!-- I -->
    <g transform="translate(204.293875 194.259455) scale(0.2 -0.2)">
     <use xlink:href="#ArialMT-49"/>
    </g>
   </g>
   <g id="text_25">
    <!-- G -->
    <g transform="translate(282.093875 194.259455) scale(0.2 -0.2)">
     <use xlink:href="#ArialMT-47"/>
    </g>
   </g>
   <g id="text_26">
    <!-- M -->
    <g transform="translate(364.342313 194.259455) scale(0.2 -0.2)">
     <use xlink:href="#ArialMT-4d"/>
    </g>
   </g>
   <g id="text_27">
    <!-- Q -->
    <g style="fill: #ffffff" transform="translate(447.693875 194.259455) scale(0.2 -0.2)">
     <use xlink:href="#ArialMT-51"/>
    </g>
   </g>
   <g id="text_28">
    <!-- T -->
    <g style="fill: #ffffff" transform="translate(532.164187 194.259455) scale(0.2 -0.2)">
     <use xlink:href="#ArialMT-54"/>
    </g>
   </g>
   <g id="text_29">
    <!-- B -->
    <g transform="translate(614.401687 194.259455) scale(0.2 -0.2)">
     <use xlink:href="#ArialMT-42"/>
    </g>
   </g>
   <g id="text_30">
    <!-- T -->
    <g style="fill: #ffffff" transform="translate(697.764187 194.259455) scale(0.2 -0.2)">
     <use xlink:href="#ArialMT-54"/>
    </g>
   </g>
   <g id="text_31">
    <!-- ID 103 -->
    <g style="fill: #262626" transform="translate(98.470125 194.259455) scale(0.2 -0.2)">
     <defs>
      <path id="ArialMT-33" d="M 269 1209 
L 831 1284 
Q 928 806 1161 595 
Q 1394 384 1728 384 
Q 2125 384 2398 659 
Q 2672 934 2672 1341 
Q 2672 1728 2419 1979 
Q 2166 2231 1775 2231 
Q 1616 2231 1378 2169 
L 1441 2663 
Q 1497 2656 1531 2656 
Q 1891 2656 2178 2843 
Q 2466 3031 2466 3422 
Q 2466 3731 2256 3934 
Q 2047 4138 1716 4138 
Q 1388 4138 1169 3931 
Q 950 3725 888 3313 
L 325 3413 
Q 428 3978 793 4289 
Q 1159 4600 1703 4600 
Q 2078 4600 2393 4439 
Q 2709 4278 2876 4000 
Q 3044 3722 3044 3409 
Q 3044 3113 2884 2869 
Q 2725 2625 2413 2481 
Q 2819 2388 3044 2092 
Q 3269 1797 3269 1353 
Q 3269 753 2831 336 
Q 2394 -81 1725 -81 
Q 1122 -81 723 278 
Q 325 638 269 1209 
z
" transform="scale(0.015625)"/>
     </defs>
     <use xlink:href="#ArialMT-49"/>
     <use xlink:href="#ArialMT-44" transform="translate(27.783203 0)"/>
     <use xlink:href="#ArialMT-20" transform="translate(100 0)"/>
     <use xlink:href="#ArialMT-31" transform="translate(127.783203 0)"/>
     <use xlink:href="#ArialMT-30" transform="translate(183.398438 0)"/>
     <use xlink:href="#ArialMT-33" transform="translate(239.013672 0)"/>
    </g>
   </g>
   <g id="text_32">
    <!-- I -->
    <g transform="translate(204.293875 245.34517) scale(0.2 -0.2)">
     <use xlink:href="#ArialMT-49"/>
    </g>
   </g>
   <g id="text_33">
    <!-- G -->
    <g transform="translate(282.093875 245.34517) scale(0.2 -0.2)">
     <use xlink:href="#ArialMT-47"/>
    </g>
   </g>
   <g id="text_34">
    <!-- M -->
    <g transform="translate(364.342313 245.34517) scale(0.2 -0.2)">
     <use xlink:href="#ArialMT-4d"/>
    </g>
   </g>
   <g id="text_35">
    <!-- Q -->
    <g style="fill: #ffffff" transform="translate(447.693875 245.34517) scale(0.2 -0.2)">
     <use xlink:href="#ArialMT-51"/>
    </g>
   </g>
   <g id="text_36">
    <!-- T -->
    <g style="fill: #ffffff" transform="translate(532.164187 245.34517) scale(0.2 -0.2)">
     <use xlink:href="#ArialMT-54"/>
    </g>
   </g>
   <g id="text_37">
    <!-- T -->
    <g style="fill: #ffffff" transform="translate(614.964187 245.34517) scale(0.2 -0.2)">
     <use xlink:href="#ArialMT-54"/>
    </g>
   </g>
   <g id="text_38">
    <!-- Q -->
    <g style="fill: #ffffff" transform="translate(696.093875 245.34517) scale(0.2 -0.2)">
     <use xlink:href="#ArialMT-51"/>
    </g>
   </g>
   <g id="text_39">
    <!-- T -->
    <g style="fill: #ffffff" transform="translate(780.564188 245.34517) scale(0.2 -0.2)">
     <use xlink:href="#ArialMT-54"/>
    </g>
   </g>
   <g id="text_40">
    <!-- G -->
    <g transform="translate(861.693875 245.34517) scale(0.2 -0.2)">
     <use xlink:href="#ArialMT-47"/>
    </g>
   </g>
   <g id="text_41">
    <!-- S -->
    <g transform="translate(945.601688 245.34517) scale(0.2 -0.2)">
     <defs>
      <path id="ArialMT-53" d="M 288 1472 
L 859 1522 
Q 900 1178 1048 958 
Q 1197 738 1509 602 
Q 1822 466 2213 466 
Q 2559 466 2825 569 
Q 3091 672 3220 851 
Q 3350 1031 3350 1244 
Q 3350 1459 3225 1620 
Q 3100 1781 2813 1891 
Q 2628 1963 1997 2114 
Q 1366 2266 1113 2400 
Q 784 2572 623 2826 
Q 463 3081 463 3397 
Q 463 3744 659 4045 
Q 856 4347 1234 4503 
Q 1613 4659 2075 4659 
Q 2584 4659 2973 4495 
Q 3363 4331 3572 4012 
Q 3781 3694 3797 3291 
L 3216 3247 
Q 3169 3681 2898 3903 
Q 2628 4125 2100 4125 
Q 1550 4125 1298 3923 
Q 1047 3722 1047 3438 
Q 1047 3191 1225 3031 
Q 1400 2872 2139 2705 
Q 2878 2538 3153 2413 
Q 3553 2228 3743 1945 
Q 3934 1663 3934 1294 
Q 3934 928 3725 604 
Q 3516 281 3123 101 
Q 2731 -78 2241 -78 
Q 1619 -78 1198 103 
Q 778 284 539 648 
Q 300 1013 288 1472 
z
" transform="scale(0.015625)"/>
     </defs>
     <use xlink:href="#ArialMT-53"/>
    </g>
   </g>
   <g id="text_42">
    <!-- Q -->
    <g style="fill: #ffffff" transform="translate(1027.293875 245.34517) scale(0.2 -0.2)">
     <use xlink:href="#ArialMT-51"/>
    </g>
   </g>
   <g id="text_43">
    <!-- J -->
    <g style="fill: #ffffff" transform="translate(1112.872 245.34517) scale(0.2 -0.2)">
     <use xlink:href="#ArialMT-4a"/>
    </g>
   </g>
   <g id="text_44">
    <!-- ID 107 -->
    <g style="fill: #262626" transform="translate(98.470125 245.34517) scale(0.2 -0.2)">
     <defs>
      <path id="ArialMT-37" d="M 303 3981 
L 303 4522 
L 3269 4522 
L 3269 4084 
Q 2831 3619 2401 2847 
Q 1972 2075 1738 1259 
Q 1569 684 1522 0 
L 944 0 
Q 953 541 1156 1306 
Q 1359 2072 1739 2783 
Q 2119 3494 2547 3981 
L 303 3981 
z
" transform="scale(0.015625)"/>
     </defs>
     <use xlink:href="#ArialMT-49"/>
     <use xlink:href="#ArialMT-44" transform="translate(27.783203 0)"/>
     <use xlink:href="#ArialMT-20" transform="translate(100 0)"/>
     <use xlink:href="#ArialMT-31" transform="translate(127.783203 0)"/>
     <use xlink:href="#ArialMT-30" transform="translate(183.398438 0)"/>
     <use xlink:href="#ArialMT-37" transform="translate(239.013672 0)"/>
    </g>
   </g>
   <g id="text_45">
    <!-- I -->
    <g transform="translate(204.293875 296.430884) scale(0.2 -0.2)">
     <use xlink:href="#ArialMT-49"/>
    </g>
   </g>
   <g id="text_46">
    <!-- G -->
    <g transform="translate(282.093875 296.430884) scale(0.2 -0.2)">
     <use xlink:href="#ArialMT-47"/>
    </g>
   </g>
   <g id="text_47">
    <!-- M -->
    <g transform="translate(364.342313 296.430884) scale(0.2 -0.2)">
     <use xlink:href="#ArialMT-4d"/>
    </g>
   </g>
   <g id="text_48">
    <!-- Q -->
    <g style="fill: #ffffff" transform="translate(447.693875 296.430884) scale(0.2 -0.2)">
     <use xlink:href="#ArialMT-51"/>
    </g>
   </g>
   <g id="text_49">
    <!-- T -->
    <g style="fill: #ffffff" transform="translate(532.164187 296.430884) scale(0.2 -0.2)">
     <use xlink:href="#ArialMT-54"/>
    </g>
   </g>
   <g id="text_50">
    <!-- T -->
    <g style="fill: #ffffff" transform="translate(614.964187 296.430884) scale(0.2 -0.2)">
     <use xlink:href="#ArialMT-54"/>
    </g>
   </g>
   <g id="text_51">
    <!-- Q -->
    <g style="fill: #ffffff" transform="translate(696.093875 296.430884) scale(0.2 -0.2)">
     <use xlink:href="#ArialMT-51"/>
    </g>
   </g>
   <g id="text_52">
    <!-- T -->
    <g style="fill: #ffffff" transform="translate(780.564188 296.430884) scale(0.2 -0.2)">
     <use xlink:href="#ArialMT-54"/>
    </g>
   </g>
   <g id="text_53">
    <!-- Q -->
    <g style="fill: #ffffff" transform="translate(861.693875 296.430884) scale(0.2 -0.2)">
     <use xlink:href="#ArialMT-51"/>
    </g>
   </g>
   <g id="text_54">
    <!-- T -->
    <g style="fill: #ffffff" transform="translate(946.164188 296.430884) scale(0.2 -0.2)">
     <use xlink:href="#ArialMT-54"/>
    </g>
   </g>
   <g id="text_55">
    <!-- Q -->
    <g style="fill: #ffffff" transform="translate(1027.293875 296.430884) scale(0.2 -0.2)">
     <use xlink:href="#ArialMT-51"/>
    </g>
   </g>
   <g id="text_56">
    <!-- J -->
    <g style="fill: #ffffff" transform="translate(1112.872 296.430884) scale(0.2 -0.2)">
     <use xlink:href="#ArialMT-4a"/>
    </g>
   </g>
   <g id="text_57">
    <!-- M -->
    <g transform="translate(1192.342312 296.430884) scale(0.2 -0.2)">
     <use xlink:href="#ArialMT-4d"/>
    </g>
   </g>
   <g id="text_58">
    <!-- Q -->
    <g style="fill: #ffffff" transform="translate(1275.693875 296.430884) scale(0.2 -0.2)">
     <use xlink:href="#ArialMT-51"/>
    </g>
   </g>
   <g id="text_59">
    <!-- C -->
    <g transform="translate(1359.050125 296.430884) scale(0.2 -0.2)">
     <defs>
      <path id="ArialMT-43" d="M 3763 1606 
L 4369 1453 
Q 4178 706 3683 314 
Q 3188 -78 2472 -78 
Q 1731 -78 1267 223 
Q 803 525 561 1097 
Q 319 1669 319 2325 
Q 319 3041 592 3573 
Q 866 4106 1370 4382 
Q 1875 4659 2481 4659 
Q 3169 4659 3637 4309 
Q 4106 3959 4291 3325 
L 3694 3184 
Q 3534 3684 3231 3912 
Q 2928 4141 2469 4141 
Q 1941 4141 1586 3887 
Q 1231 3634 1087 3207 
Q 944 2781 944 2328 
Q 944 1744 1114 1308 
Q 1284 872 1643 656 
Q 2003 441 2422 441 
Q 2931 441 3284 734 
Q 3638 1028 3763 1606 
z
" transform="scale(0.015625)"/>
     </defs>
     <use xlink:href="#ArialMT-43"/>
    </g>
   </g>
   <g id="text_60">
    <!-- ID 108 -->
    <g style="fill: #262626" transform="translate(98.470125 296.430884) scale(0.2 -0.2)">
     <defs>
      <path id="ArialMT-38" d="M 1131 2484 
Q 781 2613 612 2850 
Q 444 3088 444 3419 
Q 444 3919 803 4259 
Q 1163 4600 1759 4600 
Q 2359 4600 2725 4251 
Q 3091 3903 3091 3403 
Q 3091 3084 2923 2848 
Q 2756 2613 2416 2484 
Q 2838 2347 3058 2040 
Q 3278 1734 3278 1309 
Q 3278 722 2862 322 
Q 2447 -78 1769 -78 
Q 1091 -78 675 323 
Q 259 725 259 1325 
Q 259 1772 486 2073 
Q 713 2375 1131 2484 
z
M 1019 3438 
Q 1019 3113 1228 2906 
Q 1438 2700 1772 2700 
Q 2097 2700 2305 2904 
Q 2513 3109 2513 3406 
Q 2513 3716 2298 3927 
Q 2084 4138 1766 4138 
Q 1444 4138 1231 3931 
Q 1019 3725 1019 3438 
z
M 838 1322 
Q 838 1081 952 856 
Q 1066 631 1291 507 
Q 1516 384 1775 384 
Q 2178 384 2440 643 
Q 2703 903 2703 1303 
Q 2703 1709 2433 1975 
Q 2163 2241 1756 2241 
Q 1359 2241 1098 1978 
Q 838 1716 838 1322 
z
" transform="scale(0.015625)"/>
     </defs>
     <use xlink:href="#ArialMT-49"/>
     <use xlink:href="#ArialMT-44" transform="translate(27.783203 0)"/>
     <use xlink:href="#ArialMT-20" transform="translate(100 0)"/>
     <use xlink:href="#ArialMT-31" transform="translate(127.783203 0)"/>
     <use xlink:href="#ArialMT-30" transform="translate(183.398438 0)"/>
     <use xlink:href="#ArialMT-38" transform="translate(239.013672 0)"/>
    </g>
   </g>
   <g id="text_61">
    <!-- I -->
    <g transform="translate(204.293875 347.516598) scale(0.2 -0.2)">
     <use xlink:href="#ArialMT-49"/>
    </g>
   </g>
   <g id="text_62">
    <!-- G -->
    <g transform="translate(282.093875 347.516598) scale(0.2 -0.2)">
     <use xlink:href="#ArialMT-47"/>
    </g>
   </g>
   <g id="text_63">
    <!-- M -->
    <g transform="translate(364.342313 347.516598) scale(0.2 -0.2)">
     <use xlink:href="#ArialMT-4d"/>
    </g>
   </g>
   <g id="text_64">
    <!-- Q -->
    <g style="fill: #ffffff" transform="translate(447.693875 347.516598) scale(0.2 -0.2)">
     <use xlink:href="#ArialMT-51"/>
    </g>
   </g>
   <g id="text_65">
    <!-- T -->
    <g style="fill: #ffffff" transform="translate(532.164187 347.516598) scale(0.2 -0.2)">
     <use xlink:href="#ArialMT-54"/>
    </g>
   </g>
   <g id="text_66">
    <!-- ID 109 -->
    <g style="fill: #262626" transform="translate(98.470125 347.516598) scale(0.2 -0.2)">
     <defs>
      <path id="ArialMT-39" d="M 350 1059 
L 891 1109 
Q 959 728 1153 556 
Q 1347 384 1650 384 
Q 1909 384 2104 503 
Q 2300 622 2425 820 
Q 2550 1019 2634 1356 
Q 2719 1694 2719 2044 
Q 2719 2081 2716 2156 
Q 2547 1888 2255 1720 
Q 1963 1553 1622 1553 
Q 1053 1553 659 1965 
Q 266 2378 266 3053 
Q 266 3750 677 4175 
Q 1088 4600 1706 4600 
Q 2153 4600 2523 4359 
Q 2894 4119 3086 3673 
Q 3278 3228 3278 2384 
Q 3278 1506 3087 986 
Q 2897 466 2520 194 
Q 2144 -78 1638 -78 
Q 1100 -78 759 220 
Q 419 519 350 1059 
z
M 2653 3081 
Q 2653 3566 2395 3850 
Q 2138 4134 1775 4134 
Q 1400 4134 1122 3828 
Q 844 3522 844 3034 
Q 844 2597 1108 2323 
Q 1372 2050 1759 2050 
Q 2150 2050 2401 2323 
Q 2653 2597 2653 3081 
z
" transform="scale(0.015625)"/>
     </defs>
     <use xlink:href="#ArialMT-49"/>
     <use xlink:href="#ArialMT-44" transform="translate(27.783203 0)"/>
     <use xlink:href="#ArialMT-20" transform="translate(100 0)"/>
     <use xlink:href="#ArialMT-31" transform="translate(127.783203 0)"/>
     <use xlink:href="#ArialMT-30" transform="translate(183.398438 0)"/>
     <use xlink:href="#ArialMT-39" transform="translate(239.013672 0)"/>
    </g>
   </g>
   <g id="text_67">
    <!-- I -->
    <g transform="translate(204.293875 398.602312) scale(0.2 -0.2)">
     <use xlink:href="#ArialMT-49"/>
    </g>
   </g>
   <g id="text_68">
    <!-- G -->
    <g transform="translate(282.093875 398.602312) scale(0.2 -0.2)">
     <use xlink:href="#ArialMT-47"/>
    </g>
   </g>
   <g id="text_69">
    <!-- M -->
    <g transform="translate(364.342313 398.602312) scale(0.2 -0.2)">
     <use xlink:href="#ArialMT-4d"/>
    </g>
   </g>
   <g id="text_70">
    <!-- Q -->
    <g style="fill: #ffffff" transform="translate(447.693875 398.602312) scale(0.2 -0.2)">
     <use xlink:href="#ArialMT-51"/>
    </g>
   </g>
   <g id="text_71">
    <!-- T -->
    <g style="fill: #ffffff" transform="translate(532.164187 398.602312) scale(0.2 -0.2)">
     <use xlink:href="#ArialMT-54"/>
    </g>
   </g>
   <g id="text_72">
    <!-- T -->
    <g style="fill: #ffffff" transform="translate(614.964187 398.602312) scale(0.2 -0.2)">
     <use xlink:href="#ArialMT-54"/>
    </g>
   </g>
   <g id="text_73">
    <!-- ID 110 -->
    <g style="fill: #262626" transform="translate(99.945125 398.602312) scale(0.2 -0.2)">
     <use xlink:href="#ArialMT-49"/>
     <use xlink:href="#ArialMT-44" transform="translate(27.783203 0)"/>
     <use xlink:href="#ArialMT-20" transform="translate(100 0)"/>
     <use xlink:href="#ArialMT-31" transform="translate(127.783203 0)"/>
     <use xlink:href="#ArialMT-31" transform="translate(176.023438 0)"/>
     <use xlink:href="#ArialMT-30" transform="translate(231.638672 0)"/>
    </g>
   </g>
   <g id="text_74">
    <!-- I -->
    <g transform="translate(204.293875 449.688027) scale(0.2 -0.2)">
     <use xlink:href="#ArialMT-49"/>
    </g>
   </g>
   <g id="text_75">
    <!-- G -->
    <g transform="translate(282.093875 449.688027) scale(0.2 -0.2)">
     <use xlink:href="#ArialMT-47"/>
    </g>
   </g>
   <g id="text_76">
    <!-- M -->
    <g transform="translate(364.342313 449.688027) scale(0.2 -0.2)">
     <use xlink:href="#ArialMT-4d"/>
    </g>
   </g>
   <g id="text_77">
    <!-- Q -->
    <g style="fill: #ffffff" transform="translate(447.693875 449.688027) scale(0.2 -0.2)">
     <use xlink:href="#ArialMT-51"/>
    </g>
   </g>
   <g id="text_78">
    <!-- T -->
    <g style="fill: #ffffff" transform="translate(532.164187 449.688027) scale(0.2 -0.2)">
     <use xlink:href="#ArialMT-54"/>
    </g>
   </g>
   <g id="text_79">
    <!-- T -->
    <g style="fill: #ffffff" transform="translate(614.964187 449.688027) scale(0.2 -0.2)">
     <use xlink:href="#ArialMT-54"/>
    </g>
   </g>
   <g id="text_80">
    <!-- Q -->
    <g style="fill: #ffffff" transform="translate(696.093875 449.688027) scale(0.2 -0.2)">
     <use xlink:href="#ArialMT-51"/>
    </g>
   </g>
   <g id="text_81">
    <!-- T -->
    <g style="fill: #ffffff" transform="translate(780.564188 449.688027) scale(0.2 -0.2)">
     <use xlink:href="#ArialMT-54"/>
    </g>
   </g>
   <g id="text_82">
    <!-- J -->
    <g style="fill: #ffffff" transform="translate(864.472 449.688027) scale(0.2 -0.2)">
     <use xlink:href="#ArialMT-4a"/>
    </g>
   </g>
   <g id="text_83">
    <!-- J -->
    <g style="fill: #ffffff" transform="translate(947.272 449.688027) scale(0.2 -0.2)">
     <use xlink:href="#ArialMT-4a"/>
    </g>
   </g>
   <g id="text_84">
    <!-- J -->
    <g style="fill: #ffffff" transform="translate(1030.072 449.688027) scale(0.2 -0.2)">
     <use xlink:href="#ArialMT-4a"/>
    </g>
   </g>
   <g id="text_85">
    <!-- ID 101 -->
    <g style="fill: #262626" transform="translate(98.470125 449.688027) scale(0.2 -0.2)">
     <use xlink:href="#ArialMT-49"/>
     <use xlink:href="#ArialMT-44" transform="translate(27.783203 0)"/>
     <use xlink:href="#ArialMT-20" transform="translate(100 0)"/>
     <use xlink:href="#ArialMT-31" transform="translate(127.783203 0)"/>
     <use xlink:href="#ArialMT-30" transform="translate(183.398438 0)"/>
     <use xlink:href="#ArialMT-31" transform="translate(239.013672 0)"/>
    </g>
   </g>
   <g id="text_86">
    <!-- I -->
    <g transform="translate(204.293875 500.773741) scale(0.2 -0.2)">
     <use xlink:href="#ArialMT-49"/>
    </g>
   </g>
   <g id="text_87">
    <!-- G -->
    <g transform="translate(282.093875 500.773741) scale(0.2 -0.2)">
     <use xlink:href="#ArialMT-47"/>
    </g>
   </g>
   <g id="text_88">
    <!-- M -->
    <g transform="translate(364.342313 500.773741) scale(0.2 -0.2)">
     <use xlink:href="#ArialMT-4d"/>
    </g>
   </g>
   <g id="text_89">
    <!-- Q -->
    <g style="fill: #ffffff" transform="translate(447.693875 500.773741) scale(0.2 -0.2)">
     <use xlink:href="#ArialMT-51"/>
    </g>
   </g>
   <g id="text_90">
    <!-- T -->
    <g style="fill: #ffffff" transform="translate(532.164187 500.773741) scale(0.2 -0.2)">
     <use xlink:href="#ArialMT-54"/>
    </g>
   </g>
   <g id="text_91">
    <!-- T -->
    <g style="fill: #ffffff" transform="translate(614.964187 500.773741) scale(0.2 -0.2)">
     <use xlink:href="#ArialMT-54"/>
    </g>
   </g>
   <g id="text_92">
    <!-- Q -->
    <g style="fill: #ffffff" transform="translate(696.093875 500.773741) scale(0.2 -0.2)">
     <use xlink:href="#ArialMT-51"/>
    </g>
   </g>
   <g id="text_93">
    <!-- O -->
    <g style="fill: #ffffff" transform="translate(778.893875 500.773741) scale(0.2 -0.2)">
     <defs>
      <path id="ArialMT-4f" d="M 309 2231 
Q 309 3372 921 4017 
Q 1534 4663 2503 4663 
Q 3138 4663 3647 4359 
Q 4156 4056 4423 3514 
Q 4691 2972 4691 2284 
Q 4691 1588 4409 1038 
Q 4128 488 3612 205 
Q 3097 -78 2500 -78 
Q 1853 -78 1343 234 
Q 834 547 571 1087 
Q 309 1628 309 2231 
z
M 934 2222 
Q 934 1394 1379 917 
Q 1825 441 2497 441 
Q 3181 441 3623 922 
Q 4066 1403 4066 2288 
Q 4066 2847 3877 3264 
Q 3688 3681 3323 3911 
Q 2959 4141 2506 4141 
Q 1863 4141 1398 3698 
Q 934 3256 934 2222 
z
" transform="scale(0.015625)"/>
     </defs>
     <use xlink:href="#ArialMT-4f"/>
    </g>
   </g>
   <g id="text_94">
    <!-- ID 106 -->
    <g style="fill: #262626" transform="translate(98.470125 500.773741) scale(0.2 -0.2)">
     <defs>
      <path id="ArialMT-36" d="M 3184 3459 
L 2625 3416 
Q 2550 3747 2413 3897 
Q 2184 4138 1850 4138 
Q 1581 4138 1378 3988 
Q 1113 3794 959 3422 
Q 806 3050 800 2363 
Q 1003 2672 1297 2822 
Q 1591 2972 1913 2972 
Q 2475 2972 2870 2558 
Q 3266 2144 3266 1488 
Q 3266 1056 3080 686 
Q 2894 316 2569 119 
Q 2244 -78 1831 -78 
Q 1128 -78 684 439 
Q 241 956 241 2144 
Q 241 3472 731 4075 
Q 1159 4600 1884 4600 
Q 2425 4600 2770 4297 
Q 3116 3994 3184 3459 
z
M 888 1484 
Q 888 1194 1011 928 
Q 1134 663 1356 523 
Q 1578 384 1822 384 
Q 2178 384 2434 671 
Q 2691 959 2691 1453 
Q 2691 1928 2437 2201 
Q 2184 2475 1800 2475 
Q 1419 2475 1153 2201 
Q 888 1928 888 1484 
z
" transform="scale(0.015625)"/>
     </defs>
     <use xlink:href="#ArialMT-49"/>
     <use xlink:href="#ArialMT-44" transform="translate(27.783203 0)"/>
     <use xlink:href="#ArialMT-20" transform="translate(100 0)"/>
     <use xlink:href="#ArialMT-31" transform="translate(127.783203 0)"/>
     <use xlink:href="#ArialMT-30" transform="translate(183.398438 0)"/>
     <use xlink:href="#ArialMT-36" transform="translate(239.013672 0)"/>
    </g>
   </g>
   <g id="text_95">
    <!-- Q -->
    <g style="fill: #ffffff" transform="translate(199.293875 551.859455) scale(0.2 -0.2)">
     <use xlink:href="#ArialMT-51"/>
    </g>
   </g>
   <g id="text_96">
    <!-- I -->
    <g transform="translate(287.093875 551.859455) scale(0.2 -0.2)">
     <use xlink:href="#ArialMT-49"/>
    </g>
   </g>
   <g id="text_97">
    <!-- G -->
    <g transform="translate(364.893875 551.859455) scale(0.2 -0.2)">
     <use xlink:href="#ArialMT-47"/>
    </g>
   </g>
   <g id="text_98">
    <!-- M -->
    <g transform="translate(447.142313 551.859455) scale(0.2 -0.2)">
     <use xlink:href="#ArialMT-4d"/>
    </g>
   </g>
   <g id="text_99">
    <!-- R -->
    <g transform="translate(531.050125 551.859455) scale(0.2 -0.2)">
     <defs>
      <path id="ArialMT-52" d="M 503 0 
L 503 4581 
L 2534 4581 
Q 3147 4581 3465 4457 
Q 3784 4334 3975 4021 
Q 4166 3709 4166 3331 
Q 4166 2844 3850 2509 
Q 3534 2175 2875 2084 
Q 3116 1969 3241 1856 
Q 3506 1613 3744 1247 
L 4541 0 
L 3778 0 
L 3172 953 
Q 2906 1366 2734 1584 
Q 2563 1803 2427 1890 
Q 2291 1978 2150 2013 
Q 2047 2034 1813 2034 
L 1109 2034 
L 1109 0 
L 503 0 
z
M 1109 2559 
L 2413 2559 
Q 2828 2559 3062 2645 
Q 3297 2731 3419 2920 
Q 3541 3109 3541 3331 
Q 3541 3656 3305 3865 
Q 3069 4075 2559 4075 
L 1109 4075 
L 1109 2559 
z
" transform="scale(0.015625)"/>
     </defs>
     <use xlink:href="#ArialMT-52"/>
    </g>
   </g>
   <g id="text_100">
    <!-- T -->
    <g style="fill: #ffffff" transform="translate(614.964187 551.859455) scale(0.2 -0.2)">
     <use xlink:href="#ArialMT-54"/>
    </g>
   </g>
   <g id="text_101">
    <!-- J -->
    <g style="fill: #ffffff" transform="translate(698.872 551.859455) scale(0.2 -0.2)">
     <use xlink:href="#ArialMT-4a"/>
    </g>
   </g>
   <g id="text_102">
    <!-- ID 104 -->
    <g style="fill: #262626" transform="translate(98.470125 551.859455) scale(0.2 -0.2)">
     <defs>
      <path id="ArialMT-34" d="M 2069 0 
L 2069 1097 
L 81 1097 
L 81 1613 
L 2172 4581 
L 2631 4581 
L 2631 1613 
L 3250 1613 
L 3250 1097 
L 2631 1097 
L 2631 0 
L 2069 0 
z
M 2069 1613 
L 2069 3678 
L 634 1613 
L 2069 1613 
z
" transform="scale(0.015625)"/>
     </defs>
     <use xlink:href="#ArialMT-49"/>
     <use xlink:href="#ArialMT-44" transform="translate(27.783203 0)"/>
     <use xlink:href="#ArialMT-20" transform="translate(100 0)"/>
     <use xlink:href="#ArialMT-31" transform="translate(127.783203 0)"/>
     <use xlink:href="#ArialMT-30" transform="translate(183.398438 0)"/>
     <use xlink:href="#ArialMT-34" transform="translate(239.013672 0)"/>
    </g>
   </g>
   <g id="text_103">
    <!-- Q -->
    <g style="fill: #ffffff" transform="translate(199.293875 602.94517) scale(0.2 -0.2)">
     <use xlink:href="#ArialMT-51"/>
    </g>
   </g>
   <g id="text_104">
    <!-- Q -->
    <g style="fill: #ffffff" transform="translate(282.093875 602.94517) scale(0.2 -0.2)">
     <use xlink:href="#ArialMT-51"/>
    </g>
   </g>
   <g id="text_105">
    <!-- M -->
    <g transform="translate(364.342313 602.94517) scale(0.2 -0.2)">
     <use xlink:href="#ArialMT-4d"/>
    </g>
   </g>
   <g id="text_106">
    <!-- Q -->
    <g style="fill: #ffffff" transform="translate(447.693875 602.94517) scale(0.2 -0.2)">
     <use xlink:href="#ArialMT-51"/>
    </g>
   </g>
   <g id="text_107">
    <!-- Q -->
    <g style="fill: #ffffff" transform="translate(530.493875 602.94517) scale(0.2 -0.2)">
     <use xlink:href="#ArialMT-51"/>
    </g>
   </g>
   <g id="text_108">
    <!-- J -->
    <g style="fill: #ffffff" transform="translate(616.072 602.94517) scale(0.2 -0.2)">
     <use xlink:href="#ArialMT-4a"/>
    </g>
   </g>
   <g id="text_109">
    <!-- J -->
    <g style="fill: #ffffff" transform="translate(698.872 602.94517) scale(0.2 -0.2)">
     <use xlink:href="#ArialMT-4a"/>
    </g>
   </g>
   <g id="text_110">
    <!-- I -->
    <g transform="translate(783.893875 602.94517) scale(0.2 -0.2)">
     <use xlink:href="#ArialMT-49"/>
    </g>
   </g>
   <g id="text_111">
    <!-- G -->
    <g transform="translate(861.693875 602.94517) scale(0.2 -0.2)">
     <use xlink:href="#ArialMT-47"/>
    </g>
   </g>
   <g id="text_112">
    <!-- M -->
    <g transform="translate(943.942313 602.94517) scale(0.2 -0.2)">
     <use xlink:href="#ArialMT-4d"/>
    </g>
   </g>
   <g id="text_113">
    <!-- ID 104 -->
    <g style="fill: #262626" transform="translate(98.470125 602.94517) scale(0.2 -0.2)">
     <use xlink:href="#ArialMT-49"/>
     <use xlink:href="#ArialMT-44" transform="translate(27.783203 0)"/>
     <use xlink:href="#ArialMT-20" transform="translate(100 0)"/>
     <use xlink:href="#ArialMT-31" transform="translate(127.783203 0)"/>
     <use xlink:href="#ArialMT-30" transform="translate(183.398438 0)"/>
     <use xlink:href="#ArialMT-34" transform="translate(239.013672 0)"/>
    </g>
   </g>
   <g id="text_114">
    <!-- Q -->
    <g style="fill: #ffffff" transform="translate(199.293875 654.030884) scale(0.2 -0.2)">
     <use xlink:href="#ArialMT-51"/>
    </g>
   </g>
   <g id="text_115">
    <!-- B -->
    <g transform="translate(283.201687 654.030884) scale(0.2 -0.2)">
     <use xlink:href="#ArialMT-42"/>
    </g>
   </g>
   <g id="text_116">
    <!-- T -->
    <g style="fill: #ffffff" transform="translate(366.564188 654.030884) scale(0.2 -0.2)">
     <use xlink:href="#ArialMT-54"/>
    </g>
   </g>
   <g id="text_117">
    <!-- J -->
    <g style="fill: #ffffff" transform="translate(450.472 654.030884) scale(0.2 -0.2)">
     <use xlink:href="#ArialMT-4a"/>
    </g>
   </g>
   <g id="text_118">
    <!-- J -->
    <g style="fill: #ffffff" transform="translate(533.272 654.030884) scale(0.2 -0.2)">
     <use xlink:href="#ArialMT-4a"/>
    </g>
   </g>
   <g id="text_119">
    <!-- I -->
    <g transform="translate(618.293875 654.030884) scale(0.2 -0.2)">
     <use xlink:href="#ArialMT-49"/>
    </g>
   </g>
   <g id="text_120">
    <!-- G -->
    <g transform="translate(696.093875 654.030884) scale(0.2 -0.2)">
     <use xlink:href="#ArialMT-47"/>
    </g>
   </g>
   <g id="text_121">
    <!-- M -->
    <g transform="translate(778.342313 654.030884) scale(0.2 -0.2)">
     <use xlink:href="#ArialMT-4d"/>
    </g>
   </g>
   <g id="text_122">
    <!-- ID 112 -->
    <g style="fill: #262626" transform="translate(99.945125 654.030884) scale(0.2 -0.2)">
     <use xlink:href="#ArialMT-49"/>
     <use xlink:href="#ArialMT-44" transform="translate(27.783203 0)"/>
     <use xlink:href="#ArialMT-20" transform="translate(100 0)"/>
     <use xlink:href="#ArialMT-31" transform="translate(127.783203 0)"/>
     <use xlink:href="#ArialMT-31" transform="translate(176.023438 0)"/>
     <use xlink:href="#ArialMT-32" transform="translate(231.638672 0)"/>
    </g>
   </g>
   <g id="text_123">
    <!-- Q -->
    <g style="fill: #ffffff" transform="translate(199.293875 705.116598) scale(0.2 -0.2)">
     <use xlink:href="#ArialMT-51"/>
    </g>
   </g>
   <g id="text_124">
    <!-- Z -->
    <g transform="translate(283.764187 705.116598) scale(0.2 -0.2)">
     <defs>
      <path id="ArialMT-5a" d="M 128 0 
L 128 563 
L 2475 3497 
Q 2725 3809 2950 4041 
L 394 4041 
L 394 4581 
L 3675 4581 
L 3675 4041 
L 1103 863 
L 825 541 
L 3750 541 
L 3750 0 
L 128 0 
z
" transform="scale(0.015625)"/>
     </defs>
     <use xlink:href="#ArialMT-5a"/>
    </g>
   </g>
   <g id="text_125">
    <!-- B -->
    <g transform="translate(366.001688 705.116598) scale(0.2 -0.2)">
     <use xlink:href="#ArialMT-42"/>
    </g>
   </g>
   <g id="text_126">
    <!-- T -->
    <g style="fill: #ffffff" transform="translate(449.364187 705.116598) scale(0.2 -0.2)">
     <use xlink:href="#ArialMT-54"/>
    </g>
   </g>
   <g id="text_127">
    <!-- Q -->
    <g style="fill: #ffffff" transform="translate(530.493875 705.116598) scale(0.2 -0.2)">
     <use xlink:href="#ArialMT-51"/>
    </g>
   </g>
   <g id="text_128">
    <!-- T -->
    <g style="fill: #ffffff" transform="translate(614.964187 705.116598) scale(0.2 -0.2)">
     <use xlink:href="#ArialMT-54"/>
    </g>
   </g>
   <g id="text_129">
    <!-- I -->
    <g transform="translate(701.093875 705.116598) scale(0.2 -0.2)">
     <use xlink:href="#ArialMT-49"/>
    </g>
   </g>
   <g id="text_130">
    <!-- G -->
    <g transform="translate(778.893875 705.116598) scale(0.2 -0.2)">
     <use xlink:href="#ArialMT-47"/>
    </g>
   </g>
   <g id="text_131">
    <!-- M -->
    <g transform="translate(861.142313 705.116598) scale(0.2 -0.2)">
     <use xlink:href="#ArialMT-4d"/>
    </g>
   </g>
   <g id="text_132">
    <!-- ID 103 -->
    <g style="fill: #262626" transform="translate(98.470125 705.116598) scale(0.2 -0.2)">
     <use xlink:href="#ArialMT-49"/>
     <use xlink:href="#ArialMT-44" transform="translate(27.783203 0)"/>
     <use xlink:href="#ArialMT-20" transform="translate(100 0)"/>
     <use xlink:href="#ArialMT-31" transform="translate(127.783203 0)"/>
     <use xlink:href="#ArialMT-30" transform="translate(183.398438 0)"/>
     <use xlink:href="#ArialMT-33" transform="translate(239.013672 0)"/>
    </g>
   </g>
   <g id="text_133">
    <!-- Q -->
    <g style="fill: #ffffff" transform="translate(199.293875 756.202312) scale(0.2 -0.2)">
     <use xlink:href="#ArialMT-51"/>
    </g>
   </g>
   <g id="text_134">
    <!-- Q -->
    <g style="fill: #ffffff" transform="translate(282.093875 756.202312) scale(0.2 -0.2)">
     <use xlink:href="#ArialMT-51"/>
    </g>
   </g>
   <g id="text_135">
    <!-- Q -->
    <g style="fill: #ffffff" transform="translate(364.893875 756.202312) scale(0.2 -0.2)">
     <use xlink:href="#ArialMT-51"/>
    </g>
   </g>
   <g id="text_136">
    <!-- B -->
    <g transform="translate(448.801687 756.202312) scale(0.2 -0.2)">
     <use xlink:href="#ArialMT-42"/>
    </g>
   </g>
   <g id="text_137">
    <!-- T -->
    <g style="fill: #ffffff" transform="translate(532.164187 756.202312) scale(0.2 -0.2)">
     <use xlink:href="#ArialMT-54"/>
    </g>
   </g>
   <g id="text_138">
    <!-- B -->
    <g transform="translate(614.401687 756.202312) scale(0.2 -0.2)">
     <use xlink:href="#ArialMT-42"/>
    </g>
   </g>
   <g id="text_139">
    <!-- I -->
    <g transform="translate(701.093875 756.202312) scale(0.2 -0.2)">
     <use xlink:href="#ArialMT-49"/>
    </g>
   </g>
   <g id="text_140">
    <!-- G -->
    <g transform="translate(778.893875 756.202312) scale(0.2 -0.2)">
     <use xlink:href="#ArialMT-47"/>
    </g>
   </g>
   <g id="text_141">
    <!-- M -->
    <g transform="translate(861.142313 756.202312) scale(0.2 -0.2)">
     <use xlink:href="#ArialMT-4d"/>
    </g>
   </g>
   <g id="text_142">
    <!-- ID 111 -->
    <g style="fill: #262626" transform="translate(101.420125 756.202312) scale(0.2 -0.2)">
     <use xlink:href="#ArialMT-49"/>
     <use xlink:href="#ArialMT-44" transform="translate(27.783203 0)"/>
     <use xlink:href="#ArialMT-20" transform="translate(100 0)"/>
     <use xlink:href="#ArialMT-31" transform="translate(127.783203 0)"/>
     <use xlink:href="#ArialMT-31" transform="translate(176.023438 0)"/>
     <use xlink:href="#ArialMT-31" transform="translate(224.263672 0)"/>
    </g>
   </g>
   <g id="text_143">
    <!-- I -->
    <g transform="translate(204.293875 807.288027) scale(0.2 -0.2)">
     <use xlink:href="#ArialMT-49"/>
    </g>
   </g>
   <g id="text_144">
    <!-- G -->
    <g transform="translate(282.093875 807.288027) scale(0.2 -0.2)">
     <use xlink:href="#ArialMT-47"/>
    </g>
   </g>
   <g id="text_145">
    <!-- M -->
    <g transform="translate(364.342313 807.288027) scale(0.2 -0.2)">
     <use xlink:href="#ArialMT-4d"/>
    </g>
   </g>
   <g id="text_146">
    <!-- T -->
    <g style="fill: #ffffff" transform="translate(449.364187 807.288027) scale(0.2 -0.2)">
     <use xlink:href="#ArialMT-54"/>
    </g>
   </g>
   <g id="text_147">
    <!-- B -->
    <g transform="translate(531.601687 807.288027) scale(0.2 -0.2)">
     <use xlink:href="#ArialMT-42"/>
    </g>
   </g>
   <g id="text_148">
    <!-- T -->
    <g style="fill: #ffffff" transform="translate(614.964187 807.288027) scale(0.2 -0.2)">
     <use xlink:href="#ArialMT-54"/>
    </g>
   </g>
   <g id="text_149">
    <!-- ID 112 -->
    <g style="fill: #262626" transform="translate(99.945125 807.288027) scale(0.2 -0.2)">
     <use xlink:href="#ArialMT-49"/>
     <use xlink:href="#ArialMT-44" transform="translate(27.783203 0)"/>
     <use xlink:href="#ArialMT-20" transform="translate(100 0)"/>
     <use xlink:href="#ArialMT-31" transform="translate(127.783203 0)"/>
     <use xlink:href="#ArialMT-31" transform="translate(176.023438 0)"/>
     <use xlink:href="#ArialMT-32" transform="translate(231.638672 0)"/>
    </g>
   </g>
   <g id="text_150">
    <!-- I -->
    <g transform="translate(204.293875 858.373741) scale(0.2 -0.2)">
     <use xlink:href="#ArialMT-49"/>
    </g>
   </g>
   <g id="text_151">
    <!-- G -->
    <g transform="translate(282.093875 858.373741) scale(0.2 -0.2)">
     <use xlink:href="#ArialMT-47"/>
    </g>
   </g>
   <g id="text_152">
    <!-- M -->
    <g transform="translate(364.342313 858.373741) scale(0.2 -0.2)">
     <use xlink:href="#ArialMT-4d"/>
    </g>
   </g>
   <g id="text_153">
    <!-- T -->
    <g style="fill: #ffffff" transform="translate(449.364187 858.373741) scale(0.2 -0.2)">
     <use xlink:href="#ArialMT-54"/>
    </g>
   </g>
   <g id="text_154">
    <!-- U -->
    <g transform="translate(531.050125 858.373741) scale(0.2 -0.2)">
     <defs>
      <path id="ArialMT-55" d="M 3500 4581 
L 4106 4581 
L 4106 1934 
Q 4106 1244 3950 837 
Q 3794 431 3386 176 
Q 2978 -78 2316 -78 
Q 1672 -78 1262 144 
Q 853 366 678 786 
Q 503 1206 503 1934 
L 503 4581 
L 1109 4581 
L 1109 1938 
Q 1109 1341 1220 1058 
Q 1331 775 1601 622 
Q 1872 469 2263 469 
Q 2931 469 3215 772 
Q 3500 1075 3500 1938 
L 3500 4581 
z
" transform="scale(0.015625)"/>
     </defs>
     <use xlink:href="#ArialMT-55"/>
    </g>
   </g>
   <g id="text_155">
    <!-- S -->
    <g transform="translate(614.401687 858.373741) scale(0.2 -0.2)">
     <use xlink:href="#ArialMT-53"/>
    </g>
   </g>
   <g id="text_156">
    <!-- T -->
    <g style="fill: #ffffff" transform="translate(697.764187 858.373741) scale(0.2 -0.2)">
     <use xlink:href="#ArialMT-54"/>
    </g>
   </g>
   <g id="text_157">
    <!-- Q -->
    <g style="fill: #ffffff" transform="translate(778.893875 858.373741) scale(0.2 -0.2)">
     <use xlink:href="#ArialMT-51"/>
    </g>
   </g>
   <g id="text_158">
    <!-- Q -->
    <g style="fill: #ffffff" transform="translate(861.693875 858.373741) scale(0.2 -0.2)">
     <use xlink:href="#ArialMT-51"/>
    </g>
   </g>
   <g id="text_159">
    <!-- Q -->
    <g style="fill: #ffffff" transform="translate(944.493875 858.373741) scale(0.2 -0.2)">
     <use xlink:href="#ArialMT-51"/>
    </g>
   </g>
   <g id="text_160">
    <!-- ID 105 -->
    <g style="fill: #262626" transform="translate(98.470125 858.373741) scale(0.2 -0.2)">
     <use xlink:href="#ArialMT-49"/>
     <use xlink:href="#ArialMT-44" transform="translate(27.783203 0)"/>
     <use xlink:href="#ArialMT-20" transform="translate(100 0)"/>
     <use xlink:href="#ArialMT-31" transform="translate(127.783203 0)"/>
     <use xlink:href="#ArialMT-30" transform="translate(183.398438 0)"/>
     <use xlink:href="#ArialMT-35" transform="translate(239.013672 0)"/>
    </g>
   </g>
   <g id="text_161">
    <!-- I -->
    <g transform="translate(204.293875 909.459455) scale(0.2 -0.2)">
     <use xlink:href="#ArialMT-49"/>
    </g>
   </g>
   <g id="text_162">
    <!-- G -->
    <g transform="translate(282.093875 909.459455) scale(0.2 -0.2)">
     <use xlink:href="#ArialMT-47"/>
    </g>
   </g>
   <g id="text_163">
    <!-- M -->
    <g transform="translate(364.342313 909.459455) scale(0.2 -0.2)">
     <use xlink:href="#ArialMT-4d"/>
    </g>
   </g>
   <g id="text_164">
    <!-- T -->
    <g style="fill: #ffffff" transform="translate(449.364187 909.459455) scale(0.2 -0.2)">
     <use xlink:href="#ArialMT-54"/>
    </g>
   </g>
   <g id="text_165">
    <!-- P -->
    <g transform="translate(531.601687 909.459455) scale(0.2 -0.2)">
     <use xlink:href="#ArialMT-50"/>
    </g>
   </g>
   <g id="text_166">
    <!-- ID 111 -->
    <g style="fill: #262626" transform="translate(101.420125 909.459455) scale(0.2 -0.2)">
     <use xlink:href="#ArialMT-49"/>
     <use xlink:href="#ArialMT-44" transform="translate(27.783203 0)"/>
     <use xlink:href="#ArialMT-20" transform="translate(100 0)"/>
     <use xlink:href="#ArialMT-31" transform="translate(127.783203 0)"/>
     <use xlink:href="#ArialMT-31" transform="translate(176.023438 0)"/>
     <use xlink:href="#ArialMT-31" transform="translate(224.263672 0)"/>
    </g>
   </g>
   <g id="text_167">
    <!-- Q -->
    <g style="fill: #ffffff" transform="translate(199.293875 960.54517) scale(0.2 -0.2)">
     <use xlink:href="#ArialMT-51"/>
    </g>
   </g>
   <g id="text_168">
    <!-- R -->
    <g transform="translate(282.650125 960.54517) scale(0.2 -0.2)">
     <use xlink:href="#ArialMT-52"/>
    </g>
   </g>
   <g id="text_169">
    <!-- Q -->
    <g style="fill: #ffffff" transform="translate(364.893875 960.54517) scale(0.2 -0.2)">
     <use xlink:href="#ArialMT-51"/>
    </g>
   </g>
   <g id="text_170">
    <!-- T -->
    <g style="fill: #ffffff" transform="translate(449.364187 960.54517) scale(0.2 -0.2)">
     <use xlink:href="#ArialMT-54"/>
    </g>
   </g>
   <g id="text_171">
    <!-- W -->
    <g transform="translate(528.832937 960.54517) scale(0.2 -0.2)">
     <defs>
      <path id="ArialMT-57" d="M 1294 0 
L 78 4581 
L 700 4581 
L 1397 1578 
Q 1509 1106 1591 641 
Q 1766 1375 1797 1488 
L 2669 4581 
L 3400 4581 
L 4056 2263 
Q 4303 1400 4413 641 
Q 4500 1075 4641 1638 
L 5359 4581 
L 5969 4581 
L 4713 0 
L 4128 0 
L 3163 3491 
Q 3041 3928 3019 4028 
Q 2947 3713 2884 3491 
L 1913 0 
L 1294 0 
z
" transform="scale(0.015625)"/>
     </defs>
     <use xlink:href="#ArialMT-57"/>
    </g>
   </g>
   <g id="text_172">
    <!-- T -->
    <g style="fill: #ffffff" transform="translate(614.964187 960.54517) scale(0.2 -0.2)">
     <use xlink:href="#ArialMT-54"/>
    </g>
   </g>
   <g id="text_173">
    <!-- ID 106 -->
    <g style="fill: #262626" transform="translate(98.470125 960.54517) scale(0.2 -0.2)">
     <use xlink:href="#ArialMT-49"/>
     <use xlink:href="#ArialMT-44" transform="translate(27.783203 0)"/>
     <use xlink:href="#ArialMT-20" transform="translate(100 0)"/>
     <use xlink:href="#ArialMT-31" transform="translate(127.783203 0)"/>
     <use xlink:href="#ArialMT-30" transform="translate(183.398438 0)"/>
     <use xlink:href="#ArialMT-36" transform="translate(239.013672 0)"/>
    </g>
   </g>
   <g id="text_174">
    <!-- Q -->
    <g style="fill: #ffffff" transform="translate(199.293875 1011.630884) scale(0.2 -0.2)">
     <use xlink:href="#ArialMT-51"/>
    </g>
   </g>
   <g id="text_175">
    <!-- M -->
    <g transform="translate(281.542312 1011.630884) scale(0.2 -0.2)">
     <use xlink:href="#ArialMT-4d"/>
    </g>
   </g>
   <g id="text_176">
    <!-- B -->
    <g transform="translate(366.001688 1011.630884) scale(0.2 -0.2)">
     <use xlink:href="#ArialMT-42"/>
    </g>
   </g>
   <g id="text_177">
    <!-- E -->
    <g transform="translate(448.801687 1011.630884) scale(0.2 -0.2)">
     <defs>
      <path id="ArialMT-45" d="M 506 0 
L 506 4581 
L 3819 4581 
L 3819 4041 
L 1113 4041 
L 1113 2638 
L 3647 2638 
L 3647 2100 
L 1113 2100 
L 1113 541 
L 3925 541 
L 3925 0 
L 506 0 
z
" transform="scale(0.015625)"/>
     </defs>
     <use xlink:href="#ArialMT-45"/>
    </g>
   </g>
   <g id="text_178">
    <!-- U -->
    <g transform="translate(531.050125 1011.630884) scale(0.2 -0.2)">
     <use xlink:href="#ArialMT-55"/>
    </g>
   </g>
   <g id="text_179">
    <!-- R -->
    <g transform="translate(613.850125 1011.630884) scale(0.2 -0.2)">
     <use xlink:href="#ArialMT-52"/>
    </g>
   </g>
   <g id="text_180">
    <!-- F -->
    <g style="fill: #ffffff" transform="translate(697.764187 1011.630884) scale(0.2 -0.2)">
     <defs>
      <path id="ArialMT-46" d="M 525 0 
L 525 4581 
L 3616 4581 
L 3616 4041 
L 1131 4041 
L 1131 2622 
L 3281 2622 
L 3281 2081 
L 1131 2081 
L 1131 0 
L 525 0 
z
" transform="scale(0.015625)"/>
     </defs>
     <use xlink:href="#ArialMT-46"/>
    </g>
   </g>
   <g id="text_181">
    <!-- R -->
    <g transform="translate(779.450125 1011.630884) scale(0.2 -0.2)">
     <use xlink:href="#ArialMT-52"/>
    </g>
   </g>
   <g id="text_182">
    <!-- ID 107 -->
    <g style="fill: #262626" transform="translate(98.470125 1011.630884) scale(0.2 -0.2)">
     <use xlink:href="#ArialMT-49"/>
     <use xlink:href="#ArialMT-44" transform="translate(27.783203 0)"/>
     <use xlink:href="#ArialMT-20" transform="translate(100 0)"/>
     <use xlink:href="#ArialMT-31" transform="translate(127.783203 0)"/>
     <use xlink:href="#ArialMT-30" transform="translate(183.398438 0)"/>
     <use xlink:href="#ArialMT-37" transform="translate(239.013672 0)"/>
    </g>
   </g>
  </g>
 </g>
 <defs>
  <clipPath id="pe0c2ce50fe">
   <rect x="0.072" y="0.072" width="1490.4" height="1072.8"/>
  </clipPath>
 </defs>
</svg>
