<?xml version="1.0" encoding="utf-8" standalone="no"?>
<!DOCTYPE svg PUBLIC "-//W3C//DTD SVG 1.1//EN"
  "http://www.w3.org/Graphics/SVG/1.1/DTD/svg11.dtd">
<svg xmlns:xlink="http://www.w3.org/1999/xlink" width="1706.544pt" height="900.144pt" viewBox="0 0 1706.544 900.144" xmlns="http://www.w3.org/2000/svg" version="1.1">
 <metadata>
  <rdf:RDF xmlns:dc="http://purl.org/dc/elements/1.1/" xmlns:cc="http://creativecommons.org/ns#" xmlns:rdf="http://www.w3.org/1999/02/22-rdf-syntax-ns#">
   <cc:Work>
    <dc:type rdf:resource="http://purl.org/dc/dcmitype/StillImage"/>
    <dc:date>2025-05-06T22:08:07.113669</dc:date>
    <dc:format>image/svg+xml</dc:format>
    <dc:creator>
     <cc:Agent>
      <dc:title>Matplotlib v3.10.1, https://matplotlib.org/</dc:title>
     </cc:Agent>
    </dc:creator>
   </cc:Work>
  </rdf:RDF>
 </metadata>
 <defs>
  <style type="text/css">*{stroke-linejoin: round; stroke-linecap: butt}</style>
 </defs>
 <g id="figure_1">
  <g id="patch_1">
   <path d="M 0 900.144 
L 1706.544 900.144 
L 1706.544 0 
L 0 0 
z
" style="fill: #ffffff"/>
  </g>
  <g id="axes_1">
   <g id="patch_2">
    <path d="M 162.586286 100.072 
L 243.843429 100.072 
L 243.843429 70.072 
L 162.586286 70.072 
z
" clip-path="url(#p68dc904126)" style="fill: #0000ff; stroke: #ffffff; stroke-linejoin: miter"/>
   </g>
   <g id="patch_3">
    <path d="M 243.843429 100.072 
L 325.100571 100.072 
L 325.100571 70.072 
L 243.843429 70.072 
z
" clip-path="url(#p68dc904126)" style="fill: #f0fff0; stroke: #ffffff; stroke-linejoin: miter"/>
   </g>
   <g id="patch_4">
    <path d="M 325.100571 100.072 
L 406.357714 100.072 
L 406.357714 70.072 
L 325.100571 70.072 
z
" clip-path="url(#p68dc904126)" style="fill: #00ff7f; stroke: #ffffff; stroke-linejoin: miter"/>
   </g>
   <g id="patch_5">
    <path d="M 406.357714 100.072 
L 487.614857 100.072 
L 487.614857 70.072 
L 406.357714 70.072 
z
" clip-path="url(#p68dc904126)" style="fill: #f0fff0; stroke: #ffffff; stroke-linejoin: miter"/>
   </g>
   <g id="patch_6">
    <path d="M 487.614857 100.072 
L 568.872 100.072 
L 568.872 70.072 
L 487.614857 70.072 
z
" clip-path="url(#p68dc904126)" style="fill: #ff69b4; stroke: #ffffff; stroke-linejoin: miter"/>
   </g>
   <g id="patch_7">
    <path d="M 568.872 100.072 
L 650.129143 100.072 
L 650.129143 70.072 
L 568.872 70.072 
z
" clip-path="url(#p68dc904126)" style="fill: #ffff00; stroke: #ffffff; stroke-linejoin: miter"/>
   </g>
   <g id="patch_8">
    <path d="M 650.129143 100.072 
L 731.386286 100.072 
L 731.386286 70.072 
L 650.129143 70.072 
z
" clip-path="url(#p68dc904126)" style="fill: #0000ff; stroke: #ffffff; stroke-linejoin: miter"/>
   </g>
   <g id="patch_9">
    <path d="M 731.386286 100.072 
L 812.643429 100.072 
L 812.643429 70.072 
L 731.386286 70.072 
z
" clip-path="url(#p68dc904126)" style="fill: #ffff00; stroke: #ffffff; stroke-linejoin: miter"/>
   </g>
   <g id="patch_10">
    <path d="M 812.643429 100.072 
L 893.900571 100.072 
L 893.900571 70.072 
L 812.643429 70.072 
z
" clip-path="url(#p68dc904126)" style="fill: #00bfff; stroke: #ffffff; stroke-linejoin: miter"/>
   </g>
   <g id="patch_11">
    <path d="M 162.586286 150.072 
L 243.843429 150.072 
L 243.843429 120.072 
L 162.586286 120.072 
z
" clip-path="url(#p68dc904126)" style="fill: #0000ff; stroke: #ffffff; stroke-linejoin: miter"/>
   </g>
   <g id="patch_12">
    <path d="M 243.843429 150.072 
L 325.100571 150.072 
L 325.100571 120.072 
L 243.843429 120.072 
z
" clip-path="url(#p68dc904126)" style="fill: #c0c0c0; stroke: #ffffff; stroke-linejoin: miter"/>
   </g>
   <g id="patch_13">
    <path d="M 325.100571 150.072 
L 406.357714 150.072 
L 406.357714 120.072 
L 325.100571 120.072 
z
" clip-path="url(#p68dc904126)" style="fill: #c0c0c0; stroke: #ffffff; stroke-linejoin: miter"/>
   </g>
   <g id="patch_14">
    <path d="M 406.357714 150.072 
L 487.614857 150.072 
L 487.614857 120.072 
L 406.357714 120.072 
z
" clip-path="url(#p68dc904126)" style="fill: #f08080; stroke: #ffffff; stroke-linejoin: miter"/>
   </g>
   <g id="patch_15">
    <path d="M 487.614857 150.072 
L 568.872 150.072 
L 568.872 120.072 
L 487.614857 120.072 
z
" clip-path="url(#p68dc904126)" style="fill: #0000ff; stroke: #ffffff; stroke-linejoin: miter"/>
   </g>
   <g id="patch_16">
    <path d="M 568.872 150.072 
L 650.129143 150.072 
L 650.129143 120.072 
L 568.872 120.072 
z
" clip-path="url(#p68dc904126)" style="fill: #ff69b4; stroke: #ffffff; stroke-linejoin: miter"/>
   </g>
   <g id="patch_17">
    <path d="M 650.129143 150.072 
L 731.386286 150.072 
L 731.386286 120.072 
L 650.129143 120.072 
z
" clip-path="url(#p68dc904126)" style="fill: #00ff7f; stroke: #ffffff; stroke-linejoin: miter"/>
   </g>
   <g id="patch_18">
    <path d="M 731.386286 150.072 
L 812.643429 150.072 
L 812.643429 120.072 
L 731.386286 120.072 
z
" clip-path="url(#p68dc904126)" style="fill: #0000ff; stroke: #ffffff; stroke-linejoin: miter"/>
   </g>
   <g id="patch_19">
    <path d="M 812.643429 150.072 
L 893.900571 150.072 
L 893.900571 120.072 
L 812.643429 120.072 
z
" clip-path="url(#p68dc904126)" style="fill: #ffff00; stroke: #ffffff; stroke-linejoin: miter"/>
   </g>
   <g id="patch_20">
    <path d="M 893.900571 150.072 
L 975.157714 150.072 
L 975.157714 120.072 
L 893.900571 120.072 
z
" clip-path="url(#p68dc904126)" style="fill: #ff0000; stroke: #ffffff; stroke-linejoin: miter"/>
   </g>
   <g id="patch_21">
    <path d="M 975.157714 150.072 
L 1056.414857 150.072 
L 1056.414857 120.072 
L 975.157714 120.072 
z
" clip-path="url(#p68dc904126)" style="fill: #ffe4b5; stroke: #ffffff; stroke-linejoin: miter"/>
   </g>
   <g id="patch_22">
    <path d="M 1056.414857 150.072 
L 1137.672 150.072 
L 1137.672 120.072 
L 1056.414857 120.072 
z
" clip-path="url(#p68dc904126)" style="fill: #f0fff0; stroke: #ffffff; stroke-linejoin: miter"/>
   </g>
   <g id="patch_23">
    <path d="M 1137.672 150.072 
L 1218.929143 150.072 
L 1218.929143 120.072 
L 1137.672 120.072 
z
" clip-path="url(#p68dc904126)" style="fill: #ffd700; stroke: #ffffff; stroke-linejoin: miter"/>
   </g>
   <g id="patch_24">
    <path d="M 1218.929143 150.072 
L 1300.186286 150.072 
L 1300.186286 120.072 
L 1218.929143 120.072 
z
" clip-path="url(#p68dc904126)" style="fill: #7b68ee; stroke: #ffffff; stroke-linejoin: miter"/>
   </g>
   <g id="patch_25">
    <path d="M 162.586286 200.072 
L 243.843429 200.072 
L 243.843429 170.072 
L 162.586286 170.072 
z
" clip-path="url(#p68dc904126)" style="fill: #add8e6; stroke: #ffffff; stroke-linejoin: miter"/>
   </g>
   <g id="patch_26">
    <path d="M 243.843429 200.072 
L 325.100571 200.072 
L 325.100571 170.072 
L 243.843429 170.072 
z
" clip-path="url(#p68dc904126)" style="fill: #ff69b4; stroke: #ffffff; stroke-linejoin: miter"/>
   </g>
   <g id="patch_27">
    <path d="M 325.100571 200.072 
L 406.357714 200.072 
L 406.357714 170.072 
L 325.100571 170.072 
z
" clip-path="url(#p68dc904126)" style="fill: #ff8c00; stroke: #ffffff; stroke-linejoin: miter"/>
   </g>
   <g id="patch_28">
    <path d="M 406.357714 200.072 
L 487.614857 200.072 
L 487.614857 170.072 
L 406.357714 170.072 
z
" clip-path="url(#p68dc904126)" style="fill: #ff8c00; stroke: #ffffff; stroke-linejoin: miter"/>
   </g>
   <g id="patch_29">
    <path d="M 487.614857 200.072 
L 568.872 200.072 
L 568.872 170.072 
L 487.614857 170.072 
z
" clip-path="url(#p68dc904126)" style="fill: #00ffff; stroke: #ffffff; stroke-linejoin: miter"/>
   </g>
   <g id="patch_30">
    <path d="M 568.872 200.072 
L 650.129143 200.072 
L 650.129143 170.072 
L 568.872 170.072 
z
" clip-path="url(#p68dc904126)" style="fill: #ff8c00; stroke: #ffffff; stroke-linejoin: miter"/>
   </g>
   <g id="patch_31">
    <path d="M 650.129143 200.072 
L 731.386286 200.072 
L 731.386286 170.072 
L 650.129143 170.072 
z
" clip-path="url(#p68dc904126)" style="fill: #00ffff; stroke: #ffffff; stroke-linejoin: miter"/>
   </g>
   <g id="patch_32">
    <path d="M 162.586286 250.072 
L 243.843429 250.072 
L 243.843429 220.072 
L 162.586286 220.072 
z
" clip-path="url(#p68dc904126)" style="fill: #add8e6; stroke: #ffffff; stroke-linejoin: miter"/>
   </g>
   <g id="patch_33">
    <path d="M 243.843429 250.072 
L 325.100571 250.072 
L 325.100571 220.072 
L 243.843429 220.072 
z
" clip-path="url(#p68dc904126)" style="fill: #ff69b4; stroke: #ffffff; stroke-linejoin: miter"/>
   </g>
   <g id="patch_34">
    <path d="M 325.100571 250.072 
L 406.357714 250.072 
L 406.357714 220.072 
L 325.100571 220.072 
z
" clip-path="url(#p68dc904126)" style="fill: #ff8c00; stroke: #ffffff; stroke-linejoin: miter"/>
   </g>
   <g id="patch_35">
    <path d="M 406.357714 250.072 
L 487.614857 250.072 
L 487.614857 220.072 
L 406.357714 220.072 
z
" clip-path="url(#p68dc904126)" style="fill: #ff69b4; stroke: #ffffff; stroke-linejoin: miter"/>
   </g>
   <g id="patch_36">
    <path d="M 487.614857 250.072 
L 568.872 250.072 
L 568.872 220.072 
L 487.614857 220.072 
z
" clip-path="url(#p68dc904126)" style="fill: #c71585; stroke: #ffffff; stroke-linejoin: miter"/>
   </g>
   <g id="patch_37">
    <path d="M 568.872 250.072 
L 650.129143 250.072 
L 650.129143 220.072 
L 568.872 220.072 
z
" clip-path="url(#p68dc904126)" style="fill: #00ffff; stroke: #ffffff; stroke-linejoin: miter"/>
   </g>
   <g id="patch_38">
    <path d="M 650.129143 250.072 
L 731.386286 250.072 
L 731.386286 220.072 
L 650.129143 220.072 
z
" clip-path="url(#p68dc904126)" style="fill: #c71585; stroke: #ffffff; stroke-linejoin: miter"/>
   </g>
   <g id="patch_39">
    <path d="M 731.386286 250.072 
L 812.643429 250.072 
L 812.643429 220.072 
L 731.386286 220.072 
z
" clip-path="url(#p68dc904126)" style="fill: #00ffff; stroke: #ffffff; stroke-linejoin: miter"/>
   </g>
   <g id="patch_40">
    <path d="M 162.586286 300.072 
L 243.843429 300.072 
L 243.843429 270.072 
L 162.586286 270.072 
z
" clip-path="url(#p68dc904126)" style="fill: #add8e6; stroke: #ffffff; stroke-linejoin: miter"/>
   </g>
   <g id="patch_41">
    <path d="M 243.843429 300.072 
L 325.100571 300.072 
L 325.100571 270.072 
L 243.843429 270.072 
z
" clip-path="url(#p68dc904126)" style="fill: #ff69b4; stroke: #ffffff; stroke-linejoin: miter"/>
   </g>
   <g id="patch_42">
    <path d="M 325.100571 300.072 
L 406.357714 300.072 
L 406.357714 270.072 
L 325.100571 270.072 
z
" clip-path="url(#p68dc904126)" style="fill: #ff8c00; stroke: #ffffff; stroke-linejoin: miter"/>
   </g>
   <g id="patch_43">
    <path d="M 406.357714 300.072 
L 487.614857 300.072 
L 487.614857 270.072 
L 406.357714 270.072 
z
" clip-path="url(#p68dc904126)" style="fill: #0000ff; stroke: #ffffff; stroke-linejoin: miter"/>
   </g>
   <g id="patch_44">
    <path d="M 487.614857 300.072 
L 568.872 300.072 
L 568.872 270.072 
L 487.614857 270.072 
z
" clip-path="url(#p68dc904126)" style="fill: #a0522d; stroke: #ffffff; stroke-linejoin: miter"/>
   </g>
   <g id="patch_45">
    <path d="M 568.872 300.072 
L 650.129143 300.072 
L 650.129143 270.072 
L 568.872 270.072 
z
" clip-path="url(#p68dc904126)" style="fill: #a0522d; stroke: #ffffff; stroke-linejoin: miter"/>
   </g>
   <g id="patch_46">
    <path d="M 650.129143 300.072 
L 731.386286 300.072 
L 731.386286 270.072 
L 650.129143 270.072 
z
" clip-path="url(#p68dc904126)" style="fill: #c0c0c0; stroke: #ffffff; stroke-linejoin: miter"/>
   </g>
   <g id="patch_47">
    <path d="M 731.386286 300.072 
L 812.643429 300.072 
L 812.643429 270.072 
L 731.386286 270.072 
z
" clip-path="url(#p68dc904126)" style="fill: #ff8c00; stroke: #ffffff; stroke-linejoin: miter"/>
   </g>
   <g id="patch_48">
    <path d="M 812.643429 300.072 
L 893.900571 300.072 
L 893.900571 270.072 
L 812.643429 270.072 
z
" clip-path="url(#p68dc904126)" style="fill: #6495ed; stroke: #ffffff; stroke-linejoin: miter"/>
   </g>
   <g id="patch_49">
    <path d="M 162.586286 350.072 
L 243.843429 350.072 
L 243.843429 320.072 
L 162.586286 320.072 
z
" clip-path="url(#p68dc904126)" style="fill: #add8e6; stroke: #ffffff; stroke-linejoin: miter"/>
   </g>
   <g id="patch_50">
    <path d="M 243.843429 350.072 
L 325.100571 350.072 
L 325.100571 320.072 
L 243.843429 320.072 
z
" clip-path="url(#p68dc904126)" style="fill: #ff69b4; stroke: #ffffff; stroke-linejoin: miter"/>
   </g>
   <g id="patch_51">
    <path d="M 325.100571 350.072 
L 406.357714 350.072 
L 406.357714 320.072 
L 325.100571 320.072 
z
" clip-path="url(#p68dc904126)" style="fill: #ff8c00; stroke: #ffffff; stroke-linejoin: miter"/>
   </g>
   <g id="patch_52">
    <path d="M 406.357714 350.072 
L 487.614857 350.072 
L 487.614857 320.072 
L 406.357714 320.072 
z
" clip-path="url(#p68dc904126)" style="fill: #0000ff; stroke: #ffffff; stroke-linejoin: miter"/>
   </g>
   <g id="patch_53">
    <path d="M 487.614857 350.072 
L 568.872 350.072 
L 568.872 320.072 
L 487.614857 320.072 
z
" clip-path="url(#p68dc904126)" style="fill: #a0522d; stroke: #ffffff; stroke-linejoin: miter"/>
   </g>
   <g id="patch_54">
    <path d="M 568.872 350.072 
L 650.129143 350.072 
L 650.129143 320.072 
L 568.872 320.072 
z
" clip-path="url(#p68dc904126)" style="fill: #a0522d; stroke: #ffffff; stroke-linejoin: miter"/>
   </g>
   <g id="patch_55">
    <path d="M 650.129143 350.072 
L 731.386286 350.072 
L 731.386286 320.072 
L 650.129143 320.072 
z
" clip-path="url(#p68dc904126)" style="fill: #7b68ee; stroke: #ffffff; stroke-linejoin: miter"/>
   </g>
   <g id="patch_56">
    <path d="M 731.386286 350.072 
L 812.643429 350.072 
L 812.643429 320.072 
L 731.386286 320.072 
z
" clip-path="url(#p68dc904126)" style="fill: #00ffff; stroke: #ffffff; stroke-linejoin: miter"/>
   </g>
   <g id="patch_57">
    <path d="M 162.586286 400.072 
L 243.843429 400.072 
L 243.843429 370.072 
L 162.586286 370.072 
z
" clip-path="url(#p68dc904126)" style="fill: #add8e6; stroke: #ffffff; stroke-linejoin: miter"/>
   </g>
   <g id="patch_58">
    <path d="M 243.843429 400.072 
L 325.100571 400.072 
L 325.100571 370.072 
L 243.843429 370.072 
z
" clip-path="url(#p68dc904126)" style="fill: #ff69b4; stroke: #ffffff; stroke-linejoin: miter"/>
   </g>
   <g id="patch_59">
    <path d="M 325.100571 400.072 
L 406.357714 400.072 
L 406.357714 370.072 
L 325.100571 370.072 
z
" clip-path="url(#p68dc904126)" style="fill: #ff8c00; stroke: #ffffff; stroke-linejoin: miter"/>
   </g>
   <g id="patch_60">
    <path d="M 406.357714 400.072 
L 487.614857 400.072 
L 487.614857 370.072 
L 406.357714 370.072 
z
" clip-path="url(#p68dc904126)" style="fill: #0000ff; stroke: #ffffff; stroke-linejoin: miter"/>
   </g>
   <g id="patch_61">
    <path d="M 487.614857 400.072 
L 568.872 400.072 
L 568.872 370.072 
L 487.614857 370.072 
z
" clip-path="url(#p68dc904126)" style="fill: #a0522d; stroke: #ffffff; stroke-linejoin: miter"/>
   </g>
   <g id="patch_62">
    <path d="M 568.872 400.072 
L 650.129143 400.072 
L 650.129143 370.072 
L 568.872 370.072 
z
" clip-path="url(#p68dc904126)" style="fill: #a0522d; stroke: #ffffff; stroke-linejoin: miter"/>
   </g>
   <g id="patch_63">
    <path d="M 650.129143 400.072 
L 731.386286 400.072 
L 731.386286 370.072 
L 650.129143 370.072 
z
" clip-path="url(#p68dc904126)" style="fill: #7b68ee; stroke: #ffffff; stroke-linejoin: miter"/>
   </g>
   <g id="patch_64">
    <path d="M 731.386286 400.072 
L 812.643429 400.072 
L 812.643429 370.072 
L 731.386286 370.072 
z
" clip-path="url(#p68dc904126)" style="fill: #00ffff; stroke: #ffffff; stroke-linejoin: miter"/>
   </g>
   <g id="patch_65">
    <path d="M 162.586286 450.072 
L 243.843429 450.072 
L 243.843429 420.072 
L 162.586286 420.072 
z
" clip-path="url(#p68dc904126)" style="fill: #add8e6; stroke: #ffffff; stroke-linejoin: miter"/>
   </g>
   <g id="patch_66">
    <path d="M 243.843429 450.072 
L 325.100571 450.072 
L 325.100571 420.072 
L 243.843429 420.072 
z
" clip-path="url(#p68dc904126)" style="fill: #ff69b4; stroke: #ffffff; stroke-linejoin: miter"/>
   </g>
   <g id="patch_67">
    <path d="M 325.100571 450.072 
L 406.357714 450.072 
L 406.357714 420.072 
L 325.100571 420.072 
z
" clip-path="url(#p68dc904126)" style="fill: #ff8c00; stroke: #ffffff; stroke-linejoin: miter"/>
   </g>
   <g id="patch_68">
    <path d="M 406.357714 450.072 
L 487.614857 450.072 
L 487.614857 420.072 
L 406.357714 420.072 
z
" clip-path="url(#p68dc904126)" style="fill: #0000ff; stroke: #ffffff; stroke-linejoin: miter"/>
   </g>
   <g id="patch_69">
    <path d="M 487.614857 450.072 
L 568.872 450.072 
L 568.872 420.072 
L 487.614857 420.072 
z
" clip-path="url(#p68dc904126)" style="fill: #a0522d; stroke: #ffffff; stroke-linejoin: miter"/>
   </g>
   <g id="patch_70">
    <path d="M 568.872 450.072 
L 650.129143 450.072 
L 650.129143 420.072 
L 568.872 420.072 
z
" clip-path="url(#p68dc904126)" style="fill: #a0522d; stroke: #ffffff; stroke-linejoin: miter"/>
   </g>
   <g id="patch_71">
    <path d="M 650.129143 450.072 
L 731.386286 450.072 
L 731.386286 420.072 
L 650.129143 420.072 
z
" clip-path="url(#p68dc904126)" style="fill: #ff69b4; stroke: #ffffff; stroke-linejoin: miter"/>
   </g>
   <g id="patch_72">
    <path d="M 731.386286 450.072 
L 812.643429 450.072 
L 812.643429 420.072 
L 731.386286 420.072 
z
" clip-path="url(#p68dc904126)" style="fill: #00ffff; stroke: #ffffff; stroke-linejoin: miter"/>
   </g>
   <g id="patch_73">
    <path d="M 162.586286 500.072 
L 243.843429 500.072 
L 243.843429 470.072 
L 162.586286 470.072 
z
" clip-path="url(#p68dc904126)" style="fill: #add8e6; stroke: #ffffff; stroke-linejoin: miter"/>
   </g>
   <g id="patch_74">
    <path d="M 243.843429 500.072 
L 325.100571 500.072 
L 325.100571 470.072 
L 243.843429 470.072 
z
" clip-path="url(#p68dc904126)" style="fill: #ff69b4; stroke: #ffffff; stroke-linejoin: miter"/>
   </g>
   <g id="patch_75">
    <path d="M 325.100571 500.072 
L 406.357714 500.072 
L 406.357714 470.072 
L 325.100571 470.072 
z
" clip-path="url(#p68dc904126)" style="fill: #ff8c00; stroke: #ffffff; stroke-linejoin: miter"/>
   </g>
   <g id="patch_76">
    <path d="M 406.357714 500.072 
L 487.614857 500.072 
L 487.614857 470.072 
L 406.357714 470.072 
z
" clip-path="url(#p68dc904126)" style="fill: #0000ff; stroke: #ffffff; stroke-linejoin: miter"/>
   </g>
   <g id="patch_77">
    <path d="M 487.614857 500.072 
L 568.872 500.072 
L 568.872 470.072 
L 487.614857 470.072 
z
" clip-path="url(#p68dc904126)" style="fill: #a0522d; stroke: #ffffff; stroke-linejoin: miter"/>
   </g>
   <g id="patch_78">
    <path d="M 568.872 500.072 
L 650.129143 500.072 
L 650.129143 470.072 
L 568.872 470.072 
z
" clip-path="url(#p68dc904126)" style="fill: #a0522d; stroke: #ffffff; stroke-linejoin: miter"/>
   </g>
   <g id="patch_79">
    <path d="M 650.129143 500.072 
L 731.386286 500.072 
L 731.386286 470.072 
L 650.129143 470.072 
z
" clip-path="url(#p68dc904126)" style="fill: #dda0dd; stroke: #ffffff; stroke-linejoin: miter"/>
   </g>
   <g id="patch_80">
    <path d="M 731.386286 500.072 
L 812.643429 500.072 
L 812.643429 470.072 
L 731.386286 470.072 
z
" clip-path="url(#p68dc904126)" style="fill: #dda0dd; stroke: #ffffff; stroke-linejoin: miter"/>
   </g>
   <g id="patch_81">
    <path d="M 162.586286 550.072 
L 243.843429 550.072 
L 243.843429 520.072 
L 162.586286 520.072 
z
" clip-path="url(#p68dc904126)" style="fill: #add8e6; stroke: #ffffff; stroke-linejoin: miter"/>
   </g>
   <g id="patch_82">
    <path d="M 243.843429 550.072 
L 325.100571 550.072 
L 325.100571 520.072 
L 243.843429 520.072 
z
" clip-path="url(#p68dc904126)" style="fill: #ff69b4; stroke: #ffffff; stroke-linejoin: miter"/>
   </g>
   <g id="patch_83">
    <path d="M 325.100571 550.072 
L 406.357714 550.072 
L 406.357714 520.072 
L 325.100571 520.072 
z
" clip-path="url(#p68dc904126)" style="fill: #ff8c00; stroke: #ffffff; stroke-linejoin: miter"/>
   </g>
   <g id="patch_84">
    <path d="M 406.357714 550.072 
L 487.614857 550.072 
L 487.614857 520.072 
L 406.357714 520.072 
z
" clip-path="url(#p68dc904126)" style="fill: #0000ff; stroke: #ffffff; stroke-linejoin: miter"/>
   </g>
   <g id="patch_85">
    <path d="M 487.614857 550.072 
L 568.872 550.072 
L 568.872 520.072 
L 487.614857 520.072 
z
" clip-path="url(#p68dc904126)" style="fill: #a0522d; stroke: #ffffff; stroke-linejoin: miter"/>
   </g>
   <g id="patch_86">
    <path d="M 568.872 550.072 
L 650.129143 550.072 
L 650.129143 520.072 
L 568.872 520.072 
z
" clip-path="url(#p68dc904126)" style="fill: #a0522d; stroke: #ffffff; stroke-linejoin: miter"/>
   </g>
   <g id="patch_87">
    <path d="M 162.586286 600.072 
L 243.843429 600.072 
L 243.843429 570.072 
L 162.586286 570.072 
z
" clip-path="url(#p68dc904126)" style="fill: #add8e6; stroke: #ffffff; stroke-linejoin: miter"/>
   </g>
   <g id="patch_88">
    <path d="M 243.843429 600.072 
L 325.100571 600.072 
L 325.100571 570.072 
L 243.843429 570.072 
z
" clip-path="url(#p68dc904126)" style="fill: #ff69b4; stroke: #ffffff; stroke-linejoin: miter"/>
   </g>
   <g id="patch_89">
    <path d="M 325.100571 600.072 
L 406.357714 600.072 
L 406.357714 570.072 
L 325.100571 570.072 
z
" clip-path="url(#p68dc904126)" style="fill: #ff8c00; stroke: #ffffff; stroke-linejoin: miter"/>
   </g>
   <g id="patch_90">
    <path d="M 406.357714 600.072 
L 487.614857 600.072 
L 487.614857 570.072 
L 406.357714 570.072 
z
" clip-path="url(#p68dc904126)" style="fill: #0000ff; stroke: #ffffff; stroke-linejoin: miter"/>
   </g>
   <g id="patch_91">
    <path d="M 487.614857 600.072 
L 568.872 600.072 
L 568.872 570.072 
L 487.614857 570.072 
z
" clip-path="url(#p68dc904126)" style="fill: #a0522d; stroke: #ffffff; stroke-linejoin: miter"/>
   </g>
   <g id="patch_92">
    <path d="M 568.872 600.072 
L 650.129143 600.072 
L 650.129143 570.072 
L 568.872 570.072 
z
" clip-path="url(#p68dc904126)" style="fill: #a0522d; stroke: #ffffff; stroke-linejoin: miter"/>
   </g>
   <g id="patch_93">
    <path d="M 162.586286 650.072 
L 243.843429 650.072 
L 243.843429 620.072 
L 162.586286 620.072 
z
" clip-path="url(#p68dc904126)" style="fill: #add8e6; stroke: #ffffff; stroke-linejoin: miter"/>
   </g>
   <g id="patch_94">
    <path d="M 243.843429 650.072 
L 325.100571 650.072 
L 325.100571 620.072 
L 243.843429 620.072 
z
" clip-path="url(#p68dc904126)" style="fill: #ff69b4; stroke: #ffffff; stroke-linejoin: miter"/>
   </g>
   <g id="patch_95">
    <path d="M 325.100571 650.072 
L 406.357714 650.072 
L 406.357714 620.072 
L 325.100571 620.072 
z
" clip-path="url(#p68dc904126)" style="fill: #ff8c00; stroke: #ffffff; stroke-linejoin: miter"/>
   </g>
   <g id="patch_96">
    <path d="M 406.357714 650.072 
L 487.614857 650.072 
L 487.614857 620.072 
L 406.357714 620.072 
z
" clip-path="url(#p68dc904126)" style="fill: #0000ff; stroke: #ffffff; stroke-linejoin: miter"/>
   </g>
   <g id="patch_97">
    <path d="M 487.614857 650.072 
L 568.872 650.072 
L 568.872 620.072 
L 487.614857 620.072 
z
" clip-path="url(#p68dc904126)" style="fill: #a0522d; stroke: #ffffff; stroke-linejoin: miter"/>
   </g>
   <g id="patch_98">
    <path d="M 568.872 650.072 
L 650.129143 650.072 
L 650.129143 620.072 
L 568.872 620.072 
z
" clip-path="url(#p68dc904126)" style="fill: #a0522d; stroke: #ffffff; stroke-linejoin: miter"/>
   </g>
   <g id="patch_99">
    <path d="M 650.129143 650.072 
L 731.386286 650.072 
L 731.386286 620.072 
L 650.129143 620.072 
z
" clip-path="url(#p68dc904126)" style="fill: #ff8c00; stroke: #ffffff; stroke-linejoin: miter"/>
   </g>
   <g id="patch_100">
    <path d="M 731.386286 650.072 
L 812.643429 650.072 
L 812.643429 620.072 
L 731.386286 620.072 
z
" clip-path="url(#p68dc904126)" style="fill: #ff8c00; stroke: #ffffff; stroke-linejoin: miter"/>
   </g>
   <g id="patch_101">
    <path d="M 812.643429 650.072 
L 893.900571 650.072 
L 893.900571 620.072 
L 812.643429 620.072 
z
" clip-path="url(#p68dc904126)" style="fill: #ff8c00; stroke: #ffffff; stroke-linejoin: miter"/>
   </g>
   <g id="patch_102">
    <path d="M 893.900571 650.072 
L 975.157714 650.072 
L 975.157714 620.072 
L 893.900571 620.072 
z
" clip-path="url(#p68dc904126)" style="fill: #00ffff; stroke: #ffffff; stroke-linejoin: miter"/>
   </g>
   <g id="patch_103">
    <path d="M 975.157714 650.072 
L 1056.414857 650.072 
L 1056.414857 620.072 
L 975.157714 620.072 
z
" clip-path="url(#p68dc904126)" style="fill: #ff8c00; stroke: #ffffff; stroke-linejoin: miter"/>
   </g>
   <g id="patch_104">
    <path d="M 1056.414857 650.072 
L 1137.672 650.072 
L 1137.672 620.072 
L 1056.414857 620.072 
z
" clip-path="url(#p68dc904126)" style="fill: #ff8c00; stroke: #ffffff; stroke-linejoin: miter"/>
   </g>
   <g id="patch_105">
    <path d="M 1137.672 650.072 
L 1218.929143 650.072 
L 1218.929143 620.072 
L 1137.672 620.072 
z
" clip-path="url(#p68dc904126)" style="fill: #ff8c00; stroke: #ffffff; stroke-linejoin: miter"/>
   </g>
   <g id="patch_106">
    <path d="M 1218.929143 650.072 
L 1300.186286 650.072 
L 1300.186286 620.072 
L 1218.929143 620.072 
z
" clip-path="url(#p68dc904126)" style="fill: #ff8c00; stroke: #ffffff; stroke-linejoin: miter"/>
   </g>
   <g id="patch_107">
    <path d="M 162.586286 700.072 
L 243.843429 700.072 
L 243.843429 670.072 
L 162.586286 670.072 
z
" clip-path="url(#p68dc904126)" style="fill: #add8e6; stroke: #ffffff; stroke-linejoin: miter"/>
   </g>
   <g id="patch_108">
    <path d="M 243.843429 700.072 
L 325.100571 700.072 
L 325.100571 670.072 
L 243.843429 670.072 
z
" clip-path="url(#p68dc904126)" style="fill: #ff69b4; stroke: #ffffff; stroke-linejoin: miter"/>
   </g>
   <g id="patch_109">
    <path d="M 325.100571 700.072 
L 406.357714 700.072 
L 406.357714 670.072 
L 325.100571 670.072 
z
" clip-path="url(#p68dc904126)" style="fill: #ff8c00; stroke: #ffffff; stroke-linejoin: miter"/>
   </g>
   <g id="patch_110">
    <path d="M 406.357714 700.072 
L 487.614857 700.072 
L 487.614857 670.072 
L 406.357714 670.072 
z
" clip-path="url(#p68dc904126)" style="fill: #0000ff; stroke: #ffffff; stroke-linejoin: miter"/>
   </g>
   <g id="patch_111">
    <path d="M 487.614857 700.072 
L 568.872 700.072 
L 568.872 670.072 
L 487.614857 670.072 
z
" clip-path="url(#p68dc904126)" style="fill: #a0522d; stroke: #ffffff; stroke-linejoin: miter"/>
   </g>
   <g id="patch_112">
    <path d="M 568.872 700.072 
L 650.129143 700.072 
L 650.129143 670.072 
L 568.872 670.072 
z
" clip-path="url(#p68dc904126)" style="fill: #a0522d; stroke: #ffffff; stroke-linejoin: miter"/>
   </g>
   <g id="patch_113">
    <path d="M 650.129143 700.072 
L 731.386286 700.072 
L 731.386286 670.072 
L 650.129143 670.072 
z
" clip-path="url(#p68dc904126)" style="fill: #ffe4b5; stroke: #ffffff; stroke-linejoin: miter"/>
   </g>
   <g id="patch_114">
    <path d="M 731.386286 700.072 
L 812.643429 700.072 
L 812.643429 670.072 
L 731.386286 670.072 
z
" clip-path="url(#p68dc904126)" style="fill: #7b68ee; stroke: #ffffff; stroke-linejoin: miter"/>
   </g>
   <g id="patch_115">
    <path d="M 812.643429 700.072 
L 893.900571 700.072 
L 893.900571 670.072 
L 812.643429 670.072 
z
" clip-path="url(#p68dc904126)" style="fill: #ffe4b5; stroke: #ffffff; stroke-linejoin: miter"/>
   </g>
   <g id="patch_116">
    <path d="M 893.900571 700.072 
L 975.157714 700.072 
L 975.157714 670.072 
L 893.900571 670.072 
z
" clip-path="url(#p68dc904126)" style="fill: #ff8c00; stroke: #ffffff; stroke-linejoin: miter"/>
   </g>
   <g id="patch_117">
    <path d="M 975.157714 700.072 
L 1056.414857 700.072 
L 1056.414857 670.072 
L 975.157714 670.072 
z
" clip-path="url(#p68dc904126)" style="fill: #ff8c00; stroke: #ffffff; stroke-linejoin: miter"/>
   </g>
   <g id="patch_118">
    <path d="M 162.586286 750.072 
L 243.843429 750.072 
L 243.843429 720.072 
L 162.586286 720.072 
z
" clip-path="url(#p68dc904126)" style="fill: #add8e6; stroke: #ffffff; stroke-linejoin: miter"/>
   </g>
   <g id="patch_119">
    <path d="M 243.843429 750.072 
L 325.100571 750.072 
L 325.100571 720.072 
L 243.843429 720.072 
z
" clip-path="url(#p68dc904126)" style="fill: #ff69b4; stroke: #ffffff; stroke-linejoin: miter"/>
   </g>
   <g id="patch_120">
    <path d="M 325.100571 750.072 
L 406.357714 750.072 
L 406.357714 720.072 
L 325.100571 720.072 
z
" clip-path="url(#p68dc904126)" style="fill: #ff8c00; stroke: #ffffff; stroke-linejoin: miter"/>
   </g>
   <g id="patch_121">
    <path d="M 406.357714 750.072 
L 487.614857 750.072 
L 487.614857 720.072 
L 406.357714 720.072 
z
" clip-path="url(#p68dc904126)" style="fill: #00ffff; stroke: #ffffff; stroke-linejoin: miter"/>
   </g>
   <g id="patch_122">
    <path d="M 487.614857 750.072 
L 568.872 750.072 
L 568.872 720.072 
L 487.614857 720.072 
z
" clip-path="url(#p68dc904126)" style="fill: #0000ff; stroke: #ffffff; stroke-linejoin: miter"/>
   </g>
   <g id="patch_123">
    <path d="M 568.872 750.072 
L 650.129143 750.072 
L 650.129143 720.072 
L 568.872 720.072 
z
" clip-path="url(#p68dc904126)" style="fill: #a0522d; stroke: #ffffff; stroke-linejoin: miter"/>
   </g>
   <g id="patch_124">
    <path d="M 650.129143 750.072 
L 731.386286 750.072 
L 731.386286 720.072 
L 650.129143 720.072 
z
" clip-path="url(#p68dc904126)" style="fill: #a0522d; stroke: #ffffff; stroke-linejoin: miter"/>
   </g>
   <g id="patch_125">
    <path d="M 731.386286 750.072 
L 812.643429 750.072 
L 812.643429 720.072 
L 731.386286 720.072 
z
" clip-path="url(#p68dc904126)" style="fill: #dda0dd; stroke: #ffffff; stroke-linejoin: miter"/>
   </g>
   <g id="patch_126">
    <path d="M 812.643429 750.072 
L 893.900571 750.072 
L 893.900571 720.072 
L 812.643429 720.072 
z
" clip-path="url(#p68dc904126)" style="fill: #ffd700; stroke: #ffffff; stroke-linejoin: miter"/>
   </g>
   <g id="patch_127">
    <path d="M 893.900571 750.072 
L 975.157714 750.072 
L 975.157714 720.072 
L 893.900571 720.072 
z
" clip-path="url(#p68dc904126)" style="fill: #a0522d; stroke: #ffffff; stroke-linejoin: miter"/>
   </g>
   <g id="patch_128">
    <path d="M 975.157714 750.072 
L 1056.414857 750.072 
L 1056.414857 720.072 
L 975.157714 720.072 
z
" clip-path="url(#p68dc904126)" style="fill: #0000ff; stroke: #ffffff; stroke-linejoin: miter"/>
   </g>
   <g id="patch_129">
    <path d="M 162.586286 800.072 
L 243.843429 800.072 
L 243.843429 770.072 
L 162.586286 770.072 
z
" clip-path="url(#p68dc904126)" style="fill: #add8e6; stroke: #ffffff; stroke-linejoin: miter"/>
   </g>
   <g id="patch_130">
    <path d="M 243.843429 800.072 
L 325.100571 800.072 
L 325.100571 770.072 
L 243.843429 770.072 
z
" clip-path="url(#p68dc904126)" style="fill: #ff69b4; stroke: #ffffff; stroke-linejoin: miter"/>
   </g>
   <g id="patch_131">
    <path d="M 325.100571 800.072 
L 406.357714 800.072 
L 406.357714 770.072 
L 325.100571 770.072 
z
" clip-path="url(#p68dc904126)" style="fill: #ff8c00; stroke: #ffffff; stroke-linejoin: miter"/>
   </g>
   <g id="patch_132">
    <path d="M 406.357714 800.072 
L 487.614857 800.072 
L 487.614857 770.072 
L 406.357714 770.072 
z
" clip-path="url(#p68dc904126)" style="fill: #0000ff; stroke: #ffffff; stroke-linejoin: miter"/>
   </g>
   <g id="patch_133">
    <path d="M 487.614857 800.072 
L 568.872 800.072 
L 568.872 770.072 
L 487.614857 770.072 
z
" clip-path="url(#p68dc904126)" style="fill: #a0522d; stroke: #ffffff; stroke-linejoin: miter"/>
   </g>
   <g id="patch_134">
    <path d="M 568.872 800.072 
L 650.129143 800.072 
L 650.129143 770.072 
L 568.872 770.072 
z
" clip-path="url(#p68dc904126)" style="fill: #a0522d; stroke: #ffffff; stroke-linejoin: miter"/>
   </g>
   <g id="patch_135">
    <path d="M 650.129143 800.072 
L 731.386286 800.072 
L 731.386286 770.072 
L 650.129143 770.072 
z
" clip-path="url(#p68dc904126)" style="fill: #ff8c00; stroke: #ffffff; stroke-linejoin: miter"/>
   </g>
   <g id="patch_136">
    <path d="M 731.386286 800.072 
L 812.643429 800.072 
L 812.643429 770.072 
L 731.386286 770.072 
z
" clip-path="url(#p68dc904126)" style="fill: #7b68ee; stroke: #ffffff; stroke-linejoin: miter"/>
   </g>
   <g id="patch_137">
    <path d="M 812.643429 800.072 
L 893.900571 800.072 
L 893.900571 770.072 
L 812.643429 770.072 
z
" clip-path="url(#p68dc904126)" style="fill: #f0fff0; stroke: #ffffff; stroke-linejoin: miter"/>
   </g>
   <g id="patch_138">
    <path d="M 893.900571 800.072 
L 975.157714 800.072 
L 975.157714 770.072 
L 893.900571 770.072 
z
" clip-path="url(#p68dc904126)" style="fill: #00ff7f; stroke: #ffffff; stroke-linejoin: miter"/>
   </g>
   <g id="patch_139">
    <path d="M 975.157714 800.072 
L 1056.414857 800.072 
L 1056.414857 770.072 
L 975.157714 770.072 
z
" clip-path="url(#p68dc904126)" style="fill: #0000ff; stroke: #ffffff; stroke-linejoin: miter"/>
   </g>
   <g id="patch_140">
    <path d="M 1056.414857 800.072 
L 1137.672 800.072 
L 1137.672 770.072 
L 1056.414857 770.072 
z
" clip-path="url(#p68dc904126)" style="fill: #0000ff; stroke: #ffffff; stroke-linejoin: miter"/>
   </g>
   <g id="patch_141">
    <path d="M 1137.672 800.072 
L 1218.929143 800.072 
L 1218.929143 770.072 
L 1137.672 770.072 
z
" clip-path="url(#p68dc904126)" style="fill: #dda0dd; stroke: #ffffff; stroke-linejoin: miter"/>
   </g>
   <g id="patch_142">
    <path d="M 1218.929143 800.072 
L 1300.186286 800.072 
L 1300.186286 770.072 
L 1218.929143 770.072 
z
" clip-path="url(#p68dc904126)" style="fill: #add8e6; stroke: #ffffff; stroke-linejoin: miter"/>
   </g>
   <g id="patch_143">
    <path d="M 1300.186286 800.072 
L 1381.443429 800.072 
L 1381.443429 770.072 
L 1300.186286 770.072 
z
" clip-path="url(#p68dc904126)" style="fill: #ff69b4; stroke: #ffffff; stroke-linejoin: miter"/>
   </g>
   <g id="patch_144">
    <path d="M 1381.443429 800.072 
L 1462.700571 800.072 
L 1462.700571 770.072 
L 1381.443429 770.072 
z
" clip-path="url(#p68dc904126)" style="fill: #ff8c00; stroke: #ffffff; stroke-linejoin: miter"/>
   </g>
   <g id="patch_145">
    <path d="M 1462.700571 800.072 
L 1543.957714 800.072 
L 1543.957714 770.072 
L 1462.700571 770.072 
z
" clip-path="url(#p68dc904126)" style="fill: #0000ff; stroke: #ffffff; stroke-linejoin: miter"/>
   </g>
   <g id="patch_146">
    <path d="M 1543.957714 800.072 
L 1625.214857 800.072 
L 1625.214857 770.072 
L 1543.957714 770.072 
z
" clip-path="url(#p68dc904126)" style="fill: #a0522d; stroke: #ffffff; stroke-linejoin: miter"/>
   </g>
   <g id="patch_147">
    <path d="M 162.586286 850.072 
L 243.843429 850.072 
L 243.843429 820.072 
L 162.586286 820.072 
z
" clip-path="url(#p68dc904126)" style="fill: #add8e6; stroke: #ffffff; stroke-linejoin: miter"/>
   </g>
   <g id="patch_148">
    <path d="M 243.843429 850.072 
L 325.100571 850.072 
L 325.100571 820.072 
L 243.843429 820.072 
z
" clip-path="url(#p68dc904126)" style="fill: #ff69b4; stroke: #ffffff; stroke-linejoin: miter"/>
   </g>
   <g id="patch_149">
    <path d="M 325.100571 850.072 
L 406.357714 850.072 
L 406.357714 820.072 
L 325.100571 820.072 
z
" clip-path="url(#p68dc904126)" style="fill: #ff8c00; stroke: #ffffff; stroke-linejoin: miter"/>
   </g>
   <g id="patch_150">
    <path d="M 406.357714 850.072 
L 487.614857 850.072 
L 487.614857 820.072 
L 406.357714 820.072 
z
" clip-path="url(#p68dc904126)" style="fill: #0000ff; stroke: #ffffff; stroke-linejoin: miter"/>
   </g>
   <g id="patch_151">
    <path d="M 487.614857 850.072 
L 568.872 850.072 
L 568.872 820.072 
L 487.614857 820.072 
z
" clip-path="url(#p68dc904126)" style="fill: #a0522d; stroke: #ffffff; stroke-linejoin: miter"/>
   </g>
   <g id="patch_152">
    <path d="M 568.872 850.072 
L 650.129143 850.072 
L 650.129143 820.072 
L 568.872 820.072 
z
" clip-path="url(#p68dc904126)" style="fill: #a0522d; stroke: #ffffff; stroke-linejoin: miter"/>
   </g>
   <g id="patch_153">
    <path d="M 650.129143 850.072 
L 731.386286 850.072 
L 731.386286 820.072 
L 650.129143 820.072 
z
" clip-path="url(#p68dc904126)" style="fill: #0000ff; stroke: #ffffff; stroke-linejoin: miter"/>
   </g>
   <g id="patch_154">
    <path d="M 731.386286 850.072 
L 812.643429 850.072 
L 812.643429 820.072 
L 731.386286 820.072 
z
" clip-path="url(#p68dc904126)" style="fill: #dda0dd; stroke: #ffffff; stroke-linejoin: miter"/>
   </g>
   <g id="patch_155">
    <path d="M 812.643429 850.072 
L 893.900571 850.072 
L 893.900571 820.072 
L 812.643429 820.072 
z
" clip-path="url(#p68dc904126)" style="fill: #0000ff; stroke: #ffffff; stroke-linejoin: miter"/>
   </g>
   <g id="patch_156">
    <path d="M 893.900571 850.072 
L 975.157714 850.072 
L 975.157714 820.072 
L 893.900571 820.072 
z
" clip-path="url(#p68dc904126)" style="fill: #add8e6; stroke: #ffffff; stroke-linejoin: miter"/>
   </g>
   <g id="patch_157">
    <path d="M 975.157714 850.072 
L 1056.414857 850.072 
L 1056.414857 820.072 
L 975.157714 820.072 
z
" clip-path="url(#p68dc904126)" style="fill: #0000ff; stroke: #ffffff; stroke-linejoin: miter"/>
   </g>
   <g id="patch_158">
    <path d="M 1056.414857 850.072 
L 1137.672 850.072 
L 1137.672 820.072 
L 1056.414857 820.072 
z
" clip-path="url(#p68dc904126)" style="fill: #006400; stroke: #ffffff; stroke-linejoin: miter"/>
   </g>
   <g id="text_1">
    <!-- Q -->
    <g style="fill: #ffffff" transform="translate(195.436732 90.242312) scale(0.2 -0.2)">
     <defs>
      <path id="ArialMT-51" d="M 3966 491 
Q 4388 200 4744 66 
L 4566 -356 
Q 4072 -178 3581 206 
Q 3072 -78 2456 -78 
Q 1834 -78 1328 222 
Q 822 522 548 1065 
Q 275 1609 275 2291 
Q 275 2969 550 3525 
Q 825 4081 1333 4372 
Q 1841 4663 2469 4663 
Q 3103 4663 3612 4361 
Q 4122 4059 4389 3517 
Q 4656 2975 4656 2294 
Q 4656 1728 4484 1276 
Q 4313 825 3966 491 
z
M 2631 1266 
Q 3156 1119 3497 828 
Q 4031 1316 4031 2294 
Q 4031 2850 3842 3265 
Q 3653 3681 3289 3911 
Q 2925 4141 2472 4141 
Q 1794 4141 1347 3677 
Q 900 3213 900 2291 
Q 900 1397 1342 919 
Q 1784 441 2472 441 
Q 2797 441 3084 563 
Q 2800 747 2484 825 
L 2631 1266 
z
" transform="scale(0.015625)"/>
     </defs>
     <use xlink:href="#ArialMT-51"/>
    </g>
   </g>
   <g id="text_2">
    <!-- P -->
    <g transform="translate(277.801687 90.242312) scale(0.2 -0.2)">
     <defs>
      <path id="ArialMT-50" d="M 494 0 
L 494 4581 
L 2222 4581 
Q 2678 4581 2919 4538 
Q 3256 4481 3484 4323 
Q 3713 4166 3852 3881 
Q 3991 3597 3991 3256 
Q 3991 2672 3619 2267 
Q 3247 1863 2275 1863 
L 1100 1863 
L 1100 0 
L 494 0 
z
M 1100 2403 
L 2284 2403 
Q 2872 2403 3119 2622 
Q 3366 2841 3366 3238 
Q 3366 3525 3220 3729 
Q 3075 3934 2838 4000 
Q 2684 4041 2272 4041 
L 1100 4041 
L 1100 2403 
z
" transform="scale(0.015625)"/>
     </defs>
     <use xlink:href="#ArialMT-50"/>
    </g>
   </g>
   <g id="text_3">
    <!-- C -->
    <g transform="translate(358.507268 90.242312) scale(0.2 -0.2)">
     <defs>
      <path id="ArialMT-43" d="M 3763 1606 
L 4369 1453 
Q 4178 706 3683 314 
Q 3188 -78 2472 -78 
Q 1731 -78 1267 223 
Q 803 525 561 1097 
Q 319 1669 319 2325 
Q 319 3041 592 3573 
Q 866 4106 1370 4382 
Q 1875 4659 2481 4659 
Q 3169 4659 3637 4309 
Q 4106 3959 4291 3325 
L 3694 3184 
Q 3534 3684 3231 3912 
Q 2928 4141 2469 4141 
Q 1941 4141 1586 3887 
Q 1231 3634 1087 3207 
Q 944 2781 944 2328 
Q 944 1744 1114 1308 
Q 1284 872 1643 656 
Q 2003 441 2422 441 
Q 2931 441 3284 734 
Q 3638 1028 3763 1606 
z
" transform="scale(0.015625)"/>
     </defs>
     <use xlink:href="#ArialMT-43"/>
    </g>
   </g>
   <g id="text_4">
    <!-- P -->
    <g transform="translate(440.315973 90.242312) scale(0.2 -0.2)">
     <use xlink:href="#ArialMT-50"/>
    </g>
   </g>
   <g id="text_5">
    <!-- G -->
    <g transform="translate(520.465304 90.242312) scale(0.2 -0.2)">
     <defs>
      <path id="ArialMT-47" d="M 2638 1797 
L 2638 2334 
L 4578 2338 
L 4578 638 
Q 4131 281 3656 101 
Q 3181 -78 2681 -78 
Q 2006 -78 1454 211 
Q 903 500 622 1047 
Q 341 1594 341 2269 
Q 341 2938 620 3517 
Q 900 4097 1425 4378 
Q 1950 4659 2634 4659 
Q 3131 4659 3532 4498 
Q 3934 4338 4162 4050 
Q 4391 3763 4509 3300 
L 3963 3150 
Q 3859 3500 3706 3700 
Q 3553 3900 3268 4020 
Q 2984 4141 2638 4141 
Q 2222 4141 1919 4014 
Q 1616 3888 1430 3681 
Q 1244 3475 1141 3228 
Q 966 2803 966 2306 
Q 966 1694 1177 1281 
Q 1388 869 1791 669 
Q 2194 469 2647 469 
Q 3041 469 3416 620 
Q 3791 772 3984 944 
L 3984 1797 
L 2638 1797 
z
" transform="scale(0.015625)"/>
     </defs>
     <use xlink:href="#ArialMT-47"/>
    </g>
   </g>
   <g id="text_6">
    <!-- S -->
    <g transform="translate(602.830259 90.242312) scale(0.2 -0.2)">
     <defs>
      <path id="ArialMT-53" d="M 288 1472 
L 859 1522 
Q 900 1178 1048 958 
Q 1197 738 1509 602 
Q 1822 466 2213 466 
Q 2559 466 2825 569 
Q 3091 672 3220 851 
Q 3350 1031 3350 1244 
Q 3350 1459 3225 1620 
Q 3100 1781 2813 1891 
Q 2628 1963 1997 2114 
Q 1366 2266 1113 2400 
Q 784 2572 623 2826 
Q 463 3081 463 3397 
Q 463 3744 659 4045 
Q 856 4347 1234 4503 
Q 1613 4659 2075 4659 
Q 2584 4659 2973 4495 
Q 3363 4331 3572 4012 
Q 3781 3694 3797 3291 
L 3216 3247 
Q 3169 3681 2898 3903 
Q 2628 4125 2100 4125 
Q 1550 4125 1298 3923 
Q 1047 3722 1047 3438 
Q 1047 3191 1225 3031 
Q 1400 2872 2139 2705 
Q 2878 2538 3153 2413 
Q 3553 2228 3743 1945 
Q 3934 1663 3934 1294 
Q 3934 928 3725 604 
Q 3516 281 3123 101 
Q 2731 -78 2241 -78 
Q 1619 -78 1198 103 
Q 778 284 539 648 
Q 300 1013 288 1472 
z
" transform="scale(0.015625)"/>
     </defs>
     <use xlink:href="#ArialMT-53"/>
    </g>
   </g>
   <g id="text_7">
    <!-- Q -->
    <g style="fill: #ffffff" transform="translate(682.979589 90.242312) scale(0.2 -0.2)">
     <use xlink:href="#ArialMT-51"/>
    </g>
   </g>
   <g id="text_8">
    <!-- S -->
    <g transform="translate(765.344545 90.242312) scale(0.2 -0.2)">
     <use xlink:href="#ArialMT-53"/>
    </g>
   </g>
   <g id="text_9">
    <!-- N -->
    <g transform="translate(846.050125 90.242312) scale(0.2 -0.2)">
     <defs>
      <path id="ArialMT-4e" d="M 488 0 
L 488 4581 
L 1109 4581 
L 3516 984 
L 3516 4581 
L 4097 4581 
L 4097 0 
L 3475 0 
L 1069 3600 
L 1069 0 
L 488 0 
z
" transform="scale(0.015625)"/>
     </defs>
     <use xlink:href="#ArialMT-4e"/>
    </g>
   </g>
   <g id="text_10">
    <!-- ID 607 -->
    <g style="fill: #262626" transform="translate(95.538696 90.242312) scale(0.2 -0.2)">
     <defs>
      <path id="ArialMT-49" d="M 597 0 
L 597 4581 
L 1203 4581 
L 1203 0 
L 597 0 
z
" transform="scale(0.015625)"/>
      <path id="ArialMT-44" d="M 494 0 
L 494 4581 
L 2072 4581 
Q 2606 4581 2888 4516 
Q 3281 4425 3559 4188 
Q 3922 3881 4101 3404 
Q 4281 2928 4281 2316 
Q 4281 1794 4159 1391 
Q 4038 988 3847 723 
Q 3656 459 3429 307 
Q 3203 156 2883 78 
Q 2563 0 2147 0 
L 494 0 
z
M 1100 541 
L 2078 541 
Q 2531 541 2789 625 
Q 3047 709 3200 863 
Q 3416 1078 3536 1442 
Q 3656 1806 3656 2325 
Q 3656 3044 3420 3430 
Q 3184 3816 2847 3947 
Q 2603 4041 2063 4041 
L 1100 4041 
L 1100 541 
z
" transform="scale(0.015625)"/>
      <path id="ArialMT-20" transform="scale(0.015625)"/>
      <path id="ArialMT-36" d="M 3184 3459 
L 2625 3416 
Q 2550 3747 2413 3897 
Q 2184 4138 1850 4138 
Q 1581 4138 1378 3988 
Q 1113 3794 959 3422 
Q 806 3050 800 2363 
Q 1003 2672 1297 2822 
Q 1591 2972 1913 2972 
Q 2475 2972 2870 2558 
Q 3266 2144 3266 1488 
Q 3266 1056 3080 686 
Q 2894 316 2569 119 
Q 2244 -78 1831 -78 
Q 1128 -78 684 439 
Q 241 956 241 2144 
Q 241 3472 731 4075 
Q 1159 4600 1884 4600 
Q 2425 4600 2770 4297 
Q 3116 3994 3184 3459 
z
M 888 1484 
Q 888 1194 1011 928 
Q 1134 663 1356 523 
Q 1578 384 1822 384 
Q 2178 384 2434 671 
Q 2691 959 2691 1453 
Q 2691 1928 2437 2201 
Q 2184 2475 1800 2475 
Q 1419 2475 1153 2201 
Q 888 1928 888 1484 
z
" transform="scale(0.015625)"/>
      <path id="ArialMT-30" d="M 266 2259 
Q 266 3072 433 3567 
Q 600 4063 929 4331 
Q 1259 4600 1759 4600 
Q 2128 4600 2406 4451 
Q 2684 4303 2865 4023 
Q 3047 3744 3150 3342 
Q 3253 2941 3253 2259 
Q 3253 1453 3087 958 
Q 2922 463 2592 192 
Q 2263 -78 1759 -78 
Q 1097 -78 719 397 
Q 266 969 266 2259 
z
M 844 2259 
Q 844 1131 1108 757 
Q 1372 384 1759 384 
Q 2147 384 2411 759 
Q 2675 1134 2675 2259 
Q 2675 3391 2411 3762 
Q 2147 4134 1753 4134 
Q 1366 4134 1134 3806 
Q 844 3388 844 2259 
z
" transform="scale(0.015625)"/>
      <path id="ArialMT-37" d="M 303 3981 
L 303 4522 
L 3269 4522 
L 3269 4084 
Q 2831 3619 2401 2847 
Q 1972 2075 1738 1259 
Q 1569 684 1522 0 
L 944 0 
Q 953 541 1156 1306 
Q 1359 2072 1739 2783 
Q 2119 3494 2547 3981 
L 303 3981 
z
" transform="scale(0.015625)"/>
     </defs>
     <use xlink:href="#ArialMT-49"/>
     <use xlink:href="#ArialMT-44" transform="translate(27.783203 0)"/>
     <use xlink:href="#ArialMT-20" transform="translate(100 0)"/>
     <use xlink:href="#ArialMT-36" transform="translate(127.783203 0)"/>
     <use xlink:href="#ArialMT-30" transform="translate(183.398438 0)"/>
     <use xlink:href="#ArialMT-37" transform="translate(239.013672 0)"/>
    </g>
   </g>
   <g id="text_11">
    <!-- Q -->
    <g style="fill: #ffffff" transform="translate(195.436732 140.242312) scale(0.2 -0.2)">
     <use xlink:href="#ArialMT-51"/>
    </g>
   </g>
   <g id="text_12">
    <!-- E -->
    <g transform="translate(277.801687 140.242312) scale(0.2 -0.2)">
     <defs>
      <path id="ArialMT-45" d="M 506 0 
L 506 4581 
L 3819 4581 
L 3819 4041 
L 1113 4041 
L 1113 2638 
L 3647 2638 
L 3647 2100 
L 1113 2100 
L 1113 541 
L 3925 541 
L 3925 0 
L 506 0 
z
" transform="scale(0.015625)"/>
     </defs>
     <use xlink:href="#ArialMT-45"/>
    </g>
   </g>
   <g id="text_13">
    <!-- E -->
    <g transform="translate(359.05883 140.242312) scale(0.2 -0.2)">
     <use xlink:href="#ArialMT-45"/>
    </g>
   </g>
   <g id="text_14">
    <!-- U -->
    <g transform="translate(439.764411 140.242312) scale(0.2 -0.2)">
     <defs>
      <path id="ArialMT-55" d="M 3500 4581 
L 4106 4581 
L 4106 1934 
Q 4106 1244 3950 837 
Q 3794 431 3386 176 
Q 2978 -78 2316 -78 
Q 1672 -78 1262 144 
Q 853 366 678 786 
Q 503 1206 503 1934 
L 503 4581 
L 1109 4581 
L 1109 1938 
Q 1109 1341 1220 1058 
Q 1331 775 1601 622 
Q 1872 469 2263 469 
Q 2931 469 3215 772 
Q 3500 1075 3500 1938 
L 3500 4581 
z
" transform="scale(0.015625)"/>
     </defs>
     <use xlink:href="#ArialMT-55"/>
    </g>
   </g>
   <g id="text_15">
    <!-- Q -->
    <g style="fill: #ffffff" transform="translate(520.465304 140.242312) scale(0.2 -0.2)">
     <use xlink:href="#ArialMT-51"/>
    </g>
   </g>
   <g id="text_16">
    <!-- G -->
    <g transform="translate(601.722446 140.242312) scale(0.2 -0.2)">
     <use xlink:href="#ArialMT-47"/>
    </g>
   </g>
   <g id="text_17">
    <!-- C -->
    <g transform="translate(683.535839 140.242312) scale(0.2 -0.2)">
     <use xlink:href="#ArialMT-43"/>
    </g>
   </g>
   <g id="text_18">
    <!-- Q -->
    <g style="fill: #ffffff" transform="translate(764.236732 140.242312) scale(0.2 -0.2)">
     <use xlink:href="#ArialMT-51"/>
    </g>
   </g>
   <g id="text_19">
    <!-- S -->
    <g transform="translate(846.601687 140.242312) scale(0.2 -0.2)">
     <use xlink:href="#ArialMT-53"/>
    </g>
   </g>
   <g id="text_20">
    <!-- F -->
    <g style="fill: #ffffff" transform="translate(928.42133 140.242312) scale(0.2 -0.2)">
     <defs>
      <path id="ArialMT-46" d="M 525 0 
L 525 4581 
L 3616 4581 
L 3616 4041 
L 1131 4041 
L 1131 2622 
L 3281 2622 
L 3281 2081 
L 1131 2081 
L 1131 0 
L 525 0 
z
" transform="scale(0.015625)"/>
     </defs>
     <use xlink:href="#ArialMT-46"/>
    </g>
   </g>
   <g id="text_21">
    <!-- R -->
    <g transform="translate(1008.564411 140.242312) scale(0.2 -0.2)">
     <defs>
      <path id="ArialMT-52" d="M 503 0 
L 503 4581 
L 2534 4581 
Q 3147 4581 3465 4457 
Q 3784 4334 3975 4021 
Q 4166 3709 4166 3331 
Q 4166 2844 3850 2509 
Q 3534 2175 2875 2084 
Q 3116 1969 3241 1856 
Q 3506 1613 3744 1247 
L 4541 0 
L 3778 0 
L 3172 953 
Q 2906 1366 2734 1584 
Q 2563 1803 2427 1890 
Q 2291 1978 2150 2013 
Q 2047 2034 1813 2034 
L 1109 2034 
L 1109 0 
L 503 0 
z
M 1109 2559 
L 2413 2559 
Q 2828 2559 3062 2645 
Q 3297 2731 3419 2920 
Q 3541 3109 3541 3331 
Q 3541 3656 3305 3865 
Q 3069 4075 2559 4075 
L 1109 4075 
L 1109 2559 
z
" transform="scale(0.015625)"/>
     </defs>
     <use xlink:href="#ArialMT-52"/>
    </g>
   </g>
   <g id="text_22">
    <!-- P -->
    <g transform="translate(1090.373116 140.242312) scale(0.2 -0.2)">
     <use xlink:href="#ArialMT-50"/>
    </g>
   </g>
   <g id="text_23">
    <!-- B -->
    <g transform="translate(1171.630259 140.242312) scale(0.2 -0.2)">
     <defs>
      <path id="ArialMT-42" d="M 469 0 
L 469 4581 
L 2188 4581 
Q 2713 4581 3030 4442 
Q 3347 4303 3526 4014 
Q 3706 3725 3706 3409 
Q 3706 3116 3547 2856 
Q 3388 2597 3066 2438 
Q 3481 2316 3704 2022 
Q 3928 1728 3928 1328 
Q 3928 1006 3792 729 
Q 3656 453 3456 303 
Q 3256 153 2954 76 
Q 2653 0 2216 0 
L 469 0 
z
M 1075 2656 
L 2066 2656 
Q 2469 2656 2644 2709 
Q 2875 2778 2992 2937 
Q 3109 3097 3109 3338 
Q 3109 3566 3000 3739 
Q 2891 3913 2687 3977 
Q 2484 4041 1991 4041 
L 1075 4041 
L 1075 2656 
z
M 1075 541 
L 2216 541 
Q 2509 541 2628 563 
Q 2838 600 2978 687 
Q 3119 775 3209 942 
Q 3300 1109 3300 1328 
Q 3300 1584 3169 1773 
Q 3038 1963 2805 2039 
Q 2572 2116 2134 2116 
L 1075 2116 
L 1075 541 
z
" transform="scale(0.015625)"/>
     </defs>
     <use xlink:href="#ArialMT-42"/>
    </g>
   </g>
   <g id="text_24">
    <!-- J -->
    <g style="fill: #ffffff" transform="translate(1254.557714 140.242312) scale(0.2 -0.2)">
     <defs>
      <path id="ArialMT-4a" d="M 184 1300 
L 731 1375 
Q 753 850 928 656 
Q 1103 463 1413 463 
Q 1641 463 1806 567 
Q 1972 672 2034 851 
Q 2097 1031 2097 1425 
L 2097 4581 
L 2703 4581 
L 2703 1459 
Q 2703 884 2564 568 
Q 2425 253 2123 87 
Q 1822 -78 1416 -78 
Q 813 -78 492 269 
Q 172 616 184 1300 
z
" transform="scale(0.015625)"/>
     </defs>
     <use xlink:href="#ArialMT-4a"/>
    </g>
   </g>
   <g id="text_25">
    <!-- ID 612 -->
    <g style="fill: #262626" transform="translate(95.538696 140.242312) scale(0.2 -0.2)">
     <defs>
      <path id="ArialMT-31" d="M 2384 0 
L 1822 0 
L 1822 3584 
Q 1619 3391 1289 3197 
Q 959 3003 697 2906 
L 697 3450 
Q 1169 3672 1522 3987 
Q 1875 4303 2022 4600 
L 2384 4600 
L 2384 0 
z
" transform="scale(0.015625)"/>
      <path id="ArialMT-32" d="M 3222 541 
L 3222 0 
L 194 0 
Q 188 203 259 391 
Q 375 700 629 1000 
Q 884 1300 1366 1694 
Q 2113 2306 2375 2664 
Q 2638 3022 2638 3341 
Q 2638 3675 2398 3904 
Q 2159 4134 1775 4134 
Q 1369 4134 1125 3890 
Q 881 3647 878 3216 
L 300 3275 
Q 359 3922 746 4261 
Q 1134 4600 1788 4600 
Q 2447 4600 2831 4234 
Q 3216 3869 3216 3328 
Q 3216 3053 3103 2787 
Q 2991 2522 2730 2228 
Q 2469 1934 1863 1422 
Q 1356 997 1212 845 
Q 1069 694 975 541 
L 3222 541 
z
" transform="scale(0.015625)"/>
     </defs>
     <use xlink:href="#ArialMT-49"/>
     <use xlink:href="#ArialMT-44" transform="translate(27.783203 0)"/>
     <use xlink:href="#ArialMT-20" transform="translate(100 0)"/>
     <use xlink:href="#ArialMT-36" transform="translate(127.783203 0)"/>
     <use xlink:href="#ArialMT-31" transform="translate(183.398438 0)"/>
     <use xlink:href="#ArialMT-32" transform="translate(239.013672 0)"/>
    </g>
   </g>
   <g id="text_26">
    <!-- I -->
    <g transform="translate(200.436732 190.242312) scale(0.2 -0.2)">
     <use xlink:href="#ArialMT-49"/>
    </g>
   </g>
   <g id="text_27">
    <!-- G -->
    <g transform="translate(276.693875 190.242312) scale(0.2 -0.2)">
     <use xlink:href="#ArialMT-47"/>
    </g>
   </g>
   <g id="text_28">
    <!-- M -->
    <g transform="translate(357.399455 190.242312) scale(0.2 -0.2)">
     <defs>
      <path id="ArialMT-4d" d="M 475 0 
L 475 4581 
L 1388 4581 
L 2472 1338 
Q 2622 884 2691 659 
Q 2769 909 2934 1394 
L 4031 4581 
L 4847 4581 
L 4847 0 
L 4263 0 
L 4263 3834 
L 2931 0 
L 2384 0 
L 1059 3900 
L 1059 0 
L 475 0 
z
" transform="scale(0.015625)"/>
     </defs>
     <use xlink:href="#ArialMT-4d"/>
    </g>
   </g>
   <g id="text_29">
    <!-- M -->
    <g transform="translate(438.656598 190.242312) scale(0.2 -0.2)">
     <use xlink:href="#ArialMT-4d"/>
    </g>
   </g>
   <g id="text_30">
    <!-- H -->
    <g transform="translate(521.021554 190.242312) scale(0.2 -0.2)">
     <defs>
      <path id="ArialMT-48" d="M 513 0 
L 513 4581 
L 1119 4581 
L 1119 2700 
L 3500 2700 
L 3500 4581 
L 4106 4581 
L 4106 0 
L 3500 0 
L 3500 2159 
L 1119 2159 
L 1119 0 
L 513 0 
z
" transform="scale(0.015625)"/>
     </defs>
     <use xlink:href="#ArialMT-48"/>
    </g>
   </g>
   <g id="text_31">
    <!-- M -->
    <g transform="translate(601.170884 190.242312) scale(0.2 -0.2)">
     <use xlink:href="#ArialMT-4d"/>
    </g>
   </g>
   <g id="text_32">
    <!-- H -->
    <g transform="translate(683.535839 190.242312) scale(0.2 -0.2)">
     <use xlink:href="#ArialMT-48"/>
    </g>
   </g>
   <g id="text_33">
    <!-- ID 611 -->
    <g style="fill: #262626" transform="translate(97.013696 190.242312) scale(0.2 -0.2)">
     <use xlink:href="#ArialMT-49"/>
     <use xlink:href="#ArialMT-44" transform="translate(27.783203 0)"/>
     <use xlink:href="#ArialMT-20" transform="translate(100 0)"/>
     <use xlink:href="#ArialMT-36" transform="translate(127.783203 0)"/>
     <use xlink:href="#ArialMT-31" transform="translate(183.398438 0)"/>
     <use xlink:href="#ArialMT-31" transform="translate(231.638672 0)"/>
    </g>
   </g>
   <g id="text_34">
    <!-- I -->
    <g transform="translate(200.436732 240.242312) scale(0.2 -0.2)">
     <use xlink:href="#ArialMT-49"/>
    </g>
   </g>
   <g id="text_35">
    <!-- G -->
    <g transform="translate(276.693875 240.242312) scale(0.2 -0.2)">
     <use xlink:href="#ArialMT-47"/>
    </g>
   </g>
   <g id="text_36">
    <!-- M -->
    <g transform="translate(357.399455 240.242312) scale(0.2 -0.2)">
     <use xlink:href="#ArialMT-4d"/>
    </g>
   </g>
   <g id="text_37">
    <!-- G -->
    <g transform="translate(439.208161 240.242312) scale(0.2 -0.2)">
     <use xlink:href="#ArialMT-47"/>
    </g>
   </g>
   <g id="text_38">
    <!-- D -->
    <g style="fill: #ffffff" transform="translate(521.021554 240.242312) scale(0.2 -0.2)">
     <use xlink:href="#ArialMT-44"/>
    </g>
   </g>
   <g id="text_39">
    <!-- H -->
    <g transform="translate(602.278696 240.242312) scale(0.2 -0.2)">
     <use xlink:href="#ArialMT-48"/>
    </g>
   </g>
   <g id="text_40">
    <!-- D -->
    <g style="fill: #ffffff" transform="translate(683.535839 240.242312) scale(0.2 -0.2)">
     <use xlink:href="#ArialMT-44"/>
    </g>
   </g>
   <g id="text_41">
    <!-- H -->
    <g transform="translate(764.792982 240.242312) scale(0.2 -0.2)">
     <use xlink:href="#ArialMT-48"/>
    </g>
   </g>
   <g id="text_42">
    <!-- ID 613 -->
    <g style="fill: #262626" transform="translate(95.538696 240.242312) scale(0.2 -0.2)">
     <defs>
      <path id="ArialMT-33" d="M 269 1209 
L 831 1284 
Q 928 806 1161 595 
Q 1394 384 1728 384 
Q 2125 384 2398 659 
Q 2672 934 2672 1341 
Q 2672 1728 2419 1979 
Q 2166 2231 1775 2231 
Q 1616 2231 1378 2169 
L 1441 2663 
Q 1497 2656 1531 2656 
Q 1891 2656 2178 2843 
Q 2466 3031 2466 3422 
Q 2466 3731 2256 3934 
Q 2047 4138 1716 4138 
Q 1388 4138 1169 3931 
Q 950 3725 888 3313 
L 325 3413 
Q 428 3978 793 4289 
Q 1159 4600 1703 4600 
Q 2078 4600 2393 4439 
Q 2709 4278 2876 4000 
Q 3044 3722 3044 3409 
Q 3044 3113 2884 2869 
Q 2725 2625 2413 2481 
Q 2819 2388 3044 2092 
Q 3269 1797 3269 1353 
Q 3269 753 2831 336 
Q 2394 -81 1725 -81 
Q 1122 -81 723 278 
Q 325 638 269 1209 
z
" transform="scale(0.015625)"/>
     </defs>
     <use xlink:href="#ArialMT-49"/>
     <use xlink:href="#ArialMT-44" transform="translate(27.783203 0)"/>
     <use xlink:href="#ArialMT-20" transform="translate(100 0)"/>
     <use xlink:href="#ArialMT-36" transform="translate(127.783203 0)"/>
     <use xlink:href="#ArialMT-31" transform="translate(183.398438 0)"/>
     <use xlink:href="#ArialMT-33" transform="translate(239.013672 0)"/>
    </g>
   </g>
   <g id="text_43">
    <!-- I -->
    <g transform="translate(200.436732 290.242312) scale(0.2 -0.2)">
     <use xlink:href="#ArialMT-49"/>
    </g>
   </g>
   <g id="text_44">
    <!-- G -->
    <g transform="translate(276.693875 290.242312) scale(0.2 -0.2)">
     <use xlink:href="#ArialMT-47"/>
    </g>
   </g>
   <g id="text_45">
    <!-- M -->
    <g transform="translate(357.399455 290.242312) scale(0.2 -0.2)">
     <use xlink:href="#ArialMT-4d"/>
    </g>
   </g>
   <g id="text_46">
    <!-- Q -->
    <g style="fill: #ffffff" transform="translate(439.208161 290.242312) scale(0.2 -0.2)">
     <use xlink:href="#ArialMT-51"/>
    </g>
   </g>
   <g id="text_47">
    <!-- T -->
    <g style="fill: #ffffff" transform="translate(522.135616 290.242312) scale(0.2 -0.2)">
     <defs>
      <path id="ArialMT-54" d="M 1659 0 
L 1659 4041 
L 150 4041 
L 150 4581 
L 3781 4581 
L 3781 4041 
L 2266 4041 
L 2266 0 
L 1659 0 
z
" transform="scale(0.015625)"/>
     </defs>
     <use xlink:href="#ArialMT-54"/>
    </g>
   </g>
   <g id="text_48">
    <!-- T -->
    <g style="fill: #ffffff" transform="translate(603.392759 290.242312) scale(0.2 -0.2)">
     <use xlink:href="#ArialMT-54"/>
    </g>
   </g>
   <g id="text_49">
    <!-- E -->
    <g transform="translate(684.087402 290.242312) scale(0.2 -0.2)">
     <use xlink:href="#ArialMT-45"/>
    </g>
   </g>
   <g id="text_50">
    <!-- M -->
    <g transform="translate(763.68517 290.242312) scale(0.2 -0.2)">
     <use xlink:href="#ArialMT-4d"/>
    </g>
   </g>
   <g id="text_51">
    <!-- K -->
    <g transform="translate(846.601687 290.242312) scale(0.2 -0.2)">
     <defs>
      <path id="ArialMT-4b" d="M 469 0 
L 469 4581 
L 1075 4581 
L 1075 2309 
L 3350 4581 
L 4172 4581 
L 2250 2725 
L 4256 0 
L 3456 0 
L 1825 2319 
L 1075 1588 
L 1075 0 
L 469 0 
z
" transform="scale(0.015625)"/>
     </defs>
     <use xlink:href="#ArialMT-4b"/>
    </g>
   </g>
   <g id="text_52">
    <!-- ID 608 -->
    <g style="fill: #262626" transform="translate(95.538696 290.242312) scale(0.2 -0.2)">
     <defs>
      <path id="ArialMT-38" d="M 1131 2484 
Q 781 2613 612 2850 
Q 444 3088 444 3419 
Q 444 3919 803 4259 
Q 1163 4600 1759 4600 
Q 2359 4600 2725 4251 
Q 3091 3903 3091 3403 
Q 3091 3084 2923 2848 
Q 2756 2613 2416 2484 
Q 2838 2347 3058 2040 
Q 3278 1734 3278 1309 
Q 3278 722 2862 322 
Q 2447 -78 1769 -78 
Q 1091 -78 675 323 
Q 259 725 259 1325 
Q 259 1772 486 2073 
Q 713 2375 1131 2484 
z
M 1019 3438 
Q 1019 3113 1228 2906 
Q 1438 2700 1772 2700 
Q 2097 2700 2305 2904 
Q 2513 3109 2513 3406 
Q 2513 3716 2298 3927 
Q 2084 4138 1766 4138 
Q 1444 4138 1231 3931 
Q 1019 3725 1019 3438 
z
M 838 1322 
Q 838 1081 952 856 
Q 1066 631 1291 507 
Q 1516 384 1775 384 
Q 2178 384 2440 643 
Q 2703 903 2703 1303 
Q 2703 1709 2433 1975 
Q 2163 2241 1756 2241 
Q 1359 2241 1098 1978 
Q 838 1716 838 1322 
z
" transform="scale(0.015625)"/>
     </defs>
     <use xlink:href="#ArialMT-49"/>
     <use xlink:href="#ArialMT-44" transform="translate(27.783203 0)"/>
     <use xlink:href="#ArialMT-20" transform="translate(100 0)"/>
     <use xlink:href="#ArialMT-36" transform="translate(127.783203 0)"/>
     <use xlink:href="#ArialMT-30" transform="translate(183.398438 0)"/>
     <use xlink:href="#ArialMT-38" transform="translate(239.013672 0)"/>
    </g>
   </g>
   <g id="text_53">
    <!-- I -->
    <g transform="translate(200.436732 340.242312) scale(0.2 -0.2)">
     <use xlink:href="#ArialMT-49"/>
    </g>
   </g>
   <g id="text_54">
    <!-- G -->
    <g transform="translate(276.693875 340.242312) scale(0.2 -0.2)">
     <use xlink:href="#ArialMT-47"/>
    </g>
   </g>
   <g id="text_55">
    <!-- M -->
    <g transform="translate(357.399455 340.242312) scale(0.2 -0.2)">
     <use xlink:href="#ArialMT-4d"/>
    </g>
   </g>
   <g id="text_56">
    <!-- Q -->
    <g style="fill: #ffffff" transform="translate(439.208161 340.242312) scale(0.2 -0.2)">
     <use xlink:href="#ArialMT-51"/>
    </g>
   </g>
   <g id="text_57">
    <!-- T -->
    <g style="fill: #ffffff" transform="translate(522.135616 340.242312) scale(0.2 -0.2)">
     <use xlink:href="#ArialMT-54"/>
    </g>
   </g>
   <g id="text_58">
    <!-- T -->
    <g style="fill: #ffffff" transform="translate(603.392759 340.242312) scale(0.2 -0.2)">
     <use xlink:href="#ArialMT-54"/>
    </g>
   </g>
   <g id="text_59">
    <!-- J -->
    <g style="fill: #ffffff" transform="translate(685.757714 340.242312) scale(0.2 -0.2)">
     <use xlink:href="#ArialMT-4a"/>
    </g>
   </g>
   <g id="text_60">
    <!-- H -->
    <g transform="translate(764.792982 340.242312) scale(0.2 -0.2)">
     <use xlink:href="#ArialMT-48"/>
    </g>
   </g>
   <g id="text_61">
    <!-- ID 606 -->
    <g style="fill: #262626" transform="translate(95.538696 340.242312) scale(0.2 -0.2)">
     <use xlink:href="#ArialMT-49"/>
     <use xlink:href="#ArialMT-44" transform="translate(27.783203 0)"/>
     <use xlink:href="#ArialMT-20" transform="translate(100 0)"/>
     <use xlink:href="#ArialMT-36" transform="translate(127.783203 0)"/>
     <use xlink:href="#ArialMT-30" transform="translate(183.398438 0)"/>
     <use xlink:href="#ArialMT-36" transform="translate(239.013672 0)"/>
    </g>
   </g>
   <g id="text_62">
    <!-- I -->
    <g transform="translate(200.436732 390.242312) scale(0.2 -0.2)">
     <use xlink:href="#ArialMT-49"/>
    </g>
   </g>
   <g id="text_63">
    <!-- G -->
    <g transform="translate(276.693875 390.242312) scale(0.2 -0.2)">
     <use xlink:href="#ArialMT-47"/>
    </g>
   </g>
   <g id="text_64">
    <!-- M -->
    <g transform="translate(357.399455 390.242312) scale(0.2 -0.2)">
     <use xlink:href="#ArialMT-4d"/>
    </g>
   </g>
   <g id="text_65">
    <!-- Q -->
    <g style="fill: #ffffff" transform="translate(439.208161 390.242312) scale(0.2 -0.2)">
     <use xlink:href="#ArialMT-51"/>
    </g>
   </g>
   <g id="text_66">
    <!-- T -->
    <g style="fill: #ffffff" transform="translate(522.135616 390.242312) scale(0.2 -0.2)">
     <use xlink:href="#ArialMT-54"/>
    </g>
   </g>
   <g id="text_67">
    <!-- T -->
    <g style="fill: #ffffff" transform="translate(603.392759 390.242312) scale(0.2 -0.2)">
     <use xlink:href="#ArialMT-54"/>
    </g>
   </g>
   <g id="text_68">
    <!-- J -->
    <g style="fill: #ffffff" transform="translate(685.757714 390.242312) scale(0.2 -0.2)">
     <use xlink:href="#ArialMT-4a"/>
    </g>
   </g>
   <g id="text_69">
    <!-- H -->
    <g transform="translate(764.792982 390.242312) scale(0.2 -0.2)">
     <use xlink:href="#ArialMT-48"/>
    </g>
   </g>
   <g id="text_70">
    <!-- ID 607 -->
    <g style="fill: #262626" transform="translate(95.538696 390.242312) scale(0.2 -0.2)">
     <use xlink:href="#ArialMT-49"/>
     <use xlink:href="#ArialMT-44" transform="translate(27.783203 0)"/>
     <use xlink:href="#ArialMT-20" transform="translate(100 0)"/>
     <use xlink:href="#ArialMT-36" transform="translate(127.783203 0)"/>
     <use xlink:href="#ArialMT-30" transform="translate(183.398438 0)"/>
     <use xlink:href="#ArialMT-37" transform="translate(239.013672 0)"/>
    </g>
   </g>
   <g id="text_71">
    <!-- I -->
    <g transform="translate(200.436732 440.242312) scale(0.2 -0.2)">
     <use xlink:href="#ArialMT-49"/>
    </g>
   </g>
   <g id="text_72">
    <!-- G -->
    <g transform="translate(276.693875 440.242312) scale(0.2 -0.2)">
     <use xlink:href="#ArialMT-47"/>
    </g>
   </g>
   <g id="text_73">
    <!-- M -->
    <g transform="translate(357.399455 440.242312) scale(0.2 -0.2)">
     <use xlink:href="#ArialMT-4d"/>
    </g>
   </g>
   <g id="text_74">
    <!-- Q -->
    <g style="fill: #ffffff" transform="translate(439.208161 440.242312) scale(0.2 -0.2)">
     <use xlink:href="#ArialMT-51"/>
    </g>
   </g>
   <g id="text_75">
    <!-- T -->
    <g style="fill: #ffffff" transform="translate(522.135616 440.242312) scale(0.2 -0.2)">
     <use xlink:href="#ArialMT-54"/>
    </g>
   </g>
   <g id="text_76">
    <!-- T -->
    <g style="fill: #ffffff" transform="translate(603.392759 440.242312) scale(0.2 -0.2)">
     <use xlink:href="#ArialMT-54"/>
    </g>
   </g>
   <g id="text_77">
    <!-- G -->
    <g transform="translate(682.979589 440.242312) scale(0.2 -0.2)">
     <use xlink:href="#ArialMT-47"/>
    </g>
   </g>
   <g id="text_78">
    <!-- H -->
    <g transform="translate(764.792982 440.242312) scale(0.2 -0.2)">
     <use xlink:href="#ArialMT-48"/>
    </g>
   </g>
   <g id="text_79">
    <!-- ID 605 -->
    <g style="fill: #262626" transform="translate(95.538696 440.242312) scale(0.2 -0.2)">
     <defs>
      <path id="ArialMT-35" d="M 266 1200 
L 856 1250 
Q 922 819 1161 601 
Q 1400 384 1738 384 
Q 2144 384 2425 690 
Q 2706 997 2706 1503 
Q 2706 1984 2436 2262 
Q 2166 2541 1728 2541 
Q 1456 2541 1237 2417 
Q 1019 2294 894 2097 
L 366 2166 
L 809 4519 
L 3088 4519 
L 3088 3981 
L 1259 3981 
L 1013 2750 
Q 1425 3038 1878 3038 
Q 2478 3038 2890 2622 
Q 3303 2206 3303 1553 
Q 3303 931 2941 478 
Q 2500 -78 1738 -78 
Q 1113 -78 717 272 
Q 322 622 266 1200 
z
" transform="scale(0.015625)"/>
     </defs>
     <use xlink:href="#ArialMT-49"/>
     <use xlink:href="#ArialMT-44" transform="translate(27.783203 0)"/>
     <use xlink:href="#ArialMT-20" transform="translate(100 0)"/>
     <use xlink:href="#ArialMT-36" transform="translate(127.783203 0)"/>
     <use xlink:href="#ArialMT-30" transform="translate(183.398438 0)"/>
     <use xlink:href="#ArialMT-35" transform="translate(239.013672 0)"/>
    </g>
   </g>
   <g id="text_80">
    <!-- I -->
    <g transform="translate(200.436732 490.242312) scale(0.2 -0.2)">
     <use xlink:href="#ArialMT-49"/>
    </g>
   </g>
   <g id="text_81">
    <!-- G -->
    <g transform="translate(276.693875 490.242312) scale(0.2 -0.2)">
     <use xlink:href="#ArialMT-47"/>
    </g>
   </g>
   <g id="text_82">
    <!-- M -->
    <g transform="translate(357.399455 490.242312) scale(0.2 -0.2)">
     <use xlink:href="#ArialMT-4d"/>
    </g>
   </g>
   <g id="text_83">
    <!-- Q -->
    <g style="fill: #ffffff" transform="translate(439.208161 490.242312) scale(0.2 -0.2)">
     <use xlink:href="#ArialMT-51"/>
    </g>
   </g>
   <g id="text_84">
    <!-- T -->
    <g style="fill: #ffffff" transform="translate(522.135616 490.242312) scale(0.2 -0.2)">
     <use xlink:href="#ArialMT-54"/>
    </g>
   </g>
   <g id="text_85">
    <!-- T -->
    <g style="fill: #ffffff" transform="translate(603.392759 490.242312) scale(0.2 -0.2)">
     <use xlink:href="#ArialMT-54"/>
    </g>
   </g>
   <g id="text_86">
    <!-- Z -->
    <g transform="translate(684.649902 490.242312) scale(0.2 -0.2)">
     <defs>
      <path id="ArialMT-5a" d="M 128 0 
L 128 563 
L 2475 3497 
Q 2725 3809 2950 4041 
L 394 4041 
L 394 4581 
L 3675 4581 
L 3675 4041 
L 1103 863 
L 825 541 
L 3750 541 
L 3750 0 
L 128 0 
z
" transform="scale(0.015625)"/>
     </defs>
     <use xlink:href="#ArialMT-5a"/>
    </g>
   </g>
   <g id="text_87">
    <!-- Z -->
    <g transform="translate(765.907045 490.242312) scale(0.2 -0.2)">
     <use xlink:href="#ArialMT-5a"/>
    </g>
   </g>
   <g id="text_88">
    <!-- ID 612 -->
    <g style="fill: #262626" transform="translate(95.538696 490.242312) scale(0.2 -0.2)">
     <use xlink:href="#ArialMT-49"/>
     <use xlink:href="#ArialMT-44" transform="translate(27.783203 0)"/>
     <use xlink:href="#ArialMT-20" transform="translate(100 0)"/>
     <use xlink:href="#ArialMT-36" transform="translate(127.783203 0)"/>
     <use xlink:href="#ArialMT-31" transform="translate(183.398438 0)"/>
     <use xlink:href="#ArialMT-32" transform="translate(239.013672 0)"/>
    </g>
   </g>
   <g id="text_89">
    <!-- I -->
    <g transform="translate(200.436732 540.242312) scale(0.2 -0.2)">
     <use xlink:href="#ArialMT-49"/>
    </g>
   </g>
   <g id="text_90">
    <!-- G -->
    <g transform="translate(276.693875 540.242312) scale(0.2 -0.2)">
     <use xlink:href="#ArialMT-47"/>
    </g>
   </g>
   <g id="text_91">
    <!-- M -->
    <g transform="translate(357.399455 540.242312) scale(0.2 -0.2)">
     <use xlink:href="#ArialMT-4d"/>
    </g>
   </g>
   <g id="text_92">
    <!-- Q -->
    <g style="fill: #ffffff" transform="translate(439.208161 540.242312) scale(0.2 -0.2)">
     <use xlink:href="#ArialMT-51"/>
    </g>
   </g>
   <g id="text_93">
    <!-- T -->
    <g style="fill: #ffffff" transform="translate(522.135616 540.242312) scale(0.2 -0.2)">
     <use xlink:href="#ArialMT-54"/>
    </g>
   </g>
   <g id="text_94">
    <!-- T -->
    <g style="fill: #ffffff" transform="translate(603.392759 540.242312) scale(0.2 -0.2)">
     <use xlink:href="#ArialMT-54"/>
    </g>
   </g>
   <g id="text_95">
    <!-- ID 602 -->
    <g style="fill: #262626" transform="translate(95.538696 540.242312) scale(0.2 -0.2)">
     <use xlink:href="#ArialMT-49"/>
     <use xlink:href="#ArialMT-44" transform="translate(27.783203 0)"/>
     <use xlink:href="#ArialMT-20" transform="translate(100 0)"/>
     <use xlink:href="#ArialMT-36" transform="translate(127.783203 0)"/>
     <use xlink:href="#ArialMT-30" transform="translate(183.398438 0)"/>
     <use xlink:href="#ArialMT-32" transform="translate(239.013672 0)"/>
    </g>
   </g>
   <g id="text_96">
    <!-- I -->
    <g transform="translate(200.436732 590.242312) scale(0.2 -0.2)">
     <use xlink:href="#ArialMT-49"/>
    </g>
   </g>
   <g id="text_97">
    <!-- G -->
    <g transform="translate(276.693875 590.242312) scale(0.2 -0.2)">
     <use xlink:href="#ArialMT-47"/>
    </g>
   </g>
   <g id="text_98">
    <!-- M -->
    <g transform="translate(357.399455 590.242312) scale(0.2 -0.2)">
     <use xlink:href="#ArialMT-4d"/>
    </g>
   </g>
   <g id="text_99">
    <!-- Q -->
    <g style="fill: #ffffff" transform="translate(439.208161 590.242312) scale(0.2 -0.2)">
     <use xlink:href="#ArialMT-51"/>
    </g>
   </g>
   <g id="text_100">
    <!-- T -->
    <g style="fill: #ffffff" transform="translate(522.135616 590.242312) scale(0.2 -0.2)">
     <use xlink:href="#ArialMT-54"/>
    </g>
   </g>
   <g id="text_101">
    <!-- T -->
    <g style="fill: #ffffff" transform="translate(603.392759 590.242312) scale(0.2 -0.2)">
     <use xlink:href="#ArialMT-54"/>
    </g>
   </g>
   <g id="text_102">
    <!-- ID 609 -->
    <g style="fill: #262626" transform="translate(95.538696 590.242312) scale(0.2 -0.2)">
     <defs>
      <path id="ArialMT-39" d="M 350 1059 
L 891 1109 
Q 959 728 1153 556 
Q 1347 384 1650 384 
Q 1909 384 2104 503 
Q 2300 622 2425 820 
Q 2550 1019 2634 1356 
Q 2719 1694 2719 2044 
Q 2719 2081 2716 2156 
Q 2547 1888 2255 1720 
Q 1963 1553 1622 1553 
Q 1053 1553 659 1965 
Q 266 2378 266 3053 
Q 266 3750 677 4175 
Q 1088 4600 1706 4600 
Q 2153 4600 2523 4359 
Q 2894 4119 3086 3673 
Q 3278 3228 3278 2384 
Q 3278 1506 3087 986 
Q 2897 466 2520 194 
Q 2144 -78 1638 -78 
Q 1100 -78 759 220 
Q 419 519 350 1059 
z
M 2653 3081 
Q 2653 3566 2395 3850 
Q 2138 4134 1775 4134 
Q 1400 4134 1122 3828 
Q 844 3522 844 3034 
Q 844 2597 1108 2323 
Q 1372 2050 1759 2050 
Q 2150 2050 2401 2323 
Q 2653 2597 2653 3081 
z
" transform="scale(0.015625)"/>
     </defs>
     <use xlink:href="#ArialMT-49"/>
     <use xlink:href="#ArialMT-44" transform="translate(27.783203 0)"/>
     <use xlink:href="#ArialMT-20" transform="translate(100 0)"/>
     <use xlink:href="#ArialMT-36" transform="translate(127.783203 0)"/>
     <use xlink:href="#ArialMT-30" transform="translate(183.398438 0)"/>
     <use xlink:href="#ArialMT-39" transform="translate(239.013672 0)"/>
    </g>
   </g>
   <g id="text_103">
    <!-- I -->
    <g transform="translate(200.436732 640.242312) scale(0.2 -0.2)">
     <use xlink:href="#ArialMT-49"/>
    </g>
   </g>
   <g id="text_104">
    <!-- G -->
    <g transform="translate(276.693875 640.242312) scale(0.2 -0.2)">
     <use xlink:href="#ArialMT-47"/>
    </g>
   </g>
   <g id="text_105">
    <!-- M -->
    <g transform="translate(357.399455 640.242312) scale(0.2 -0.2)">
     <use xlink:href="#ArialMT-4d"/>
    </g>
   </g>
   <g id="text_106">
    <!-- Q -->
    <g style="fill: #ffffff" transform="translate(439.208161 640.242312) scale(0.2 -0.2)">
     <use xlink:href="#ArialMT-51"/>
    </g>
   </g>
   <g id="text_107">
    <!-- T -->
    <g style="fill: #ffffff" transform="translate(522.135616 640.242312) scale(0.2 -0.2)">
     <use xlink:href="#ArialMT-54"/>
    </g>
   </g>
   <g id="text_108">
    <!-- T -->
    <g style="fill: #ffffff" transform="translate(603.392759 640.242312) scale(0.2 -0.2)">
     <use xlink:href="#ArialMT-54"/>
    </g>
   </g>
   <g id="text_109">
    <!-- M -->
    <g transform="translate(682.428027 640.242312) scale(0.2 -0.2)">
     <use xlink:href="#ArialMT-4d"/>
    </g>
   </g>
   <g id="text_110">
    <!-- M -->
    <g transform="translate(763.68517 640.242312) scale(0.2 -0.2)">
     <use xlink:href="#ArialMT-4d"/>
    </g>
   </g>
   <g id="text_111">
    <!-- M -->
    <g transform="translate(844.942312 640.242312) scale(0.2 -0.2)">
     <use xlink:href="#ArialMT-4d"/>
    </g>
   </g>
   <g id="text_112">
    <!-- H -->
    <g transform="translate(927.307268 640.242312) scale(0.2 -0.2)">
     <use xlink:href="#ArialMT-48"/>
    </g>
   </g>
   <g id="text_113">
    <!-- M -->
    <g transform="translate(1007.456598 640.242312) scale(0.2 -0.2)">
     <use xlink:href="#ArialMT-4d"/>
    </g>
   </g>
   <g id="text_114">
    <!-- M -->
    <g transform="translate(1088.713741 640.242312) scale(0.2 -0.2)">
     <use xlink:href="#ArialMT-4d"/>
    </g>
   </g>
   <g id="text_115">
    <!-- M -->
    <g transform="translate(1169.970884 640.242312) scale(0.2 -0.2)">
     <use xlink:href="#ArialMT-4d"/>
    </g>
   </g>
   <g id="text_116">
    <!-- M -->
    <g transform="translate(1251.228027 640.242312) scale(0.2 -0.2)">
     <use xlink:href="#ArialMT-4d"/>
    </g>
   </g>
   <g id="text_117">
    <!-- ID 604 -->
    <g style="fill: #262626" transform="translate(95.538696 640.242312) scale(0.2 -0.2)">
     <defs>
      <path id="ArialMT-34" d="M 2069 0 
L 2069 1097 
L 81 1097 
L 81 1613 
L 2172 4581 
L 2631 4581 
L 2631 1613 
L 3250 1613 
L 3250 1097 
L 2631 1097 
L 2631 0 
L 2069 0 
z
M 2069 1613 
L 2069 3678 
L 634 1613 
L 2069 1613 
z
" transform="scale(0.015625)"/>
     </defs>
     <use xlink:href="#ArialMT-49"/>
     <use xlink:href="#ArialMT-44" transform="translate(27.783203 0)"/>
     <use xlink:href="#ArialMT-20" transform="translate(100 0)"/>
     <use xlink:href="#ArialMT-36" transform="translate(127.783203 0)"/>
     <use xlink:href="#ArialMT-30" transform="translate(183.398438 0)"/>
     <use xlink:href="#ArialMT-34" transform="translate(239.013672 0)"/>
    </g>
   </g>
   <g id="text_118">
    <!-- I -->
    <g transform="translate(200.436732 690.242312) scale(0.2 -0.2)">
     <use xlink:href="#ArialMT-49"/>
    </g>
   </g>
   <g id="text_119">
    <!-- G -->
    <g transform="translate(276.693875 690.242312) scale(0.2 -0.2)">
     <use xlink:href="#ArialMT-47"/>
    </g>
   </g>
   <g id="text_120">
    <!-- M -->
    <g transform="translate(357.399455 690.242312) scale(0.2 -0.2)">
     <use xlink:href="#ArialMT-4d"/>
    </g>
   </g>
   <g id="text_121">
    <!-- Q -->
    <g style="fill: #ffffff" transform="translate(439.208161 690.242312) scale(0.2 -0.2)">
     <use xlink:href="#ArialMT-51"/>
    </g>
   </g>
   <g id="text_122">
    <!-- T -->
    <g style="fill: #ffffff" transform="translate(522.135616 690.242312) scale(0.2 -0.2)">
     <use xlink:href="#ArialMT-54"/>
    </g>
   </g>
   <g id="text_123">
    <!-- T -->
    <g style="fill: #ffffff" transform="translate(603.392759 690.242312) scale(0.2 -0.2)">
     <use xlink:href="#ArialMT-54"/>
    </g>
   </g>
   <g id="text_124">
    <!-- R -->
    <g transform="translate(683.535839 690.242312) scale(0.2 -0.2)">
     <use xlink:href="#ArialMT-52"/>
    </g>
   </g>
   <g id="text_125">
    <!-- J -->
    <g style="fill: #ffffff" transform="translate(767.014857 690.242312) scale(0.2 -0.2)">
     <use xlink:href="#ArialMT-4a"/>
    </g>
   </g>
   <g id="text_126">
    <!-- R -->
    <g transform="translate(846.050125 690.242312) scale(0.2 -0.2)">
     <use xlink:href="#ArialMT-52"/>
    </g>
   </g>
   <g id="text_127">
    <!-- M -->
    <g transform="translate(926.199455 690.242312) scale(0.2 -0.2)">
     <use xlink:href="#ArialMT-4d"/>
    </g>
   </g>
   <g id="text_128">
    <!-- M -->
    <g transform="translate(1007.456598 690.242312) scale(0.2 -0.2)">
     <use xlink:href="#ArialMT-4d"/>
    </g>
   </g>
   <g id="text_129">
    <!-- ID 610 -->
    <g style="fill: #262626" transform="translate(95.538696 690.242312) scale(0.2 -0.2)">
     <use xlink:href="#ArialMT-49"/>
     <use xlink:href="#ArialMT-44" transform="translate(27.783203 0)"/>
     <use xlink:href="#ArialMT-20" transform="translate(100 0)"/>
     <use xlink:href="#ArialMT-36" transform="translate(127.783203 0)"/>
     <use xlink:href="#ArialMT-31" transform="translate(183.398438 0)"/>
     <use xlink:href="#ArialMT-30" transform="translate(239.013672 0)"/>
    </g>
   </g>
   <g id="text_130">
    <!-- I -->
    <g transform="translate(200.436732 740.242312) scale(0.2 -0.2)">
     <use xlink:href="#ArialMT-49"/>
    </g>
   </g>
   <g id="text_131">
    <!-- G -->
    <g transform="translate(276.693875 740.242312) scale(0.2 -0.2)">
     <use xlink:href="#ArialMT-47"/>
    </g>
   </g>
   <g id="text_132">
    <!-- M -->
    <g transform="translate(357.399455 740.242312) scale(0.2 -0.2)">
     <use xlink:href="#ArialMT-4d"/>
    </g>
   </g>
   <g id="text_133">
    <!-- H -->
    <g transform="translate(439.764411 740.242312) scale(0.2 -0.2)">
     <use xlink:href="#ArialMT-48"/>
    </g>
   </g>
   <g id="text_134">
    <!-- Q -->
    <g style="fill: #ffffff" transform="translate(520.465304 740.242312) scale(0.2 -0.2)">
     <use xlink:href="#ArialMT-51"/>
    </g>
   </g>
   <g id="text_135">
    <!-- T -->
    <g style="fill: #ffffff" transform="translate(603.392759 740.242312) scale(0.2 -0.2)">
     <use xlink:href="#ArialMT-54"/>
    </g>
   </g>
   <g id="text_136">
    <!-- T -->
    <g style="fill: #ffffff" transform="translate(684.649902 740.242312) scale(0.2 -0.2)">
     <use xlink:href="#ArialMT-54"/>
    </g>
   </g>
   <g id="text_137">
    <!-- Z -->
    <g transform="translate(765.907045 740.242312) scale(0.2 -0.2)">
     <use xlink:href="#ArialMT-5a"/>
    </g>
   </g>
   <g id="text_138">
    <!-- B -->
    <g transform="translate(846.601687 740.242312) scale(0.2 -0.2)">
     <use xlink:href="#ArialMT-42"/>
    </g>
   </g>
   <g id="text_139">
    <!-- T -->
    <g style="fill: #ffffff" transform="translate(928.42133 740.242312) scale(0.2 -0.2)">
     <use xlink:href="#ArialMT-54"/>
    </g>
   </g>
   <g id="text_140">
    <!-- Q -->
    <g style="fill: #ffffff" transform="translate(1008.008161 740.242312) scale(0.2 -0.2)">
     <use xlink:href="#ArialMT-51"/>
    </g>
   </g>
   <g id="text_141">
    <!-- ID 609 -->
    <g style="fill: #262626" transform="translate(95.538696 740.242312) scale(0.2 -0.2)">
     <use xlink:href="#ArialMT-49"/>
     <use xlink:href="#ArialMT-44" transform="translate(27.783203 0)"/>
     <use xlink:href="#ArialMT-20" transform="translate(100 0)"/>
     <use xlink:href="#ArialMT-36" transform="translate(127.783203 0)"/>
     <use xlink:href="#ArialMT-30" transform="translate(183.398438 0)"/>
     <use xlink:href="#ArialMT-39" transform="translate(239.013672 0)"/>
    </g>
   </g>
   <g id="text_142">
    <!-- I -->
    <g transform="translate(200.436732 790.242312) scale(0.2 -0.2)">
     <use xlink:href="#ArialMT-49"/>
    </g>
   </g>
   <g id="text_143">
    <!-- G -->
    <g transform="translate(276.693875 790.242312) scale(0.2 -0.2)">
     <use xlink:href="#ArialMT-47"/>
    </g>
   </g>
   <g id="text_144">
    <!-- M -->
    <g transform="translate(357.399455 790.242312) scale(0.2 -0.2)">
     <use xlink:href="#ArialMT-4d"/>
    </g>
   </g>
   <g id="text_145">
    <!-- Q -->
    <g style="fill: #ffffff" transform="translate(439.208161 790.242312) scale(0.2 -0.2)">
     <use xlink:href="#ArialMT-51"/>
    </g>
   </g>
   <g id="text_146">
    <!-- T -->
    <g style="fill: #ffffff" transform="translate(522.135616 790.242312) scale(0.2 -0.2)">
     <use xlink:href="#ArialMT-54"/>
    </g>
   </g>
   <g id="text_147">
    <!-- T -->
    <g style="fill: #ffffff" transform="translate(603.392759 790.242312) scale(0.2 -0.2)">
     <use xlink:href="#ArialMT-54"/>
    </g>
   </g>
   <g id="text_148">
    <!-- M -->
    <g transform="translate(682.428027 790.242312) scale(0.2 -0.2)">
     <use xlink:href="#ArialMT-4d"/>
    </g>
   </g>
   <g id="text_149">
    <!-- J -->
    <g style="fill: #ffffff" transform="translate(767.014857 790.242312) scale(0.2 -0.2)">
     <use xlink:href="#ArialMT-4a"/>
    </g>
   </g>
   <g id="text_150">
    <!-- P -->
    <g transform="translate(846.601687 790.242312) scale(0.2 -0.2)">
     <use xlink:href="#ArialMT-50"/>
    </g>
   </g>
   <g id="text_151">
    <!-- C -->
    <g transform="translate(927.307268 790.242312) scale(0.2 -0.2)">
     <use xlink:href="#ArialMT-43"/>
    </g>
   </g>
   <g id="text_152">
    <!-- Q -->
    <g style="fill: #ffffff" transform="translate(1008.008161 790.242312) scale(0.2 -0.2)">
     <use xlink:href="#ArialMT-51"/>
    </g>
   </g>
   <g id="text_153">
    <!-- Q -->
    <g style="fill: #ffffff" transform="translate(1089.265304 790.242312) scale(0.2 -0.2)">
     <use xlink:href="#ArialMT-51"/>
    </g>
   </g>
   <g id="text_154">
    <!-- Z -->
    <g transform="translate(1172.192759 790.242312) scale(0.2 -0.2)">
     <use xlink:href="#ArialMT-5a"/>
    </g>
   </g>
   <g id="text_155">
    <!-- I -->
    <g transform="translate(1256.779589 790.242312) scale(0.2 -0.2)">
     <use xlink:href="#ArialMT-49"/>
    </g>
   </g>
   <g id="text_156">
    <!-- G -->
    <g transform="translate(1333.036732 790.242312) scale(0.2 -0.2)">
     <use xlink:href="#ArialMT-47"/>
    </g>
   </g>
   <g id="text_157">
    <!-- M -->
    <g transform="translate(1413.742312 790.242312) scale(0.2 -0.2)">
     <use xlink:href="#ArialMT-4d"/>
    </g>
   </g>
   <g id="text_158">
    <!-- Q -->
    <g style="fill: #ffffff" transform="translate(1495.551018 790.242312) scale(0.2 -0.2)">
     <use xlink:href="#ArialMT-51"/>
    </g>
   </g>
   <g id="text_159">
    <!-- T -->
    <g style="fill: #ffffff" transform="translate(1578.478473 790.242312) scale(0.2 -0.2)">
     <use xlink:href="#ArialMT-54"/>
    </g>
   </g>
   <g id="text_160">
    <!-- ID 601 -->
    <g style="fill: #262626" transform="translate(95.538696 790.242312) scale(0.2 -0.2)">
     <use xlink:href="#ArialMT-49"/>
     <use xlink:href="#ArialMT-44" transform="translate(27.783203 0)"/>
     <use xlink:href="#ArialMT-20" transform="translate(100 0)"/>
     <use xlink:href="#ArialMT-36" transform="translate(127.783203 0)"/>
     <use xlink:href="#ArialMT-30" transform="translate(183.398438 0)"/>
     <use xlink:href="#ArialMT-31" transform="translate(239.013672 0)"/>
    </g>
   </g>
   <g id="text_161">
    <!-- I -->
    <g transform="translate(200.436732 840.242312) scale(0.2 -0.2)">
     <use xlink:href="#ArialMT-49"/>
    </g>
   </g>
   <g id="text_162">
    <!-- G -->
    <g transform="translate(276.693875 840.242312) scale(0.2 -0.2)">
     <use xlink:href="#ArialMT-47"/>
    </g>
   </g>
   <g id="text_163">
    <!-- M -->
    <g transform="translate(357.399455 840.242312) scale(0.2 -0.2)">
     <use xlink:href="#ArialMT-4d"/>
    </g>
   </g>
   <g id="text_164">
    <!-- Q -->
    <g style="fill: #ffffff" transform="translate(439.208161 840.242312) scale(0.2 -0.2)">
     <use xlink:href="#ArialMT-51"/>
    </g>
   </g>
   <g id="text_165">
    <!-- T -->
    <g style="fill: #ffffff" transform="translate(522.135616 840.242312) scale(0.2 -0.2)">
     <use xlink:href="#ArialMT-54"/>
    </g>
   </g>
   <g id="text_166">
    <!-- T -->
    <g style="fill: #ffffff" transform="translate(603.392759 840.242312) scale(0.2 -0.2)">
     <use xlink:href="#ArialMT-54"/>
    </g>
   </g>
   <g id="text_167">
    <!-- Q -->
    <g style="fill: #ffffff" transform="translate(682.979589 840.242312) scale(0.2 -0.2)">
     <use xlink:href="#ArialMT-51"/>
    </g>
   </g>
   <g id="text_168">
    <!-- Z -->
    <g transform="translate(765.907045 840.242312) scale(0.2 -0.2)">
     <use xlink:href="#ArialMT-5a"/>
    </g>
   </g>
   <g id="text_169">
    <!-- Q -->
    <g style="fill: #ffffff" transform="translate(845.493875 840.242312) scale(0.2 -0.2)">
     <use xlink:href="#ArialMT-51"/>
    </g>
   </g>
   <g id="text_170">
    <!-- I -->
    <g transform="translate(931.751018 840.242312) scale(0.2 -0.2)">
     <use xlink:href="#ArialMT-49"/>
    </g>
   </g>
   <g id="text_171">
    <!-- Q -->
    <g style="fill: #ffffff" transform="translate(1008.008161 840.242312) scale(0.2 -0.2)">
     <use xlink:href="#ArialMT-51"/>
    </g>
   </g>
   <g id="text_172">
    <!-- O -->
    <g style="fill: #ffffff" transform="translate(1089.265304 840.242312) scale(0.2 -0.2)">
     <defs>
      <path id="ArialMT-4f" d="M 309 2231 
Q 309 3372 921 4017 
Q 1534 4663 2503 4663 
Q 3138 4663 3647 4359 
Q 4156 4056 4423 3514 
Q 4691 2972 4691 2284 
Q 4691 1588 4409 1038 
Q 4128 488 3612 205 
Q 3097 -78 2500 -78 
Q 1853 -78 1343 234 
Q 834 547 571 1087 
Q 309 1628 309 2231 
z
M 934 2222 
Q 934 1394 1379 917 
Q 1825 441 2497 441 
Q 3181 441 3623 922 
Q 4066 1403 4066 2288 
Q 4066 2847 3877 3264 
Q 3688 3681 3323 3911 
Q 2959 4141 2506 4141 
Q 1863 4141 1398 3698 
Q 934 3256 934 2222 
z
" transform="scale(0.015625)"/>
     </defs>
     <use xlink:href="#ArialMT-4f"/>
    </g>
   </g>
   <g id="text_173">
    <!-- ID 603 -->
    <g style="fill: #262626" transform="translate(95.538696 840.242312) scale(0.2 -0.2)">
     <use xlink:href="#ArialMT-49"/>
     <use xlink:href="#ArialMT-44" transform="translate(27.783203 0)"/>
     <use xlink:href="#ArialMT-20" transform="translate(100 0)"/>
     <use xlink:href="#ArialMT-36" transform="translate(127.783203 0)"/>
     <use xlink:href="#ArialMT-30" transform="translate(183.398438 0)"/>
     <use xlink:href="#ArialMT-33" transform="translate(239.013672 0)"/>
    </g>
   </g>
  </g>
 </g>
 <defs>
  <clipPath id="p68dc904126">
   <rect x="0.072" y="0.072" width="1706.4" height="900"/>
  </clipPath>
 </defs>
</svg>
