<?xml version="1.0" encoding="utf-8" standalone="no"?>
<!DOCTYPE svg PUBLIC "-//W3C//DTD SVG 1.1//EN"
  "http://www.w3.org/Graphics/SVG/1.1/DTD/svg11.dtd">
<svg xmlns:xlink="http://www.w3.org/1999/xlink" width="461.15pt" height="280.820721pt" viewBox="0 0 461.15 280.820721" xmlns="http://www.w3.org/2000/svg" version="1.1">
 <metadata>
  <rdf:RDF xmlns:dc="http://purl.org/dc/elements/1.1/" xmlns:cc="http://creativecommons.org/ns#" xmlns:rdf="http://www.w3.org/1999/02/22-rdf-syntax-ns#">
   <cc:Work>
    <dc:type rdf:resource="http://purl.org/dc/dcmitype/StillImage"/>
    <dc:date>2025-05-09T14:25:52.582549</dc:date>
    <dc:format>image/svg+xml</dc:format>
    <dc:creator>
     <cc:Agent>
      <dc:title>Matplotlib v3.10.1, https://matplotlib.org/</dc:title>
     </cc:Agent>
    </dc:creator>
   </cc:Work>
  </rdf:RDF>
 </metadata>
 <defs>
  <style type="text/css">*{stroke-linejoin: round; stroke-linecap: butt}</style>
 </defs>
 <g id="figure_1">
  <g id="patch_1">
   <path d="M 0 280.820721 
L 461.15 280.820721 
L 461.15 0 
L 0 0 
z
" style="fill: #ffffff"/>
  </g>
  <g id="axes_1">
   <g id="patch_2">
    <path d="M 52.48 234.792283 
L 453.95 234.792283 
L 453.95 24.214983 
L 52.48 24.214983 
z
" style="fill: #ffffff"/>
   </g>
   <g id="line2d_1">
    <path d="M 52.48 234.792283 
L 453.95 234.792283 
" clip-path="url(#p174aab7262)" style="fill: none; stroke: #000000; stroke-width: 0.5; stroke-linecap: round"/>
   </g>
   <g id="patch_3">
    <path d="M 57.839266 234.792283 
L 52.48 224.263418 
L 57.119145 224.263418 
L 60.499303 231.496411 
L 64.604481 224.263418 
L 69.99314 224.263418 
L 73.92686 231.618225 
L 77.370703 224.263418 
L 81.931467 224.263418 
L 76.484023 234.792283 
L 71.67832 234.792283 
L 67.205734 226.920342 
L 62.752742 234.792283 
L 57.839266 234.792283 
z
" clip-path="url(#p174aab7262)" style="fill: #9acd32"/>
   </g>
   <g id="patch_4">
    <path d="M 77.203664 207.147327 
Q 79.379347 211.146568 81.931467 213.516488 
L 79.755785 224.263418 
Q 78.422302 223.243036 77.146242 221.449138 
Q 76.865509 221.087067 73.215977 214.750821 
Q 70.344841 217.993004 66.854817 217.993004 
Q 60.11722 217.993004 56.29542 207.756265 
Q 52.48 197.519525 52.48 179.004522 
Q 52.48 160.538893 56.30818 150.285696 
Q 60.136361 140.032498 66.69531 140.032498 
Q 73.196836 140.032498 77.005875 150.285696 
Q 80.814915 160.538893 80.814915 179.004522 
Q 80.814915 188.780444 79.755785 196.186445 
Q 78.958247 201.847922 77.203664 207.147327 
z
M 72.456721 198.556366 
Q 73.598795 195.100232 74.166641 190.228729 
Q 74.734488 185.340768 74.734488 179.004522 
Q 74.734488 165.953503 72.501383 159.502053 
Q 70.268278 153.034145 66.657028 153.034145 
Q 63.045778 153.034145 60.799912 159.51851 
Q 58.560426 166.002876 58.560426 179.004522 
Q 58.560426 192.22012 60.799912 198.786774 
Q 63.045778 205.336971 66.478379 205.336971 
Q 67.754439 205.336971 68.890133 204.267215 
Q 67.097268 201.222526 65.240601 199.527375 
L 66.899479 190.837667 
Q 69.808896 193.40508 72.456721 198.556366 
z
" clip-path="url(#p174aab7262)" style="fill: #0000ff"/>
   </g>
   <g id="patch_5">
    <path d="M 63.29606 140.032498 
L 63.29606 24.214983 
L 71.115407 24.214983 
L 71.115407 140.032498 
L 63.29606 140.032498 
z
" clip-path="url(#p174aab7262)" style="fill: #add8e6"/>
   </g>
   <g id="patch_6">
    <path d="M 83.481544 234.792283 
L 83.481544 224.263418 
L 90.076221 224.263418 
L 90.076221 228.938317 
L 103.401031 224.263418 
L 112.269979 224.263418 
L 99.971799 228.363723 
L 112.933012 234.792283 
L 104.406274 234.792283 
L 95.423255 229.850773 
L 90.076221 231.61133 
L 90.076221 234.792283 
L 83.481544 234.792283 
z
" clip-path="url(#p174aab7262)" style="fill: #6495ed"/>
   </g>
   <g id="patch_7">
    <path d="M 95.01739 224.263418 
L 95.01739 219.832148 
L 83.481544 213.734553 
L 90.933783 213.734553 
L 98.344773 217.899213 
L 105.604519 213.734553 
L 112.933012 213.734553 
L 101.355918 219.845938 
L 101.355918 224.263418 
L 95.01739 224.263418 
z
" clip-path="url(#p174aab7262)" style="fill: #ffc0cb"/>
   </g>
   <g id="patch_8">
    <path d="M 94.477298 213.734553 
L 94.477298 204.986931 
L 83.481544 204.986931 
L 83.481544 203.205688 
L 112.933012 203.205688 
L 112.933012 204.986931 
L 101.961531 204.986931 
L 101.961531 213.734553 
L 94.477298 213.734553 
z
" clip-path="url(#p174aab7262)" style="fill: #a0522d"/>
   </g>
   <g id="patch_9">
    <path d="M 83.481544 192.676823 
L 90.937102 192.676823 
L 90.937102 198.283631 
Q 90.937102 199.61923 91.219204 200.014712 
Q 91.694748 200.649744 93.492142 201.033926 
Q 95.297596 201.418109 98.4249 201.418109 
Q 101.592504 201.418109 103.204517 201.056525 
Q 104.816529 200.692682 105.146992 200.163866 
Q 105.477454 199.63279 105.477454 198.403405 
L 105.477454 192.676823 
L 112.933012 192.676823 
L 112.933012 198.114138 
Q 112.933012 199.978554 112.328507 200.749179 
Q 111.724002 201.517545 110.09587 202.048621 
Q 108.467737 202.577437 105.743436 202.891563 
Q 103.027195 203.205688 98.650581 203.205688 
Q 93.355121 203.205688 90.622759 202.864444 
Q 87.890398 202.520939 86.302566 201.974044 
Q 84.722794 201.427149 84.21501 200.826016 
Q 83.481544 199.935616 83.481544 198.197754 
L 83.481544 192.676823 
z
" clip-path="url(#p174aab7262)" style="fill: #f08080"/>
   </g>
   <g id="patch_10">
    <path d="M 83.481544 185.693121 
L 90.597335 185.306618 
Q 91.245663 187.319097 93.206458 188.265362 
Q 95.167254 189.207185 98.503769 189.207185 
Q 102.037945 189.207185 103.824799 188.367541 
Q 105.61956 187.527898 105.61956 186.40393 
Q 105.61956 185.679793 104.868449 185.173341 
Q 104.117338 184.666889 102.235606 184.293715 
Q 100.954764 184.040489 96.384845 183.405203 
Q 90.502458 182.583329 88.130528 181.392723 
Q 84.794012 179.708994 84.794012 177.296684 
Q 84.794012 175.741788 86.359486 174.386808 
Q 87.932867 173.031827 90.881967 172.32546 
Q 93.838973 171.619093 98.01357 171.619093 
Q 104.828917 171.619093 108.276122 173.298381 
Q 111.723327 174.977668 111.897269 177.780923 
L 104.583817 177.963068 
Q 104.117338 176.394845 102.567676 175.706248 
Q 101.025922 175.017651 97.934506 175.017651 
Q 94.748213 175.017651 92.945546 175.755116 
Q 91.7833 176.226027 91.7833 177.016803 
Q 91.7833 177.74094 92.874388 178.251834 
Q 94.258014 178.90489 99.594857 179.6157 
Q 104.9317 180.322067 107.485478 181.081744 
Q 110.047163 181.836979 111.486134 183.147534 
Q 112.933012 184.458089 112.933012 186.390602 
Q 112.933012 188.136528 111.201503 189.664768 
Q 109.4779 191.193009 106.315326 191.934916 
Q 103.152753 192.676823 98.432611 192.676823 
Q 91.56192 192.676823 87.877522 190.895357 
Q 84.20103 189.109449 83.481544 185.693121 
z
" clip-path="url(#p174aab7262)" style="fill: #ffff00"/>
   </g>
   <g id="patch_11">
    <path d="M 108.205209 165.200559 
Q 110.380891 166.700274 112.933012 167.588995 
L 110.757329 171.619093 
Q 109.423846 171.23645 108.147786 170.563738 
Q 107.867053 170.427962 104.217521 168.05187 
Q 101.346386 169.267688 97.856361 169.267688 
Q 91.118764 169.267688 87.296964 165.428911 
Q 83.481544 161.590134 83.481544 154.647007 
Q 83.481544 147.722396 87.309725 143.877447 
Q 91.137905 140.032498 97.696854 140.032498 
Q 104.19838 140.032498 108.00742 143.877447 
Q 111.816459 147.722396 111.816459 154.647007 
Q 111.816459 158.312978 110.757329 161.090228 
Q 109.959792 163.213282 108.205209 165.200559 
z
M 103.458265 161.978949 
Q 104.600339 160.682898 105.168186 158.856085 
Q 105.736033 157.0231 105.736033 154.647007 
Q 105.736033 149.752875 103.502927 147.333581 
Q 101.269822 144.908116 97.658572 144.908116 
Q 94.047322 144.908116 91.801456 147.339753 
Q 89.561971 149.77139 89.561971 154.647007 
Q 89.561971 159.602857 91.801456 162.065352 
Q 94.047322 164.521676 97.479924 164.521676 
Q 98.755984 164.521676 99.891677 164.120517 
Q 98.098813 162.978759 96.242145 162.343077 
L 97.901024 159.084437 
Q 100.810441 160.047217 103.458265 161.978949 
z
" clip-path="url(#p174aab7262)" style="fill: #0000ff"/>
   </g>
   <g id="patch_12">
    <path d="M 99.227941 96.952393 
L 99.227941 78.077341 
L 112.933012 78.077341 
L 112.933012 122.697768 
Q 110.932924 129.568091 107.138942 134.800295 
Q 103.351834 140.032498 99.461629 140.032498 
Q 94.526704 140.032498 90.849566 132.673184 
Q 87.179302 125.28942 85.330423 111.573223 
Q 83.481544 97.857026 83.481544 81.744773 
Q 83.481544 64.238896 85.543491 50.644946 
Q 87.605437 37.050997 91.57812 29.789481 
Q 94.609182 24.214984 99.117971 24.214984 
Q 104.980772 24.214984 108.279886 32.967922 
Q 111.579 41.696411 112.520622 57.124077 
L 106.211066 61.329399 
Q 105.54437 53.089901 103.702365 48.322239 
Q 101.867233 43.530127 99.117971 43.530127 
Q 94.952839 43.530127 92.49225 52.943204 
Q 90.031661 62.331831 90.031661 80.81569 
Q 90.031661 100.766522 92.519743 110.741938 
Q 95.014698 120.692905 99.056113 120.692905 
Q 101.056201 120.692905 103.063162 117.905656 
Q 105.070123 115.118408 106.506612 111.157581 
L 106.506612 96.952393 
L 99.227941 96.952393 
z
" clip-path="url(#p174aab7262)" style="fill: #ff69b4"/>
   </g>
   <g id="patch_13">
    <path d="M 125.299149 234.792283 
L 125.299149 223.709268 
L 133.118496 223.709268 
L 133.118496 234.792283 
L 125.299149 234.792283 
z
" clip-path="url(#p174aab7262)" style="fill: #add8e6"/>
   </g>
   <g id="patch_14">
    <path d="M 114.483089 212.626252 
L 127.444802 212.626252 
Q 131.831844 212.626252 134.13274 212.836735 
Q 137.22361 213.124637 139.4248 213.857698 
Q 141.63366 214.590759 142.784108 215.652852 
Q 143.934556 216.714944 143.934556 218.273001 
Q 143.934556 219.64235 142.860805 220.631862 
Q 141.541624 221.841534 139.095005 222.589111 
Q 137.246619 223.157657 134.109731 223.474591 
Q 131.762817 223.709268 127.828285 223.709268 
L 114.483089 223.709268 
L 114.483089 212.626252 
z
M 121.577518 214.501244 
L 121.577518 221.841534 
L 126.869578 221.841534 
Q 129.845404 221.841534 131.164584 221.735083 
Q 132.890256 221.5996 134.025364 221.275407 
Q 135.160473 220.948796 135.88142 220.206057 
Q 136.602368 219.460899 136.602368 218.173808 
Q 136.602368 216.889136 135.88142 216.202043 
Q 135.160473 215.51253 133.864302 215.127854 
Q 132.5758 214.743178 130.58936 214.605275 
Q 129.101447 214.501244 124.760424 214.501244 
L 121.577518 214.501244 
z
" clip-path="url(#p174aab7262)" style="fill: #c71585"/>
   </g>
   <g id="patch_15">
    <path d="M 137.315171 208.503754 
L 143.934556 209.16822 
Q 142.414385 210.922972 138.872239 211.774612 
Q 135.330093 212.626252 129.891423 212.626252 
Q 123.153967 212.626252 118.814838 211.168638 
Q 114.483089 209.708684 114.483089 207.179501 
Q 114.483089 204.502918 118.836976 203.024247 
Q 123.198244 201.543236 130.304674 201.543236 
Q 136.510809 201.543236 140.385031 202.703712 
Q 142.687425 203.391575 143.838623 204.678394 
L 137.086407 205.190781 
Q 136.481291 204.357859 134.577387 203.875887 
Q 132.680863 203.391575 129.957839 203.391575 
Q 126.201688 203.391575 123.855016 204.247894 
Q 121.515724 205.101874 121.515724 207.018063 
Q 121.515724 209.051236 123.818119 209.914575 
Q 126.127893 210.775573 129.817629 210.775573 
Q 132.540653 210.775573 134.496213 210.22809 
Q 136.459152 209.680608 137.315171 208.503754 
z
" clip-path="url(#p174aab7262)" style="fill: #00ff7f"/>
   </g>
   <g id="patch_16">
    <path d="M 114.483089 194.19197 
L 121.59888 193.785125 
Q 122.247207 195.903524 124.208003 196.899593 
Q 126.168798 197.890985 129.505314 197.890985 
Q 133.03949 197.890985 134.826344 197.00715 
Q 136.621104 196.123314 136.621104 194.94019 
Q 136.621104 194.177941 135.869993 193.644834 
Q 135.118882 193.111727 133.237151 192.718911 
Q 131.956308 192.452357 127.386389 191.783635 
Q 121.504002 190.918505 119.132072 189.665236 
Q 115.795557 187.892889 115.795557 185.353616 
Q 115.795557 183.716883 117.361031 182.290588 
Q 118.934411 180.864293 121.883511 180.120749 
Q 124.840518 179.377205 129.015115 179.377205 
Q 135.830461 179.377205 139.277666 181.144875 
Q 142.724872 182.912546 142.898813 185.863341 
L 135.585362 186.055072 
Q 135.118882 184.404311 133.569221 183.679472 
Q 132.027466 182.954634 128.93605 182.954634 
Q 125.749757 182.954634 123.94709 183.730912 
Q 122.784845 184.226609 122.784845 185.059004 
Q 122.784845 185.821253 123.875933 186.359037 
Q 125.259559 187.046464 130.596402 187.794685 
Q 135.933245 188.538229 138.487023 189.33789 
Q 141.048708 190.132874 142.487679 191.512405 
Q 143.934556 192.891937 143.934556 194.926161 
Q 143.934556 196.763978 142.203047 198.372652 
Q 140.479444 199.981326 137.316871 200.762281 
Q 134.154297 201.543236 129.434156 201.543236 
Q 122.563464 201.543236 118.879066 199.668009 
Q 115.202574 197.788105 114.483089 194.19197 
z
" clip-path="url(#p174aab7262)" style="fill: #ffff00"/>
   </g>
   <g id="patch_17">
    <path d="M 139.206753 170.368735 
Q 141.382436 172.473599 143.934556 173.720925 
L 141.758874 179.377205 
Q 140.425391 178.840161 139.149331 177.896004 
Q 138.868597 177.705441 135.219065 174.370575 
Q 132.34793 176.076986 128.857906 176.076986 
Q 122.120309 176.076986 118.298509 170.689229 
Q 114.483089 165.301471 114.483089 155.556733 
Q 114.483089 145.837981 118.311269 140.441561 
Q 122.139449 135.045141 128.698398 135.045141 
Q 135.199925 135.045141 139.008964 140.441561 
Q 142.818003 145.837981 142.818003 155.556733 
Q 142.818003 160.701955 141.758874 164.59985 
Q 140.961336 167.579575 139.206753 170.368735 
z
M 134.45981 165.847177 
Q 135.601884 164.028159 136.16973 161.46421 
Q 136.737577 158.891599 136.737577 155.556733 
Q 136.737577 148.687775 134.504472 145.292275 
Q 132.271367 141.888113 128.660117 141.888113 
Q 125.048866 141.888113 122.803001 145.300937 
Q 120.563515 148.713761 120.563515 155.556733 
Q 120.563515 162.512311 122.803001 165.968445 
Q 125.048866 169.415916 128.481468 169.415916 
Q 129.757528 169.415916 130.893222 168.852887 
Q 129.100357 167.250419 127.24369 166.358234 
L 128.902568 161.784704 
Q 131.811985 163.135974 134.45981 165.847177 
z
" clip-path="url(#p174aab7262)" style="fill: #0000ff"/>
   </g>
   <g id="patch_18">
    <path d="M 114.483089 135.045141 
L 114.483089 24.214983 
L 123.701232 24.214983 
L 129.232117 99.81949 
L 134.703102 24.214983 
L 143.934556 24.214983 
L 143.934556 135.045141 
L 138.217311 135.045141 
L 138.217311 47.803589 
L 132.160625 135.045141 
L 126.237053 135.045141 
L 120.20699 47.803589 
L 120.20699 135.045141 
L 114.483089 135.045141 
z
" clip-path="url(#p174aab7262)" style="fill: #ff8c00"/>
   </g>
   <g id="patch_19">
    <path d="M 146.934383 234.792283 
L 146.934383 223.093545 
L 173.486351 223.093545 
L 173.486351 225.072703 
L 154.75373 225.072703 
L 154.75373 227.84097 
L 170.916533 227.84097 
L 170.916533 229.820128 
L 154.75373 229.820128 
L 154.75373 234.792283 
L 146.934383 234.792283 
z
" clip-path="url(#p174aab7262)" style="fill: #ff0000"/>
   </g>
   <g id="patch_20">
    <path d="M 145.484633 223.093545 
L 156.3137 216.987523 
L 146.501155 211.394806 
L 153.976392 211.394806 
L 160.331381 215.153929 
L 166.554983 211.394806 
L 173.967985 211.394806 
L 164.113948 217.076904 
L 174.9361 223.093545 
L 167.225749 223.093545 
L 160.199994 219.048401 
L 153.153494 223.093545 
L 145.484633 223.093545 
z
" clip-path="url(#p174aab7262)" style="fill: #bdb76b"/>
   </g>
   <g id="patch_21">
    <path d="M 145.484633 199.755301 
L 152.600424 199.11113 
Q 153.248752 202.465262 155.209547 204.04237 
Q 157.170343 205.612075 160.506858 205.612075 
Q 164.041034 205.612075 165.827888 204.212669 
Q 167.622649 202.813262 167.622649 200.939983 
Q 167.622649 199.733088 166.871538 198.889002 
Q 166.120426 198.044916 164.238695 197.422957 
Q 162.957853 197.000914 158.387934 195.942104 
Q 152.505547 194.572315 150.133616 192.587972 
Q 146.797101 189.781756 146.797101 185.76124 
Q 146.797101 183.169747 148.362575 180.911446 
Q 149.935956 178.653145 152.885056 177.475867 
Q 155.842062 176.298589 160.016659 176.298589 
Q 166.832005 176.298589 170.279211 179.097401 
Q 173.726416 181.896213 173.900358 186.568305 
L 166.586906 186.87188 
Q 166.120426 184.258174 164.570765 183.110513 
Q 163.029011 181.962852 159.937595 181.962852 
Q 156.751302 181.962852 154.948635 183.19196 
Q 153.786389 183.976812 153.786389 185.294771 
Q 153.786389 186.501666 154.877477 187.353157 
Q 156.261103 188.441584 161.597946 189.626266 
Q 166.934789 190.803544 169.488567 192.069674 
Q 172.050252 193.328399 173.489223 195.512657 
Q 174.9361 197.696915 174.9361 200.917771 
Q 174.9361 203.827647 173.204591 206.374714 
Q 171.480989 208.921781 168.318415 210.158293 
Q 165.155841 211.394806 160.4357 211.394806 
Q 153.565009 211.394806 149.880611 208.425695 
Q 146.204119 205.449181 145.484633 199.755301 
z
" clip-path="url(#p174aab7262)" style="fill: #ffff00"/>
   </g>
   <g id="patch_22">
    <path d="M 156.480387 176.298589 
L 156.480387 147.139846 
L 145.484633 147.139846 
L 145.484633 141.202372 
L 174.9361 141.202372 
L 174.9361 147.139846 
L 163.96462 147.139846 
L 163.96462 176.298589 
L 156.480387 176.298589 
z
" clip-path="url(#p174aab7262)" style="fill: #a0522d"/>
   </g>
   <g id="patch_23">
    <path d="M 170.208298 117.430023 
Q 172.38398 122.984524 174.9361 126.27608 
L 172.760418 141.202372 
Q 171.426935 139.785175 170.150875 137.29365 
Q 169.870142 136.790773 166.22061 127.990432 
Q 163.349475 132.493464 159.85945 132.493464 
Q 153.121853 132.493464 149.300053 118.27577 
Q 145.484633 104.058076 145.484633 78.342795 
Q 145.484633 52.696087 149.312814 38.455535 
Q 153.140994 24.214983 159.699943 24.214983 
Q 166.201469 24.214983 170.010508 38.455535 
Q 173.819548 52.696087 173.819548 78.342795 
Q 173.819548 91.920463 172.760418 102.206576 
Q 171.96288 110.069738 170.208298 117.430023 
z
M 165.461354 105.498132 
Q 166.603428 100.697946 167.171275 93.93197 
Q 167.739121 87.143135 167.739121 78.342795 
Q 167.739121 60.216378 165.506016 51.256031 
Q 163.272911 42.272826 159.661661 42.272826 
Q 156.050411 42.272826 153.804545 51.278889 
Q 151.56506 60.284952 151.56506 78.342795 
Q 151.56506 96.697791 153.804545 105.818145 
Q 156.050411 114.91564 159.483013 114.91564 
Q 160.759073 114.91564 161.894766 113.429868 
Q 160.101902 109.201133 158.245234 106.846756 
L 159.904112 94.777717 
Q 162.813529 98.343569 165.461354 105.498132 
z
" clip-path="url(#p174aab7262)" style="fill: #0000ff"/>
   </g>
   <g id="patch_24">
    <path d="M 192.232575 229.570452 
L 192.232575 227.282567 
L 205.937645 227.282567 
L 205.937645 232.691104 
Q 203.937557 233.523871 200.143576 234.158077 
Q 196.356467 234.792283 192.466262 234.792283 
Q 187.531337 234.792283 183.854199 233.900245 
Q 180.183935 233.005244 178.335056 231.342674 
Q 176.486178 229.680105 176.486178 227.727105 
Q 176.486178 225.60518 178.548124 223.957429 
Q 180.61007 222.309677 184.582754 221.429493 
Q 187.613815 220.753797 192.122604 220.753797 
Q 197.985405 220.753797 201.284519 221.814759 
Q 204.583633 222.872758 205.525256 224.742778 
L 199.2157 225.252514 
Q 198.549004 224.253787 196.706998 223.675888 
Q 194.871866 223.095026 192.122604 223.095026 
Q 187.957473 223.095026 185.496883 224.236005 
Q 183.036294 225.374021 183.036294 227.614489 
Q 183.036294 230.032771 185.524376 231.241913 
Q 188.019331 232.44809 192.060746 232.44809 
Q 194.060834 232.44809 196.067795 232.110242 
Q 198.074756 231.772394 199.511245 231.292293 
L 199.511245 229.570452 
L 192.232575 229.570452 
z
" clip-path="url(#p174aab7262)" style="fill: #ff69b4"/>
   </g>
   <g id="patch_25">
    <path d="M 176.486178 213.816052 
Q 176.486178 211.741545 177.877899 210.333843 
Q 178.911748 209.29659 180.701104 208.472714 
Q 182.49046 207.648838 184.624432 207.251718 
Q 187.460892 206.71531 191.172148 206.71531 
Q 197.878917 206.71531 201.908281 208.576439 
Q 205.937645 210.437569 205.937645 213.753817 
Q 205.937645 217.040429 201.941417 218.898595 
Q 197.94519 220.753797 191.251675 220.753797 
Q 184.478632 220.753797 180.482405 218.907485 
Q 176.486178 217.05821 176.486178 213.816052 
z
M 182.80194 213.724181 
Q 182.80194 216.029848 185.18112 217.221207 
Q 187.566928 218.409604 191.231793 218.409604 
Q 194.896658 218.409604 197.249329 217.230098 
Q 199.602001 216.050593 199.602001 213.688618 
Q 199.602001 211.353316 197.308975 210.206409 
Q 195.022576 209.05654 191.231793 209.05654 
Q 187.44101 209.05654 185.121475 210.221227 
Q 182.80194 211.382951 182.80194 213.724181 
z
" clip-path="url(#p174aab7262)" style="fill: #006400"/>
   </g>
   <g id="patch_26">
    <path d="M 176.486178 202.059508 
L 183.601968 201.80184 
Q 184.250296 203.143493 186.211092 203.774336 
Q 188.171887 204.402218 191.508402 204.402218 
Q 195.042579 204.402218 196.829433 203.842455 
Q 198.624193 203.282693 198.624193 202.533381 
Q 198.624193 202.050623 197.873082 201.712989 
Q 197.121971 201.375354 195.240239 201.126571 
Q 193.959397 200.957754 189.389478 200.53423 
Q 183.507091 199.986314 181.135161 199.192577 
Q 177.798646 198.07009 177.798646 196.461884 
Q 177.798646 195.425287 179.36412 194.521966 
Q 180.9375 193.618646 183.8866 193.147735 
Q 186.843606 192.676823 191.018204 192.676823 
Q 197.83355 192.676823 201.280755 193.796348 
Q 204.72796 194.915873 204.901902 196.78471 
L 197.58845 196.90614 
Q 197.121971 195.860658 195.57231 195.401593 
Q 194.030555 194.942529 190.939139 194.942529 
Q 187.752846 194.942529 185.950179 195.434172 
Q 184.787933 195.748113 184.787933 196.275296 
Q 184.787933 196.758054 185.879021 197.098651 
Q 187.262647 197.534021 192.59949 198.007894 
Q 197.936333 198.478806 200.490112 198.985257 
Q 203.051796 199.488747 204.490767 200.362451 
Q 205.937645 201.236154 205.937645 202.524496 
Q 205.937645 203.688447 204.206136 204.707273 
Q 202.482533 205.7261 199.319959 206.220705 
Q 196.157386 206.71531 191.437245 206.71531 
Q 184.566553 206.71531 180.882155 205.527666 
Q 177.205663 204.33706 176.486178 202.059508 
z
" clip-path="url(#p174aab7262)" style="fill: #ffff00"/>
   </g>
   <g id="patch_27">
    <path d="M 176.486178 192.676823 
L 187.315245 185.349598 
L 177.502699 178.638337 
L 184.977937 178.638337 
L 191.332926 183.149285 
L 197.556528 178.638337 
L 204.969529 178.638337 
L 195.115493 185.456855 
L 205.937645 192.676823 
L 198.227294 192.676823 
L 191.201539 187.822651 
L 184.155038 192.676823 
L 176.486178 192.676823 
z
" clip-path="url(#p174aab7262)" style="fill: #bdb76b"/>
   </g>
   <g id="patch_28">
    <path d="M 195.810533 164.59985 
L 203.604521 164.59985 
L 203.604521 173.338123 
Q 203.604521 175.049619 202.759186 175.97467 
Q 201.617984 177.179949 198.633951 177.909143 
Q 195.649919 178.638337 190.763884 178.638337 
Q 185.032513 178.638337 181.938588 177.496335 
Q 178.853115 176.35132 178.819302 174.13662 
L 186.190622 173.8353 
Q 186.325876 175.0225 187.17121 175.513651 
Q 188.439213 176.254898 191.025938 176.254898 
Q 193.646476 176.254898 194.728504 175.724575 
Q 195.810533 175.191239 195.810533 173.515901 
L 195.810533 164.59985 
z
" clip-path="url(#p174aab7262)" style="fill: #7b68ee"/>
   </g>
   <g id="patch_29">
    <path d="M 201.209842 158.894486 
Q 203.385525 160.227567 205.937645 161.01754 
L 203.761962 164.59985 
Q 202.42848 164.259723 201.152419 163.661757 
Q 200.871686 163.541066 197.222154 161.428984 
Q 194.351019 162.509712 190.860995 162.509712 
Q 184.123397 162.509712 180.301597 159.097466 
Q 176.486178 155.685219 176.486178 149.513551 
Q 176.486178 143.358342 180.314358 139.940609 
Q 184.142538 136.522877 190.701487 136.522877 
Q 197.203013 136.522877 201.012053 139.940609 
Q 204.821092 143.358342 204.821092 149.513551 
Q 204.821092 152.772192 203.761962 155.240859 
Q 202.964425 157.128018 201.209842 158.894486 
z
M 196.462899 156.030833 
Q 197.604972 154.878788 198.172819 153.254954 
Q 198.740666 151.625633 198.740666 149.513551 
Q 198.740666 145.163212 196.507561 143.012728 
Q 194.274455 140.856759 190.663205 140.856759 
Q 187.051955 140.856759 184.806089 143.018214 
Q 182.566604 145.179669 182.566604 149.513551 
Q 182.566604 153.918751 184.806089 156.107635 
Q 187.051955 158.291034 190.484557 158.291034 
Q 191.760617 158.291034 192.896311 157.934449 
Q 191.103446 156.919553 189.246779 156.354502 
L 190.905657 153.457933 
Q 193.815074 154.313737 196.462899 156.030833 
z
" clip-path="url(#p174aab7262)" style="fill: #0000ff"/>
   </g>
   <g id="patch_30">
    <path d="M 187.481931 136.522877 
L 187.481931 43.2149 
L 176.486178 43.2149 
L 176.486178 24.214983 
L 205.937645 24.214983 
L 205.937645 43.2149 
L 194.966164 43.2149 
L 194.966164 136.522877 
L 187.481931 136.522877 
z
" clip-path="url(#p174aab7262)" style="fill: #a0522d"/>
   </g>
   <g id="patch_31">
    <path d="M 223.234119 229.570452 
L 223.234119 227.282567 
L 236.939189 227.282567 
L 236.939189 232.691104 
Q 234.939101 233.523871 231.14512 234.158077 
Q 227.358012 234.792283 223.467806 234.792283 
Q 218.532881 234.792283 214.855744 233.900245 
Q 211.185479 233.005244 209.336601 231.342674 
Q 207.487722 229.680105 207.487722 227.727105 
Q 207.487722 225.60518 209.549668 223.957429 
Q 211.611615 222.309677 215.584298 221.429493 
Q 218.615359 220.753797 223.124149 220.753797 
Q 228.986949 220.753797 232.286064 221.814759 
Q 235.585178 222.872758 236.5268 224.742778 
L 230.217244 225.252514 
Q 229.550548 224.253787 227.708543 223.675888 
Q 225.87341 223.095026 223.124149 223.095026 
Q 218.959017 223.095026 216.498428 224.236005 
Q 214.037838 225.374021 214.037838 227.614489 
Q 214.037838 230.032771 216.52592 231.241913 
Q 219.020875 232.44809 223.06229 232.44809 
Q 225.062378 232.44809 227.069339 232.110242 
Q 229.0763 231.772394 230.51279 231.292293 
L 230.51279 229.570452 
L 223.234119 229.570452 
z
" clip-path="url(#p174aab7262)" style="fill: #ff69b4"/>
   </g>
   <g id="patch_32">
    <path d="M 207.487722 206.71531 
L 214.94328 206.71531 
L 214.94328 214.191053 
Q 214.94328 215.971853 215.225382 216.499162 
Q 215.700925 217.345871 217.498319 217.858114 
Q 219.303773 218.370358 222.431077 218.370358 
Q 225.598682 218.370358 227.210694 217.888246 
Q 228.822707 217.403121 229.153169 216.698033 
Q 229.483632 215.989932 229.483632 214.350752 
L 229.483632 206.71531 
L 236.939189 206.71531 
L 236.939189 213.965063 
Q 236.939189 216.450951 236.334685 217.478451 
Q 235.73018 218.502938 234.102047 219.21104 
Q 232.473915 219.916128 229.749614 220.334962 
Q 227.033373 220.753797 222.656759 220.753797 
Q 217.361298 220.753797 214.628937 220.298804 
Q 211.896576 219.840798 210.308744 219.111604 
Q 208.728972 218.38241 208.221188 217.5809 
Q 207.487722 216.3937 207.487722 214.076551 
L 207.487722 206.71531 
z
" clip-path="url(#p174aab7262)" style="fill: #f08080"/>
   </g>
   <g id="patch_33">
    <path d="M 207.487722 206.71531 
L 207.487722 192.676823 
L 214.082398 192.676823 
L 214.082398 198.910022 
L 227.407209 192.676823 
L 236.276157 192.676823 
L 223.977977 198.143896 
L 236.939189 206.71531 
L 228.412451 206.71531 
L 219.429433 200.126629 
L 214.082398 202.474038 
L 214.082398 206.71531 
L 207.487722 206.71531 
z
" clip-path="url(#p174aab7262)" style="fill: #6495ed"/>
   </g>
   <g id="patch_34">
    <path d="M 212.846988 192.676823 
L 207.487722 178.638337 
L 212.126867 178.638337 
L 215.507025 188.282327 
L 219.612203 178.638337 
L 225.000862 178.638337 
L 228.934582 188.444745 
L 232.378425 178.638337 
L 236.939189 178.638337 
L 231.491745 192.676823 
L 226.686042 192.676823 
L 222.213456 182.180902 
L 217.760464 192.676823 
L 212.846988 192.676823 
z
" clip-path="url(#p174aab7262)" style="fill: #9acd32"/>
   </g>
   <g id="patch_35">
    <path d="M 207.487722 178.638337 
L 218.316789 171.311111 
L 208.504244 164.59985 
L 215.979481 164.59985 
L 222.33447 169.110798 
L 228.558072 164.59985 
L 235.971073 164.59985 
L 226.117037 171.418369 
L 236.939189 178.638337 
L 229.228838 178.638337 
L 222.203083 173.784165 
L 215.156583 178.638337 
L 207.487722 178.638337 
z
" clip-path="url(#p174aab7262)" style="fill: #bdb76b"/>
   </g>
   <g id="patch_36">
    <path d="M 208.937471 164.59985 
L 208.937471 150.561363 
L 235.48944 150.561363 
L 235.48944 152.936353 
L 216.756819 152.936353 
L 216.756819 156.258274 
L 232.919622 156.258274 
L 232.919622 158.633263 
L 216.756819 158.633263 
L 216.756819 164.59985 
L 208.937471 164.59985 
z
" clip-path="url(#p174aab7262)" style="fill: #ff0000"/>
   </g>
   <g id="patch_37">
    <path d="M 226.812077 136.522877 
L 234.606065 136.522877 
L 234.606065 145.261149 
Q 234.606065 146.972645 233.76073 147.897697 
Q 232.619528 149.102976 229.635496 149.83217 
Q 226.651464 150.561363 221.765428 150.561363 
Q 216.034058 150.561363 212.940132 149.419362 
Q 209.85466 148.274347 209.820846 146.059647 
L 217.192166 145.758327 
Q 217.32742 146.945527 218.172755 147.436678 
Q 219.440757 148.177924 222.027482 148.177924 
Q 224.64802 148.177924 225.730049 147.647602 
Q 226.812077 147.114266 226.812077 145.438928 
L 226.812077 136.522877 
z
" clip-path="url(#p174aab7262)" style="fill: #7b68ee"/>
   </g>
   <g id="patch_38">
    <path d="M 218.483476 136.522877 
L 218.483476 113.195883 
L 207.487722 113.195883 
L 207.487722 108.445903 
L 236.939189 108.445903 
L 236.939189 113.195883 
L 225.967709 113.195883 
L 225.967709 136.522877 
L 218.483476 136.522877 
z
" clip-path="url(#p174aab7262)" style="fill: #a0522d"/>
   </g>
   <g id="patch_39">
    <path d="M 232.211387 99.887858 
Q 234.387069 101.887478 236.939189 103.072438 
L 234.763507 108.445903 
Q 233.430024 107.935712 232.153964 107.038763 
Q 231.873231 106.857728 228.223699 103.689605 
Q 225.352563 105.310696 221.862539 105.310696 
Q 215.124942 105.310696 211.303142 100.192327 
Q 207.487722 95.073957 207.487722 85.816455 
Q 207.487722 76.583641 211.315902 71.457042 
Q 215.144083 66.330443 221.703032 66.330443 
Q 228.204558 66.330443 232.013597 71.457042 
Q 235.822637 76.583641 235.822637 85.816455 
Q 235.822637 90.704416 234.763507 94.407417 
Q 233.965969 97.238155 232.211387 99.887858 
z
M 227.464443 95.592377 
Q 228.606517 93.86431 229.174363 91.428559 
Q 229.74221 88.984578 229.74221 85.816455 
Q 229.74221 79.290946 227.509105 76.065221 
Q 225.276 72.831267 221.66475 72.831267 
Q 218.0535 72.831267 215.807634 76.073449 
Q 213.568148 79.315632 213.568148 85.816455 
Q 213.568148 92.424254 215.807634 95.707581 
Q 218.0535 98.98268 221.486101 98.98268 
Q 222.762161 98.98268 223.897855 98.447802 
Q 222.10499 96.925457 220.248323 96.077882 
L 221.907201 91.733028 
Q 224.816618 93.016734 227.464443 95.592377 
z
" clip-path="url(#p174aab7262)" style="fill: #0000ff"/>
   </g>
   <g id="patch_40">
    <path d="M 207.487722 52.363038 
L 214.603513 51.590032 
Q 215.25184 55.614991 217.212636 57.507521 
Q 219.173432 59.391166 222.509947 59.391166 
Q 226.044123 59.391166 227.830977 57.711879 
Q 229.625738 56.032592 229.625738 53.784657 
Q 229.625738 52.336382 228.874626 51.323479 
Q 228.123515 50.310575 226.241784 49.564226 
Q 224.960941 49.057774 220.391023 47.787202 
Q 214.508636 46.143455 212.136705 43.762243 
Q 208.80019 40.394784 208.80019 35.570164 
Q 208.80019 32.460373 210.365664 29.750412 
Q 211.939044 27.040451 214.888144 25.627717 
Q 217.845151 24.214983 222.019748 24.214983 
Q 228.835094 24.214983 232.282299 27.573558 
Q 235.729505 30.932133 235.903446 36.538642 
L 228.589995 36.902932 
Q 228.123515 33.766486 226.573854 32.389292 
Q 225.032099 31.012099 221.940684 31.012099 
Q 218.754391 31.012099 216.951724 32.487028 
Q 215.789478 33.428851 215.789478 35.010402 
Q 215.789478 36.458676 216.880566 37.480465 
Q 218.264192 38.786577 223.601035 40.208196 
Q 228.937878 41.62093 231.491656 43.140285 
Q 234.053341 44.650755 235.492312 47.271865 
Q 236.939189 49.892975 236.939189 53.758001 
Q 236.939189 57.249853 235.20768 60.306333 
Q 233.484077 63.362814 230.321504 64.846629 
Q 227.15893 66.330443 222.438789 66.330443 
Q 215.568098 66.330443 211.883699 62.767511 
Q 208.207208 59.195694 207.487722 52.363038 
z
" clip-path="url(#p174aab7262)" style="fill: #ffff00"/>
   </g>
   <g id="patch_41">
    <path d="M 238.489266 234.792283 
L 238.489266 218.59403 
L 245.928537 218.59403 
L 245.928537 224.969374 
L 260.501463 224.969374 
L 260.501463 218.59403 
L 267.940734 218.59403 
L 267.940734 234.792283 
L 260.501463 234.792283 
L 260.501463 227.709746 
L 245.928537 227.709746 
L 245.928537 234.792283 
L 238.489266 234.792283 
z
" clip-path="url(#p174aab7262)" style="fill: #00ffff"/>
   </g>
   <g id="patch_42">
    <path d="M 238.489266 210.588939 
Q 238.489266 208.195277 239.880987 206.571007 
Q 240.914837 205.374175 242.704193 204.42355 
Q 244.493548 203.472924 246.627521 203.014708 
Q 249.463981 202.395776 253.175237 202.395776 
Q 259.882006 202.395776 263.91137 204.543233 
Q 267.940734 206.69069 267.940734 210.51713 
Q 267.940734 214.309374 263.944506 216.453412 
Q 259.948279 218.59403 253.254763 218.59403 
Q 246.481721 218.59403 242.485494 216.46367 
Q 238.489266 214.329891 238.489266 210.588939 
z
M 244.805029 210.482934 
Q 244.805029 213.143319 247.184209 214.517965 
Q 249.570016 215.889191 253.234882 215.889191 
Q 256.899747 215.889191 259.252418 214.528223 
Q 261.605089 213.167256 261.605089 210.4419 
Q 261.605089 207.747321 259.312063 206.423967 
Q 257.025665 205.097195 253.234882 205.097195 
Q 249.444099 205.097195 247.124564 206.441065 
Q 244.805029 207.781516 244.805029 210.482934 
z
" clip-path="url(#p174aab7262)" style="fill: #006400"/>
   </g>
   <g id="patch_43">
    <path d="M 238.489266 202.395776 
L 238.489266 186.197522 
L 245.083943 186.197522 
L 245.083943 193.389674 
L 258.408753 186.197522 
L 267.277701 186.197522 
L 254.979521 192.505683 
L 267.940734 202.395776 
L 259.413996 202.395776 
L 250.430977 194.793452 
L 245.083943 197.502001 
L 245.083943 202.395776 
L 238.489266 202.395776 
z
" clip-path="url(#p174aab7262)" style="fill: #6495ed"/>
   </g>
   <g id="patch_44">
    <path d="M 238.489266 175.453364 
L 245.605057 174.858744 
Q 246.253385 177.954866 248.21418 179.410659 
Q 250.174976 180.859616 253.511491 180.859616 
Q 257.045667 180.859616 258.832521 179.567857 
Q 260.627282 178.276097 260.627282 176.546917 
Q 260.627282 175.43286 259.876171 174.653703 
Q 259.12506 173.874547 257.243328 173.300431 
Q 255.962486 172.910853 251.392567 171.93349 
Q 245.51018 170.669069 243.13825 168.837368 
Q 239.801734 166.247014 239.801734 162.535769 
Q 239.801734 160.143622 241.367208 158.059036 
Q 242.940589 155.974451 245.889689 154.887733 
Q 248.846695 153.801014 253.021292 153.801014 
Q 259.836639 153.801014 263.283844 156.384533 
Q 266.731049 158.968052 266.904991 163.280752 
L 259.591539 163.560975 
Q 259.12506 161.148324 257.575398 160.088944 
Q 256.033644 159.029565 252.942228 159.029565 
Q 249.755935 159.029565 247.953268 160.164126 
Q 246.791022 160.888605 246.791022 162.105182 
Q 246.791022 163.21924 247.88211 164.005231 
Q 249.265736 165.009933 254.602579 166.103486 
Q 259.939422 167.190204 262.4932 168.358939 
Q 265.054885 169.520839 266.493856 171.537077 
Q 267.940734 173.553315 267.940734 176.526413 
Q 267.940734 179.212452 266.209225 181.563591 
Q 264.485622 183.91473 261.323048 185.056126 
Q 258.160475 186.197522 253.440333 186.197522 
Q 246.569642 186.197522 242.885244 183.456805 
Q 239.208752 180.709253 238.489266 175.453364 
z
" clip-path="url(#p174aab7262)" style="fill: #ffff00"/>
   </g>
   <g id="patch_45">
    <path d="M 263.212931 140.63479 
Q 265.388613 143.711129 267.940734 145.534145 
L 265.765051 153.801014 
Q 264.431568 153.016105 263.155508 151.636183 
Q 262.874775 151.357667 259.225243 146.483632 
Q 256.354108 148.977619 252.864083 148.977619 
Q 246.126486 148.977619 242.304686 141.103204 
Q 238.489266 133.228789 238.489266 118.986479 
Q 238.489266 104.782148 242.317447 96.895074 
Q 246.145627 89.007999 252.704576 89.007999 
Q 259.206102 89.007999 263.015142 96.895074 
Q 266.824181 104.782148 266.824181 118.986479 
Q 266.824181 126.506418 265.765051 132.203342 
Q 264.967514 136.558324 263.212931 140.63479 
z
M 258.465987 134.026358 
Q 259.608061 131.367794 260.175908 127.620484 
Q 260.743755 123.860514 260.743755 118.986479 
Q 260.743755 108.947233 258.510649 103.984579 
Q 256.277544 99.009265 252.666294 99.009265 
Q 249.055044 99.009265 246.809178 103.997239 
Q 244.569693 108.985212 244.569693 118.986479 
Q 244.569693 129.152323 246.809178 134.203596 
Q 249.055044 139.242209 252.487646 139.242209 
Q 253.763706 139.242209 254.899399 138.41932 
Q 253.106535 136.077251 251.249867 134.773288 
L 252.908746 128.088897 
Q 255.818163 130.063831 258.465987 134.026358 
z
" clip-path="url(#p174aab7262)" style="fill: #0000ff"/>
   </g>
   <g id="patch_46">
    <path d="M 249.48502 89.007999 
L 249.48502 35.176474 
L 238.489266 35.176474 
L 238.489266 24.214983 
L 267.940734 24.214983 
L 267.940734 35.176474 
L 256.969253 35.176474 
L 256.969253 89.007999 
L 249.48502 89.007999 
z
" clip-path="url(#p174aab7262)" style="fill: #a0522d"/>
   </g>
   <g id="patch_47">
    <path d="M 269.490811 234.792283 
L 269.490811 211.394806 
L 276.78479 211.394806 
L 291.98058 227.018662 
L 291.98058 211.394806 
L 298.942278 211.394806 
L 298.942278 234.792283 
L 291.421375 234.792283 
L 276.452509 219.53106 
L 276.452509 234.792283 
L 269.490811 234.792283 
z
" clip-path="url(#p174aab7262)" style="fill: #00bfff"/>
   </g>
   <g id="patch_48">
    <path d="M 269.490811 211.394806 
L 269.490811 187.997328 
L 298.206837 187.997328 
L 298.206837 191.955644 
L 277.310158 191.955644 
L 277.310158 197.139761 
L 296.752861 197.139761 
L 296.752861 201.082754 
L 277.310158 201.082754 
L 277.310158 207.451812 
L 298.942278 207.451812 
L 298.942278 211.394806 
L 269.490811 211.394806 
z
" clip-path="url(#p174aab7262)" style="fill: #c0c0c0"/>
   </g>
   <g id="patch_49">
    <path d="M 269.490811 187.997328 
L 269.490811 164.59985 
L 283.412153 164.59985 
Q 288.660363 164.59985 291.041362 165.233181 
Q 293.422362 165.861404 294.852392 167.475375 
Q 296.282422 169.084239 296.282422 171.157886 
Q 296.282422 173.793358 294.108777 175.50948 
Q 291.942281 177.225601 287.630741 177.669954 
Q 289.775786 178.563767 291.170065 179.636343 
Q 292.571494 180.703812 294.938194 183.431219 
L 298.942278 187.997328 
L 291.027062 187.997328 
L 286.250762 182.905146 
Q 283.698159 180.177739 282.761489 179.467796 
Q 281.824819 178.757852 280.773747 178.492262 
Q 279.722675 178.226672 277.441777 178.226672 
L 276.104699 178.226672 
L 276.104699 187.997328 
L 269.490811 187.997328 
z
M 276.104699 174.493086 
L 280.995402 174.493086 
Q 285.757402 174.493086 286.937176 174.207066 
Q 288.124101 173.921046 288.796215 173.221318 
Q 289.468329 172.516482 289.468329 171.459229 
Q 289.468329 170.279395 288.581711 169.554129 
Q 287.702242 168.828864 286.093459 168.634779 
Q 285.285492 168.558166 281.267108 168.558166 
L 276.104699 168.558166 
L 276.104699 174.493086 
z
" clip-path="url(#p174aab7262)" style="fill: #ffe4b5"/>
   </g>
   <g id="patch_50">
    <path d="M 269.490811 156.84018 
L 276.606602 156.410733 
Q 277.254929 158.646821 279.215725 159.698227 
Q 281.17652 160.744696 284.513036 160.744696 
Q 288.047212 160.744696 289.834066 159.811759 
Q 291.628826 158.878821 291.628826 157.629969 
Q 291.628826 156.825372 290.877715 156.262648 
Q 290.126604 155.699923 288.244873 155.285285 
Q 286.96403 155.003923 282.394111 154.298049 
Q 276.511724 153.384857 274.139794 152.061961 
Q 270.803279 150.19115 270.803279 147.510806 
Q 270.803279 145.783144 272.368753 144.277611 
Q 273.942133 142.772077 276.891233 141.987224 
Q 279.84824 141.202372 284.022837 141.202372 
Q 290.838183 141.202372 294.285388 143.068247 
Q 297.732594 144.934122 297.906535 148.04885 
L 290.593084 148.251233 
Q 290.126604 146.508762 288.576943 145.743655 
Q 287.035188 144.978548 283.943772 144.978548 
Q 280.757479 144.978548 278.954812 145.797953 
Q 277.792567 146.321188 277.792567 147.199827 
Q 277.792567 148.004424 278.883655 148.572084 
Q 280.267281 149.297702 285.604124 150.087491 
Q 290.940967 150.872343 293.494745 151.716429 
Q 296.05643 152.555579 297.495401 154.011751 
Q 298.942278 155.467923 298.942278 157.61516 
Q 298.942278 159.555078 297.210769 161.253122 
Q 295.487166 162.951167 292.324593 163.775509 
Q 289.162019 164.59985 284.441878 164.59985 
Q 277.571187 164.59985 273.886788 162.620443 
Q 270.210296 160.6361 269.490811 156.84018 
z
" clip-path="url(#p174aab7262)" style="fill: #ffff00"/>
   </g>
   <g id="patch_51">
    <path d="M 274.850076 141.202372 
L 269.490811 117.804895 
L 274.129956 117.804895 
L 277.510114 133.878211 
L 281.615292 117.804895 
L 287.00395 117.804895 
L 290.937671 134.148909 
L 294.381514 117.804895 
L 298.942278 117.804895 
L 293.494834 141.202372 
L 288.689131 141.202372 
L 284.216544 123.70917 
L 279.763553 141.202372 
L 274.850076 141.202372 
z
" clip-path="url(#p174aab7262)" style="fill: #9acd32"/>
   </g>
   <g id="patch_52">
    <path d="M 269.490811 117.804895 
L 280.319878 105.592852 
L 270.507332 94.407417 
L 277.98257 94.407417 
L 284.337559 101.925663 
L 290.561161 94.407417 
L 297.974162 94.407417 
L 288.120126 105.771614 
L 298.942278 117.804895 
L 291.231927 117.804895 
L 284.206172 109.714608 
L 277.159671 117.804895 
L 269.490811 117.804895 
z
" clip-path="url(#p174aab7262)" style="fill: #bdb76b"/>
   </g>
   <g id="patch_53">
    <path d="M 270.94056 94.407417 
L 270.94056 24.214984 
L 297.492529 24.214984 
L 297.492529 36.089931 
L 278.759908 36.089931 
L 278.759908 52.699536 
L 294.922711 52.699536 
L 294.922711 64.574483 
L 278.759908 64.574483 
L 278.759908 94.407417 
L 270.94056 94.407417 
z
" clip-path="url(#p174aab7262)" style="fill: #ff0000"/>
   </g>
   <g id="patch_54">
    <path d="M 316.238752 226.089232 
L 316.238752 222.27609 
L 329.943822 222.27609 
L 329.943822 231.290318 
Q 327.943734 232.678262 324.149753 233.735273 
Q 320.362645 234.792283 316.47244 234.792283 
Q 311.537515 234.792283 307.860377 233.305553 
Q 304.190112 231.813884 302.341234 229.042935 
Q 300.492355 226.271986 300.492355 223.016985 
Q 300.492355 219.480445 302.554302 216.734192 
Q 304.616248 213.98794 308.588931 212.520967 
Q 311.619992 211.394806 316.128782 211.394806 
Q 321.991583 211.394806 325.290697 213.163076 
Q 328.589811 214.926407 329.531433 218.043107 
L 323.221877 218.892668 
Q 322.555181 217.228122 320.713176 216.264958 
Q 318.878044 215.296855 316.128782 215.296855 
Q 311.96365 215.296855 309.503061 217.198487 
Q 307.042471 219.095179 307.042471 222.829292 
Q 307.042471 226.859763 309.530553 228.874999 
Q 312.025509 230.885295 316.066923 230.885295 
Q 318.067011 230.885295 320.073972 230.322214 
Q 322.080934 229.759134 323.517423 228.958967 
L 323.517423 226.089232 
L 316.238752 226.089232 
z
" clip-path="url(#p174aab7262)" style="fill: #ff69b4"/>
   </g>
   <g id="patch_55">
    <path d="M 300.492355 203.635136 
L 307.608146 203.205688 
Q 308.256474 205.441777 310.217269 206.493182 
Q 312.178065 207.539652 315.51458 207.539652 
Q 319.048756 207.539652 320.83561 206.606714 
Q 322.630371 205.673777 322.630371 204.424924 
Q 322.630371 203.620327 321.87926 203.057603 
Q 321.128148 202.494879 319.246417 202.08024 
Q 317.965575 201.798878 313.395656 201.093005 
Q 307.513269 200.179812 305.141338 198.856917 
Q 301.804823 196.986106 301.804823 194.305762 
Q 301.804823 192.5781 303.370297 191.072566 
Q 304.943678 189.567032 307.892778 188.78218 
Q 310.849784 187.997328 315.024381 187.997328 
Q 321.839727 187.997328 325.286933 189.863203 
Q 328.734138 191.729078 328.90808 194.843805 
L 321.594628 195.046188 
Q 321.128148 193.303718 319.578487 192.538611 
Q 318.036733 191.773503 314.945317 191.773503 
Q 311.759024 191.773503 309.956357 192.592908 
Q 308.794111 193.116143 308.794111 193.994783 
Q 308.794111 194.79938 309.885199 195.36704 
Q 311.268825 196.092658 316.605668 196.882446 
Q 321.942511 197.667298 324.496289 198.511384 
Q 327.057974 199.350534 328.496945 200.806707 
Q 329.943822 202.262879 329.943822 204.410116 
Q 329.943822 206.350033 328.212313 208.048078 
Q 326.488711 209.746123 323.326137 210.570464 
Q 320.163563 211.394806 315.443422 211.394806 
Q 308.572731 211.394806 304.888333 209.415399 
Q 301.211841 207.431056 300.492355 203.635136 
z
" clip-path="url(#p174aab7262)" style="fill: #ffff00"/>
   </g>
   <g id="patch_56">
    <path d="M 311.488109 187.997328 
L 311.488109 168.558166 
L 300.492355 168.558166 
L 300.492355 164.59985 
L 329.943822 164.59985 
L 329.943822 168.558166 
L 318.972342 168.558166 
L 318.972342 187.997328 
L 311.488109 187.997328 
z
" clip-path="url(#p174aab7262)" style="fill: #a0522d"/>
   </g>
   <g id="patch_57">
    <path d="M 305.851621 164.59985 
L 300.492355 141.202372 
L 305.1315 141.202372 
L 308.511659 157.275689 
L 312.616836 141.202372 
L 318.005495 141.202372 
L 321.939215 157.546387 
L 325.383058 141.202372 
L 329.943822 141.202372 
L 324.496379 164.59985 
L 319.690675 164.59985 
L 315.218089 147.106648 
L 310.765098 164.59985 
L 305.851621 164.59985 
z
" clip-path="url(#p174aab7262)" style="fill: #9acd32"/>
   </g>
   <g id="patch_58">
    <path d="M 300.492355 141.202372 
L 311.321423 128.990329 
L 301.508877 117.804895 
L 308.984114 117.804895 
L 315.339103 125.323141 
L 321.562705 117.804895 
L 328.975707 117.804895 
L 319.12167 129.169092 
L 329.943822 141.202372 
L 322.233471 141.202372 
L 315.207716 133.112085 
L 308.161216 141.202372 
L 300.492355 141.202372 
z
" clip-path="url(#p174aab7262)" style="fill: #bdb76b"/>
   </g>
   <g id="patch_59">
    <path d="M 300.492355 94.679078 
Q 300.492355 87.764054 301.884076 83.071717 
Q 302.917926 79.614205 304.707282 76.867952 
Q 306.496637 74.1217 308.630609 72.797967 
Q 311.467069 71.009939 315.178325 71.009939 
Q 321.885095 71.009939 325.914459 77.213703 
Q 329.943822 83.417468 329.943822 94.471628 
Q 329.943822 105.427002 325.947595 111.620887 
Q 321.951368 117.804895 315.257852 117.804895 
Q 308.48481 117.804895 304.488583 111.650523 
Q 300.492355 105.486273 300.492355 94.679078 
z
M 306.808118 94.372842 
Q 306.808118 102.058397 309.187298 106.029597 
Q 311.573105 109.990917 315.237971 109.990917 
Q 318.902836 109.990917 321.255507 106.059232 
Q 323.608178 102.127547 323.608178 94.254298 
Q 323.608178 86.469957 321.315152 82.646937 
Q 319.028753 78.814038 315.237971 78.814038 
Q 311.447188 78.814038 309.127653 82.69633 
Q 306.808118 86.568743 306.808118 94.372842 
z
" clip-path="url(#p174aab7262)" style="fill: #006400"/>
   </g>
   <g id="patch_60">
    <path d="M 325.21602 61.500999 
Q 327.391702 63.7228 329.943822 65.039422 
L 327.76814 71.009939 
Q 326.434657 70.44306 325.158597 69.44645 
Q 324.877864 69.245299 321.228332 65.725163 
Q 318.357197 67.526376 314.867172 67.526376 
Q 308.129575 67.526376 304.307775 61.839298 
Q 300.492355 56.152221 300.492355 45.866108 
Q 300.492355 35.607425 304.320536 29.911204 
Q 308.148716 24.214984 314.707665 24.214984 
Q 321.209191 24.214984 325.01823 29.911204 
Q 328.82727 35.607425 328.82727 45.866108 
Q 328.82727 51.297175 327.76814 55.411621 
Q 326.970602 58.556885 325.21602 61.500999 
z
M 320.469076 56.728243 
Q 321.61115 54.808169 322.178997 52.101778 
Q 322.746843 49.386244 322.746843 45.866108 
Q 322.746843 38.615541 320.513738 35.031402 
Q 318.280633 31.43812 314.669383 31.43812 
Q 311.058133 31.43812 308.812267 35.040546 
Q 306.572782 38.642971 306.572782 45.866108 
Q 306.572782 53.208107 308.812267 56.856248 
Q 311.058133 60.495246 314.490735 60.495246 
Q 315.766795 60.495246 316.902488 59.900937 
Q 315.109624 58.209443 313.252956 57.267692 
L 314.911834 52.440077 
Q 317.821251 53.866418 320.469076 56.728243 
z
" clip-path="url(#p174aab7262)" style="fill: #0000ff"/>
   </g>
   <g id="patch_61">
    <path d="M 331.4939 200.103559 
Q 331.4939 189.731023 332.885621 182.692517 
Q 333.91947 177.506249 335.708826 173.38687 
Q 337.498182 169.267491 339.632154 167.281892 
Q 342.468614 164.59985 346.17987 164.59985 
Q 352.88664 164.59985 356.916003 173.905497 
Q 360.945367 183.211143 360.945367 199.792383 
Q 360.945367 216.225444 356.949139 225.516273 
Q 352.952912 234.792283 346.259397 234.792283 
Q 339.486354 234.792283 335.490127 225.560726 
Q 331.4939 216.314351 331.4939 200.103559 
z
M 337.809662 199.644204 
Q 337.809662 211.172537 340.188842 217.129336 
Q 342.57465 223.071318 346.239515 223.071318 
Q 349.90438 223.071318 352.257051 217.17379 
Q 354.609723 211.276262 354.609723 199.466389 
Q 354.609723 187.789877 352.316697 182.055347 
Q 350.030298 176.305998 346.239515 176.305998 
Q 342.448732 176.305998 340.129197 182.129436 
Q 337.809662 187.938056 337.809662 199.644204 
z
" clip-path="url(#p174aab7262)" style="fill: #006400"/>
   </g>
   <g id="patch_62">
    <path d="M 331.4939 164.59985 
L 331.4939 94.407417 
L 338.93317 94.407417 
L 338.93317 122.033908 
L 353.506097 122.033908 
L 353.506097 94.407417 
L 360.945367 94.407417 
L 360.945367 164.59985 
L 353.506097 164.59985 
L 353.506097 133.908856 
L 338.93317 133.908856 
L 338.93317 164.59985 
L 331.4939 164.59985 
z
" clip-path="url(#p174aab7262)" style="fill: #00ffff"/>
   </g>
   <g id="patch_63">
    <path d="M 347.240297 68.298262 
L 347.240297 56.858836 
L 360.945367 56.858836 
L 360.945367 83.90152 
Q 358.945279 88.065352 355.151298 91.236384 
Q 351.364189 94.407417 347.473984 94.407417 
Q 342.539059 94.407417 338.861921 89.947226 
Q 335.191657 85.472218 333.342778 77.159371 
Q 331.4939 68.846524 331.4939 59.081523 
Q 331.4939 48.4719 333.555846 40.233143 
Q 335.617792 31.994386 339.590476 27.593467 
Q 342.621537 24.214983 347.130326 24.214983 
Q 352.993127 24.214983 356.292241 29.519795 
Q 359.591355 34.809788 360.532978 44.159889 
L 354.223422 46.708569 
Q 353.556726 41.714934 351.71472 38.825441 
Q 349.879588 35.921131 347.130326 35.921131 
Q 342.965195 35.921131 340.504605 41.626026 
Q 338.044016 47.316103 338.044016 58.518442 
Q 338.044016 70.609856 340.532098 76.655562 
Q 343.027053 82.686451 347.068468 82.686451 
Q 349.068556 82.686451 351.075517 80.997209 
Q 353.082478 79.307968 354.518967 76.907467 
L 354.518967 68.298262 
L 347.240297 68.298262 
z
" clip-path="url(#p174aab7262)" style="fill: #ff69b4"/>
   </g>
   <g id="patch_64">
    <path d="M 362.495444 234.792283 
L 362.495444 129.503633 
L 369.934714 129.503633 
L 369.934714 170.943371 
L 384.507641 170.943371 
L 384.507641 129.503633 
L 391.946911 129.503633 
L 391.946911 234.792283 
L 384.507641 234.792283 
L 384.507641 188.755792 
L 369.934714 188.755792 
L 369.934714 234.792283 
L 362.495444 234.792283 
z
" clip-path="url(#p174aab7262)" style="fill: #00ffff"/>
   </g>
   <g id="patch_65">
    <path d="M 362.495444 94.585119 
L 369.611235 92.652606 
Q 370.259562 102.715002 372.220358 107.446328 
Q 374.181154 112.15544 377.517669 112.15544 
Q 381.051845 112.15544 382.838699 107.957222 
Q 384.63346 103.759004 384.63346 98.139166 
Q 384.63346 94.518481 383.882348 91.986222 
Q 383.131237 89.453963 381.249506 87.588089 
Q 379.968663 86.321959 375.398745 83.14553 
Q 369.516358 79.036162 367.144427 73.083133 
Q 363.807912 64.664484 363.807912 52.602936 
Q 363.807912 44.828458 365.373386 38.053555 
Q 366.946766 31.278652 369.895866 27.746818 
Q 372.852873 24.214983 377.02747 24.214983 
Q 383.842816 24.214983 387.290021 32.61142 
Q 390.737227 41.007857 390.911168 55.024131 
L 383.597717 55.934855 
Q 383.131237 48.093739 381.581576 44.650755 
Q 380.039821 41.207772 376.948406 41.207772 
Q 373.762113 41.207772 371.959446 44.895096 
Q 370.7972 47.249652 370.7972 51.20353 
Q 370.7972 54.824216 371.888288 57.378687 
Q 373.271914 60.643968 378.608757 64.198015 
Q 383.9456 67.72985 386.499378 71.528238 
Q 389.061063 75.304413 390.500034 81.857187 
Q 391.946911 88.409962 391.946911 98.072528 
Q 391.946911 106.802157 390.215402 114.443358 
Q 388.491799 122.08456 385.329226 125.794097 
Q 382.166652 129.503633 377.446511 129.503633 
Q 370.57582 129.503633 366.891421 120.596303 
Q 363.21493 111.666759 362.495444 94.585119 
z
" clip-path="url(#p174aab7262)" style="fill: #ffff00"/>
   </g>
   <g id="patch_66">
    <path d="M 418.220653 192.002055 
Q 420.396335 202.000156 422.948456 207.924957 
L 420.772773 234.792283 
Q 419.43929 232.241328 418.16323 227.756582 
Q 417.882497 226.851404 414.232965 211.010791 
Q 411.36183 219.116248 407.871805 219.116248 
Q 401.134208 219.116248 397.312408 193.524399 
Q 393.496988 167.932551 393.496988 121.645043 
Q 393.496988 75.480969 397.325169 49.847976 
Q 401.153349 24.214983 407.712298 24.214983 
Q 414.213824 24.214983 418.022864 49.847976 
Q 421.831903 75.480969 421.831903 121.645043 
Q 421.831903 146.084847 420.772773 164.59985 
Q 419.975236 178.753541 418.220653 192.002055 
z
M 413.473709 170.524651 
Q 414.615783 161.884316 415.18363 149.705559 
Q 415.751477 137.485657 415.751477 121.645043 
Q 415.751477 89.017494 413.518371 72.888869 
Q 411.285266 56.7191 407.674016 56.7191 
Q 404.062766 56.7191 401.8169 72.930013 
Q 399.577415 89.140927 399.577415 121.645043 
Q 399.577415 154.684037 401.8169 171.100673 
Q 404.062766 187.476165 407.495368 187.476165 
Q 408.771428 187.476165 409.907121 184.801776 
Q 408.114257 177.190052 406.257589 172.952174 
L 407.916468 151.227904 
Q 410.825885 157.646438 413.473709 170.524651 
z
" clip-path="url(#p174aab7262)" style="fill: #0000ff"/>
   </g>
   <g id="patch_67">
    <path d="M 435.494287 234.792283 
L 435.494287 59.839827 
L 424.498533 59.839827 
L 424.498533 24.214983 
L 453.95 24.214983 
L 453.95 59.839827 
L 442.978519 59.839827 
L 442.978519 234.792283 
L 435.494287 234.792283 
z
" clip-path="url(#p174aab7262)" style="fill: #a0522d"/>
   </g>
   <g id="matplotlib.axis_1">
    <g id="xtick_1">
     <g id="line2d_2">
      <path d="M 67.205734 234.792283 
L 67.205734 24.214983 
" clip-path="url(#p174aab7262)" style="fill: none; stroke: #cccccc; stroke-width: 0.8; stroke-linecap: round"/>
     </g>
     <g id="text_1">
      <!-- 0 -->
      <g style="fill: #262626" transform="translate(63.313077 251.813221) scale(0.14 -0.14)">
       <defs>
        <path id="ArialMT-30" d="M 266 2259 
Q 266 3072 433 3567 
Q 600 4063 929 4331 
Q 1259 4600 1759 4600 
Q 2128 4600 2406 4451 
Q 2684 4303 2865 4023 
Q 3047 3744 3150 3342 
Q 3253 2941 3253 2259 
Q 3253 1453 3087 958 
Q 2922 463 2592 192 
Q 2263 -78 1759 -78 
Q 1097 -78 719 397 
Q 266 969 266 2259 
z
M 844 2259 
Q 844 1131 1108 757 
Q 1372 384 1759 384 
Q 2147 384 2411 759 
Q 2675 1134 2675 2259 
Q 2675 3391 2411 3762 
Q 2147 4134 1753 4134 
Q 1366 4134 1134 3806 
Q 844 3388 844 2259 
z
" transform="scale(0.015625)"/>
       </defs>
       <use xlink:href="#ArialMT-30"/>
      </g>
     </g>
    </g>
    <g id="xtick_2">
     <g id="line2d_3">
      <path d="M 98.207278 234.792283 
L 98.207278 24.214983 
" clip-path="url(#p174aab7262)" style="fill: none; stroke: #cccccc; stroke-width: 0.8; stroke-linecap: round"/>
     </g>
     <g id="text_2">
      <!-- 1 -->
      <g style="fill: #262626" transform="translate(94.314622 251.813221) scale(0.14 -0.14)">
       <defs>
        <path id="ArialMT-31" d="M 2384 0 
L 1822 0 
L 1822 3584 
Q 1619 3391 1289 3197 
Q 959 3003 697 2906 
L 697 3450 
Q 1169 3672 1522 3987 
Q 1875 4303 2022 4600 
L 2384 4600 
L 2384 0 
z
" transform="scale(0.015625)"/>
       </defs>
       <use xlink:href="#ArialMT-31"/>
      </g>
     </g>
    </g>
    <g id="xtick_3">
     <g id="line2d_4">
      <path d="M 129.208822 234.792283 
L 129.208822 24.214983 
" clip-path="url(#p174aab7262)" style="fill: none; stroke: #cccccc; stroke-width: 0.8; stroke-linecap: round"/>
     </g>
     <g id="text_3">
      <!-- 2 -->
      <g style="fill: #262626" transform="translate(125.316166 251.813221) scale(0.14 -0.14)">
       <defs>
        <path id="ArialMT-32" d="M 3222 541 
L 3222 0 
L 194 0 
Q 188 203 259 391 
Q 375 700 629 1000 
Q 884 1300 1366 1694 
Q 2113 2306 2375 2664 
Q 2638 3022 2638 3341 
Q 2638 3675 2398 3904 
Q 2159 4134 1775 4134 
Q 1369 4134 1125 3890 
Q 881 3647 878 3216 
L 300 3275 
Q 359 3922 746 4261 
Q 1134 4600 1788 4600 
Q 2447 4600 2831 4234 
Q 3216 3869 3216 3328 
Q 3216 3053 3103 2787 
Q 2991 2522 2730 2228 
Q 2469 1934 1863 1422 
Q 1356 997 1212 845 
Q 1069 694 975 541 
L 3222 541 
z
" transform="scale(0.015625)"/>
       </defs>
       <use xlink:href="#ArialMT-32"/>
      </g>
     </g>
    </g>
    <g id="xtick_4">
     <g id="line2d_5">
      <path d="M 160.210367 234.792283 
L 160.210367 24.214983 
" clip-path="url(#p174aab7262)" style="fill: none; stroke: #cccccc; stroke-width: 0.8; stroke-linecap: round"/>
     </g>
     <g id="text_4">
      <!-- 3 -->
      <g style="fill: #262626" transform="translate(156.317711 251.813221) scale(0.14 -0.14)">
       <defs>
        <path id="ArialMT-33" d="M 269 1209 
L 831 1284 
Q 928 806 1161 595 
Q 1394 384 1728 384 
Q 2125 384 2398 659 
Q 2672 934 2672 1341 
Q 2672 1728 2419 1979 
Q 2166 2231 1775 2231 
Q 1616 2231 1378 2169 
L 1441 2663 
Q 1497 2656 1531 2656 
Q 1891 2656 2178 2843 
Q 2466 3031 2466 3422 
Q 2466 3731 2256 3934 
Q 2047 4138 1716 4138 
Q 1388 4138 1169 3931 
Q 950 3725 888 3313 
L 325 3413 
Q 428 3978 793 4289 
Q 1159 4600 1703 4600 
Q 2078 4600 2393 4439 
Q 2709 4278 2876 4000 
Q 3044 3722 3044 3409 
Q 3044 3113 2884 2869 
Q 2725 2625 2413 2481 
Q 2819 2388 3044 2092 
Q 3269 1797 3269 1353 
Q 3269 753 2831 336 
Q 2394 -81 1725 -81 
Q 1122 -81 723 278 
Q 325 638 269 1209 
z
" transform="scale(0.015625)"/>
       </defs>
       <use xlink:href="#ArialMT-33"/>
      </g>
     </g>
    </g>
    <g id="xtick_5">
     <g id="line2d_6">
      <path d="M 191.211911 234.792283 
L 191.211911 24.214983 
" clip-path="url(#p174aab7262)" style="fill: none; stroke: #cccccc; stroke-width: 0.8; stroke-linecap: round"/>
     </g>
     <g id="text_5">
      <!-- 4 -->
      <g style="fill: #262626" transform="translate(187.319255 251.813221) scale(0.14 -0.14)">
       <defs>
        <path id="ArialMT-34" d="M 2069 0 
L 2069 1097 
L 81 1097 
L 81 1613 
L 2172 4581 
L 2631 4581 
L 2631 1613 
L 3250 1613 
L 3250 1097 
L 2631 1097 
L 2631 0 
L 2069 0 
z
M 2069 1613 
L 2069 3678 
L 634 1613 
L 2069 1613 
z
" transform="scale(0.015625)"/>
       </defs>
       <use xlink:href="#ArialMT-34"/>
      </g>
     </g>
    </g>
    <g id="xtick_6">
     <g id="line2d_7">
      <path d="M 222.213456 234.792283 
L 222.213456 24.214983 
" clip-path="url(#p174aab7262)" style="fill: none; stroke: #cccccc; stroke-width: 0.8; stroke-linecap: round"/>
     </g>
     <g id="text_6">
      <!-- 5 -->
      <g style="fill: #262626" transform="translate(218.320799 251.813221) scale(0.14 -0.14)">
       <defs>
        <path id="ArialMT-35" d="M 266 1200 
L 856 1250 
Q 922 819 1161 601 
Q 1400 384 1738 384 
Q 2144 384 2425 690 
Q 2706 997 2706 1503 
Q 2706 1984 2436 2262 
Q 2166 2541 1728 2541 
Q 1456 2541 1237 2417 
Q 1019 2294 894 2097 
L 366 2166 
L 809 4519 
L 3088 4519 
L 3088 3981 
L 1259 3981 
L 1013 2750 
Q 1425 3038 1878 3038 
Q 2478 3038 2890 2622 
Q 3303 2206 3303 1553 
Q 3303 931 2941 478 
Q 2500 -78 1738 -78 
Q 1113 -78 717 272 
Q 322 622 266 1200 
z
" transform="scale(0.015625)"/>
       </defs>
       <use xlink:href="#ArialMT-35"/>
      </g>
     </g>
    </g>
    <g id="xtick_7">
     <g id="line2d_8">
      <path d="M 253.215 234.792283 
L 253.215 24.214983 
" clip-path="url(#p174aab7262)" style="fill: none; stroke: #cccccc; stroke-width: 0.8; stroke-linecap: round"/>
     </g>
     <g id="text_7">
      <!-- 6 -->
      <g style="fill: #262626" transform="translate(249.322344 251.813221) scale(0.14 -0.14)">
       <defs>
        <path id="ArialMT-36" d="M 3184 3459 
L 2625 3416 
Q 2550 3747 2413 3897 
Q 2184 4138 1850 4138 
Q 1581 4138 1378 3988 
Q 1113 3794 959 3422 
Q 806 3050 800 2363 
Q 1003 2672 1297 2822 
Q 1591 2972 1913 2972 
Q 2475 2972 2870 2558 
Q 3266 2144 3266 1488 
Q 3266 1056 3080 686 
Q 2894 316 2569 119 
Q 2244 -78 1831 -78 
Q 1128 -78 684 439 
Q 241 956 241 2144 
Q 241 3472 731 4075 
Q 1159 4600 1884 4600 
Q 2425 4600 2770 4297 
Q 3116 3994 3184 3459 
z
M 888 1484 
Q 888 1194 1011 928 
Q 1134 663 1356 523 
Q 1578 384 1822 384 
Q 2178 384 2434 671 
Q 2691 959 2691 1453 
Q 2691 1928 2437 2201 
Q 2184 2475 1800 2475 
Q 1419 2475 1153 2201 
Q 888 1928 888 1484 
z
" transform="scale(0.015625)"/>
       </defs>
       <use xlink:href="#ArialMT-36"/>
      </g>
     </g>
    </g>
    <g id="xtick_8">
     <g id="line2d_9">
      <path d="M 284.216544 234.792283 
L 284.216544 24.214983 
" clip-path="url(#p174aab7262)" style="fill: none; stroke: #cccccc; stroke-width: 0.8; stroke-linecap: round"/>
     </g>
     <g id="text_8">
      <!-- 7 -->
      <g style="fill: #262626" transform="translate(280.323888 251.813221) scale(0.14 -0.14)">
       <defs>
        <path id="ArialMT-37" d="M 303 3981 
L 303 4522 
L 3269 4522 
L 3269 4084 
Q 2831 3619 2401 2847 
Q 1972 2075 1738 1259 
Q 1569 684 1522 0 
L 944 0 
Q 953 541 1156 1306 
Q 1359 2072 1739 2783 
Q 2119 3494 2547 3981 
L 303 3981 
z
" transform="scale(0.015625)"/>
       </defs>
       <use xlink:href="#ArialMT-37"/>
      </g>
     </g>
    </g>
    <g id="xtick_9">
     <g id="line2d_10">
      <path d="M 315.218089 234.792283 
L 315.218089 24.214983 
" clip-path="url(#p174aab7262)" style="fill: none; stroke: #cccccc; stroke-width: 0.8; stroke-linecap: round"/>
     </g>
     <g id="text_9">
      <!-- 8 -->
      <g style="fill: #262626" transform="translate(311.325433 251.813221) scale(0.14 -0.14)">
       <defs>
        <path id="ArialMT-38" d="M 1131 2484 
Q 781 2613 612 2850 
Q 444 3088 444 3419 
Q 444 3919 803 4259 
Q 1163 4600 1759 4600 
Q 2359 4600 2725 4251 
Q 3091 3903 3091 3403 
Q 3091 3084 2923 2848 
Q 2756 2613 2416 2484 
Q 2838 2347 3058 2040 
Q 3278 1734 3278 1309 
Q 3278 722 2862 322 
Q 2447 -78 1769 -78 
Q 1091 -78 675 323 
Q 259 725 259 1325 
Q 259 1772 486 2073 
Q 713 2375 1131 2484 
z
M 1019 3438 
Q 1019 3113 1228 2906 
Q 1438 2700 1772 2700 
Q 2097 2700 2305 2904 
Q 2513 3109 2513 3406 
Q 2513 3716 2298 3927 
Q 2084 4138 1766 4138 
Q 1444 4138 1231 3931 
Q 1019 3725 1019 3438 
z
M 838 1322 
Q 838 1081 952 856 
Q 1066 631 1291 507 
Q 1516 384 1775 384 
Q 2178 384 2440 643 
Q 2703 903 2703 1303 
Q 2703 1709 2433 1975 
Q 2163 2241 1756 2241 
Q 1359 2241 1098 1978 
Q 838 1716 838 1322 
z
" transform="scale(0.015625)"/>
       </defs>
       <use xlink:href="#ArialMT-38"/>
      </g>
     </g>
    </g>
    <g id="xtick_10">
     <g id="line2d_11">
      <path d="M 346.219633 234.792283 
L 346.219633 24.214983 
" clip-path="url(#p174aab7262)" style="fill: none; stroke: #cccccc; stroke-width: 0.8; stroke-linecap: round"/>
     </g>
     <g id="text_10">
      <!-- 9 -->
      <g style="fill: #262626" transform="translate(342.326977 251.813221) scale(0.14 -0.14)">
       <defs>
        <path id="ArialMT-39" d="M 350 1059 
L 891 1109 
Q 959 728 1153 556 
Q 1347 384 1650 384 
Q 1909 384 2104 503 
Q 2300 622 2425 820 
Q 2550 1019 2634 1356 
Q 2719 1694 2719 2044 
Q 2719 2081 2716 2156 
Q 2547 1888 2255 1720 
Q 1963 1553 1622 1553 
Q 1053 1553 659 1965 
Q 266 2378 266 3053 
Q 266 3750 677 4175 
Q 1088 4600 1706 4600 
Q 2153 4600 2523 4359 
Q 2894 4119 3086 3673 
Q 3278 3228 3278 2384 
Q 3278 1506 3087 986 
Q 2897 466 2520 194 
Q 2144 -78 1638 -78 
Q 1100 -78 759 220 
Q 419 519 350 1059 
z
M 2653 3081 
Q 2653 3566 2395 3850 
Q 2138 4134 1775 4134 
Q 1400 4134 1122 3828 
Q 844 3522 844 3034 
Q 844 2597 1108 2323 
Q 1372 2050 1759 2050 
Q 2150 2050 2401 2323 
Q 2653 2597 2653 3081 
z
" transform="scale(0.015625)"/>
       </defs>
       <use xlink:href="#ArialMT-39"/>
      </g>
     </g>
    </g>
    <g id="xtick_11">
     <g id="line2d_12">
      <path d="M 377.221178 234.792283 
L 377.221178 24.214983 
" clip-path="url(#p174aab7262)" style="fill: none; stroke: #cccccc; stroke-width: 0.8; stroke-linecap: round"/>
     </g>
     <g id="text_11">
      <!-- 10 -->
      <g style="fill: #262626" transform="translate(369.435865 251.813221) scale(0.14 -0.14)">
       <use xlink:href="#ArialMT-31"/>
       <use xlink:href="#ArialMT-30" transform="translate(55.615234 0)"/>
      </g>
     </g>
    </g>
    <g id="xtick_12">
     <g id="line2d_13">
      <path d="M 408.222722 234.792283 
L 408.222722 24.214983 
" clip-path="url(#p174aab7262)" style="fill: none; stroke: #cccccc; stroke-width: 0.8; stroke-linecap: round"/>
     </g>
     <g id="text_12">
      <!-- 11 -->
      <g style="fill: #262626" transform="translate(400.95366 251.813221) scale(0.14 -0.14)">
       <use xlink:href="#ArialMT-31"/>
       <use xlink:href="#ArialMT-31" transform="translate(48.240234 0)"/>
      </g>
     </g>
    </g>
    <g id="xtick_13">
     <g id="line2d_14">
      <path d="M 439.224266 234.792283 
L 439.224266 24.214983 
" clip-path="url(#p174aab7262)" style="fill: none; stroke: #cccccc; stroke-width: 0.8; stroke-linecap: round"/>
     </g>
     <g id="text_13">
      <!-- 12 -->
      <g style="fill: #262626" transform="translate(431.438954 251.813221) scale(0.14 -0.14)">
       <use xlink:href="#ArialMT-31"/>
       <use xlink:href="#ArialMT-32" transform="translate(55.615234 0)"/>
      </g>
     </g>
    </g>
    <g id="text_14">
     <!-- Original Position -->
     <g style="fill: #262626" transform="translate(194.9675 270.253221) scale(0.16 -0.16)">
      <defs>
       <path id="ArialMT-4f" d="M 309 2231 
Q 309 3372 921 4017 
Q 1534 4663 2503 4663 
Q 3138 4663 3647 4359 
Q 4156 4056 4423 3514 
Q 4691 2972 4691 2284 
Q 4691 1588 4409 1038 
Q 4128 488 3612 205 
Q 3097 -78 2500 -78 
Q 1853 -78 1343 234 
Q 834 547 571 1087 
Q 309 1628 309 2231 
z
M 934 2222 
Q 934 1394 1379 917 
Q 1825 441 2497 441 
Q 3181 441 3623 922 
Q 4066 1403 4066 2288 
Q 4066 2847 3877 3264 
Q 3688 3681 3323 3911 
Q 2959 4141 2506 4141 
Q 1863 4141 1398 3698 
Q 934 3256 934 2222 
z
" transform="scale(0.015625)"/>
       <path id="ArialMT-72" d="M 416 0 
L 416 3319 
L 922 3319 
L 922 2816 
Q 1116 3169 1280 3281 
Q 1444 3394 1641 3394 
Q 1925 3394 2219 3213 
L 2025 2691 
Q 1819 2813 1613 2813 
Q 1428 2813 1281 2702 
Q 1134 2591 1072 2394 
Q 978 2094 978 1738 
L 978 0 
L 416 0 
z
" transform="scale(0.015625)"/>
       <path id="ArialMT-69" d="M 425 3934 
L 425 4581 
L 988 4581 
L 988 3934 
L 425 3934 
z
M 425 0 
L 425 3319 
L 988 3319 
L 988 0 
L 425 0 
z
" transform="scale(0.015625)"/>
       <path id="ArialMT-67" d="M 319 -275 
L 866 -356 
Q 900 -609 1056 -725 
Q 1266 -881 1628 -881 
Q 2019 -881 2231 -725 
Q 2444 -569 2519 -288 
Q 2563 -116 2559 434 
Q 2191 0 1641 0 
Q 956 0 581 494 
Q 206 988 206 1678 
Q 206 2153 378 2554 
Q 550 2956 876 3175 
Q 1203 3394 1644 3394 
Q 2231 3394 2613 2919 
L 2613 3319 
L 3131 3319 
L 3131 450 
Q 3131 -325 2973 -648 
Q 2816 -972 2473 -1159 
Q 2131 -1347 1631 -1347 
Q 1038 -1347 672 -1080 
Q 306 -813 319 -275 
z
M 784 1719 
Q 784 1066 1043 766 
Q 1303 466 1694 466 
Q 2081 466 2343 764 
Q 2606 1063 2606 1700 
Q 2606 2309 2336 2618 
Q 2066 2928 1684 2928 
Q 1309 2928 1046 2623 
Q 784 2319 784 1719 
z
" transform="scale(0.015625)"/>
       <path id="ArialMT-6e" d="M 422 0 
L 422 3319 
L 928 3319 
L 928 2847 
Q 1294 3394 1984 3394 
Q 2284 3394 2536 3286 
Q 2788 3178 2913 3003 
Q 3038 2828 3088 2588 
Q 3119 2431 3119 2041 
L 3119 0 
L 2556 0 
L 2556 2019 
Q 2556 2363 2490 2533 
Q 2425 2703 2258 2804 
Q 2091 2906 1866 2906 
Q 1506 2906 1245 2678 
Q 984 2450 984 1813 
L 984 0 
L 422 0 
z
" transform="scale(0.015625)"/>
       <path id="ArialMT-61" d="M 2588 409 
Q 2275 144 1986 34 
Q 1697 -75 1366 -75 
Q 819 -75 525 192 
Q 231 459 231 875 
Q 231 1119 342 1320 
Q 453 1522 633 1644 
Q 813 1766 1038 1828 
Q 1203 1872 1538 1913 
Q 2219 1994 2541 2106 
Q 2544 2222 2544 2253 
Q 2544 2597 2384 2738 
Q 2169 2928 1744 2928 
Q 1347 2928 1158 2789 
Q 969 2650 878 2297 
L 328 2372 
Q 403 2725 575 2942 
Q 747 3159 1072 3276 
Q 1397 3394 1825 3394 
Q 2250 3394 2515 3294 
Q 2781 3194 2906 3042 
Q 3031 2891 3081 2659 
Q 3109 2516 3109 2141 
L 3109 1391 
Q 3109 606 3145 398 
Q 3181 191 3288 0 
L 2700 0 
Q 2613 175 2588 409 
z
M 2541 1666 
Q 2234 1541 1622 1453 
Q 1275 1403 1131 1340 
Q 988 1278 909 1158 
Q 831 1038 831 891 
Q 831 666 1001 516 
Q 1172 366 1500 366 
Q 1825 366 2078 508 
Q 2331 650 2450 897 
Q 2541 1088 2541 1459 
L 2541 1666 
z
" transform="scale(0.015625)"/>
       <path id="ArialMT-6c" d="M 409 0 
L 409 4581 
L 972 4581 
L 972 0 
L 409 0 
z
" transform="scale(0.015625)"/>
       <path id="ArialMT-20" transform="scale(0.015625)"/>
       <path id="ArialMT-50" d="M 494 0 
L 494 4581 
L 2222 4581 
Q 2678 4581 2919 4538 
Q 3256 4481 3484 4323 
Q 3713 4166 3852 3881 
Q 3991 3597 3991 3256 
Q 3991 2672 3619 2267 
Q 3247 1863 2275 1863 
L 1100 1863 
L 1100 0 
L 494 0 
z
M 1100 2403 
L 2284 2403 
Q 2872 2403 3119 2622 
Q 3366 2841 3366 3238 
Q 3366 3525 3220 3729 
Q 3075 3934 2838 4000 
Q 2684 4041 2272 4041 
L 1100 4041 
L 1100 2403 
z
" transform="scale(0.015625)"/>
       <path id="ArialMT-6f" d="M 213 1659 
Q 213 2581 725 3025 
Q 1153 3394 1769 3394 
Q 2453 3394 2887 2945 
Q 3322 2497 3322 1706 
Q 3322 1066 3130 698 
Q 2938 331 2570 128 
Q 2203 -75 1769 -75 
Q 1072 -75 642 372 
Q 213 819 213 1659 
z
M 791 1659 
Q 791 1022 1069 705 
Q 1347 388 1769 388 
Q 2188 388 2466 706 
Q 2744 1025 2744 1678 
Q 2744 2294 2464 2611 
Q 2184 2928 1769 2928 
Q 1347 2928 1069 2612 
Q 791 2297 791 1659 
z
" transform="scale(0.015625)"/>
       <path id="ArialMT-73" d="M 197 991 
L 753 1078 
Q 800 744 1014 566 
Q 1228 388 1613 388 
Q 2000 388 2187 545 
Q 2375 703 2375 916 
Q 2375 1106 2209 1216 
Q 2094 1291 1634 1406 
Q 1016 1563 777 1677 
Q 538 1791 414 1992 
Q 291 2194 291 2438 
Q 291 2659 392 2848 
Q 494 3038 669 3163 
Q 800 3259 1026 3326 
Q 1253 3394 1513 3394 
Q 1903 3394 2198 3281 
Q 2494 3169 2634 2976 
Q 2775 2784 2828 2463 
L 2278 2388 
Q 2241 2644 2061 2787 
Q 1881 2931 1553 2931 
Q 1166 2931 1000 2803 
Q 834 2675 834 2503 
Q 834 2394 903 2306 
Q 972 2216 1119 2156 
Q 1203 2125 1616 2013 
Q 2213 1853 2448 1751 
Q 2684 1650 2818 1456 
Q 2953 1263 2953 975 
Q 2953 694 2789 445 
Q 2625 197 2315 61 
Q 2006 -75 1616 -75 
Q 969 -75 630 194 
Q 291 463 197 991 
z
" transform="scale(0.015625)"/>
       <path id="ArialMT-74" d="M 1650 503 
L 1731 6 
Q 1494 -44 1306 -44 
Q 1000 -44 831 53 
Q 663 150 594 308 
Q 525 466 525 972 
L 525 2881 
L 113 2881 
L 113 3319 
L 525 3319 
L 525 4141 
L 1084 4478 
L 1084 3319 
L 1650 3319 
L 1650 2881 
L 1084 2881 
L 1084 941 
Q 1084 700 1114 631 
Q 1144 563 1211 522 
Q 1278 481 1403 481 
Q 1497 481 1650 503 
z
" transform="scale(0.015625)"/>
      </defs>
      <use xlink:href="#ArialMT-4f"/>
      <use xlink:href="#ArialMT-72" transform="translate(77.783203 0)"/>
      <use xlink:href="#ArialMT-69" transform="translate(111.083984 0)"/>
      <use xlink:href="#ArialMT-67" transform="translate(133.300781 0)"/>
      <use xlink:href="#ArialMT-69" transform="translate(188.916016 0)"/>
      <use xlink:href="#ArialMT-6e" transform="translate(211.132812 0)"/>
      <use xlink:href="#ArialMT-61" transform="translate(266.748047 0)"/>
      <use xlink:href="#ArialMT-6c" transform="translate(322.363281 0)"/>
      <use xlink:href="#ArialMT-20" transform="translate(344.580078 0)"/>
      <use xlink:href="#ArialMT-50" transform="translate(372.363281 0)"/>
      <use xlink:href="#ArialMT-6f" transform="translate(439.0625 0)"/>
      <use xlink:href="#ArialMT-73" transform="translate(494.677734 0)"/>
      <use xlink:href="#ArialMT-69" transform="translate(544.677734 0)"/>
      <use xlink:href="#ArialMT-74" transform="translate(566.894531 0)"/>
      <use xlink:href="#ArialMT-69" transform="translate(594.677734 0)"/>
      <use xlink:href="#ArialMT-6f" transform="translate(616.894531 0)"/>
      <use xlink:href="#ArialMT-6e" transform="translate(672.509766 0)"/>
     </g>
    </g>
   </g>
   <g id="matplotlib.axis_2">
    <g id="ytick_1">
     <g id="line2d_15">
      <path d="M 52.48 234.792283 
L 453.95 234.792283 
" clip-path="url(#p174aab7262)" style="fill: none; stroke: #cccccc; stroke-width: 0.8; stroke-linecap: round"/>
     </g>
     <g id="text_15">
      <!-- 0.0 -->
      <g style="fill: #262626" transform="translate(26.02 239.802752) scale(0.14 -0.14)">
       <defs>
        <path id="ArialMT-2e" d="M 581 0 
L 581 641 
L 1222 641 
L 1222 0 
L 581 0 
z
" transform="scale(0.015625)"/>
       </defs>
       <use xlink:href="#ArialMT-30"/>
       <use xlink:href="#ArialMT-2e" transform="translate(55.615234 0)"/>
       <use xlink:href="#ArialMT-30" transform="translate(83.398438 0)"/>
      </g>
     </g>
    </g>
    <g id="ytick_2">
     <g id="line2d_16">
      <path d="M 52.48 192.676823 
L 453.95 192.676823 
" clip-path="url(#p174aab7262)" style="fill: none; stroke: #cccccc; stroke-width: 0.8; stroke-linecap: round"/>
     </g>
     <g id="text_16">
      <!-- 0.2 -->
      <g style="fill: #262626" transform="translate(26.02 197.687292) scale(0.14 -0.14)">
       <use xlink:href="#ArialMT-30"/>
       <use xlink:href="#ArialMT-2e" transform="translate(55.615234 0)"/>
       <use xlink:href="#ArialMT-32" transform="translate(83.398438 0)"/>
      </g>
     </g>
    </g>
    <g id="ytick_3">
     <g id="line2d_17">
      <path d="M 52.48 150.561363 
L 453.95 150.561363 
" clip-path="url(#p174aab7262)" style="fill: none; stroke: #cccccc; stroke-width: 0.8; stroke-linecap: round"/>
     </g>
     <g id="text_17">
      <!-- 0.4 -->
      <g style="fill: #262626" transform="translate(26.02 155.571832) scale(0.14 -0.14)">
       <use xlink:href="#ArialMT-30"/>
       <use xlink:href="#ArialMT-2e" transform="translate(55.615234 0)"/>
       <use xlink:href="#ArialMT-34" transform="translate(83.398438 0)"/>
      </g>
     </g>
    </g>
    <g id="ytick_4">
     <g id="line2d_18">
      <path d="M 52.48 108.445903 
L 453.95 108.445903 
" clip-path="url(#p174aab7262)" style="fill: none; stroke: #cccccc; stroke-width: 0.8; stroke-linecap: round"/>
     </g>
     <g id="text_18">
      <!-- 0.6 -->
      <g style="fill: #262626" transform="translate(26.02 113.456372) scale(0.14 -0.14)">
       <use xlink:href="#ArialMT-30"/>
       <use xlink:href="#ArialMT-2e" transform="translate(55.615234 0)"/>
       <use xlink:href="#ArialMT-36" transform="translate(83.398438 0)"/>
      </g>
     </g>
    </g>
    <g id="ytick_5">
     <g id="line2d_19">
      <path d="M 52.48 66.330443 
L 453.95 66.330443 
" clip-path="url(#p174aab7262)" style="fill: none; stroke: #cccccc; stroke-width: 0.8; stroke-linecap: round"/>
     </g>
     <g id="text_19">
      <!-- 0.8 -->
      <g style="fill: #262626" transform="translate(26.02 71.340912) scale(0.14 -0.14)">
       <use xlink:href="#ArialMT-30"/>
       <use xlink:href="#ArialMT-2e" transform="translate(55.615234 0)"/>
       <use xlink:href="#ArialMT-38" transform="translate(83.398438 0)"/>
      </g>
     </g>
    </g>
    <g id="ytick_6">
     <g id="line2d_20">
      <path d="M 52.48 24.214983 
L 453.95 24.214983 
" clip-path="url(#p174aab7262)" style="fill: none; stroke: #cccccc; stroke-width: 0.8; stroke-linecap: round"/>
     </g>
     <g id="text_20">
      <!-- 1.0 -->
      <g style="fill: #262626" transform="translate(26.02 29.225452) scale(0.14 -0.14)">
       <use xlink:href="#ArialMT-31"/>
       <use xlink:href="#ArialMT-2e" transform="translate(55.615234 0)"/>
       <use xlink:href="#ArialMT-30" transform="translate(83.398438 0)"/>
      </g>
     </g>
    </g>
    <g id="text_21">
     <!-- Frequency -->
     <g style="fill: #262626" transform="translate(18.6525 167.297383) rotate(-90) scale(0.16 -0.16)">
      <defs>
       <path id="ArialMT-46" d="M 525 0 
L 525 4581 
L 3616 4581 
L 3616 4041 
L 1131 4041 
L 1131 2622 
L 3281 2622 
L 3281 2081 
L 1131 2081 
L 1131 0 
L 525 0 
z
" transform="scale(0.015625)"/>
       <path id="ArialMT-65" d="M 2694 1069 
L 3275 997 
Q 3138 488 2766 206 
Q 2394 -75 1816 -75 
Q 1088 -75 661 373 
Q 234 822 234 1631 
Q 234 2469 665 2931 
Q 1097 3394 1784 3394 
Q 2450 3394 2872 2941 
Q 3294 2488 3294 1666 
Q 3294 1616 3291 1516 
L 816 1516 
Q 847 969 1125 678 
Q 1403 388 1819 388 
Q 2128 388 2347 550 
Q 2566 713 2694 1069 
z
M 847 1978 
L 2700 1978 
Q 2663 2397 2488 2606 
Q 2219 2931 1791 2931 
Q 1403 2931 1139 2672 
Q 875 2413 847 1978 
z
" transform="scale(0.015625)"/>
       <path id="ArialMT-71" d="M 2538 -1272 
L 2538 353 
Q 2406 169 2170 47 
Q 1934 -75 1669 -75 
Q 1078 -75 651 397 
Q 225 869 225 1691 
Q 225 2191 398 2587 
Q 572 2984 901 3189 
Q 1231 3394 1625 3394 
Q 2241 3394 2594 2875 
L 2594 3319 
L 3100 3319 
L 3100 -1272 
L 2538 -1272 
z
M 803 1669 
Q 803 1028 1072 708 
Q 1341 388 1716 388 
Q 2075 388 2334 692 
Q 2594 997 2594 1619 
Q 2594 2281 2320 2615 
Q 2047 2950 1678 2950 
Q 1313 2950 1058 2639 
Q 803 2328 803 1669 
z
" transform="scale(0.015625)"/>
       <path id="ArialMT-75" d="M 2597 0 
L 2597 488 
Q 2209 -75 1544 -75 
Q 1250 -75 995 37 
Q 741 150 617 320 
Q 494 491 444 738 
Q 409 903 409 1263 
L 409 3319 
L 972 3319 
L 972 1478 
Q 972 1038 1006 884 
Q 1059 663 1231 536 
Q 1403 409 1656 409 
Q 1909 409 2131 539 
Q 2353 669 2445 892 
Q 2538 1116 2538 1541 
L 2538 3319 
L 3100 3319 
L 3100 0 
L 2597 0 
z
" transform="scale(0.015625)"/>
       <path id="ArialMT-63" d="M 2588 1216 
L 3141 1144 
Q 3050 572 2676 248 
Q 2303 -75 1759 -75 
Q 1078 -75 664 370 
Q 250 816 250 1647 
Q 250 2184 428 2587 
Q 606 2991 970 3192 
Q 1334 3394 1763 3394 
Q 2303 3394 2647 3120 
Q 2991 2847 3088 2344 
L 2541 2259 
Q 2463 2594 2264 2762 
Q 2066 2931 1784 2931 
Q 1359 2931 1093 2626 
Q 828 2322 828 1663 
Q 828 994 1084 691 
Q 1341 388 1753 388 
Q 2084 388 2306 591 
Q 2528 794 2588 1216 
z
" transform="scale(0.015625)"/>
       <path id="ArialMT-79" d="M 397 -1278 
L 334 -750 
Q 519 -800 656 -800 
Q 844 -800 956 -737 
Q 1069 -675 1141 -563 
Q 1194 -478 1313 -144 
Q 1328 -97 1363 -6 
L 103 3319 
L 709 3319 
L 1400 1397 
Q 1534 1031 1641 628 
Q 1738 1016 1872 1384 
L 2581 3319 
L 3144 3319 
L 1881 -56 
Q 1678 -603 1566 -809 
Q 1416 -1088 1222 -1217 
Q 1028 -1347 759 -1347 
Q 597 -1347 397 -1278 
z
" transform="scale(0.015625)"/>
      </defs>
      <use xlink:href="#ArialMT-46"/>
      <use xlink:href="#ArialMT-72" transform="translate(61.083984 0)"/>
      <use xlink:href="#ArialMT-65" transform="translate(94.384766 0)"/>
      <use xlink:href="#ArialMT-71" transform="translate(150 0)"/>
      <use xlink:href="#ArialMT-75" transform="translate(205.615234 0)"/>
      <use xlink:href="#ArialMT-65" transform="translate(261.230469 0)"/>
      <use xlink:href="#ArialMT-6e" transform="translate(316.845703 0)"/>
      <use xlink:href="#ArialMT-63" transform="translate(372.460938 0)"/>
      <use xlink:href="#ArialMT-79" transform="translate(422.460938 0)"/>
     </g>
    </g>
   </g>
   <g id="patch_68">
    <path d="M 52.48 234.792283 
L 52.48 24.214983 
" style="fill: none; stroke: #cccccc; stroke-width: 0.8; stroke-linejoin: miter; stroke-linecap: square"/>
   </g>
   <g id="patch_69">
    <path d="M 453.95 234.792283 
L 453.95 24.214983 
" style="fill: none; stroke: #cccccc; stroke-width: 0.8; stroke-linejoin: miter; stroke-linecap: square"/>
   </g>
   <g id="patch_70">
    <path d="M 52.48 234.792283 
L 453.95 234.792283 
" style="fill: none; stroke: #cccccc; stroke-width: 0.8; stroke-linejoin: miter; stroke-linecap: square"/>
   </g>
   <g id="patch_71">
    <path d="M 52.48 24.214983 
L 453.95 24.214983 
" style="fill: none; stroke: #cccccc; stroke-width: 0.8; stroke-linejoin: miter; stroke-linecap: square"/>
   </g>
   <g id="text_22">
    <!-- 20 -->
    <g style="fill: #000080; opacity: 0.6" transform="translate(59.420421 17.220937) scale(0.14 -0.14)">
     <defs>
      <path id="Arial-ItalicMT-32" d="M 375 0 
Q 463 409 617 686 
Q 772 963 1028 1211 
Q 1284 1459 2016 2044 
Q 2459 2397 2622 2566 
Q 2856 2809 2963 3044 
Q 3034 3203 3034 3391 
Q 3034 3706 2811 3926 
Q 2588 4147 2263 4147 
Q 1941 4147 1700 3923 
Q 1459 3700 1356 3206 
L 803 3288 
Q 884 3897 1276 4248 
Q 1669 4600 2253 4600 
Q 2644 4600 2961 4437 
Q 3278 4275 3437 3981 
Q 3597 3688 3597 3375 
Q 3597 2919 3272 2497 
Q 3072 2234 2097 1463 
Q 1678 1131 1473 918 
Q 1269 706 1166 519 
L 3216 519 
L 3106 0 
L 375 0 
z
" transform="scale(0.015625)"/>
      <path id="Arial-ItalicMT-30" d="M 453 1503 
Q 453 2084 626 2684 
Q 800 3284 1012 3643 
Q 1225 4003 1453 4206 
Q 1681 4409 1901 4504 
Q 2122 4600 2391 4600 
Q 2916 4600 3267 4209 
Q 3619 3819 3619 3081 
Q 3619 2322 3375 1578 
Q 3088 697 2575 256 
Q 2181 -78 1678 -78 
Q 1163 -78 808 326 
Q 453 731 453 1503 
z
M 1000 1359 
Q 1000 938 1141 700 
Q 1331 372 1706 372 
Q 2034 372 2303 669 
Q 2691 1088 2886 1895 
Q 3081 2703 3081 3216 
Q 3081 3709 2892 3928 
Q 2703 4147 2394 4147 
Q 2169 4147 1973 4031 
Q 1778 3916 1600 3634 
Q 1347 3238 1159 2447 
Q 1000 1772 1000 1359 
z
" transform="scale(0.015625)"/>
     </defs>
     <use xlink:href="#Arial-ItalicMT-32"/>
     <use xlink:href="#Arial-ItalicMT-30" transform="translate(55.615234 0)"/>
    </g>
   </g>
   <g id="text_23">
    <!-- 20 -->
    <g style="fill: #000080; opacity: 0.6" transform="translate(90.421965 17.220937) scale(0.14 -0.14)">
     <use xlink:href="#Arial-ItalicMT-32"/>
     <use xlink:href="#Arial-ItalicMT-30" transform="translate(55.615234 0)"/>
    </g>
   </g>
   <g id="text_24">
    <!-- 19 -->
    <g style="fill: #000080; opacity: 0.6" transform="translate(121.42351 17.220937) scale(0.14 -0.14)">
     <defs>
      <path id="Arial-ItalicMT-31" d="M 1541 0 
L 2266 3459 
Q 1797 3091 947 2869 
L 1053 3381 
Q 1475 3550 1886 3822 
Q 2297 4094 2503 4297 
Q 2628 4422 2741 4600 
L 3069 4600 
L 2109 0 
L 1541 0 
z
" transform="scale(0.015625)"/>
      <path id="Arial-ItalicMT-39" d="M 431 1050 
L 963 1103 
Q 1016 719 1181 556 
Q 1347 394 1575 394 
Q 1900 394 2178 675 
Q 2588 1088 2781 1859 
Q 2497 1647 2276 1556 
Q 2056 1466 1825 1466 
Q 1406 1466 1075 1747 
Q 638 2113 638 2797 
Q 638 3572 1144 4125 
Q 1578 4600 2209 4600 
Q 2778 4600 3153 4179 
Q 3528 3759 3528 2991 
Q 3528 2244 3278 1516 
Q 2981 659 2475 253 
Q 2063 -78 1547 -78 
Q 1072 -78 770 217 
Q 469 513 431 1050 
z
M 1184 2863 
Q 1184 2431 1414 2175 
Q 1644 1919 1959 1919 
Q 2194 1919 2425 2078 
Q 2656 2238 2822 2555 
Q 2988 2872 2988 3206 
Q 2988 3469 2878 3694 
Q 2769 3919 2580 4033 
Q 2391 4147 2197 4147 
Q 2009 4147 1828 4047 
Q 1647 3947 1492 3753 
Q 1338 3559 1261 3307 
Q 1184 3056 1184 2863 
z
" transform="scale(0.015625)"/>
     </defs>
     <use xlink:href="#Arial-ItalicMT-31"/>
     <use xlink:href="#Arial-ItalicMT-39" transform="translate(55.615234 0)"/>
    </g>
   </g>
   <g id="text_25">
    <!-- 18 -->
    <g style="fill: #000080; opacity: 0.6" transform="translate(152.425054 17.220937) scale(0.14 -0.14)">
     <defs>
      <path id="Arial-ItalicMT-38" d="M 1444 2519 
Q 1188 2659 1059 2879 
Q 931 3100 931 3353 
Q 931 3769 1231 4122 
Q 1631 4600 2316 4600 
Q 2919 4600 3266 4276 
Q 3613 3953 3613 3484 
Q 3613 3150 3425 2881 
Q 3238 2613 2838 2453 
Q 3113 2281 3231 2088 
Q 3384 1834 3384 1497 
Q 3384 881 2948 400 
Q 2513 -81 1788 -81 
Q 1209 -81 843 275 
Q 478 631 478 1166 
Q 478 1669 737 2030 
Q 997 2391 1444 2519 
z
M 1488 3328 
Q 1488 3034 1677 2854 
Q 1866 2675 2197 2675 
Q 2584 2675 2826 2911 
Q 3069 3147 3069 3491 
Q 3069 3781 2880 3964 
Q 2691 4147 2359 4147 
Q 2109 4147 1900 4031 
Q 1691 3916 1589 3717 
Q 1488 3519 1488 3328 
z
M 1047 1119 
Q 1047 928 1139 753 
Q 1231 578 1418 475 
Q 1606 372 1847 372 
Q 2306 372 2591 803 
Q 2816 1141 2816 1531 
Q 2816 1850 2608 2053 
Q 2400 2256 2063 2256 
Q 1638 2256 1342 1940 
Q 1047 1625 1047 1119 
z
" transform="scale(0.015625)"/>
     </defs>
     <use xlink:href="#Arial-ItalicMT-31"/>
     <use xlink:href="#Arial-ItalicMT-38" transform="translate(55.615234 0)"/>
    </g>
   </g>
   <g id="text_26">
    <!-- 15 -->
    <g style="fill: #000080; opacity: 0.6" transform="translate(183.426599 17.220937) scale(0.14 -0.14)">
     <defs>
      <path id="Arial-ItalicMT-35" d="M 447 1309 
L 1022 1366 
Q 1016 1244 1016 1219 
Q 1016 1013 1120 803 
Q 1225 594 1404 483 
Q 1584 372 1784 372 
Q 2047 372 2319 553 
Q 2591 734 2759 1081 
Q 2928 1428 2928 1769 
Q 2928 2153 2701 2384 
Q 2475 2616 2106 2616 
Q 1859 2616 1639 2497 
Q 1419 2378 1228 2141 
L 734 2175 
L 1425 4519 
L 3663 4519 
L 3553 4000 
L 1813 4000 
L 1469 2834 
Q 1663 2975 1867 3045 
Q 2072 3116 2288 3116 
Q 2813 3116 3150 2769 
Q 3488 2422 3488 1819 
Q 3488 1291 3256 845 
Q 3025 400 2620 161 
Q 2216 -78 1747 -78 
Q 1353 -78 1050 100 
Q 747 278 595 590 
Q 444 903 444 1216 
Q 444 1247 447 1309 
z
" transform="scale(0.015625)"/>
     </defs>
     <use xlink:href="#Arial-ItalicMT-31"/>
     <use xlink:href="#Arial-ItalicMT-35" transform="translate(55.615234 0)"/>
    </g>
   </g>
   <g id="text_27">
    <!-- 15 -->
    <g style="fill: #000080; opacity: 0.6" transform="translate(214.428143 17.220937) scale(0.14 -0.14)">
     <use xlink:href="#Arial-ItalicMT-31"/>
     <use xlink:href="#Arial-ItalicMT-35" transform="translate(55.615234 0)"/>
    </g>
   </g>
   <g id="text_28">
    <!-- 13 -->
    <g style="fill: #000080; opacity: 0.6" transform="translate(245.429687 17.220937) scale(0.14 -0.14)">
     <defs>
      <path id="Arial-ItalicMT-33" d="M 350 1200 
L 900 1269 
Q 963 788 1177 580 
Q 1391 372 1738 372 
Q 2156 372 2461 672 
Q 2766 972 2766 1359 
Q 2766 1697 2537 1917 
Q 2309 2138 1925 2138 
Q 1881 2138 1744 2125 
L 1841 2597 
Q 1922 2584 1997 2584 
Q 2481 2584 2742 2820 
Q 3003 3056 3003 3400 
Q 3003 3716 2789 3931 
Q 2575 4147 2266 4147 
Q 1963 4147 1720 3926 
Q 1478 3706 1409 3303 
L 853 3416 
Q 991 3981 1381 4290 
Q 1772 4600 2306 4600 
Q 2869 4600 3217 4259 
Q 3566 3919 3566 3422 
Q 3566 3059 3377 2789 
Q 3188 2519 2809 2341 
Q 3078 2181 3211 1956 
Q 3344 1731 3344 1441 
Q 3344 825 2883 373 
Q 2422 -78 1781 -78 
Q 1159 -78 776 270 
Q 394 619 350 1200 
z
" transform="scale(0.015625)"/>
     </defs>
     <use xlink:href="#Arial-ItalicMT-31"/>
     <use xlink:href="#Arial-ItalicMT-33" transform="translate(55.615234 0)"/>
    </g>
   </g>
   <g id="text_29">
    <!-- 9 -->
    <g style="fill: #000080; opacity: 0.6" transform="translate(280.323888 17.220937) scale(0.14 -0.14)">
     <use xlink:href="#Arial-ItalicMT-39"/>
    </g>
   </g>
   <g id="text_30">
    <!-- 9 -->
    <g style="fill: #000080; opacity: 0.6" transform="translate(311.325433 17.220937) scale(0.14 -0.14)">
     <use xlink:href="#Arial-ItalicMT-39"/>
    </g>
   </g>
   <g id="text_31">
    <!-- 3 -->
    <g style="fill: #000080; opacity: 0.6" transform="translate(342.326977 17.220937) scale(0.14 -0.14)">
     <use xlink:href="#Arial-ItalicMT-33"/>
    </g>
   </g>
   <g id="text_32">
    <!-- 2 -->
    <g style="fill: #000080; opacity: 0.6" transform="translate(373.328521 17.220937) scale(0.14 -0.14)">
     <use xlink:href="#Arial-ItalicMT-32"/>
    </g>
   </g>
   <g id="text_33">
    <!-- 1 -->
    <g style="fill: #000080; opacity: 0.6" transform="translate(404.330066 17.220937) scale(0.14 -0.14)">
     <use xlink:href="#Arial-ItalicMT-31"/>
    </g>
   </g>
   <g id="text_34">
    <!-- 1 -->
    <g style="fill: #000080; opacity: 0.6" transform="translate(435.33161 17.220937) scale(0.14 -0.14)">
     <use xlink:href="#Arial-ItalicMT-31"/>
    </g>
   </g>
  </g>
 </g>
 <defs>
  <clipPath id="p174aab7262">
   <rect x="52.48" y="24.214983" width="401.47" height="210.5773"/>
  </clipPath>
 </defs>
</svg>
