<?xml version="1.0" encoding="utf-8" standalone="no"?>
<!DOCTYPE svg PUBLIC "-//W3C//DTD SVG 1.1//EN"
  "http://www.w3.org/Graphics/SVG/1.1/DTD/svg11.dtd">
<svg xmlns:xlink="http://www.w3.org/1999/xlink" width="533.15pt" height="280.820721pt" viewBox="0 0 533.15 280.820721" xmlns="http://www.w3.org/2000/svg" version="1.1">
 <metadata>
  <rdf:RDF xmlns:dc="http://purl.org/dc/elements/1.1/" xmlns:cc="http://creativecommons.org/ns#" xmlns:rdf="http://www.w3.org/1999/02/22-rdf-syntax-ns#">
   <cc:Work>
    <dc:type rdf:resource="http://purl.org/dc/dcmitype/StillImage"/>
    <dc:date>2025-05-09T14:25:53.648477</dc:date>
    <dc:format>image/svg+xml</dc:format>
    <dc:creator>
     <cc:Agent>
      <dc:title>Matplotlib v3.10.1, https://matplotlib.org/</dc:title>
     </cc:Agent>
    </dc:creator>
   </cc:Work>
  </rdf:RDF>
 </metadata>
 <defs>
  <style type="text/css">*{stroke-linejoin: round; stroke-linecap: butt}</style>
 </defs>
 <g id="figure_1">
  <g id="patch_1">
   <path d="M 0 280.820721 
L 533.15 280.820721 
L 533.15 0 
L 0 0 
z
" style="fill: #ffffff"/>
  </g>
  <g id="axes_1">
   <g id="patch_2">
    <path d="M 52.48 234.792283 
L 525.95 234.792283 
L 525.95 24.214983 
L 52.48 24.214983 
z
" style="fill: #ffffff"/>
   </g>
   <g id="line2d_1">
    <path d="M 52.48 234.792283 
L 525.95 234.792283 
" clip-path="url(#pdc58050929)" style="fill: none; stroke: #000000; stroke-width: 0.5; stroke-linecap: round"/>
   </g>
   <g id="patch_3">
    <path d="M 77.736943 219.027462 
Q 79.959554 222.710973 82.566722 224.893795 
L 80.344111 234.792283 
Q 78.981866 233.852458 77.678282 232.200183 
Q 77.391493 231.866696 73.663243 226.030681 
Q 70.730178 229.016902 67.164876 229.016902 
Q 60.281951 229.016902 56.377717 219.588326 
Q 52.48 210.15975 52.48 193.106458 
Q 52.48 176.098641 56.390752 166.654907 
Q 60.301505 157.211173 67.001928 157.211173 
Q 73.643689 157.211173 77.534888 166.654907 
Q 81.426086 176.098641 81.426086 193.106458 
Q 81.426086 202.110596 80.344111 208.931913 
Q 79.529371 214.146431 77.736943 219.027462 
z
M 72.88761 211.114735 
Q 74.054318 207.931454 74.634413 203.444543 
Q 75.214508 198.942474 75.214508 193.106458 
Q 75.214508 181.085782 72.933235 175.143657 
Q 70.651963 169.186374 66.96282 169.186374 
Q 63.273677 169.186374 60.979369 175.158816 
Q 58.691579 181.131257 58.691579 193.106458 
Q 58.691579 205.278719 60.979369 211.326953 
Q 63.273677 217.360029 66.780318 217.360029 
Q 68.083902 217.360029 69.244092 216.374728 
Q 67.412557 213.570409 65.515842 212.009085 
L 67.210501 204.005407 
Q 70.182673 206.37013 72.88761 211.114735 
z
" clip-path="url(#pdc58050929)" style="fill: #0000ff"/>
   </g>
   <g id="patch_4">
    <path d="M 63.529357 157.211173 
L 63.529357 24.214983 
L 71.517365 24.214983 
L 71.517365 157.211173 
L 63.529357 157.211173 
z
" clip-path="url(#pdc58050929)" style="fill: #add8e6"/>
   </g>
   <g id="patch_5">
    <path d="M 84.150234 234.792283 
L 84.150234 223.709268 
L 93.567208 223.709268 
L 99.217393 231.269718 
L 104.806384 223.709268 
L 114.236957 223.709268 
L 114.236957 234.792283 
L 108.396393 234.792283 
L 108.396393 226.068128 
L 102.209067 234.792283 
L 96.157726 234.792283 
L 89.997597 226.068128 
L 89.997597 234.792283 
L 84.150234 234.792283 
z
" clip-path="url(#pdc58050929)" style="fill: #ff8c00"/>
   </g>
   <g id="patch_6">
    <path d="M 95.199592 223.709268 
L 95.199592 212.626252 
L 103.187599 212.626252 
L 103.187599 223.709268 
L 95.199592 223.709268 
z
" clip-path="url(#pdc58050929)" style="fill: #add8e6"/>
   </g>
   <g id="patch_7">
    <path d="M 84.150234 201.543236 
L 98.507489 201.543236 
Q 102.773108 201.543236 104.866711 201.652107 
Q 106.960314 201.760977 108.614809 202.109363 
Q 110.269304 202.457748 111.367074 203.035972 
Q 112.472684 203.614195 112.472684 204.33274 
Q 112.472684 205.111769 111.108314 205.762572 
Q 109.751784 206.410957 107.430786 206.737568 
Q 110.708412 207.030309 112.472684 207.741596 
Q 114.236957 208.452883 114.236957 209.413363 
Q 114.236957 210.168198 113.099981 210.884324 
Q 111.963006 211.598031 109.987021 212.026255 
Q 108.018877 212.452059 105.125471 212.551252 
Q 103.314151 212.611736 96.37468 212.626252 
L 84.150234 212.626252 
L 84.150234 201.543236 
z
M 91.403353 203.386776 
L 91.403353 205.951281 
L 96.155126 205.951281 
Q 100.397221 205.951281 101.42442 205.912572 
Q 103.282786 205.84483 104.349191 205.515799 
Q 105.415595 205.186768 105.415595 204.649674 
Q 105.415595 204.136773 104.498174 203.815 
Q 103.580752 203.493228 101.769433 203.425486 
Q 100.687346 203.386776 95.567036 203.386776 
L 91.403353 203.386776 
z
M 91.403353 207.794822 
L 91.403353 210.758518 
L 98.115429 210.758518 
Q 102.036034 210.758518 103.086756 210.690777 
Q 104.709886 210.598841 105.721403 210.248037 
Q 106.74076 209.897232 106.74076 209.306912 
Q 106.74076 208.808527 105.956639 208.460141 
Q 105.172518 208.111756 103.690529 207.954498 
Q 102.208541 207.794822 97.260737 207.794822 
L 91.403353 207.794822 
z
" clip-path="url(#pdc58050929)" style="fill: #ffd700"/>
   </g>
   <g id="patch_8">
    <path d="M 84.150234 201.543236 
L 84.150234 190.46022 
L 98.371853 190.46022 
Q 103.733265 190.46022 106.165622 190.760219 
Q 108.597979 191.057798 110.058854 191.822311 
Q 111.519729 192.584405 111.519729 193.566658 
Q 111.519729 194.81504 109.299199 195.62794 
Q 107.085973 196.440839 102.681435 196.651322 
Q 104.872747 197.074707 106.2971 197.58277 
Q 107.728758 198.088413 110.146506 199.380342 
L 114.236957 201.543236 
L 106.151013 201.543236 
L 101.27169 199.13115 
Q 98.664028 197.83922 97.707155 197.502931 
Q 96.750282 197.166642 95.676539 197.040837 
Q 94.602795 196.915031 92.2727 196.915031 
L 90.906781 196.915031 
L 90.906781 201.543236 
L 84.150234 201.543236 
z
M 90.906781 195.14649 
L 95.902974 195.14649 
Q 100.767688 195.14649 101.97291 195.011007 
Q 103.185436 194.875524 103.872048 194.544073 
Q 104.558659 194.210204 104.558659 193.7094 
Q 104.558659 193.150531 103.652917 192.806984 
Q 102.754478 192.463437 101.110994 192.371502 
Q 100.285599 192.335212 96.18054 192.335212 
L 90.906781 192.335212 
L 90.906781 195.14649 
z
" clip-path="url(#pdc58050929)" style="fill: #ffe4b5"/>
   </g>
   <g id="patch_9">
    <path d="M 84.150234 190.46022 
L 84.150234 188.442487 
L 103.599093 181.252196 
L 86.348941 181.252196 
L 86.348941 179.377205 
L 113.452859 179.377205 
L 113.452859 181.114294 
L 93.163317 188.592487 
L 114.236957 188.592487 
L 114.236957 190.46022 
L 84.150234 190.46022 
z
" clip-path="url(#pdc58050929)" style="fill: #dda0dd"/>
   </g>
   <g id="patch_10">
    <path d="M 109.407177 174.87297 
Q 111.629788 175.925402 114.236957 176.549065 
L 112.014346 179.377205 
Q 110.6521 179.108683 109.348516 178.636604 
Q 109.061727 178.541323 105.333477 176.87389 
Q 102.400412 177.727096 98.83511 177.727096 
Q 91.952185 177.727096 88.047951 175.033217 
Q 84.150234 172.339338 84.150234 167.466969 
Q 84.150234 162.607593 88.060987 159.909383 
Q 91.971739 157.211173 98.672162 157.211173 
Q 105.313923 157.211173 109.205122 159.909383 
Q 113.09632 162.607593 113.09632 167.466969 
Q 113.09632 170.03958 112.014346 171.988527 
Q 111.199605 173.47839 109.407177 174.87297 
z
M 104.557844 172.612191 
Q 105.724552 171.702682 106.304647 170.420707 
Q 106.884742 169.134402 106.884742 167.466969 
Q 106.884742 164.03249 104.60347 162.33474 
Q 102.322197 160.632659 98.633054 160.632659 
Q 94.943911 160.632659 92.649603 162.339071 
Q 90.361813 164.045483 90.361813 167.466969 
Q 90.361813 170.944758 92.649603 172.672825 
Q 94.943911 174.39656 98.450552 174.39656 
Q 99.754137 174.39656 100.914326 174.115046 
Q 99.082791 173.313812 97.186076 172.867719 
L 98.880735 170.580954 
Q 101.852907 171.256589 104.557844 172.612191 
z
" clip-path="url(#pdc58050929)" style="fill: #0000ff"/>
   </g>
   <g id="patch_11">
    <path d="M 100.236274 107.741195 
L 100.236274 86.066494 
L 114.236957 86.066494 
L 114.236957 137.305262 
Q 112.193728 145.194629 108.317912 151.202901 
Q 104.449117 157.211173 100.475002 157.211173 
Q 95.433633 157.211173 91.677181 148.760286 
Q 87.92775 140.281322 86.038992 124.530665 
Q 84.150234 108.780008 84.150234 90.2779 
Q 84.150234 70.175457 86.256656 54.56518 
Q 88.363077 38.954903 92.42145 30.61632 
Q 95.51789 24.214983 100.123932 24.214983 
Q 106.11319 24.214983 109.483465 34.266205 
Q 112.85374 44.28935 113.815672 62.00533 
L 107.370022 66.834408 
Q 106.688946 57.372784 104.807209 51.897956 
Q 102.932494 46.395053 100.123932 46.395053 
Q 95.86896 46.395053 93.355297 57.204328 
Q 90.841634 67.985526 90.841634 89.21101 
Q 90.841634 112.121057 93.383382 123.57608 
Q 95.932152 135.003027 100.060739 135.003027 
Q 102.103968 135.003027 104.154218 131.802359 
Q 106.204469 128.601691 107.671942 124.053373 
L 107.671942 107.741195 
L 100.236274 107.741195 
z
" clip-path="url(#pdc58050929)" style="fill: #ff69b4"/>
   </g>
   <g id="patch_12">
    <path d="M 131.906508 230.669785 
L 131.906508 228.86356 
L 145.907191 228.86356 
L 145.907191 233.133458 
Q 143.863962 233.790905 139.988146 234.291594 
Q 136.119351 234.792283 132.145236 234.792283 
Q 127.103867 234.792283 123.347415 234.088043 
Q 119.597984 233.381463 117.709226 232.068908 
Q 115.820468 230.756353 115.820468 229.214511 
Q 115.820468 227.539307 117.92689 226.238451 
Q 120.033312 224.937594 124.091684 224.242712 
Q 127.188124 223.709268 131.794166 223.709268 
Q 137.783425 223.709268 141.153699 224.546869 
Q 144.523974 225.382132 145.485906 226.858463 
L 139.040256 227.260886 
Q 138.35918 226.472418 136.477443 226.016182 
Q 134.602728 225.557607 131.794166 225.557607 
Q 127.539194 225.557607 125.025531 226.45838 
Q 122.511868 227.356813 122.511868 229.125603 
Q 122.511868 231.034774 125.053616 231.989359 
Q 127.602387 232.941605 131.730973 232.941605 
Q 133.774202 232.941605 135.824452 232.674882 
Q 137.874703 232.40816 139.342177 232.029133 
L 139.342177 230.669785 
L 131.906508 230.669785 
z
" clip-path="url(#pdc58050929)" style="fill: #ff69b4"/>
   </g>
   <g id="patch_13">
    <path d="M 127.053396 223.709268 
L 127.053396 214.501244 
L 115.820468 214.501244 
L 115.820468 212.626252 
L 145.907191 212.626252 
L 145.907191 214.501244 
L 134.69906 214.501244 
L 134.69906 223.709268 
L 127.053396 223.709268 
z
" clip-path="url(#pdc58050929)" style="fill: #a0522d"/>
   </g>
   <g id="patch_14">
    <path d="M 141.077411 208.122017 
Q 143.300022 209.174449 145.907191 209.798112 
L 143.68458 212.626252 
Q 142.322334 212.35773 141.01875 211.885652 
Q 140.731962 211.79037 137.003711 210.122937 
Q 134.070646 210.976143 130.505344 210.976143 
Q 123.622419 210.976143 119.718185 208.282264 
Q 115.820468 205.588385 115.820468 200.716016 
Q 115.820468 195.85664 119.731221 193.15843 
Q 123.641973 190.46022 130.342396 190.46022 
Q 136.984157 190.46022 140.875356 193.15843 
Q 144.766554 195.85664 144.766554 200.716016 
Q 144.766554 203.288627 143.68458 205.237575 
Q 142.86984 206.727437 141.077411 208.122017 
z
M 136.228078 205.861238 
Q 137.394786 204.951729 137.974881 203.669755 
Q 138.554976 202.383449 138.554976 200.716016 
Q 138.554976 197.281537 136.273704 195.583787 
Q 133.992431 193.881706 130.303288 193.881706 
Q 126.614145 193.881706 124.319837 195.588118 
Q 122.032047 197.29453 122.032047 200.716016 
Q 122.032047 204.193805 124.319837 205.921872 
Q 126.614145 207.645608 130.120786 207.645608 
Q 131.424371 207.645608 132.584561 207.364093 
Q 130.753025 206.562859 128.85631 206.116767 
L 130.550969 203.830001 
Q 133.523141 204.505637 136.228078 205.861238 
z
" clip-path="url(#pdc58050929)" style="fill: #0000ff"/>
   </g>
   <g id="patch_15">
    <path d="M 115.820468 168.294189 
L 130.177724 168.294189 
Q 134.443342 168.294189 136.536945 168.51193 
Q 138.630548 168.729671 140.285043 169.426442 
Q 141.939538 170.123213 143.037308 171.27966 
Q 144.142918 172.436106 144.142918 173.873196 
Q 144.142918 175.431254 142.778548 176.732861 
Q 141.422019 178.02963 139.10102 178.682853 
Q 142.378646 179.268334 144.142918 180.690908 
Q 145.907191 182.113483 145.907191 184.034442 
Q 145.907191 185.544113 144.770215 186.976365 
Q 143.63324 188.403778 141.657255 189.260226 
Q 139.689111 190.111835 136.795705 190.310221 
Q 134.984385 190.431188 128.044914 190.46022 
L 115.820468 190.46022 
L 115.820468 168.294189 
z
M 123.073587 171.981269 
L 123.073587 177.110279 
L 127.825361 177.110279 
Q 132.067455 177.110279 133.094654 177.03286 
Q 134.95302 176.897377 136.019425 176.239315 
Q 137.085829 175.581253 137.085829 174.507065 
Q 137.085829 173.481263 136.168408 172.837717 
Q 135.250986 172.194172 133.439667 172.058688 
Q 132.35758 171.981269 127.23727 171.981269 
L 123.073587 171.981269 
z
M 123.073587 180.79736 
L 123.073587 186.724753 
L 129.785663 186.724753 
Q 133.706268 186.724753 134.75699 186.58927 
Q 136.380121 186.405399 137.391637 185.70379 
Q 138.410994 185.00218 138.410994 183.82154 
Q 138.410994 182.82477 137.626873 182.127999 
Q 136.842752 181.431228 135.360763 181.116713 
Q 133.878775 180.79736 128.930971 180.79736 
L 123.073587 180.79736 
z
" clip-path="url(#pdc58050929)" style="fill: #ffd700"/>
   </g>
   <g id="patch_16">
    <path d="M 115.820468 168.294189 
L 115.820468 24.214983 
L 125.237442 24.214983 
L 130.887627 122.500842 
L 136.476618 24.214983 
L 145.907191 24.214983 
L 145.907191 168.294189 
L 140.066627 168.294189 
L 140.066627 54.880171 
L 133.879301 168.294189 
L 127.82796 168.294189 
L 121.667831 54.880171 
L 121.667831 168.294189 
L 115.820468 168.294189 
z
" clip-path="url(#pdc58050929)" style="fill: #ff8c00"/>
   </g>
   <g id="patch_17">
    <path d="M 167.231876 223.709268 
L 175.193976 223.709268 
L 175.193976 230.607904 
Q 175.193976 231.959085 174.330408 232.689389 
Q 173.16459 233.640925 170.116194 234.216604 
Q 167.067798 234.792283 162.076372 234.792283 
Q 156.221379 234.792283 153.060718 233.890703 
Q 149.908694 232.986744 149.874151 231.238296 
L 157.404467 231.000412 
Q 157.542638 231.937675 158.406207 232.325426 
Q 159.701559 232.910621 162.344079 232.910621 
Q 165.02114 232.910621 166.126508 232.491945 
Q 167.231876 232.07089 167.231876 230.748255 
L 167.231876 223.709268 
z
" clip-path="url(#pdc58050929)" style="fill: #7b68ee"/>
   </g>
   <g id="patch_18">
    <path d="M 147.490702 223.709268 
L 147.490702 212.626252 
L 176.82612 212.626252 
L 176.82612 214.501244 
L 155.47871 214.501244 
L 155.47871 216.956878 
L 175.340783 216.956878 
L 175.340783 218.824612 
L 155.47871 218.824612 
L 155.47871 221.841534 
L 177.577425 221.841534 
L 177.577425 223.709268 
L 147.490702 223.709268 
z
" clip-path="url(#pdc58050929)" style="fill: #c0c0c0"/>
   </g>
   <g id="patch_19">
    <path d="M 147.490702 201.543236 
L 161.847958 201.543236 
Q 166.113576 201.543236 168.207179 201.652107 
Q 170.300782 201.760977 171.955277 202.109363 
Q 173.609773 202.457748 174.707542 203.035972 
Q 175.813153 203.614195 175.813153 204.33274 
Q 175.813153 205.111769 174.448782 205.762572 
Q 173.092253 206.410957 170.771255 206.737568 
Q 174.04888 207.030309 175.813153 207.741596 
Q 177.577425 208.452883 177.577425 209.413363 
Q 177.577425 210.168198 176.440449 210.884324 
Q 175.303474 211.598031 173.327489 212.026255 
Q 171.359345 212.452059 168.465939 212.551252 
Q 166.654619 212.611736 159.715149 212.626252 
L 147.490702 212.626252 
L 147.490702 201.543236 
z
M 154.743822 203.386776 
L 154.743822 205.951281 
L 159.495595 205.951281 
Q 163.737689 205.951281 164.764888 205.912572 
Q 166.623255 205.84483 167.689659 205.515799 
Q 168.756064 205.186768 168.756064 204.649674 
Q 168.756064 204.136773 167.838642 203.815 
Q 166.92122 203.493228 165.109901 203.425486 
Q 164.027814 203.386776 158.907504 203.386776 
L 154.743822 203.386776 
z
M 154.743822 207.794822 
L 154.743822 210.758518 
L 161.455897 210.758518 
Q 165.376502 210.758518 166.427224 210.690777 
Q 168.050355 210.598841 169.061871 210.248037 
Q 170.081228 209.897232 170.081228 209.306912 
Q 170.081228 208.808527 169.297107 208.460141 
Q 168.512986 208.111756 167.030997 207.954498 
Q 165.549009 207.794822 160.601205 207.794822 
L 154.743822 207.794822 
z
" clip-path="url(#pdc58050929)" style="fill: #ffd700"/>
   </g>
   <g id="patch_20">
    <path d="M 147.490702 201.543236 
L 147.490702 190.46022 
L 156.907676 190.46022 
L 162.557861 198.020671 
L 168.146852 190.46022 
L 177.577425 190.46022 
L 177.577425 201.543236 
L 171.736861 201.543236 
L 171.736861 192.819081 
L 165.549535 201.543236 
L 159.498194 201.543236 
L 153.338065 192.819081 
L 153.338065 201.543236 
L 147.490702 201.543236 
z
" clip-path="url(#pdc58050929)" style="fill: #ff8c00"/>
   </g>
   <g id="patch_21">
    <path d="M 158.72363 190.46022 
L 158.72363 144.4201 
L 147.490702 144.4201 
L 147.490702 135.045141 
L 177.577425 135.045141 
L 177.577425 144.4201 
L 166.369294 144.4201 
L 166.369294 190.46022 
L 158.72363 190.46022 
z
" clip-path="url(#pdc58050929)" style="fill: #a0522d"/>
   </g>
   <g id="patch_22">
    <path d="M 172.747645 112.523968 
Q 174.970256 117.786127 177.577425 120.904443 
L 175.354814 135.045141 
Q 173.992568 133.702533 172.688984 131.342141 
Q 172.402196 130.865731 168.673945 122.528566 
Q 165.740881 126.794596 162.175578 126.794596 
Q 155.292654 126.794596 151.388419 113.325202 
Q 147.490702 99.855808 147.490702 75.493962 
Q 147.490702 51.197081 151.401455 37.706032 
Q 155.312207 24.214983 162.01263 24.214983 
Q 168.654391 24.214983 172.54559 37.706032 
Q 176.436789 51.197081 176.436789 75.493962 
Q 176.436789 88.357017 175.354814 98.101755 
Q 174.540074 105.551067 172.747645 112.523968 
z
M 167.898312 101.220072 
Q 169.06502 96.672527 169.645115 90.262655 
Q 170.22521 83.831127 170.22521 75.493962 
Q 170.22521 58.321568 167.943938 49.832818 
Q 165.662666 41.322413 161.973522 41.322413 
Q 158.284379 41.322413 155.990071 49.854473 
Q 153.702281 58.386533 153.702281 75.493962 
Q 153.702281 92.882907 155.990071 101.523241 
Q 158.284379 110.141921 161.791021 110.141921 
Q 163.094605 110.141921 164.254795 108.734348 
Q 162.423259 104.728178 160.526544 102.497715 
L 162.221203 91.063889 
Q 165.193375 94.442065 167.898312 101.220072 
z
" clip-path="url(#pdc58050929)" style="fill: #0000ff"/>
   </g>
   <g id="patch_23">
    <path d="M 179.160936 234.792283 
L 179.160936 223.709268 
L 191.884988 223.709268 
Q 199.121578 223.709268 201.316562 223.873783 
Q 204.694781 224.125395 206.966933 224.960069 
Q 209.247659 225.794742 209.247659 227.118124 
Q 209.247659 228.139087 207.935813 228.835858 
Q 206.623966 229.53021 204.600465 229.926982 
Q 202.576963 230.323755 200.484869 230.45198 
Q 197.646822 230.611657 192.262251 230.611657 
L 187.092033 230.611657 
L 187.092033 234.792283 
L 179.160936 234.792283 
z
M 187.092033 225.584259 
L 187.092033 228.729407 
L 191.430557 228.729407 
Q 196.120622 228.729407 197.698267 228.555214 
Q 199.284487 228.381021 200.176199 228.010862 
Q 201.076486 227.640702 201.076486 227.149575 
Q 201.076486 226.544739 199.816084 226.152805 
Q 198.555683 225.758452 196.626497 225.659259 
Q 195.211761 225.584259 190.924682 225.584259 
L 187.092033 225.584259 
z
" clip-path="url(#pdc58050929)" style="fill: #f0fff0"/>
   </g>
   <g id="patch_24">
    <path d="M 179.160936 223.709268 
L 179.160936 212.626252 
L 193.382555 212.626252 
Q 198.743967 212.626252 201.176324 212.926251 
Q 203.608681 213.22383 205.069556 213.988343 
Q 206.530431 214.750436 206.530431 215.73269 
Q 206.530431 216.981071 204.309901 217.793971 
Q 202.096675 218.606871 197.692137 218.817354 
Q 199.88345 219.240739 201.307803 219.748801 
Q 202.73946 220.254444 205.157209 221.546374 
L 209.247659 223.709268 
L 201.161715 223.709268 
L 196.282392 221.297182 
Q 193.67473 220.005252 192.717857 219.668963 
Q 191.760984 219.332674 190.687241 219.206868 
Q 189.613498 219.081062 187.283402 219.081062 
L 185.917484 219.081062 
L 185.917484 223.709268 
L 179.160936 223.709268 
z
M 185.917484 217.312522 
L 190.913677 217.312522 
Q 195.778391 217.312522 196.983613 217.177038 
Q 198.196139 217.041555 198.88275 216.710105 
Q 199.569361 216.376235 199.569361 215.875431 
Q 199.569361 215.316563 198.663619 214.973016 
Q 197.765181 214.629469 196.121696 214.537534 
Q 195.296302 214.501244 191.191243 214.501244 
L 185.917484 214.501244 
L 185.917484 217.312522 
z
" clip-path="url(#pdc58050929)" style="fill: #ffe4b5"/>
   </g>
   <g id="patch_25">
    <path d="M 184.635799 212.626252 
L 179.160936 201.543236 
L 183.900146 201.543236 
L 187.353213 209.156912 
L 191.546937 201.543236 
L 197.051827 201.543236 
L 201.070396 209.285138 
L 204.588521 201.543236 
L 209.247659 201.543236 
L 203.682716 212.626252 
L 198.773356 212.626252 
L 194.204298 204.339998 
L 189.655257 212.626252 
L 184.635799 212.626252 
z
" clip-path="url(#pdc58050929)" style="fill: #9acd32"/>
   </g>
   <g id="patch_26">
    <path d="M 179.160936 190.46022 
L 193.518192 190.46022 
Q 197.78381 190.46022 199.877413 190.569091 
Q 201.971016 190.677961 203.625511 191.026347 
Q 205.280007 191.374732 206.377776 191.952956 
Q 207.483387 192.531179 207.483387 193.249724 
Q 207.483387 194.028753 206.119016 194.679557 
Q 204.762487 195.327941 202.441489 195.654552 
Q 205.719114 195.947293 207.483387 196.65858 
Q 209.247659 197.369867 209.247659 198.330347 
Q 209.247659 199.085182 208.110683 199.801308 
Q 206.973708 200.515015 204.997723 200.943239 
Q 203.029579 201.369043 200.136173 201.468236 
Q 198.324853 201.52872 191.385383 201.543236 
L 179.160936 201.543236 
L 179.160936 190.46022 
z
M 186.414056 192.303761 
L 186.414056 194.868265 
L 191.165829 194.868265 
Q 195.407923 194.868265 196.435122 194.829556 
Q 198.293489 194.761814 199.359893 194.432784 
Q 200.426298 194.103753 200.426298 193.566658 
Q 200.426298 193.053757 199.508876 192.731985 
Q 198.591455 192.410212 196.780135 192.34247 
Q 195.698048 192.303761 190.577738 192.303761 
L 186.414056 192.303761 
z
M 186.414056 196.711806 
L 186.414056 199.675502 
L 193.126131 199.675502 
Q 197.046736 199.675502 198.097458 199.607761 
Q 199.720589 199.515826 200.732105 199.165021 
Q 201.751462 198.814216 201.751462 198.223896 
Q 201.751462 197.725511 200.967341 197.377125 
Q 200.18322 197.02874 198.701232 196.871482 
Q 197.219243 196.711806 192.271439 196.711806 
L 186.414056 196.711806 
z
" clip-path="url(#pdc58050929)" style="fill: #ffd700"/>
   </g>
   <g id="patch_27">
    <path d="M 198.90211 179.377205 
L 206.86421 179.377205 
L 206.86421 186.275841 
Q 206.86421 187.627022 206.000642 188.357326 
Q 204.834824 189.308862 201.786428 189.884541 
Q 198.738032 190.46022 193.746606 190.46022 
Q 187.891613 190.46022 184.730953 189.55864 
Q 181.578928 188.654681 181.544385 186.906233 
L 189.074701 186.668349 
Q 189.212872 187.605612 190.076441 187.993363 
Q 191.371793 188.578558 194.014313 188.578558 
Q 196.691375 188.578558 197.796742 188.159882 
Q 198.90211 187.738827 198.90211 186.416192 
L 198.90211 179.377205 
z
" clip-path="url(#pdc58050929)" style="fill: #7b68ee"/>
   </g>
   <g id="patch_28">
    <path d="M 204.41788 174.87297 
Q 206.640491 175.925402 209.247659 176.549065 
L 207.025048 179.377205 
Q 205.662802 179.108683 204.359218 178.636604 
Q 204.07243 178.541323 200.344179 176.87389 
Q 197.411115 177.727096 193.845812 177.727096 
Q 186.962888 177.727096 183.058653 175.033217 
Q 179.160936 172.339338 179.160936 167.466969 
Q 179.160936 162.607593 183.071689 159.909383 
Q 186.982441 157.211173 193.682864 157.211173 
Q 200.324625 157.211173 204.215824 159.909383 
Q 208.107023 162.607593 208.107023 167.466969 
Q 208.107023 170.03958 207.025048 171.988527 
Q 206.210308 173.47839 204.41788 174.87297 
z
M 199.568546 172.612191 
Q 200.735254 171.702682 201.315349 170.420707 
Q 201.895444 169.134402 201.895444 167.466969 
Q 201.895444 164.03249 199.614172 162.33474 
Q 197.3329 160.632659 193.643756 160.632659 
Q 189.954613 160.632659 187.660305 162.339071 
Q 185.372515 164.045483 185.372515 167.466969 
Q 185.372515 170.944758 187.660305 172.672825 
Q 189.954613 174.39656 193.461255 174.39656 
Q 194.764839 174.39656 195.925029 174.115046 
Q 194.093493 173.313812 192.196778 172.867719 
L 193.891437 170.580954 
Q 196.863609 171.256589 199.568546 172.612191 
z
" clip-path="url(#pdc58050929)" style="fill: #0000ff"/>
   </g>
   <g id="patch_29">
    <path d="M 179.160936 135.045141 
L 186.777307 135.045141 
L 186.777307 146.848946 
Q 186.777307 149.660735 187.065494 150.493329 
Q 187.551295 151.830237 189.387458 152.639042 
Q 191.231855 153.447848 194.426613 153.447848 
Q 197.662542 153.447848 199.309324 152.686619 
Q 200.956107 151.920633 201.293698 150.807336 
Q 201.631288 149.689281 201.631288 147.101103 
L 201.631288 135.045141 
L 209.247659 135.045141 
L 209.247659 146.49212 
Q 209.247659 150.417206 208.630115 152.039575 
Q 208.012572 153.657186 206.349321 154.775241 
Q 204.68607 155.888538 201.903007 156.549855 
Q 199.128178 157.211173 194.657163 157.211173 
Q 189.247481 157.211173 186.456184 156.492763 
Q 183.664888 155.769596 182.042806 154.618237 
Q 180.428959 153.466879 179.910223 152.201336 
Q 179.160936 150.32681 179.160936 146.668154 
L 179.160936 135.045141 
z
" clip-path="url(#pdc58050929)" style="fill: #f08080"/>
   </g>
   <g id="patch_30">
    <path d="M 190.393864 135.045141 
L 190.393864 42.964901 
L 179.160936 42.964901 
L 179.160936 24.214983 
L 209.247659 24.214983 
L 209.247659 42.964901 
L 198.039528 42.964901 
L 198.039528 135.045141 
L 190.393864 135.045141 
z
" clip-path="url(#pdc58050929)" style="fill: #a0522d"/>
   </g>
   <g id="patch_31">
    <path d="M 230.572344 222.405383 
L 238.534444 222.405383 
L 238.534444 230.115624 
Q 238.534444 231.625768 237.670876 232.44199 
Q 236.505059 233.505471 233.456662 234.148877 
Q 230.408266 234.792283 225.416841 234.792283 
Q 219.561847 234.792283 216.401187 233.784635 
Q 213.249162 232.774327 213.214619 230.82018 
L 220.744936 230.55431 
Q 220.883107 231.601839 221.746675 232.035208 
Q 223.042027 232.689249 225.684547 232.689249 
Q 228.361609 232.689249 229.466976 232.221317 
Q 230.572344 231.750727 230.572344 230.272487 
L 230.572344 222.405383 
z
" clip-path="url(#pdc58050929)" style="fill: #7b68ee"/>
   </g>
   <g id="patch_32">
    <path d="M 221.880528 222.405383 
L 221.880528 210.018483 
L 229.868536 210.018483 
L 229.868536 222.405383 
L 221.880528 222.405383 
z
" clip-path="url(#pdc58050929)" style="fill: #add8e6"/>
   </g>
   <g id="patch_33">
    <path d="M 210.831171 210.018483 
L 210.831171 197.631583 
L 225.05279 197.631583 
Q 230.414201 197.631583 232.846558 197.966876 
Q 235.278915 198.299465 236.73979 199.15392 
Q 238.200665 200.005672 238.200665 201.103485 
Q 238.200665 202.498735 235.980135 203.40727 
Q 233.766909 204.315805 229.362371 204.55105 
Q 231.553684 205.024245 232.978037 205.59208 
Q 234.409694 206.15721 236.827443 207.601132 
L 240.917893 210.018483 
L 232.831949 210.018483 
L 227.952627 207.322622 
Q 225.344965 205.878701 224.388091 205.502849 
Q 223.431218 205.126996 222.357475 204.98639 
Q 221.283732 204.845783 218.953636 204.845783 
L 217.587718 204.845783 
L 217.587718 210.018483 
L 210.831171 210.018483 
z
M 217.587718 202.869179 
L 222.583911 202.869179 
Q 227.448625 202.869179 228.653847 202.717757 
Q 229.866373 202.566334 230.552984 202.19589 
Q 231.239596 201.822742 231.239596 201.263019 
Q 231.239596 200.638401 230.333853 200.254437 
Q 229.435415 199.870473 227.79193 199.767722 
Q 226.966536 199.727163 222.861477 199.727163 
L 217.587718 199.727163 
L 217.587718 202.869179 
z
" clip-path="url(#pdc58050929)" style="fill: #ffe4b5"/>
   </g>
   <g id="patch_34">
    <path d="M 210.831171 193.523523 
L 218.100446 193.296168 
Q 218.762758 194.47998 220.765847 195.036606 
Q 222.768936 195.59062 226.177418 195.59062 
Q 229.787825 195.59062 231.613221 195.096712 
Q 233.446693 194.602804 233.446693 193.941646 
Q 233.446693 193.515683 232.679381 193.21777 
Q 231.912069 192.919858 229.989749 192.700343 
Q 228.68128 192.551387 224.01279 192.177689 
Q 218.003522 191.694234 215.58043 190.993878 
Q 212.171948 190.003448 212.171948 188.584443 
Q 212.171948 187.669798 213.771189 186.872751 
Q 215.378506 186.075703 218.391217 185.660193 
Q 221.412004 185.244683 225.676646 185.244683 
Q 232.638996 185.244683 236.160556 186.2325 
Q 239.682116 187.220316 239.85981 188.869289 
L 232.38861 188.976433 
Q 231.912069 188.053949 230.328982 187.648892 
Q 228.753972 187.243835 225.595876 187.243835 
Q 222.340856 187.243835 220.499307 187.677638 
Q 219.311992 187.954645 219.311992 188.419807 
Q 219.311992 188.84577 220.426614 189.146296 
Q 221.840084 189.530446 227.29204 189.94857 
Q 232.743997 190.36408 235.352859 190.810949 
Q 237.969798 191.255205 239.439807 192.026119 
Q 240.917893 192.797034 240.917893 193.933806 
Q 240.917893 194.960822 239.149036 195.859786 
Q 237.388256 196.758751 234.157467 197.195167 
Q 230.926678 197.631583 226.104725 197.631583 
Q 219.085836 197.631583 215.321967 196.583662 
Q 211.566175 195.533128 210.831171 193.523523 
z
" clip-path="url(#pdc58050929)" style="fill: #ffff00"/>
   </g>
   <g id="patch_35">
    <path d="M 210.831171 160.470883 
L 225.188426 160.470883 
Q 229.454044 160.470883 231.547647 160.714241 
Q 233.64125 160.957599 235.295745 161.736343 
Q 236.950241 162.515087 238.04801 163.807586 
Q 239.153621 165.100085 239.153621 166.706245 
Q 239.153621 168.447604 237.78925 169.902341 
Q 236.432721 171.351671 234.111723 172.081743 
Q 237.389349 172.736105 239.153621 174.326041 
Q 240.917893 175.915977 240.917893 178.062931 
Q 240.917893 179.750211 239.780918 181.350962 
Q 238.643942 182.946307 236.667957 183.903513 
Q 234.699814 184.855311 231.806407 185.077037 
Q 229.995088 185.212236 223.055617 185.244683 
L 210.831171 185.244683 
L 210.831171 160.470883 
z
M 218.08429 164.591738 
L 218.08429 170.324161 
L 222.836063 170.324161 
Q 227.078157 170.324161 228.105356 170.237634 
Q 229.963723 170.086211 231.030127 169.350731 
Q 232.096532 168.61525 232.096532 167.414686 
Q 232.096532 166.268201 231.17911 165.548945 
Q 230.261689 164.829688 228.450369 164.678265 
Q 227.368282 164.591738 222.247972 164.591738 
L 218.08429 164.591738 
z
M 218.08429 174.445016 
L 218.08429 181.069749 
L 224.796365 181.069749 
Q 228.71697 181.069749 229.767692 180.918327 
Q 231.390823 180.712825 232.402339 179.928673 
Q 233.421696 179.144521 233.421696 177.824982 
Q 233.421696 176.710945 232.637575 175.932201 
Q 231.853454 175.153457 230.371466 174.80194 
Q 228.889477 174.445016 223.941674 174.445016 
L 218.08429 174.445016 
z
" clip-path="url(#pdc58050929)" style="fill: #ffd700"/>
   </g>
   <g id="patch_36">
    <path d="M 222.064098 160.470883 
L 222.064098 47.266353 
L 210.831171 47.266353 
L 210.831171 24.214983 
L 240.917893 24.214983 
L 240.917893 47.266353 
L 229.709762 47.266353 
L 229.709762 160.470883 
L 222.064098 160.470883 
z
" clip-path="url(#pdc58050929)" style="fill: #a0522d"/>
   </g>
   <g id="patch_37">
    <path d="M 258.587445 229.197465 
L 258.587445 226.746159 
L 272.588127 226.746159 
L 272.588127 232.54102 
Q 270.544898 233.43327 266.669082 234.112777 
Q 262.800288 234.792283 258.826172 234.792283 
Q 253.784803 234.792283 250.028351 233.836528 
Q 246.278921 232.877598 244.390163 231.096274 
Q 242.501405 229.314949 242.501405 227.222449 
Q 242.501405 224.948958 244.607826 223.18351 
Q 246.714248 221.418063 250.77262 220.475008 
Q 253.86906 219.751048 258.475102 219.751048 
Q 264.464361 219.751048 267.834636 220.887793 
Q 271.20491 222.021363 272.166843 224.024956 
L 265.721193 224.571102 
Q 265.040116 223.501037 263.15838 222.88186 
Q 261.283664 222.259508 258.475102 222.259508 
Q 254.22013 222.259508 251.706467 223.481986 
Q 249.192804 224.701288 249.192804 227.101789 
Q 249.192804 229.692806 251.734553 230.988315 
Q 254.283323 232.280648 258.411909 232.280648 
Q 260.455138 232.280648 262.505389 231.918668 
Q 264.555639 231.556687 266.023113 231.042294 
L 266.023113 229.197465 
L 258.587445 229.197465 
z
" clip-path="url(#pdc58050929)" style="fill: #ff69b4"/>
   </g>
   <g id="patch_38">
    <path d="M 243.982424 219.751048 
L 243.982424 204.709812 
L 271.107107 204.709812 
L 271.107107 207.254444 
L 251.970432 207.254444 
L 251.970432 210.813645 
L 268.481859 210.813645 
L 268.481859 213.358276 
L 251.970432 213.358276 
L 251.970432 219.751048 
L 243.982424 219.751048 
z
" clip-path="url(#pdc58050929)" style="fill: #ff0000"/>
   </g>
   <g id="patch_39">
    <path d="M 242.501405 189.668576 
L 256.85866 189.668576 
Q 261.124278 189.668576 263.217881 189.816329 
Q 265.311484 189.964082 266.96598 190.436891 
Q 268.620475 190.9097 269.718244 191.694432 
Q 270.823855 192.479163 270.823855 193.454332 
Q 270.823855 194.511585 269.459484 195.394818 
Q 268.102955 196.274769 265.781957 196.718027 
Q 269.059583 197.115318 270.823855 198.080636 
Q 272.588127 199.045954 272.588127 200.349463 
Q 272.588127 201.373882 271.451152 202.345767 
Q 270.314176 203.314369 268.338191 203.89553 
Q 266.370048 204.473408 263.476641 204.608027 
Q 261.665322 204.690112 254.725851 204.709812 
L 242.501405 204.709812 
L 242.501405 189.668576 
z
M 249.754524 192.170524 
L 249.754524 195.650923 
L 254.506297 195.650923 
Q 258.748392 195.650923 259.77559 195.598389 
Q 261.633957 195.506454 262.700361 195.059912 
Q 263.766766 194.61337 263.766766 193.884456 
Q 263.766766 193.188377 262.849344 192.751685 
Q 261.931923 192.314993 260.120603 192.223058 
Q 259.038516 192.170524 253.918206 192.170524 
L 249.754524 192.170524 
z
M 249.754524 198.152871 
L 249.754524 202.175031 
L 256.4666 202.175031 
Q 260.387204 202.175031 261.437927 202.083096 
Q 263.061057 201.958326 264.072573 201.482234 
Q 265.09193 201.006142 265.09193 200.204993 
Q 265.09193 199.528614 264.307809 199.055805 
Q 263.523688 198.582996 262.0417 198.369575 
Q 260.559711 198.152871 255.611908 198.152871 
L 249.754524 198.152871 
z
" clip-path="url(#pdc58050929)" style="fill: #ffd700"/>
   </g>
   <g id="patch_40">
    <path d="M 242.501405 189.668576 
L 242.501405 174.627341 
L 251.918379 174.627341 
L 257.568563 184.887952 
L 263.157554 174.627341 
L 272.588127 174.627341 
L 272.588127 189.668576 
L 266.747563 189.668576 
L 266.747563 177.828651 
L 260.560237 189.668576 
L 254.508897 189.668576 
L 248.348768 177.828651 
L 248.348768 189.668576 
L 242.501405 189.668576 
z
" clip-path="url(#pdc58050929)" style="fill: #ff8c00"/>
   </g>
   <g id="patch_41">
    <path d="M 262.242578 144.544869 
L 270.204678 144.544869 
L 270.204678 163.269739 
Q 270.204678 166.93723 269.34111 168.919484 
Q 268.175293 171.502224 265.126896 173.064783 
Q 262.0785 174.627341 257.087075 174.627341 
Q 251.232081 174.627341 248.071421 172.180194 
Q 244.919396 169.72659 244.884853 164.980804 
L 252.41517 164.335119 
Q 252.553341 166.879119 253.416909 167.931586 
Q 254.712262 169.519971 257.354781 169.519971 
Q 260.031843 169.519971 261.13721 168.383565 
Q 262.242578 167.240702 262.242578 163.650693 
L 262.242578 144.544869 
z
" clip-path="url(#pdc58050929)" style="fill: #7b68ee"/>
   </g>
   <g id="patch_42">
    <path d="M 253.550762 144.544869 
L 253.550762 114.462398 
L 261.53877 114.462398 
L 261.53877 144.544869 
L 253.550762 144.544869 
z
" clip-path="url(#pdc58050929)" style="fill: #add8e6"/>
   </g>
   <g id="patch_43">
    <path d="M 253.734332 114.462398 
L 253.734332 89.46919 
L 242.501405 89.46919 
L 242.501405 84.379926 
L 272.588127 84.379926 
L 272.588127 89.46919 
L 261.379996 89.46919 
L 261.379996 114.462398 
L 253.734332 114.462398 
z
" clip-path="url(#pdc58050929)" style="fill: #a0522d"/>
   </g>
   <g id="patch_44">
    <path d="M 267.758348 72.154147 
Q 269.980959 75.010747 272.588127 76.703547 
L 270.365516 84.379926 
Q 269.003271 83.651082 267.699686 82.369726 
Q 267.412898 82.111104 263.684647 77.585214 
Q 260.751583 79.901059 257.18628 79.901059 
Q 250.303356 79.901059 246.399121 72.589102 
Q 242.501405 65.277146 242.501405 52.052143 
Q 242.501405 38.862408 246.412157 31.538696 
Q 250.32291 24.214983 257.023332 24.214983 
Q 263.665094 24.214983 267.556292 31.538696 
Q 271.447491 38.862408 271.447491 52.052143 
Q 271.447491 59.034945 270.365516 64.324945 
Q 269.550776 68.368857 267.758348 72.154147 
z
M 262.909015 66.017746 
Q 264.075723 63.549079 264.655817 60.069434 
Q 265.235912 56.578033 265.235912 52.052143 
Q 265.235912 42.729986 262.95464 38.121808 
Q 260.673368 33.501874 256.984225 33.501874 
Q 253.295082 33.501874 251.000773 38.133563 
Q 248.712983 42.765253 248.712983 52.052143 
Q 248.712983 61.491856 251.000773 66.182323 
Q 253.295082 70.861035 256.801723 70.861035 
Q 258.105307 70.861035 259.265497 70.096924 
Q 257.433961 67.922146 255.537246 66.711324 
L 257.231906 60.504389 
Q 260.204078 62.338256 262.909015 66.017746 
z
" clip-path="url(#pdc58050929)" style="fill: #0000ff"/>
   </g>
   <g id="patch_45">
    <path d="M 285.220996 234.792283 
L 285.220996 217.244175 
L 293.209004 217.244175 
L 293.209004 234.792283 
L 285.220996 234.792283 
z
" clip-path="url(#pdc58050929)" style="fill: #add8e6"/>
   </g>
   <g id="patch_46">
    <path d="M 274.171639 217.244175 
L 274.171639 199.696067 
L 281.771371 199.696067 
L 281.771371 206.60269 
L 296.658629 206.60269 
L 296.658629 199.696067 
L 304.258361 199.696067 
L 304.258361 217.244175 
L 296.658629 217.244175 
L 296.658629 209.571427 
L 281.771371 209.571427 
L 281.771371 217.244175 
L 274.171639 217.244175 
z
" clip-path="url(#pdc58050929)" style="fill: #00ffff"/>
   </g>
   <g id="patch_47">
    <path d="M 274.171639 191.023886 
Q 274.171639 188.430752 275.593379 186.671125 
Q 276.649528 185.374558 278.477479 184.344713 
Q 280.305431 183.314869 282.485432 182.818469 
Q 285.383073 182.147958 289.174379 182.147958 
Q 296.025811 182.147958 300.142086 184.47437 
Q 304.258361 186.800782 304.258361 190.946092 
Q 304.258361 195.054357 300.175937 197.377064 
Q 296.093513 199.696067 289.255621 199.696067 
Q 282.336487 199.696067 278.254063 197.388178 
Q 274.171639 195.076584 274.171639 191.023886 
z
M 280.623629 190.909047 
Q 280.623629 193.79113 283.054127 195.28033 
Q 285.491396 196.765825 289.235311 196.765825 
Q 292.979225 196.765825 295.382643 195.291443 
Q 297.78606 193.817062 297.78606 190.864593 
Q 297.78606 187.945465 295.443574 186.511833 
Q 293.107859 185.074495 289.235311 185.074495 
Q 285.362762 185.074495 282.993196 186.530355 
Q 280.623629 187.98251 280.623629 190.909047 
z
" clip-path="url(#pdc58050929)" style="fill: #006400"/>
   </g>
   <g id="patch_48">
    <path d="M 299.428582 178.582106 
Q 301.651193 179.415281 304.258361 179.909015 
L 302.03575 182.147958 
Q 300.673505 181.935379 299.369921 181.56165 
Q 299.083132 181.486219 295.354881 180.166167 
Q 292.421817 180.841622 288.856514 180.841622 
Q 281.97359 180.841622 278.069355 178.708968 
Q 274.171639 176.576314 274.171639 172.719022 
Q 274.171639 168.872016 278.082391 166.735933 
Q 281.993144 164.59985 288.693566 164.59985 
Q 295.335328 164.59985 299.226526 166.735933 
Q 303.117725 168.872016 303.117725 172.719022 
Q 303.117725 174.755672 302.03575 176.298589 
Q 301.22101 177.478063 299.428582 178.582106 
z
M 294.579249 176.792322 
Q 295.745957 176.072295 296.326052 175.057398 
Q 296.906147 174.039073 296.906147 172.719022 
Q 296.906147 170.000059 294.624874 168.656007 
Q 292.343602 167.308527 288.654459 167.308527 
Q 284.965316 167.308527 282.671008 168.659436 
Q 280.383217 170.010345 280.383217 172.719022 
Q 280.383217 175.472271 282.671008 176.840324 
Q 284.965316 178.204949 288.471957 178.204949 
Q 289.775541 178.204949 290.935731 177.982083 
Q 289.104195 177.347773 287.20748 176.994616 
L 288.90214 175.18426 
Q 291.874312 175.719138 294.579249 176.792322 
z
" clip-path="url(#pdc58050929)" style="fill: #0000ff"/>
   </g>
   <g id="patch_49">
    <path d="M 274.171639 164.59985 
L 274.171639 147.051742 
L 288.393258 147.051742 
Q 293.754669 147.051742 296.187026 147.52674 
Q 298.619383 147.997907 300.080258 149.208386 
Q 301.541134 150.415033 301.541134 151.970269 
Q 301.541134 153.946873 299.320603 155.233964 
Q 297.107378 156.521055 292.702839 156.85432 
Q 294.894152 157.52468 296.318505 158.329112 
Q 297.750163 159.129713 300.167911 161.175268 
L 304.258361 164.59985 
L 296.172418 164.59985 
L 291.293095 160.780714 
Q 288.685433 158.735158 287.72856 158.202701 
Q 286.771686 157.670244 285.697943 157.471051 
Q 284.6242 157.271858 282.294104 157.271858 
L 280.928186 157.271858 
L 280.928186 164.59985 
L 274.171639 164.59985 
z
M 280.928186 154.471669 
L 285.924379 154.471669 
Q 290.789093 154.471669 291.994315 154.257154 
Q 293.206841 154.042639 293.893452 153.517842 
Q 294.580064 152.989216 294.580064 152.196276 
Q 294.580064 151.311401 293.674321 150.767451 
Q 292.775883 150.223502 291.132399 150.077938 
Q 290.307004 150.020479 286.201945 150.020479 
L 280.928186 150.020479 
L 280.928186 154.471669 
z
" clip-path="url(#pdc58050929)" style="fill: #ffe4b5"/>
   </g>
   <g id="patch_50">
    <path d="M 274.171639 147.051742 
L 274.171639 129.503633 
L 283.588613 129.503633 
L 289.238797 141.474347 
L 294.827789 129.503633 
L 304.258361 129.503633 
L 304.258361 147.051742 
L 298.417797 147.051742 
L 298.417797 133.238496 
L 292.230472 147.051742 
L 286.179131 147.051742 
L 280.019002 133.238496 
L 280.019002 147.051742 
L 274.171639 147.051742 
z
" clip-path="url(#pdc58050929)" style="fill: #ff8c00"/>
   </g>
   <g id="patch_51">
    <path d="M 290.257679 116.449056 
L 290.257679 110.729343 
L 304.258361 110.729343 
L 304.258361 124.250685 
Q 302.215132 126.332601 298.339316 127.918117 
Q 294.470522 129.503633 290.496406 129.503633 
Q 285.455037 129.503633 281.698585 127.273538 
Q 277.949155 125.036034 276.060397 120.879611 
Q 274.171639 116.723187 274.171639 111.840686 
Q 274.171639 106.535875 276.27806 102.416496 
Q 278.384482 98.297118 282.442854 96.096658 
Q 285.539294 94.407417 290.145336 94.407417 
Q 296.134595 94.407417 299.50487 97.059822 
Q 302.875144 99.704819 303.837077 104.379869 
L 297.391427 105.65421 
Q 296.71035 103.157392 294.828614 101.712646 
Q 292.953898 100.260491 290.145336 100.260491 
Q 285.890365 100.260491 283.376701 103.112938 
Q 280.863038 105.957977 280.863038 111.559146 
Q 280.863038 117.604853 283.404787 120.627706 
Q 285.953557 123.643151 290.082144 123.643151 
Q 292.125373 123.643151 294.175623 122.79853 
Q 296.225873 121.953909 297.693347 120.753658 
L 297.693347 116.449056 
L 290.257679 116.449056 
z
" clip-path="url(#pdc58050929)" style="fill: #ff69b4"/>
   </g>
   <g id="patch_52">
    <path d="M 285.404566 94.407417 
L 285.404566 36.089931 
L 274.171639 36.089931 
L 274.171639 24.214983 
L 304.258361 24.214983 
L 304.258361 36.089931 
L 293.050231 36.089931 
L 293.050231 94.407417 
L 285.404566 94.407417 
z
" clip-path="url(#pdc58050929)" style="fill: #a0522d"/>
   </g>
   <g id="patch_53">
    <path d="M 325.583046 208.470121 
L 333.545147 208.470121 
L 333.545147 224.854382 
Q 333.545147 228.063437 332.681578 229.797909 
Q 331.515761 232.057807 328.467365 233.425045 
Q 325.418968 234.792283 320.427543 234.792283 
Q 314.572549 234.792283 311.411889 232.65103 
Q 308.259864 230.504127 308.225322 226.351564 
L 315.755638 225.78659 
Q 315.893809 228.012589 316.757377 228.933498 
Q 318.05273 230.323335 320.695249 230.323335 
Q 323.372311 230.323335 324.477679 229.32898 
Q 325.583046 228.328975 325.583046 225.187717 
L 325.583046 208.470121 
z
" clip-path="url(#pdc58050929)" style="fill: #7b68ee"/>
   </g>
   <g id="patch_54">
    <path d="M 305.841873 208.470121 
L 305.841873 182.147958 
L 318.565924 182.147958 
Q 325.802514 182.147958 327.997499 182.538683 
Q 331.375717 183.136261 333.647869 185.118611 
Q 335.928595 187.100961 335.928595 190.243991 
Q 335.928595 192.668779 334.616749 194.323611 
Q 333.304903 195.972696 331.281401 196.915031 
Q 329.2579 197.857365 327.165805 198.1619 
Q 324.327759 198.541132 318.943187 198.541132 
L 313.77297 198.541132 
L 313.77297 208.470121 
L 305.841873 208.470121 
z
M 313.77297 186.601064 
L 313.77297 194.070789 
L 318.111494 194.070789 
Q 322.801559 194.070789 324.379204 193.657081 
Q 325.965423 193.243373 326.857136 192.364244 
Q 327.757422 191.485115 327.757422 190.318689 
Q 327.757422 188.882203 326.497021 187.95136 
Q 325.23662 187.014772 323.307434 186.779188 
Q 321.892698 186.601064 317.605618 186.601064 
L 313.77297 186.601064 
z
" clip-path="url(#pdc58050929)" style="fill: #f0fff0"/>
   </g>
   <g id="patch_55">
    <path d="M 331.098816 171.450401 
Q 333.321427 173.949927 335.928595 175.431127 
L 333.705984 182.147958 
Q 332.343739 181.51022 331.040155 180.389033 
Q 330.753366 180.162739 327.025116 176.202585 
Q 324.092051 178.22895 320.526748 178.22895 
Q 313.643824 178.22895 309.73959 171.830987 
Q 305.841873 165.433025 305.841873 153.861148 
Q 305.841873 142.32013 309.752625 135.911882 
Q 313.663378 129.503633 320.3638 129.503633 
Q 327.005562 129.503633 330.89676 135.911882 
Q 334.787959 142.32013 334.787959 153.861148 
Q 334.787959 159.971099 333.705984 164.59985 
Q 332.891244 168.138273 331.098816 171.450401 
z
M 326.249483 166.08105 
Q 327.416191 163.920967 327.996286 160.876277 
Q 328.576381 157.821302 328.576381 153.861148 
Q 328.576381 145.704261 326.295108 141.672105 
Q 324.013836 137.629663 320.324693 137.629663 
Q 316.63555 137.629663 314.341242 141.682391 
Q 312.053451 145.735119 312.053451 153.861148 
Q 312.053451 162.120897 314.341242 166.225056 
Q 316.63555 170.318929 320.142191 170.318929 
Q 321.445775 170.318929 322.605965 169.650332 
Q 320.774429 167.747401 318.877715 166.687931 
L 320.572374 161.256864 
Q 323.544546 162.861497 326.249483 166.08105 
z
" clip-path="url(#pdc58050929)" style="fill: #0000ff"/>
   </g>
   <g id="patch_56">
    <path d="M 321.927913 109.921767 
L 321.927913 101.342198 
L 335.928595 101.342198 
L 335.928595 121.624211 
Q 333.885366 124.747085 330.009551 127.125359 
Q 326.140756 129.503633 322.166641 129.503633 
Q 317.125271 129.503633 313.36882 126.158491 
Q 309.619389 122.802234 307.730631 116.567599 
Q 305.841873 110.332964 305.841873 103.009213 
Q 305.841873 95.051996 307.948295 88.872928 
Q 310.054716 82.69386 314.113089 79.393171 
Q 317.209528 76.859308 321.81557 76.859308 
Q 327.804829 76.859308 331.175104 80.837917 
Q 334.545378 84.805412 335.507311 91.817987 
L 329.061661 93.729498 
Q 328.380584 89.984271 326.498848 87.817152 
Q 324.624133 85.638919 321.81557 85.638919 
Q 317.560599 85.638919 315.046935 89.917591 
Q 312.533272 94.185148 312.533272 102.586902 
Q 312.533272 111.655463 315.075021 116.189743 
Q 317.623791 120.712909 321.752378 120.712909 
Q 323.795607 120.712909 325.845857 119.445978 
Q 327.896107 118.179047 329.363581 116.378671 
L 329.363581 109.921767 
L 321.927913 109.921767 
z
" clip-path="url(#pdc58050929)" style="fill: #ff69b4"/>
   </g>
   <g id="patch_57">
    <path d="M 305.841873 76.859308 
L 305.841873 24.214983 
L 315.258847 24.214983 
L 320.909032 60.127124 
L 326.498023 24.214983 
L 335.928595 24.214983 
L 335.928595 76.859308 
L 330.088032 76.859308 
L 330.088032 35.419571 
L 323.900706 76.859308 
L 317.849365 76.859308 
L 311.689236 35.419571 
L 311.689236 76.859308 
L 305.841873 76.859308 
z
" clip-path="url(#pdc58050929)" style="fill: #ff8c00"/>
   </g>
   <g id="patch_58">
    <path d="M 357.25328 199.696067 
L 365.215381 199.696067 
L 365.215381 221.541748 
Q 365.215381 225.820488 364.351812 228.133117 
Q 363.185995 231.146315 360.137599 232.969299 
Q 357.089202 234.792283 352.097777 234.792283 
Q 346.242783 234.792283 343.082123 231.937279 
Q 339.930098 229.074741 339.895556 223.537991 
L 347.425872 222.784692 
Q 347.564043 225.752691 348.427611 226.980569 
Q 349.722964 228.833686 352.365483 228.833686 
Q 355.042545 228.833686 356.147913 227.507879 
Q 357.25328 226.174539 357.25328 221.986195 
L 357.25328 199.696067 
z
" clip-path="url(#pdc58050929)" style="fill: #7b68ee"/>
   </g>
   <g id="patch_59">
    <path d="M 362.76905 192.564362 
Q 364.991661 194.230712 367.598829 195.218179 
L 365.376218 199.696067 
Q 364.013973 199.270908 362.710389 198.52345 
Q 362.4236 198.372587 358.69535 195.732485 
Q 355.762285 197.083394 352.196983 197.083394 
Q 345.314058 197.083394 341.409824 192.818086 
Q 337.512107 188.552778 337.512107 180.838193 
Q 337.512107 173.144181 341.42286 168.872016 
Q 345.333612 164.59985 352.034035 164.59985 
Q 358.675796 164.59985 362.566995 168.872016 
Q 366.458193 173.144181 366.458193 180.838193 
Q 366.458193 184.911494 365.376218 187.997328 
Q 364.561478 190.356276 362.76905 192.564362 
z
M 357.919717 188.984795 
Q 359.086425 187.544739 359.66652 185.514946 
Q 360.246615 183.478296 360.246615 180.838193 
Q 360.246615 175.400269 357.965342 172.712164 
Q 355.68407 170.017203 351.994927 170.017203 
Q 348.305784 170.017203 346.011476 172.719022 
Q 343.723686 175.420841 343.723686 180.838193 
Q 343.723686 186.344692 346.011476 189.080798 
Q 348.305784 191.810047 351.812425 191.810047 
Q 353.116009 191.810047 354.276199 191.364316 
Q 352.444664 190.095695 350.547949 189.389382 
L 352.242608 185.76867 
Q 355.21478 186.838426 357.919717 188.984795 
z
" clip-path="url(#pdc58050929)" style="fill: #0000ff"/>
   </g>
   <g id="patch_60">
    <path d="M 337.512107 152.960345 
L 344.781382 152.316174 
Q 345.443694 155.670306 347.446783 157.247415 
Q 349.449872 158.817119 352.858355 158.817119 
Q 356.468761 158.817119 358.294157 157.417713 
Q 360.12763 156.018307 360.12763 154.145028 
Q 360.12763 152.938133 359.360318 152.094046 
Q 358.593005 151.24996 356.670686 150.628002 
Q 355.362216 150.205959 350.693726 149.147149 
Q 344.684459 147.77736 342.261367 145.793017 
Q 338.852884 142.9868 338.852884 138.966284 
Q 338.852884 136.374792 340.452125 134.116491 
Q 342.059443 131.85819 345.072153 130.680912 
Q 348.092941 129.503633 352.357582 129.503633 
Q 359.319933 129.503633 362.841493 132.302446 
Q 366.363053 135.101258 366.540746 139.773349 
L 359.069547 140.076924 
Q 358.593005 137.463219 357.009919 136.315557 
Q 355.434909 135.167896 352.276813 135.167896 
Q 349.021793 135.167896 347.180243 136.397004 
Q 345.992928 137.181856 345.992928 138.499816 
Q 345.992928 139.706711 347.10755 140.558201 
Q 348.52102 141.646628 353.972977 142.831311 
Q 359.424933 144.008589 362.033795 145.274718 
Q 364.650734 146.533443 366.120743 148.717701 
Q 367.598829 150.90196 367.598829 154.122815 
Q 367.598829 157.032691 365.829972 159.579758 
Q 364.069192 162.126826 360.838403 163.363338 
Q 357.607615 164.59985 352.785662 164.59985 
Q 345.766773 164.59985 342.002904 161.63074 
Q 338.247112 158.654225 337.512107 152.960345 
z
" clip-path="url(#pdc58050929)" style="fill: #ffff00"/>
   </g>
   <g id="patch_61">
    <path d="M 348.745034 129.503633 
L 348.745034 100.344891 
L 337.512107 100.344891 
L 337.512107 94.407417 
L 367.598829 94.407417 
L 367.598829 100.344891 
L 356.390699 100.344891 
L 356.390699 129.503633 
L 348.745034 129.503633 
z
" clip-path="url(#pdc58050929)" style="fill: #a0522d"/>
   </g>
   <g id="patch_62">
    <path d="M 337.512107 94.407417 
L 337.512107 24.214983 
L 346.929081 24.214983 
L 352.579266 72.097837 
L 358.168257 24.214983 
L 367.598829 24.214983 
L 367.598829 94.407417 
L 361.758266 94.407417 
L 361.758266 39.154434 
L 355.57094 94.407417 
L 349.519599 94.407417 
L 343.35947 39.154434 
L 343.35947 94.407417 
L 337.512107 94.407417 
z
" clip-path="url(#pdc58050929)" style="fill: #ff8c00"/>
   </g>
   <g id="patch_63">
    <path d="M 388.923514 182.147958 
L 396.885615 182.147958 
L 396.885615 214.91648 
Q 396.885615 221.334591 396.022046 224.803534 
Q 394.856229 229.32333 391.807833 232.057807 
Q 388.759436 234.792283 383.768011 234.792283 
Q 377.913017 234.792283 374.752357 230.509777 
Q 371.600333 226.21597 371.56579 217.910845 
L 379.096106 216.780896 
Q 379.234277 221.232895 380.097845 223.074712 
Q 381.393198 225.854387 384.035717 225.854387 
Q 386.712779 225.854387 387.818147 223.865676 
Q 388.923514 221.865667 388.923514 215.58315 
L 388.923514 182.147958 
z
" clip-path="url(#pdc58050929)" style="fill: #7b68ee"/>
   </g>
   <g id="patch_64">
    <path d="M 369.182341 182.147958 
L 369.182341 129.503633 
L 376.782073 129.503633 
L 376.782073 150.223502 
L 391.669332 150.223502 
L 391.669332 129.503633 
L 399.269064 129.503633 
L 399.269064 182.147958 
L 391.669332 182.147958 
L 391.669332 159.129713 
L 376.782073 159.129713 
L 376.782073 182.147958 
L 369.182341 182.147958 
z
" clip-path="url(#pdc58050929)" style="fill: #00ffff"/>
   </g>
   <g id="patch_65">
    <path d="M 394.439284 108.108519 
Q 396.661895 113.10757 399.269064 116.06997 
L 397.046453 129.503633 
Q 395.684207 128.228156 394.380623 125.985783 
Q 394.093834 125.533194 390.365584 117.612887 
Q 387.432519 121.665616 383.867217 121.665616 
Q 376.984292 121.665616 373.080058 108.869691 
Q 369.182341 96.073767 369.182341 72.930013 
Q 369.182341 49.847976 373.093094 37.03148 
Q 377.003846 24.214983 383.704269 24.214983 
Q 390.34603 24.214983 394.237229 37.03148 
Q 398.128427 49.847976 398.128427 72.930013 
Q 398.128427 85.149915 397.046453 94.407417 
Q 396.231712 101.484262 394.439284 108.108519 
z
M 389.589951 97.369817 
Q 390.756659 93.04965 391.336754 86.960271 
Q 391.916849 80.85032 391.916849 72.930013 
Q 391.916849 56.616239 389.635577 48.551926 
Q 387.354304 40.467042 383.665161 40.467042 
Q 379.976018 40.467042 377.68171 48.572498 
Q 375.39392 56.677955 375.39392 72.930013 
Q 375.39392 89.44951 377.68171 97.657828 
Q 379.976018 105.845574 383.482659 105.845574 
Q 384.786244 105.845574 385.946433 104.50838 
Q 384.114898 100.702518 382.218183 98.583579 
L 383.912842 87.721444 
Q 386.885014 90.930711 389.589951 97.369817 
z
" clip-path="url(#pdc58050929)" style="fill: #0000ff"/>
   </g>
   <g id="patch_66">
    <path d="M 420.593748 24.214983 
L 428.555849 24.214983 
L 428.555849 155.28907 
Q 428.555849 180.961512 427.692281 194.837286 
Q 426.526463 212.91647 423.478067 223.854377 
Q 420.42967 234.792283 415.438245 234.792283 
Q 409.583252 234.792283 406.422591 217.662256 
Q 403.270567 200.487031 403.236024 167.26653 
L 410.76634 162.746734 
Q 410.904511 180.55473 411.76808 187.921998 
Q 413.063432 199.040696 415.705951 199.040696 
Q 418.383013 199.040696 419.488381 191.085855 
Q 420.593748 183.085816 420.593748 157.95575 
L 420.593748 24.214983 
z
" clip-path="url(#pdc58050929)" style="fill: #7b68ee"/>
   </g>
   <g id="patch_67">
    <path d="M 462.609532 234.792283 
L 456.025402 234.792283 
L 453.407458 210.866179 
L 441.417274 210.866179 
L 438.943317 234.792283 
L 432.522809 234.792283 
L 444.19884 129.503633 
L 450.606258 129.503633 
L 462.609532 234.792283 
z
M 451.463635 193.122709 
L 447.333828 154.0503 
L 443.28256 193.122709 
L 451.463635 193.122709 
z
" clip-path="url(#pdc58050929)" style="fill: #40e0d0"/>
   </g>
   <g id="patch_68">
    <path d="M 432.522809 129.503633 
L 432.522809 24.214983 
L 441.939783 24.214983 
L 447.589968 96.039264 
L 453.178959 24.214983 
L 462.609532 24.214983 
L 462.609532 129.503633 
L 456.768968 129.503633 
L 456.768968 46.624159 
L 450.581642 129.503633 
L 444.530301 129.503633 
L 438.370172 46.624159 
L 438.370172 129.503633 
L 432.522809 129.503633 
z
" clip-path="url(#pdc58050929)" style="fill: #ff8c00"/>
   </g>
   <g id="patch_69">
    <path d="M 489.449987 192.002055 
Q 491.672598 202.000156 494.279766 207.924957 
L 492.057155 234.792283 
Q 490.694909 232.241328 489.391325 227.756582 
Q 489.104537 226.851404 485.376286 211.010791 
Q 482.443222 219.116248 478.877919 219.116248 
Q 471.994995 219.116248 468.09076 193.524399 
Q 464.193043 167.932551 464.193043 121.645043 
Q 464.193043 75.480969 468.103796 49.847976 
Q 472.014548 24.214983 478.714971 24.214983 
Q 485.356732 24.214983 489.247931 49.847976 
Q 493.13913 75.480969 493.13913 121.645043 
Q 493.13913 146.084847 492.057155 164.59985 
Q 491.242415 178.753541 489.449987 192.002055 
z
M 484.600653 170.524651 
Q 485.767361 161.884316 486.347456 149.705559 
Q 486.927551 137.485657 486.927551 121.645043 
Q 486.927551 89.017494 484.646279 72.888869 
Q 482.365007 56.7191 478.675863 56.7191 
Q 474.98672 56.7191 472.692412 72.930013 
Q 470.404622 89.140927 470.404622 121.645043 
Q 470.404622 154.684037 472.692412 171.100673 
Q 474.98672 187.476165 478.493362 187.476165 
Q 479.796946 187.476165 480.957136 184.801776 
Q 479.1256 177.190052 477.228885 172.952174 
L 478.923544 151.227904 
Q 481.895716 157.646438 484.600653 170.524651 
z
" clip-path="url(#pdc58050929)" style="fill: #0000ff"/>
   </g>
   <g id="patch_70">
    <path d="M 519.187838 156.464818 
L 525.95 169.089676 
Q 524.39704 202.429971 520.778491 218.611127 
Q 517.159943 234.792283 511.603963 234.792283 
Q 504.721183 234.792283 500.288461 207.097612 
Q 495.863278 179.358487 495.863278 131.304009 
Q 495.863278 80.448947 500.311077 52.354192 
Q 504.766414 24.214983 512.026127 24.214983 
Q 518.366126 24.214983 522.323913 46.264032 
Q 524.675969 59.333427 525.851998 83.782976 
L 518.95414 93.518342 
Q 518.335971 77.692816 516.391001 68.535348 
Q 514.45357 59.333427 511.671811 59.333427 
Q 507.834642 59.333427 505.437354 75.603491 
Q 503.047604 91.829101 503.047604 128.236702 
Q 503.047604 166.86699 505.39966 183.270415 
Q 507.759256 199.629386 511.528577 199.629386 
Q 514.310336 199.629386 516.308076 189.227214 
Q 518.313355 178.825042 519.187838 156.464818 
z
" clip-path="url(#pdc58050929)" style="fill: #00ff7f"/>
   </g>
   <g id="matplotlib.axis_1">
    <g id="xtick_1">
     <g id="line2d_2">
      <path d="M 67.523361 234.792283 
L 67.523361 24.214983 
" clip-path="url(#pdc58050929)" style="fill: none; stroke: #cccccc; stroke-width: 0.8; stroke-linecap: round"/>
     </g>
     <g id="text_1">
      <!-- 0 -->
      <g style="fill: #262626" transform="translate(63.630705 251.813221) scale(0.14 -0.14)">
       <defs>
        <path id="ArialMT-30" d="M 266 2259 
Q 266 3072 433 3567 
Q 600 4063 929 4331 
Q 1259 4600 1759 4600 
Q 2128 4600 2406 4451 
Q 2684 4303 2865 4023 
Q 3047 3744 3150 3342 
Q 3253 2941 3253 2259 
Q 3253 1453 3087 958 
Q 2922 463 2592 192 
Q 2263 -78 1759 -78 
Q 1097 -78 719 397 
Q 266 969 266 2259 
z
M 844 2259 
Q 844 1131 1108 757 
Q 1372 384 1759 384 
Q 2147 384 2411 759 
Q 2675 1134 2675 2259 
Q 2675 3391 2411 3762 
Q 2147 4134 1753 4134 
Q 1366 4134 1134 3806 
Q 844 3388 844 2259 
z
" transform="scale(0.015625)"/>
       </defs>
       <use xlink:href="#ArialMT-30"/>
      </g>
     </g>
    </g>
    <g id="xtick_2">
     <g id="line2d_3">
      <path d="M 99.193595 234.792283 
L 99.193595 24.214983 
" clip-path="url(#pdc58050929)" style="fill: none; stroke: #cccccc; stroke-width: 0.8; stroke-linecap: round"/>
     </g>
     <g id="text_2">
      <!-- 1 -->
      <g style="fill: #262626" transform="translate(95.300939 251.813221) scale(0.14 -0.14)">
       <defs>
        <path id="ArialMT-31" d="M 2384 0 
L 1822 0 
L 1822 3584 
Q 1619 3391 1289 3197 
Q 959 3003 697 2906 
L 697 3450 
Q 1169 3672 1522 3987 
Q 1875 4303 2022 4600 
L 2384 4600 
L 2384 0 
z
" transform="scale(0.015625)"/>
       </defs>
       <use xlink:href="#ArialMT-31"/>
      </g>
     </g>
    </g>
    <g id="xtick_3">
     <g id="line2d_4">
      <path d="M 130.863829 234.792283 
L 130.863829 24.214983 
" clip-path="url(#pdc58050929)" style="fill: none; stroke: #cccccc; stroke-width: 0.8; stroke-linecap: round"/>
     </g>
     <g id="text_3">
      <!-- 2 -->
      <g style="fill: #262626" transform="translate(126.971173 251.813221) scale(0.14 -0.14)">
       <defs>
        <path id="ArialMT-32" d="M 3222 541 
L 3222 0 
L 194 0 
Q 188 203 259 391 
Q 375 700 629 1000 
Q 884 1300 1366 1694 
Q 2113 2306 2375 2664 
Q 2638 3022 2638 3341 
Q 2638 3675 2398 3904 
Q 2159 4134 1775 4134 
Q 1369 4134 1125 3890 
Q 881 3647 878 3216 
L 300 3275 
Q 359 3922 746 4261 
Q 1134 4600 1788 4600 
Q 2447 4600 2831 4234 
Q 3216 3869 3216 3328 
Q 3216 3053 3103 2787 
Q 2991 2522 2730 2228 
Q 2469 1934 1863 1422 
Q 1356 997 1212 845 
Q 1069 694 975 541 
L 3222 541 
z
" transform="scale(0.015625)"/>
       </defs>
       <use xlink:href="#ArialMT-32"/>
      </g>
     </g>
    </g>
    <g id="xtick_4">
     <g id="line2d_5">
      <path d="M 162.534064 234.792283 
L 162.534064 24.214983 
" clip-path="url(#pdc58050929)" style="fill: none; stroke: #cccccc; stroke-width: 0.8; stroke-linecap: round"/>
     </g>
     <g id="text_4">
      <!-- 3 -->
      <g style="fill: #262626" transform="translate(158.641407 251.813221) scale(0.14 -0.14)">
       <defs>
        <path id="ArialMT-33" d="M 269 1209 
L 831 1284 
Q 928 806 1161 595 
Q 1394 384 1728 384 
Q 2125 384 2398 659 
Q 2672 934 2672 1341 
Q 2672 1728 2419 1979 
Q 2166 2231 1775 2231 
Q 1616 2231 1378 2169 
L 1441 2663 
Q 1497 2656 1531 2656 
Q 1891 2656 2178 2843 
Q 2466 3031 2466 3422 
Q 2466 3731 2256 3934 
Q 2047 4138 1716 4138 
Q 1388 4138 1169 3931 
Q 950 3725 888 3313 
L 325 3413 
Q 428 3978 793 4289 
Q 1159 4600 1703 4600 
Q 2078 4600 2393 4439 
Q 2709 4278 2876 4000 
Q 3044 3722 3044 3409 
Q 3044 3113 2884 2869 
Q 2725 2625 2413 2481 
Q 2819 2388 3044 2092 
Q 3269 1797 3269 1353 
Q 3269 753 2831 336 
Q 2394 -81 1725 -81 
Q 1122 -81 723 278 
Q 325 638 269 1209 
z
" transform="scale(0.015625)"/>
       </defs>
       <use xlink:href="#ArialMT-33"/>
      </g>
     </g>
    </g>
    <g id="xtick_5">
     <g id="line2d_6">
      <path d="M 194.204298 234.792283 
L 194.204298 24.214983 
" clip-path="url(#pdc58050929)" style="fill: none; stroke: #cccccc; stroke-width: 0.8; stroke-linecap: round"/>
     </g>
     <g id="text_5">
      <!-- 4 -->
      <g style="fill: #262626" transform="translate(190.311641 251.813221) scale(0.14 -0.14)">
       <defs>
        <path id="ArialMT-34" d="M 2069 0 
L 2069 1097 
L 81 1097 
L 81 1613 
L 2172 4581 
L 2631 4581 
L 2631 1613 
L 3250 1613 
L 3250 1097 
L 2631 1097 
L 2631 0 
L 2069 0 
z
M 2069 1613 
L 2069 3678 
L 634 1613 
L 2069 1613 
z
" transform="scale(0.015625)"/>
       </defs>
       <use xlink:href="#ArialMT-34"/>
      </g>
     </g>
    </g>
    <g id="xtick_6">
     <g id="line2d_7">
      <path d="M 225.874532 234.792283 
L 225.874532 24.214983 
" clip-path="url(#pdc58050929)" style="fill: none; stroke: #cccccc; stroke-width: 0.8; stroke-linecap: round"/>
     </g>
     <g id="text_6">
      <!-- 5 -->
      <g style="fill: #262626" transform="translate(221.981876 251.813221) scale(0.14 -0.14)">
       <defs>
        <path id="ArialMT-35" d="M 266 1200 
L 856 1250 
Q 922 819 1161 601 
Q 1400 384 1738 384 
Q 2144 384 2425 690 
Q 2706 997 2706 1503 
Q 2706 1984 2436 2262 
Q 2166 2541 1728 2541 
Q 1456 2541 1237 2417 
Q 1019 2294 894 2097 
L 366 2166 
L 809 4519 
L 3088 4519 
L 3088 3981 
L 1259 3981 
L 1013 2750 
Q 1425 3038 1878 3038 
Q 2478 3038 2890 2622 
Q 3303 2206 3303 1553 
Q 3303 931 2941 478 
Q 2500 -78 1738 -78 
Q 1113 -78 717 272 
Q 322 622 266 1200 
z
" transform="scale(0.015625)"/>
       </defs>
       <use xlink:href="#ArialMT-35"/>
      </g>
     </g>
    </g>
    <g id="xtick_7">
     <g id="line2d_8">
      <path d="M 257.544766 234.792283 
L 257.544766 24.214983 
" clip-path="url(#pdc58050929)" style="fill: none; stroke: #cccccc; stroke-width: 0.8; stroke-linecap: round"/>
     </g>
     <g id="text_7">
      <!-- 6 -->
      <g style="fill: #262626" transform="translate(253.65211 251.813221) scale(0.14 -0.14)">
       <defs>
        <path id="ArialMT-36" d="M 3184 3459 
L 2625 3416 
Q 2550 3747 2413 3897 
Q 2184 4138 1850 4138 
Q 1581 4138 1378 3988 
Q 1113 3794 959 3422 
Q 806 3050 800 2363 
Q 1003 2672 1297 2822 
Q 1591 2972 1913 2972 
Q 2475 2972 2870 2558 
Q 3266 2144 3266 1488 
Q 3266 1056 3080 686 
Q 2894 316 2569 119 
Q 2244 -78 1831 -78 
Q 1128 -78 684 439 
Q 241 956 241 2144 
Q 241 3472 731 4075 
Q 1159 4600 1884 4600 
Q 2425 4600 2770 4297 
Q 3116 3994 3184 3459 
z
M 888 1484 
Q 888 1194 1011 928 
Q 1134 663 1356 523 
Q 1578 384 1822 384 
Q 2178 384 2434 671 
Q 2691 959 2691 1453 
Q 2691 1928 2437 2201 
Q 2184 2475 1800 2475 
Q 1419 2475 1153 2201 
Q 888 1928 888 1484 
z
" transform="scale(0.015625)"/>
       </defs>
       <use xlink:href="#ArialMT-36"/>
      </g>
     </g>
    </g>
    <g id="xtick_8">
     <g id="line2d_9">
      <path d="M 289.215 234.792283 
L 289.215 24.214983 
" clip-path="url(#pdc58050929)" style="fill: none; stroke: #cccccc; stroke-width: 0.8; stroke-linecap: round"/>
     </g>
     <g id="text_8">
      <!-- 7 -->
      <g style="fill: #262626" transform="translate(285.322344 251.813221) scale(0.14 -0.14)">
       <defs>
        <path id="ArialMT-37" d="M 303 3981 
L 303 4522 
L 3269 4522 
L 3269 4084 
Q 2831 3619 2401 2847 
Q 1972 2075 1738 1259 
Q 1569 684 1522 0 
L 944 0 
Q 953 541 1156 1306 
Q 1359 2072 1739 2783 
Q 2119 3494 2547 3981 
L 303 3981 
z
" transform="scale(0.015625)"/>
       </defs>
       <use xlink:href="#ArialMT-37"/>
      </g>
     </g>
    </g>
    <g id="xtick_9">
     <g id="line2d_10">
      <path d="M 320.885234 234.792283 
L 320.885234 24.214983 
" clip-path="url(#pdc58050929)" style="fill: none; stroke: #cccccc; stroke-width: 0.8; stroke-linecap: round"/>
     </g>
     <g id="text_9">
      <!-- 8 -->
      <g style="fill: #262626" transform="translate(316.992578 251.813221) scale(0.14 -0.14)">
       <defs>
        <path id="ArialMT-38" d="M 1131 2484 
Q 781 2613 612 2850 
Q 444 3088 444 3419 
Q 444 3919 803 4259 
Q 1163 4600 1759 4600 
Q 2359 4600 2725 4251 
Q 3091 3903 3091 3403 
Q 3091 3084 2923 2848 
Q 2756 2613 2416 2484 
Q 2838 2347 3058 2040 
Q 3278 1734 3278 1309 
Q 3278 722 2862 322 
Q 2447 -78 1769 -78 
Q 1091 -78 675 323 
Q 259 725 259 1325 
Q 259 1772 486 2073 
Q 713 2375 1131 2484 
z
M 1019 3438 
Q 1019 3113 1228 2906 
Q 1438 2700 1772 2700 
Q 2097 2700 2305 2904 
Q 2513 3109 2513 3406 
Q 2513 3716 2298 3927 
Q 2084 4138 1766 4138 
Q 1444 4138 1231 3931 
Q 1019 3725 1019 3438 
z
M 838 1322 
Q 838 1081 952 856 
Q 1066 631 1291 507 
Q 1516 384 1775 384 
Q 2178 384 2440 643 
Q 2703 903 2703 1303 
Q 2703 1709 2433 1975 
Q 2163 2241 1756 2241 
Q 1359 2241 1098 1978 
Q 838 1716 838 1322 
z
" transform="scale(0.015625)"/>
       </defs>
       <use xlink:href="#ArialMT-38"/>
      </g>
     </g>
    </g>
    <g id="xtick_10">
     <g id="line2d_11">
      <path d="M 352.555468 234.792283 
L 352.555468 24.214983 
" clip-path="url(#pdc58050929)" style="fill: none; stroke: #cccccc; stroke-width: 0.8; stroke-linecap: round"/>
     </g>
     <g id="text_10">
      <!-- 9 -->
      <g style="fill: #262626" transform="translate(348.662812 251.813221) scale(0.14 -0.14)">
       <defs>
        <path id="ArialMT-39" d="M 350 1059 
L 891 1109 
Q 959 728 1153 556 
Q 1347 384 1650 384 
Q 1909 384 2104 503 
Q 2300 622 2425 820 
Q 2550 1019 2634 1356 
Q 2719 1694 2719 2044 
Q 2719 2081 2716 2156 
Q 2547 1888 2255 1720 
Q 1963 1553 1622 1553 
Q 1053 1553 659 1965 
Q 266 2378 266 3053 
Q 266 3750 677 4175 
Q 1088 4600 1706 4600 
Q 2153 4600 2523 4359 
Q 2894 4119 3086 3673 
Q 3278 3228 3278 2384 
Q 3278 1506 3087 986 
Q 2897 466 2520 194 
Q 2144 -78 1638 -78 
Q 1100 -78 759 220 
Q 419 519 350 1059 
z
M 2653 3081 
Q 2653 3566 2395 3850 
Q 2138 4134 1775 4134 
Q 1400 4134 1122 3828 
Q 844 3522 844 3034 
Q 844 2597 1108 2323 
Q 1372 2050 1759 2050 
Q 2150 2050 2401 2323 
Q 2653 2597 2653 3081 
z
" transform="scale(0.015625)"/>
       </defs>
       <use xlink:href="#ArialMT-39"/>
      </g>
     </g>
    </g>
    <g id="xtick_11">
     <g id="line2d_12">
      <path d="M 384.225702 234.792283 
L 384.225702 24.214983 
" clip-path="url(#pdc58050929)" style="fill: none; stroke: #cccccc; stroke-width: 0.8; stroke-linecap: round"/>
     </g>
     <g id="text_11">
      <!-- 10 -->
      <g style="fill: #262626" transform="translate(376.44039 251.813221) scale(0.14 -0.14)">
       <use xlink:href="#ArialMT-31"/>
       <use xlink:href="#ArialMT-30" transform="translate(55.615234 0)"/>
      </g>
     </g>
    </g>
    <g id="xtick_12">
     <g id="line2d_13">
      <path d="M 415.895936 234.792283 
L 415.895936 24.214983 
" clip-path="url(#pdc58050929)" style="fill: none; stroke: #cccccc; stroke-width: 0.8; stroke-linecap: round"/>
     </g>
     <g id="text_12">
      <!-- 11 -->
      <g style="fill: #262626" transform="translate(408.626874 251.813221) scale(0.14 -0.14)">
       <use xlink:href="#ArialMT-31"/>
       <use xlink:href="#ArialMT-31" transform="translate(48.240234 0)"/>
      </g>
     </g>
    </g>
    <g id="xtick_13">
     <g id="line2d_14">
      <path d="M 447.566171 234.792283 
L 447.566171 24.214983 
" clip-path="url(#pdc58050929)" style="fill: none; stroke: #cccccc; stroke-width: 0.8; stroke-linecap: round"/>
     </g>
     <g id="text_13">
      <!-- 12 -->
      <g style="fill: #262626" transform="translate(439.780858 251.813221) scale(0.14 -0.14)">
       <use xlink:href="#ArialMT-31"/>
       <use xlink:href="#ArialMT-32" transform="translate(55.615234 0)"/>
      </g>
     </g>
    </g>
    <g id="xtick_14">
     <g id="line2d_15">
      <path d="M 479.236405 234.792283 
L 479.236405 24.214983 
" clip-path="url(#pdc58050929)" style="fill: none; stroke: #cccccc; stroke-width: 0.8; stroke-linecap: round"/>
     </g>
     <g id="text_14">
      <!-- 13 -->
      <g style="fill: #262626" transform="translate(471.451092 251.813221) scale(0.14 -0.14)">
       <use xlink:href="#ArialMT-31"/>
       <use xlink:href="#ArialMT-33" transform="translate(55.615234 0)"/>
      </g>
     </g>
    </g>
    <g id="xtick_15">
     <g id="line2d_16">
      <path d="M 510.906639 234.792283 
L 510.906639 24.214983 
" clip-path="url(#pdc58050929)" style="fill: none; stroke: #cccccc; stroke-width: 0.8; stroke-linecap: round"/>
     </g>
     <g id="text_15">
      <!-- 14 -->
      <g style="fill: #262626" transform="translate(503.121326 251.813221) scale(0.14 -0.14)">
       <use xlink:href="#ArialMT-31"/>
       <use xlink:href="#ArialMT-34" transform="translate(55.615234 0)"/>
      </g>
     </g>
    </g>
    <g id="text_16">
     <!-- Original Position -->
     <g style="fill: #262626" transform="translate(230.9675 270.253221) scale(0.16 -0.16)">
      <defs>
       <path id="ArialMT-4f" d="M 309 2231 
Q 309 3372 921 4017 
Q 1534 4663 2503 4663 
Q 3138 4663 3647 4359 
Q 4156 4056 4423 3514 
Q 4691 2972 4691 2284 
Q 4691 1588 4409 1038 
Q 4128 488 3612 205 
Q 3097 -78 2500 -78 
Q 1853 -78 1343 234 
Q 834 547 571 1087 
Q 309 1628 309 2231 
z
M 934 2222 
Q 934 1394 1379 917 
Q 1825 441 2497 441 
Q 3181 441 3623 922 
Q 4066 1403 4066 2288 
Q 4066 2847 3877 3264 
Q 3688 3681 3323 3911 
Q 2959 4141 2506 4141 
Q 1863 4141 1398 3698 
Q 934 3256 934 2222 
z
" transform="scale(0.015625)"/>
       <path id="ArialMT-72" d="M 416 0 
L 416 3319 
L 922 3319 
L 922 2816 
Q 1116 3169 1280 3281 
Q 1444 3394 1641 3394 
Q 1925 3394 2219 3213 
L 2025 2691 
Q 1819 2813 1613 2813 
Q 1428 2813 1281 2702 
Q 1134 2591 1072 2394 
Q 978 2094 978 1738 
L 978 0 
L 416 0 
z
" transform="scale(0.015625)"/>
       <path id="ArialMT-69" d="M 425 3934 
L 425 4581 
L 988 4581 
L 988 3934 
L 425 3934 
z
M 425 0 
L 425 3319 
L 988 3319 
L 988 0 
L 425 0 
z
" transform="scale(0.015625)"/>
       <path id="ArialMT-67" d="M 319 -275 
L 866 -356 
Q 900 -609 1056 -725 
Q 1266 -881 1628 -881 
Q 2019 -881 2231 -725 
Q 2444 -569 2519 -288 
Q 2563 -116 2559 434 
Q 2191 0 1641 0 
Q 956 0 581 494 
Q 206 988 206 1678 
Q 206 2153 378 2554 
Q 550 2956 876 3175 
Q 1203 3394 1644 3394 
Q 2231 3394 2613 2919 
L 2613 3319 
L 3131 3319 
L 3131 450 
Q 3131 -325 2973 -648 
Q 2816 -972 2473 -1159 
Q 2131 -1347 1631 -1347 
Q 1038 -1347 672 -1080 
Q 306 -813 319 -275 
z
M 784 1719 
Q 784 1066 1043 766 
Q 1303 466 1694 466 
Q 2081 466 2343 764 
Q 2606 1063 2606 1700 
Q 2606 2309 2336 2618 
Q 2066 2928 1684 2928 
Q 1309 2928 1046 2623 
Q 784 2319 784 1719 
z
" transform="scale(0.015625)"/>
       <path id="ArialMT-6e" d="M 422 0 
L 422 3319 
L 928 3319 
L 928 2847 
Q 1294 3394 1984 3394 
Q 2284 3394 2536 3286 
Q 2788 3178 2913 3003 
Q 3038 2828 3088 2588 
Q 3119 2431 3119 2041 
L 3119 0 
L 2556 0 
L 2556 2019 
Q 2556 2363 2490 2533 
Q 2425 2703 2258 2804 
Q 2091 2906 1866 2906 
Q 1506 2906 1245 2678 
Q 984 2450 984 1813 
L 984 0 
L 422 0 
z
" transform="scale(0.015625)"/>
       <path id="ArialMT-61" d="M 2588 409 
Q 2275 144 1986 34 
Q 1697 -75 1366 -75 
Q 819 -75 525 192 
Q 231 459 231 875 
Q 231 1119 342 1320 
Q 453 1522 633 1644 
Q 813 1766 1038 1828 
Q 1203 1872 1538 1913 
Q 2219 1994 2541 2106 
Q 2544 2222 2544 2253 
Q 2544 2597 2384 2738 
Q 2169 2928 1744 2928 
Q 1347 2928 1158 2789 
Q 969 2650 878 2297 
L 328 2372 
Q 403 2725 575 2942 
Q 747 3159 1072 3276 
Q 1397 3394 1825 3394 
Q 2250 3394 2515 3294 
Q 2781 3194 2906 3042 
Q 3031 2891 3081 2659 
Q 3109 2516 3109 2141 
L 3109 1391 
Q 3109 606 3145 398 
Q 3181 191 3288 0 
L 2700 0 
Q 2613 175 2588 409 
z
M 2541 1666 
Q 2234 1541 1622 1453 
Q 1275 1403 1131 1340 
Q 988 1278 909 1158 
Q 831 1038 831 891 
Q 831 666 1001 516 
Q 1172 366 1500 366 
Q 1825 366 2078 508 
Q 2331 650 2450 897 
Q 2541 1088 2541 1459 
L 2541 1666 
z
" transform="scale(0.015625)"/>
       <path id="ArialMT-6c" d="M 409 0 
L 409 4581 
L 972 4581 
L 972 0 
L 409 0 
z
" transform="scale(0.015625)"/>
       <path id="ArialMT-20" transform="scale(0.015625)"/>
       <path id="ArialMT-50" d="M 494 0 
L 494 4581 
L 2222 4581 
Q 2678 4581 2919 4538 
Q 3256 4481 3484 4323 
Q 3713 4166 3852 3881 
Q 3991 3597 3991 3256 
Q 3991 2672 3619 2267 
Q 3247 1863 2275 1863 
L 1100 1863 
L 1100 0 
L 494 0 
z
M 1100 2403 
L 2284 2403 
Q 2872 2403 3119 2622 
Q 3366 2841 3366 3238 
Q 3366 3525 3220 3729 
Q 3075 3934 2838 4000 
Q 2684 4041 2272 4041 
L 1100 4041 
L 1100 2403 
z
" transform="scale(0.015625)"/>
       <path id="ArialMT-6f" d="M 213 1659 
Q 213 2581 725 3025 
Q 1153 3394 1769 3394 
Q 2453 3394 2887 2945 
Q 3322 2497 3322 1706 
Q 3322 1066 3130 698 
Q 2938 331 2570 128 
Q 2203 -75 1769 -75 
Q 1072 -75 642 372 
Q 213 819 213 1659 
z
M 791 1659 
Q 791 1022 1069 705 
Q 1347 388 1769 388 
Q 2188 388 2466 706 
Q 2744 1025 2744 1678 
Q 2744 2294 2464 2611 
Q 2184 2928 1769 2928 
Q 1347 2928 1069 2612 
Q 791 2297 791 1659 
z
" transform="scale(0.015625)"/>
       <path id="ArialMT-73" d="M 197 991 
L 753 1078 
Q 800 744 1014 566 
Q 1228 388 1613 388 
Q 2000 388 2187 545 
Q 2375 703 2375 916 
Q 2375 1106 2209 1216 
Q 2094 1291 1634 1406 
Q 1016 1563 777 1677 
Q 538 1791 414 1992 
Q 291 2194 291 2438 
Q 291 2659 392 2848 
Q 494 3038 669 3163 
Q 800 3259 1026 3326 
Q 1253 3394 1513 3394 
Q 1903 3394 2198 3281 
Q 2494 3169 2634 2976 
Q 2775 2784 2828 2463 
L 2278 2388 
Q 2241 2644 2061 2787 
Q 1881 2931 1553 2931 
Q 1166 2931 1000 2803 
Q 834 2675 834 2503 
Q 834 2394 903 2306 
Q 972 2216 1119 2156 
Q 1203 2125 1616 2013 
Q 2213 1853 2448 1751 
Q 2684 1650 2818 1456 
Q 2953 1263 2953 975 
Q 2953 694 2789 445 
Q 2625 197 2315 61 
Q 2006 -75 1616 -75 
Q 969 -75 630 194 
Q 291 463 197 991 
z
" transform="scale(0.015625)"/>
       <path id="ArialMT-74" d="M 1650 503 
L 1731 6 
Q 1494 -44 1306 -44 
Q 1000 -44 831 53 
Q 663 150 594 308 
Q 525 466 525 972 
L 525 2881 
L 113 2881 
L 113 3319 
L 525 3319 
L 525 4141 
L 1084 4478 
L 1084 3319 
L 1650 3319 
L 1650 2881 
L 1084 2881 
L 1084 941 
Q 1084 700 1114 631 
Q 1144 563 1211 522 
Q 1278 481 1403 481 
Q 1497 481 1650 503 
z
" transform="scale(0.015625)"/>
      </defs>
      <use xlink:href="#ArialMT-4f"/>
      <use xlink:href="#ArialMT-72" transform="translate(77.783203 0)"/>
      <use xlink:href="#ArialMT-69" transform="translate(111.083984 0)"/>
      <use xlink:href="#ArialMT-67" transform="translate(133.300781 0)"/>
      <use xlink:href="#ArialMT-69" transform="translate(188.916016 0)"/>
      <use xlink:href="#ArialMT-6e" transform="translate(211.132812 0)"/>
      <use xlink:href="#ArialMT-61" transform="translate(266.748047 0)"/>
      <use xlink:href="#ArialMT-6c" transform="translate(322.363281 0)"/>
      <use xlink:href="#ArialMT-20" transform="translate(344.580078 0)"/>
      <use xlink:href="#ArialMT-50" transform="translate(372.363281 0)"/>
      <use xlink:href="#ArialMT-6f" transform="translate(439.0625 0)"/>
      <use xlink:href="#ArialMT-73" transform="translate(494.677734 0)"/>
      <use xlink:href="#ArialMT-69" transform="translate(544.677734 0)"/>
      <use xlink:href="#ArialMT-74" transform="translate(566.894531 0)"/>
      <use xlink:href="#ArialMT-69" transform="translate(594.677734 0)"/>
      <use xlink:href="#ArialMT-6f" transform="translate(616.894531 0)"/>
      <use xlink:href="#ArialMT-6e" transform="translate(672.509766 0)"/>
     </g>
    </g>
   </g>
   <g id="matplotlib.axis_2">
    <g id="ytick_1">
     <g id="line2d_17">
      <path d="M 52.48 234.792283 
L 525.95 234.792283 
" clip-path="url(#pdc58050929)" style="fill: none; stroke: #cccccc; stroke-width: 0.8; stroke-linecap: round"/>
     </g>
     <g id="text_17">
      <!-- 0.0 -->
      <g style="fill: #262626" transform="translate(26.02 239.802752) scale(0.14 -0.14)">
       <defs>
        <path id="ArialMT-2e" d="M 581 0 
L 581 641 
L 1222 641 
L 1222 0 
L 581 0 
z
" transform="scale(0.015625)"/>
       </defs>
       <use xlink:href="#ArialMT-30"/>
       <use xlink:href="#ArialMT-2e" transform="translate(55.615234 0)"/>
       <use xlink:href="#ArialMT-30" transform="translate(83.398438 0)"/>
      </g>
     </g>
    </g>
    <g id="ytick_2">
     <g id="line2d_18">
      <path d="M 52.48 192.676823 
L 525.95 192.676823 
" clip-path="url(#pdc58050929)" style="fill: none; stroke: #cccccc; stroke-width: 0.8; stroke-linecap: round"/>
     </g>
     <g id="text_18">
      <!-- 0.2 -->
      <g style="fill: #262626" transform="translate(26.02 197.687292) scale(0.14 -0.14)">
       <use xlink:href="#ArialMT-30"/>
       <use xlink:href="#ArialMT-2e" transform="translate(55.615234 0)"/>
       <use xlink:href="#ArialMT-32" transform="translate(83.398438 0)"/>
      </g>
     </g>
    </g>
    <g id="ytick_3">
     <g id="line2d_19">
      <path d="M 52.48 150.561363 
L 525.95 150.561363 
" clip-path="url(#pdc58050929)" style="fill: none; stroke: #cccccc; stroke-width: 0.8; stroke-linecap: round"/>
     </g>
     <g id="text_19">
      <!-- 0.4 -->
      <g style="fill: #262626" transform="translate(26.02 155.571832) scale(0.14 -0.14)">
       <use xlink:href="#ArialMT-30"/>
       <use xlink:href="#ArialMT-2e" transform="translate(55.615234 0)"/>
       <use xlink:href="#ArialMT-34" transform="translate(83.398438 0)"/>
      </g>
     </g>
    </g>
    <g id="ytick_4">
     <g id="line2d_20">
      <path d="M 52.48 108.445903 
L 525.95 108.445903 
" clip-path="url(#pdc58050929)" style="fill: none; stroke: #cccccc; stroke-width: 0.8; stroke-linecap: round"/>
     </g>
     <g id="text_20">
      <!-- 0.6 -->
      <g style="fill: #262626" transform="translate(26.02 113.456372) scale(0.14 -0.14)">
       <use xlink:href="#ArialMT-30"/>
       <use xlink:href="#ArialMT-2e" transform="translate(55.615234 0)"/>
       <use xlink:href="#ArialMT-36" transform="translate(83.398438 0)"/>
      </g>
     </g>
    </g>
    <g id="ytick_5">
     <g id="line2d_21">
      <path d="M 52.48 66.330443 
L 525.95 66.330443 
" clip-path="url(#pdc58050929)" style="fill: none; stroke: #cccccc; stroke-width: 0.8; stroke-linecap: round"/>
     </g>
     <g id="text_21">
      <!-- 0.8 -->
      <g style="fill: #262626" transform="translate(26.02 71.340912) scale(0.14 -0.14)">
       <use xlink:href="#ArialMT-30"/>
       <use xlink:href="#ArialMT-2e" transform="translate(55.615234 0)"/>
       <use xlink:href="#ArialMT-38" transform="translate(83.398438 0)"/>
      </g>
     </g>
    </g>
    <g id="ytick_6">
     <g id="line2d_22">
      <path d="M 52.48 24.214983 
L 525.95 24.214983 
" clip-path="url(#pdc58050929)" style="fill: none; stroke: #cccccc; stroke-width: 0.8; stroke-linecap: round"/>
     </g>
     <g id="text_22">
      <!-- 1.0 -->
      <g style="fill: #262626" transform="translate(26.02 29.225452) scale(0.14 -0.14)">
       <use xlink:href="#ArialMT-31"/>
       <use xlink:href="#ArialMT-2e" transform="translate(55.615234 0)"/>
       <use xlink:href="#ArialMT-30" transform="translate(83.398438 0)"/>
      </g>
     </g>
    </g>
    <g id="text_23">
     <!-- Frequency -->
     <g style="fill: #262626" transform="translate(18.6525 167.297383) rotate(-90) scale(0.16 -0.16)">
      <defs>
       <path id="ArialMT-46" d="M 525 0 
L 525 4581 
L 3616 4581 
L 3616 4041 
L 1131 4041 
L 1131 2622 
L 3281 2622 
L 3281 2081 
L 1131 2081 
L 1131 0 
L 525 0 
z
" transform="scale(0.015625)"/>
       <path id="ArialMT-65" d="M 2694 1069 
L 3275 997 
Q 3138 488 2766 206 
Q 2394 -75 1816 -75 
Q 1088 -75 661 373 
Q 234 822 234 1631 
Q 234 2469 665 2931 
Q 1097 3394 1784 3394 
Q 2450 3394 2872 2941 
Q 3294 2488 3294 1666 
Q 3294 1616 3291 1516 
L 816 1516 
Q 847 969 1125 678 
Q 1403 388 1819 388 
Q 2128 388 2347 550 
Q 2566 713 2694 1069 
z
M 847 1978 
L 2700 1978 
Q 2663 2397 2488 2606 
Q 2219 2931 1791 2931 
Q 1403 2931 1139 2672 
Q 875 2413 847 1978 
z
" transform="scale(0.015625)"/>
       <path id="ArialMT-71" d="M 2538 -1272 
L 2538 353 
Q 2406 169 2170 47 
Q 1934 -75 1669 -75 
Q 1078 -75 651 397 
Q 225 869 225 1691 
Q 225 2191 398 2587 
Q 572 2984 901 3189 
Q 1231 3394 1625 3394 
Q 2241 3394 2594 2875 
L 2594 3319 
L 3100 3319 
L 3100 -1272 
L 2538 -1272 
z
M 803 1669 
Q 803 1028 1072 708 
Q 1341 388 1716 388 
Q 2075 388 2334 692 
Q 2594 997 2594 1619 
Q 2594 2281 2320 2615 
Q 2047 2950 1678 2950 
Q 1313 2950 1058 2639 
Q 803 2328 803 1669 
z
" transform="scale(0.015625)"/>
       <path id="ArialMT-75" d="M 2597 0 
L 2597 488 
Q 2209 -75 1544 -75 
Q 1250 -75 995 37 
Q 741 150 617 320 
Q 494 491 444 738 
Q 409 903 409 1263 
L 409 3319 
L 972 3319 
L 972 1478 
Q 972 1038 1006 884 
Q 1059 663 1231 536 
Q 1403 409 1656 409 
Q 1909 409 2131 539 
Q 2353 669 2445 892 
Q 2538 1116 2538 1541 
L 2538 3319 
L 3100 3319 
L 3100 0 
L 2597 0 
z
" transform="scale(0.015625)"/>
       <path id="ArialMT-63" d="M 2588 1216 
L 3141 1144 
Q 3050 572 2676 248 
Q 2303 -75 1759 -75 
Q 1078 -75 664 370 
Q 250 816 250 1647 
Q 250 2184 428 2587 
Q 606 2991 970 3192 
Q 1334 3394 1763 3394 
Q 2303 3394 2647 3120 
Q 2991 2847 3088 2344 
L 2541 2259 
Q 2463 2594 2264 2762 
Q 2066 2931 1784 2931 
Q 1359 2931 1093 2626 
Q 828 2322 828 1663 
Q 828 994 1084 691 
Q 1341 388 1753 388 
Q 2084 388 2306 591 
Q 2528 794 2588 1216 
z
" transform="scale(0.015625)"/>
       <path id="ArialMT-79" d="M 397 -1278 
L 334 -750 
Q 519 -800 656 -800 
Q 844 -800 956 -737 
Q 1069 -675 1141 -563 
Q 1194 -478 1313 -144 
Q 1328 -97 1363 -6 
L 103 3319 
L 709 3319 
L 1400 1397 
Q 1534 1031 1641 628 
Q 1738 1016 1872 1384 
L 2581 3319 
L 3144 3319 
L 1881 -56 
Q 1678 -603 1566 -809 
Q 1416 -1088 1222 -1217 
Q 1028 -1347 759 -1347 
Q 597 -1347 397 -1278 
z
" transform="scale(0.015625)"/>
      </defs>
      <use xlink:href="#ArialMT-46"/>
      <use xlink:href="#ArialMT-72" transform="translate(61.083984 0)"/>
      <use xlink:href="#ArialMT-65" transform="translate(94.384766 0)"/>
      <use xlink:href="#ArialMT-71" transform="translate(150 0)"/>
      <use xlink:href="#ArialMT-75" transform="translate(205.615234 0)"/>
      <use xlink:href="#ArialMT-65" transform="translate(261.230469 0)"/>
      <use xlink:href="#ArialMT-6e" transform="translate(316.845703 0)"/>
      <use xlink:href="#ArialMT-63" transform="translate(372.460938 0)"/>
      <use xlink:href="#ArialMT-79" transform="translate(422.460938 0)"/>
     </g>
    </g>
   </g>
   <g id="patch_71">
    <path d="M 52.48 234.792283 
L 52.48 24.214983 
" style="fill: none; stroke: #cccccc; stroke-width: 0.8; stroke-linejoin: miter; stroke-linecap: square"/>
   </g>
   <g id="patch_72">
    <path d="M 525.95 234.792283 
L 525.95 24.214983 
" style="fill: none; stroke: #cccccc; stroke-width: 0.8; stroke-linejoin: miter; stroke-linecap: square"/>
   </g>
   <g id="patch_73">
    <path d="M 52.48 234.792283 
L 525.95 234.792283 
" style="fill: none; stroke: #cccccc; stroke-width: 0.8; stroke-linejoin: miter; stroke-linecap: square"/>
   </g>
   <g id="patch_74">
    <path d="M 52.48 24.214983 
L 525.95 24.214983 
" style="fill: none; stroke: #cccccc; stroke-width: 0.8; stroke-linejoin: miter; stroke-linecap: square"/>
   </g>
   <g id="text_24">
    <!-- 19 -->
    <g style="fill: #000080; opacity: 0.6" transform="translate(59.738049 17.220937) scale(0.14 -0.14)">
     <defs>
      <path id="Arial-ItalicMT-31" d="M 1541 0 
L 2266 3459 
Q 1797 3091 947 2869 
L 1053 3381 
Q 1475 3550 1886 3822 
Q 2297 4094 2503 4297 
Q 2628 4422 2741 4600 
L 3069 4600 
L 2109 0 
L 1541 0 
z
" transform="scale(0.015625)"/>
      <path id="Arial-ItalicMT-39" d="M 431 1050 
L 963 1103 
Q 1016 719 1181 556 
Q 1347 394 1575 394 
Q 1900 394 2178 675 
Q 2588 1088 2781 1859 
Q 2497 1647 2276 1556 
Q 2056 1466 1825 1466 
Q 1406 1466 1075 1747 
Q 638 2113 638 2797 
Q 638 3572 1144 4125 
Q 1578 4600 2209 4600 
Q 2778 4600 3153 4179 
Q 3528 3759 3528 2991 
Q 3528 2244 3278 1516 
Q 2981 659 2475 253 
Q 2063 -78 1547 -78 
Q 1072 -78 770 217 
Q 469 513 431 1050 
z
M 1184 2863 
Q 1184 2431 1414 2175 
Q 1644 1919 1959 1919 
Q 2194 1919 2425 2078 
Q 2656 2238 2822 2555 
Q 2988 2872 2988 3206 
Q 2988 3469 2878 3694 
Q 2769 3919 2580 4033 
Q 2391 4147 2197 4147 
Q 2009 4147 1828 4047 
Q 1647 3947 1492 3753 
Q 1338 3559 1261 3307 
Q 1184 3056 1184 2863 
z
" transform="scale(0.015625)"/>
     </defs>
     <use xlink:href="#Arial-ItalicMT-31"/>
     <use xlink:href="#Arial-ItalicMT-39" transform="translate(55.615234 0)"/>
    </g>
   </g>
   <g id="text_25">
    <!-- 19 -->
    <g style="fill: #000080; opacity: 0.6" transform="translate(91.408283 17.220937) scale(0.14 -0.14)">
     <use xlink:href="#Arial-ItalicMT-31"/>
     <use xlink:href="#Arial-ItalicMT-39" transform="translate(55.615234 0)"/>
    </g>
   </g>
   <g id="text_26">
    <!-- 19 -->
    <g style="fill: #000080; opacity: 0.6" transform="translate(123.078517 17.220937) scale(0.14 -0.14)">
     <use xlink:href="#Arial-ItalicMT-31"/>
     <use xlink:href="#Arial-ItalicMT-39" transform="translate(55.615234 0)"/>
    </g>
   </g>
   <g id="text_27">
    <!-- 19 -->
    <g style="fill: #000080; opacity: 0.6" transform="translate(154.748751 17.220937) scale(0.14 -0.14)">
     <use xlink:href="#Arial-ItalicMT-31"/>
     <use xlink:href="#Arial-ItalicMT-39" transform="translate(55.615234 0)"/>
    </g>
   </g>
   <g id="text_28">
    <!-- 19 -->
    <g style="fill: #000080; opacity: 0.6" transform="translate(186.418985 17.220937) scale(0.14 -0.14)">
     <use xlink:href="#Arial-ItalicMT-31"/>
     <use xlink:href="#Arial-ItalicMT-39" transform="translate(55.615234 0)"/>
    </g>
   </g>
   <g id="text_29">
    <!-- 17 -->
    <g style="fill: #000080; opacity: 0.6" transform="translate(218.089219 17.220937) scale(0.14 -0.14)">
     <defs>
      <path id="Arial-ItalicMT-37" d="M 928 0 
Q 1003 463 1247 1113 
Q 1538 1897 2009 2670 
Q 2481 3444 3059 4000 
L 775 4000 
L 884 4519 
L 3809 4519 
L 3703 4000 
Q 2959 3347 2403 2316 
Q 1756 1125 1519 0 
L 928 0 
z
" transform="scale(0.015625)"/>
     </defs>
     <use xlink:href="#Arial-ItalicMT-31"/>
     <use xlink:href="#Arial-ItalicMT-37" transform="translate(55.615234 0)"/>
    </g>
   </g>
   <g id="text_30">
    <!-- 14 -->
    <g style="fill: #000080; opacity: 0.6" transform="translate(249.759453 17.220937) scale(0.14 -0.14)">
     <defs>
      <path id="Arial-ItalicMT-34" d="M 1913 0 
L 2159 1169 
L 291 1169 
L 409 1728 
L 2975 4581 
L 3438 4581 
L 2828 1669 
L 3472 1669 
L 3369 1169 
L 2725 1169 
L 2478 0 
L 1913 0 
z
M 2263 1669 
L 2663 3581 
L 956 1669 
L 2263 1669 
z
" transform="scale(0.015625)"/>
     </defs>
     <use xlink:href="#Arial-ItalicMT-31"/>
     <use xlink:href="#Arial-ItalicMT-34" transform="translate(55.615234 0)"/>
    </g>
   </g>
   <g id="text_31">
    <!-- 12 -->
    <g style="fill: #000080; opacity: 0.6" transform="translate(281.429688 17.220937) scale(0.14 -0.14)">
     <defs>
      <path id="Arial-ItalicMT-32" d="M 375 0 
Q 463 409 617 686 
Q 772 963 1028 1211 
Q 1284 1459 2016 2044 
Q 2459 2397 2622 2566 
Q 2856 2809 2963 3044 
Q 3034 3203 3034 3391 
Q 3034 3706 2811 3926 
Q 2588 4147 2263 4147 
Q 1941 4147 1700 3923 
Q 1459 3700 1356 3206 
L 803 3288 
Q 884 3897 1276 4248 
Q 1669 4600 2253 4600 
Q 2644 4600 2961 4437 
Q 3278 4275 3437 3981 
Q 3597 3688 3597 3375 
Q 3597 2919 3272 2497 
Q 3072 2234 2097 1463 
Q 1678 1131 1473 918 
Q 1269 706 1166 519 
L 3216 519 
L 3106 0 
L 375 0 
z
" transform="scale(0.015625)"/>
     </defs>
     <use xlink:href="#Arial-ItalicMT-31"/>
     <use xlink:href="#Arial-ItalicMT-32" transform="translate(55.615234 0)"/>
    </g>
   </g>
   <g id="text_32">
    <!-- 8 -->
    <g style="fill: #000080; opacity: 0.6" transform="translate(316.992578 17.220937) scale(0.14 -0.14)">
     <defs>
      <path id="Arial-ItalicMT-38" d="M 1444 2519 
Q 1188 2659 1059 2879 
Q 931 3100 931 3353 
Q 931 3769 1231 4122 
Q 1631 4600 2316 4600 
Q 2919 4600 3266 4276 
Q 3613 3953 3613 3484 
Q 3613 3150 3425 2881 
Q 3238 2613 2838 2453 
Q 3113 2281 3231 2088 
Q 3384 1834 3384 1497 
Q 3384 881 2948 400 
Q 2513 -81 1788 -81 
Q 1209 -81 843 275 
Q 478 631 478 1166 
Q 478 1669 737 2030 
Q 997 2391 1444 2519 
z
M 1488 3328 
Q 1488 3034 1677 2854 
Q 1866 2675 2197 2675 
Q 2584 2675 2826 2911 
Q 3069 3147 3069 3491 
Q 3069 3781 2880 3964 
Q 2691 4147 2359 4147 
Q 2109 4147 1900 4031 
Q 1691 3916 1589 3717 
Q 1488 3519 1488 3328 
z
M 1047 1119 
Q 1047 928 1139 753 
Q 1231 578 1418 475 
Q 1606 372 1847 372 
Q 2306 372 2591 803 
Q 2816 1141 2816 1531 
Q 2816 1850 2608 2053 
Q 2400 2256 2063 2256 
Q 1638 2256 1342 1940 
Q 1047 1625 1047 1119 
z
" transform="scale(0.015625)"/>
     </defs>
     <use xlink:href="#Arial-ItalicMT-38"/>
    </g>
   </g>
   <g id="text_33">
    <!-- 6 -->
    <g style="fill: #000080; opacity: 0.6" transform="translate(348.662812 17.220937) scale(0.14 -0.14)">
     <defs>
      <path id="Arial-ItalicMT-36" d="M 1288 2656 
Q 1525 2853 1761 2951 
Q 1997 3050 2228 3050 
Q 2750 3050 3090 2694 
Q 3431 2338 3431 1734 
Q 3431 956 2925 400 
Q 2488 -78 1863 -78 
Q 1294 -78 914 339 
Q 534 756 534 1528 
Q 534 2219 778 2956 
Q 966 3522 1242 3889 
Q 1519 4256 1830 4428 
Q 2141 4600 2531 4600 
Q 3000 4600 3297 4308 
Q 3594 4016 3634 3472 
L 3109 3422 
Q 3066 3794 2898 3959 
Q 2731 4125 2491 4125 
Q 2238 4125 1981 3928 
Q 1725 3731 1540 3345 
Q 1356 2959 1288 2656 
z
M 1091 1288 
Q 1091 900 1331 636 
Q 1572 372 1875 372 
Q 2088 372 2325 533 
Q 2563 694 2728 1022 
Q 2894 1350 2894 1675 
Q 2894 2094 2664 2345 
Q 2434 2597 2109 2597 
Q 1734 2597 1412 2230 
Q 1091 1863 1091 1288 
z
" transform="scale(0.015625)"/>
     </defs>
     <use xlink:href="#Arial-ItalicMT-36"/>
    </g>
   </g>
   <g id="text_34">
    <!-- 4 -->
    <g style="fill: #000080; opacity: 0.6" transform="translate(380.333046 17.220937) scale(0.14 -0.14)">
     <use xlink:href="#Arial-ItalicMT-34"/>
    </g>
   </g>
   <g id="text_35">
    <!-- 3 -->
    <g style="fill: #000080; opacity: 0.6" transform="translate(412.00328 17.220937) scale(0.14 -0.14)">
     <defs>
      <path id="Arial-ItalicMT-33" d="M 350 1200 
L 900 1269 
Q 963 788 1177 580 
Q 1391 372 1738 372 
Q 2156 372 2461 672 
Q 2766 972 2766 1359 
Q 2766 1697 2537 1917 
Q 2309 2138 1925 2138 
Q 1881 2138 1744 2125 
L 1841 2597 
Q 1922 2584 1997 2584 
Q 2481 2584 2742 2820 
Q 3003 3056 3003 3400 
Q 3003 3716 2789 3931 
Q 2575 4147 2266 4147 
Q 1963 4147 1720 3926 
Q 1478 3706 1409 3303 
L 853 3416 
Q 991 3981 1381 4290 
Q 1772 4600 2306 4600 
Q 2869 4600 3217 4259 
Q 3566 3919 3566 3422 
Q 3566 3059 3377 2789 
Q 3188 2519 2809 2341 
Q 3078 2181 3211 1956 
Q 3344 1731 3344 1441 
Q 3344 825 2883 373 
Q 2422 -78 1781 -78 
Q 1159 -78 776 270 
Q 394 619 350 1200 
z
" transform="scale(0.015625)"/>
     </defs>
     <use xlink:href="#Arial-ItalicMT-33"/>
    </g>
   </g>
   <g id="text_36">
    <!-- 2 -->
    <g style="fill: #000080; opacity: 0.6" transform="translate(443.673514 17.220937) scale(0.14 -0.14)">
     <use xlink:href="#Arial-ItalicMT-32"/>
    </g>
   </g>
   <g id="text_37">
    <!-- 1 -->
    <g style="fill: #000080; opacity: 0.6" transform="translate(475.343748 17.220937) scale(0.14 -0.14)">
     <use xlink:href="#Arial-ItalicMT-31"/>
    </g>
   </g>
   <g id="text_38">
    <!-- 1 -->
    <g style="fill: #000080; opacity: 0.6" transform="translate(507.013983 17.220937) scale(0.14 -0.14)">
     <use xlink:href="#Arial-ItalicMT-31"/>
    </g>
   </g>
  </g>
 </g>
 <defs>
  <clipPath id="pdc58050929">
   <rect x="52.48" y="24.214983" width="473.47" height="210.5773"/>
  </clipPath>
 </defs>
</svg>
