<?xml version="1.0" encoding="utf-8" standalone="no"?>
<!DOCTYPE svg PUBLIC "-//W3C//DTD SVG 1.1//EN"
  "http://www.w3.org/Graphics/SVG/1.1/DTD/svg11.dtd">
<svg xmlns:xlink="http://www.w3.org/1999/xlink" width="641.15pt" height="280.820721pt" viewBox="0 0 641.15 280.820721" xmlns="http://www.w3.org/2000/svg" version="1.1">
 <metadata>
  <rdf:RDF xmlns:dc="http://purl.org/dc/elements/1.1/" xmlns:cc="http://creativecommons.org/ns#" xmlns:rdf="http://www.w3.org/1999/02/22-rdf-syntax-ns#">
   <cc:Work>
    <dc:type rdf:resource="http://purl.org/dc/dcmitype/StillImage"/>
    <dc:date>2025-05-09T14:25:52.962781</dc:date>
    <dc:format>image/svg+xml</dc:format>
    <dc:creator>
     <cc:Agent>
      <dc:title>Matplotlib v3.10.1, https://matplotlib.org/</dc:title>
     </cc:Agent>
    </dc:creator>
   </cc:Work>
  </rdf:RDF>
 </metadata>
 <defs>
  <style type="text/css">*{stroke-linejoin: round; stroke-linecap: butt}</style>
 </defs>
 <g id="figure_1">
  <g id="patch_1">
   <path d="M 0 280.820721 
L 641.15 280.820721 
L 641.15 0 
L 0 0 
z
" style="fill: #ffffff"/>
  </g>
  <g id="axes_1">
   <g id="patch_2">
    <path d="M 52.48 234.792283 
L 633.95 234.792283 
L 633.95 24.214983 
L 52.48 24.214983 
z
" style="fill: #ffffff"/>
   </g>
   <g id="line2d_1">
    <path d="M 52.48 234.792283 
L 633.95 234.792283 
" clip-path="url(#p34264f1307)" style="fill: none; stroke: #000000; stroke-width: 0.5; stroke-linecap: round"/>
   </g>
   <g id="patch_3">
    <path d="M 78.314043 229.443505 
Q 80.587438 230.693268 83.254178 231.433868 
L 80.980783 234.792283 
Q 79.587411 234.473414 78.254041 233.912821 
Q 77.9607 233.799674 74.147262 231.819597 
Q 71.147179 232.832779 67.500412 232.832779 
Q 60.460219 232.832779 56.466776 229.633798 
Q 52.48 226.434817 52.48 220.648878 
Q 52.48 214.878369 56.48011 211.674245 
Q 60.48022 208.470121 67.333741 208.470121 
Q 74.127261 208.470121 78.10737 211.674245 
Q 82.08748 214.878369 82.08748 220.648878 
Q 82.08748 223.703854 80.980783 226.018229 
Q 80.147426 227.787441 78.314043 229.443505 
z
M 73.353906 226.758829 
Q 74.547273 225.678788 75.140622 224.156443 
Q 75.733972 222.628955 75.733972 220.648878 
Q 75.733972 216.570435 73.400574 214.554357 
Q 71.067177 212.533136 67.29374 212.533136 
Q 63.520303 212.533136 61.173572 214.5595 
Q 58.833508 216.585864 58.833508 220.648878 
Q 58.833508 224.778753 61.173572 226.830832 
Q 63.520303 228.877769 67.107068 228.877769 
Q 68.440438 228.877769 69.627137 228.54347 
Q 67.753753 227.592005 65.813699 227.06227 
L 67.54708 224.346736 
Q 70.587164 225.149053 73.353906 226.758829 
z
" clip-path="url(#p34264f1307)" style="fill: #0000ff"/>
   </g>
   <g id="patch_4">
    <path d="M 63.781826 208.470121 
L 63.781826 24.214983 
L 71.952352 24.214983 
L 71.952352 208.470121 
L 63.781826 208.470121 
z
" clip-path="url(#p34264f1307)" style="fill: #add8e6"/>
   </g>
   <g id="patch_5">
    <path d="M 84.873872 234.792283 
L 84.873872 221.631202 
L 97.888657 221.631202 
Q 105.290597 221.631202 107.535735 221.826564 
Q 110.991143 222.125353 113.315211 223.116528 
Q 115.64805 224.107703 115.64805 225.679219 
Q 115.64805 226.891613 114.306229 227.719028 
Q 112.964408 228.543571 110.894672 229.014738 
Q 108.824935 229.485906 106.685038 229.638173 
Q 103.782144 229.827789 98.27454 229.827789 
L 92.986187 229.827789 
L 92.986187 234.792283 
L 84.873872 234.792283 
z
M 92.986187 223.857755 
L 92.986187 227.592618 
L 97.423843 227.592618 
Q 102.221072 227.592618 103.834765 227.385764 
Q 105.457228 227.17891 106.369315 226.739345 
Q 107.290173 226.299781 107.290173 225.716567 
Q 107.290173 224.998325 106.000972 224.532903 
Q 104.711772 224.064609 102.738506 223.946817 
Q 101.291444 223.857755 96.906409 223.857755 
L 92.986187 223.857755 
z
" clip-path="url(#p34264f1307)" style="fill: #f0fff0"/>
   </g>
   <g id="patch_6">
    <path d="M 84.873872 221.631202 
L 84.873872 208.470121 
L 114.879579 208.470121 
L 114.879579 210.696674 
L 93.044399 210.696674 
L 93.044399 213.61274 
L 113.360303 213.61274 
L 113.360303 215.830673 
L 93.044399 215.830673 
L 93.044399 219.413268 
L 115.64805 219.413268 
L 115.64805 221.631202 
L 84.873872 221.631202 
z
" clip-path="url(#p34264f1307)" style="fill: #c0c0c0"/>
   </g>
   <g id="patch_7">
    <path d="M 101.327464 139.933589 
L 101.327464 109.905097 
L 115.64805 109.905097 
L 115.64805 180.892141 
Q 113.558135 191.822201 109.59376 200.146161 
Q 105.636567 208.470121 101.571647 208.470121 
Q 96.415086 208.470121 92.572803 196.762121 
Q 88.737701 185.015224 86.805786 163.194001 
Q 84.873872 141.372778 84.873872 115.739649 
Q 84.873872 87.889389 87.028423 66.262652 
Q 89.182975 44.635914 93.334078 33.083502 
Q 96.501269 24.214983 101.212555 24.214983 
Q 107.338663 24.214983 110.785945 38.140113 
Q 114.233228 52.026346 115.21714 76.570359 
L 108.624212 83.260645 
Q 107.927574 70.152353 106.002841 62.567436 
Q 104.08529 54.943622 101.212555 54.943622 
Q 96.86036 54.943622 94.289262 69.918971 
Q 91.718164 84.855422 91.718164 114.261562 
Q 91.718164 146.001523 94.31799 161.871503 
Q 96.924997 177.702586 101.147918 177.702586 
Q 103.237833 177.702586 105.33493 173.268327 
Q 107.432027 168.834068 108.933031 162.532752 
L 108.933031 139.933589 
L 101.327464 139.933589 
z
" clip-path="url(#p34264f1307)" style="fill: #ff69b4"/>
   </g>
   <g id="patch_8">
    <path d="M 117.267744 234.792283 
L 117.267744 221.631202 
L 147.273451 221.631202 
L 147.273451 223.857755 
L 125.43827 223.857755 
L 125.43827 226.773821 
L 145.754175 226.773821 
L 145.754175 228.991755 
L 125.43827 228.991755 
L 125.43827 232.57435 
L 148.041922 232.57435 
L 148.041922 234.792283 
L 117.267744 234.792283 
z
" clip-path="url(#p34264f1307)" style="fill: #c0c0c0"/>
   </g>
   <g id="patch_9">
    <path d="M 141.12525 216.735736 
L 148.041922 217.524789 
Q 146.453478 219.608558 142.752249 220.61988 
Q 139.05102 221.631202 133.368091 221.631202 
Q 126.328044 221.631202 121.794039 219.900285 
Q 117.267744 218.16659 117.267744 215.163185 
Q 117.267744 211.984744 121.817171 210.228822 
Q 126.37431 208.470121 133.799901 208.470121 
Q 140.284763 208.470121 144.332982 209.848187 
Q 146.738781 210.665024 147.94168 212.193121 
L 140.886212 212.801581 
Q 140.253919 211.812486 138.264508 211.240144 
Q 136.282809 210.665024 133.437489 210.665024 
Q 129.512644 210.665024 127.060579 211.681903 
Q 124.616226 212.696003 124.616226 214.971478 
Q 124.616226 217.385871 127.022025 218.411085 
Q 129.435535 219.433521 133.290982 219.433521 
Q 136.136302 219.433521 138.179688 218.783385 
Q 140.230786 218.13325 141.12525 216.735736 
z
" clip-path="url(#p34264f1307)" style="fill: #00ff7f"/>
   </g>
   <g id="patch_10">
    <path d="M 117.267744 208.470121 
L 117.267744 24.214983 
L 126.899888 24.214983 
L 132.679174 149.907475 
L 138.395869 24.214983 
L 148.041922 24.214983 
L 148.041922 208.470121 
L 142.067906 208.470121 
L 142.067906 63.431041 
L 135.739205 208.470121 
L 129.549597 208.470121 
L 123.248714 63.431041 
L 123.248714 208.470121 
L 117.267744 208.470121 
z
" clip-path="url(#p34264f1307)" style="fill: #ff8c00"/>
   </g>
   <g id="patch_11">
    <path d="M 149.661616 234.792283 
L 149.661616 221.631202 
L 157.434995 221.631202 
L 157.434995 226.811169 
L 172.662415 226.811169 
L 172.662415 221.631202 
L 180.435794 221.631202 
L 180.435794 234.792283 
L 172.662415 234.792283 
L 172.662415 229.037722 
L 157.434995 229.037722 
L 157.434995 234.792283 
L 149.661616 234.792283 
z
" clip-path="url(#p34264f1307)" style="fill: #00ffff"/>
   </g>
   <g id="patch_12">
    <path d="M 149.661616 221.631202 
L 149.661616 208.470121 
L 162.676401 208.470121 
Q 170.07834 208.470121 172.323478 208.665483 
Q 175.778886 208.964272 178.102955 209.955447 
Q 180.435794 210.946622 180.435794 212.518137 
Q 180.435794 213.730531 179.093973 214.557947 
Q 177.752152 215.38249 175.682416 215.853657 
Q 173.612679 216.324824 171.472782 216.477092 
Q 168.569888 216.666708 163.062284 216.666708 
L 157.773931 216.666708 
L 157.773931 221.631202 
L 149.661616 221.631202 
z
M 157.773931 210.696674 
L 157.773931 214.431536 
L 162.211587 214.431536 
Q 167.008816 214.431536 168.622509 214.224682 
Q 170.244972 214.017828 171.157059 213.578264 
Q 172.077916 213.138699 172.077916 212.555486 
Q 172.077916 211.837243 170.788716 211.371822 
Q 169.499516 210.903528 167.52625 210.785736 
Q 166.079188 210.696674 161.694153 210.696674 
L 157.773931 210.696674 
z
" clip-path="url(#p34264f1307)" style="fill: #f0fff0"/>
   </g>
   <g id="patch_13">
    <path d="M 166.115208 203.574654 
L 166.115208 201.429762 
L 180.435794 201.429762 
L 180.435794 206.500265 
Q 178.345879 207.280984 174.381504 207.875552 
Q 170.424311 208.470121 166.35939 208.470121 
Q 161.20283 208.470121 157.360547 207.633835 
Q 153.525445 206.794771 151.59353 205.236112 
Q 149.661616 203.677454 149.661616 201.846516 
Q 149.661616 199.857212 151.816167 198.312445 
Q 153.970719 196.767678 158.121821 195.942505 
Q 161.289012 195.30904 166.000298 195.30904 
Q 172.126407 195.30904 175.573689 196.303692 
Q 179.020972 197.295566 180.004884 199.048709 
L 173.411956 199.526587 
Q 172.715317 198.59028 170.790585 198.048501 
Q 168.873034 197.503942 166.000298 197.503942 
Q 161.648104 197.503942 159.077006 198.57361 
Q 156.505908 199.6405 156.505908 201.740938 
Q 156.505908 204.008078 159.105733 205.141648 
Q 161.712741 206.27244 165.935662 206.27244 
Q 168.025577 206.27244 170.122674 205.955707 
Q 172.219771 205.638974 173.720775 205.18888 
L 173.720775 203.574654 
L 166.115208 203.574654 
z
" clip-path="url(#p34264f1307)" style="fill: #ff69b4"/>
   </g>
   <g id="patch_14">
    <path d="M 149.661616 182.147958 
L 157.452014 182.147958 
L 157.452014 189.156467 
Q 157.452014 190.825967 157.746786 191.32032 
Q 158.243687 192.114109 160.121804 192.594337 
Q 162.008344 193.074566 165.2761 193.074566 
Q 168.585967 193.074566 170.270377 192.622586 
Q 171.954787 192.167781 172.300092 191.506761 
Q 172.645396 190.842916 172.645396 189.306186 
L 172.645396 182.147958 
L 180.435794 182.147958 
L 180.435794 188.944602 
Q 180.435794 191.275122 179.80414 192.238403 
Q 179.172486 193.19886 177.471232 193.862705 
Q 175.769977 194.523725 172.923323 194.916382 
Q 170.085092 195.30904 165.511918 195.30904 
Q 159.978629 195.30904 157.123554 194.882484 
Q 154.268478 194.453103 152.609334 193.769484 
Q 150.958612 193.085865 150.428022 192.334449 
Q 149.661616 191.221449 149.661616 189.049122 
L 149.661616 182.147958 
z
" clip-path="url(#p34264f1307)" style="fill: #f08080"/>
   </g>
   <g id="patch_15">
    <path d="M 149.661616 182.147958 
L 149.661616 168.986877 
L 159.29376 168.986877 
L 165.073046 177.964912 
L 170.789741 168.986877 
L 180.435794 168.986877 
L 180.435794 182.147958 
L 174.461778 182.147958 
L 174.461778 171.788024 
L 168.133077 182.147958 
L 161.943468 182.147958 
L 155.642586 171.788024 
L 155.642586 182.147958 
L 149.661616 182.147958 
z
" clip-path="url(#p34264f1307)" style="fill: #ff8c00"/>
   </g>
   <g id="patch_16">
    <path d="M 175.495658 139.568595 
Q 177.769054 146.44229 180.435794 150.51559 
L 178.162398 168.986877 
Q 176.769027 167.233095 175.435657 164.149833 
Q 175.142315 163.527523 171.328877 152.637101 
Q 168.328795 158.209603 164.682028 158.209603 
Q 157.641835 158.209603 153.648392 140.615207 
Q 149.661616 123.020811 149.661616 91.19815 
Q 149.661616 59.460349 153.661725 41.837666 
Q 157.661835 24.214983 164.515357 24.214983 
Q 171.308877 24.214983 175.288986 41.837666 
Q 179.269095 59.460349 179.269095 91.19815 
Q 179.269095 108.000515 178.162398 120.729579 
Q 177.329042 130.460242 175.495658 139.568595 
z
M 170.535522 124.80288 
Q 171.728888 118.86265 172.322238 110.489754 
Q 172.915587 102.088572 172.915587 91.19815 
Q 172.915587 68.766709 170.58219 57.67828 
Q 168.248793 46.561563 164.475356 46.561563 
Q 160.701919 46.561563 158.355188 57.706567 
Q 156.015123 68.85157 156.015123 91.19815 
Q 156.015123 113.912458 158.355188 125.198895 
Q 160.701919 136.457046 164.288684 136.457046 
Q 165.622054 136.457046 166.808753 134.618403 
Q 164.935368 129.385343 162.995315 126.471802 
L 164.728696 111.536366 
Q 167.768779 115.949108 170.535522 124.80288 
z
" clip-path="url(#p34264f1307)" style="fill: #0000ff"/>
   </g>
   <g id="patch_17">
    <path d="M 182.055487 234.792283 
L 182.055487 221.631202 
L 189.828867 221.631202 
L 189.828867 226.811169 
L 205.056286 226.811169 
L 205.056286 221.631202 
L 212.829666 221.631202 
L 212.829666 234.792283 
L 205.056286 234.792283 
L 205.056286 229.037722 
L 189.828867 229.037722 
L 189.828867 234.792283 
L 182.055487 234.792283 
z
" clip-path="url(#p34264f1307)" style="fill: #00ffff"/>
   </g>
   <g id="patch_18">
    <path d="M 198.50908 216.735736 
L 198.50908 214.590843 
L 212.829666 214.590843 
L 212.829666 219.661347 
Q 210.739751 220.442065 206.775376 221.036634 
Q 202.818183 221.631202 198.753262 221.631202 
Q 193.596702 221.631202 189.754418 220.794917 
Q 185.919317 219.955852 183.987402 218.397194 
Q 182.055487 216.838535 182.055487 215.007597 
Q 182.055487 213.018293 184.210039 211.473526 
Q 186.364591 209.928759 190.515693 209.103587 
Q 193.682884 208.470121 198.39417 208.470121 
Q 204.520279 208.470121 207.967561 209.464773 
Q 211.414844 210.456647 212.398755 212.209791 
L 205.805828 212.687668 
Q 205.109189 211.751362 203.184457 211.209582 
Q 201.266906 210.665024 198.39417 210.665024 
Q 194.041976 210.665024 191.470878 211.734692 
Q 188.89978 212.801581 188.89978 214.902019 
Q 188.89978 217.16916 191.499605 218.30273 
Q 194.106613 219.433521 198.329534 219.433521 
Q 200.419449 219.433521 202.516546 219.116788 
Q 204.613642 218.800056 206.114647 218.349962 
L 206.114647 216.735736 
L 198.50908 216.735736 
z
" clip-path="url(#p34264f1307)" style="fill: #ff69b4"/>
   </g>
   <g id="patch_19">
    <path d="M 182.055487 195.30904 
L 195.599332 195.30904 
Q 200.183402 195.30904 202.587635 195.558988 
Q 205.81732 195.900872 208.11737 196.771382 
Q 210.425433 197.641892 211.627549 198.903127 
Q 212.829666 200.164361 212.829666 202.014555 
Q 212.829666 203.640656 211.70769 204.815702 
Q 210.329264 206.252187 207.772763 207.139935 
Q 205.841363 207.815084 202.563592 208.191443 
Q 200.111275 208.470121 196.000037 208.470121 
L 182.055487 208.470121 
L 182.055487 195.30904 
z
M 189.468538 197.535592 
L 189.468538 206.252187 
L 194.998273 206.252187 
Q 198.107748 206.252187 199.486174 206.125776 
Q 201.289349 205.96489 202.475437 205.579912 
Q 203.661525 205.192061 204.414851 204.310059 
Q 205.168178 203.425184 205.168178 201.896763 
Q 205.168178 200.371215 204.414851 199.555291 
Q 203.661525 198.736494 202.307141 198.279692 
Q 200.96077 197.82289 198.885116 197.65913 
Q 197.330379 197.535592 192.794393 197.535592 
L 189.468538 197.535592 
z
" clip-path="url(#p34264f1307)" style="fill: #c71585"/>
   </g>
   <g id="patch_20">
    <path d="M 207.88953 189.960261 
Q 210.162926 191.210024 212.829666 191.950624 
L 210.55627 195.30904 
Q 209.162898 194.99017 207.829528 194.429577 
Q 207.536187 194.31643 203.722749 192.336353 
Q 200.722667 193.349535 197.0759 193.349535 
Q 190.035707 193.349535 186.042264 190.150554 
Q 182.055487 186.951573 182.055487 181.165635 
Q 182.055487 175.395125 186.055597 172.191001 
Q 190.055707 168.986877 196.909229 168.986877 
Q 203.702748 168.986877 207.682858 172.191001 
Q 211.662967 175.395125 211.662967 181.165635 
Q 211.662967 184.22061 210.55627 186.534986 
Q 209.722914 188.304197 207.88953 189.960261 
z
M 202.929394 187.275586 
Q 204.12276 186.195544 204.71611 184.673199 
Q 205.309459 183.145711 205.309459 181.165635 
Q 205.309459 177.087191 202.976062 175.071113 
Q 200.642664 173.049892 196.869228 173.049892 
Q 193.095791 173.049892 190.749059 175.076256 
Q 188.408995 177.10262 188.408995 181.165635 
Q 188.408995 185.295509 190.749059 187.347588 
Q 193.095791 189.394525 196.682556 189.394525 
Q 198.015926 189.394525 199.202625 189.060226 
Q 197.32924 188.108761 195.389187 187.579026 
L 197.122568 184.863492 
Q 200.162651 185.665809 202.929394 187.275586 
z
" clip-path="url(#p34264f1307)" style="fill: #0000ff"/>
   </g>
   <g id="patch_21">
    <path d="M 193.545078 168.986877 
L 193.545078 48.707063 
L 182.055487 48.707063 
L 182.055487 24.214983 
L 212.829666 24.214983 
L 212.829666 48.707063 
L 201.365439 48.707063 
L 201.365439 168.986877 
L 193.545078 168.986877 
z
" clip-path="url(#p34264f1307)" style="fill: #a0522d"/>
   </g>
   <g id="patch_22">
    <path d="M 214.449359 234.792283 
L 214.449359 221.631202 
L 222.222739 221.631202 
L 222.222739 226.811169 
L 237.450158 226.811169 
L 237.450158 221.631202 
L 245.223538 221.631202 
L 245.223538 234.792283 
L 237.450158 234.792283 
L 237.450158 229.037722 
L 222.222739 229.037722 
L 222.222739 234.792283 
L 214.449359 234.792283 
z
" clip-path="url(#p34264f1307)" style="fill: #00ffff"/>
   </g>
   <g id="patch_23">
    <path d="M 230.902951 216.735736 
L 230.902951 214.590843 
L 245.223538 214.590843 
L 245.223538 219.661347 
Q 243.133623 220.442065 239.169248 221.036634 
Q 235.212055 221.631202 231.147134 221.631202 
Q 225.990574 221.631202 222.14829 220.794917 
Q 218.313188 219.955852 216.381274 218.397194 
Q 214.449359 216.838535 214.449359 215.007597 
Q 214.449359 213.018293 216.603911 211.473526 
Q 218.758462 209.928759 222.909565 209.103587 
Q 226.076756 208.470121 230.788042 208.470121 
Q 236.91415 208.470121 240.361433 209.464773 
Q 243.808715 210.456647 244.792627 212.209791 
L 238.199699 212.687668 
Q 237.503061 211.751362 235.578328 211.209582 
Q 233.660778 210.665024 230.788042 210.665024 
Q 226.435848 210.665024 223.86475 211.734692 
Q 221.293651 212.801581 221.293651 214.902019 
Q 221.293651 217.16916 223.893477 218.30273 
Q 226.500484 219.433521 230.723406 219.433521 
Q 232.813321 219.433521 234.910417 219.116788 
Q 237.007514 218.800056 238.508519 218.349962 
L 238.508519 216.735736 
L 230.902951 216.735736 
z
" clip-path="url(#p34264f1307)" style="fill: #ff69b4"/>
   </g>
   <g id="patch_24">
    <path d="M 214.449359 204.105307 
L 221.884731 203.863743 
Q 222.562176 205.121542 224.611034 205.712958 
Q 226.659892 206.301597 230.146256 206.301597 
Q 233.839157 206.301597 235.706262 205.77682 
Q 237.581628 205.252042 237.581628 204.549563 
Q 237.581628 204.096977 236.796783 203.780445 
Q 236.011938 203.463912 234.045695 203.230678 
Q 232.707328 203.072412 227.932167 202.675358 
Q 221.785593 202.161687 219.307136 201.417558 
Q 215.820772 200.365227 215.820772 198.857534 
Q 215.820772 197.885724 217.456554 197.038861 
Q 219.100598 196.191998 222.182146 195.750519 
Q 225.271956 195.30904 229.634041 195.30904 
Q 236.755475 195.30904 240.3575 196.358594 
Q 243.959524 197.408149 244.141278 199.160183 
L 236.499368 199.274024 
Q 236.011938 198.293884 234.392679 197.863511 
Q 232.781682 197.433138 229.551426 197.433138 
Q 226.222032 197.433138 224.338404 197.894054 
Q 223.12396 198.188373 223.12396 198.682608 
Q 223.12396 199.135194 224.26405 199.454503 
Q 225.709817 199.862663 231.286346 200.306919 
Q 236.862875 200.748398 239.531347 201.223197 
Q 242.208081 201.695218 243.711679 202.514315 
Q 245.223538 203.333412 245.223538 204.541233 
Q 245.223538 205.632436 243.414264 206.587587 
Q 241.613251 207.542737 238.308642 208.006429 
Q 235.004032 208.470121 230.071902 208.470121 
Q 222.892637 208.470121 219.042767 207.356705 
Q 215.201158 206.240512 214.449359 204.105307 
z
" clip-path="url(#p34264f1307)" style="fill: #ffff00"/>
   </g>
   <g id="patch_25">
    <path d="M 214.449359 195.30904 
L 214.449359 182.147958 
L 224.081503 182.147958 
L 229.86079 191.125994 
L 235.577484 182.147958 
L 245.223538 182.147958 
L 245.223538 195.30904 
L 239.249522 195.30904 
L 239.249522 184.949105 
L 232.920821 195.30904 
L 226.731212 195.30904 
L 220.43033 184.949105 
L 220.43033 195.30904 
L 214.449359 195.30904 
z
" clip-path="url(#p34264f1307)" style="fill: #ff8c00"/>
   </g>
   <g id="patch_26">
    <path d="M 225.93895 182.147958 
L 225.93895 50.933616 
L 214.449359 50.933616 
L 214.449359 24.214983 
L 245.223538 24.214983 
L 245.223538 50.933616 
L 233.759311 50.933616 
L 233.759311 182.147958 
L 225.93895 182.147958 
z
" clip-path="url(#p34264f1307)" style="fill: #a0522d"/>
   </g>
   <g id="patch_27">
    <path d="M 258.332821 234.792283 
L 258.332821 222.295679 
L 246.843231 222.295679 
L 246.843231 219.751048 
L 277.617409 219.751048 
L 277.617409 222.295679 
L 266.153183 222.295679 
L 266.153183 234.792283 
L 258.332821 234.792283 
z
" clip-path="url(#p34264f1307)" style="fill: #a0522d"/>
   </g>
   <g id="patch_28">
    <path d="M 246.843231 219.751048 
L 246.843231 204.709812 
L 261.389802 204.709812 
Q 266.873717 204.709812 269.361652 205.116953 
Q 271.849586 205.520811 273.343841 206.558364 
Q 274.838095 207.592633 274.838095 208.925692 
Q 274.838095 210.619924 272.566828 211.723145 
Q 270.303032 212.826366 265.797854 213.112022 
Q 268.039236 213.686616 269.496134 214.376129 
Q 270.960504 215.062359 273.433496 216.815692 
L 277.617409 219.751048 
L 269.346709 219.751048 
L 264.355898 216.477502 
Q 261.688653 214.724169 260.709916 214.267777 
Q 259.731179 213.811385 258.632902 213.640648 
Q 257.534625 213.469912 255.151288 213.469912 
L 253.75416 213.469912 
L 253.75416 219.751048 
L 246.843231 219.751048 
z
M 253.75416 211.06975 
L 258.864511 211.06975 
Q 263.84038 211.06975 265.07314 210.885879 
Q 266.313372 210.702009 267.015671 210.252184 
Q 267.717971 209.799075 267.717971 209.119413 
Q 267.717971 208.360948 266.791533 207.894706 
Q 265.872566 207.428464 264.19153 207.303695 
Q 263.347276 207.254444 259.14842 207.254444 
L 253.75416 207.254444 
L 253.75416 211.06975 
z
" clip-path="url(#p34264f1307)" style="fill: #ffe4b5"/>
   </g>
   <g id="patch_29">
    <path d="M 246.843231 204.709812 
L 246.843231 201.97146 
L 266.73648 192.213208 
L 249.092177 192.213208 
L 249.092177 189.668576 
L 276.815396 189.668576 
L 276.815396 192.026054 
L 256.062256 202.175031 
L 277.617409 202.175031 
L 277.617409 204.709812 
L 246.843231 204.709812 
z
" clip-path="url(#p34264f1307)" style="fill: #dda0dd"/>
   </g>
   <g id="patch_30">
    <path d="M 246.843231 189.668576 
L 246.843231 174.627341 
L 254.61661 174.627341 
L 254.61661 180.547303 
L 269.84403 180.547303 
L 269.84403 174.627341 
L 277.617409 174.627341 
L 277.617409 189.668576 
L 269.84403 189.668576 
L 269.84403 183.091935 
L 254.61661 183.091935 
L 254.61661 189.668576 
L 246.843231 189.668576 
z
" clip-path="url(#p34264f1307)" style="fill: #00ffff"/>
   </g>
   <g id="patch_31">
    <path d="M 263.296823 169.032522 
L 263.296823 166.581216 
L 277.617409 166.581216 
L 277.617409 172.376077 
Q 275.527494 173.268327 271.56312 173.947834 
Q 267.605927 174.627341 263.541006 174.627341 
Q 258.384446 174.627341 254.542162 173.671586 
Q 250.70706 172.712655 248.775146 170.931331 
Q 246.843231 169.150007 246.843231 167.057506 
Q 246.843231 164.784016 248.997783 163.018568 
Q 251.152334 161.25312 255.303437 160.310066 
Q 258.470628 159.586105 263.181914 159.586105 
Q 269.308022 159.586105 272.755305 160.72285 
Q 276.202587 161.85642 277.186499 163.860013 
L 270.593571 164.406159 
Q 269.896933 163.336094 267.9722 162.716917 
Q 266.054649 162.094565 263.181914 162.094565 
Q 258.82972 162.094565 256.258622 163.317043 
Q 253.687523 164.536345 253.687523 166.936846 
Q 253.687523 169.527863 256.287349 170.823372 
Q 258.894356 172.115705 263.117277 172.115705 
Q 265.207192 172.115705 267.304289 171.753725 
Q 269.401386 171.391744 270.90239 170.877351 
L 270.90239 169.032522 
L 263.296823 169.032522 
z
" clip-path="url(#p34264f1307)" style="fill: #ff69b4"/>
   </g>
   <g id="patch_32">
    <path d="M 246.843231 159.586105 
L 246.843231 144.544869 
L 276.848938 144.544869 
L 276.848938 147.089501 
L 255.013758 147.089501 
L 255.013758 150.422148 
L 275.329662 150.422148 
L 275.329662 152.956929 
L 255.013758 152.956929 
L 255.013758 157.051323 
L 277.617409 157.051323 
L 277.617409 159.586105 
L 246.843231 159.586105 
z
" clip-path="url(#p34264f1307)" style="fill: #c0c0c0"/>
   </g>
   <g id="patch_33">
    <path d="M 246.843231 129.503633 
L 260.387075 129.503633 
Q 264.971146 129.503633 267.375378 129.789289 
Q 270.605064 130.180013 272.905113 131.174882 
Q 275.213177 132.169751 276.415293 133.611162 
Q 277.617409 135.052572 277.617409 137.167079 
Q 277.617409 139.025481 276.495434 140.36839 
Q 275.117007 142.010088 272.560507 143.024657 
Q 270.629106 143.796255 267.351336 144.22638 
Q 264.899019 144.544869 260.787781 144.544869 
L 246.843231 144.544869 
L 246.843231 129.503633 
z
M 254.256282 132.048265 
L 254.256282 142.010088 
L 259.786017 142.010088 
Q 262.895491 142.010088 264.273918 141.865618 
Q 266.077093 141.681748 267.263181 141.241773 
Q 268.449269 140.798515 269.202595 139.790512 
Q 269.955921 138.779226 269.955921 137.03246 
Q 269.955921 135.288977 269.202595 134.356492 
Q 268.449269 133.420725 267.094884 132.898665 
Q 265.748514 132.376605 263.67286 132.189451 
Q 262.118123 132.048265 257.582137 132.048265 
L 254.256282 132.048265 
z
" clip-path="url(#p34264f1307)" style="fill: #c71585"/>
   </g>
   <g id="patch_34">
    <path d="M 270.700737 123.908815 
L 277.617409 124.81059 
Q 276.028965 127.19204 272.327736 128.347837 
Q 268.626507 129.503633 262.943578 129.503633 
Q 255.903532 129.503633 251.369526 127.525443 
Q 246.843231 125.544077 246.843231 122.111614 
Q 246.843231 118.479109 251.392659 116.472341 
Q 255.949797 114.462398 263.375388 114.462398 
Q 269.86025 114.462398 273.908469 116.03733 
Q 276.314268 116.970858 277.517168 118.717254 
L 270.4617 119.412638 
Q 269.829406 118.282243 267.839996 117.628138 
Q 265.858296 116.970858 263.012976 116.970858 
Q 259.088131 116.970858 256.636067 118.133005 
Q 254.191713 119.291978 254.191713 121.892521 
Q 254.191713 124.651827 256.597512 125.8235 
Q 259.011022 126.991998 262.866469 126.991998 
Q 265.711789 126.991998 267.755176 126.248986 
Q 269.806274 125.505973 270.700737 123.908815 
z
" clip-path="url(#p34264f1307)" style="fill: #00ff7f"/>
   </g>
   <g id="patch_35">
    <path d="M 267.035473 84.379926 
L 275.179501 84.379926 
L 275.179501 103.104796 
Q 275.179501 106.772288 274.296201 108.754541 
Q 273.103746 111.337282 269.985696 112.89984 
Q 266.867646 114.462398 261.762171 114.462398 
Q 255.773396 114.462398 252.540517 112.015251 
Q 249.316472 109.561647 249.28114 104.815862 
L 256.983517 104.170176 
Q 257.124845 106.714176 258.008145 107.766643 
Q 259.333096 109.355028 262.035994 109.355028 
Q 264.774225 109.355028 265.904849 108.218622 
Q 267.035473 107.07576 267.035473 103.48575 
L 267.035473 84.379926 
z
" clip-path="url(#p34264f1307)" style="fill: #7b68ee"/>
   </g>
   <g id="patch_36">
    <path d="M 272.677274 78.267037 
Q 274.95067 79.695337 277.617409 80.541737 
L 275.344014 84.379926 
Q 273.950642 84.015504 272.617272 83.374826 
Q 272.323931 83.245515 268.510493 80.98257 
Q 265.51041 82.140493 261.863644 82.140493 
Q 254.82345 82.140493 250.830007 78.484514 
Q 246.843231 74.828536 246.843231 68.216035 
Q 246.843231 61.621167 250.843341 57.959311 
Q 254.843451 54.297455 261.696972 54.297455 
Q 268.490492 54.297455 272.470601 57.959311 
Q 276.450711 61.621167 276.450711 68.216035 
Q 276.450711 71.707435 275.344014 74.352436 
Q 274.510658 76.374392 272.677274 78.267037 
z
M 267.717138 75.198836 
Q 268.910504 73.964502 269.503853 72.22468 
Q 270.097203 70.47898 270.097203 68.216035 
Q 270.097203 63.554956 267.763806 61.250867 
Q 265.430408 58.9409 261.656971 58.9409 
Q 257.883534 58.9409 255.536803 61.256745 
Q 253.196739 63.57259 253.196739 68.216035 
Q 253.196739 72.935891 255.536803 75.281125 
Q 257.883534 77.620481 261.470299 77.620481 
Q 262.803669 77.620481 263.990369 77.238425 
Q 262.116984 76.151036 260.176931 75.545625 
L 261.910312 72.442158 
Q 264.950395 73.359091 267.717138 75.198836 
z
" clip-path="url(#p34264f1307)" style="fill: #0000ff"/>
   </g>
   <g id="patch_37">
    <path d="M 246.843231 54.297455 
L 246.843231 24.214983 
L 256.475375 24.214983 
L 262.254661 44.736207 
L 267.971356 24.214983 
L 277.617409 24.214983 
L 277.617409 54.297455 
L 271.643394 54.297455 
L 271.643394 30.617605 
L 265.314693 54.297455 
L 259.125084 54.297455 
L 252.824201 30.617605 
L 252.824201 54.297455 
L 246.843231 54.297455 
z
" clip-path="url(#p34264f1307)" style="fill: #ff8c00"/>
   </g>
   <g id="patch_38">
    <path d="M 305.071146 231.500727 
Q 307.344541 232.269812 310.011281 232.725566 
L 307.737886 234.792283 
Q 306.344514 234.596056 305.011144 234.251076 
Q 304.717803 234.181447 300.904365 232.962938 
Q 297.904282 233.586435 294.257515 233.586435 
Q 287.217322 233.586435 283.223879 231.617831 
Q 279.237103 229.649227 279.237103 226.08865 
Q 279.237103 222.537567 283.237213 220.565798 
Q 287.237323 218.59403 294.090844 218.59403 
Q 300.884364 218.59403 304.864473 220.565798 
Q 308.844583 222.537567 308.844583 226.08865 
Q 308.844583 227.968635 307.737886 229.392866 
Q 306.904529 230.481611 305.071146 231.500727 
z
M 300.11101 229.848619 
Q 301.304376 229.183978 301.897725 228.247151 
Q 302.491075 227.307158 302.491075 226.08865 
Q 302.491075 223.578838 300.157677 222.338175 
Q 297.82428 221.094346 294.050843 221.094346 
Q 290.277406 221.094346 287.930675 222.34134 
Q 285.590611 223.588333 285.590611 226.08865 
Q 285.590611 228.630111 287.930675 229.892929 
Q 290.277406 231.152582 293.864171 231.152582 
Q 295.197541 231.152582 296.384241 230.94686 
Q 294.510856 230.361343 292.570802 230.035352 
L 294.304183 228.364254 
Q 297.344267 228.857988 300.11101 229.848619 
z
" clip-path="url(#p34264f1307)" style="fill: #0000ff"/>
   </g>
   <g id="patch_39">
    <path d="M 279.237103 213.221951 
L 286.672475 212.924641 
Q 287.34992 214.472702 289.398778 215.200598 
Q 291.447636 215.925077 294.933999 215.925077 
Q 298.626901 215.925077 300.494005 215.279197 
Q 302.369371 214.633317 302.369371 213.768727 
Q 302.369371 213.211698 301.584526 212.82212 
Q 300.799682 212.432542 298.833439 212.145484 
Q 297.495072 211.950695 292.719911 211.462014 
Q 286.573337 210.829803 284.094879 209.913953 
Q 280.608516 208.618776 280.608516 206.763153 
Q 280.608516 205.56708 282.244298 204.524787 
Q 283.888341 203.482494 286.96989 202.939135 
Q 290.0597 202.395776 294.421785 202.395776 
Q 301.543219 202.395776 305.145243 203.687535 
Q 308.747268 204.979295 308.929022 207.135645 
L 301.287112 207.275756 
Q 300.799682 206.06943 299.180423 205.539741 
Q 297.569426 205.010051 294.33917 205.010051 
Q 291.009775 205.010051 289.126148 205.577332 
Q 287.911704 205.939571 287.911704 206.54786 
Q 287.911704 207.104888 289.051794 207.497884 
Q 290.497561 208.000235 296.07409 208.547011 
Q 301.650619 209.090371 304.319091 209.674738 
Q 306.995825 210.255688 308.499422 211.263807 
Q 310.011281 212.271926 310.011281 213.758475 
Q 310.011281 215.101495 308.202008 216.277064 
Q 306.400995 217.452634 303.096385 218.023332 
Q 299.791776 218.59403 294.859646 218.59403 
Q 287.680381 218.59403 283.830511 217.223671 
Q 279.988902 215.849895 279.237103 213.221951 
z
" clip-path="url(#p34264f1307)" style="fill: #ffff00"/>
   </g>
   <g id="patch_40">
    <path d="M 279.237103 202.395776 
L 279.237103 169.999268 
L 288.869247 169.999268 
L 294.648533 192.099047 
L 300.365228 169.999268 
L 310.011281 169.999268 
L 310.011281 202.395776 
L 304.037266 202.395776 
L 304.037266 176.894399 
L 297.708565 202.395776 
L 291.518956 202.395776 
L 285.218073 176.894399 
L 285.218073 202.395776 
L 279.237103 202.395776 
z
" clip-path="url(#p34264f1307)" style="fill: #ff8c00"/>
   </g>
   <g id="patch_41">
    <path d="M 299.429345 137.60276 
L 307.573373 137.60276 
L 307.573373 157.768005 
Q 307.573373 161.717611 306.690073 163.852345 
Q 305.497617 166.633758 302.379568 168.316513 
Q 299.261518 169.999268 294.156043 169.999268 
Q 288.167268 169.999268 284.934389 167.363879 
Q 281.710344 164.721537 281.675012 159.610691 
L 289.377389 158.915337 
Q 289.518717 161.655029 290.402017 162.788455 
Q 291.726968 164.499024 294.429866 164.499024 
Q 297.168097 164.499024 298.298721 163.275202 
Q 299.429345 162.044427 299.429345 158.178263 
L 299.429345 137.60276 
z
" clip-path="url(#p34264f1307)" style="fill: #7b68ee"/>
   </g>
   <g id="patch_42">
    <path d="M 279.237103 137.60276 
L 279.237103 128.755777 
L 299.130352 97.229117 
L 281.486049 97.229117 
L 281.486049 89.007999 
L 309.209268 89.007999 
L 309.209268 96.624467 
L 288.456127 129.413466 
L 310.011281 129.413466 
L 310.011281 137.60276 
L 279.237103 137.60276 
z
" clip-path="url(#p34264f1307)" style="fill: #dda0dd"/>
   </g>
   <g id="patch_43">
    <path d="M 279.237103 89.007999 
L 279.237103 24.214983 
L 287.010482 24.214983 
L 287.010482 49.71636 
L 302.237902 49.71636 
L 302.237902 24.214983 
L 310.011281 24.214983 
L 310.011281 89.007999 
L 302.237902 89.007999 
L 302.237902 60.67785 
L 287.010482 60.67785 
L 287.010482 89.007999 
L 279.237103 89.007999 
z
" clip-path="url(#p34264f1307)" style="fill: #00ffff"/>
   </g>
   <g id="patch_44">
    <path d="M 311.630975 234.792283 
L 311.630975 208.470121 
L 318.521828 208.470121 
L 318.521828 220.157368 
L 332.445077 208.470121 
L 341.712343 208.470121 
L 328.861833 218.720882 
L 342.405153 234.792283 
L 333.495466 234.792283 
L 324.109007 222.438507 
L 318.521828 226.839899 
L 318.521828 234.792283 
L 311.630975 234.792283 
z
" clip-path="url(#p34264f1307)" style="fill: #6495ed"/>
   </g>
   <g id="patch_45">
    <path d="M 311.630975 208.470121 
L 311.630975 182.147958 
L 319.252538 182.147958 
L 335.130795 199.724797 
L 335.130795 182.147958 
L 342.405153 182.147958 
L 342.405153 208.470121 
L 334.546475 208.470121 
L 318.905334 191.301245 
L 318.905334 208.470121 
L 311.630975 208.470121 
z
" clip-path="url(#p34264f1307)" style="fill: #00bfff"/>
   </g>
   <g id="patch_46">
    <path d="M 311.630975 182.147958 
L 311.630975 155.825796 
L 324.64576 155.825796 
Q 332.0477 155.825796 334.292838 156.21652 
Q 337.748246 156.814098 340.072314 158.796448 
Q 342.405153 160.778798 342.405153 163.921829 
Q 342.405153 166.346617 341.063332 168.001448 
Q 339.721512 169.650534 337.651775 170.592868 
Q 335.582038 171.535203 333.442141 171.839738 
Q 330.539247 172.21897 325.031643 172.21897 
L 319.74329 172.21897 
L 319.74329 182.147958 
L 311.630975 182.147958 
z
M 319.74329 160.278901 
L 319.74329 167.748627 
L 324.180946 167.748627 
Q 328.978175 167.748627 330.591868 167.334919 
Q 332.214331 166.921211 333.126418 166.042082 
Q 334.047276 165.162953 334.047276 163.996526 
Q 334.047276 162.560041 332.758075 161.629198 
Q 331.468875 160.692609 329.495609 160.457026 
Q 328.048547 160.278901 323.663512 160.278901 
L 319.74329 160.278901 
z
" clip-path="url(#p34264f1307)" style="fill: #f0fff0"/>
   </g>
   <g id="patch_47">
    <path d="M 337.465018 150.477017 
Q 339.738413 151.72678 342.405153 152.46738 
L 340.131757 155.825796 
Q 338.738386 155.506927 337.405016 154.946333 
Q 337.111675 154.833186 333.298236 152.853109 
Q 330.298154 153.866292 326.651387 153.866292 
Q 319.611194 153.866292 315.617751 150.66731 
Q 311.630975 147.468329 311.630975 141.682391 
Q 311.630975 135.911882 315.631085 132.707758 
Q 319.631195 129.503633 326.484716 129.503633 
Q 333.278236 129.503633 337.258345 132.707758 
Q 341.238455 135.911882 341.238455 141.682391 
Q 341.238455 144.737366 340.131757 147.051742 
Q 339.298401 148.820953 337.465018 150.477017 
z
M 332.504881 147.792342 
Q 333.698247 146.7123 334.291597 145.189955 
Q 334.884947 143.662468 334.884947 141.682391 
Q 334.884947 137.603947 332.551549 135.587869 
Q 330.218152 133.566648 326.444715 133.566648 
Q 322.671278 133.566648 320.324547 135.593012 
Q 317.984483 137.619376 317.984483 141.682391 
Q 317.984483 145.812265 320.324547 147.864345 
Q 322.671278 149.911281 326.258043 149.911281 
Q 327.591413 149.911281 328.778112 149.576983 
Q 326.904728 148.625517 324.964674 148.095782 
L 326.698055 145.380249 
Q 329.738139 146.182565 332.504881 147.792342 
z
" clip-path="url(#p34264f1307)" style="fill: #0000ff"/>
   </g>
   <g id="patch_48">
    <path d="M 311.630975 129.503633 
L 311.630975 103.181471 
L 326.177546 103.181471 
Q 331.661461 103.181471 334.149395 103.893968 
Q 336.63733 104.600719 338.131584 106.416437 
Q 339.625839 108.226408 339.625839 110.559261 
Q 339.625839 113.524167 337.354572 115.454804 
Q 335.090776 117.385441 330.585597 117.885338 
Q 332.82698 118.890878 334.283878 120.097526 
Q 335.748248 121.298428 338.22124 124.366761 
L 342.405153 129.503633 
L 334.134453 129.503633 
L 329.143642 123.774929 
Q 326.476397 120.706596 325.49766 119.90791 
Q 324.518923 119.109224 323.420646 118.810435 
Q 322.322368 118.511646 319.939032 118.511646 
L 318.541904 118.511646 
L 318.541904 129.503633 
L 311.630975 129.503633 
z
M 318.541904 114.311362 
L 323.652255 114.311362 
Q 328.628124 114.311362 329.860884 113.989589 
Q 331.101115 113.667816 331.803415 112.880622 
Q 332.505715 112.087682 332.505715 110.898272 
Q 332.505715 109.570959 331.579277 108.755035 
Q 330.66031 107.939111 328.979274 107.720766 
Q 328.13502 107.634576 323.936163 107.634576 
L 318.541904 107.634576 
L 318.541904 114.311362 
z
" clip-path="url(#p34264f1307)" style="fill: #ffe4b5"/>
   </g>
   <g id="patch_49">
    <path d="M 311.630975 94.451842 
L 319.066347 93.968714 
Q 319.743792 96.484313 321.79265 97.667145 
Q 323.841508 98.844423 327.327871 98.844423 
Q 331.020773 98.844423 332.887877 97.794868 
Q 334.763243 96.745314 334.763243 95.340354 
Q 334.763243 94.435183 333.978398 93.802118 
Q 333.193554 93.169053 331.227311 92.702585 
Q 329.888944 92.386052 325.113783 91.591945 
Q 318.967209 90.564603 316.488751 89.076346 
Q 313.002388 86.971684 313.002388 83.956297 
Q 313.002388 82.012677 314.63817 80.318951 
Q 316.282213 78.625226 319.363762 77.742267 
Q 322.453572 76.859308 326.815657 76.859308 
Q 333.937091 76.859308 337.539115 78.958418 
Q 341.14114 81.057527 341.322894 84.561595 
L 333.680983 84.789276 
Q 333.193554 82.828997 331.574295 81.968251 
Q 329.963298 81.107506 326.733041 81.107506 
Q 323.403647 81.107506 321.52002 82.029337 
Q 320.305576 82.617976 320.305576 83.606445 
Q 320.305576 84.511617 321.445666 85.150234 
Q 322.891433 85.966555 328.467962 86.855066 
Q 334.044491 87.738025 336.712963 88.687622 
Q 339.389697 89.631666 340.893294 91.269859 
Q 342.405153 92.908053 342.405153 95.323695 
Q 342.405153 97.506102 340.595879 99.416402 
Q 338.794867 101.326703 335.490257 102.254087 
Q 332.185648 103.181471 327.253518 103.181471 
Q 320.074253 103.181471 316.224382 100.954638 
Q 312.382774 98.722252 311.630975 94.451842 
z
" clip-path="url(#p34264f1307)" style="fill: #ffff00"/>
   </g>
   <g id="patch_50">
    <path d="M 311.630975 50.537146 
L 326.316281 50.537146 
Q 330.679365 50.537146 332.820805 50.795713 
Q 334.962245 51.054281 336.654544 51.881697 
Q 338.346844 52.709112 339.469696 54.082393 
Q 340.600569 55.455673 340.600569 57.162218 
Q 340.600569 59.012411 339.205024 60.55807 
Q 337.817499 62.097982 335.443468 62.873685 
Q 338.795985 63.568944 340.600569 65.258251 
Q 342.405153 66.947558 342.405153 69.228697 
Q 342.405153 71.021431 341.242199 72.72223 
Q 340.079244 74.417283 338.05811 75.434315 
Q 336.044996 76.445601 333.085478 76.681184 
Q 331.232771 76.824833 324.134739 76.859308 
L 311.630975 76.859308 
L 311.630975 50.537146 
z
M 319.049822 54.915554 
L 319.049822 61.006253 
L 323.910169 61.006253 
Q 328.249192 61.006253 329.299861 60.914318 
Q 331.20069 60.753432 332.291461 59.971984 
Q 333.382232 59.190535 333.382232 57.914936 
Q 333.382232 56.696796 332.443848 55.932586 
Q 331.505464 55.168376 329.652757 55.007489 
Q 328.545945 54.915554 323.308641 54.915554 
L 319.049822 54.915554 
z
M 319.049822 65.384661 
L 319.049822 72.423441 
L 325.915263 72.423441 
Q 329.92545 72.423441 331.00018 72.262555 
Q 332.660398 72.044209 333.695026 71.211047 
Q 334.737675 70.377885 334.737675 68.975875 
Q 334.737675 67.792211 333.935637 66.964796 
Q 333.1336 66.13738 331.617749 65.763894 
Q 330.101898 65.384661 325.041042 65.384661 
L 319.049822 65.384661 
z
" clip-path="url(#p34264f1307)" style="fill: #ffd700"/>
   </g>
   <g id="patch_51">
    <path d="M 311.630975 50.537146 
L 311.630975 24.214983 
L 321.263119 24.214983 
L 327.042405 42.171054 
L 332.7591 24.214983 
L 342.405153 24.214983 
L 342.405153 50.537146 
L 336.431138 50.537146 
L 336.431138 29.817277 
L 330.102437 50.537146 
L 323.912828 50.537146 
L 317.611945 29.817277 
L 317.611945 50.537146 
L 311.630975 50.537146 
z
" clip-path="url(#p34264f1307)" style="fill: #ff8c00"/>
   </g>
   <g id="patch_52">
    <path d="M 355.326673 234.792283 
L 355.326673 199.696067 
L 363.497199 199.696067 
L 363.497199 234.792283 
L 355.326673 234.792283 
z
" clip-path="url(#p34264f1307)" style="fill: #add8e6"/>
   </g>
   <g id="patch_53">
    <path d="M 344.024847 199.696067 
L 344.024847 164.59985 
L 351.798226 164.59985 
L 351.798226 178.413096 
L 367.025646 178.413096 
L 367.025646 164.59985 
L 374.799025 164.59985 
L 374.799025 199.696067 
L 367.025646 199.696067 
L 367.025646 184.35057 
L 351.798226 184.35057 
L 351.798226 199.696067 
L 344.024847 199.696067 
z
" clip-path="url(#p34264f1307)" style="fill: #00ffff"/>
   </g>
   <g id="patch_54">
    <path d="M 345.539707 164.59985 
L 345.539707 129.503633 
L 373.284165 129.503633 
L 373.284165 135.441107 
L 353.710233 135.441107 
L 353.710233 143.74591 
L 370.598933 143.74591 
L 370.598933 149.683383 
L 353.710233 149.683383 
L 353.710233 164.59985 
L 345.539707 164.59985 
z
" clip-path="url(#p34264f1307)" style="fill: #ff0000"/>
   </g>
   <g id="patch_55">
    <path d="M 355.514437 129.503633 
L 355.514437 100.344891 
L 344.024847 100.344891 
L 344.024847 94.407417 
L 374.799025 94.407417 
L 374.799025 100.344891 
L 363.334798 100.344891 
L 363.334798 129.503633 
L 355.514437 129.503633 
z
" clip-path="url(#p34264f1307)" style="fill: #a0522d"/>
   </g>
   <g id="patch_56">
    <path d="M 367.882353 81.352839 
L 374.799025 83.456982 
Q 373.210581 89.013698 369.509352 91.710557 
Q 365.808123 94.407417 360.125194 94.407417 
Q 353.085147 94.407417 348.551142 89.791638 
Q 344.024847 85.168451 344.024847 77.159371 
Q 344.024847 68.683527 348.574274 64.001068 
Q 353.131413 59.3112 360.557004 59.3112 
Q 367.041866 59.3112 371.090085 62.986042 
Q 373.495884 65.164274 374.698783 69.239199 
L 367.643315 70.86176 
Q 367.011022 68.224172 365.021611 66.697928 
Q 363.039912 65.164274 360.194592 65.164274 
Q 356.269747 65.164274 353.817682 67.875951 
Q 351.373329 70.58022 351.373329 76.648153 
Q 351.373329 83.086535 353.779128 85.820439 
Q 356.192638 88.546934 360.048085 88.546934 
Q 362.893405 88.546934 364.936792 86.813239 
Q 366.987889 85.079543 367.882353 81.352839 
z
" clip-path="url(#p34264f1307)" style="fill: #00ff7f"/>
   </g>
   <g id="patch_57">
    <path d="M 344.024847 59.3112 
L 344.024847 24.214983 
L 353.656991 24.214983 
L 359.436277 48.15641 
L 365.152972 24.214983 
L 374.799025 24.214983 
L 374.799025 59.3112 
L 368.825009 59.3112 
L 368.825009 31.684709 
L 362.496308 59.3112 
L 356.3067 59.3112 
L 350.005817 31.684709 
L 350.005817 59.3112 
L 344.024847 59.3112 
z
" clip-path="url(#p34264f1307)" style="fill: #ff8c00"/>
   </g>
   <g id="patch_58">
    <path d="M 376.418719 234.792283 
L 376.418719 199.696067 
L 390.965289 199.696067 
Q 396.449205 199.696067 398.937139 200.646063 
Q 401.425073 201.588397 402.919328 204.009354 
Q 404.413583 206.42265 404.413583 209.53312 
Q 404.413583 213.486329 402.142316 216.060511 
Q 399.87852 218.634693 395.373341 219.301223 
Q 397.614723 220.641942 399.071622 222.250806 
Q 400.535992 223.852009 403.008983 227.94312 
L 407.192897 234.792283 
L 398.922196 234.792283 
L 393.931385 227.154011 
Q 391.26414 223.0629 390.285404 221.997985 
Q 389.306667 220.93307 388.208389 220.534685 
Q 387.110112 220.1363 384.726776 220.1363 
L 383.329647 220.1363 
L 383.329647 234.792283 
L 376.418719 234.792283 
z
M 383.329647 214.535921 
L 388.439999 214.535921 
Q 393.415867 214.535921 394.648628 214.106891 
Q 395.888859 213.67786 396.591159 212.628268 
Q 397.293459 211.571015 397.293459 209.985135 
Q 397.293459 208.215384 396.367021 207.127486 
Q 395.448054 206.039587 393.767017 205.74846 
Q 392.922763 205.633541 388.723907 205.633541 
L 383.329647 205.633541 
L 383.329647 214.535921 
z
" clip-path="url(#p34264f1307)" style="fill: #ffe4b5"/>
   </g>
   <g id="patch_59">
    <path d="M 376.418719 199.696067 
L 376.418719 129.503633 
L 386.050863 129.503633 
L 391.830149 177.386487 
L 397.546844 129.503633 
L 407.192897 129.503633 
L 407.192897 199.696067 
L 401.218881 199.696067 
L 401.218881 144.443084 
L 394.89018 199.696067 
L 388.700572 199.696067 
L 382.399689 144.443084 
L 382.399689 199.696067 
L 376.418719 199.696067 
z
" clip-path="url(#p34264f1307)" style="fill: #ff8c00"/>
   </g>
   <g id="patch_60">
    <path d="M 402.252761 108.108519 
Q 404.526157 113.10757 407.192897 116.06997 
L 404.919501 129.503633 
Q 403.52613 128.228156 402.19276 125.985783 
Q 401.899418 125.533194 398.08598 117.612887 
Q 395.085898 121.665616 391.439131 121.665616 
Q 384.398938 121.665616 380.405495 108.869691 
Q 376.418719 96.073767 376.418719 72.930013 
Q 376.418719 49.847976 380.418828 37.03148 
Q 384.418938 24.214983 391.27246 24.214983 
Q 398.06598 24.214983 402.046089 37.03148 
Q 406.026198 49.847976 406.026198 72.930013 
Q 406.026198 85.149915 404.919501 94.407417 
Q 404.086145 101.484262 402.252761 108.108519 
z
M 397.292625 97.369817 
Q 398.485991 93.04965 399.079341 86.960271 
Q 399.67269 80.85032 399.67269 72.930013 
Q 399.67269 56.616239 397.339293 48.551926 
Q 395.005896 40.467042 391.232459 40.467042 
Q 387.459022 40.467042 385.112291 48.572498 
Q 382.772226 56.677955 382.772226 72.930013 
Q 382.772226 89.44951 385.112291 97.657828 
Q 387.459022 105.845574 391.045787 105.845574 
Q 392.379157 105.845574 393.565856 104.50838 
Q 391.692471 100.702518 389.752418 98.583579 
L 391.485799 87.721444 
Q 394.525882 90.930711 397.292625 97.369817 
z
" clip-path="url(#p34264f1307)" style="fill: #0000ff"/>
   </g>
   <g id="patch_61">
    <path d="M 408.812591 208.77574 
Q 408.812591 200.996338 410.266816 195.717458 
Q 411.347098 191.827757 413.216816 188.738223 
Q 415.086534 185.648689 417.316346 184.15949 
Q 420.280196 182.147958 424.15813 182.147958 
Q 431.166112 182.147958 435.37644 189.127193 
Q 439.586769 196.106428 439.586769 208.542358 
Q 439.586769 220.867154 435.411065 227.835275 
Q 431.23536 234.792283 424.241229 234.792283 
Q 417.163999 234.792283 412.988295 227.868616 
Q 408.812591 220.933834 408.812591 208.77574 
z
M 415.412004 208.431224 
Q 415.412004 217.077474 417.898037 221.545073 
Q 420.390994 226.001559 424.220454 226.001559 
Q 428.049914 226.001559 430.508248 221.578413 
Q 432.966581 217.155268 432.966581 208.297863 
Q 432.966581 199.540479 430.570572 195.239581 
Q 428.181487 190.927569 424.220454 190.927569 
Q 420.259421 190.927569 417.835713 195.295148 
Q 415.412004 199.651613 415.412004 208.431224 
z
" clip-path="url(#p34264f1307)" style="fill: #006400"/>
   </g>
   <g id="patch_62">
    <path d="M 408.812591 182.147958 
L 408.812591 129.503633 
L 421.827376 129.503633 
Q 429.229315 129.503633 431.474453 130.285082 
Q 434.929861 131.480238 437.25393 135.444938 
Q 439.586769 139.409638 439.586769 145.695699 
Q 439.586769 150.545275 438.244948 153.854938 
Q 436.903127 157.153109 434.83339 159.037778 
Q 432.763654 160.922447 430.623756 161.531517 
Q 427.720863 162.289981 422.213259 162.289981 
L 416.924906 162.289981 
L 416.924906 182.147958 
L 408.812591 182.147958 
z
M 416.924906 138.409844 
L 416.924906 153.349295 
L 421.362562 153.349295 
Q 426.15979 153.349295 427.773483 152.521879 
Q 429.395947 151.694463 430.308034 149.936205 
Q 431.228891 148.177947 431.228891 145.845094 
Q 431.228891 142.972123 429.939691 141.110437 
Q 428.650491 139.23726 426.677225 138.766093 
Q 425.230163 138.409844 420.845128 138.409844 
L 416.924906 138.409844 
z
" clip-path="url(#p34264f1307)" style="fill: #f0fff0"/>
   </g>
   <g id="patch_63">
    <path d="M 434.646633 118.806076 
Q 436.920029 121.305602 439.586769 122.786802 
L 437.313373 129.503633 
Q 435.920001 128.865895 434.586632 127.744708 
Q 434.29329 127.518414 430.479852 123.55826 
Q 427.47977 125.584625 423.833003 125.584625 
Q 416.79281 125.584625 412.799367 119.186662 
Q 408.812591 112.7887 408.812591 101.216823 
Q 408.812591 89.675805 412.8127 83.267557 
Q 416.81281 76.859308 423.666332 76.859308 
Q 430.459852 76.859308 434.439961 83.267557 
Q 438.42007 89.675805 438.42007 101.216823 
Q 438.42007 107.326774 437.313373 111.955525 
Q 436.480017 115.493948 434.646633 118.806076 
z
M 429.686497 113.436725 
Q 430.879863 111.276642 431.473213 108.231952 
Q 432.066562 105.176977 432.066562 101.216823 
Q 432.066562 93.059936 429.733165 89.02778 
Q 427.399768 84.985338 423.626331 84.985338 
Q 419.852894 84.985338 417.506163 89.038066 
Q 415.166098 93.090794 415.166098 101.216823 
Q 415.166098 109.476572 417.506163 113.580731 
Q 419.852894 117.674604 423.439659 117.674604 
Q 424.773029 117.674604 425.959728 117.006007 
Q 424.086343 115.103076 422.14629 114.043606 
L 423.879671 108.612539 
Q 426.919754 110.217172 429.686497 113.436725 
z
" clip-path="url(#p34264f1307)" style="fill: #0000ff"/>
   </g>
   <g id="patch_64">
    <path d="M 408.812591 76.859308 
L 408.812591 24.214983 
L 418.444734 24.214983 
L 424.224021 60.127124 
L 429.940716 24.214983 
L 439.586769 24.214983 
L 439.586769 76.859308 
L 433.612753 76.859308 
L 433.612753 35.419571 
L 427.284052 76.859308 
L 421.094443 76.859308 
L 414.793561 35.419571 
L 414.793561 76.859308 
L 408.812591 76.859308 
z
" clip-path="url(#p34264f1307)" style="fill: #ff8c00"/>
   </g>
   <g id="patch_65">
    <path d="M 441.206462 234.792283 
L 441.206462 164.59985 
L 450.838606 164.59985 
L 456.617893 212.482704 
L 462.334588 164.59985 
L 471.980641 164.59985 
L 471.980641 234.792283 
L 466.006625 234.792283 
L 466.006625 179.539301 
L 459.677924 234.792283 
L 453.488315 234.792283 
L 447.187433 179.539301 
L 447.187433 234.792283 
L 441.206462 234.792283 
z
" clip-path="url(#p34264f1307)" style="fill: #ff8c00"/>
   </g>
   <g id="patch_66">
    <path d="M 441.206462 94.407417 
L 455.891769 94.407417 
Q 460.254853 94.407417 462.396293 95.09693 
Q 464.537733 95.786443 466.230032 97.992885 
Q 467.922331 100.199327 469.045183 103.861408 
Q 470.176056 107.523488 470.176056 112.074275 
Q 470.176056 117.008124 468.780511 121.12988 
Q 467.392986 125.236314 465.018955 127.304853 
Q 468.371472 129.158877 470.176056 133.663696 
Q 471.980641 138.168515 471.980641 144.251553 
Q 471.980641 149.032177 470.817686 153.567641 
Q 469.654732 158.087782 467.633598 160.799867 
Q 465.620483 163.496629 462.660965 164.124852 
Q 460.808259 164.507915 453.710227 164.59985 
L 441.206462 164.59985 
L 441.206462 94.407417 
z
M 448.625309 106.083172 
L 448.625309 122.325036 
L 453.485656 122.325036 
Q 457.824679 122.325036 458.875348 122.079876 
Q 460.776177 121.650845 461.866948 119.566984 
Q 462.957719 117.483122 462.957719 114.081524 
Q 462.957719 110.833151 462.019335 108.795257 
Q 461.080951 106.757363 459.228245 106.328332 
Q 458.121433 106.083172 452.884128 106.083172 
L 448.625309 106.083172 
z
M 448.625309 134.000791 
L 448.625309 152.77087 
L 455.49075 152.77087 
Q 459.500937 152.77087 460.575668 152.34184 
Q 462.235885 151.759584 463.270514 149.53782 
Q 464.313162 147.316055 464.313162 143.577362 
Q 464.313162 140.420924 463.511125 138.214482 
Q 462.709087 136.00804 461.193237 135.012077 
Q 459.677386 134.000791 454.616529 134.000791 
L 448.625309 134.000791 
z
" clip-path="url(#p34264f1307)" style="fill: #ffd700"/>
   </g>
   <g id="patch_67">
    <path d="M 441.206462 94.407417 
L 441.206462 81.628441 
L 461.099711 36.089931 
L 443.455408 36.089931 
L 443.455408 24.214983 
L 471.178627 24.214983 
L 471.178627 35.216548 
L 450.425487 82.578437 
L 471.980641 82.578437 
L 471.980641 94.407417 
L 441.206462 94.407417 
z
" clip-path="url(#p34264f1307)" style="fill: #dda0dd"/>
   </g>
   <g id="patch_68">
    <path d="M 493.792576 164.59985 
L 501.936604 164.59985 
L 501.936604 208.291212 
Q 501.936604 216.848693 501.053304 221.473951 
Q 499.860849 227.500346 496.742799 231.146315 
Q 493.624749 234.792283 488.519274 234.792283 
Q 482.530499 234.792283 479.29762 229.082274 
Q 476.073575 223.357199 476.038243 212.283699 
L 483.74062 210.7771 
Q 483.881948 216.713099 484.765249 219.168855 
Q 486.090199 222.875088 488.793097 222.875088 
Q 491.531328 222.875088 492.661952 220.223474 
Q 493.792576 217.556794 493.792576 209.180106 
L 493.792576 164.59985 
z
" clip-path="url(#p34264f1307)" style="fill: #7b68ee"/>
   </g>
   <g id="patch_69">
    <path d="M 484.90216 164.59985 
L 484.90216 94.407417 
L 493.072687 94.407417 
L 493.072687 164.59985 
L 484.90216 164.59985 
z
" clip-path="url(#p34264f1307)" style="fill: #add8e6"/>
   </g>
   <g id="patch_70">
    <path d="M 473.600334 94.407417 
L 473.600334 24.214983 
L 483.232478 24.214983 
L 489.011765 72.097837 
L 494.728459 24.214983 
L 504.374513 24.214983 
L 504.374513 94.407417 
L 498.400497 94.407417 
L 498.400497 39.154434 
L 492.071796 94.407417 
L 485.882187 94.407417 
L 479.581305 39.154434 
L 479.581305 94.407417 
L 473.600334 94.407417 
z
" clip-path="url(#p34264f1307)" style="fill: #ff8c00"/>
   </g>
   <g id="patch_71">
    <path d="M 522.447798 156.464818 
L 522.447798 122.146542 
L 536.768384 122.146542 
L 536.768384 203.274592 
Q 534.678469 215.766089 530.714094 225.279186 
Q 526.756901 234.792283 522.691981 234.792283 
Q 517.535421 234.792283 513.693137 221.411712 
Q 509.858035 207.986687 507.926121 183.048146 
Q 505.994206 158.109606 505.994206 128.814601 
Q 505.994206 96.985733 508.148758 72.269461 
Q 510.303309 47.55319 514.454412 34.350433 
Q 517.621603 24.214983 522.332889 24.214983 
Q 528.458997 24.214983 531.90628 40.129417 
Q 535.353562 55.999398 536.337474 84.049699 
L 529.744546 91.69574 
Q 529.047908 76.714834 527.123175 68.046357 
Q 525.205624 59.333427 522.332889 59.333427 
Q 517.980695 59.333427 515.409596 76.448112 
Q 512.838498 93.518342 512.838498 127.125359 
Q 512.838498 163.3996 515.438324 181.53672 
Q 518.045331 199.629386 522.268252 199.629386 
Q 524.358167 199.629386 526.455264 194.561661 
Q 528.552361 189.493937 530.053365 182.292433 
L 530.053365 156.464818 
L 522.447798 156.464818 
z
" clip-path="url(#p34264f1307)" style="fill: #ff69b4"/>
   </g>
   <g id="patch_72">
    <path d="M 538.388078 234.792283 
L 538.388078 24.214983 
L 548.020222 24.214983 
L 553.799508 167.863545 
L 559.516203 24.214983 
L 569.162256 24.214983 
L 569.162256 234.792283 
L 563.188241 234.792283 
L 563.188241 69.033335 
L 556.85954 234.792283 
L 550.669931 234.792283 
L 544.369048 69.033335 
L 544.369048 234.792283 
L 538.388078 234.792283 
z
" clip-path="url(#p34264f1307)" style="fill: #ff8c00"/>
   </g>
   <g id="patch_73">
    <path d="M 596.615992 192.002055 
Q 598.889388 202.000156 601.556128 207.924957 
L 599.282732 234.792283 
Q 597.889361 232.241328 596.555991 227.756582 
Q 596.262649 226.851404 592.449211 211.010791 
Q 589.449129 219.116248 585.802362 219.116248 
Q 578.762169 219.116248 574.768726 193.524399 
Q 570.78195 167.932551 570.78195 121.645043 
Q 570.78195 75.480969 574.78206 49.847976 
Q 578.78217 24.214983 585.635691 24.214983 
Q 592.429211 24.214983 596.40932 49.847976 
Q 600.389429 75.480969 600.389429 121.645043 
Q 600.389429 146.084847 599.282732 164.59985 
Q 598.449376 178.753541 596.615992 192.002055 
z
M 591.655856 170.524651 
Q 592.849222 161.884316 593.442572 149.705559 
Q 594.035922 137.485657 594.035922 121.645043 
Q 594.035922 89.017494 591.702524 72.888869 
Q 589.369127 56.7191 585.59569 56.7191 
Q 581.822253 56.7191 579.475522 72.930013 
Q 577.135458 89.140927 577.135458 121.645043 
Q 577.135458 154.684037 579.475522 171.100673 
Q 581.822253 187.476165 585.409018 187.476165 
Q 586.742388 187.476165 587.929087 184.801776 
Q 586.055703 177.190052 584.115649 172.952174 
L 585.84903 151.227904 
Q 588.889114 157.646438 591.655856 170.524651 
z
" clip-path="url(#p34264f1307)" style="fill: #0000ff"/>
   </g>
   <g id="patch_74">
    <path d="M 614.665412 234.792283 
L 614.665412 59.839827 
L 603.175822 59.839827 
L 603.175822 24.214983 
L 633.95 24.214983 
L 633.95 59.839827 
L 622.485773 59.839827 
L 622.485773 234.792283 
L 614.665412 234.792283 
z
" clip-path="url(#p34264f1307)" style="fill: #a0522d"/>
   </g>
   <g id="matplotlib.axis_1">
    <g id="xtick_1">
     <g id="line2d_2">
      <path d="M 67.867089 234.792283 
L 67.867089 24.214983 
" clip-path="url(#p34264f1307)" style="fill: none; stroke: #cccccc; stroke-width: 0.8; stroke-linecap: round"/>
     </g>
     <g id="text_1">
      <!-- 0 -->
      <g style="fill: #262626" transform="translate(63.974433 251.813221) scale(0.14 -0.14)">
       <defs>
        <path id="ArialMT-30" d="M 266 2259 
Q 266 3072 433 3567 
Q 600 4063 929 4331 
Q 1259 4600 1759 4600 
Q 2128 4600 2406 4451 
Q 2684 4303 2865 4023 
Q 3047 3744 3150 3342 
Q 3253 2941 3253 2259 
Q 3253 1453 3087 958 
Q 2922 463 2592 192 
Q 2263 -78 1759 -78 
Q 1097 -78 719 397 
Q 266 969 266 2259 
z
M 844 2259 
Q 844 1131 1108 757 
Q 1372 384 1759 384 
Q 2147 384 2411 759 
Q 2675 1134 2675 2259 
Q 2675 3391 2411 3762 
Q 2147 4134 1753 4134 
Q 1366 4134 1134 3806 
Q 844 3388 844 2259 
z
" transform="scale(0.015625)"/>
       </defs>
       <use xlink:href="#ArialMT-30"/>
      </g>
     </g>
    </g>
    <g id="xtick_2">
     <g id="line2d_3">
      <path d="M 100.260961 234.792283 
L 100.260961 24.214983 
" clip-path="url(#p34264f1307)" style="fill: none; stroke: #cccccc; stroke-width: 0.8; stroke-linecap: round"/>
     </g>
     <g id="text_2">
      <!-- 1 -->
      <g style="fill: #262626" transform="translate(96.368305 251.813221) scale(0.14 -0.14)">
       <defs>
        <path id="ArialMT-31" d="M 2384 0 
L 1822 0 
L 1822 3584 
Q 1619 3391 1289 3197 
Q 959 3003 697 2906 
L 697 3450 
Q 1169 3672 1522 3987 
Q 1875 4303 2022 4600 
L 2384 4600 
L 2384 0 
z
" transform="scale(0.015625)"/>
       </defs>
       <use xlink:href="#ArialMT-31"/>
      </g>
     </g>
    </g>
    <g id="xtick_3">
     <g id="line2d_4">
      <path d="M 132.654833 234.792283 
L 132.654833 24.214983 
" clip-path="url(#p34264f1307)" style="fill: none; stroke: #cccccc; stroke-width: 0.8; stroke-linecap: round"/>
     </g>
     <g id="text_3">
      <!-- 2 -->
      <g style="fill: #262626" transform="translate(128.762177 251.813221) scale(0.14 -0.14)">
       <defs>
        <path id="ArialMT-32" d="M 3222 541 
L 3222 0 
L 194 0 
Q 188 203 259 391 
Q 375 700 629 1000 
Q 884 1300 1366 1694 
Q 2113 2306 2375 2664 
Q 2638 3022 2638 3341 
Q 2638 3675 2398 3904 
Q 2159 4134 1775 4134 
Q 1369 4134 1125 3890 
Q 881 3647 878 3216 
L 300 3275 
Q 359 3922 746 4261 
Q 1134 4600 1788 4600 
Q 2447 4600 2831 4234 
Q 3216 3869 3216 3328 
Q 3216 3053 3103 2787 
Q 2991 2522 2730 2228 
Q 2469 1934 1863 1422 
Q 1356 997 1212 845 
Q 1069 694 975 541 
L 3222 541 
z
" transform="scale(0.015625)"/>
       </defs>
       <use xlink:href="#ArialMT-32"/>
      </g>
     </g>
    </g>
    <g id="xtick_4">
     <g id="line2d_5">
      <path d="M 165.048705 234.792283 
L 165.048705 24.214983 
" clip-path="url(#p34264f1307)" style="fill: none; stroke: #cccccc; stroke-width: 0.8; stroke-linecap: round"/>
     </g>
     <g id="text_4">
      <!-- 3 -->
      <g style="fill: #262626" transform="translate(161.156048 251.813221) scale(0.14 -0.14)">
       <defs>
        <path id="ArialMT-33" d="M 269 1209 
L 831 1284 
Q 928 806 1161 595 
Q 1394 384 1728 384 
Q 2125 384 2398 659 
Q 2672 934 2672 1341 
Q 2672 1728 2419 1979 
Q 2166 2231 1775 2231 
Q 1616 2231 1378 2169 
L 1441 2663 
Q 1497 2656 1531 2656 
Q 1891 2656 2178 2843 
Q 2466 3031 2466 3422 
Q 2466 3731 2256 3934 
Q 2047 4138 1716 4138 
Q 1388 4138 1169 3931 
Q 950 3725 888 3313 
L 325 3413 
Q 428 3978 793 4289 
Q 1159 4600 1703 4600 
Q 2078 4600 2393 4439 
Q 2709 4278 2876 4000 
Q 3044 3722 3044 3409 
Q 3044 3113 2884 2869 
Q 2725 2625 2413 2481 
Q 2819 2388 3044 2092 
Q 3269 1797 3269 1353 
Q 3269 753 2831 336 
Q 2394 -81 1725 -81 
Q 1122 -81 723 278 
Q 325 638 269 1209 
z
" transform="scale(0.015625)"/>
       </defs>
       <use xlink:href="#ArialMT-33"/>
      </g>
     </g>
    </g>
    <g id="xtick_5">
     <g id="line2d_6">
      <path d="M 197.442577 234.792283 
L 197.442577 24.214983 
" clip-path="url(#p34264f1307)" style="fill: none; stroke: #cccccc; stroke-width: 0.8; stroke-linecap: round"/>
     </g>
     <g id="text_5">
      <!-- 4 -->
      <g style="fill: #262626" transform="translate(193.54992 251.813221) scale(0.14 -0.14)">
       <defs>
        <path id="ArialMT-34" d="M 2069 0 
L 2069 1097 
L 81 1097 
L 81 1613 
L 2172 4581 
L 2631 4581 
L 2631 1613 
L 3250 1613 
L 3250 1097 
L 2631 1097 
L 2631 0 
L 2069 0 
z
M 2069 1613 
L 2069 3678 
L 634 1613 
L 2069 1613 
z
" transform="scale(0.015625)"/>
       </defs>
       <use xlink:href="#ArialMT-34"/>
      </g>
     </g>
    </g>
    <g id="xtick_6">
     <g id="line2d_7">
      <path d="M 229.836448 234.792283 
L 229.836448 24.214983 
" clip-path="url(#p34264f1307)" style="fill: none; stroke: #cccccc; stroke-width: 0.8; stroke-linecap: round"/>
     </g>
     <g id="text_6">
      <!-- 5 -->
      <g style="fill: #262626" transform="translate(225.943792 251.813221) scale(0.14 -0.14)">
       <defs>
        <path id="ArialMT-35" d="M 266 1200 
L 856 1250 
Q 922 819 1161 601 
Q 1400 384 1738 384 
Q 2144 384 2425 690 
Q 2706 997 2706 1503 
Q 2706 1984 2436 2262 
Q 2166 2541 1728 2541 
Q 1456 2541 1237 2417 
Q 1019 2294 894 2097 
L 366 2166 
L 809 4519 
L 3088 4519 
L 3088 3981 
L 1259 3981 
L 1013 2750 
Q 1425 3038 1878 3038 
Q 2478 3038 2890 2622 
Q 3303 2206 3303 1553 
Q 3303 931 2941 478 
Q 2500 -78 1738 -78 
Q 1113 -78 717 272 
Q 322 622 266 1200 
z
" transform="scale(0.015625)"/>
       </defs>
       <use xlink:href="#ArialMT-35"/>
      </g>
     </g>
    </g>
    <g id="xtick_7">
     <g id="line2d_8">
      <path d="M 262.23032 234.792283 
L 262.23032 24.214983 
" clip-path="url(#p34264f1307)" style="fill: none; stroke: #cccccc; stroke-width: 0.8; stroke-linecap: round"/>
     </g>
     <g id="text_7">
      <!-- 6 -->
      <g style="fill: #262626" transform="translate(258.337664 251.813221) scale(0.14 -0.14)">
       <defs>
        <path id="ArialMT-36" d="M 3184 3459 
L 2625 3416 
Q 2550 3747 2413 3897 
Q 2184 4138 1850 4138 
Q 1581 4138 1378 3988 
Q 1113 3794 959 3422 
Q 806 3050 800 2363 
Q 1003 2672 1297 2822 
Q 1591 2972 1913 2972 
Q 2475 2972 2870 2558 
Q 3266 2144 3266 1488 
Q 3266 1056 3080 686 
Q 2894 316 2569 119 
Q 2244 -78 1831 -78 
Q 1128 -78 684 439 
Q 241 956 241 2144 
Q 241 3472 731 4075 
Q 1159 4600 1884 4600 
Q 2425 4600 2770 4297 
Q 3116 3994 3184 3459 
z
M 888 1484 
Q 888 1194 1011 928 
Q 1134 663 1356 523 
Q 1578 384 1822 384 
Q 2178 384 2434 671 
Q 2691 959 2691 1453 
Q 2691 1928 2437 2201 
Q 2184 2475 1800 2475 
Q 1419 2475 1153 2201 
Q 888 1928 888 1484 
z
" transform="scale(0.015625)"/>
       </defs>
       <use xlink:href="#ArialMT-36"/>
      </g>
     </g>
    </g>
    <g id="xtick_8">
     <g id="line2d_9">
      <path d="M 294.624192 234.792283 
L 294.624192 24.214983 
" clip-path="url(#p34264f1307)" style="fill: none; stroke: #cccccc; stroke-width: 0.8; stroke-linecap: round"/>
     </g>
     <g id="text_8">
      <!-- 7 -->
      <g style="fill: #262626" transform="translate(290.731536 251.813221) scale(0.14 -0.14)">
       <defs>
        <path id="ArialMT-37" d="M 303 3981 
L 303 4522 
L 3269 4522 
L 3269 4084 
Q 2831 3619 2401 2847 
Q 1972 2075 1738 1259 
Q 1569 684 1522 0 
L 944 0 
Q 953 541 1156 1306 
Q 1359 2072 1739 2783 
Q 2119 3494 2547 3981 
L 303 3981 
z
" transform="scale(0.015625)"/>
       </defs>
       <use xlink:href="#ArialMT-37"/>
      </g>
     </g>
    </g>
    <g id="xtick_9">
     <g id="line2d_10">
      <path d="M 327.018064 234.792283 
L 327.018064 24.214983 
" clip-path="url(#p34264f1307)" style="fill: none; stroke: #cccccc; stroke-width: 0.8; stroke-linecap: round"/>
     </g>
     <g id="text_9">
      <!-- 8 -->
      <g style="fill: #262626" transform="translate(323.125408 251.813221) scale(0.14 -0.14)">
       <defs>
        <path id="ArialMT-38" d="M 1131 2484 
Q 781 2613 612 2850 
Q 444 3088 444 3419 
Q 444 3919 803 4259 
Q 1163 4600 1759 4600 
Q 2359 4600 2725 4251 
Q 3091 3903 3091 3403 
Q 3091 3084 2923 2848 
Q 2756 2613 2416 2484 
Q 2838 2347 3058 2040 
Q 3278 1734 3278 1309 
Q 3278 722 2862 322 
Q 2447 -78 1769 -78 
Q 1091 -78 675 323 
Q 259 725 259 1325 
Q 259 1772 486 2073 
Q 713 2375 1131 2484 
z
M 1019 3438 
Q 1019 3113 1228 2906 
Q 1438 2700 1772 2700 
Q 2097 2700 2305 2904 
Q 2513 3109 2513 3406 
Q 2513 3716 2298 3927 
Q 2084 4138 1766 4138 
Q 1444 4138 1231 3931 
Q 1019 3725 1019 3438 
z
M 838 1322 
Q 838 1081 952 856 
Q 1066 631 1291 507 
Q 1516 384 1775 384 
Q 2178 384 2440 643 
Q 2703 903 2703 1303 
Q 2703 1709 2433 1975 
Q 2163 2241 1756 2241 
Q 1359 2241 1098 1978 
Q 838 1716 838 1322 
z
" transform="scale(0.015625)"/>
       </defs>
       <use xlink:href="#ArialMT-38"/>
      </g>
     </g>
    </g>
    <g id="xtick_10">
     <g id="line2d_11">
      <path d="M 359.411936 234.792283 
L 359.411936 24.214983 
" clip-path="url(#p34264f1307)" style="fill: none; stroke: #cccccc; stroke-width: 0.8; stroke-linecap: round"/>
     </g>
     <g id="text_10">
      <!-- 9 -->
      <g style="fill: #262626" transform="translate(355.51928 251.813221) scale(0.14 -0.14)">
       <defs>
        <path id="ArialMT-39" d="M 350 1059 
L 891 1109 
Q 959 728 1153 556 
Q 1347 384 1650 384 
Q 1909 384 2104 503 
Q 2300 622 2425 820 
Q 2550 1019 2634 1356 
Q 2719 1694 2719 2044 
Q 2719 2081 2716 2156 
Q 2547 1888 2255 1720 
Q 1963 1553 1622 1553 
Q 1053 1553 659 1965 
Q 266 2378 266 3053 
Q 266 3750 677 4175 
Q 1088 4600 1706 4600 
Q 2153 4600 2523 4359 
Q 2894 4119 3086 3673 
Q 3278 3228 3278 2384 
Q 3278 1506 3087 986 
Q 2897 466 2520 194 
Q 2144 -78 1638 -78 
Q 1100 -78 759 220 
Q 419 519 350 1059 
z
M 2653 3081 
Q 2653 3566 2395 3850 
Q 2138 4134 1775 4134 
Q 1400 4134 1122 3828 
Q 844 3522 844 3034 
Q 844 2597 1108 2323 
Q 1372 2050 1759 2050 
Q 2150 2050 2401 2323 
Q 2653 2597 2653 3081 
z
" transform="scale(0.015625)"/>
       </defs>
       <use xlink:href="#ArialMT-39"/>
      </g>
     </g>
    </g>
    <g id="xtick_11">
     <g id="line2d_12">
      <path d="M 391.805808 234.792283 
L 391.805808 24.214983 
" clip-path="url(#p34264f1307)" style="fill: none; stroke: #cccccc; stroke-width: 0.8; stroke-linecap: round"/>
     </g>
     <g id="text_11">
      <!-- 10 -->
      <g style="fill: #262626" transform="translate(384.020495 251.813221) scale(0.14 -0.14)">
       <use xlink:href="#ArialMT-31"/>
       <use xlink:href="#ArialMT-30" transform="translate(55.615234 0)"/>
      </g>
     </g>
    </g>
    <g id="xtick_12">
     <g id="line2d_13">
      <path d="M 424.19968 234.792283 
L 424.19968 24.214983 
" clip-path="url(#p34264f1307)" style="fill: none; stroke: #cccccc; stroke-width: 0.8; stroke-linecap: round"/>
     </g>
     <g id="text_12">
      <!-- 11 -->
      <g style="fill: #262626" transform="translate(416.930617 251.813221) scale(0.14 -0.14)">
       <use xlink:href="#ArialMT-31"/>
       <use xlink:href="#ArialMT-31" transform="translate(48.240234 0)"/>
      </g>
     </g>
    </g>
    <g id="xtick_13">
     <g id="line2d_14">
      <path d="M 456.593552 234.792283 
L 456.593552 24.214983 
" clip-path="url(#p34264f1307)" style="fill: none; stroke: #cccccc; stroke-width: 0.8; stroke-linecap: round"/>
     </g>
     <g id="text_13">
      <!-- 12 -->
      <g style="fill: #262626" transform="translate(448.808239 251.813221) scale(0.14 -0.14)">
       <use xlink:href="#ArialMT-31"/>
       <use xlink:href="#ArialMT-32" transform="translate(55.615234 0)"/>
      </g>
     </g>
    </g>
    <g id="xtick_14">
     <g id="line2d_15">
      <path d="M 488.987423 234.792283 
L 488.987423 24.214983 
" clip-path="url(#p34264f1307)" style="fill: none; stroke: #cccccc; stroke-width: 0.8; stroke-linecap: round"/>
     </g>
     <g id="text_14">
      <!-- 13 -->
      <g style="fill: #262626" transform="translate(481.202111 251.813221) scale(0.14 -0.14)">
       <use xlink:href="#ArialMT-31"/>
       <use xlink:href="#ArialMT-33" transform="translate(55.615234 0)"/>
      </g>
     </g>
    </g>
    <g id="xtick_15">
     <g id="line2d_16">
      <path d="M 521.381295 234.792283 
L 521.381295 24.214983 
" clip-path="url(#p34264f1307)" style="fill: none; stroke: #cccccc; stroke-width: 0.8; stroke-linecap: round"/>
     </g>
     <g id="text_15">
      <!-- 14 -->
      <g style="fill: #262626" transform="translate(513.595983 251.813221) scale(0.14 -0.14)">
       <use xlink:href="#ArialMT-31"/>
       <use xlink:href="#ArialMT-34" transform="translate(55.615234 0)"/>
      </g>
     </g>
    </g>
    <g id="xtick_16">
     <g id="line2d_17">
      <path d="M 553.775167 234.792283 
L 553.775167 24.214983 
" clip-path="url(#p34264f1307)" style="fill: none; stroke: #cccccc; stroke-width: 0.8; stroke-linecap: round"/>
     </g>
     <g id="text_16">
      <!-- 15 -->
      <g style="fill: #262626" transform="translate(545.989855 251.813221) scale(0.14 -0.14)">
       <use xlink:href="#ArialMT-31"/>
       <use xlink:href="#ArialMT-35" transform="translate(55.615234 0)"/>
      </g>
     </g>
    </g>
    <g id="xtick_17">
     <g id="line2d_18">
      <path d="M 586.169039 234.792283 
L 586.169039 24.214983 
" clip-path="url(#p34264f1307)" style="fill: none; stroke: #cccccc; stroke-width: 0.8; stroke-linecap: round"/>
     </g>
     <g id="text_17">
      <!-- 16 -->
      <g style="fill: #262626" transform="translate(578.383726 251.813221) scale(0.14 -0.14)">
       <use xlink:href="#ArialMT-31"/>
       <use xlink:href="#ArialMT-36" transform="translate(55.615234 0)"/>
      </g>
     </g>
    </g>
    <g id="xtick_18">
     <g id="line2d_19">
      <path d="M 618.562911 234.792283 
L 618.562911 24.214983 
" clip-path="url(#p34264f1307)" style="fill: none; stroke: #cccccc; stroke-width: 0.8; stroke-linecap: round"/>
     </g>
     <g id="text_18">
      <!-- 17 -->
      <g style="fill: #262626" transform="translate(610.777598 251.813221) scale(0.14 -0.14)">
       <use xlink:href="#ArialMT-31"/>
       <use xlink:href="#ArialMT-37" transform="translate(55.615234 0)"/>
      </g>
     </g>
    </g>
    <g id="text_19">
     <!-- Original Position -->
     <g style="fill: #262626" transform="translate(284.9675 270.253221) scale(0.16 -0.16)">
      <defs>
       <path id="ArialMT-4f" d="M 309 2231 
Q 309 3372 921 4017 
Q 1534 4663 2503 4663 
Q 3138 4663 3647 4359 
Q 4156 4056 4423 3514 
Q 4691 2972 4691 2284 
Q 4691 1588 4409 1038 
Q 4128 488 3612 205 
Q 3097 -78 2500 -78 
Q 1853 -78 1343 234 
Q 834 547 571 1087 
Q 309 1628 309 2231 
z
M 934 2222 
Q 934 1394 1379 917 
Q 1825 441 2497 441 
Q 3181 441 3623 922 
Q 4066 1403 4066 2288 
Q 4066 2847 3877 3264 
Q 3688 3681 3323 3911 
Q 2959 4141 2506 4141 
Q 1863 4141 1398 3698 
Q 934 3256 934 2222 
z
" transform="scale(0.015625)"/>
       <path id="ArialMT-72" d="M 416 0 
L 416 3319 
L 922 3319 
L 922 2816 
Q 1116 3169 1280 3281 
Q 1444 3394 1641 3394 
Q 1925 3394 2219 3213 
L 2025 2691 
Q 1819 2813 1613 2813 
Q 1428 2813 1281 2702 
Q 1134 2591 1072 2394 
Q 978 2094 978 1738 
L 978 0 
L 416 0 
z
" transform="scale(0.015625)"/>
       <path id="ArialMT-69" d="M 425 3934 
L 425 4581 
L 988 4581 
L 988 3934 
L 425 3934 
z
M 425 0 
L 425 3319 
L 988 3319 
L 988 0 
L 425 0 
z
" transform="scale(0.015625)"/>
       <path id="ArialMT-67" d="M 319 -275 
L 866 -356 
Q 900 -609 1056 -725 
Q 1266 -881 1628 -881 
Q 2019 -881 2231 -725 
Q 2444 -569 2519 -288 
Q 2563 -116 2559 434 
Q 2191 0 1641 0 
Q 956 0 581 494 
Q 206 988 206 1678 
Q 206 2153 378 2554 
Q 550 2956 876 3175 
Q 1203 3394 1644 3394 
Q 2231 3394 2613 2919 
L 2613 3319 
L 3131 3319 
L 3131 450 
Q 3131 -325 2973 -648 
Q 2816 -972 2473 -1159 
Q 2131 -1347 1631 -1347 
Q 1038 -1347 672 -1080 
Q 306 -813 319 -275 
z
M 784 1719 
Q 784 1066 1043 766 
Q 1303 466 1694 466 
Q 2081 466 2343 764 
Q 2606 1063 2606 1700 
Q 2606 2309 2336 2618 
Q 2066 2928 1684 2928 
Q 1309 2928 1046 2623 
Q 784 2319 784 1719 
z
" transform="scale(0.015625)"/>
       <path id="ArialMT-6e" d="M 422 0 
L 422 3319 
L 928 3319 
L 928 2847 
Q 1294 3394 1984 3394 
Q 2284 3394 2536 3286 
Q 2788 3178 2913 3003 
Q 3038 2828 3088 2588 
Q 3119 2431 3119 2041 
L 3119 0 
L 2556 0 
L 2556 2019 
Q 2556 2363 2490 2533 
Q 2425 2703 2258 2804 
Q 2091 2906 1866 2906 
Q 1506 2906 1245 2678 
Q 984 2450 984 1813 
L 984 0 
L 422 0 
z
" transform="scale(0.015625)"/>
       <path id="ArialMT-61" d="M 2588 409 
Q 2275 144 1986 34 
Q 1697 -75 1366 -75 
Q 819 -75 525 192 
Q 231 459 231 875 
Q 231 1119 342 1320 
Q 453 1522 633 1644 
Q 813 1766 1038 1828 
Q 1203 1872 1538 1913 
Q 2219 1994 2541 2106 
Q 2544 2222 2544 2253 
Q 2544 2597 2384 2738 
Q 2169 2928 1744 2928 
Q 1347 2928 1158 2789 
Q 969 2650 878 2297 
L 328 2372 
Q 403 2725 575 2942 
Q 747 3159 1072 3276 
Q 1397 3394 1825 3394 
Q 2250 3394 2515 3294 
Q 2781 3194 2906 3042 
Q 3031 2891 3081 2659 
Q 3109 2516 3109 2141 
L 3109 1391 
Q 3109 606 3145 398 
Q 3181 191 3288 0 
L 2700 0 
Q 2613 175 2588 409 
z
M 2541 1666 
Q 2234 1541 1622 1453 
Q 1275 1403 1131 1340 
Q 988 1278 909 1158 
Q 831 1038 831 891 
Q 831 666 1001 516 
Q 1172 366 1500 366 
Q 1825 366 2078 508 
Q 2331 650 2450 897 
Q 2541 1088 2541 1459 
L 2541 1666 
z
" transform="scale(0.015625)"/>
       <path id="ArialMT-6c" d="M 409 0 
L 409 4581 
L 972 4581 
L 972 0 
L 409 0 
z
" transform="scale(0.015625)"/>
       <path id="ArialMT-20" transform="scale(0.015625)"/>
       <path id="ArialMT-50" d="M 494 0 
L 494 4581 
L 2222 4581 
Q 2678 4581 2919 4538 
Q 3256 4481 3484 4323 
Q 3713 4166 3852 3881 
Q 3991 3597 3991 3256 
Q 3991 2672 3619 2267 
Q 3247 1863 2275 1863 
L 1100 1863 
L 1100 0 
L 494 0 
z
M 1100 2403 
L 2284 2403 
Q 2872 2403 3119 2622 
Q 3366 2841 3366 3238 
Q 3366 3525 3220 3729 
Q 3075 3934 2838 4000 
Q 2684 4041 2272 4041 
L 1100 4041 
L 1100 2403 
z
" transform="scale(0.015625)"/>
       <path id="ArialMT-6f" d="M 213 1659 
Q 213 2581 725 3025 
Q 1153 3394 1769 3394 
Q 2453 3394 2887 2945 
Q 3322 2497 3322 1706 
Q 3322 1066 3130 698 
Q 2938 331 2570 128 
Q 2203 -75 1769 -75 
Q 1072 -75 642 372 
Q 213 819 213 1659 
z
M 791 1659 
Q 791 1022 1069 705 
Q 1347 388 1769 388 
Q 2188 388 2466 706 
Q 2744 1025 2744 1678 
Q 2744 2294 2464 2611 
Q 2184 2928 1769 2928 
Q 1347 2928 1069 2612 
Q 791 2297 791 1659 
z
" transform="scale(0.015625)"/>
       <path id="ArialMT-73" d="M 197 991 
L 753 1078 
Q 800 744 1014 566 
Q 1228 388 1613 388 
Q 2000 388 2187 545 
Q 2375 703 2375 916 
Q 2375 1106 2209 1216 
Q 2094 1291 1634 1406 
Q 1016 1563 777 1677 
Q 538 1791 414 1992 
Q 291 2194 291 2438 
Q 291 2659 392 2848 
Q 494 3038 669 3163 
Q 800 3259 1026 3326 
Q 1253 3394 1513 3394 
Q 1903 3394 2198 3281 
Q 2494 3169 2634 2976 
Q 2775 2784 2828 2463 
L 2278 2388 
Q 2241 2644 2061 2787 
Q 1881 2931 1553 2931 
Q 1166 2931 1000 2803 
Q 834 2675 834 2503 
Q 834 2394 903 2306 
Q 972 2216 1119 2156 
Q 1203 2125 1616 2013 
Q 2213 1853 2448 1751 
Q 2684 1650 2818 1456 
Q 2953 1263 2953 975 
Q 2953 694 2789 445 
Q 2625 197 2315 61 
Q 2006 -75 1616 -75 
Q 969 -75 630 194 
Q 291 463 197 991 
z
" transform="scale(0.015625)"/>
       <path id="ArialMT-74" d="M 1650 503 
L 1731 6 
Q 1494 -44 1306 -44 
Q 1000 -44 831 53 
Q 663 150 594 308 
Q 525 466 525 972 
L 525 2881 
L 113 2881 
L 113 3319 
L 525 3319 
L 525 4141 
L 1084 4478 
L 1084 3319 
L 1650 3319 
L 1650 2881 
L 1084 2881 
L 1084 941 
Q 1084 700 1114 631 
Q 1144 563 1211 522 
Q 1278 481 1403 481 
Q 1497 481 1650 503 
z
" transform="scale(0.015625)"/>
      </defs>
      <use xlink:href="#ArialMT-4f"/>
      <use xlink:href="#ArialMT-72" transform="translate(77.783203 0)"/>
      <use xlink:href="#ArialMT-69" transform="translate(111.083984 0)"/>
      <use xlink:href="#ArialMT-67" transform="translate(133.300781 0)"/>
      <use xlink:href="#ArialMT-69" transform="translate(188.916016 0)"/>
      <use xlink:href="#ArialMT-6e" transform="translate(211.132812 0)"/>
      <use xlink:href="#ArialMT-61" transform="translate(266.748047 0)"/>
      <use xlink:href="#ArialMT-6c" transform="translate(322.363281 0)"/>
      <use xlink:href="#ArialMT-20" transform="translate(344.580078 0)"/>
      <use xlink:href="#ArialMT-50" transform="translate(372.363281 0)"/>
      <use xlink:href="#ArialMT-6f" transform="translate(439.0625 0)"/>
      <use xlink:href="#ArialMT-73" transform="translate(494.677734 0)"/>
      <use xlink:href="#ArialMT-69" transform="translate(544.677734 0)"/>
      <use xlink:href="#ArialMT-74" transform="translate(566.894531 0)"/>
      <use xlink:href="#ArialMT-69" transform="translate(594.677734 0)"/>
      <use xlink:href="#ArialMT-6f" transform="translate(616.894531 0)"/>
      <use xlink:href="#ArialMT-6e" transform="translate(672.509766 0)"/>
     </g>
    </g>
   </g>
   <g id="matplotlib.axis_2">
    <g id="ytick_1">
     <g id="line2d_20">
      <path d="M 52.48 234.792283 
L 633.95 234.792283 
" clip-path="url(#p34264f1307)" style="fill: none; stroke: #cccccc; stroke-width: 0.8; stroke-linecap: round"/>
     </g>
     <g id="text_20">
      <!-- 0.0 -->
      <g style="fill: #262626" transform="translate(26.02 239.802752) scale(0.14 -0.14)">
       <defs>
        <path id="ArialMT-2e" d="M 581 0 
L 581 641 
L 1222 641 
L 1222 0 
L 581 0 
z
" transform="scale(0.015625)"/>
       </defs>
       <use xlink:href="#ArialMT-30"/>
       <use xlink:href="#ArialMT-2e" transform="translate(55.615234 0)"/>
       <use xlink:href="#ArialMT-30" transform="translate(83.398438 0)"/>
      </g>
     </g>
    </g>
    <g id="ytick_2">
     <g id="line2d_21">
      <path d="M 52.48 192.676823 
L 633.95 192.676823 
" clip-path="url(#p34264f1307)" style="fill: none; stroke: #cccccc; stroke-width: 0.8; stroke-linecap: round"/>
     </g>
     <g id="text_21">
      <!-- 0.2 -->
      <g style="fill: #262626" transform="translate(26.02 197.687292) scale(0.14 -0.14)">
       <use xlink:href="#ArialMT-30"/>
       <use xlink:href="#ArialMT-2e" transform="translate(55.615234 0)"/>
       <use xlink:href="#ArialMT-32" transform="translate(83.398438 0)"/>
      </g>
     </g>
    </g>
    <g id="ytick_3">
     <g id="line2d_22">
      <path d="M 52.48 150.561363 
L 633.95 150.561363 
" clip-path="url(#p34264f1307)" style="fill: none; stroke: #cccccc; stroke-width: 0.8; stroke-linecap: round"/>
     </g>
     <g id="text_22">
      <!-- 0.4 -->
      <g style="fill: #262626" transform="translate(26.02 155.571832) scale(0.14 -0.14)">
       <use xlink:href="#ArialMT-30"/>
       <use xlink:href="#ArialMT-2e" transform="translate(55.615234 0)"/>
       <use xlink:href="#ArialMT-34" transform="translate(83.398438 0)"/>
      </g>
     </g>
    </g>
    <g id="ytick_4">
     <g id="line2d_23">
      <path d="M 52.48 108.445903 
L 633.95 108.445903 
" clip-path="url(#p34264f1307)" style="fill: none; stroke: #cccccc; stroke-width: 0.8; stroke-linecap: round"/>
     </g>
     <g id="text_23">
      <!-- 0.6 -->
      <g style="fill: #262626" transform="translate(26.02 113.456372) scale(0.14 -0.14)">
       <use xlink:href="#ArialMT-30"/>
       <use xlink:href="#ArialMT-2e" transform="translate(55.615234 0)"/>
       <use xlink:href="#ArialMT-36" transform="translate(83.398438 0)"/>
      </g>
     </g>
    </g>
    <g id="ytick_5">
     <g id="line2d_24">
      <path d="M 52.48 66.330443 
L 633.95 66.330443 
" clip-path="url(#p34264f1307)" style="fill: none; stroke: #cccccc; stroke-width: 0.8; stroke-linecap: round"/>
     </g>
     <g id="text_24">
      <!-- 0.8 -->
      <g style="fill: #262626" transform="translate(26.02 71.340912) scale(0.14 -0.14)">
       <use xlink:href="#ArialMT-30"/>
       <use xlink:href="#ArialMT-2e" transform="translate(55.615234 0)"/>
       <use xlink:href="#ArialMT-38" transform="translate(83.398438 0)"/>
      </g>
     </g>
    </g>
    <g id="ytick_6">
     <g id="line2d_25">
      <path d="M 52.48 24.214983 
L 633.95 24.214983 
" clip-path="url(#p34264f1307)" style="fill: none; stroke: #cccccc; stroke-width: 0.8; stroke-linecap: round"/>
     </g>
     <g id="text_25">
      <!-- 1.0 -->
      <g style="fill: #262626" transform="translate(26.02 29.225452) scale(0.14 -0.14)">
       <use xlink:href="#ArialMT-31"/>
       <use xlink:href="#ArialMT-2e" transform="translate(55.615234 0)"/>
       <use xlink:href="#ArialMT-30" transform="translate(83.398438 0)"/>
      </g>
     </g>
    </g>
    <g id="text_26">
     <!-- Frequency -->
     <g style="fill: #262626" transform="translate(18.6525 167.297383) rotate(-90) scale(0.16 -0.16)">
      <defs>
       <path id="ArialMT-46" d="M 525 0 
L 525 4581 
L 3616 4581 
L 3616 4041 
L 1131 4041 
L 1131 2622 
L 3281 2622 
L 3281 2081 
L 1131 2081 
L 1131 0 
L 525 0 
z
" transform="scale(0.015625)"/>
       <path id="ArialMT-65" d="M 2694 1069 
L 3275 997 
Q 3138 488 2766 206 
Q 2394 -75 1816 -75 
Q 1088 -75 661 373 
Q 234 822 234 1631 
Q 234 2469 665 2931 
Q 1097 3394 1784 3394 
Q 2450 3394 2872 2941 
Q 3294 2488 3294 1666 
Q 3294 1616 3291 1516 
L 816 1516 
Q 847 969 1125 678 
Q 1403 388 1819 388 
Q 2128 388 2347 550 
Q 2566 713 2694 1069 
z
M 847 1978 
L 2700 1978 
Q 2663 2397 2488 2606 
Q 2219 2931 1791 2931 
Q 1403 2931 1139 2672 
Q 875 2413 847 1978 
z
" transform="scale(0.015625)"/>
       <path id="ArialMT-71" d="M 2538 -1272 
L 2538 353 
Q 2406 169 2170 47 
Q 1934 -75 1669 -75 
Q 1078 -75 651 397 
Q 225 869 225 1691 
Q 225 2191 398 2587 
Q 572 2984 901 3189 
Q 1231 3394 1625 3394 
Q 2241 3394 2594 2875 
L 2594 3319 
L 3100 3319 
L 3100 -1272 
L 2538 -1272 
z
M 803 1669 
Q 803 1028 1072 708 
Q 1341 388 1716 388 
Q 2075 388 2334 692 
Q 2594 997 2594 1619 
Q 2594 2281 2320 2615 
Q 2047 2950 1678 2950 
Q 1313 2950 1058 2639 
Q 803 2328 803 1669 
z
" transform="scale(0.015625)"/>
       <path id="ArialMT-75" d="M 2597 0 
L 2597 488 
Q 2209 -75 1544 -75 
Q 1250 -75 995 37 
Q 741 150 617 320 
Q 494 491 444 738 
Q 409 903 409 1263 
L 409 3319 
L 972 3319 
L 972 1478 
Q 972 1038 1006 884 
Q 1059 663 1231 536 
Q 1403 409 1656 409 
Q 1909 409 2131 539 
Q 2353 669 2445 892 
Q 2538 1116 2538 1541 
L 2538 3319 
L 3100 3319 
L 3100 0 
L 2597 0 
z
" transform="scale(0.015625)"/>
       <path id="ArialMT-63" d="M 2588 1216 
L 3141 1144 
Q 3050 572 2676 248 
Q 2303 -75 1759 -75 
Q 1078 -75 664 370 
Q 250 816 250 1647 
Q 250 2184 428 2587 
Q 606 2991 970 3192 
Q 1334 3394 1763 3394 
Q 2303 3394 2647 3120 
Q 2991 2847 3088 2344 
L 2541 2259 
Q 2463 2594 2264 2762 
Q 2066 2931 1784 2931 
Q 1359 2931 1093 2626 
Q 828 2322 828 1663 
Q 828 994 1084 691 
Q 1341 388 1753 388 
Q 2084 388 2306 591 
Q 2528 794 2588 1216 
z
" transform="scale(0.015625)"/>
       <path id="ArialMT-79" d="M 397 -1278 
L 334 -750 
Q 519 -800 656 -800 
Q 844 -800 956 -737 
Q 1069 -675 1141 -563 
Q 1194 -478 1313 -144 
Q 1328 -97 1363 -6 
L 103 3319 
L 709 3319 
L 1400 1397 
Q 1534 1031 1641 628 
Q 1738 1016 1872 1384 
L 2581 3319 
L 3144 3319 
L 1881 -56 
Q 1678 -603 1566 -809 
Q 1416 -1088 1222 -1217 
Q 1028 -1347 759 -1347 
Q 597 -1347 397 -1278 
z
" transform="scale(0.015625)"/>
      </defs>
      <use xlink:href="#ArialMT-46"/>
      <use xlink:href="#ArialMT-72" transform="translate(61.083984 0)"/>
      <use xlink:href="#ArialMT-65" transform="translate(94.384766 0)"/>
      <use xlink:href="#ArialMT-71" transform="translate(150 0)"/>
      <use xlink:href="#ArialMT-75" transform="translate(205.615234 0)"/>
      <use xlink:href="#ArialMT-65" transform="translate(261.230469 0)"/>
      <use xlink:href="#ArialMT-6e" transform="translate(316.845703 0)"/>
      <use xlink:href="#ArialMT-63" transform="translate(372.460938 0)"/>
      <use xlink:href="#ArialMT-79" transform="translate(422.460938 0)"/>
     </g>
    </g>
   </g>
   <g id="patch_75">
    <path d="M 52.48 234.792283 
L 52.48 24.214983 
" style="fill: none; stroke: #cccccc; stroke-width: 0.8; stroke-linejoin: miter; stroke-linecap: square"/>
   </g>
   <g id="patch_76">
    <path d="M 633.95 234.792283 
L 633.95 24.214983 
" style="fill: none; stroke: #cccccc; stroke-width: 0.8; stroke-linejoin: miter; stroke-linecap: square"/>
   </g>
   <g id="patch_77">
    <path d="M 52.48 234.792283 
L 633.95 234.792283 
" style="fill: none; stroke: #cccccc; stroke-width: 0.8; stroke-linejoin: miter; stroke-linecap: square"/>
   </g>
   <g id="patch_78">
    <path d="M 52.48 24.214983 
L 633.95 24.214983 
" style="fill: none; stroke: #cccccc; stroke-width: 0.8; stroke-linejoin: miter; stroke-linecap: square"/>
   </g>
   <g id="text_27">
    <!-- 16 -->
    <g style="fill: #000080; opacity: 0.6" transform="translate(60.081777 17.220937) scale(0.14 -0.14)">
     <defs>
      <path id="Arial-ItalicMT-31" d="M 1541 0 
L 2266 3459 
Q 1797 3091 947 2869 
L 1053 3381 
Q 1475 3550 1886 3822 
Q 2297 4094 2503 4297 
Q 2628 4422 2741 4600 
L 3069 4600 
L 2109 0 
L 1541 0 
z
" transform="scale(0.015625)"/>
      <path id="Arial-ItalicMT-36" d="M 1288 2656 
Q 1525 2853 1761 2951 
Q 1997 3050 2228 3050 
Q 2750 3050 3090 2694 
Q 3431 2338 3431 1734 
Q 3431 956 2925 400 
Q 2488 -78 1863 -78 
Q 1294 -78 914 339 
Q 534 756 534 1528 
Q 534 2219 778 2956 
Q 966 3522 1242 3889 
Q 1519 4256 1830 4428 
Q 2141 4600 2531 4600 
Q 3000 4600 3297 4308 
Q 3594 4016 3634 3472 
L 3109 3422 
Q 3066 3794 2898 3959 
Q 2731 4125 2491 4125 
Q 2238 4125 1981 3928 
Q 1725 3731 1540 3345 
Q 1356 2959 1288 2656 
z
M 1091 1288 
Q 1091 900 1331 636 
Q 1572 372 1875 372 
Q 2088 372 2325 533 
Q 2563 694 2728 1022 
Q 2894 1350 2894 1675 
Q 2894 2094 2664 2345 
Q 2434 2597 2109 2597 
Q 1734 2597 1412 2230 
Q 1091 1863 1091 1288 
z
" transform="scale(0.015625)"/>
     </defs>
     <use xlink:href="#Arial-ItalicMT-31"/>
     <use xlink:href="#Arial-ItalicMT-36" transform="translate(55.615234 0)"/>
    </g>
   </g>
   <g id="text_28">
    <!-- 16 -->
    <g style="fill: #000080; opacity: 0.6" transform="translate(92.475649 17.220937) scale(0.14 -0.14)">
     <use xlink:href="#Arial-ItalicMT-31"/>
     <use xlink:href="#Arial-ItalicMT-36" transform="translate(55.615234 0)"/>
    </g>
   </g>
   <g id="text_29">
    <!-- 16 -->
    <g style="fill: #000080; opacity: 0.6" transform="translate(124.86952 17.220937) scale(0.14 -0.14)">
     <use xlink:href="#Arial-ItalicMT-31"/>
     <use xlink:href="#Arial-ItalicMT-36" transform="translate(55.615234 0)"/>
    </g>
   </g>
   <g id="text_30">
    <!-- 16 -->
    <g style="fill: #000080; opacity: 0.6" transform="translate(157.263392 17.220937) scale(0.14 -0.14)">
     <use xlink:href="#Arial-ItalicMT-31"/>
     <use xlink:href="#Arial-ItalicMT-36" transform="translate(55.615234 0)"/>
    </g>
   </g>
   <g id="text_31">
    <!-- 16 -->
    <g style="fill: #000080; opacity: 0.6" transform="translate(189.657264 17.220937) scale(0.14 -0.14)">
     <use xlink:href="#Arial-ItalicMT-31"/>
     <use xlink:href="#Arial-ItalicMT-36" transform="translate(55.615234 0)"/>
    </g>
   </g>
   <g id="text_32">
    <!-- 16 -->
    <g style="fill: #000080; opacity: 0.6" transform="translate(222.051136 17.220937) scale(0.14 -0.14)">
     <use xlink:href="#Arial-ItalicMT-31"/>
     <use xlink:href="#Arial-ItalicMT-36" transform="translate(55.615234 0)"/>
    </g>
   </g>
   <g id="text_33">
    <!-- 14 -->
    <g style="fill: #000080; opacity: 0.6" transform="translate(254.445008 17.220937) scale(0.14 -0.14)">
     <defs>
      <path id="Arial-ItalicMT-34" d="M 1913 0 
L 2159 1169 
L 291 1169 
L 409 1728 
L 2975 4581 
L 3438 4581 
L 2828 1669 
L 3472 1669 
L 3369 1169 
L 2725 1169 
L 2478 0 
L 1913 0 
z
M 2263 1669 
L 2663 3581 
L 956 1669 
L 2263 1669 
z
" transform="scale(0.015625)"/>
     </defs>
     <use xlink:href="#Arial-ItalicMT-31"/>
     <use xlink:href="#Arial-ItalicMT-34" transform="translate(55.615234 0)"/>
    </g>
   </g>
   <g id="text_34">
    <!-- 13 -->
    <g style="fill: #000080; opacity: 0.6" transform="translate(286.83888 17.220937) scale(0.14 -0.14)">
     <defs>
      <path id="Arial-ItalicMT-33" d="M 350 1200 
L 900 1269 
Q 963 788 1177 580 
Q 1391 372 1738 372 
Q 2156 372 2461 672 
Q 2766 972 2766 1359 
Q 2766 1697 2537 1917 
Q 2309 2138 1925 2138 
Q 1881 2138 1744 2125 
L 1841 2597 
Q 1922 2584 1997 2584 
Q 2481 2584 2742 2820 
Q 3003 3056 3003 3400 
Q 3003 3716 2789 3931 
Q 2575 4147 2266 4147 
Q 1963 4147 1720 3926 
Q 1478 3706 1409 3303 
L 853 3416 
Q 991 3981 1381 4290 
Q 1772 4600 2306 4600 
Q 2869 4600 3217 4259 
Q 3566 3919 3566 3422 
Q 3566 3059 3377 2789 
Q 3188 2519 2809 2341 
Q 3078 2181 3211 1956 
Q 3344 1731 3344 1441 
Q 3344 825 2883 373 
Q 2422 -78 1781 -78 
Q 1159 -78 776 270 
Q 394 619 350 1200 
z
" transform="scale(0.015625)"/>
     </defs>
     <use xlink:href="#Arial-ItalicMT-31"/>
     <use xlink:href="#Arial-ItalicMT-33" transform="translate(55.615234 0)"/>
    </g>
   </g>
   <g id="text_35">
    <!-- 8 -->
    <g style="fill: #000080; opacity: 0.6" transform="translate(323.125408 17.220937) scale(0.14 -0.14)">
     <defs>
      <path id="Arial-ItalicMT-38" d="M 1444 2519 
Q 1188 2659 1059 2879 
Q 931 3100 931 3353 
Q 931 3769 1231 4122 
Q 1631 4600 2316 4600 
Q 2919 4600 3266 4276 
Q 3613 3953 3613 3484 
Q 3613 3150 3425 2881 
Q 3238 2613 2838 2453 
Q 3113 2281 3231 2088 
Q 3384 1834 3384 1497 
Q 3384 881 2948 400 
Q 2513 -81 1788 -81 
Q 1209 -81 843 275 
Q 478 631 478 1166 
Q 478 1669 737 2030 
Q 997 2391 1444 2519 
z
M 1488 3328 
Q 1488 3034 1677 2854 
Q 1866 2675 2197 2675 
Q 2584 2675 2826 2911 
Q 3069 3147 3069 3491 
Q 3069 3781 2880 3964 
Q 2691 4147 2359 4147 
Q 2109 4147 1900 4031 
Q 1691 3916 1589 3717 
Q 1488 3519 1488 3328 
z
M 1047 1119 
Q 1047 928 1139 753 
Q 1231 578 1418 475 
Q 1606 372 1847 372 
Q 2306 372 2591 803 
Q 2816 1141 2816 1531 
Q 2816 1850 2608 2053 
Q 2400 2256 2063 2256 
Q 1638 2256 1342 1940 
Q 1047 1625 1047 1119 
z
" transform="scale(0.015625)"/>
     </defs>
     <use xlink:href="#Arial-ItalicMT-38"/>
    </g>
   </g>
   <g id="text_36">
    <!-- 6 -->
    <g style="fill: #000080; opacity: 0.6" transform="translate(355.51928 17.220937) scale(0.14 -0.14)">
     <use xlink:href="#Arial-ItalicMT-36"/>
    </g>
   </g>
   <g id="text_37">
    <!-- 6 -->
    <g style="fill: #000080; opacity: 0.6" transform="translate(387.913152 17.220937) scale(0.14 -0.14)">
     <use xlink:href="#Arial-ItalicMT-36"/>
    </g>
   </g>
   <g id="text_38">
    <!-- 4 -->
    <g style="fill: #000080; opacity: 0.6" transform="translate(420.307023 17.220937) scale(0.14 -0.14)">
     <use xlink:href="#Arial-ItalicMT-34"/>
    </g>
   </g>
   <g id="text_39">
    <!-- 3 -->
    <g style="fill: #000080; opacity: 0.6" transform="translate(452.700895 17.220937) scale(0.14 -0.14)">
     <use xlink:href="#Arial-ItalicMT-33"/>
    </g>
   </g>
   <g id="text_40">
    <!-- 3 -->
    <g style="fill: #000080; opacity: 0.6" transform="translate(485.094767 17.220937) scale(0.14 -0.14)">
     <use xlink:href="#Arial-ItalicMT-33"/>
    </g>
   </g>
   <g id="text_41">
    <!-- 1 -->
    <g style="fill: #000080; opacity: 0.6" transform="translate(517.488639 17.220937) scale(0.14 -0.14)">
     <use xlink:href="#Arial-ItalicMT-31"/>
    </g>
   </g>
   <g id="text_42">
    <!-- 1 -->
    <g style="fill: #000080; opacity: 0.6" transform="translate(549.882511 17.220937) scale(0.14 -0.14)">
     <use xlink:href="#Arial-ItalicMT-31"/>
    </g>
   </g>
   <g id="text_43">
    <!-- 1 -->
    <g style="fill: #000080; opacity: 0.6" transform="translate(582.276383 17.220937) scale(0.14 -0.14)">
     <use xlink:href="#Arial-ItalicMT-31"/>
    </g>
   </g>
   <g id="text_44">
    <!-- 1 -->
    <g style="fill: #000080; opacity: 0.6" transform="translate(614.670255 17.220937) scale(0.14 -0.14)">
     <use xlink:href="#Arial-ItalicMT-31"/>
    </g>
   </g>
  </g>
 </g>
 <defs>
  <clipPath id="p34264f1307">
   <rect x="52.48" y="24.214983" width="581.47" height="210.5773"/>
  </clipPath>
 </defs>
</svg>
