<?xml version="1.0" encoding="utf-8" standalone="no"?>
<!DOCTYPE svg PUBLIC "-//W3C//DTD SVG 1.1//EN"
  "http://www.w3.org/Graphics/SVG/1.1/DTD/svg11.dtd">
<svg xmlns:xlink="http://www.w3.org/1999/xlink" width="389.15pt" height="280.820721pt" viewBox="0 0 389.15 280.820721" xmlns="http://www.w3.org/2000/svg" version="1.1">
 <metadata>
  <rdf:RDF xmlns:dc="http://purl.org/dc/elements/1.1/" xmlns:cc="http://creativecommons.org/ns#" xmlns:rdf="http://www.w3.org/1999/02/22-rdf-syntax-ns#">
   <cc:Work>
    <dc:type rdf:resource="http://purl.org/dc/dcmitype/StillImage"/>
    <dc:date>2025-05-09T14:25:53.839511</dc:date>
    <dc:format>image/svg+xml</dc:format>
    <dc:creator>
     <cc:Agent>
      <dc:title>Matplotlib v3.10.1, https://matplotlib.org/</dc:title>
     </cc:Agent>
    </dc:creator>
   </cc:Work>
  </rdf:RDF>
 </metadata>
 <defs>
  <style type="text/css">*{stroke-linejoin: round; stroke-linecap: butt}</style>
 </defs>
 <g id="figure_1">
  <g id="patch_1">
   <path d="M 0 280.820721 
L 389.15 280.820721 
L 389.15 0 
L 0 0 
z
" style="fill: #ffffff"/>
  </g>
  <g id="axes_1">
   <g id="patch_2">
    <path d="M 52.48 234.792283 
L 381.95 234.792283 
L 381.95 24.214983 
L 52.48 24.214983 
z
" style="fill: #ffffff"/>
   </g>
   <g id="line2d_1">
    <path d="M 52.48 234.792283 
L 381.95 234.792283 
" clip-path="url(#pee5f77529a)" style="fill: none; stroke: #000000; stroke-width: 0.5; stroke-linecap: round"/>
   </g>
   <g id="patch_3">
    <path d="M 76.475581 231.226431 
Q 78.587192 232.059606 81.064155 232.55334 
L 78.952544 234.792283 
Q 77.658331 234.579704 76.419849 234.205975 
Q 76.147383 234.130544 72.605326 232.810492 
Q 69.818742 233.485947 66.431495 233.485947 
Q 59.892312 233.485947 56.18306 231.353293 
Q 52.48 229.220639 52.48 225.363347 
Q 52.48 221.516341 56.195445 219.380258 
Q 59.91089 217.244175 66.276685 217.244175 
Q 72.586749 217.244175 76.283616 219.380258 
Q 79.980484 221.516341 79.980484 225.363347 
Q 79.980484 227.399997 78.952544 228.942914 
Q 78.178493 230.122388 76.475581 231.226431 
z
M 71.868429 229.436647 
Q 72.97687 228.71662 73.527995 227.701723 
Q 74.079119 226.683398 74.079119 225.363347 
Q 74.079119 222.644384 71.911776 221.300332 
Q 69.744433 219.952852 66.239531 219.952852 
Q 62.734628 219.952852 60.5549 221.303761 
Q 58.381365 222.65467 58.381365 225.363347 
Q 58.381365 228.116596 60.5549 229.484649 
Q 62.734628 230.849274 66.066143 230.849274 
Q 67.304625 230.849274 68.406873 230.626408 
Q 66.666807 229.992098 64.864816 229.638941 
L 66.474842 227.828585 
Q 69.29858 228.363463 71.868429 229.436647 
z
" clip-path="url(#pee5f77529a)" style="fill: #0000ff"/>
   </g>
   <g id="patch_4">
    <path d="M 52.48 199.696067 
L 66.120237 199.696067 
Q 70.172825 199.696067 72.161871 199.868445 
Q 74.150917 200.040823 75.722785 200.592434 
Q 77.294652 201.144044 78.337598 202.059565 
Q 79.387993 202.975085 79.387993 204.112781 
Q 79.387993 205.346244 78.091761 206.376683 
Q 76.802978 207.403291 74.597893 207.920426 
Q 77.711831 208.383932 79.387993 209.510137 
Q 81.064155 210.636341 81.064155 212.157101 
Q 81.064155 213.352257 79.983962 214.486123 
Q 78.903768 215.616158 77.026466 216.294179 
Q 75.156614 216.96837 72.407708 217.125426 
Q 70.686848 217.221191 64.093943 217.244175 
L 52.48 217.244175 
L 52.48 199.696067 
z
M 59.37089 202.615006 
L 59.37089 206.675472 
L 63.885354 206.675472 
Q 67.915593 206.675472 68.891492 206.614182 
Q 70.657049 206.506924 71.670196 205.985959 
Q 72.683344 205.464993 72.683344 204.614594 
Q 72.683344 203.8025 71.811739 203.293027 
Q 70.940135 202.783553 69.219275 202.676296 
Q 68.191228 202.615006 63.326633 202.615006 
L 59.37089 202.615006 
z
M 59.37089 209.59441 
L 59.37089 214.28693 
L 65.747756 214.28693 
Q 69.472561 214.28693 70.470809 214.179673 
Q 72.012879 214.034109 72.973878 213.478668 
Q 73.942328 212.923226 73.942328 211.988553 
Q 73.942328 211.199444 73.197367 210.647833 
Q 72.452406 210.096223 71.044429 209.847232 
Q 69.636453 209.59441 64.935749 209.59441 
L 59.37089 209.59441 
z
" clip-path="url(#pee5f77529a)" style="fill: #ffd700"/>
   </g>
   <g id="patch_5">
    <path d="M 62.977539 199.696067 
L 62.977539 24.214983 
L 70.566616 24.214983 
L 70.566616 199.696067 
L 62.977539 199.696067 
z
" clip-path="url(#pee5f77529a)" style="fill: #add8e6"/>
   </g>
   <g id="patch_6">
    <path d="M 97.851268 228.264995 
L 97.851268 225.405138 
L 111.15274 225.405138 
L 111.15274 232.165809 
Q 109.211552 233.206767 105.529299 233.999525 
Q 101.853717 234.792283 98.078074 234.792283 
Q 93.288477 234.792283 89.719626 233.677236 
Q 86.157447 232.558484 84.363016 230.480272 
Q 82.568584 228.40206 82.568584 225.96081 
Q 82.568584 223.308404 84.569809 221.248715 
Q 86.571033 219.189026 90.426726 218.088796 
Q 93.368526 217.244175 97.744536 217.244175 
Q 103.434684 217.244175 106.636643 218.570378 
Q 109.838602 219.892876 110.752495 222.230401 
L 104.628748 222.867572 
Q 103.981686 221.619163 102.193925 220.89679 
Q 100.412835 220.170712 97.744536 220.170712 
Q 93.702063 220.170712 91.313935 221.596936 
Q 88.925807 223.019455 88.925807 225.82004 
Q 88.925807 228.842893 91.340618 230.35432 
Q 93.7621 231.862042 97.684499 231.862042 
Q 99.625687 231.862042 101.573546 231.439732 
Q 103.521404 231.017421 104.91559 230.417296 
L 104.91559 228.264995 
L 97.851268 228.264995 
z
" clip-path="url(#pee5f77529a)" style="fill: #ff69b4"/>
   </g>
   <g id="patch_7">
    <path d="M 93.240526 217.244175 
L 93.240526 202.664804 
L 82.568584 202.664804 
L 82.568584 199.696067 
L 111.15274 199.696067 
L 111.15274 202.664804 
L 100.504357 202.664804 
L 100.504357 217.244175 
L 93.240526 217.244175 
z
" clip-path="url(#pee5f77529a)" style="fill: #a0522d"/>
   </g>
   <g id="patch_8">
    <path d="M 82.568584 182.147958 
L 96.208821 182.147958 
Q 100.261409 182.147958 102.250455 182.320337 
Q 104.239501 182.492715 105.811369 183.044326 
Q 107.383237 183.595936 108.426182 184.511456 
Q 109.476577 185.426976 109.476577 186.564673 
Q 109.476577 187.798135 108.180345 188.828574 
Q 106.891563 189.855183 104.686478 190.372318 
Q 107.800415 190.835824 109.476577 191.962028 
Q 111.15274 193.088233 111.15274 194.608992 
Q 111.15274 195.804148 110.072546 196.938014 
Q 108.992353 198.06805 107.115051 198.746071 
Q 105.245199 199.420262 102.496292 199.577317 
Q 100.775432 199.673083 94.182527 199.696067 
L 82.568584 199.696067 
L 82.568584 182.147958 
z
M 89.459474 185.066897 
L 89.459474 189.127363 
L 93.973938 189.127363 
Q 98.004177 189.127363 98.980076 189.066073 
Q 100.745634 188.958816 101.758781 188.43785 
Q 102.771928 187.916885 102.771928 187.066485 
Q 102.771928 186.254392 101.900324 185.744918 
Q 101.028719 185.235445 99.307859 185.128187 
Q 98.279813 185.066897 93.415217 185.066897 
L 89.459474 185.066897 
z
M 89.459474 192.046302 
L 89.459474 196.738822 
L 95.836341 196.738822 
Q 99.561146 196.738822 100.559394 196.631564 
Q 102.101463 196.486 103.062463 195.930559 
Q 104.030912 195.375118 104.030912 194.440445 
Q 104.030912 193.651335 103.285951 193.099725 
Q 102.54099 192.548114 101.133014 192.299124 
Q 99.725037 192.046302 95.024333 192.046302 
L 89.459474 192.046302 
z
" clip-path="url(#pee5f77529a)" style="fill: #ffd700"/>
   </g>
   <g id="patch_9">
    <path d="M 82.568584 182.147958 
L 93.078748 99.716668 
L 83.555171 24.214983 
L 90.810271 24.214983 
L 96.978113 74.963147 
L 103.018437 24.214983 
L 110.213134 24.214983 
L 100.649288 100.923316 
L 111.15274 182.147958 
L 103.669449 182.147958 
L 96.850595 127.538521 
L 90.011606 182.147958 
L 82.568584 182.147958 
z
" clip-path="url(#pee5f77529a)" style="fill: #bdb76b"/>
   </g>
   <g id="patch_10">
    <path d="M 123.32911 234.792283 
L 123.32911 220.212912 
L 112.657169 220.212912 
L 112.657169 217.244175 
L 141.241324 217.244175 
L 141.241324 220.212912 
L 130.592941 220.212912 
L 130.592941 234.792283 
L 123.32911 234.792283 
z
" clip-path="url(#pee5f77529a)" style="fill: #a0522d"/>
   </g>
   <g id="patch_11">
    <path d="M 112.657169 217.244175 
L 112.657169 199.696067 
L 121.603848 199.696067 
L 126.971856 211.66678 
L 132.281726 199.696067 
L 141.241324 199.696067 
L 141.241324 217.244175 
L 135.692445 217.244175 
L 135.692445 203.430929 
L 129.814122 217.244175 
L 124.064992 217.244175 
L 118.212508 203.430929 
L 118.212508 217.244175 
L 112.657169 217.244175 
z
" clip-path="url(#pee5f77529a)" style="fill: #ff8c00"/>
   </g>
   <g id="patch_12">
    <path d="M 136.65275 164.037543 
Q 138.764361 172.369294 141.241324 177.306628 
L 139.129713 199.696067 
Q 137.8355 197.57027 136.597018 193.832983 
Q 136.324552 193.078668 132.782495 179.878156 
Q 129.995911 186.632704 126.608664 186.632704 
Q 120.069481 186.632704 116.360229 165.306163 
Q 112.657169 143.979623 112.657169 105.4067 
Q 112.657169 66.936638 116.372614 45.575811 
Q 120.088059 24.214983 126.453854 24.214983 
Q 132.763918 24.214983 136.460785 45.575811 
Q 140.157653 66.936638 140.157653 105.4067 
Q 140.157653 125.773203 139.129713 141.202372 
Q 138.355662 152.997115 136.65275 164.037543 
z
M 132.045598 146.139707 
Q 133.154039 138.939428 133.705164 128.790463 
Q 134.256288 118.607211 134.256288 105.4067 
Q 134.256288 78.217075 132.088945 64.776555 
Q 129.921602 51.301747 126.416699 51.301747 
Q 122.911797 51.301747 120.732069 64.810842 
Q 118.558534 78.319937 118.558534 105.4067 
Q 118.558534 132.939195 120.732069 146.619725 
Q 122.911797 160.265968 126.243312 160.265968 
Q 127.481794 160.265968 128.584042 158.03731 
Q 126.843976 151.694207 125.041985 148.162642 
L 126.652011 130.059084 
Q 129.475749 135.407862 132.045598 146.139707 
z
" clip-path="url(#pee5f77529a)" style="fill: #0000ff"/>
   </g>
   <g id="patch_13">
    <path d="M 166.741334 231.226431 
Q 168.852945 232.059606 171.329909 232.55334 
L 169.218298 234.792283 
Q 167.924084 234.579704 166.685603 234.205975 
Q 166.413137 234.130544 162.871079 232.810492 
Q 160.084496 233.485947 156.697249 233.485947 
Q 150.158066 233.485947 146.448813 231.353293 
Q 142.745753 229.220639 142.745753 225.363347 
Q 142.745753 221.516341 146.461198 219.380258 
Q 150.176643 217.244175 156.542438 217.244175 
Q 162.852502 217.244175 166.54937 219.380258 
Q 170.246237 221.516341 170.246237 225.363347 
Q 170.246237 227.399997 169.218298 228.942914 
Q 168.444247 230.122388 166.741334 231.226431 
z
M 162.134183 229.436647 
Q 163.242624 228.71662 163.793748 227.701723 
Q 164.344872 226.683398 164.344872 225.363347 
Q 164.344872 222.644384 162.17753 221.300332 
Q 160.010187 219.952852 156.505284 219.952852 
Q 153.000381 219.952852 150.820653 221.303761 
Q 148.647118 222.65467 148.647118 225.363347 
Q 148.647118 228.116596 150.820653 229.484649 
Q 153.000381 230.849274 156.331897 230.849274 
Q 157.570378 230.849274 158.672627 230.626408 
Q 156.93256 229.992098 155.130569 229.638941 
L 156.740595 227.828585 
Q 159.564334 228.363463 162.134183 229.436647 
z
" clip-path="url(#pee5f77529a)" style="fill: #0000ff"/>
   </g>
   <g id="patch_14">
    <path d="M 164.905457 210.716886 
L 171.329909 211.768958 
Q 169.854505 214.547316 166.416671 215.895745 
Q 162.978838 217.244175 157.70033 217.244175 
Q 151.161284 217.244175 146.949938 214.936286 
Q 142.745753 212.624692 142.745753 208.620152 
Q 142.745753 204.38223 146.971424 202.041001 
Q 151.204257 199.696067 158.101411 199.696067 
Q 164.124782 199.696067 167.884913 201.533488 
Q 170.119505 202.622604 171.236801 204.660066 
L 164.68343 205.471347 
Q 164.096133 204.152553 162.248298 203.389431 
Q 160.407624 202.622604 157.76479 202.622604 
Q 154.119253 202.622604 151.841689 203.978442 
Q 149.571286 205.330577 149.571286 208.364543 
Q 149.571286 211.583734 151.805878 212.950686 
Q 154.047632 214.313934 157.628709 214.313934 
Q 160.271543 214.313934 162.169514 213.447086 
Q 164.074647 212.580238 164.905457 210.716886 
z
" clip-path="url(#pee5f77529a)" style="fill: #00ff7f"/>
   </g>
   <g id="patch_15">
    <path d="M 153.417695 199.696067 
L 153.417695 53.902353 
L 142.745753 53.902353 
L 142.745753 24.214983 
L 171.329909 24.214983 
L 171.329909 53.902353 
L 160.681526 53.902353 
L 160.681526 199.696067 
L 153.417695 199.696067 
z
" clip-path="url(#pee5f77529a)" style="fill: #a0522d"/>
   </g>
   <g id="patch_16">
    <path d="M 191.589613 217.244175 
L 199.154077 217.244175 
L 199.154077 228.167016 
Q 199.154077 230.306386 198.333636 231.4627 
Q 197.226041 232.969299 194.329885 233.880791 
Q 191.433729 234.792283 186.691582 234.792283 
Q 181.128994 234.792283 178.126181 233.364781 
Q 175.131572 231.933512 175.098754 229.165137 
L 182.252998 228.788488 
Q 182.384268 230.272487 183.204709 230.886426 
Q 184.43537 231.812985 186.945919 231.812985 
Q 189.489285 231.812985 190.539449 231.150081 
Q 191.589613 230.483411 191.589613 228.389239 
L 191.589613 217.244175 
z
" clip-path="url(#pee5f77529a)" style="fill: #7b68ee"/>
   </g>
   <g id="patch_17">
    <path d="M 183.506279 217.244175 
L 183.506279 188.085432 
L 172.834338 188.085432 
L 172.834338 182.147958 
L 201.418493 182.147958 
L 201.418493 188.085432 
L 190.77011 188.085432 
L 190.77011 217.244175 
L 183.506279 217.244175 
z
" clip-path="url(#pee5f77529a)" style="fill: #a0522d"/>
   </g>
   <g id="patch_18">
    <path d="M 196.829919 150.055287 
Q 198.94153 157.553863 201.418493 161.997464 
L 199.306882 182.147958 
Q 198.012669 180.234742 196.774187 176.871183 
Q 196.501721 176.192299 192.959664 164.311839 
Q 190.17308 170.390932 186.785833 170.390932 
Q 180.24665 170.390932 176.537398 151.197045 
Q 172.834338 132.003159 172.834338 97.287528 
Q 172.834338 62.664473 176.549783 43.439728 
Q 180.265227 24.214983 186.631023 24.214983 
Q 192.941087 24.214983 196.637954 43.439728 
Q 200.334822 62.664473 200.334822 97.287528 
Q 200.334822 115.617381 199.306882 129.503633 
Q 198.532831 140.118902 196.829919 150.055287 
z
M 192.222767 133.947234 
Q 193.331208 127.466983 193.882333 118.332915 
Q 194.433457 109.167989 194.433457 97.287528 
Q 194.433457 72.816866 192.266114 60.720398 
Q 190.098771 48.593071 186.593868 48.593071 
Q 183.088966 48.593071 180.909238 60.751256 
Q 178.735703 72.909441 178.735703 97.287528 
Q 178.735703 122.066774 180.909238 134.379251 
Q 183.088966 146.66087 186.420481 146.66087 
Q 187.658963 146.66087 188.761211 144.655078 
Q 187.021145 138.946285 185.219154 135.767876 
L 186.82918 119.474674 
Q 189.652918 124.288574 192.222767 133.947234 
z
" clip-path="url(#pee5f77529a)" style="fill: #0000ff"/>
   </g>
   <g id="patch_19">
    <path d="M 202.922922 234.792283 
L 213.433086 225.633251 
L 203.909509 217.244175 
L 211.164609 217.244175 
L 217.332451 222.88286 
L 223.372775 217.244175 
L 230.567472 217.244175 
L 221.003625 225.767323 
L 231.507078 234.792283 
L 224.023787 234.792283 
L 217.204933 228.724568 
L 210.365944 234.792283 
L 202.922922 234.792283 
z
" clip-path="url(#pee5f77529a)" style="fill: #bdb76b"/>
   </g>
   <g id="patch_20">
    <path d="M 221.678198 182.147958 
L 229.242661 182.147958 
L 229.242661 203.99364 
Q 229.242661 208.27238 228.42222 210.585009 
Q 227.314625 213.598206 224.41847 215.421191 
Q 221.522314 217.244175 216.780166 217.244175 
Q 211.217578 217.244175 208.214765 214.389171 
Q 205.220156 211.526633 205.187339 205.989883 
L 212.341582 205.236584 
Q 212.472853 208.204583 213.293293 209.432461 
Q 214.523954 211.285577 217.034503 211.285577 
Q 219.577869 211.285577 220.628033 209.95977 
Q 221.678198 208.626431 221.678198 204.438086 
L 221.678198 182.147958 
z
" clip-path="url(#pee5f77529a)" style="fill: #7b68ee"/>
   </g>
   <g id="patch_21">
    <path d="M 213.420462 182.147958 
L 213.420462 147.051742 
L 221.009538 147.051742 
L 221.009538 182.147958 
L 213.420462 182.147958 
z
" clip-path="url(#pee5f77529a)" style="fill: #add8e6"/>
   </g>
   <g id="patch_22">
    <path d="M 226.918503 122.090775 
Q 229.030114 127.923001 231.507078 131.379135 
L 229.395467 147.051742 
Q 228.101253 145.563684 226.862772 142.947583 
Q 226.590306 142.419562 223.048248 133.179204 
Q 220.261665 137.907388 216.874418 137.907388 
Q 210.335235 137.907388 206.625982 122.978809 
Q 202.922922 108.050231 202.922922 81.049185 
Q 202.922922 54.120142 206.638367 39.167563 
Q 210.353812 24.214983 216.719607 24.214983 
Q 223.029671 24.214983 226.726539 39.167563 
Q 230.423406 54.120142 230.423406 81.049185 
Q 230.423406 95.305737 229.395467 106.106156 
Q 228.621416 114.362476 226.918503 122.090775 
z
M 222.311352 109.56229 
Q 223.419793 104.522094 223.970917 97.417819 
Q 224.522041 90.289543 224.522041 81.049185 
Q 224.522041 62.016448 222.354699 52.608083 
Q 220.187356 43.175718 216.682453 43.175718 
Q 213.17755 43.175718 210.997822 52.632084 
Q 208.824287 62.088451 208.824287 81.049185 
Q 208.824287 100.321932 210.997822 109.898303 
Q 213.17755 119.450673 216.509065 119.450673 
Q 217.747547 119.450673 218.849796 117.890612 
Q 217.109729 113.45044 215.307738 110.978344 
L 216.917764 98.305854 
Q 219.741502 102.049999 222.311352 109.56229 
z
" clip-path="url(#pee5f77529a)" style="fill: #0000ff"/>
   </g>
   <g id="patch_23">
    <path d="M 233.011507 234.792283 
L 243.521671 216.474219 
L 233.998093 199.696067 
L 241.253193 199.696067 
L 247.421035 210.973437 
L 253.461359 199.696067 
L 260.656056 199.696067 
L 251.09221 216.742363 
L 261.595662 234.792283 
L 254.112372 234.792283 
L 247.293517 222.656853 
L 240.454528 234.792283 
L 233.011507 234.792283 
z
" clip-path="url(#pee5f77529a)" style="fill: #bdb76b"/>
   </g>
   <g id="patch_24">
    <path d="M 257.007088 185.432657 
Q 259.118699 188.765358 261.595662 190.740291 
L 259.484051 199.696067 
Q 258.189838 198.845748 256.951356 197.350833 
Q 256.67889 197.049107 253.136833 191.768903 
Q 250.350249 194.470722 246.963002 194.470722 
Q 240.423819 194.470722 236.714567 185.940105 
Q 233.011507 177.409489 233.011507 161.98032 
Q 233.011507 146.592295 236.726952 138.047964 
Q 240.442396 129.503633 246.808192 129.503633 
Q 253.118256 129.503633 256.815123 138.047964 
Q 260.511991 146.592295 260.511991 161.98032 
Q 260.511991 170.126921 259.484051 176.298589 
Q 258.71 181.016486 257.007088 185.432657 
z
M 252.399936 178.273523 
Q 253.508377 175.393411 254.059502 171.333825 
Q 254.610626 167.260525 254.610626 161.98032 
Q 254.610626 151.10447 252.443283 145.728262 
Q 250.27594 140.338339 246.771037 140.338339 
Q 243.266134 140.338339 241.086407 145.741977 
Q 238.912872 151.145615 238.912872 161.98032 
Q 238.912872 172.993318 241.086407 178.46553 
Q 243.266134 183.924027 246.59765 183.924027 
Q 247.836132 183.924027 248.93838 183.032564 
Q 247.198314 180.495323 245.396323 179.082697 
L 247.006349 171.841274 
Q 249.830087 173.980785 252.399936 178.273523 
z
" clip-path="url(#pee5f77529a)" style="fill: #0000ff"/>
   </g>
   <g id="patch_25">
    <path d="M 243.683448 129.503633 
L 243.683448 42.027405 
L 233.011507 42.027405 
L 233.011507 24.214983 
L 261.595662 24.214983 
L 261.595662 42.027405 
L 250.947279 42.027405 
L 250.947279 129.503633 
L 243.683448 129.503633 
z
" clip-path="url(#pee5f77529a)" style="fill: #a0522d"/>
   </g>
   <g id="patch_26">
    <path d="M 278.382775 226.959537 
L 278.382775 223.527709 
L 291.684247 223.527709 
L 291.684247 231.640514 
Q 289.743059 232.889664 286.060806 233.840974 
Q 282.385224 234.792283 278.60958 234.792283 
Q 273.819983 234.792283 270.251133 233.454226 
Q 266.688954 232.111724 264.894523 229.61787 
Q 263.100091 227.124016 263.100091 224.194515 
Q 263.100091 221.011628 265.101316 218.540001 
Q 267.10254 216.068374 270.958232 214.748098 
Q 273.900032 213.734553 278.276043 213.734553 
Q 283.966191 213.734553 287.16815 215.325997 
Q 290.370109 216.912995 291.284002 219.718025 
L 285.160255 220.482629 
Q 284.513192 218.984539 282.725432 218.117691 
Q 280.944342 217.246398 278.276043 217.246398 
Q 274.23357 217.246398 271.845442 218.957866 
Q 269.457314 220.664889 269.457314 224.025591 
Q 269.457314 227.653015 271.872125 229.466727 
Q 274.293606 231.275994 278.216006 231.275994 
Q 280.157194 231.275994 282.105052 230.769221 
Q 284.052911 230.262449 285.447097 229.542298 
L 285.447097 226.959537 
L 278.382775 226.959537 
z
" clip-path="url(#pee5f77529a)" style="fill: #ff69b4"/>
   </g>
   <g id="patch_27">
    <path d="M 273.772033 213.734553 
L 273.772033 161.248817 
L 263.100091 161.248817 
L 263.100091 150.561363 
L 291.684247 150.561363 
L 291.684247 161.248817 
L 281.035863 161.248817 
L 281.035863 213.734553 
L 273.772033 213.734553 
z
" clip-path="url(#pee5f77529a)" style="fill: #a0522d"/>
   </g>
   <g id="patch_28">
    <path d="M 287.095672 124.887226 
Q 289.207283 130.886087 291.684247 134.440968 
L 289.572635 150.561363 
Q 288.278422 149.03079 287.039941 146.339943 
Q 286.767475 145.796836 283.225417 136.292468 
Q 280.438834 141.155742 277.051587 141.155742 
Q 270.512404 141.155742 266.803151 125.800633 
Q 263.100091 110.445524 263.100091 82.673019 
Q 263.100091 54.974575 266.815536 39.594779 
Q 270.530981 24.214983 276.896776 24.214983 
Q 283.20684 24.214983 286.903708 39.594779 
Q 290.600575 54.974575 290.600575 82.673019 
Q 290.600575 97.336902 289.572635 108.445903 
Q 288.798584 116.938118 287.095672 124.887226 
z
M 282.488521 112.000784 
Q 283.596962 106.816583 284.148086 99.509329 
Q 284.69921 92.177388 284.69921 82.673019 
Q 284.69921 63.09649 282.531868 53.419315 
Q 280.364525 43.717453 276.859622 43.717453 
Q 273.354719 43.717453 271.174991 53.444001 
Q 269.001456 63.17055 269.001456 82.673019 
Q 269.001456 102.496416 271.174991 112.346397 
Q 273.354719 122.171692 276.686234 122.171692 
Q 277.924716 122.171692 279.026965 120.567059 
Q 277.286898 116.000025 275.484907 113.457298 
L 277.094933 100.422736 
Q 279.918671 104.273856 282.488521 112.000784 
z
" clip-path="url(#pee5f77529a)" style="fill: #0000ff"/>
   </g>
   <g id="patch_29">
    <path d="M 293.188676 223.152779 
L 300.094915 222.508608 
Q 300.72415 225.86274 302.627202 227.439848 
Q 304.530255 229.009552 307.768513 229.009552 
Q 311.198612 229.009552 312.932845 227.610146 
Q 314.674752 226.21074 314.674752 224.337461 
Q 314.674752 223.130566 313.94576 222.28648 
Q 313.216768 221.442393 311.390452 220.820435 
Q 310.147329 220.398392 305.711989 219.339582 
Q 300.002831 217.969793 297.700752 215.98545 
Q 294.462493 213.179234 294.462493 209.158718 
Q 294.462493 206.567225 295.981866 204.308924 
Q 297.508912 202.050623 300.371164 200.873345 
Q 303.24109 199.696067 307.29275 199.696067 
Q 313.907392 199.696067 317.253081 202.494879 
Q 320.59877 205.293691 320.76759 209.965783 
L 313.669511 210.269357 
Q 313.216768 207.655652 311.712743 206.507991 
Q 310.216391 205.36033 307.216014 205.36033 
Q 304.123554 205.36033 302.373973 206.589438 
Q 301.245954 207.37429 301.245954 208.692249 
Q 301.245954 209.899144 302.304911 210.750635 
Q 303.647791 211.839062 308.82747 213.023744 
Q 314.007149 214.201022 316.485722 215.467152 
Q 318.971968 216.725877 320.368562 218.910135 
Q 321.772831 221.094393 321.772831 224.315248 
Q 321.772831 227.225125 320.092313 229.772192 
Q 318.419468 232.319259 315.350029 233.555771 
Q 312.280589 234.792283 307.699451 234.792283 
Q 301.031094 234.792283 297.455197 231.823173 
Q 293.886973 228.846659 293.188676 223.152779 
z
" clip-path="url(#pee5f77529a)" style="fill: #ffff00"/>
   </g>
   <g id="patch_30">
    <path d="M 298.390117 199.696067 
L 293.188676 164.59985 
L 297.691203 164.59985 
L 300.97182 188.709825 
L 304.956105 164.59985 
L 310.186074 164.59985 
L 314.003951 189.115871 
L 317.346376 164.59985 
L 321.772831 164.59985 
L 316.485808 199.696067 
L 311.821627 199.696067 
L 307.480753 173.456263 
L 303.158898 199.696067 
L 298.390117 199.696067 
z
" clip-path="url(#pee5f77529a)" style="fill: #9acd32"/>
   </g>
   <g id="patch_31">
    <path d="M 317.184257 150.336441 
Q 319.295868 153.669141 321.772831 155.644075 
L 319.66122 164.59985 
Q 318.367007 163.749532 317.128525 162.254616 
Q 316.856059 161.95289 313.314002 156.672686 
Q 310.527418 159.374505 307.140171 159.374505 
Q 300.600988 159.374505 296.891736 150.843889 
Q 293.188676 142.313273 293.188676 126.884103 
Q 293.188676 111.496079 296.904121 102.951748 
Q 300.619565 94.407417 306.985361 94.407417 
Q 313.295425 94.407417 316.992292 102.951748 
Q 320.68916 111.496079 320.68916 126.884103 
Q 320.68916 135.030705 319.66122 141.202372 
Q 318.887169 145.920269 317.184257 150.336441 
z
M 312.577105 143.177306 
Q 313.685546 140.297194 314.236671 136.237609 
Q 314.787795 132.164308 314.787795 126.884103 
Q 314.787795 116.008254 312.620452 110.632045 
Q 310.453109 105.242122 306.948206 105.242122 
Q 303.443303 105.242122 301.263576 110.64576 
Q 299.090041 116.049398 299.090041 126.884103 
Q 299.090041 137.897101 301.263576 143.369313 
Q 303.443303 148.827811 306.774819 148.827811 
Q 308.013301 148.827811 309.115549 147.936348 
Q 307.375482 145.399106 305.573492 143.98648 
L 307.183518 136.745057 
Q 310.007256 138.884568 312.577105 143.177306 
z
" clip-path="url(#pee5f77529a)" style="fill: #0000ff"/>
   </g>
   <g id="patch_32">
    <path d="M 303.860617 94.407417 
L 303.860617 36.089931 
L 293.188676 36.089931 
L 293.188676 24.214983 
L 321.772831 24.214983 
L 321.772831 36.089931 
L 311.124448 36.089931 
L 311.124448 94.407417 
L 303.860617 94.407417 
z
" clip-path="url(#pee5f77529a)" style="fill: #a0522d"/>
   </g>
   <g id="patch_33">
    <path d="M 323.27726 130.726111 
Q 323.27726 99.608503 324.627997 78.492983 
Q 325.631401 62.934179 327.368062 50.576043 
Q 329.104723 38.217907 331.175852 32.261108 
Q 333.928782 24.214983 337.530745 24.214983 
Q 344.040009 24.214983 347.950712 52.131923 
Q 351.861416 80.048863 351.861416 129.792583 
Q 351.861416 179.091765 347.982872 206.964251 
Q 344.104329 234.792283 337.60793 234.792283 
Q 331.034347 234.792283 327.155803 207.097612 
Q 323.27726 179.358487 323.27726 130.726111 
z
M 329.407031 129.348045 
Q 329.407031 163.933044 331.716147 181.803442 
Q 334.031695 199.629386 337.588634 199.629386 
Q 341.145573 199.629386 343.428961 181.936803 
Q 345.712349 164.24422 345.712349 128.814601 
Q 345.712349 93.785065 343.48685 76.581473 
Q 341.267783 59.333427 337.588634 59.333427 
Q 333.909485 59.333427 331.658258 76.803741 
Q 329.407031 94.229602 329.407031 129.348045 
z
" clip-path="url(#pee5f77529a)" style="fill: #006400"/>
   </g>
   <g id="patch_34">
    <path d="M 372.12112 24.214983 
L 379.685584 24.214983 
L 379.685584 155.28907 
Q 379.685584 180.961512 378.865143 194.837286 
Q 377.757548 212.91647 374.861392 223.854377 
Q 371.965236 234.792283 367.223089 234.792283 
Q 361.660501 234.792283 358.657687 217.662256 
Q 355.663079 200.487031 355.630261 167.26653 
L 362.784504 162.746734 
Q 362.915775 180.55473 363.736216 187.921998 
Q 364.966877 199.040696 367.477425 199.040696 
Q 370.020792 199.040696 371.070956 191.085855 
Q 372.12112 183.085816 372.12112 157.95575 
L 372.12112 24.214983 
z
" clip-path="url(#pee5f77529a)" style="fill: #7b68ee"/>
   </g>
   <g id="matplotlib.axis_1">
    <g id="xtick_1">
     <g id="line2d_2">
      <path d="M 66.772078 234.792283 
L 66.772078 24.214983 
" clip-path="url(#pee5f77529a)" style="fill: none; stroke: #cccccc; stroke-width: 0.8; stroke-linecap: round"/>
     </g>
     <g id="text_1">
      <!-- 0 -->
      <g style="fill: #262626" transform="translate(62.879421 251.813221) scale(0.14 -0.14)">
       <defs>
        <path id="ArialMT-30" d="M 266 2259 
Q 266 3072 433 3567 
Q 600 4063 929 4331 
Q 1259 4600 1759 4600 
Q 2128 4600 2406 4451 
Q 2684 4303 2865 4023 
Q 3047 3744 3150 3342 
Q 3253 2941 3253 2259 
Q 3253 1453 3087 958 
Q 2922 463 2592 192 
Q 2263 -78 1759 -78 
Q 1097 -78 719 397 
Q 266 969 266 2259 
z
M 844 2259 
Q 844 1131 1108 757 
Q 1372 384 1759 384 
Q 2147 384 2411 759 
Q 2675 1134 2675 2259 
Q 2675 3391 2411 3762 
Q 2147 4134 1753 4134 
Q 1366 4134 1134 3806 
Q 844 3388 844 2259 
z
" transform="scale(0.015625)"/>
       </defs>
       <use xlink:href="#ArialMT-30"/>
      </g>
     </g>
    </g>
    <g id="xtick_2">
     <g id="line2d_3">
      <path d="M 96.860662 234.792283 
L 96.860662 24.214983 
" clip-path="url(#pee5f77529a)" style="fill: none; stroke: #cccccc; stroke-width: 0.8; stroke-linecap: round"/>
     </g>
     <g id="text_2">
      <!-- 1 -->
      <g style="fill: #262626" transform="translate(92.968006 251.813221) scale(0.14 -0.14)">
       <defs>
        <path id="ArialMT-31" d="M 2384 0 
L 1822 0 
L 1822 3584 
Q 1619 3391 1289 3197 
Q 959 3003 697 2906 
L 697 3450 
Q 1169 3672 1522 3987 
Q 1875 4303 2022 4600 
L 2384 4600 
L 2384 0 
z
" transform="scale(0.015625)"/>
       </defs>
       <use xlink:href="#ArialMT-31"/>
      </g>
     </g>
    </g>
    <g id="xtick_3">
     <g id="line2d_4">
      <path d="M 126.949247 234.792283 
L 126.949247 24.214983 
" clip-path="url(#pee5f77529a)" style="fill: none; stroke: #cccccc; stroke-width: 0.8; stroke-linecap: round"/>
     </g>
     <g id="text_3">
      <!-- 2 -->
      <g style="fill: #262626" transform="translate(123.05659 251.813221) scale(0.14 -0.14)">
       <defs>
        <path id="ArialMT-32" d="M 3222 541 
L 3222 0 
L 194 0 
Q 188 203 259 391 
Q 375 700 629 1000 
Q 884 1300 1366 1694 
Q 2113 2306 2375 2664 
Q 2638 3022 2638 3341 
Q 2638 3675 2398 3904 
Q 2159 4134 1775 4134 
Q 1369 4134 1125 3890 
Q 881 3647 878 3216 
L 300 3275 
Q 359 3922 746 4261 
Q 1134 4600 1788 4600 
Q 2447 4600 2831 4234 
Q 3216 3869 3216 3328 
Q 3216 3053 3103 2787 
Q 2991 2522 2730 2228 
Q 2469 1934 1863 1422 
Q 1356 997 1212 845 
Q 1069 694 975 541 
L 3222 541 
z
" transform="scale(0.015625)"/>
       </defs>
       <use xlink:href="#ArialMT-32"/>
      </g>
     </g>
    </g>
    <g id="xtick_4">
     <g id="line2d_5">
      <path d="M 157.037831 234.792283 
L 157.037831 24.214983 
" clip-path="url(#pee5f77529a)" style="fill: none; stroke: #cccccc; stroke-width: 0.8; stroke-linecap: round"/>
     </g>
     <g id="text_4">
      <!-- 3 -->
      <g style="fill: #262626" transform="translate(153.145175 251.813221) scale(0.14 -0.14)">
       <defs>
        <path id="ArialMT-33" d="M 269 1209 
L 831 1284 
Q 928 806 1161 595 
Q 1394 384 1728 384 
Q 2125 384 2398 659 
Q 2672 934 2672 1341 
Q 2672 1728 2419 1979 
Q 2166 2231 1775 2231 
Q 1616 2231 1378 2169 
L 1441 2663 
Q 1497 2656 1531 2656 
Q 1891 2656 2178 2843 
Q 2466 3031 2466 3422 
Q 2466 3731 2256 3934 
Q 2047 4138 1716 4138 
Q 1388 4138 1169 3931 
Q 950 3725 888 3313 
L 325 3413 
Q 428 3978 793 4289 
Q 1159 4600 1703 4600 
Q 2078 4600 2393 4439 
Q 2709 4278 2876 4000 
Q 3044 3722 3044 3409 
Q 3044 3113 2884 2869 
Q 2725 2625 2413 2481 
Q 2819 2388 3044 2092 
Q 3269 1797 3269 1353 
Q 3269 753 2831 336 
Q 2394 -81 1725 -81 
Q 1122 -81 723 278 
Q 325 638 269 1209 
z
" transform="scale(0.015625)"/>
       </defs>
       <use xlink:href="#ArialMT-33"/>
      </g>
     </g>
    </g>
    <g id="xtick_5">
     <g id="line2d_6">
      <path d="M 187.126416 234.792283 
L 187.126416 24.214983 
" clip-path="url(#pee5f77529a)" style="fill: none; stroke: #cccccc; stroke-width: 0.8; stroke-linecap: round"/>
     </g>
     <g id="text_5">
      <!-- 4 -->
      <g style="fill: #262626" transform="translate(183.233759 251.813221) scale(0.14 -0.14)">
       <defs>
        <path id="ArialMT-34" d="M 2069 0 
L 2069 1097 
L 81 1097 
L 81 1613 
L 2172 4581 
L 2631 4581 
L 2631 1613 
L 3250 1613 
L 3250 1097 
L 2631 1097 
L 2631 0 
L 2069 0 
z
M 2069 1613 
L 2069 3678 
L 634 1613 
L 2069 1613 
z
" transform="scale(0.015625)"/>
       </defs>
       <use xlink:href="#ArialMT-34"/>
      </g>
     </g>
    </g>
    <g id="xtick_6">
     <g id="line2d_7">
      <path d="M 217.215 234.792283 
L 217.215 24.214983 
" clip-path="url(#pee5f77529a)" style="fill: none; stroke: #cccccc; stroke-width: 0.8; stroke-linecap: round"/>
     </g>
     <g id="text_6">
      <!-- 5 -->
      <g style="fill: #262626" transform="translate(213.322344 251.813221) scale(0.14 -0.14)">
       <defs>
        <path id="ArialMT-35" d="M 266 1200 
L 856 1250 
Q 922 819 1161 601 
Q 1400 384 1738 384 
Q 2144 384 2425 690 
Q 2706 997 2706 1503 
Q 2706 1984 2436 2262 
Q 2166 2541 1728 2541 
Q 1456 2541 1237 2417 
Q 1019 2294 894 2097 
L 366 2166 
L 809 4519 
L 3088 4519 
L 3088 3981 
L 1259 3981 
L 1013 2750 
Q 1425 3038 1878 3038 
Q 2478 3038 2890 2622 
Q 3303 2206 3303 1553 
Q 3303 931 2941 478 
Q 2500 -78 1738 -78 
Q 1113 -78 717 272 
Q 322 622 266 1200 
z
" transform="scale(0.015625)"/>
       </defs>
       <use xlink:href="#ArialMT-35"/>
      </g>
     </g>
    </g>
    <g id="xtick_7">
     <g id="line2d_8">
      <path d="M 247.303584 234.792283 
L 247.303584 24.214983 
" clip-path="url(#pee5f77529a)" style="fill: none; stroke: #cccccc; stroke-width: 0.8; stroke-linecap: round"/>
     </g>
     <g id="text_7">
      <!-- 6 -->
      <g style="fill: #262626" transform="translate(243.410928 251.813221) scale(0.14 -0.14)">
       <defs>
        <path id="ArialMT-36" d="M 3184 3459 
L 2625 3416 
Q 2550 3747 2413 3897 
Q 2184 4138 1850 4138 
Q 1581 4138 1378 3988 
Q 1113 3794 959 3422 
Q 806 3050 800 2363 
Q 1003 2672 1297 2822 
Q 1591 2972 1913 2972 
Q 2475 2972 2870 2558 
Q 3266 2144 3266 1488 
Q 3266 1056 3080 686 
Q 2894 316 2569 119 
Q 2244 -78 1831 -78 
Q 1128 -78 684 439 
Q 241 956 241 2144 
Q 241 3472 731 4075 
Q 1159 4600 1884 4600 
Q 2425 4600 2770 4297 
Q 3116 3994 3184 3459 
z
M 888 1484 
Q 888 1194 1011 928 
Q 1134 663 1356 523 
Q 1578 384 1822 384 
Q 2178 384 2434 671 
Q 2691 959 2691 1453 
Q 2691 1928 2437 2201 
Q 2184 2475 1800 2475 
Q 1419 2475 1153 2201 
Q 888 1928 888 1484 
z
" transform="scale(0.015625)"/>
       </defs>
       <use xlink:href="#ArialMT-36"/>
      </g>
     </g>
    </g>
    <g id="xtick_8">
     <g id="line2d_9">
      <path d="M 277.392169 234.792283 
L 277.392169 24.214983 
" clip-path="url(#pee5f77529a)" style="fill: none; stroke: #cccccc; stroke-width: 0.8; stroke-linecap: round"/>
     </g>
     <g id="text_8">
      <!-- 7 -->
      <g style="fill: #262626" transform="translate(273.499513 251.813221) scale(0.14 -0.14)">
       <defs>
        <path id="ArialMT-37" d="M 303 3981 
L 303 4522 
L 3269 4522 
L 3269 4084 
Q 2831 3619 2401 2847 
Q 1972 2075 1738 1259 
Q 1569 684 1522 0 
L 944 0 
Q 953 541 1156 1306 
Q 1359 2072 1739 2783 
Q 2119 3494 2547 3981 
L 303 3981 
z
" transform="scale(0.015625)"/>
       </defs>
       <use xlink:href="#ArialMT-37"/>
      </g>
     </g>
    </g>
    <g id="xtick_9">
     <g id="line2d_10">
      <path d="M 307.480753 234.792283 
L 307.480753 24.214983 
" clip-path="url(#pee5f77529a)" style="fill: none; stroke: #cccccc; stroke-width: 0.8; stroke-linecap: round"/>
     </g>
     <g id="text_9">
      <!-- 8 -->
      <g style="fill: #262626" transform="translate(303.588097 251.813221) scale(0.14 -0.14)">
       <defs>
        <path id="ArialMT-38" d="M 1131 2484 
Q 781 2613 612 2850 
Q 444 3088 444 3419 
Q 444 3919 803 4259 
Q 1163 4600 1759 4600 
Q 2359 4600 2725 4251 
Q 3091 3903 3091 3403 
Q 3091 3084 2923 2848 
Q 2756 2613 2416 2484 
Q 2838 2347 3058 2040 
Q 3278 1734 3278 1309 
Q 3278 722 2862 322 
Q 2447 -78 1769 -78 
Q 1091 -78 675 323 
Q 259 725 259 1325 
Q 259 1772 486 2073 
Q 713 2375 1131 2484 
z
M 1019 3438 
Q 1019 3113 1228 2906 
Q 1438 2700 1772 2700 
Q 2097 2700 2305 2904 
Q 2513 3109 2513 3406 
Q 2513 3716 2298 3927 
Q 2084 4138 1766 4138 
Q 1444 4138 1231 3931 
Q 1019 3725 1019 3438 
z
M 838 1322 
Q 838 1081 952 856 
Q 1066 631 1291 507 
Q 1516 384 1775 384 
Q 2178 384 2440 643 
Q 2703 903 2703 1303 
Q 2703 1709 2433 1975 
Q 2163 2241 1756 2241 
Q 1359 2241 1098 1978 
Q 838 1716 838 1322 
z
" transform="scale(0.015625)"/>
       </defs>
       <use xlink:href="#ArialMT-38"/>
      </g>
     </g>
    </g>
    <g id="xtick_10">
     <g id="line2d_11">
      <path d="M 337.569338 234.792283 
L 337.569338 24.214983 
" clip-path="url(#pee5f77529a)" style="fill: none; stroke: #cccccc; stroke-width: 0.8; stroke-linecap: round"/>
     </g>
     <g id="text_10">
      <!-- 9 -->
      <g style="fill: #262626" transform="translate(333.676682 251.813221) scale(0.14 -0.14)">
       <defs>
        <path id="ArialMT-39" d="M 350 1059 
L 891 1109 
Q 959 728 1153 556 
Q 1347 384 1650 384 
Q 1909 384 2104 503 
Q 2300 622 2425 820 
Q 2550 1019 2634 1356 
Q 2719 1694 2719 2044 
Q 2719 2081 2716 2156 
Q 2547 1888 2255 1720 
Q 1963 1553 1622 1553 
Q 1053 1553 659 1965 
Q 266 2378 266 3053 
Q 266 3750 677 4175 
Q 1088 4600 1706 4600 
Q 2153 4600 2523 4359 
Q 2894 4119 3086 3673 
Q 3278 3228 3278 2384 
Q 3278 1506 3087 986 
Q 2897 466 2520 194 
Q 2144 -78 1638 -78 
Q 1100 -78 759 220 
Q 419 519 350 1059 
z
M 2653 3081 
Q 2653 3566 2395 3850 
Q 2138 4134 1775 4134 
Q 1400 4134 1122 3828 
Q 844 3522 844 3034 
Q 844 2597 1108 2323 
Q 1372 2050 1759 2050 
Q 2150 2050 2401 2323 
Q 2653 2597 2653 3081 
z
" transform="scale(0.015625)"/>
       </defs>
       <use xlink:href="#ArialMT-39"/>
      </g>
     </g>
    </g>
    <g id="xtick_11">
     <g id="line2d_12">
      <path d="M 367.657922 234.792283 
L 367.657922 24.214983 
" clip-path="url(#pee5f77529a)" style="fill: none; stroke: #cccccc; stroke-width: 0.8; stroke-linecap: round"/>
     </g>
     <g id="text_11">
      <!-- 10 -->
      <g style="fill: #262626" transform="translate(359.87261 251.813221) scale(0.14 -0.14)">
       <use xlink:href="#ArialMT-31"/>
       <use xlink:href="#ArialMT-30" transform="translate(55.615234 0)"/>
      </g>
     </g>
    </g>
    <g id="text_12">
     <!-- Original Position -->
     <g style="fill: #262626" transform="translate(158.9675 270.253221) scale(0.16 -0.16)">
      <defs>
       <path id="ArialMT-4f" d="M 309 2231 
Q 309 3372 921 4017 
Q 1534 4663 2503 4663 
Q 3138 4663 3647 4359 
Q 4156 4056 4423 3514 
Q 4691 2972 4691 2284 
Q 4691 1588 4409 1038 
Q 4128 488 3612 205 
Q 3097 -78 2500 -78 
Q 1853 -78 1343 234 
Q 834 547 571 1087 
Q 309 1628 309 2231 
z
M 934 2222 
Q 934 1394 1379 917 
Q 1825 441 2497 441 
Q 3181 441 3623 922 
Q 4066 1403 4066 2288 
Q 4066 2847 3877 3264 
Q 3688 3681 3323 3911 
Q 2959 4141 2506 4141 
Q 1863 4141 1398 3698 
Q 934 3256 934 2222 
z
" transform="scale(0.015625)"/>
       <path id="ArialMT-72" d="M 416 0 
L 416 3319 
L 922 3319 
L 922 2816 
Q 1116 3169 1280 3281 
Q 1444 3394 1641 3394 
Q 1925 3394 2219 3213 
L 2025 2691 
Q 1819 2813 1613 2813 
Q 1428 2813 1281 2702 
Q 1134 2591 1072 2394 
Q 978 2094 978 1738 
L 978 0 
L 416 0 
z
" transform="scale(0.015625)"/>
       <path id="ArialMT-69" d="M 425 3934 
L 425 4581 
L 988 4581 
L 988 3934 
L 425 3934 
z
M 425 0 
L 425 3319 
L 988 3319 
L 988 0 
L 425 0 
z
" transform="scale(0.015625)"/>
       <path id="ArialMT-67" d="M 319 -275 
L 866 -356 
Q 900 -609 1056 -725 
Q 1266 -881 1628 -881 
Q 2019 -881 2231 -725 
Q 2444 -569 2519 -288 
Q 2563 -116 2559 434 
Q 2191 0 1641 0 
Q 956 0 581 494 
Q 206 988 206 1678 
Q 206 2153 378 2554 
Q 550 2956 876 3175 
Q 1203 3394 1644 3394 
Q 2231 3394 2613 2919 
L 2613 3319 
L 3131 3319 
L 3131 450 
Q 3131 -325 2973 -648 
Q 2816 -972 2473 -1159 
Q 2131 -1347 1631 -1347 
Q 1038 -1347 672 -1080 
Q 306 -813 319 -275 
z
M 784 1719 
Q 784 1066 1043 766 
Q 1303 466 1694 466 
Q 2081 466 2343 764 
Q 2606 1063 2606 1700 
Q 2606 2309 2336 2618 
Q 2066 2928 1684 2928 
Q 1309 2928 1046 2623 
Q 784 2319 784 1719 
z
" transform="scale(0.015625)"/>
       <path id="ArialMT-6e" d="M 422 0 
L 422 3319 
L 928 3319 
L 928 2847 
Q 1294 3394 1984 3394 
Q 2284 3394 2536 3286 
Q 2788 3178 2913 3003 
Q 3038 2828 3088 2588 
Q 3119 2431 3119 2041 
L 3119 0 
L 2556 0 
L 2556 2019 
Q 2556 2363 2490 2533 
Q 2425 2703 2258 2804 
Q 2091 2906 1866 2906 
Q 1506 2906 1245 2678 
Q 984 2450 984 1813 
L 984 0 
L 422 0 
z
" transform="scale(0.015625)"/>
       <path id="ArialMT-61" d="M 2588 409 
Q 2275 144 1986 34 
Q 1697 -75 1366 -75 
Q 819 -75 525 192 
Q 231 459 231 875 
Q 231 1119 342 1320 
Q 453 1522 633 1644 
Q 813 1766 1038 1828 
Q 1203 1872 1538 1913 
Q 2219 1994 2541 2106 
Q 2544 2222 2544 2253 
Q 2544 2597 2384 2738 
Q 2169 2928 1744 2928 
Q 1347 2928 1158 2789 
Q 969 2650 878 2297 
L 328 2372 
Q 403 2725 575 2942 
Q 747 3159 1072 3276 
Q 1397 3394 1825 3394 
Q 2250 3394 2515 3294 
Q 2781 3194 2906 3042 
Q 3031 2891 3081 2659 
Q 3109 2516 3109 2141 
L 3109 1391 
Q 3109 606 3145 398 
Q 3181 191 3288 0 
L 2700 0 
Q 2613 175 2588 409 
z
M 2541 1666 
Q 2234 1541 1622 1453 
Q 1275 1403 1131 1340 
Q 988 1278 909 1158 
Q 831 1038 831 891 
Q 831 666 1001 516 
Q 1172 366 1500 366 
Q 1825 366 2078 508 
Q 2331 650 2450 897 
Q 2541 1088 2541 1459 
L 2541 1666 
z
" transform="scale(0.015625)"/>
       <path id="ArialMT-6c" d="M 409 0 
L 409 4581 
L 972 4581 
L 972 0 
L 409 0 
z
" transform="scale(0.015625)"/>
       <path id="ArialMT-20" transform="scale(0.015625)"/>
       <path id="ArialMT-50" d="M 494 0 
L 494 4581 
L 2222 4581 
Q 2678 4581 2919 4538 
Q 3256 4481 3484 4323 
Q 3713 4166 3852 3881 
Q 3991 3597 3991 3256 
Q 3991 2672 3619 2267 
Q 3247 1863 2275 1863 
L 1100 1863 
L 1100 0 
L 494 0 
z
M 1100 2403 
L 2284 2403 
Q 2872 2403 3119 2622 
Q 3366 2841 3366 3238 
Q 3366 3525 3220 3729 
Q 3075 3934 2838 4000 
Q 2684 4041 2272 4041 
L 1100 4041 
L 1100 2403 
z
" transform="scale(0.015625)"/>
       <path id="ArialMT-6f" d="M 213 1659 
Q 213 2581 725 3025 
Q 1153 3394 1769 3394 
Q 2453 3394 2887 2945 
Q 3322 2497 3322 1706 
Q 3322 1066 3130 698 
Q 2938 331 2570 128 
Q 2203 -75 1769 -75 
Q 1072 -75 642 372 
Q 213 819 213 1659 
z
M 791 1659 
Q 791 1022 1069 705 
Q 1347 388 1769 388 
Q 2188 388 2466 706 
Q 2744 1025 2744 1678 
Q 2744 2294 2464 2611 
Q 2184 2928 1769 2928 
Q 1347 2928 1069 2612 
Q 791 2297 791 1659 
z
" transform="scale(0.015625)"/>
       <path id="ArialMT-73" d="M 197 991 
L 753 1078 
Q 800 744 1014 566 
Q 1228 388 1613 388 
Q 2000 388 2187 545 
Q 2375 703 2375 916 
Q 2375 1106 2209 1216 
Q 2094 1291 1634 1406 
Q 1016 1563 777 1677 
Q 538 1791 414 1992 
Q 291 2194 291 2438 
Q 291 2659 392 2848 
Q 494 3038 669 3163 
Q 800 3259 1026 3326 
Q 1253 3394 1513 3394 
Q 1903 3394 2198 3281 
Q 2494 3169 2634 2976 
Q 2775 2784 2828 2463 
L 2278 2388 
Q 2241 2644 2061 2787 
Q 1881 2931 1553 2931 
Q 1166 2931 1000 2803 
Q 834 2675 834 2503 
Q 834 2394 903 2306 
Q 972 2216 1119 2156 
Q 1203 2125 1616 2013 
Q 2213 1853 2448 1751 
Q 2684 1650 2818 1456 
Q 2953 1263 2953 975 
Q 2953 694 2789 445 
Q 2625 197 2315 61 
Q 2006 -75 1616 -75 
Q 969 -75 630 194 
Q 291 463 197 991 
z
" transform="scale(0.015625)"/>
       <path id="ArialMT-74" d="M 1650 503 
L 1731 6 
Q 1494 -44 1306 -44 
Q 1000 -44 831 53 
Q 663 150 594 308 
Q 525 466 525 972 
L 525 2881 
L 113 2881 
L 113 3319 
L 525 3319 
L 525 4141 
L 1084 4478 
L 1084 3319 
L 1650 3319 
L 1650 2881 
L 1084 2881 
L 1084 941 
Q 1084 700 1114 631 
Q 1144 563 1211 522 
Q 1278 481 1403 481 
Q 1497 481 1650 503 
z
" transform="scale(0.015625)"/>
      </defs>
      <use xlink:href="#ArialMT-4f"/>
      <use xlink:href="#ArialMT-72" transform="translate(77.783203 0)"/>
      <use xlink:href="#ArialMT-69" transform="translate(111.083984 0)"/>
      <use xlink:href="#ArialMT-67" transform="translate(133.300781 0)"/>
      <use xlink:href="#ArialMT-69" transform="translate(188.916016 0)"/>
      <use xlink:href="#ArialMT-6e" transform="translate(211.132812 0)"/>
      <use xlink:href="#ArialMT-61" transform="translate(266.748047 0)"/>
      <use xlink:href="#ArialMT-6c" transform="translate(322.363281 0)"/>
      <use xlink:href="#ArialMT-20" transform="translate(344.580078 0)"/>
      <use xlink:href="#ArialMT-50" transform="translate(372.363281 0)"/>
      <use xlink:href="#ArialMT-6f" transform="translate(439.0625 0)"/>
      <use xlink:href="#ArialMT-73" transform="translate(494.677734 0)"/>
      <use xlink:href="#ArialMT-69" transform="translate(544.677734 0)"/>
      <use xlink:href="#ArialMT-74" transform="translate(566.894531 0)"/>
      <use xlink:href="#ArialMT-69" transform="translate(594.677734 0)"/>
      <use xlink:href="#ArialMT-6f" transform="translate(616.894531 0)"/>
      <use xlink:href="#ArialMT-6e" transform="translate(672.509766 0)"/>
     </g>
    </g>
   </g>
   <g id="matplotlib.axis_2">
    <g id="ytick_1">
     <g id="line2d_13">
      <path d="M 52.48 234.792283 
L 381.95 234.792283 
" clip-path="url(#pee5f77529a)" style="fill: none; stroke: #cccccc; stroke-width: 0.8; stroke-linecap: round"/>
     </g>
     <g id="text_13">
      <!-- 0.0 -->
      <g style="fill: #262626" transform="translate(26.02 239.802752) scale(0.14 -0.14)">
       <defs>
        <path id="ArialMT-2e" d="M 581 0 
L 581 641 
L 1222 641 
L 1222 0 
L 581 0 
z
" transform="scale(0.015625)"/>
       </defs>
       <use xlink:href="#ArialMT-30"/>
       <use xlink:href="#ArialMT-2e" transform="translate(55.615234 0)"/>
       <use xlink:href="#ArialMT-30" transform="translate(83.398438 0)"/>
      </g>
     </g>
    </g>
    <g id="ytick_2">
     <g id="line2d_14">
      <path d="M 52.48 192.676823 
L 381.95 192.676823 
" clip-path="url(#pee5f77529a)" style="fill: none; stroke: #cccccc; stroke-width: 0.8; stroke-linecap: round"/>
     </g>
     <g id="text_14">
      <!-- 0.2 -->
      <g style="fill: #262626" transform="translate(26.02 197.687292) scale(0.14 -0.14)">
       <use xlink:href="#ArialMT-30"/>
       <use xlink:href="#ArialMT-2e" transform="translate(55.615234 0)"/>
       <use xlink:href="#ArialMT-32" transform="translate(83.398438 0)"/>
      </g>
     </g>
    </g>
    <g id="ytick_3">
     <g id="line2d_15">
      <path d="M 52.48 150.561363 
L 381.95 150.561363 
" clip-path="url(#pee5f77529a)" style="fill: none; stroke: #cccccc; stroke-width: 0.8; stroke-linecap: round"/>
     </g>
     <g id="text_15">
      <!-- 0.4 -->
      <g style="fill: #262626" transform="translate(26.02 155.571832) scale(0.14 -0.14)">
       <use xlink:href="#ArialMT-30"/>
       <use xlink:href="#ArialMT-2e" transform="translate(55.615234 0)"/>
       <use xlink:href="#ArialMT-34" transform="translate(83.398438 0)"/>
      </g>
     </g>
    </g>
    <g id="ytick_4">
     <g id="line2d_16">
      <path d="M 52.48 108.445903 
L 381.95 108.445903 
" clip-path="url(#pee5f77529a)" style="fill: none; stroke: #cccccc; stroke-width: 0.8; stroke-linecap: round"/>
     </g>
     <g id="text_16">
      <!-- 0.6 -->
      <g style="fill: #262626" transform="translate(26.02 113.456372) scale(0.14 -0.14)">
       <use xlink:href="#ArialMT-30"/>
       <use xlink:href="#ArialMT-2e" transform="translate(55.615234 0)"/>
       <use xlink:href="#ArialMT-36" transform="translate(83.398438 0)"/>
      </g>
     </g>
    </g>
    <g id="ytick_5">
     <g id="line2d_17">
      <path d="M 52.48 66.330443 
L 381.95 66.330443 
" clip-path="url(#pee5f77529a)" style="fill: none; stroke: #cccccc; stroke-width: 0.8; stroke-linecap: round"/>
     </g>
     <g id="text_17">
      <!-- 0.8 -->
      <g style="fill: #262626" transform="translate(26.02 71.340912) scale(0.14 -0.14)">
       <use xlink:href="#ArialMT-30"/>
       <use xlink:href="#ArialMT-2e" transform="translate(55.615234 0)"/>
       <use xlink:href="#ArialMT-38" transform="translate(83.398438 0)"/>
      </g>
     </g>
    </g>
    <g id="ytick_6">
     <g id="line2d_18">
      <path d="M 52.48 24.214983 
L 381.95 24.214983 
" clip-path="url(#pee5f77529a)" style="fill: none; stroke: #cccccc; stroke-width: 0.8; stroke-linecap: round"/>
     </g>
     <g id="text_18">
      <!-- 1.0 -->
      <g style="fill: #262626" transform="translate(26.02 29.225452) scale(0.14 -0.14)">
       <use xlink:href="#ArialMT-31"/>
       <use xlink:href="#ArialMT-2e" transform="translate(55.615234 0)"/>
       <use xlink:href="#ArialMT-30" transform="translate(83.398438 0)"/>
      </g>
     </g>
    </g>
    <g id="text_19">
     <!-- Frequency -->
     <g style="fill: #262626" transform="translate(18.6525 167.297383) rotate(-90) scale(0.16 -0.16)">
      <defs>
       <path id="ArialMT-46" d="M 525 0 
L 525 4581 
L 3616 4581 
L 3616 4041 
L 1131 4041 
L 1131 2622 
L 3281 2622 
L 3281 2081 
L 1131 2081 
L 1131 0 
L 525 0 
z
" transform="scale(0.015625)"/>
       <path id="ArialMT-65" d="M 2694 1069 
L 3275 997 
Q 3138 488 2766 206 
Q 2394 -75 1816 -75 
Q 1088 -75 661 373 
Q 234 822 234 1631 
Q 234 2469 665 2931 
Q 1097 3394 1784 3394 
Q 2450 3394 2872 2941 
Q 3294 2488 3294 1666 
Q 3294 1616 3291 1516 
L 816 1516 
Q 847 969 1125 678 
Q 1403 388 1819 388 
Q 2128 388 2347 550 
Q 2566 713 2694 1069 
z
M 847 1978 
L 2700 1978 
Q 2663 2397 2488 2606 
Q 2219 2931 1791 2931 
Q 1403 2931 1139 2672 
Q 875 2413 847 1978 
z
" transform="scale(0.015625)"/>
       <path id="ArialMT-71" d="M 2538 -1272 
L 2538 353 
Q 2406 169 2170 47 
Q 1934 -75 1669 -75 
Q 1078 -75 651 397 
Q 225 869 225 1691 
Q 225 2191 398 2587 
Q 572 2984 901 3189 
Q 1231 3394 1625 3394 
Q 2241 3394 2594 2875 
L 2594 3319 
L 3100 3319 
L 3100 -1272 
L 2538 -1272 
z
M 803 1669 
Q 803 1028 1072 708 
Q 1341 388 1716 388 
Q 2075 388 2334 692 
Q 2594 997 2594 1619 
Q 2594 2281 2320 2615 
Q 2047 2950 1678 2950 
Q 1313 2950 1058 2639 
Q 803 2328 803 1669 
z
" transform="scale(0.015625)"/>
       <path id="ArialMT-75" d="M 2597 0 
L 2597 488 
Q 2209 -75 1544 -75 
Q 1250 -75 995 37 
Q 741 150 617 320 
Q 494 491 444 738 
Q 409 903 409 1263 
L 409 3319 
L 972 3319 
L 972 1478 
Q 972 1038 1006 884 
Q 1059 663 1231 536 
Q 1403 409 1656 409 
Q 1909 409 2131 539 
Q 2353 669 2445 892 
Q 2538 1116 2538 1541 
L 2538 3319 
L 3100 3319 
L 3100 0 
L 2597 0 
z
" transform="scale(0.015625)"/>
       <path id="ArialMT-63" d="M 2588 1216 
L 3141 1144 
Q 3050 572 2676 248 
Q 2303 -75 1759 -75 
Q 1078 -75 664 370 
Q 250 816 250 1647 
Q 250 2184 428 2587 
Q 606 2991 970 3192 
Q 1334 3394 1763 3394 
Q 2303 3394 2647 3120 
Q 2991 2847 3088 2344 
L 2541 2259 
Q 2463 2594 2264 2762 
Q 2066 2931 1784 2931 
Q 1359 2931 1093 2626 
Q 828 2322 828 1663 
Q 828 994 1084 691 
Q 1341 388 1753 388 
Q 2084 388 2306 591 
Q 2528 794 2588 1216 
z
" transform="scale(0.015625)"/>
       <path id="ArialMT-79" d="M 397 -1278 
L 334 -750 
Q 519 -800 656 -800 
Q 844 -800 956 -737 
Q 1069 -675 1141 -563 
Q 1194 -478 1313 -144 
Q 1328 -97 1363 -6 
L 103 3319 
L 709 3319 
L 1400 1397 
Q 1534 1031 1641 628 
Q 1738 1016 1872 1384 
L 2581 3319 
L 3144 3319 
L 1881 -56 
Q 1678 -603 1566 -809 
Q 1416 -1088 1222 -1217 
Q 1028 -1347 759 -1347 
Q 597 -1347 397 -1278 
z
" transform="scale(0.015625)"/>
      </defs>
      <use xlink:href="#ArialMT-46"/>
      <use xlink:href="#ArialMT-72" transform="translate(61.083984 0)"/>
      <use xlink:href="#ArialMT-65" transform="translate(94.384766 0)"/>
      <use xlink:href="#ArialMT-71" transform="translate(150 0)"/>
      <use xlink:href="#ArialMT-75" transform="translate(205.615234 0)"/>
      <use xlink:href="#ArialMT-65" transform="translate(261.230469 0)"/>
      <use xlink:href="#ArialMT-6e" transform="translate(316.845703 0)"/>
      <use xlink:href="#ArialMT-63" transform="translate(372.460938 0)"/>
      <use xlink:href="#ArialMT-79" transform="translate(422.460938 0)"/>
     </g>
    </g>
   </g>
   <g id="patch_35">
    <path d="M 52.48 234.792283 
L 52.48 24.214983 
" style="fill: none; stroke: #cccccc; stroke-width: 0.8; stroke-linejoin: miter; stroke-linecap: square"/>
   </g>
   <g id="patch_36">
    <path d="M 381.95 234.792283 
L 381.95 24.214983 
" style="fill: none; stroke: #cccccc; stroke-width: 0.8; stroke-linejoin: miter; stroke-linecap: square"/>
   </g>
   <g id="patch_37">
    <path d="M 52.48 234.792283 
L 381.95 234.792283 
" style="fill: none; stroke: #cccccc; stroke-width: 0.8; stroke-linejoin: miter; stroke-linecap: square"/>
   </g>
   <g id="patch_38">
    <path d="M 52.48 24.214983 
L 381.95 24.214983 
" style="fill: none; stroke: #cccccc; stroke-width: 0.8; stroke-linejoin: miter; stroke-linecap: square"/>
   </g>
   <g id="text_20">
    <!-- 12 -->
    <g style="fill: #000080; opacity: 0.6" transform="translate(58.986765 17.220937) scale(0.14 -0.14)">
     <defs>
      <path id="Arial-ItalicMT-31" d="M 1541 0 
L 2266 3459 
Q 1797 3091 947 2869 
L 1053 3381 
Q 1475 3550 1886 3822 
Q 2297 4094 2503 4297 
Q 2628 4422 2741 4600 
L 3069 4600 
L 2109 0 
L 1541 0 
z
" transform="scale(0.015625)"/>
      <path id="Arial-ItalicMT-32" d="M 375 0 
Q 463 409 617 686 
Q 772 963 1028 1211 
Q 1284 1459 2016 2044 
Q 2459 2397 2622 2566 
Q 2856 2809 2963 3044 
Q 3034 3203 3034 3391 
Q 3034 3706 2811 3926 
Q 2588 4147 2263 4147 
Q 1941 4147 1700 3923 
Q 1459 3700 1356 3206 
L 803 3288 
Q 884 3897 1276 4248 
Q 1669 4600 2253 4600 
Q 2644 4600 2961 4437 
Q 3278 4275 3437 3981 
Q 3597 3688 3597 3375 
Q 3597 2919 3272 2497 
Q 3072 2234 2097 1463 
Q 1678 1131 1473 918 
Q 1269 706 1166 519 
L 3216 519 
L 3106 0 
L 375 0 
z
" transform="scale(0.015625)"/>
     </defs>
     <use xlink:href="#Arial-ItalicMT-31"/>
     <use xlink:href="#Arial-ItalicMT-32" transform="translate(55.615234 0)"/>
    </g>
   </g>
   <g id="text_21">
    <!-- 12 -->
    <g style="fill: #000080; opacity: 0.6" transform="translate(89.07535 17.220937) scale(0.14 -0.14)">
     <use xlink:href="#Arial-ItalicMT-31"/>
     <use xlink:href="#Arial-ItalicMT-32" transform="translate(55.615234 0)"/>
    </g>
   </g>
   <g id="text_22">
    <!-- 12 -->
    <g style="fill: #000080; opacity: 0.6" transform="translate(119.163934 17.220937) scale(0.14 -0.14)">
     <use xlink:href="#Arial-ItalicMT-31"/>
     <use xlink:href="#Arial-ItalicMT-32" transform="translate(55.615234 0)"/>
    </g>
   </g>
   <g id="text_23">
    <!-- 12 -->
    <g style="fill: #000080; opacity: 0.6" transform="translate(149.252519 17.220937) scale(0.14 -0.14)">
     <use xlink:href="#Arial-ItalicMT-31"/>
     <use xlink:href="#Arial-ItalicMT-32" transform="translate(55.615234 0)"/>
    </g>
   </g>
   <g id="text_24">
    <!-- 12 -->
    <g style="fill: #000080; opacity: 0.6" transform="translate(179.341103 17.220937) scale(0.14 -0.14)">
     <use xlink:href="#Arial-ItalicMT-31"/>
     <use xlink:href="#Arial-ItalicMT-32" transform="translate(55.615234 0)"/>
    </g>
   </g>
   <g id="text_25">
    <!-- 12 -->
    <g style="fill: #000080; opacity: 0.6" transform="translate(209.429688 17.220937) scale(0.14 -0.14)">
     <use xlink:href="#Arial-ItalicMT-31"/>
     <use xlink:href="#Arial-ItalicMT-32" transform="translate(55.615234 0)"/>
    </g>
   </g>
   <g id="text_26">
    <!-- 12 -->
    <g style="fill: #000080; opacity: 0.6" transform="translate(239.518272 17.220937) scale(0.14 -0.14)">
     <use xlink:href="#Arial-ItalicMT-31"/>
     <use xlink:href="#Arial-ItalicMT-32" transform="translate(55.615234 0)"/>
    </g>
   </g>
   <g id="text_27">
    <!-- 10 -->
    <g style="fill: #000080; opacity: 0.6" transform="translate(269.606856 17.220937) scale(0.14 -0.14)">
     <defs>
      <path id="Arial-ItalicMT-30" d="M 453 1503 
Q 453 2084 626 2684 
Q 800 3284 1012 3643 
Q 1225 4003 1453 4206 
Q 1681 4409 1901 4504 
Q 2122 4600 2391 4600 
Q 2916 4600 3267 4209 
Q 3619 3819 3619 3081 
Q 3619 2322 3375 1578 
Q 3088 697 2575 256 
Q 2181 -78 1678 -78 
Q 1163 -78 808 326 
Q 453 731 453 1503 
z
M 1000 1359 
Q 1000 938 1141 700 
Q 1331 372 1706 372 
Q 2034 372 2303 669 
Q 2691 1088 2886 1895 
Q 3081 2703 3081 3216 
Q 3081 3709 2892 3928 
Q 2703 4147 2394 4147 
Q 2169 4147 1973 4031 
Q 1778 3916 1600 3634 
Q 1347 3238 1159 2447 
Q 1000 1772 1000 1359 
z
" transform="scale(0.015625)"/>
     </defs>
     <use xlink:href="#Arial-ItalicMT-31"/>
     <use xlink:href="#Arial-ItalicMT-30" transform="translate(55.615234 0)"/>
    </g>
   </g>
   <g id="text_28">
    <!-- 6 -->
    <g style="fill: #000080; opacity: 0.6" transform="translate(303.588097 17.220937) scale(0.14 -0.14)">
     <defs>
      <path id="Arial-ItalicMT-36" d="M 1288 2656 
Q 1525 2853 1761 2951 
Q 1997 3050 2228 3050 
Q 2750 3050 3090 2694 
Q 3431 2338 3431 1734 
Q 3431 956 2925 400 
Q 2488 -78 1863 -78 
Q 1294 -78 914 339 
Q 534 756 534 1528 
Q 534 2219 778 2956 
Q 966 3522 1242 3889 
Q 1519 4256 1830 4428 
Q 2141 4600 2531 4600 
Q 3000 4600 3297 4308 
Q 3594 4016 3634 3472 
L 3109 3422 
Q 3066 3794 2898 3959 
Q 2731 4125 2491 4125 
Q 2238 4125 1981 3928 
Q 1725 3731 1540 3345 
Q 1356 2959 1288 2656 
z
M 1091 1288 
Q 1091 900 1331 636 
Q 1572 372 1875 372 
Q 2088 372 2325 533 
Q 2563 694 2728 1022 
Q 2894 1350 2894 1675 
Q 2894 2094 2664 2345 
Q 2434 2597 2109 2597 
Q 1734 2597 1412 2230 
Q 1091 1863 1091 1288 
z
" transform="scale(0.015625)"/>
     </defs>
     <use xlink:href="#Arial-ItalicMT-36"/>
    </g>
   </g>
   <g id="text_29">
    <!-- 1 -->
    <g style="fill: #000080; opacity: 0.6" transform="translate(333.676682 17.220937) scale(0.14 -0.14)">
     <use xlink:href="#Arial-ItalicMT-31"/>
    </g>
   </g>
   <g id="text_30">
    <!-- 1 -->
    <g style="fill: #000080; opacity: 0.6" transform="translate(363.765266 17.220937) scale(0.14 -0.14)">
     <use xlink:href="#Arial-ItalicMT-31"/>
    </g>
   </g>
  </g>
 </g>
 <defs>
  <clipPath id="pee5f77529a">
   <rect x="52.48" y="24.214983" width="329.47" height="210.5773"/>
  </clipPath>
 </defs>
</svg>
