<?xml version="1.0" encoding="utf-8" standalone="no"?>
<!DOCTYPE svg PUBLIC "-//W3C//DTD SVG 1.1//EN"
  "http://www.w3.org/Graphics/SVG/1.1/DTD/svg11.dtd">
<svg xmlns:xlink="http://www.w3.org/1999/xlink" width="461.15pt" height="280.820721pt" viewBox="0 0 461.15 280.820721" xmlns="http://www.w3.org/2000/svg" version="1.1">
 <metadata>
  <rdf:RDF xmlns:dc="http://purl.org/dc/elements/1.1/" xmlns:cc="http://creativecommons.org/ns#" xmlns:rdf="http://www.w3.org/1999/02/22-rdf-syntax-ns#">
   <cc:Work>
    <dc:type rdf:resource="http://purl.org/dc/dcmitype/StillImage"/>
    <dc:date>2025-05-09T14:25:54.012423</dc:date>
    <dc:format>image/svg+xml</dc:format>
    <dc:creator>
     <cc:Agent>
      <dc:title>Matplotlib v3.10.1, https://matplotlib.org/</dc:title>
     </cc:Agent>
    </dc:creator>
   </cc:Work>
  </rdf:RDF>
 </metadata>
 <defs>
  <style type="text/css">*{stroke-linejoin: round; stroke-linecap: butt}</style>
 </defs>
 <g id="figure_1">
  <g id="patch_1">
   <path d="M 0 280.820721 
L 461.15 280.820721 
L 461.15 0 
L 0 0 
z
" style="fill: #ffffff"/>
  </g>
  <g id="axes_1">
   <g id="patch_2">
    <path d="M 52.48 234.792283 
L 453.95 234.792283 
L 453.95 24.214983 
L 52.48 24.214983 
z
" style="fill: #ffffff"/>
   </g>
   <g id="line2d_1">
    <path d="M 52.48 234.792283 
L 453.95 234.792283 
" clip-path="url(#pf92ff0eec2)" style="fill: none; stroke: #000000; stroke-width: 0.5; stroke-linecap: round"/>
   </g>
   <g id="patch_3">
    <path d="M 52.48 234.792283 
L 52.48 204.709812 
L 61.698143 204.709812 
L 67.229029 225.231035 
L 72.700013 204.709812 
L 81.931467 204.709812 
L 81.931467 234.792283 
L 76.214222 234.792283 
L 76.214222 211.112434 
L 70.157536 234.792283 
L 64.233964 234.792283 
L 58.203901 211.112434 
L 58.203901 234.792283 
L 52.48 234.792283 
z
" clip-path="url(#pf92ff0eec2)" style="fill: #ff8c00"/>
   </g>
   <g id="patch_4">
    <path d="M 63.29606 204.709812 
L 63.29606 24.214983 
L 71.115407 24.214983 
L 71.115407 204.709812 
L 63.29606 204.709812 
z
" clip-path="url(#pf92ff0eec2)" style="fill: #add8e6"/>
   </g>
   <g id="patch_5">
    <path d="M 83.481544 234.792283 
L 83.481544 204.709812 
L 95.936938 204.709812 
Q 103.020734 204.709812 105.169373 205.156354 
Q 108.476263 205.8393 110.700441 208.104843 
Q 112.933012 210.370386 112.933012 213.962421 
Q 112.933012 216.733607 111.648864 218.624843 
Q 110.364716 220.509512 108.383939 221.586466 
Q 106.403162 222.66342 104.35524 223.01146 
Q 101.577117 223.444868 96.306236 223.444868 
L 91.245183 223.444868 
L 91.245183 234.792283 
L 83.481544 234.792283 
z
M 91.245183 209.799075 
L 91.245183 218.335904 
L 95.492103 218.335904 
Q 100.083141 218.335904 101.627475 217.863095 
Q 103.180203 217.390286 104.053088 216.385567 
Q 104.934366 215.380848 104.934366 214.047789 
Q 104.934366 212.406092 103.700577 211.342271 
Q 102.466788 210.271884 100.578335 210.002646 
Q 99.19347 209.799075 94.996909 209.799075 
L 91.245183 209.799075 
z
" clip-path="url(#pf92ff0eec2)" style="fill: #f0fff0"/>
   </g>
   <g id="patch_6">
    <path d="M 83.481544 204.709812 
L 94.310612 173.307416 
L 84.498066 144.544869 
L 91.973303 144.544869 
L 98.328292 163.877503 
L 104.551894 144.544869 
L 111.964896 144.544869 
L 102.110859 173.767091 
L 112.933012 204.709812 
L 105.22266 204.709812 
L 98.196905 183.906217 
L 91.150405 204.709812 
L 83.481544 204.709812 
z
" clip-path="url(#pf92ff0eec2)" style="fill: #bdb76b"/>
   </g>
   <g id="patch_7">
    <path d="M 99.227941 99.786318 
L 99.227941 80.175874 
L 112.933012 80.175874 
L 112.933012 126.53476 
Q 110.932924 133.672758 107.138942 139.108814 
Q 103.351834 144.544869 99.461629 144.544869 
Q 94.526704 144.544869 90.849566 136.898828 
Q 87.179302 129.227385 85.330423 114.976791 
Q 83.481544 100.726196 83.481544 83.986193 
Q 83.481544 65.798269 85.543491 51.674685 
Q 87.605437 37.551101 91.57812 30.006669 
Q 94.609182 24.214983 99.117971 24.214983 
Q 104.980772 24.214983 108.279886 33.308946 
Q 111.579 42.377506 112.520622 58.406249 
L 106.211066 62.775416 
Q 105.54437 54.214898 103.702365 49.261483 
Q 101.867233 44.282666 99.117971 44.282666 
Q 94.952839 44.282666 92.49225 54.062485 
Q 90.031661 63.816903 90.031661 83.020912 
Q 90.031661 103.74905 92.519743 114.113119 
Q 95.014698 124.451785 99.056113 124.451785 
Q 101.056201 124.451785 103.063162 121.555942 
Q 105.070123 118.6601 106.506612 114.544955 
L 106.506612 99.786318 
L 99.227941 99.786318 
z
" clip-path="url(#pf92ff0eec2)" style="fill: #ff69b4"/>
   </g>
   <g id="patch_8">
    <path d="M 114.483089 234.792283 
L 114.483089 204.709812 
L 121.077765 204.709812 
L 121.077765 218.066666 
L 134.402575 204.709812 
L 143.271524 204.709812 
L 130.973344 216.424968 
L 143.934556 234.792283 
L 135.407818 234.792283 
L 126.4248 220.673682 
L 121.077765 225.703844 
L 121.077765 234.792283 
L 114.483089 234.792283 
z
" clip-path="url(#pf92ff0eec2)" style="fill: #6495ed"/>
   </g>
   <g id="patch_9">
    <path d="M 139.206753 192.484032 
Q 141.382436 195.340633 143.934556 197.033433 
L 141.758874 204.709812 
Q 140.425391 203.980968 139.149331 202.699612 
Q 138.868597 202.440989 135.219065 197.9151 
Q 132.34793 200.230945 128.857906 200.230945 
Q 122.120309 200.230945 118.298509 192.918988 
Q 114.483089 185.607031 114.483089 172.382029 
Q 114.483089 159.192294 118.311269 151.868581 
Q 122.139449 144.544869 128.698398 144.544869 
Q 135.199925 144.544869 139.008964 151.868581 
Q 142.818003 159.192294 142.818003 172.382029 
Q 142.818003 179.36483 141.758874 184.654831 
Q 140.961336 188.698743 139.206753 192.484032 
z
M 134.45981 186.347631 
Q 135.601884 183.878964 136.16973 180.399319 
Q 136.737577 176.907919 136.737577 172.382029 
Q 136.737577 163.059872 134.504472 158.451694 
Q 132.271367 153.83176 128.660117 153.83176 
Q 125.048866 153.83176 122.803001 158.463449 
Q 120.563515 163.095139 120.563515 172.382029 
Q 120.563515 181.821742 122.803001 186.512209 
Q 125.048866 191.190921 128.481468 191.190921 
Q 129.757528 191.190921 130.893222 190.42681 
Q 129.100357 188.252032 127.24369 187.041209 
L 128.902568 180.834275 
Q 131.811985 182.668142 134.45981 186.347631 
z
" clip-path="url(#pf92ff0eec2)" style="fill: #0000ff"/>
   </g>
   <g id="patch_10">
    <path d="M 114.483089 144.544869 
L 114.483089 24.214983 
L 123.701232 24.214983 
L 129.232117 106.299876 
L 134.703102 24.214983 
L 143.934556 24.214983 
L 143.934556 144.544869 
L 138.217311 144.544869 
L 138.217311 49.82547 
L 132.160625 144.544869 
L 126.237053 144.544869 
L 120.20699 49.82547 
L 120.20699 144.544869 
L 114.483089 144.544869 
z
" clip-path="url(#pf92ff0eec2)" style="fill: #ff8c00"/>
   </g>
   <g id="patch_11">
    <path d="M 145.484633 234.792283 
L 145.484633 204.709812 
L 152.923903 204.709812 
L 152.923903 216.549737 
L 167.49683 216.549737 
L 167.49683 204.709812 
L 174.9361 204.709812 
L 174.9361 234.792283 
L 167.49683 234.792283 
L 167.49683 221.639 
L 152.923903 221.639 
L 152.923903 234.792283 
L 145.484633 234.792283 
z
" clip-path="url(#pf92ff0eec2)" style="fill: #00ffff"/>
   </g>
   <g id="patch_12">
    <path d="M 156.480387 204.709812 
L 156.480387 154.723396 
L 145.484633 154.723396 
L 145.484633 144.544869 
L 174.9361 144.544869 
L 174.9361 154.723396 
L 163.96462 154.723396 
L 163.96462 204.709812 
L 156.480387 204.709812 
z
" clip-path="url(#pf92ff0eec2)" style="fill: #a0522d"/>
   </g>
   <g id="patch_13">
    <path d="M 170.208298 120.09331 
Q 172.38398 125.806511 174.9361 129.192111 
L 172.760418 144.544869 
Q 171.426935 143.08718 170.150875 140.524469 
Q 169.870142 140.007224 166.22061 130.955445 
Q 163.349475 135.587134 159.85945 135.587134 
Q 153.121853 135.587134 149.300053 120.963221 
Q 145.484633 106.339308 145.484633 79.889303 
Q 145.484633 53.509833 149.312814 38.862408 
Q 153.140994 24.214983 159.699943 24.214983 
Q 166.201469 24.214983 170.010508 38.862408 
Q 173.819548 53.509833 173.819548 79.889303 
Q 173.819548 93.854906 172.760418 104.434907 
Q 171.96288 112.522731 170.208298 120.09331 
z
M 165.461354 107.820508 
Q 166.603428 102.883174 167.171275 95.923884 
Q 167.739121 88.941083 167.739121 79.889303 
Q 167.739121 61.244989 165.506016 52.028632 
Q 163.272911 42.788764 159.661661 42.788764 
Q 156.050411 42.788764 153.804545 52.052143 
Q 151.56506 61.315523 151.56506 79.889303 
Q 151.56506 98.768729 153.804545 108.149663 
Q 156.050411 117.507087 159.483013 117.507087 
Q 160.759073 117.507087 161.894766 115.978865 
Q 160.101902 111.629308 158.245234 109.207664 
L 159.904112 96.793795 
Q 162.813529 100.461529 165.461354 107.820508 
z
" clip-path="url(#pf92ff0eec2)" style="fill: #0000ff"/>
   </g>
   <g id="patch_14">
    <path d="M 201.209842 216.453614 
Q 203.385525 220.738515 205.937645 223.277715 
L 203.761962 234.792283 
Q 202.42848 233.699017 201.152419 231.776983 
Q 200.871686 231.38905 197.222154 224.600215 
Q 194.351019 228.073982 190.860995 228.073982 
Q 184.123397 228.073982 180.301597 217.106047 
Q 176.486178 206.138112 176.486178 186.300609 
Q 176.486178 166.516006 180.314358 155.530438 
Q 184.142538 144.544869 190.701487 144.544869 
Q 197.203013 144.544869 201.012053 155.530438 
Q 204.821092 166.516006 204.821092 186.300609 
Q 204.821092 196.774811 203.761962 204.709812 
Q 202.964425 210.77568 201.209842 216.453614 
z
M 196.462899 207.249012 
Q 197.604972 203.546012 198.172819 198.326544 
Q 198.740666 193.089444 198.740666 186.300609 
Q 198.740666 172.317374 196.507561 165.405106 
Q 194.274455 158.475205 190.663205 158.475205 
Q 187.051955 158.475205 184.806089 165.422739 
Q 182.566604 172.370274 182.566604 186.300609 
Q 182.566604 200.460178 184.806089 207.495879 
Q 187.051955 214.513947 190.484557 214.513947 
Q 191.760617 214.513947 192.896311 213.36778 
Q 191.103446 210.105613 189.246779 208.289379 
L 190.905657 198.978978 
Q 193.815074 201.729778 196.462899 207.249012 
z
" clip-path="url(#pf92ff0eec2)" style="fill: #0000ff"/>
   </g>
   <g id="patch_15">
    <path d="M 187.481931 144.544869 
L 187.481931 44.572037 
L 176.486178 44.572037 
L 176.486178 24.214983 
L 205.937645 24.214983 
L 205.937645 44.572037 
L 194.966164 44.572037 
L 194.966164 144.544869 
L 187.481931 144.544869 
z
" clip-path="url(#pf92ff0eec2)" style="fill: #a0522d"/>
   </g>
   <g id="patch_16">
    <path d="M 218.303782 234.792283 
L 218.303782 199.696067 
L 226.123129 199.696067 
L 226.123129 234.792283 
L 218.303782 234.792283 
z
" clip-path="url(#pf92ff0eec2)" style="fill: #add8e6"/>
   </g>
   <g id="patch_17">
    <path d="M 218.483476 199.696067 
L 218.483476 170.537324 
L 207.487722 170.537324 
L 207.487722 164.59985 
L 236.939189 164.59985 
L 236.939189 170.537324 
L 225.967709 170.537324 
L 225.967709 199.696067 
L 218.483476 199.696067 
z
" clip-path="url(#pf92ff0eec2)" style="fill: #a0522d"/>
   </g>
   <g id="patch_18">
    <path d="M 207.487722 129.503633 
L 220.449435 129.503633 
Q 224.836477 129.503633 227.137373 130.170163 
Q 230.228243 131.081852 232.429433 133.403213 
Q 234.638293 135.724574 235.788741 139.087866 
Q 236.939189 142.451157 236.939189 147.385006 
Q 236.939189 151.721278 235.865438 154.854732 
Q 234.546257 158.68536 232.099638 161.052688 
Q 230.251252 162.853084 227.114364 163.856708 
Q 224.76745 164.59985 220.832918 164.59985 
L 207.487722 164.59985 
L 207.487722 129.503633 
z
M 214.582151 135.441107 
L 214.582151 158.68536 
L 219.874211 158.68536 
Q 222.850037 158.68536 224.169217 158.348265 
Q 225.894889 157.919234 227.029998 156.892626 
Q 228.165106 155.858356 228.886054 153.506351 
Q 229.607001 151.146684 229.607001 147.070895 
Q 229.607001 143.002768 228.886054 140.826971 
Q 228.165106 138.643513 226.868935 137.425373 
Q 225.580433 136.207233 223.593993 135.770541 
Q 222.10608 135.441107 217.765057 135.441107 
L 214.582151 135.441107 
z
" clip-path="url(#pf92ff0eec2)" style="fill: #c71585"/>
   </g>
   <g id="patch_19">
    <path d="M 207.487722 129.503633 
L 218.316789 111.185569 
L 208.504244 94.407417 
L 215.979481 94.407417 
L 222.33447 105.684787 
L 228.558072 94.407417 
L 235.971073 94.407417 
L 226.117037 111.453713 
L 236.939189 129.503633 
L 229.228838 129.503633 
L 222.203083 117.368203 
L 215.156583 129.503633 
L 207.487722 129.503633 
z
" clip-path="url(#pf92ff0eec2)" style="fill: #bdb76b"/>
   </g>
   <g id="patch_20">
    <path d="M 232.211387 80.144007 
Q 234.387069 83.476708 236.939189 85.451641 
L 234.763507 94.407417 
Q 233.430024 93.557098 232.153964 92.062183 
Q 231.873231 91.760457 228.223699 86.480253 
Q 225.352563 89.182072 221.862539 89.182072 
Q 215.124942 89.182072 211.303142 80.651455 
Q 207.487722 72.120839 207.487722 56.69167 
Q 207.487722 41.303645 211.315902 32.759314 
Q 215.144083 24.214983 221.703032 24.214983 
Q 228.204558 24.214983 232.013597 32.759314 
Q 235.822637 41.303645 235.822637 56.69167 
Q 235.822637 64.838271 234.763507 71.009939 
Q 233.965969 75.727836 232.211387 80.144007 
z
M 227.464443 72.984873 
Q 228.606517 70.104761 229.174363 66.045175 
Q 229.74221 61.971875 229.74221 56.69167 
Q 229.74221 45.81582 227.509105 40.439612 
Q 225.276 35.049689 221.66475 35.049689 
Q 218.0535 35.049689 215.807634 40.453327 
Q 213.568148 45.856965 213.568148 56.69167 
Q 213.568148 67.704668 215.807634 73.17688 
Q 218.0535 78.635377 221.486101 78.635377 
Q 222.762161 78.635377 223.897855 77.743914 
Q 222.10499 75.206673 220.248323 73.794047 
L 221.907201 66.552624 
Q 224.816618 68.692135 227.464443 72.984873 
z
" clip-path="url(#pf92ff0eec2)" style="fill: #0000ff"/>
   </g>
   <g id="patch_21">
    <path d="M 238.489266 234.792283 
L 238.489266 199.696067 
L 245.928537 199.696067 
L 245.928537 213.509313 
L 260.501463 213.509313 
L 260.501463 199.696067 
L 267.940734 199.696067 
L 267.940734 234.792283 
L 260.501463 234.792283 
L 260.501463 219.446786 
L 245.928537 219.446786 
L 245.928537 234.792283 
L 238.489266 234.792283 
z
" clip-path="url(#pf92ff0eec2)" style="fill: #00ffff"/>
   </g>
   <g id="patch_22">
    <path d="M 254.235663 186.641489 
L 254.235663 180.921777 
L 267.940734 180.921777 
L 267.940734 194.443118 
Q 265.940646 196.525034 262.146664 198.110551 
Q 258.359556 199.696067 254.469351 199.696067 
Q 249.534426 199.696067 245.857288 197.465972 
Q 242.187024 195.228467 240.338145 191.072044 
Q 238.489266 186.915621 238.489266 182.03312 
Q 238.489266 176.728308 240.551213 172.60893 
Q 242.613159 168.489551 246.585842 166.289092 
Q 249.616904 164.59985 254.125693 164.59985 
Q 259.988494 164.59985 263.287608 167.252256 
Q 266.586722 169.897253 267.528344 174.572303 
L 261.218788 175.846643 
Q 260.552092 173.349825 258.710087 171.905079 
Q 256.874955 170.452924 254.125693 170.452924 
Q 249.960561 170.452924 247.499972 173.305372 
Q 245.039383 176.15041 245.039383 181.751579 
Q 245.039383 187.797286 247.527465 190.82014 
Q 250.02242 193.835584 254.063835 193.835584 
Q 256.063923 193.835584 258.070884 192.990963 
Q 260.077845 192.146342 261.514334 190.946092 
L 261.514334 186.641489 
L 254.235663 186.641489 
z
" clip-path="url(#pf92ff0eec2)" style="fill: #ff69b4"/>
   </g>
   <g id="patch_23">
    <path d="M 263.212931 150.336441 
Q 265.388613 153.669141 267.940734 155.644075 
L 265.765051 164.59985 
Q 264.431568 163.749532 263.155508 162.254616 
Q 262.874775 161.95289 259.225243 156.672686 
Q 256.354108 159.374505 252.864083 159.374505 
Q 246.126486 159.374505 242.304686 150.843889 
Q 238.489266 142.313273 238.489266 126.884103 
Q 238.489266 111.496079 242.317447 102.951748 
Q 246.145627 94.407417 252.704576 94.407417 
Q 259.206102 94.407417 263.015142 102.951748 
Q 266.824181 111.496079 266.824181 126.884103 
Q 266.824181 135.030705 265.765051 141.202372 
Q 264.967514 145.920269 263.212931 150.336441 
z
M 258.465987 143.177306 
Q 259.608061 140.297194 260.175908 136.237609 
Q 260.743755 132.164308 260.743755 126.884103 
Q 260.743755 116.008254 258.510649 110.632045 
Q 256.277544 105.242122 252.666294 105.242122 
Q 249.055044 105.242122 246.809178 110.64576 
Q 244.569693 116.049398 244.569693 126.884103 
Q 244.569693 137.897101 246.809178 143.369313 
Q 249.055044 148.827811 252.487646 148.827811 
Q 253.763706 148.827811 254.899399 147.936348 
Q 253.106535 145.399106 251.249867 143.98648 
L 252.908746 136.745057 
Q 255.818163 138.884568 258.465987 143.177306 
z
" clip-path="url(#pf92ff0eec2)" style="fill: #0000ff"/>
   </g>
   <g id="patch_24">
    <path d="M 249.48502 94.407417 
L 249.48502 36.089931 
L 238.489266 36.089931 
L 238.489266 24.214983 
L 267.940734 24.214983 
L 267.940734 36.089931 
L 256.969253 36.089931 
L 256.969253 94.407417 
L 249.48502 94.407417 
z
" clip-path="url(#pf92ff0eec2)" style="fill: #a0522d"/>
   </g>
   <g id="patch_25">
    <path d="M 294.214475 226.234238 
Q 296.390158 228.233858 298.942278 229.418818 
L 296.766596 234.792283 
Q 295.433113 234.282092 294.157053 233.385143 
Q 293.876319 233.204108 290.226787 230.035985 
Q 287.355652 231.657076 283.865628 231.657076 
Q 277.128031 231.657076 273.306231 226.538707 
Q 269.490811 221.420337 269.490811 212.162835 
Q 269.490811 202.930021 273.318991 197.803422 
Q 277.147171 192.676823 283.70612 192.676823 
Q 290.207647 192.676823 294.016686 197.803422 
Q 297.825725 202.930021 297.825725 212.162835 
Q 297.825725 217.050796 296.766596 220.753797 
Q 295.969058 223.584535 294.214475 226.234238 
z
M 289.467532 221.938757 
Q 290.609606 220.21069 291.177452 217.774939 
Q 291.745299 215.330958 291.745299 212.162835 
Q 291.745299 205.637326 289.512194 202.411601 
Q 287.279089 199.177647 283.667839 199.177647 
Q 280.056588 199.177647 277.810723 202.419829 
Q 275.571237 205.662012 275.571237 212.162835 
Q 275.571237 218.770634 277.810723 222.053961 
Q 280.056588 225.32906 283.48919 225.32906 
Q 284.76525 225.32906 285.900944 224.794182 
Q 284.108079 223.271837 282.251412 222.424262 
L 283.91029 218.079408 
Q 286.819707 219.363114 289.467532 221.938757 
z
" clip-path="url(#pf92ff0eec2)" style="fill: #0000ff"/>
   </g>
   <g id="patch_26">
    <path d="M 280.486565 192.676823 
L 280.486565 157.686332 
L 269.490811 157.686332 
L 269.490811 150.561363 
L 298.942278 150.561363 
L 298.942278 157.686332 
L 287.970797 157.686332 
L 287.970797 192.676823 
L 280.486565 192.676823 
z
" clip-path="url(#pf92ff0eec2)" style="fill: #a0522d"/>
   </g>
   <g id="patch_27">
    <path d="M 269.490811 108.445903 
L 282.452524 108.445903 
Q 286.839566 108.445903 289.140462 109.245739 
Q 292.231332 110.339766 294.432522 113.125399 
Q 296.641382 115.911032 297.79183 119.946982 
Q 298.942278 123.982932 298.942278 129.903551 
Q 298.942278 135.107077 297.868527 138.867221 
Q 296.549346 143.463975 294.102727 146.304769 
Q 292.254341 148.465244 289.117453 149.669593 
Q 286.770539 150.561363 282.836007 150.561363 
L 269.490811 150.561363 
L 269.490811 108.445903 
z
M 276.58524 115.570872 
L 276.58524 143.463975 
L 281.8773 143.463975 
Q 284.853126 143.463975 286.172306 143.059461 
Q 287.897978 142.544625 289.033086 141.312694 
Q 290.168195 140.071571 290.889142 137.249164 
Q 291.61009 134.417564 291.61009 129.526617 
Q 291.61009 124.644865 290.889142 122.033908 
Q 290.168195 119.413759 288.872024 117.951991 
Q 287.583522 116.490223 285.597082 115.966193 
Q 284.109169 115.570872 279.768146 115.570872 
L 276.58524 115.570872 
z
" clip-path="url(#pf92ff0eec2)" style="fill: #c71585"/>
   </g>
   <g id="patch_28">
    <path d="M 269.490811 108.445903 
L 269.490811 24.214983 
L 278.708954 24.214983 
L 284.239839 81.674408 
L 289.710824 24.214983 
L 298.942278 24.214983 
L 298.942278 108.445903 
L 293.225033 108.445903 
L 293.225033 42.142324 
L 287.168347 108.445903 
L 281.244775 108.445903 
L 275.214712 42.142324 
L 275.214712 108.445903 
L 269.490811 108.445903 
z
" clip-path="url(#pf92ff0eec2)" style="fill: #ff8c00"/>
   </g>
   <g id="patch_29">
    <path d="M 300.492355 234.792283 
L 300.492355 182.147958 
L 307.931625 182.147958 
L 307.931625 202.867827 
L 322.504552 202.867827 
L 322.504552 182.147958 
L 329.943822 182.147958 
L 329.943822 234.792283 
L 322.504552 234.792283 
L 322.504552 211.774038 
L 307.931625 211.774038 
L 307.931625 234.792283 
L 300.492355 234.792283 
z
" clip-path="url(#pf92ff0eec2)" style="fill: #00ffff"/>
   </g>
   <g id="patch_30">
    <path d="M 325.21602 150.055287 
Q 327.391702 157.553863 329.943822 161.997464 
L 327.76814 182.147958 
Q 326.434657 180.234742 325.158597 176.871183 
Q 324.877864 176.192299 321.228332 164.311839 
Q 318.357197 170.390932 314.867172 170.390932 
Q 308.129575 170.390932 304.307775 151.197045 
Q 300.492355 132.003159 300.492355 97.287528 
Q 300.492355 62.664473 304.320536 43.439728 
Q 308.148716 24.214983 314.707665 24.214983 
Q 321.209191 24.214983 325.01823 43.439728 
Q 328.82727 62.664473 328.82727 97.287528 
Q 328.82727 115.617381 327.76814 129.503633 
Q 326.970602 140.118902 325.21602 150.055287 
z
M 320.469076 133.947234 
Q 321.61115 127.466983 322.178997 118.332915 
Q 322.746843 109.167989 322.746843 97.287528 
Q 322.746843 72.816866 320.513738 60.720398 
Q 318.280633 48.593071 314.669383 48.593071 
Q 311.058133 48.593071 308.812267 60.751256 
Q 306.572782 72.909441 306.572782 97.287528 
Q 306.572782 122.066774 308.812267 134.379251 
Q 311.058133 146.66087 314.490735 146.66087 
Q 315.766795 146.66087 316.902488 144.655078 
Q 315.109624 138.946285 313.252956 135.767876 
L 314.911834 119.474674 
Q 317.821251 124.288574 320.469076 133.947234 
z
" clip-path="url(#pf92ff0eec2)" style="fill: #0000ff"/>
   </g>
   <g id="patch_31">
    <path d="M 356.217564 220.528874 
Q 358.393247 223.861574 360.945367 225.836508 
L 358.769684 234.792283 
Q 357.436202 233.941965 356.160141 232.44705 
Q 355.879408 232.145324 352.229876 226.865119 
Q 349.358741 229.566938 345.868717 229.566938 
Q 339.131119 229.566938 335.309319 221.036322 
Q 331.4939 212.505706 331.4939 197.076537 
Q 331.4939 181.688512 335.32208 173.144181 
Q 339.15026 164.59985 345.709209 164.59985 
Q 352.210735 164.59985 356.019775 173.144181 
Q 359.828814 181.688512 359.828814 197.076537 
Q 359.828814 205.223138 358.769684 211.394806 
Q 357.972147 216.112703 356.217564 220.528874 
z
M 351.470621 213.369739 
Q 352.612694 210.489628 353.180541 206.430042 
Q 353.748388 202.356741 353.748388 197.076537 
Q 353.748388 186.200687 351.515283 180.824479 
Q 349.282177 175.434556 345.670927 175.434556 
Q 342.059677 175.434556 339.813811 180.838193 
Q 337.574326 186.241831 337.574326 197.076537 
Q 337.574326 208.089535 339.813811 213.561747 
Q 342.059677 219.020244 345.492279 219.020244 
Q 346.768339 219.020244 347.904033 218.128781 
Q 346.111168 215.59154 344.254501 214.178914 
L 345.913379 206.93749 
Q 348.822796 209.077002 351.470621 213.369739 
z
" clip-path="url(#pf92ff0eec2)" style="fill: #0000ff"/>
   </g>
   <g id="patch_32">
    <path d="M 342.489653 164.59985 
L 342.489653 106.282365 
L 331.4939 106.282365 
L 331.4939 94.407417 
L 360.945367 94.407417 
L 360.945367 106.282365 
L 349.973886 106.282365 
L 349.973886 164.59985 
L 342.489653 164.59985 
z
" clip-path="url(#pf92ff0eec2)" style="fill: #a0522d"/>
   </g>
   <g id="patch_33">
    <path d="M 336.853165 94.407417 
L 331.4939 24.214983 
L 336.133045 24.214983 
L 339.513203 72.434933 
L 343.618381 24.214983 
L 349.007039 24.214983 
L 352.94076 73.247026 
L 356.384602 24.214983 
L 360.945367 24.214983 
L 355.497923 94.407417 
L 350.69222 94.407417 
L 346.219633 41.927809 
L 341.766642 94.407417 
L 336.853165 94.407417 
z
" clip-path="url(#pf92ff0eec2)" style="fill: #9acd32"/>
   </g>
   <g id="patch_34">
    <path d="M 387.219109 192.002055 
Q 389.394791 202.000156 391.946911 207.924957 
L 389.771229 234.792283 
Q 388.437746 232.241328 387.161686 227.756582 
Q 386.880953 226.851404 383.231421 211.010791 
Q 380.360285 219.116248 376.870261 219.116248 
Q 370.132664 219.116248 366.310864 193.524399 
Q 362.495444 167.932551 362.495444 121.645043 
Q 362.495444 75.480969 366.323624 49.847976 
Q 370.151805 24.214983 376.710754 24.214983 
Q 383.21228 24.214983 387.021319 49.847976 
Q 390.830359 75.480969 390.830359 121.645043 
Q 390.830359 146.084847 389.771229 164.59985 
Q 388.973691 178.753541 387.219109 192.002055 
z
M 382.472165 170.524651 
Q 383.614239 161.884316 384.182085 149.705559 
Q 384.749932 137.485657 384.749932 121.645043 
Q 384.749932 89.017494 382.516827 72.888869 
Q 380.283722 56.7191 376.672472 56.7191 
Q 373.061222 56.7191 370.815356 72.930013 
Q 368.57587 89.140927 368.57587 121.645043 
Q 368.57587 154.684037 370.815356 171.100673 
Q 373.061222 187.476165 376.493823 187.476165 
Q 377.769883 187.476165 378.905577 184.801776 
Q 377.112712 177.190052 375.256045 172.952174 
L 376.914923 151.227904 
Q 379.82434 157.646438 382.472165 170.524651 
z
" clip-path="url(#pf92ff0eec2)" style="fill: #0000ff"/>
   </g>
   <g id="patch_35">
    <path d="M 398.856254 234.792283 
L 393.496988 24.214983 
L 398.136133 24.214983 
L 401.516292 168.874831 
L 405.62147 24.214983 
L 411.010128 24.214983 
L 414.943849 171.311111 
L 418.387691 24.214983 
L 422.948456 24.214983 
L 417.501012 234.792283 
L 412.695308 234.792283 
L 408.222722 77.35346 
L 403.769731 234.792283 
L 398.856254 234.792283 
z
" clip-path="url(#pf92ff0eec2)" style="fill: #9acd32"/>
   </g>
   <g id="patch_36">
    <path d="M 424.498533 130.726111 
Q 424.498533 99.608503 425.890254 78.492983 
Q 426.924104 62.934179 428.713459 50.576043 
Q 430.502815 38.217907 432.636787 32.261108 
Q 435.473247 24.214983 439.184503 24.214983 
Q 445.891273 24.214983 449.920636 52.131923 
Q 453.95 80.048863 453.95 129.792583 
Q 453.95 179.091765 449.953773 206.964251 
Q 445.957545 234.792283 439.26403 234.792283 
Q 432.490988 234.792283 428.49476 207.097612 
Q 424.498533 179.358487 424.498533 130.726111 
z
M 430.814295 129.348045 
Q 430.814295 163.933044 433.193475 181.803442 
Q 435.579283 199.629386 439.244148 199.629386 
Q 442.909013 199.629386 445.261685 181.936803 
Q 447.614356 164.24422 447.614356 128.814601 
Q 447.614356 93.785065 445.32133 76.581473 
Q 443.034931 59.333427 439.244148 59.333427 
Q 435.453365 59.333427 433.13383 76.803741 
Q 430.814295 94.229602 430.814295 129.348045 
z
" clip-path="url(#pf92ff0eec2)" style="fill: #006400"/>
   </g>
   <g id="matplotlib.axis_1">
    <g id="xtick_1">
     <g id="line2d_2">
      <path d="M 67.205734 234.792283 
L 67.205734 24.214983 
" clip-path="url(#pf92ff0eec2)" style="fill: none; stroke: #cccccc; stroke-width: 0.8; stroke-linecap: round"/>
     </g>
     <g id="text_1">
      <!-- 0 -->
      <g style="fill: #262626" transform="translate(63.313077 251.813221) scale(0.14 -0.14)">
       <defs>
        <path id="ArialMT-30" d="M 266 2259 
Q 266 3072 433 3567 
Q 600 4063 929 4331 
Q 1259 4600 1759 4600 
Q 2128 4600 2406 4451 
Q 2684 4303 2865 4023 
Q 3047 3744 3150 3342 
Q 3253 2941 3253 2259 
Q 3253 1453 3087 958 
Q 2922 463 2592 192 
Q 2263 -78 1759 -78 
Q 1097 -78 719 397 
Q 266 969 266 2259 
z
M 844 2259 
Q 844 1131 1108 757 
Q 1372 384 1759 384 
Q 2147 384 2411 759 
Q 2675 1134 2675 2259 
Q 2675 3391 2411 3762 
Q 2147 4134 1753 4134 
Q 1366 4134 1134 3806 
Q 844 3388 844 2259 
z
" transform="scale(0.015625)"/>
       </defs>
       <use xlink:href="#ArialMT-30"/>
      </g>
     </g>
    </g>
    <g id="xtick_2">
     <g id="line2d_3">
      <path d="M 98.207278 234.792283 
L 98.207278 24.214983 
" clip-path="url(#pf92ff0eec2)" style="fill: none; stroke: #cccccc; stroke-width: 0.8; stroke-linecap: round"/>
     </g>
     <g id="text_2">
      <!-- 1 -->
      <g style="fill: #262626" transform="translate(94.314622 251.813221) scale(0.14 -0.14)">
       <defs>
        <path id="ArialMT-31" d="M 2384 0 
L 1822 0 
L 1822 3584 
Q 1619 3391 1289 3197 
Q 959 3003 697 2906 
L 697 3450 
Q 1169 3672 1522 3987 
Q 1875 4303 2022 4600 
L 2384 4600 
L 2384 0 
z
" transform="scale(0.015625)"/>
       </defs>
       <use xlink:href="#ArialMT-31"/>
      </g>
     </g>
    </g>
    <g id="xtick_3">
     <g id="line2d_4">
      <path d="M 129.208822 234.792283 
L 129.208822 24.214983 
" clip-path="url(#pf92ff0eec2)" style="fill: none; stroke: #cccccc; stroke-width: 0.8; stroke-linecap: round"/>
     </g>
     <g id="text_3">
      <!-- 2 -->
      <g style="fill: #262626" transform="translate(125.316166 251.813221) scale(0.14 -0.14)">
       <defs>
        <path id="ArialMT-32" d="M 3222 541 
L 3222 0 
L 194 0 
Q 188 203 259 391 
Q 375 700 629 1000 
Q 884 1300 1366 1694 
Q 2113 2306 2375 2664 
Q 2638 3022 2638 3341 
Q 2638 3675 2398 3904 
Q 2159 4134 1775 4134 
Q 1369 4134 1125 3890 
Q 881 3647 878 3216 
L 300 3275 
Q 359 3922 746 4261 
Q 1134 4600 1788 4600 
Q 2447 4600 2831 4234 
Q 3216 3869 3216 3328 
Q 3216 3053 3103 2787 
Q 2991 2522 2730 2228 
Q 2469 1934 1863 1422 
Q 1356 997 1212 845 
Q 1069 694 975 541 
L 3222 541 
z
" transform="scale(0.015625)"/>
       </defs>
       <use xlink:href="#ArialMT-32"/>
      </g>
     </g>
    </g>
    <g id="xtick_4">
     <g id="line2d_5">
      <path d="M 160.210367 234.792283 
L 160.210367 24.214983 
" clip-path="url(#pf92ff0eec2)" style="fill: none; stroke: #cccccc; stroke-width: 0.8; stroke-linecap: round"/>
     </g>
     <g id="text_4">
      <!-- 3 -->
      <g style="fill: #262626" transform="translate(156.317711 251.813221) scale(0.14 -0.14)">
       <defs>
        <path id="ArialMT-33" d="M 269 1209 
L 831 1284 
Q 928 806 1161 595 
Q 1394 384 1728 384 
Q 2125 384 2398 659 
Q 2672 934 2672 1341 
Q 2672 1728 2419 1979 
Q 2166 2231 1775 2231 
Q 1616 2231 1378 2169 
L 1441 2663 
Q 1497 2656 1531 2656 
Q 1891 2656 2178 2843 
Q 2466 3031 2466 3422 
Q 2466 3731 2256 3934 
Q 2047 4138 1716 4138 
Q 1388 4138 1169 3931 
Q 950 3725 888 3313 
L 325 3413 
Q 428 3978 793 4289 
Q 1159 4600 1703 4600 
Q 2078 4600 2393 4439 
Q 2709 4278 2876 4000 
Q 3044 3722 3044 3409 
Q 3044 3113 2884 2869 
Q 2725 2625 2413 2481 
Q 2819 2388 3044 2092 
Q 3269 1797 3269 1353 
Q 3269 753 2831 336 
Q 2394 -81 1725 -81 
Q 1122 -81 723 278 
Q 325 638 269 1209 
z
" transform="scale(0.015625)"/>
       </defs>
       <use xlink:href="#ArialMT-33"/>
      </g>
     </g>
    </g>
    <g id="xtick_5">
     <g id="line2d_6">
      <path d="M 191.211911 234.792283 
L 191.211911 24.214983 
" clip-path="url(#pf92ff0eec2)" style="fill: none; stroke: #cccccc; stroke-width: 0.8; stroke-linecap: round"/>
     </g>
     <g id="text_5">
      <!-- 4 -->
      <g style="fill: #262626" transform="translate(187.319255 251.813221) scale(0.14 -0.14)">
       <defs>
        <path id="ArialMT-34" d="M 2069 0 
L 2069 1097 
L 81 1097 
L 81 1613 
L 2172 4581 
L 2631 4581 
L 2631 1613 
L 3250 1613 
L 3250 1097 
L 2631 1097 
L 2631 0 
L 2069 0 
z
M 2069 1613 
L 2069 3678 
L 634 1613 
L 2069 1613 
z
" transform="scale(0.015625)"/>
       </defs>
       <use xlink:href="#ArialMT-34"/>
      </g>
     </g>
    </g>
    <g id="xtick_6">
     <g id="line2d_7">
      <path d="M 222.213456 234.792283 
L 222.213456 24.214983 
" clip-path="url(#pf92ff0eec2)" style="fill: none; stroke: #cccccc; stroke-width: 0.8; stroke-linecap: round"/>
     </g>
     <g id="text_6">
      <!-- 5 -->
      <g style="fill: #262626" transform="translate(218.320799 251.813221) scale(0.14 -0.14)">
       <defs>
        <path id="ArialMT-35" d="M 266 1200 
L 856 1250 
Q 922 819 1161 601 
Q 1400 384 1738 384 
Q 2144 384 2425 690 
Q 2706 997 2706 1503 
Q 2706 1984 2436 2262 
Q 2166 2541 1728 2541 
Q 1456 2541 1237 2417 
Q 1019 2294 894 2097 
L 366 2166 
L 809 4519 
L 3088 4519 
L 3088 3981 
L 1259 3981 
L 1013 2750 
Q 1425 3038 1878 3038 
Q 2478 3038 2890 2622 
Q 3303 2206 3303 1553 
Q 3303 931 2941 478 
Q 2500 -78 1738 -78 
Q 1113 -78 717 272 
Q 322 622 266 1200 
z
" transform="scale(0.015625)"/>
       </defs>
       <use xlink:href="#ArialMT-35"/>
      </g>
     </g>
    </g>
    <g id="xtick_7">
     <g id="line2d_8">
      <path d="M 253.215 234.792283 
L 253.215 24.214983 
" clip-path="url(#pf92ff0eec2)" style="fill: none; stroke: #cccccc; stroke-width: 0.8; stroke-linecap: round"/>
     </g>
     <g id="text_7">
      <!-- 6 -->
      <g style="fill: #262626" transform="translate(249.322344 251.813221) scale(0.14 -0.14)">
       <defs>
        <path id="ArialMT-36" d="M 3184 3459 
L 2625 3416 
Q 2550 3747 2413 3897 
Q 2184 4138 1850 4138 
Q 1581 4138 1378 3988 
Q 1113 3794 959 3422 
Q 806 3050 800 2363 
Q 1003 2672 1297 2822 
Q 1591 2972 1913 2972 
Q 2475 2972 2870 2558 
Q 3266 2144 3266 1488 
Q 3266 1056 3080 686 
Q 2894 316 2569 119 
Q 2244 -78 1831 -78 
Q 1128 -78 684 439 
Q 241 956 241 2144 
Q 241 3472 731 4075 
Q 1159 4600 1884 4600 
Q 2425 4600 2770 4297 
Q 3116 3994 3184 3459 
z
M 888 1484 
Q 888 1194 1011 928 
Q 1134 663 1356 523 
Q 1578 384 1822 384 
Q 2178 384 2434 671 
Q 2691 959 2691 1453 
Q 2691 1928 2437 2201 
Q 2184 2475 1800 2475 
Q 1419 2475 1153 2201 
Q 888 1928 888 1484 
z
" transform="scale(0.015625)"/>
       </defs>
       <use xlink:href="#ArialMT-36"/>
      </g>
     </g>
    </g>
    <g id="xtick_8">
     <g id="line2d_9">
      <path d="M 284.216544 234.792283 
L 284.216544 24.214983 
" clip-path="url(#pf92ff0eec2)" style="fill: none; stroke: #cccccc; stroke-width: 0.8; stroke-linecap: round"/>
     </g>
     <g id="text_8">
      <!-- 7 -->
      <g style="fill: #262626" transform="translate(280.323888 251.813221) scale(0.14 -0.14)">
       <defs>
        <path id="ArialMT-37" d="M 303 3981 
L 303 4522 
L 3269 4522 
L 3269 4084 
Q 2831 3619 2401 2847 
Q 1972 2075 1738 1259 
Q 1569 684 1522 0 
L 944 0 
Q 953 541 1156 1306 
Q 1359 2072 1739 2783 
Q 2119 3494 2547 3981 
L 303 3981 
z
" transform="scale(0.015625)"/>
       </defs>
       <use xlink:href="#ArialMT-37"/>
      </g>
     </g>
    </g>
    <g id="xtick_9">
     <g id="line2d_10">
      <path d="M 315.218089 234.792283 
L 315.218089 24.214983 
" clip-path="url(#pf92ff0eec2)" style="fill: none; stroke: #cccccc; stroke-width: 0.8; stroke-linecap: round"/>
     </g>
     <g id="text_9">
      <!-- 8 -->
      <g style="fill: #262626" transform="translate(311.325433 251.813221) scale(0.14 -0.14)">
       <defs>
        <path id="ArialMT-38" d="M 1131 2484 
Q 781 2613 612 2850 
Q 444 3088 444 3419 
Q 444 3919 803 4259 
Q 1163 4600 1759 4600 
Q 2359 4600 2725 4251 
Q 3091 3903 3091 3403 
Q 3091 3084 2923 2848 
Q 2756 2613 2416 2484 
Q 2838 2347 3058 2040 
Q 3278 1734 3278 1309 
Q 3278 722 2862 322 
Q 2447 -78 1769 -78 
Q 1091 -78 675 323 
Q 259 725 259 1325 
Q 259 1772 486 2073 
Q 713 2375 1131 2484 
z
M 1019 3438 
Q 1019 3113 1228 2906 
Q 1438 2700 1772 2700 
Q 2097 2700 2305 2904 
Q 2513 3109 2513 3406 
Q 2513 3716 2298 3927 
Q 2084 4138 1766 4138 
Q 1444 4138 1231 3931 
Q 1019 3725 1019 3438 
z
M 838 1322 
Q 838 1081 952 856 
Q 1066 631 1291 507 
Q 1516 384 1775 384 
Q 2178 384 2440 643 
Q 2703 903 2703 1303 
Q 2703 1709 2433 1975 
Q 2163 2241 1756 2241 
Q 1359 2241 1098 1978 
Q 838 1716 838 1322 
z
" transform="scale(0.015625)"/>
       </defs>
       <use xlink:href="#ArialMT-38"/>
      </g>
     </g>
    </g>
    <g id="xtick_10">
     <g id="line2d_11">
      <path d="M 346.219633 234.792283 
L 346.219633 24.214983 
" clip-path="url(#pf92ff0eec2)" style="fill: none; stroke: #cccccc; stroke-width: 0.8; stroke-linecap: round"/>
     </g>
     <g id="text_10">
      <!-- 9 -->
      <g style="fill: #262626" transform="translate(342.326977 251.813221) scale(0.14 -0.14)">
       <defs>
        <path id="ArialMT-39" d="M 350 1059 
L 891 1109 
Q 959 728 1153 556 
Q 1347 384 1650 384 
Q 1909 384 2104 503 
Q 2300 622 2425 820 
Q 2550 1019 2634 1356 
Q 2719 1694 2719 2044 
Q 2719 2081 2716 2156 
Q 2547 1888 2255 1720 
Q 1963 1553 1622 1553 
Q 1053 1553 659 1965 
Q 266 2378 266 3053 
Q 266 3750 677 4175 
Q 1088 4600 1706 4600 
Q 2153 4600 2523 4359 
Q 2894 4119 3086 3673 
Q 3278 3228 3278 2384 
Q 3278 1506 3087 986 
Q 2897 466 2520 194 
Q 2144 -78 1638 -78 
Q 1100 -78 759 220 
Q 419 519 350 1059 
z
M 2653 3081 
Q 2653 3566 2395 3850 
Q 2138 4134 1775 4134 
Q 1400 4134 1122 3828 
Q 844 3522 844 3034 
Q 844 2597 1108 2323 
Q 1372 2050 1759 2050 
Q 2150 2050 2401 2323 
Q 2653 2597 2653 3081 
z
" transform="scale(0.015625)"/>
       </defs>
       <use xlink:href="#ArialMT-39"/>
      </g>
     </g>
    </g>
    <g id="xtick_11">
     <g id="line2d_12">
      <path d="M 377.221178 234.792283 
L 377.221178 24.214983 
" clip-path="url(#pf92ff0eec2)" style="fill: none; stroke: #cccccc; stroke-width: 0.8; stroke-linecap: round"/>
     </g>
     <g id="text_11">
      <!-- 10 -->
      <g style="fill: #262626" transform="translate(369.435865 251.813221) scale(0.14 -0.14)">
       <use xlink:href="#ArialMT-31"/>
       <use xlink:href="#ArialMT-30" transform="translate(55.615234 0)"/>
      </g>
     </g>
    </g>
    <g id="xtick_12">
     <g id="line2d_13">
      <path d="M 408.222722 234.792283 
L 408.222722 24.214983 
" clip-path="url(#pf92ff0eec2)" style="fill: none; stroke: #cccccc; stroke-width: 0.8; stroke-linecap: round"/>
     </g>
     <g id="text_12">
      <!-- 11 -->
      <g style="fill: #262626" transform="translate(400.95366 251.813221) scale(0.14 -0.14)">
       <use xlink:href="#ArialMT-31"/>
       <use xlink:href="#ArialMT-31" transform="translate(48.240234 0)"/>
      </g>
     </g>
    </g>
    <g id="xtick_13">
     <g id="line2d_14">
      <path d="M 439.224266 234.792283 
L 439.224266 24.214983 
" clip-path="url(#pf92ff0eec2)" style="fill: none; stroke: #cccccc; stroke-width: 0.8; stroke-linecap: round"/>
     </g>
     <g id="text_13">
      <!-- 12 -->
      <g style="fill: #262626" transform="translate(431.438954 251.813221) scale(0.14 -0.14)">
       <use xlink:href="#ArialMT-31"/>
       <use xlink:href="#ArialMT-32" transform="translate(55.615234 0)"/>
      </g>
     </g>
    </g>
    <g id="text_14">
     <!-- Original Position -->
     <g style="fill: #262626" transform="translate(194.9675 270.253221) scale(0.16 -0.16)">
      <defs>
       <path id="ArialMT-4f" d="M 309 2231 
Q 309 3372 921 4017 
Q 1534 4663 2503 4663 
Q 3138 4663 3647 4359 
Q 4156 4056 4423 3514 
Q 4691 2972 4691 2284 
Q 4691 1588 4409 1038 
Q 4128 488 3612 205 
Q 3097 -78 2500 -78 
Q 1853 -78 1343 234 
Q 834 547 571 1087 
Q 309 1628 309 2231 
z
M 934 2222 
Q 934 1394 1379 917 
Q 1825 441 2497 441 
Q 3181 441 3623 922 
Q 4066 1403 4066 2288 
Q 4066 2847 3877 3264 
Q 3688 3681 3323 3911 
Q 2959 4141 2506 4141 
Q 1863 4141 1398 3698 
Q 934 3256 934 2222 
z
" transform="scale(0.015625)"/>
       <path id="ArialMT-72" d="M 416 0 
L 416 3319 
L 922 3319 
L 922 2816 
Q 1116 3169 1280 3281 
Q 1444 3394 1641 3394 
Q 1925 3394 2219 3213 
L 2025 2691 
Q 1819 2813 1613 2813 
Q 1428 2813 1281 2702 
Q 1134 2591 1072 2394 
Q 978 2094 978 1738 
L 978 0 
L 416 0 
z
" transform="scale(0.015625)"/>
       <path id="ArialMT-69" d="M 425 3934 
L 425 4581 
L 988 4581 
L 988 3934 
L 425 3934 
z
M 425 0 
L 425 3319 
L 988 3319 
L 988 0 
L 425 0 
z
" transform="scale(0.015625)"/>
       <path id="ArialMT-67" d="M 319 -275 
L 866 -356 
Q 900 -609 1056 -725 
Q 1266 -881 1628 -881 
Q 2019 -881 2231 -725 
Q 2444 -569 2519 -288 
Q 2563 -116 2559 434 
Q 2191 0 1641 0 
Q 956 0 581 494 
Q 206 988 206 1678 
Q 206 2153 378 2554 
Q 550 2956 876 3175 
Q 1203 3394 1644 3394 
Q 2231 3394 2613 2919 
L 2613 3319 
L 3131 3319 
L 3131 450 
Q 3131 -325 2973 -648 
Q 2816 -972 2473 -1159 
Q 2131 -1347 1631 -1347 
Q 1038 -1347 672 -1080 
Q 306 -813 319 -275 
z
M 784 1719 
Q 784 1066 1043 766 
Q 1303 466 1694 466 
Q 2081 466 2343 764 
Q 2606 1063 2606 1700 
Q 2606 2309 2336 2618 
Q 2066 2928 1684 2928 
Q 1309 2928 1046 2623 
Q 784 2319 784 1719 
z
" transform="scale(0.015625)"/>
       <path id="ArialMT-6e" d="M 422 0 
L 422 3319 
L 928 3319 
L 928 2847 
Q 1294 3394 1984 3394 
Q 2284 3394 2536 3286 
Q 2788 3178 2913 3003 
Q 3038 2828 3088 2588 
Q 3119 2431 3119 2041 
L 3119 0 
L 2556 0 
L 2556 2019 
Q 2556 2363 2490 2533 
Q 2425 2703 2258 2804 
Q 2091 2906 1866 2906 
Q 1506 2906 1245 2678 
Q 984 2450 984 1813 
L 984 0 
L 422 0 
z
" transform="scale(0.015625)"/>
       <path id="ArialMT-61" d="M 2588 409 
Q 2275 144 1986 34 
Q 1697 -75 1366 -75 
Q 819 -75 525 192 
Q 231 459 231 875 
Q 231 1119 342 1320 
Q 453 1522 633 1644 
Q 813 1766 1038 1828 
Q 1203 1872 1538 1913 
Q 2219 1994 2541 2106 
Q 2544 2222 2544 2253 
Q 2544 2597 2384 2738 
Q 2169 2928 1744 2928 
Q 1347 2928 1158 2789 
Q 969 2650 878 2297 
L 328 2372 
Q 403 2725 575 2942 
Q 747 3159 1072 3276 
Q 1397 3394 1825 3394 
Q 2250 3394 2515 3294 
Q 2781 3194 2906 3042 
Q 3031 2891 3081 2659 
Q 3109 2516 3109 2141 
L 3109 1391 
Q 3109 606 3145 398 
Q 3181 191 3288 0 
L 2700 0 
Q 2613 175 2588 409 
z
M 2541 1666 
Q 2234 1541 1622 1453 
Q 1275 1403 1131 1340 
Q 988 1278 909 1158 
Q 831 1038 831 891 
Q 831 666 1001 516 
Q 1172 366 1500 366 
Q 1825 366 2078 508 
Q 2331 650 2450 897 
Q 2541 1088 2541 1459 
L 2541 1666 
z
" transform="scale(0.015625)"/>
       <path id="ArialMT-6c" d="M 409 0 
L 409 4581 
L 972 4581 
L 972 0 
L 409 0 
z
" transform="scale(0.015625)"/>
       <path id="ArialMT-20" transform="scale(0.015625)"/>
       <path id="ArialMT-50" d="M 494 0 
L 494 4581 
L 2222 4581 
Q 2678 4581 2919 4538 
Q 3256 4481 3484 4323 
Q 3713 4166 3852 3881 
Q 3991 3597 3991 3256 
Q 3991 2672 3619 2267 
Q 3247 1863 2275 1863 
L 1100 1863 
L 1100 0 
L 494 0 
z
M 1100 2403 
L 2284 2403 
Q 2872 2403 3119 2622 
Q 3366 2841 3366 3238 
Q 3366 3525 3220 3729 
Q 3075 3934 2838 4000 
Q 2684 4041 2272 4041 
L 1100 4041 
L 1100 2403 
z
" transform="scale(0.015625)"/>
       <path id="ArialMT-6f" d="M 213 1659 
Q 213 2581 725 3025 
Q 1153 3394 1769 3394 
Q 2453 3394 2887 2945 
Q 3322 2497 3322 1706 
Q 3322 1066 3130 698 
Q 2938 331 2570 128 
Q 2203 -75 1769 -75 
Q 1072 -75 642 372 
Q 213 819 213 1659 
z
M 791 1659 
Q 791 1022 1069 705 
Q 1347 388 1769 388 
Q 2188 388 2466 706 
Q 2744 1025 2744 1678 
Q 2744 2294 2464 2611 
Q 2184 2928 1769 2928 
Q 1347 2928 1069 2612 
Q 791 2297 791 1659 
z
" transform="scale(0.015625)"/>
       <path id="ArialMT-73" d="M 197 991 
L 753 1078 
Q 800 744 1014 566 
Q 1228 388 1613 388 
Q 2000 388 2187 545 
Q 2375 703 2375 916 
Q 2375 1106 2209 1216 
Q 2094 1291 1634 1406 
Q 1016 1563 777 1677 
Q 538 1791 414 1992 
Q 291 2194 291 2438 
Q 291 2659 392 2848 
Q 494 3038 669 3163 
Q 800 3259 1026 3326 
Q 1253 3394 1513 3394 
Q 1903 3394 2198 3281 
Q 2494 3169 2634 2976 
Q 2775 2784 2828 2463 
L 2278 2388 
Q 2241 2644 2061 2787 
Q 1881 2931 1553 2931 
Q 1166 2931 1000 2803 
Q 834 2675 834 2503 
Q 834 2394 903 2306 
Q 972 2216 1119 2156 
Q 1203 2125 1616 2013 
Q 2213 1853 2448 1751 
Q 2684 1650 2818 1456 
Q 2953 1263 2953 975 
Q 2953 694 2789 445 
Q 2625 197 2315 61 
Q 2006 -75 1616 -75 
Q 969 -75 630 194 
Q 291 463 197 991 
z
" transform="scale(0.015625)"/>
       <path id="ArialMT-74" d="M 1650 503 
L 1731 6 
Q 1494 -44 1306 -44 
Q 1000 -44 831 53 
Q 663 150 594 308 
Q 525 466 525 972 
L 525 2881 
L 113 2881 
L 113 3319 
L 525 3319 
L 525 4141 
L 1084 4478 
L 1084 3319 
L 1650 3319 
L 1650 2881 
L 1084 2881 
L 1084 941 
Q 1084 700 1114 631 
Q 1144 563 1211 522 
Q 1278 481 1403 481 
Q 1497 481 1650 503 
z
" transform="scale(0.015625)"/>
      </defs>
      <use xlink:href="#ArialMT-4f"/>
      <use xlink:href="#ArialMT-72" transform="translate(77.783203 0)"/>
      <use xlink:href="#ArialMT-69" transform="translate(111.083984 0)"/>
      <use xlink:href="#ArialMT-67" transform="translate(133.300781 0)"/>
      <use xlink:href="#ArialMT-69" transform="translate(188.916016 0)"/>
      <use xlink:href="#ArialMT-6e" transform="translate(211.132812 0)"/>
      <use xlink:href="#ArialMT-61" transform="translate(266.748047 0)"/>
      <use xlink:href="#ArialMT-6c" transform="translate(322.363281 0)"/>
      <use xlink:href="#ArialMT-20" transform="translate(344.580078 0)"/>
      <use xlink:href="#ArialMT-50" transform="translate(372.363281 0)"/>
      <use xlink:href="#ArialMT-6f" transform="translate(439.0625 0)"/>
      <use xlink:href="#ArialMT-73" transform="translate(494.677734 0)"/>
      <use xlink:href="#ArialMT-69" transform="translate(544.677734 0)"/>
      <use xlink:href="#ArialMT-74" transform="translate(566.894531 0)"/>
      <use xlink:href="#ArialMT-69" transform="translate(594.677734 0)"/>
      <use xlink:href="#ArialMT-6f" transform="translate(616.894531 0)"/>
      <use xlink:href="#ArialMT-6e" transform="translate(672.509766 0)"/>
     </g>
    </g>
   </g>
   <g id="matplotlib.axis_2">
    <g id="ytick_1">
     <g id="line2d_15">
      <path d="M 52.48 234.792283 
L 453.95 234.792283 
" clip-path="url(#pf92ff0eec2)" style="fill: none; stroke: #cccccc; stroke-width: 0.8; stroke-linecap: round"/>
     </g>
     <g id="text_15">
      <!-- 0.0 -->
      <g style="fill: #262626" transform="translate(26.02 239.802752) scale(0.14 -0.14)">
       <defs>
        <path id="ArialMT-2e" d="M 581 0 
L 581 641 
L 1222 641 
L 1222 0 
L 581 0 
z
" transform="scale(0.015625)"/>
       </defs>
       <use xlink:href="#ArialMT-30"/>
       <use xlink:href="#ArialMT-2e" transform="translate(55.615234 0)"/>
       <use xlink:href="#ArialMT-30" transform="translate(83.398438 0)"/>
      </g>
     </g>
    </g>
    <g id="ytick_2">
     <g id="line2d_16">
      <path d="M 52.48 192.676823 
L 453.95 192.676823 
" clip-path="url(#pf92ff0eec2)" style="fill: none; stroke: #cccccc; stroke-width: 0.8; stroke-linecap: round"/>
     </g>
     <g id="text_16">
      <!-- 0.2 -->
      <g style="fill: #262626" transform="translate(26.02 197.687292) scale(0.14 -0.14)">
       <use xlink:href="#ArialMT-30"/>
       <use xlink:href="#ArialMT-2e" transform="translate(55.615234 0)"/>
       <use xlink:href="#ArialMT-32" transform="translate(83.398438 0)"/>
      </g>
     </g>
    </g>
    <g id="ytick_3">
     <g id="line2d_17">
      <path d="M 52.48 150.561363 
L 453.95 150.561363 
" clip-path="url(#pf92ff0eec2)" style="fill: none; stroke: #cccccc; stroke-width: 0.8; stroke-linecap: round"/>
     </g>
     <g id="text_17">
      <!-- 0.4 -->
      <g style="fill: #262626" transform="translate(26.02 155.571832) scale(0.14 -0.14)">
       <use xlink:href="#ArialMT-30"/>
       <use xlink:href="#ArialMT-2e" transform="translate(55.615234 0)"/>
       <use xlink:href="#ArialMT-34" transform="translate(83.398438 0)"/>
      </g>
     </g>
    </g>
    <g id="ytick_4">
     <g id="line2d_18">
      <path d="M 52.48 108.445903 
L 453.95 108.445903 
" clip-path="url(#pf92ff0eec2)" style="fill: none; stroke: #cccccc; stroke-width: 0.8; stroke-linecap: round"/>
     </g>
     <g id="text_18">
      <!-- 0.6 -->
      <g style="fill: #262626" transform="translate(26.02 113.456372) scale(0.14 -0.14)">
       <use xlink:href="#ArialMT-30"/>
       <use xlink:href="#ArialMT-2e" transform="translate(55.615234 0)"/>
       <use xlink:href="#ArialMT-36" transform="translate(83.398438 0)"/>
      </g>
     </g>
    </g>
    <g id="ytick_5">
     <g id="line2d_19">
      <path d="M 52.48 66.330443 
L 453.95 66.330443 
" clip-path="url(#pf92ff0eec2)" style="fill: none; stroke: #cccccc; stroke-width: 0.8; stroke-linecap: round"/>
     </g>
     <g id="text_19">
      <!-- 0.8 -->
      <g style="fill: #262626" transform="translate(26.02 71.340912) scale(0.14 -0.14)">
       <use xlink:href="#ArialMT-30"/>
       <use xlink:href="#ArialMT-2e" transform="translate(55.615234 0)"/>
       <use xlink:href="#ArialMT-38" transform="translate(83.398438 0)"/>
      </g>
     </g>
    </g>
    <g id="ytick_6">
     <g id="line2d_20">
      <path d="M 52.48 24.214983 
L 453.95 24.214983 
" clip-path="url(#pf92ff0eec2)" style="fill: none; stroke: #cccccc; stroke-width: 0.8; stroke-linecap: round"/>
     </g>
     <g id="text_20">
      <!-- 1.0 -->
      <g style="fill: #262626" transform="translate(26.02 29.225452) scale(0.14 -0.14)">
       <use xlink:href="#ArialMT-31"/>
       <use xlink:href="#ArialMT-2e" transform="translate(55.615234 0)"/>
       <use xlink:href="#ArialMT-30" transform="translate(83.398438 0)"/>
      </g>
     </g>
    </g>
    <g id="text_21">
     <!-- Frequency -->
     <g style="fill: #262626" transform="translate(18.6525 167.297383) rotate(-90) scale(0.16 -0.16)">
      <defs>
       <path id="ArialMT-46" d="M 525 0 
L 525 4581 
L 3616 4581 
L 3616 4041 
L 1131 4041 
L 1131 2622 
L 3281 2622 
L 3281 2081 
L 1131 2081 
L 1131 0 
L 525 0 
z
" transform="scale(0.015625)"/>
       <path id="ArialMT-65" d="M 2694 1069 
L 3275 997 
Q 3138 488 2766 206 
Q 2394 -75 1816 -75 
Q 1088 -75 661 373 
Q 234 822 234 1631 
Q 234 2469 665 2931 
Q 1097 3394 1784 3394 
Q 2450 3394 2872 2941 
Q 3294 2488 3294 1666 
Q 3294 1616 3291 1516 
L 816 1516 
Q 847 969 1125 678 
Q 1403 388 1819 388 
Q 2128 388 2347 550 
Q 2566 713 2694 1069 
z
M 847 1978 
L 2700 1978 
Q 2663 2397 2488 2606 
Q 2219 2931 1791 2931 
Q 1403 2931 1139 2672 
Q 875 2413 847 1978 
z
" transform="scale(0.015625)"/>
       <path id="ArialMT-71" d="M 2538 -1272 
L 2538 353 
Q 2406 169 2170 47 
Q 1934 -75 1669 -75 
Q 1078 -75 651 397 
Q 225 869 225 1691 
Q 225 2191 398 2587 
Q 572 2984 901 3189 
Q 1231 3394 1625 3394 
Q 2241 3394 2594 2875 
L 2594 3319 
L 3100 3319 
L 3100 -1272 
L 2538 -1272 
z
M 803 1669 
Q 803 1028 1072 708 
Q 1341 388 1716 388 
Q 2075 388 2334 692 
Q 2594 997 2594 1619 
Q 2594 2281 2320 2615 
Q 2047 2950 1678 2950 
Q 1313 2950 1058 2639 
Q 803 2328 803 1669 
z
" transform="scale(0.015625)"/>
       <path id="ArialMT-75" d="M 2597 0 
L 2597 488 
Q 2209 -75 1544 -75 
Q 1250 -75 995 37 
Q 741 150 617 320 
Q 494 491 444 738 
Q 409 903 409 1263 
L 409 3319 
L 972 3319 
L 972 1478 
Q 972 1038 1006 884 
Q 1059 663 1231 536 
Q 1403 409 1656 409 
Q 1909 409 2131 539 
Q 2353 669 2445 892 
Q 2538 1116 2538 1541 
L 2538 3319 
L 3100 3319 
L 3100 0 
L 2597 0 
z
" transform="scale(0.015625)"/>
       <path id="ArialMT-63" d="M 2588 1216 
L 3141 1144 
Q 3050 572 2676 248 
Q 2303 -75 1759 -75 
Q 1078 -75 664 370 
Q 250 816 250 1647 
Q 250 2184 428 2587 
Q 606 2991 970 3192 
Q 1334 3394 1763 3394 
Q 2303 3394 2647 3120 
Q 2991 2847 3088 2344 
L 2541 2259 
Q 2463 2594 2264 2762 
Q 2066 2931 1784 2931 
Q 1359 2931 1093 2626 
Q 828 2322 828 1663 
Q 828 994 1084 691 
Q 1341 388 1753 388 
Q 2084 388 2306 591 
Q 2528 794 2588 1216 
z
" transform="scale(0.015625)"/>
       <path id="ArialMT-79" d="M 397 -1278 
L 334 -750 
Q 519 -800 656 -800 
Q 844 -800 956 -737 
Q 1069 -675 1141 -563 
Q 1194 -478 1313 -144 
Q 1328 -97 1363 -6 
L 103 3319 
L 709 3319 
L 1400 1397 
Q 1534 1031 1641 628 
Q 1738 1016 1872 1384 
L 2581 3319 
L 3144 3319 
L 1881 -56 
Q 1678 -603 1566 -809 
Q 1416 -1088 1222 -1217 
Q 1028 -1347 759 -1347 
Q 597 -1347 397 -1278 
z
" transform="scale(0.015625)"/>
      </defs>
      <use xlink:href="#ArialMT-46"/>
      <use xlink:href="#ArialMT-72" transform="translate(61.083984 0)"/>
      <use xlink:href="#ArialMT-65" transform="translate(94.384766 0)"/>
      <use xlink:href="#ArialMT-71" transform="translate(150 0)"/>
      <use xlink:href="#ArialMT-75" transform="translate(205.615234 0)"/>
      <use xlink:href="#ArialMT-65" transform="translate(261.230469 0)"/>
      <use xlink:href="#ArialMT-6e" transform="translate(316.845703 0)"/>
      <use xlink:href="#ArialMT-63" transform="translate(372.460938 0)"/>
      <use xlink:href="#ArialMT-79" transform="translate(422.460938 0)"/>
     </g>
    </g>
   </g>
   <g id="patch_37">
    <path d="M 52.48 234.792283 
L 52.48 24.214983 
" style="fill: none; stroke: #cccccc; stroke-width: 0.8; stroke-linejoin: miter; stroke-linecap: square"/>
   </g>
   <g id="patch_38">
    <path d="M 453.95 234.792283 
L 453.95 24.214983 
" style="fill: none; stroke: #cccccc; stroke-width: 0.8; stroke-linejoin: miter; stroke-linecap: square"/>
   </g>
   <g id="patch_39">
    <path d="M 52.48 234.792283 
L 453.95 234.792283 
" style="fill: none; stroke: #cccccc; stroke-width: 0.8; stroke-linejoin: miter; stroke-linecap: square"/>
   </g>
   <g id="patch_40">
    <path d="M 52.48 24.214983 
L 453.95 24.214983 
" style="fill: none; stroke: #cccccc; stroke-width: 0.8; stroke-linejoin: miter; stroke-linecap: square"/>
   </g>
   <g id="text_22">
    <!-- 7 -->
    <g style="fill: #000080; opacity: 0.6" transform="translate(63.313077 17.220937) scale(0.14 -0.14)">
     <defs>
      <path id="Arial-ItalicMT-37" d="M 928 0 
Q 1003 463 1247 1113 
Q 1538 1897 2009 2670 
Q 2481 3444 3059 4000 
L 775 4000 
L 884 4519 
L 3809 4519 
L 3703 4000 
Q 2959 3347 2403 2316 
Q 1756 1125 1519 0 
L 928 0 
z
" transform="scale(0.015625)"/>
     </defs>
     <use xlink:href="#Arial-ItalicMT-37"/>
    </g>
   </g>
   <g id="text_23">
    <!-- 7 -->
    <g style="fill: #000080; opacity: 0.6" transform="translate(94.314622 17.220937) scale(0.14 -0.14)">
     <use xlink:href="#Arial-ItalicMT-37"/>
    </g>
   </g>
   <g id="text_24">
    <!-- 7 -->
    <g style="fill: #000080; opacity: 0.6" transform="translate(125.316166 17.220937) scale(0.14 -0.14)">
     <use xlink:href="#Arial-ItalicMT-37"/>
    </g>
   </g>
   <g id="text_25">
    <!-- 7 -->
    <g style="fill: #000080; opacity: 0.6" transform="translate(156.317711 17.220937) scale(0.14 -0.14)">
     <use xlink:href="#Arial-ItalicMT-37"/>
    </g>
   </g>
   <g id="text_26">
    <!-- 7 -->
    <g style="fill: #000080; opacity: 0.6" transform="translate(187.319255 17.220937) scale(0.14 -0.14)">
     <use xlink:href="#Arial-ItalicMT-37"/>
    </g>
   </g>
   <g id="text_27">
    <!-- 6 -->
    <g style="fill: #000080; opacity: 0.6" transform="translate(218.320799 17.220937) scale(0.14 -0.14)">
     <defs>
      <path id="Arial-ItalicMT-36" d="M 1288 2656 
Q 1525 2853 1761 2951 
Q 1997 3050 2228 3050 
Q 2750 3050 3090 2694 
Q 3431 2338 3431 1734 
Q 3431 956 2925 400 
Q 2488 -78 1863 -78 
Q 1294 -78 914 339 
Q 534 756 534 1528 
Q 534 2219 778 2956 
Q 966 3522 1242 3889 
Q 1519 4256 1830 4428 
Q 2141 4600 2531 4600 
Q 3000 4600 3297 4308 
Q 3594 4016 3634 3472 
L 3109 3422 
Q 3066 3794 2898 3959 
Q 2731 4125 2491 4125 
Q 2238 4125 1981 3928 
Q 1725 3731 1540 3345 
Q 1356 2959 1288 2656 
z
M 1091 1288 
Q 1091 900 1331 636 
Q 1572 372 1875 372 
Q 2088 372 2325 533 
Q 2563 694 2728 1022 
Q 2894 1350 2894 1675 
Q 2894 2094 2664 2345 
Q 2434 2597 2109 2597 
Q 1734 2597 1412 2230 
Q 1091 1863 1091 1288 
z
" transform="scale(0.015625)"/>
     </defs>
     <use xlink:href="#Arial-ItalicMT-36"/>
    </g>
   </g>
   <g id="text_28">
    <!-- 6 -->
    <g style="fill: #000080; opacity: 0.6" transform="translate(249.322344 17.220937) scale(0.14 -0.14)">
     <use xlink:href="#Arial-ItalicMT-36"/>
    </g>
   </g>
   <g id="text_29">
    <!-- 5 -->
    <g style="fill: #000080; opacity: 0.6" transform="translate(280.323888 17.220937) scale(0.14 -0.14)">
     <defs>
      <path id="Arial-ItalicMT-35" d="M 447 1309 
L 1022 1366 
Q 1016 1244 1016 1219 
Q 1016 1013 1120 803 
Q 1225 594 1404 483 
Q 1584 372 1784 372 
Q 2047 372 2319 553 
Q 2591 734 2759 1081 
Q 2928 1428 2928 1769 
Q 2928 2153 2701 2384 
Q 2475 2616 2106 2616 
Q 1859 2616 1639 2497 
Q 1419 2378 1228 2141 
L 734 2175 
L 1425 4519 
L 3663 4519 
L 3553 4000 
L 1813 4000 
L 1469 2834 
Q 1663 2975 1867 3045 
Q 2072 3116 2288 3116 
Q 2813 3116 3150 2769 
Q 3488 2422 3488 1819 
Q 3488 1291 3256 845 
Q 3025 400 2620 161 
Q 2216 -78 1747 -78 
Q 1353 -78 1050 100 
Q 747 278 595 590 
Q 444 903 444 1216 
Q 444 1247 447 1309 
z
" transform="scale(0.015625)"/>
     </defs>
     <use xlink:href="#Arial-ItalicMT-35"/>
    </g>
   </g>
   <g id="text_30">
    <!-- 4 -->
    <g style="fill: #000080; opacity: 0.6" transform="translate(311.325433 17.220937) scale(0.14 -0.14)">
     <defs>
      <path id="Arial-ItalicMT-34" d="M 1913 0 
L 2159 1169 
L 291 1169 
L 409 1728 
L 2975 4581 
L 3438 4581 
L 2828 1669 
L 3472 1669 
L 3369 1169 
L 2725 1169 
L 2478 0 
L 1913 0 
z
M 2263 1669 
L 2663 3581 
L 956 1669 
L 2263 1669 
z
" transform="scale(0.015625)"/>
     </defs>
     <use xlink:href="#Arial-ItalicMT-34"/>
    </g>
   </g>
   <g id="text_31">
    <!-- 3 -->
    <g style="fill: #000080; opacity: 0.6" transform="translate(342.326977 17.220937) scale(0.14 -0.14)">
     <defs>
      <path id="Arial-ItalicMT-33" d="M 350 1200 
L 900 1269 
Q 963 788 1177 580 
Q 1391 372 1738 372 
Q 2156 372 2461 672 
Q 2766 972 2766 1359 
Q 2766 1697 2537 1917 
Q 2309 2138 1925 2138 
Q 1881 2138 1744 2125 
L 1841 2597 
Q 1922 2584 1997 2584 
Q 2481 2584 2742 2820 
Q 3003 3056 3003 3400 
Q 3003 3716 2789 3931 
Q 2575 4147 2266 4147 
Q 1963 4147 1720 3926 
Q 1478 3706 1409 3303 
L 853 3416 
Q 991 3981 1381 4290 
Q 1772 4600 2306 4600 
Q 2869 4600 3217 4259 
Q 3566 3919 3566 3422 
Q 3566 3059 3377 2789 
Q 3188 2519 2809 2341 
Q 3078 2181 3211 1956 
Q 3344 1731 3344 1441 
Q 3344 825 2883 373 
Q 2422 -78 1781 -78 
Q 1159 -78 776 270 
Q 394 619 350 1200 
z
" transform="scale(0.015625)"/>
     </defs>
     <use xlink:href="#Arial-ItalicMT-33"/>
    </g>
   </g>
   <g id="text_32">
    <!-- 1 -->
    <g style="fill: #000080; opacity: 0.6" transform="translate(373.328521 17.220937) scale(0.14 -0.14)">
     <defs>
      <path id="Arial-ItalicMT-31" d="M 1541 0 
L 2266 3459 
Q 1797 3091 947 2869 
L 1053 3381 
Q 1475 3550 1886 3822 
Q 2297 4094 2503 4297 
Q 2628 4422 2741 4600 
L 3069 4600 
L 2109 0 
L 1541 0 
z
" transform="scale(0.015625)"/>
     </defs>
     <use xlink:href="#Arial-ItalicMT-31"/>
    </g>
   </g>
   <g id="text_33">
    <!-- 1 -->
    <g style="fill: #000080; opacity: 0.6" transform="translate(404.330066 17.220937) scale(0.14 -0.14)">
     <use xlink:href="#Arial-ItalicMT-31"/>
    </g>
   </g>
   <g id="text_34">
    <!-- 1 -->
    <g style="fill: #000080; opacity: 0.6" transform="translate(435.33161 17.220937) scale(0.14 -0.14)">
     <use xlink:href="#Arial-ItalicMT-31"/>
    </g>
   </g>
  </g>
 </g>
 <defs>
  <clipPath id="pf92ff0eec2">
   <rect x="52.48" y="24.214983" width="401.47" height="210.5773"/>
  </clipPath>
 </defs>
</svg>
