<?xml version="1.0" encoding="utf-8" standalone="no"?>
<!DOCTYPE svg PUBLIC "-//W3C//DTD SVG 1.1//EN"
  "http://www.w3.org/Graphics/SVG/1.1/DTD/svg11.dtd">
<svg xmlns:xlink="http://www.w3.org/1999/xlink" width="245.15pt" height="280.820721pt" viewBox="0 0 245.15 280.820721" xmlns="http://www.w3.org/2000/svg" version="1.1">
 <metadata>
  <rdf:RDF xmlns:dc="http://purl.org/dc/elements/1.1/" xmlns:cc="http://creativecommons.org/ns#" xmlns:rdf="http://www.w3.org/1999/02/22-rdf-syntax-ns#">
   <cc:Work>
    <dc:type rdf:resource="http://purl.org/dc/dcmitype/StillImage"/>
    <dc:date>2025-05-09T14:25:54.299469</dc:date>
    <dc:format>image/svg+xml</dc:format>
    <dc:creator>
     <cc:Agent>
      <dc:title>Matplotlib v3.10.1, https://matplotlib.org/</dc:title>
     </cc:Agent>
    </dc:creator>
   </cc:Work>
  </rdf:RDF>
 </metadata>
 <defs>
  <style type="text/css">*{stroke-linejoin: round; stroke-linecap: butt}</style>
 </defs>
 <g id="figure_1">
  <g id="patch_1">
   <path d="M 0 280.820721 
L 245.15 280.820721 
L 245.15 0 
L 0 0 
z
" style="fill: #ffffff"/>
  </g>
  <g id="axes_1">
   <g id="patch_2">
    <path d="M 52.48 234.792283 
L 237.95 234.792283 
L 237.95 24.214983 
L 52.48 24.214983 
z
" style="fill: #ffffff"/>
   </g>
   <g id="line2d_1">
    <path d="M 52.48 234.792283 
L 237.95 234.792283 
" clip-path="url(#p67e89dac14)" style="fill: none; stroke: #000000; stroke-width: 0.5; stroke-linecap: round"/>
   </g>
   <g id="patch_3">
    <path d="M 61.790535 234.792283 
L 61.790535 24.214983 
L 68.52148 24.214983 
L 68.52148 234.792283 
L 61.790535 234.792283 
z
" clip-path="url(#p67e89dac14)" style="fill: #add8e6"/>
   </g>
   <g id="patch_4">
    <path d="M 88.631547 234.792283 
L 88.631547 225.072703 
L 79.166331 225.072703 
L 79.166331 223.093545 
L 104.518345 223.093545 
L 104.518345 225.072703 
L 95.074023 225.072703 
L 95.074023 234.792283 
L 88.631547 234.792283 
z
" clip-path="url(#p67e89dac14)" style="fill: #a0522d"/>
   </g>
   <g id="patch_5">
    <path d="M 79.166331 211.394806 
L 90.323858 211.394806 
Q 94.100252 211.394806 96.080878 211.616982 
Q 98.741519 211.920879 100.636318 212.694666 
Q 102.537719 213.468453 103.528032 214.58955 
Q 104.518345 215.710647 104.518345 217.355263 
Q 104.518345 218.800687 103.594053 219.845172 
Q 102.458494 221.122048 100.352428 221.911157 
Q 98.761325 222.511289 96.061072 222.845831 
Q 94.040833 223.093545 90.653962 223.093545 
L 79.166331 223.093545 
L 79.166331 211.394806 
z
M 85.273261 213.373964 
L 85.273261 221.122048 
L 89.828702 221.122048 
Q 92.390311 221.122048 93.52587 221.009683 
Q 95.01134 220.866673 95.988449 220.52447 
Q 96.965558 220.179713 97.586154 219.395711 
Q 98.20675 218.609156 98.20675 217.25056 
Q 98.20675 215.894517 97.586154 215.169251 
Q 96.965558 214.441432 95.849805 214.035386 
Q 94.740654 213.629339 93.030714 213.483775 
Q 91.749909 213.373964 88.013128 213.373964 
L 85.273261 213.373964 
z
" clip-path="url(#p67e89dac14)" style="fill: #c71585"/>
   </g>
   <g id="patch_6">
    <path d="M 80.108663 211.394806 
L 80.108663 187.997328 
L 86.839609 187.997328 
L 86.839609 207.419706 
L 103.576013 207.419706 
L 103.576013 211.394806 
L 80.108663 211.394806 
z
" clip-path="url(#p67e89dac14)" style="fill: #adff2f"/>
   </g>
   <g id="patch_7">
    <path d="M 100.448622 183.242858 
Q 102.321464 184.353758 104.518345 185.012069 
L 102.645504 187.997328 
Q 101.497633 187.713888 100.399192 187.215583 
Q 100.157535 187.115008 97.015994 185.35494 
Q 94.544503 186.255546 91.540267 186.255546 
Q 85.740499 186.255546 82.450669 183.412007 
Q 79.166331 180.568469 79.166331 175.425412 
Q 79.166331 170.296071 82.461653 167.44796 
Q 85.756976 164.59985 91.402962 164.59985 
Q 96.999518 164.59985 100.278364 167.44796 
Q 103.55721 170.296071 103.55721 175.425412 
Q 103.55721 178.140946 102.645504 180.198169 
Q 101.958978 181.770801 100.448622 183.242858 
z
M 96.362422 180.85648 
Q 97.345527 179.896443 97.834333 178.543247 
Q 98.323139 177.185481 98.323139 175.425412 
Q 98.323139 171.800129 96.400868 170.00806 
Q 94.478596 168.211419 91.370009 168.211419 
Q 88.261421 168.211419 86.328165 170.012631 
Q 84.400401 171.813844 84.400401 175.425412 
Q 84.400401 179.096412 86.328165 180.920482 
Q 88.261421 182.739981 91.216227 182.739981 
Q 92.314668 182.739981 93.29228 182.442827 
Q 91.748971 181.59708 90.150739 181.126205 
L 91.578712 178.712397 
Q 94.083157 179.425567 96.362422 180.85648 
z
" clip-path="url(#p67e89dac14)" style="fill: #0000ff"/>
   </g>
   <g id="patch_8">
    <path d="M 92.720932 142.842221 
L 92.720932 133.309366 
L 104.518345 133.309366 
L 104.518345 155.844936 
Q 102.796657 159.314796 99.530773 161.957323 
Q 96.270806 164.59985 92.922091 164.59985 
Q 88.674076 164.59985 85.508772 160.883025 
Q 82.349384 157.153851 80.757858 150.226479 
Q 79.166331 143.299106 79.166331 135.161605 
Q 79.166331 126.320253 80.941268 119.454622 
Q 82.716205 112.588991 86.135916 108.921558 
Q 88.745073 106.106156 92.626269 106.106156 
Q 97.673006 106.106156 100.512905 110.526832 
Q 103.352803 114.93516 104.163358 122.72691 
L 98.732051 124.85081 
Q 98.158155 120.689447 96.572545 118.281537 
Q 94.992851 115.861279 92.626269 115.861279 
Q 89.040896 115.861279 86.922805 120.615358 
Q 84.804714 125.357089 84.804714 134.692371 
Q 84.804714 144.768549 86.946471 149.806638 
Q 89.094144 154.832379 92.57302 154.832379 
Q 94.294709 154.832379 96.022314 153.424677 
Q 97.74992 152.016976 98.986459 150.016558 
L 98.986459 142.842221 
L 92.720932 142.842221 
z
" clip-path="url(#p67e89dac14)" style="fill: #ff69b4"/>
   </g>
   <g id="patch_9">
    <path d="M 79.166331 106.106156 
L 88.488062 63.364005 
L 80.041359 24.214983 
L 86.476092 24.214983 
L 91.946508 50.528846 
L 97.303825 24.214983 
L 103.684985 24.214983 
L 95.202566 63.989674 
L 104.518345 106.106156 
L 97.881225 106.106156 
L 91.833409 77.790151 
L 85.767736 106.106156 
L 79.166331 106.106156 
z
" clip-path="url(#p67e89dac14)" style="fill: #bdb76b"/>
   </g>
   <g id="patch_10">
    <path d="M 105.852662 234.792283 
L 105.852662 232.53717 
L 122.24088 224.500963 
L 107.705361 224.500963 
L 107.705361 222.405383 
L 130.543971 222.405383 
L 130.543971 224.346836 
L 113.447368 232.704816 
L 131.204676 232.704816 
L 131.204676 234.792283 
L 105.852662 234.792283 
z
" clip-path="url(#p67e89dac14)" style="fill: #dda0dd"/>
   </g>
   <g id="patch_11">
    <path d="M 106.794994 222.405383 
L 106.794994 197.631583 
L 113.525939 197.631583 
L 113.525939 218.196454 
L 130.262344 218.196454 
L 130.262344 222.405383 
L 106.794994 222.405383 
z
" clip-path="url(#p67e89dac14)" style="fill: #adff2f"/>
   </g>
   <g id="patch_12">
    <path d="M 115.317878 197.631583 
L 115.317878 166.757621 
L 105.852662 166.757621 
L 105.852662 160.470883 
L 131.204676 160.470883 
L 131.204676 166.757621 
L 121.760354 166.757621 
L 121.760354 197.631583 
L 115.317878 197.631583 
z
" clip-path="url(#p67e89dac14)" style="fill: #a0522d"/>
   </g>
   <g id="patch_13">
    <path d="M 127.134953 147.885522 
Q 129.007795 150.82614 131.204676 152.568729 
L 129.331835 160.470883 
Q 128.183964 159.720602 127.085523 158.40156 
Q 126.843866 158.135331 123.702325 153.476327 
Q 121.230834 155.860285 118.226598 155.860285 
Q 112.42683 155.860285 109.137 148.33327 
Q 105.852662 140.806256 105.852662 127.192283 
Q 105.852662 113.614615 109.147984 106.075499 
Q 112.443307 98.536383 118.089293 98.536383 
Q 123.685849 98.536383 126.964695 106.075499 
Q 130.243541 113.614615 130.243541 127.192283 
Q 130.243541 134.380461 129.331835 139.82605 
Q 128.645309 143.9889 127.134953 147.885522 
z
M 123.048753 141.568639 
Q 124.031858 139.027364 124.520664 135.445376 
Q 125.00947 131.851287 125.00947 127.192283 
Q 125.00947 117.595945 123.087199 112.852232 
Q 121.164927 108.096418 118.05634 108.096418 
Q 114.947752 108.096418 113.014496 112.864333 
Q 111.086732 117.632249 111.086732 127.192283 
Q 111.086732 136.909635 113.014496 141.738057 
Q 114.947752 146.554378 117.902558 146.554378 
Q 119.000999 146.554378 119.978611 145.767793 
Q 118.435302 143.529051 116.83707 142.282616 
L 118.265043 135.893125 
Q 120.769488 137.780929 123.048753 141.568639 
z
" clip-path="url(#p67e89dac14)" style="fill: #0000ff"/>
   </g>
   <g id="patch_14">
    <path d="M 105.852662 98.536383 
L 105.852662 24.214983 
L 113.787699 24.214983 
L 118.548722 74.914476 
L 123.25818 24.214983 
L 131.204676 24.214983 
L 131.204676 98.536383 
L 126.283234 98.536383 
L 126.283234 40.033225 
L 121.0696 98.536383 
L 115.970551 98.536383 
L 110.779833 40.033225 
L 110.779833 98.536383 
L 105.852662 98.536383 
z
" clip-path="url(#p67e89dac14)" style="fill: #ff8c00"/>
   </g>
   <g id="patch_15">
    <path d="M 132.538993 228.288148 
Q 132.538993 226.343297 133.736995 225.023577 
Q 134.62694 224.051152 136.167229 223.278768 
Q 137.707518 222.506385 139.544455 222.134085 
Q 141.986098 221.631202 145.180771 221.631202 
Q 150.954002 221.631202 154.422505 223.376011 
Q 157.891007 225.12082 157.891007 228.229802 
Q 157.891007 231.311001 154.451029 233.053031 
Q 151.01105 234.792283 145.249229 234.792283 
Q 139.41895 234.792283 135.978971 233.061367 
Q 132.538993 231.327671 132.538993 228.288148 
z
M 137.975642 228.202019 
Q 137.975642 230.363581 140.023656 231.480481 
Q 142.077374 232.594602 145.232114 232.594602 
Q 148.386854 232.594602 150.412049 231.488816 
Q 152.437244 230.38303 152.437244 228.168678 
Q 152.437244 225.979332 150.463392 224.904108 
Q 148.495245 223.826105 145.232114 223.826105 
Q 141.968984 223.826105 139.972313 224.918 
Q 137.975642 226.007116 137.975642 228.202019 
z
" clip-path="url(#p67e89dac14)" style="fill: #006400"/>
   </g>
   <g id="patch_16">
    <path d="M 142.004209 221.631202 
L 142.004209 156.024031 
L 132.538993 156.024031 
L 132.538993 142.664715 
L 157.891007 142.664715 
L 157.891007 156.024031 
L 148.446685 156.024031 
L 148.446685 221.631202 
L 142.004209 221.631202 
z
" clip-path="url(#p67e89dac14)" style="fill: #a0522d"/>
   </g>
   <g id="patch_17">
    <path d="M 153.821284 118.595211 
Q 155.694126 124.219143 157.891007 127.551844 
L 156.018166 142.664715 
Q 154.870295 141.229802 153.771854 138.707133 
Q 153.530197 138.19797 150.388656 129.287625 
Q 147.917164 133.846945 144.912929 133.846945 
Q 139.113161 133.846945 135.823331 119.45153 
Q 132.538993 105.056115 132.538993 79.019392 
Q 132.538993 53.052101 135.834315 38.633542 
Q 139.129638 24.214983 144.775624 24.214983 
Q 150.37218 24.214983 153.651026 38.633542 
Q 156.929871 53.052101 156.929871 79.019392 
Q 156.929871 92.766782 156.018166 103.181471 
Q 155.33164 111.142922 153.821284 118.595211 
z
M 149.735084 106.514172 
Q 150.718189 101.653983 151.206995 94.803432 
Q 151.695801 87.929737 151.695801 79.019392 
Q 151.695801 60.666396 149.773529 51.594044 
Q 147.851258 42.498549 144.74267 42.498549 
Q 141.634083 42.498549 139.700827 51.617188 
Q 137.773063 60.735827 137.773063 79.019392 
Q 137.773063 97.603826 139.700827 106.838184 
Q 141.634083 116.049398 144.588889 116.049398 
Q 145.68733 116.049398 146.664942 114.545054 
Q 145.121633 110.26346 143.523401 107.879653 
L 144.951374 95.659751 
Q 147.455819 99.270177 149.735084 106.514172 
z
" clip-path="url(#p67e89dac14)" style="fill: #0000ff"/>
   </g>
   <g id="patch_18">
    <path d="M 175.859854 219.751048 
L 182.56897 219.751048 
L 182.56897 229.113483 
Q 182.56897 230.947228 181.8413 231.938355 
Q 180.858946 233.229725 178.290271 234.011004 
Q 175.721597 234.792283 171.515666 234.792283 
Q 166.582065 234.792283 163.918794 233.56871 
Q 161.262799 232.341908 161.233692 229.969015 
L 167.578973 229.646173 
Q 167.6954 230.918173 168.423069 231.444406 
Q 169.514574 232.238599 171.741244 232.238599 
Q 173.99702 232.238599 174.928437 231.670396 
Q 175.859854 231.098964 175.859854 229.30396 
L 175.859854 219.751048 
z
" clip-path="url(#p67e89dac14)" style="fill: #7b68ee"/>
   </g>
   <g id="patch_19">
    <path d="M 159.225324 219.751048 
L 159.225324 204.709812 
L 183.944265 204.709812 
L 183.944265 207.254444 
L 165.956269 207.254444 
L 165.956269 210.58709 
L 182.692673 210.58709 
L 182.692673 213.121872 
L 165.956269 213.121872 
L 165.956269 217.216266 
L 184.577338 217.216266 
L 184.577338 219.751048 
L 159.225324 219.751048 
z
" clip-path="url(#p67e89dac14)" style="fill: #c0c0c0"/>
   </g>
   <g id="patch_20">
    <path d="M 159.225324 204.709812 
L 168.547055 196.859213 
L 160.100352 189.668576 
L 166.535085 189.668576 
L 172.005501 194.501735 
L 177.362818 189.668576 
L 183.743978 189.668576 
L 175.261559 196.974132 
L 184.577338 204.709812 
L 177.940218 204.709812 
L 171.892402 199.508913 
L 165.826729 204.709812 
L 159.225324 204.709812 
z
" clip-path="url(#p67e89dac14)" style="fill: #bdb76b"/>
   </g>
   <g id="patch_21">
    <path d="M 180.507615 180.499242 
Q 182.380456 182.641692 184.577338 183.911292 
L 182.704497 189.668576 
Q 181.556626 189.121943 180.458185 188.160926 
Q 180.216528 187.966959 177.074987 184.572542 
Q 174.603495 186.309426 171.59926 186.309426 
Q 165.799492 186.309426 162.509662 180.825458 
Q 159.225324 175.341491 159.225324 165.422739 
Q 159.225324 155.530438 162.520646 150.037653 
Q 165.815969 144.544869 171.461955 144.544869 
Q 177.058511 144.544869 180.337357 150.037653 
Q 183.616202 155.530438 183.616202 165.422739 
Q 183.616202 170.65984 182.704497 174.627341 
Q 182.017971 177.660274 180.507615 180.499242 
z
M 176.421415 175.896941 
Q 177.40452 174.045441 177.893326 171.435707 
Q 178.382132 168.817156 178.382132 165.422739 
Q 178.382132 158.431121 176.45986 154.974988 
Q 174.537589 151.510037 171.429001 151.510037 
Q 168.320414 151.510037 166.387158 154.983804 
Q 164.459394 158.457571 164.459394 165.422739 
Q 164.459394 172.502524 166.387158 176.020374 
Q 168.320414 179.529408 171.27522 179.529408 
Q 172.37366 179.529408 173.351273 178.956325 
Q 171.807963 177.325241 170.209732 176.417124 
L 171.637705 171.761924 
Q 174.14215 173.137324 176.421415 175.896941 
z
" clip-path="url(#p67e89dac14)" style="fill: #0000ff"/>
   </g>
   <g id="patch_22">
    <path d="M 168.69054 144.544869 
L 168.69054 44.572037 
L 159.225324 44.572037 
L 159.225324 24.214983 
L 184.577338 24.214983 
L 184.577338 44.572037 
L 175.133016 44.572037 
L 175.133016 144.544869 
L 168.69054 144.544869 
z
" clip-path="url(#p67e89dac14)" style="fill: #a0522d"/>
   </g>
   <g id="patch_23">
    <path d="M 195.376871 234.792283 
L 195.376871 218.887515 
L 185.911655 218.887515 
L 185.911655 215.648893 
L 211.263669 215.648893 
L 211.263669 218.887515 
L 201.819347 218.887515 
L 201.819347 234.792283 
L 195.376871 234.792283 
z
" clip-path="url(#p67e89dac14)" style="fill: #a0522d"/>
   </g>
   <g id="patch_24">
    <path d="M 185.911655 215.648893 
L 195.233386 205.657221 
L 186.786683 196.505502 
L 193.221416 196.505502 
L 198.691832 202.656794 
L 204.049149 196.505502 
L 210.430309 196.505502 
L 201.94789 205.803481 
L 211.263669 215.648893 
L 204.626549 215.648893 
L 198.578733 209.029567 
L 192.51306 215.648893 
L 185.911655 215.648893 
z
" clip-path="url(#p67e89dac14)" style="fill: #bdb76b"/>
   </g>
   <g id="patch_25">
    <path d="M 207.193946 184.835439 
Q 209.066787 187.562194 211.263669 189.178049 
L 209.390827 196.505502 
Q 208.242957 195.809786 207.144516 194.586674 
Q 206.902859 194.339807 203.761318 190.01964 
Q 201.289826 192.230219 198.285591 192.230219 
Q 192.485823 192.230219 189.195993 185.250624 
Q 185.911655 178.271029 185.911655 165.647163 
Q 185.911655 153.056961 189.206977 146.066145 
Q 192.5023 139.075329 198.148286 139.075329 
Q 203.744842 139.075329 207.023687 146.066145 
Q 210.302533 153.056961 210.302533 165.647163 
Q 210.302533 172.312565 209.390827 177.362111 
Q 208.704302 181.222208 207.193946 184.835439 
z
M 203.107746 178.977966 
Q 204.09085 176.621511 204.579657 173.300031 
Q 205.068463 169.967331 205.068463 165.647163 
Q 205.068463 156.748741 203.146191 152.350025 
Q 201.22392 147.940088 198.115332 147.940088 
Q 195.006745 147.940088 193.073489 152.361246 
Q 191.145725 156.782404 191.145725 165.647163 
Q 191.145725 174.657798 193.073489 179.135063 
Q 195.006745 183.601106 197.961551 183.601106 
Q 199.059991 183.601106 200.037604 182.871727 
Q 198.494294 180.795802 196.896063 179.640017 
L 198.324036 173.715216 
Q 200.828481 175.465726 203.107746 178.977966 
z
" clip-path="url(#p67e89dac14)" style="fill: #0000ff"/>
   </g>
   <g id="patch_26">
    <path d="M 202.546185 24.214983 
L 209.255301 24.214983 
L 209.255301 95.70994 
Q 209.255301 109.71309 208.527631 117.281694 
Q 207.545277 127.143067 204.976602 133.109198 
Q 202.407928 139.075329 198.201997 139.075329 
Q 193.268396 139.075329 190.605125 129.731678 
Q 187.94913 120.363373 187.920023 102.2431 
L 194.265304 99.777756 
Q 194.381731 109.491209 195.1094 113.509719 
Q 196.200905 119.574463 198.427575 119.574463 
Q 200.683351 119.574463 201.614768 115.235459 
Q 202.546185 110.871801 202.546185 97.164492 
L 202.546185 24.214983 
z
" clip-path="url(#p67e89dac14)" style="fill: #7b68ee"/>
   </g>
   <g id="patch_27">
    <path d="M 229.232516 129.503633 
L 235.941631 129.503633 
L 235.941631 195.040677 
Q 235.941631 207.876898 235.213962 214.814785 
Q 234.231608 223.854377 231.662933 229.32333 
Q 229.094259 234.792283 224.888328 234.792283 
Q 219.954727 234.792283 217.291456 226.22727 
Q 214.635461 217.639657 214.606354 201.029407 
L 220.951634 198.769509 
Q 221.068062 207.673507 221.795731 211.357141 
Q 222.887236 216.91649 225.113905 216.91649 
Q 227.369682 216.91649 228.301099 212.939069 
Q 229.232516 208.93905 229.232516 196.374017 
L 229.232516 129.503633 
z
" clip-path="url(#p67e89dac14)" style="fill: #7b68ee"/>
   </g>
   <g id="patch_28">
    <path d="M 222.063202 129.503633 
L 222.063202 42.027405 
L 212.597986 42.027405 
L 212.597986 24.214983 
L 237.95 24.214983 
L 237.95 42.027405 
L 228.505678 42.027405 
L 228.505678 129.503633 
L 222.063202 129.503633 
z
" clip-path="url(#p67e89dac14)" style="fill: #a0522d"/>
   </g>
   <g id="matplotlib.axis_1">
    <g id="xtick_1">
     <g id="line2d_2">
      <path d="M 65.156007 234.792283 
L 65.156007 24.214983 
" clip-path="url(#p67e89dac14)" style="fill: none; stroke: #cccccc; stroke-width: 0.8; stroke-linecap: round"/>
     </g>
     <g id="text_1">
      <!-- 0 -->
      <g style="fill: #262626" transform="translate(61.263351 251.813221) scale(0.14 -0.14)">
       <defs>
        <path id="ArialMT-30" d="M 266 2259 
Q 266 3072 433 3567 
Q 600 4063 929 4331 
Q 1259 4600 1759 4600 
Q 2128 4600 2406 4451 
Q 2684 4303 2865 4023 
Q 3047 3744 3150 3342 
Q 3253 2941 3253 2259 
Q 3253 1453 3087 958 
Q 2922 463 2592 192 
Q 2263 -78 1759 -78 
Q 1097 -78 719 397 
Q 266 969 266 2259 
z
M 844 2259 
Q 844 1131 1108 757 
Q 1372 384 1759 384 
Q 2147 384 2411 759 
Q 2675 1134 2675 2259 
Q 2675 3391 2411 3762 
Q 2147 4134 1753 4134 
Q 1366 4134 1134 3806 
Q 844 3388 844 2259 
z
" transform="scale(0.015625)"/>
       </defs>
       <use xlink:href="#ArialMT-30"/>
      </g>
     </g>
    </g>
    <g id="xtick_2">
     <g id="line2d_3">
      <path d="M 91.842338 234.792283 
L 91.842338 24.214983 
" clip-path="url(#p67e89dac14)" style="fill: none; stroke: #cccccc; stroke-width: 0.8; stroke-linecap: round"/>
     </g>
     <g id="text_2">
      <!-- 1 -->
      <g style="fill: #262626" transform="translate(87.949682 251.813221) scale(0.14 -0.14)">
       <defs>
        <path id="ArialMT-31" d="M 2384 0 
L 1822 0 
L 1822 3584 
Q 1619 3391 1289 3197 
Q 959 3003 697 2906 
L 697 3450 
Q 1169 3672 1522 3987 
Q 1875 4303 2022 4600 
L 2384 4600 
L 2384 0 
z
" transform="scale(0.015625)"/>
       </defs>
       <use xlink:href="#ArialMT-31"/>
      </g>
     </g>
    </g>
    <g id="xtick_3">
     <g id="line2d_4">
      <path d="M 118.528669 234.792283 
L 118.528669 24.214983 
" clip-path="url(#p67e89dac14)" style="fill: none; stroke: #cccccc; stroke-width: 0.8; stroke-linecap: round"/>
     </g>
     <g id="text_3">
      <!-- 2 -->
      <g style="fill: #262626" transform="translate(114.636013 251.813221) scale(0.14 -0.14)">
       <defs>
        <path id="ArialMT-32" d="M 3222 541 
L 3222 0 
L 194 0 
Q 188 203 259 391 
Q 375 700 629 1000 
Q 884 1300 1366 1694 
Q 2113 2306 2375 2664 
Q 2638 3022 2638 3341 
Q 2638 3675 2398 3904 
Q 2159 4134 1775 4134 
Q 1369 4134 1125 3890 
Q 881 3647 878 3216 
L 300 3275 
Q 359 3922 746 4261 
Q 1134 4600 1788 4600 
Q 2447 4600 2831 4234 
Q 3216 3869 3216 3328 
Q 3216 3053 3103 2787 
Q 2991 2522 2730 2228 
Q 2469 1934 1863 1422 
Q 1356 997 1212 845 
Q 1069 694 975 541 
L 3222 541 
z
" transform="scale(0.015625)"/>
       </defs>
       <use xlink:href="#ArialMT-32"/>
      </g>
     </g>
    </g>
    <g id="xtick_4">
     <g id="line2d_5">
      <path d="M 145.215 234.792283 
L 145.215 24.214983 
" clip-path="url(#p67e89dac14)" style="fill: none; stroke: #cccccc; stroke-width: 0.8; stroke-linecap: round"/>
     </g>
     <g id="text_4">
      <!-- 3 -->
      <g style="fill: #262626" transform="translate(141.322344 251.813221) scale(0.14 -0.14)">
       <defs>
        <path id="ArialMT-33" d="M 269 1209 
L 831 1284 
Q 928 806 1161 595 
Q 1394 384 1728 384 
Q 2125 384 2398 659 
Q 2672 934 2672 1341 
Q 2672 1728 2419 1979 
Q 2166 2231 1775 2231 
Q 1616 2231 1378 2169 
L 1441 2663 
Q 1497 2656 1531 2656 
Q 1891 2656 2178 2843 
Q 2466 3031 2466 3422 
Q 2466 3731 2256 3934 
Q 2047 4138 1716 4138 
Q 1388 4138 1169 3931 
Q 950 3725 888 3313 
L 325 3413 
Q 428 3978 793 4289 
Q 1159 4600 1703 4600 
Q 2078 4600 2393 4439 
Q 2709 4278 2876 4000 
Q 3044 3722 3044 3409 
Q 3044 3113 2884 2869 
Q 2725 2625 2413 2481 
Q 2819 2388 3044 2092 
Q 3269 1797 3269 1353 
Q 3269 753 2831 336 
Q 2394 -81 1725 -81 
Q 1122 -81 723 278 
Q 325 638 269 1209 
z
" transform="scale(0.015625)"/>
       </defs>
       <use xlink:href="#ArialMT-33"/>
      </g>
     </g>
    </g>
    <g id="xtick_5">
     <g id="line2d_6">
      <path d="M 171.901331 234.792283 
L 171.901331 24.214983 
" clip-path="url(#p67e89dac14)" style="fill: none; stroke: #cccccc; stroke-width: 0.8; stroke-linecap: round"/>
     </g>
     <g id="text_5">
      <!-- 4 -->
      <g style="fill: #262626" transform="translate(168.008675 251.813221) scale(0.14 -0.14)">
       <defs>
        <path id="ArialMT-34" d="M 2069 0 
L 2069 1097 
L 81 1097 
L 81 1613 
L 2172 4581 
L 2631 4581 
L 2631 1613 
L 3250 1613 
L 3250 1097 
L 2631 1097 
L 2631 0 
L 2069 0 
z
M 2069 1613 
L 2069 3678 
L 634 1613 
L 2069 1613 
z
" transform="scale(0.015625)"/>
       </defs>
       <use xlink:href="#ArialMT-34"/>
      </g>
     </g>
    </g>
    <g id="xtick_6">
     <g id="line2d_7">
      <path d="M 198.587662 234.792283 
L 198.587662 24.214983 
" clip-path="url(#p67e89dac14)" style="fill: none; stroke: #cccccc; stroke-width: 0.8; stroke-linecap: round"/>
     </g>
     <g id="text_6">
      <!-- 5 -->
      <g style="fill: #262626" transform="translate(194.695006 251.813221) scale(0.14 -0.14)">
       <defs>
        <path id="ArialMT-35" d="M 266 1200 
L 856 1250 
Q 922 819 1161 601 
Q 1400 384 1738 384 
Q 2144 384 2425 690 
Q 2706 997 2706 1503 
Q 2706 1984 2436 2262 
Q 2166 2541 1728 2541 
Q 1456 2541 1237 2417 
Q 1019 2294 894 2097 
L 366 2166 
L 809 4519 
L 3088 4519 
L 3088 3981 
L 1259 3981 
L 1013 2750 
Q 1425 3038 1878 3038 
Q 2478 3038 2890 2622 
Q 3303 2206 3303 1553 
Q 3303 931 2941 478 
Q 2500 -78 1738 -78 
Q 1113 -78 717 272 
Q 322 622 266 1200 
z
" transform="scale(0.015625)"/>
       </defs>
       <use xlink:href="#ArialMT-35"/>
      </g>
     </g>
    </g>
    <g id="xtick_7">
     <g id="line2d_8">
      <path d="M 225.273993 234.792283 
L 225.273993 24.214983 
" clip-path="url(#p67e89dac14)" style="fill: none; stroke: #cccccc; stroke-width: 0.8; stroke-linecap: round"/>
     </g>
     <g id="text_7">
      <!-- 6 -->
      <g style="fill: #262626" transform="translate(221.381337 251.813221) scale(0.14 -0.14)">
       <defs>
        <path id="ArialMT-36" d="M 3184 3459 
L 2625 3416 
Q 2550 3747 2413 3897 
Q 2184 4138 1850 4138 
Q 1581 4138 1378 3988 
Q 1113 3794 959 3422 
Q 806 3050 800 2363 
Q 1003 2672 1297 2822 
Q 1591 2972 1913 2972 
Q 2475 2972 2870 2558 
Q 3266 2144 3266 1488 
Q 3266 1056 3080 686 
Q 2894 316 2569 119 
Q 2244 -78 1831 -78 
Q 1128 -78 684 439 
Q 241 956 241 2144 
Q 241 3472 731 4075 
Q 1159 4600 1884 4600 
Q 2425 4600 2770 4297 
Q 3116 3994 3184 3459 
z
M 888 1484 
Q 888 1194 1011 928 
Q 1134 663 1356 523 
Q 1578 384 1822 384 
Q 2178 384 2434 671 
Q 2691 959 2691 1453 
Q 2691 1928 2437 2201 
Q 2184 2475 1800 2475 
Q 1419 2475 1153 2201 
Q 888 1928 888 1484 
z
" transform="scale(0.015625)"/>
       </defs>
       <use xlink:href="#ArialMT-36"/>
      </g>
     </g>
    </g>
    <g id="text_8">
     <!-- Original Position -->
     <g style="fill: #262626" transform="translate(86.9675 270.253221) scale(0.16 -0.16)">
      <defs>
       <path id="ArialMT-4f" d="M 309 2231 
Q 309 3372 921 4017 
Q 1534 4663 2503 4663 
Q 3138 4663 3647 4359 
Q 4156 4056 4423 3514 
Q 4691 2972 4691 2284 
Q 4691 1588 4409 1038 
Q 4128 488 3612 205 
Q 3097 -78 2500 -78 
Q 1853 -78 1343 234 
Q 834 547 571 1087 
Q 309 1628 309 2231 
z
M 934 2222 
Q 934 1394 1379 917 
Q 1825 441 2497 441 
Q 3181 441 3623 922 
Q 4066 1403 4066 2288 
Q 4066 2847 3877 3264 
Q 3688 3681 3323 3911 
Q 2959 4141 2506 4141 
Q 1863 4141 1398 3698 
Q 934 3256 934 2222 
z
" transform="scale(0.015625)"/>
       <path id="ArialMT-72" d="M 416 0 
L 416 3319 
L 922 3319 
L 922 2816 
Q 1116 3169 1280 3281 
Q 1444 3394 1641 3394 
Q 1925 3394 2219 3213 
L 2025 2691 
Q 1819 2813 1613 2813 
Q 1428 2813 1281 2702 
Q 1134 2591 1072 2394 
Q 978 2094 978 1738 
L 978 0 
L 416 0 
z
" transform="scale(0.015625)"/>
       <path id="ArialMT-69" d="M 425 3934 
L 425 4581 
L 988 4581 
L 988 3934 
L 425 3934 
z
M 425 0 
L 425 3319 
L 988 3319 
L 988 0 
L 425 0 
z
" transform="scale(0.015625)"/>
       <path id="ArialMT-67" d="M 319 -275 
L 866 -356 
Q 900 -609 1056 -725 
Q 1266 -881 1628 -881 
Q 2019 -881 2231 -725 
Q 2444 -569 2519 -288 
Q 2563 -116 2559 434 
Q 2191 0 1641 0 
Q 956 0 581 494 
Q 206 988 206 1678 
Q 206 2153 378 2554 
Q 550 2956 876 3175 
Q 1203 3394 1644 3394 
Q 2231 3394 2613 2919 
L 2613 3319 
L 3131 3319 
L 3131 450 
Q 3131 -325 2973 -648 
Q 2816 -972 2473 -1159 
Q 2131 -1347 1631 -1347 
Q 1038 -1347 672 -1080 
Q 306 -813 319 -275 
z
M 784 1719 
Q 784 1066 1043 766 
Q 1303 466 1694 466 
Q 2081 466 2343 764 
Q 2606 1063 2606 1700 
Q 2606 2309 2336 2618 
Q 2066 2928 1684 2928 
Q 1309 2928 1046 2623 
Q 784 2319 784 1719 
z
" transform="scale(0.015625)"/>
       <path id="ArialMT-6e" d="M 422 0 
L 422 3319 
L 928 3319 
L 928 2847 
Q 1294 3394 1984 3394 
Q 2284 3394 2536 3286 
Q 2788 3178 2913 3003 
Q 3038 2828 3088 2588 
Q 3119 2431 3119 2041 
L 3119 0 
L 2556 0 
L 2556 2019 
Q 2556 2363 2490 2533 
Q 2425 2703 2258 2804 
Q 2091 2906 1866 2906 
Q 1506 2906 1245 2678 
Q 984 2450 984 1813 
L 984 0 
L 422 0 
z
" transform="scale(0.015625)"/>
       <path id="ArialMT-61" d="M 2588 409 
Q 2275 144 1986 34 
Q 1697 -75 1366 -75 
Q 819 -75 525 192 
Q 231 459 231 875 
Q 231 1119 342 1320 
Q 453 1522 633 1644 
Q 813 1766 1038 1828 
Q 1203 1872 1538 1913 
Q 2219 1994 2541 2106 
Q 2544 2222 2544 2253 
Q 2544 2597 2384 2738 
Q 2169 2928 1744 2928 
Q 1347 2928 1158 2789 
Q 969 2650 878 2297 
L 328 2372 
Q 403 2725 575 2942 
Q 747 3159 1072 3276 
Q 1397 3394 1825 3394 
Q 2250 3394 2515 3294 
Q 2781 3194 2906 3042 
Q 3031 2891 3081 2659 
Q 3109 2516 3109 2141 
L 3109 1391 
Q 3109 606 3145 398 
Q 3181 191 3288 0 
L 2700 0 
Q 2613 175 2588 409 
z
M 2541 1666 
Q 2234 1541 1622 1453 
Q 1275 1403 1131 1340 
Q 988 1278 909 1158 
Q 831 1038 831 891 
Q 831 666 1001 516 
Q 1172 366 1500 366 
Q 1825 366 2078 508 
Q 2331 650 2450 897 
Q 2541 1088 2541 1459 
L 2541 1666 
z
" transform="scale(0.015625)"/>
       <path id="ArialMT-6c" d="M 409 0 
L 409 4581 
L 972 4581 
L 972 0 
L 409 0 
z
" transform="scale(0.015625)"/>
       <path id="ArialMT-20" transform="scale(0.015625)"/>
       <path id="ArialMT-50" d="M 494 0 
L 494 4581 
L 2222 4581 
Q 2678 4581 2919 4538 
Q 3256 4481 3484 4323 
Q 3713 4166 3852 3881 
Q 3991 3597 3991 3256 
Q 3991 2672 3619 2267 
Q 3247 1863 2275 1863 
L 1100 1863 
L 1100 0 
L 494 0 
z
M 1100 2403 
L 2284 2403 
Q 2872 2403 3119 2622 
Q 3366 2841 3366 3238 
Q 3366 3525 3220 3729 
Q 3075 3934 2838 4000 
Q 2684 4041 2272 4041 
L 1100 4041 
L 1100 2403 
z
" transform="scale(0.015625)"/>
       <path id="ArialMT-6f" d="M 213 1659 
Q 213 2581 725 3025 
Q 1153 3394 1769 3394 
Q 2453 3394 2887 2945 
Q 3322 2497 3322 1706 
Q 3322 1066 3130 698 
Q 2938 331 2570 128 
Q 2203 -75 1769 -75 
Q 1072 -75 642 372 
Q 213 819 213 1659 
z
M 791 1659 
Q 791 1022 1069 705 
Q 1347 388 1769 388 
Q 2188 388 2466 706 
Q 2744 1025 2744 1678 
Q 2744 2294 2464 2611 
Q 2184 2928 1769 2928 
Q 1347 2928 1069 2612 
Q 791 2297 791 1659 
z
" transform="scale(0.015625)"/>
       <path id="ArialMT-73" d="M 197 991 
L 753 1078 
Q 800 744 1014 566 
Q 1228 388 1613 388 
Q 2000 388 2187 545 
Q 2375 703 2375 916 
Q 2375 1106 2209 1216 
Q 2094 1291 1634 1406 
Q 1016 1563 777 1677 
Q 538 1791 414 1992 
Q 291 2194 291 2438 
Q 291 2659 392 2848 
Q 494 3038 669 3163 
Q 800 3259 1026 3326 
Q 1253 3394 1513 3394 
Q 1903 3394 2198 3281 
Q 2494 3169 2634 2976 
Q 2775 2784 2828 2463 
L 2278 2388 
Q 2241 2644 2061 2787 
Q 1881 2931 1553 2931 
Q 1166 2931 1000 2803 
Q 834 2675 834 2503 
Q 834 2394 903 2306 
Q 972 2216 1119 2156 
Q 1203 2125 1616 2013 
Q 2213 1853 2448 1751 
Q 2684 1650 2818 1456 
Q 2953 1263 2953 975 
Q 2953 694 2789 445 
Q 2625 197 2315 61 
Q 2006 -75 1616 -75 
Q 969 -75 630 194 
Q 291 463 197 991 
z
" transform="scale(0.015625)"/>
       <path id="ArialMT-74" d="M 1650 503 
L 1731 6 
Q 1494 -44 1306 -44 
Q 1000 -44 831 53 
Q 663 150 594 308 
Q 525 466 525 972 
L 525 2881 
L 113 2881 
L 113 3319 
L 525 3319 
L 525 4141 
L 1084 4478 
L 1084 3319 
L 1650 3319 
L 1650 2881 
L 1084 2881 
L 1084 941 
Q 1084 700 1114 631 
Q 1144 563 1211 522 
Q 1278 481 1403 481 
Q 1497 481 1650 503 
z
" transform="scale(0.015625)"/>
      </defs>
      <use xlink:href="#ArialMT-4f"/>
      <use xlink:href="#ArialMT-72" transform="translate(77.783203 0)"/>
      <use xlink:href="#ArialMT-69" transform="translate(111.083984 0)"/>
      <use xlink:href="#ArialMT-67" transform="translate(133.300781 0)"/>
      <use xlink:href="#ArialMT-69" transform="translate(188.916016 0)"/>
      <use xlink:href="#ArialMT-6e" transform="translate(211.132812 0)"/>
      <use xlink:href="#ArialMT-61" transform="translate(266.748047 0)"/>
      <use xlink:href="#ArialMT-6c" transform="translate(322.363281 0)"/>
      <use xlink:href="#ArialMT-20" transform="translate(344.580078 0)"/>
      <use xlink:href="#ArialMT-50" transform="translate(372.363281 0)"/>
      <use xlink:href="#ArialMT-6f" transform="translate(439.0625 0)"/>
      <use xlink:href="#ArialMT-73" transform="translate(494.677734 0)"/>
      <use xlink:href="#ArialMT-69" transform="translate(544.677734 0)"/>
      <use xlink:href="#ArialMT-74" transform="translate(566.894531 0)"/>
      <use xlink:href="#ArialMT-69" transform="translate(594.677734 0)"/>
      <use xlink:href="#ArialMT-6f" transform="translate(616.894531 0)"/>
      <use xlink:href="#ArialMT-6e" transform="translate(672.509766 0)"/>
     </g>
    </g>
   </g>
   <g id="matplotlib.axis_2">
    <g id="ytick_1">
     <g id="line2d_9">
      <path d="M 52.48 234.792283 
L 237.95 234.792283 
" clip-path="url(#p67e89dac14)" style="fill: none; stroke: #cccccc; stroke-width: 0.8; stroke-linecap: round"/>
     </g>
     <g id="text_9">
      <!-- 0.0 -->
      <g style="fill: #262626" transform="translate(26.02 239.802752) scale(0.14 -0.14)">
       <defs>
        <path id="ArialMT-2e" d="M 581 0 
L 581 641 
L 1222 641 
L 1222 0 
L 581 0 
z
" transform="scale(0.015625)"/>
       </defs>
       <use xlink:href="#ArialMT-30"/>
       <use xlink:href="#ArialMT-2e" transform="translate(55.615234 0)"/>
       <use xlink:href="#ArialMT-30" transform="translate(83.398438 0)"/>
      </g>
     </g>
    </g>
    <g id="ytick_2">
     <g id="line2d_10">
      <path d="M 52.48 192.676823 
L 237.95 192.676823 
" clip-path="url(#p67e89dac14)" style="fill: none; stroke: #cccccc; stroke-width: 0.8; stroke-linecap: round"/>
     </g>
     <g id="text_10">
      <!-- 0.2 -->
      <g style="fill: #262626" transform="translate(26.02 197.687292) scale(0.14 -0.14)">
       <use xlink:href="#ArialMT-30"/>
       <use xlink:href="#ArialMT-2e" transform="translate(55.615234 0)"/>
       <use xlink:href="#ArialMT-32" transform="translate(83.398438 0)"/>
      </g>
     </g>
    </g>
    <g id="ytick_3">
     <g id="line2d_11">
      <path d="M 52.48 150.561363 
L 237.95 150.561363 
" clip-path="url(#p67e89dac14)" style="fill: none; stroke: #cccccc; stroke-width: 0.8; stroke-linecap: round"/>
     </g>
     <g id="text_11">
      <!-- 0.4 -->
      <g style="fill: #262626" transform="translate(26.02 155.571832) scale(0.14 -0.14)">
       <use xlink:href="#ArialMT-30"/>
       <use xlink:href="#ArialMT-2e" transform="translate(55.615234 0)"/>
       <use xlink:href="#ArialMT-34" transform="translate(83.398438 0)"/>
      </g>
     </g>
    </g>
    <g id="ytick_4">
     <g id="line2d_12">
      <path d="M 52.48 108.445903 
L 237.95 108.445903 
" clip-path="url(#p67e89dac14)" style="fill: none; stroke: #cccccc; stroke-width: 0.8; stroke-linecap: round"/>
     </g>
     <g id="text_12">
      <!-- 0.6 -->
      <g style="fill: #262626" transform="translate(26.02 113.456372) scale(0.14 -0.14)">
       <use xlink:href="#ArialMT-30"/>
       <use xlink:href="#ArialMT-2e" transform="translate(55.615234 0)"/>
       <use xlink:href="#ArialMT-36" transform="translate(83.398438 0)"/>
      </g>
     </g>
    </g>
    <g id="ytick_5">
     <g id="line2d_13">
      <path d="M 52.48 66.330443 
L 237.95 66.330443 
" clip-path="url(#p67e89dac14)" style="fill: none; stroke: #cccccc; stroke-width: 0.8; stroke-linecap: round"/>
     </g>
     <g id="text_13">
      <!-- 0.8 -->
      <g style="fill: #262626" transform="translate(26.02 71.340912) scale(0.14 -0.14)">
       <defs>
        <path id="ArialMT-38" d="M 1131 2484 
Q 781 2613 612 2850 
Q 444 3088 444 3419 
Q 444 3919 803 4259 
Q 1163 4600 1759 4600 
Q 2359 4600 2725 4251 
Q 3091 3903 3091 3403 
Q 3091 3084 2923 2848 
Q 2756 2613 2416 2484 
Q 2838 2347 3058 2040 
Q 3278 1734 3278 1309 
Q 3278 722 2862 322 
Q 2447 -78 1769 -78 
Q 1091 -78 675 323 
Q 259 725 259 1325 
Q 259 1772 486 2073 
Q 713 2375 1131 2484 
z
M 1019 3438 
Q 1019 3113 1228 2906 
Q 1438 2700 1772 2700 
Q 2097 2700 2305 2904 
Q 2513 3109 2513 3406 
Q 2513 3716 2298 3927 
Q 2084 4138 1766 4138 
Q 1444 4138 1231 3931 
Q 1019 3725 1019 3438 
z
M 838 1322 
Q 838 1081 952 856 
Q 1066 631 1291 507 
Q 1516 384 1775 384 
Q 2178 384 2440 643 
Q 2703 903 2703 1303 
Q 2703 1709 2433 1975 
Q 2163 2241 1756 2241 
Q 1359 2241 1098 1978 
Q 838 1716 838 1322 
z
" transform="scale(0.015625)"/>
       </defs>
       <use xlink:href="#ArialMT-30"/>
       <use xlink:href="#ArialMT-2e" transform="translate(55.615234 0)"/>
       <use xlink:href="#ArialMT-38" transform="translate(83.398438 0)"/>
      </g>
     </g>
    </g>
    <g id="ytick_6">
     <g id="line2d_14">
      <path d="M 52.48 24.214983 
L 237.95 24.214983 
" clip-path="url(#p67e89dac14)" style="fill: none; stroke: #cccccc; stroke-width: 0.8; stroke-linecap: round"/>
     </g>
     <g id="text_14">
      <!-- 1.0 -->
      <g style="fill: #262626" transform="translate(26.02 29.225452) scale(0.14 -0.14)">
       <use xlink:href="#ArialMT-31"/>
       <use xlink:href="#ArialMT-2e" transform="translate(55.615234 0)"/>
       <use xlink:href="#ArialMT-30" transform="translate(83.398438 0)"/>
      </g>
     </g>
    </g>
    <g id="text_15">
     <!-- Frequency -->
     <g style="fill: #262626" transform="translate(18.6525 167.297383) rotate(-90) scale(0.16 -0.16)">
      <defs>
       <path id="ArialMT-46" d="M 525 0 
L 525 4581 
L 3616 4581 
L 3616 4041 
L 1131 4041 
L 1131 2622 
L 3281 2622 
L 3281 2081 
L 1131 2081 
L 1131 0 
L 525 0 
z
" transform="scale(0.015625)"/>
       <path id="ArialMT-65" d="M 2694 1069 
L 3275 997 
Q 3138 488 2766 206 
Q 2394 -75 1816 -75 
Q 1088 -75 661 373 
Q 234 822 234 1631 
Q 234 2469 665 2931 
Q 1097 3394 1784 3394 
Q 2450 3394 2872 2941 
Q 3294 2488 3294 1666 
Q 3294 1616 3291 1516 
L 816 1516 
Q 847 969 1125 678 
Q 1403 388 1819 388 
Q 2128 388 2347 550 
Q 2566 713 2694 1069 
z
M 847 1978 
L 2700 1978 
Q 2663 2397 2488 2606 
Q 2219 2931 1791 2931 
Q 1403 2931 1139 2672 
Q 875 2413 847 1978 
z
" transform="scale(0.015625)"/>
       <path id="ArialMT-71" d="M 2538 -1272 
L 2538 353 
Q 2406 169 2170 47 
Q 1934 -75 1669 -75 
Q 1078 -75 651 397 
Q 225 869 225 1691 
Q 225 2191 398 2587 
Q 572 2984 901 3189 
Q 1231 3394 1625 3394 
Q 2241 3394 2594 2875 
L 2594 3319 
L 3100 3319 
L 3100 -1272 
L 2538 -1272 
z
M 803 1669 
Q 803 1028 1072 708 
Q 1341 388 1716 388 
Q 2075 388 2334 692 
Q 2594 997 2594 1619 
Q 2594 2281 2320 2615 
Q 2047 2950 1678 2950 
Q 1313 2950 1058 2639 
Q 803 2328 803 1669 
z
" transform="scale(0.015625)"/>
       <path id="ArialMT-75" d="M 2597 0 
L 2597 488 
Q 2209 -75 1544 -75 
Q 1250 -75 995 37 
Q 741 150 617 320 
Q 494 491 444 738 
Q 409 903 409 1263 
L 409 3319 
L 972 3319 
L 972 1478 
Q 972 1038 1006 884 
Q 1059 663 1231 536 
Q 1403 409 1656 409 
Q 1909 409 2131 539 
Q 2353 669 2445 892 
Q 2538 1116 2538 1541 
L 2538 3319 
L 3100 3319 
L 3100 0 
L 2597 0 
z
" transform="scale(0.015625)"/>
       <path id="ArialMT-63" d="M 2588 1216 
L 3141 1144 
Q 3050 572 2676 248 
Q 2303 -75 1759 -75 
Q 1078 -75 664 370 
Q 250 816 250 1647 
Q 250 2184 428 2587 
Q 606 2991 970 3192 
Q 1334 3394 1763 3394 
Q 2303 3394 2647 3120 
Q 2991 2847 3088 2344 
L 2541 2259 
Q 2463 2594 2264 2762 
Q 2066 2931 1784 2931 
Q 1359 2931 1093 2626 
Q 828 2322 828 1663 
Q 828 994 1084 691 
Q 1341 388 1753 388 
Q 2084 388 2306 591 
Q 2528 794 2588 1216 
z
" transform="scale(0.015625)"/>
       <path id="ArialMT-79" d="M 397 -1278 
L 334 -750 
Q 519 -800 656 -800 
Q 844 -800 956 -737 
Q 1069 -675 1141 -563 
Q 1194 -478 1313 -144 
Q 1328 -97 1363 -6 
L 103 3319 
L 709 3319 
L 1400 1397 
Q 1534 1031 1641 628 
Q 1738 1016 1872 1384 
L 2581 3319 
L 3144 3319 
L 1881 -56 
Q 1678 -603 1566 -809 
Q 1416 -1088 1222 -1217 
Q 1028 -1347 759 -1347 
Q 597 -1347 397 -1278 
z
" transform="scale(0.015625)"/>
      </defs>
      <use xlink:href="#ArialMT-46"/>
      <use xlink:href="#ArialMT-72" transform="translate(61.083984 0)"/>
      <use xlink:href="#ArialMT-65" transform="translate(94.384766 0)"/>
      <use xlink:href="#ArialMT-71" transform="translate(150 0)"/>
      <use xlink:href="#ArialMT-75" transform="translate(205.615234 0)"/>
      <use xlink:href="#ArialMT-65" transform="translate(261.230469 0)"/>
      <use xlink:href="#ArialMT-6e" transform="translate(316.845703 0)"/>
      <use xlink:href="#ArialMT-63" transform="translate(372.460938 0)"/>
      <use xlink:href="#ArialMT-79" transform="translate(422.460938 0)"/>
     </g>
    </g>
   </g>
   <g id="patch_29">
    <path d="M 52.48 234.792283 
L 52.48 24.214983 
" style="fill: none; stroke: #cccccc; stroke-width: 0.8; stroke-linejoin: miter; stroke-linecap: square"/>
   </g>
   <g id="patch_30">
    <path d="M 237.95 234.792283 
L 237.95 24.214983 
" style="fill: none; stroke: #cccccc; stroke-width: 0.8; stroke-linejoin: miter; stroke-linecap: square"/>
   </g>
   <g id="patch_31">
    <path d="M 52.48 234.792283 
L 237.95 234.792283 
" style="fill: none; stroke: #cccccc; stroke-width: 0.8; stroke-linejoin: miter; stroke-linecap: square"/>
   </g>
   <g id="patch_32">
    <path d="M 52.48 24.214983 
L 237.95 24.214983 
" style="fill: none; stroke: #cccccc; stroke-width: 0.8; stroke-linejoin: miter; stroke-linecap: square"/>
   </g>
   <g id="text_16">
    <!-- 18 -->
    <g style="fill: #000080; opacity: 0.6" transform="translate(57.370695 17.220937) scale(0.14 -0.14)">
     <defs>
      <path id="Arial-ItalicMT-31" d="M 1541 0 
L 2266 3459 
Q 1797 3091 947 2869 
L 1053 3381 
Q 1475 3550 1886 3822 
Q 2297 4094 2503 4297 
Q 2628 4422 2741 4600 
L 3069 4600 
L 2109 0 
L 1541 0 
z
" transform="scale(0.015625)"/>
      <path id="Arial-ItalicMT-38" d="M 1444 2519 
Q 1188 2659 1059 2879 
Q 931 3100 931 3353 
Q 931 3769 1231 4122 
Q 1631 4600 2316 4600 
Q 2919 4600 3266 4276 
Q 3613 3953 3613 3484 
Q 3613 3150 3425 2881 
Q 3238 2613 2838 2453 
Q 3113 2281 3231 2088 
Q 3384 1834 3384 1497 
Q 3384 881 2948 400 
Q 2513 -81 1788 -81 
Q 1209 -81 843 275 
Q 478 631 478 1166 
Q 478 1669 737 2030 
Q 997 2391 1444 2519 
z
M 1488 3328 
Q 1488 3034 1677 2854 
Q 1866 2675 2197 2675 
Q 2584 2675 2826 2911 
Q 3069 3147 3069 3491 
Q 3069 3781 2880 3964 
Q 2691 4147 2359 4147 
Q 2109 4147 1900 4031 
Q 1691 3916 1589 3717 
Q 1488 3519 1488 3328 
z
M 1047 1119 
Q 1047 928 1139 753 
Q 1231 578 1418 475 
Q 1606 372 1847 372 
Q 2306 372 2591 803 
Q 2816 1141 2816 1531 
Q 2816 1850 2608 2053 
Q 2400 2256 2063 2256 
Q 1638 2256 1342 1940 
Q 1047 1625 1047 1119 
z
" transform="scale(0.015625)"/>
     </defs>
     <use xlink:href="#Arial-ItalicMT-31"/>
     <use xlink:href="#Arial-ItalicMT-38" transform="translate(55.615234 0)"/>
    </g>
   </g>
   <g id="text_17">
    <!-- 18 -->
    <g style="fill: #000080; opacity: 0.6" transform="translate(84.057026 17.220937) scale(0.14 -0.14)">
     <use xlink:href="#Arial-ItalicMT-31"/>
     <use xlink:href="#Arial-ItalicMT-38" transform="translate(55.615234 0)"/>
    </g>
   </g>
   <g id="text_18">
    <!-- 17 -->
    <g style="fill: #000080; opacity: 0.6" transform="translate(110.743357 17.220937) scale(0.14 -0.14)">
     <defs>
      <path id="Arial-ItalicMT-37" d="M 928 0 
Q 1003 463 1247 1113 
Q 1538 1897 2009 2670 
Q 2481 3444 3059 4000 
L 775 4000 
L 884 4519 
L 3809 4519 
L 3703 4000 
Q 2959 3347 2403 2316 
Q 1756 1125 1519 0 
L 928 0 
z
" transform="scale(0.015625)"/>
     </defs>
     <use xlink:href="#Arial-ItalicMT-31"/>
     <use xlink:href="#Arial-ItalicMT-37" transform="translate(55.615234 0)"/>
    </g>
   </g>
   <g id="text_19">
    <!-- 16 -->
    <g style="fill: #000080; opacity: 0.6" transform="translate(137.429688 17.220937) scale(0.14 -0.14)">
     <defs>
      <path id="Arial-ItalicMT-36" d="M 1288 2656 
Q 1525 2853 1761 2951 
Q 1997 3050 2228 3050 
Q 2750 3050 3090 2694 
Q 3431 2338 3431 1734 
Q 3431 956 2925 400 
Q 2488 -78 1863 -78 
Q 1294 -78 914 339 
Q 534 756 534 1528 
Q 534 2219 778 2956 
Q 966 3522 1242 3889 
Q 1519 4256 1830 4428 
Q 2141 4600 2531 4600 
Q 3000 4600 3297 4308 
Q 3594 4016 3634 3472 
L 3109 3422 
Q 3066 3794 2898 3959 
Q 2731 4125 2491 4125 
Q 2238 4125 1981 3928 
Q 1725 3731 1540 3345 
Q 1356 2959 1288 2656 
z
M 1091 1288 
Q 1091 900 1331 636 
Q 1572 372 1875 372 
Q 2088 372 2325 533 
Q 2563 694 2728 1022 
Q 2894 1350 2894 1675 
Q 2894 2094 2664 2345 
Q 2434 2597 2109 2597 
Q 1734 2597 1412 2230 
Q 1091 1863 1091 1288 
z
" transform="scale(0.015625)"/>
     </defs>
     <use xlink:href="#Arial-ItalicMT-31"/>
     <use xlink:href="#Arial-ItalicMT-36" transform="translate(55.615234 0)"/>
    </g>
   </g>
   <g id="text_20">
    <!-- 14 -->
    <g style="fill: #000080; opacity: 0.6" transform="translate(164.116018 17.220937) scale(0.14 -0.14)">
     <defs>
      <path id="Arial-ItalicMT-34" d="M 1913 0 
L 2159 1169 
L 291 1169 
L 409 1728 
L 2975 4581 
L 3438 4581 
L 2828 1669 
L 3472 1669 
L 3369 1169 
L 2725 1169 
L 2478 0 
L 1913 0 
z
M 2263 1669 
L 2663 3581 
L 956 1669 
L 2263 1669 
z
" transform="scale(0.015625)"/>
     </defs>
     <use xlink:href="#Arial-ItalicMT-31"/>
     <use xlink:href="#Arial-ItalicMT-34" transform="translate(55.615234 0)"/>
    </g>
   </g>
   <g id="text_21">
    <!-- 11 -->
    <g style="fill: #000080; opacity: 0.6" transform="translate(191.318599 17.220937) scale(0.14 -0.14)">
     <use xlink:href="#Arial-ItalicMT-31"/>
     <use xlink:href="#Arial-ItalicMT-31" transform="translate(48.240234 0)"/>
    </g>
   </g>
   <g id="text_22">
    <!-- 2 -->
    <g style="fill: #000080; opacity: 0.6" transform="translate(221.381337 17.220937) scale(0.14 -0.14)">
     <defs>
      <path id="Arial-ItalicMT-32" d="M 375 0 
Q 463 409 617 686 
Q 772 963 1028 1211 
Q 1284 1459 2016 2044 
Q 2459 2397 2622 2566 
Q 2856 2809 2963 3044 
Q 3034 3203 3034 3391 
Q 3034 3706 2811 3926 
Q 2588 4147 2263 4147 
Q 1941 4147 1700 3923 
Q 1459 3700 1356 3206 
L 803 3288 
Q 884 3897 1276 4248 
Q 1669 4600 2253 4600 
Q 2644 4600 2961 4437 
Q 3278 4275 3437 3981 
Q 3597 3688 3597 3375 
Q 3597 2919 3272 2497 
Q 3072 2234 2097 1463 
Q 1678 1131 1473 918 
Q 1269 706 1166 519 
L 3216 519 
L 3106 0 
L 375 0 
z
" transform="scale(0.015625)"/>
     </defs>
     <use xlink:href="#Arial-ItalicMT-32"/>
    </g>
   </g>
  </g>
 </g>
 <defs>
  <clipPath id="p67e89dac14">
   <rect x="52.48" y="24.214983" width="185.47" height="210.5773"/>
  </clipPath>
 </defs>
</svg>
