<?xml version="1.0" encoding="utf-8" standalone="no"?>
<!DOCTYPE svg PUBLIC "-//W3C//DTD SVG 1.1//EN"
  "http://www.w3.org/Graphics/SVG/1.1/DTD/svg11.dtd">
<svg xmlns:xlink="http://www.w3.org/1999/xlink" width="388.987813pt" height="280.800454pt" viewBox="0 0 388.987813 280.800454" xmlns="http://www.w3.org/2000/svg" version="1.1">
 <metadata>
  <rdf:RDF xmlns:dc="http://purl.org/dc/elements/1.1/" xmlns:cc="http://creativecommons.org/ns#" xmlns:rdf="http://www.w3.org/1999/02/22-rdf-syntax-ns#">
   <cc:Work>
    <dc:type rdf:resource="http://purl.org/dc/dcmitype/StillImage"/>
    <dc:date>2025-05-09T14:59:10.830588</dc:date>
    <dc:format>image/svg+xml</dc:format>
    <dc:creator>
     <cc:Agent>
      <dc:title>Matplotlib v3.10.1, https://matplotlib.org/</dc:title>
     </cc:Agent>
    </dc:creator>
   </cc:Work>
  </rdf:RDF>
 </metadata>
 <defs>
  <style type="text/css">*{stroke-linejoin: round; stroke-linecap: butt}</style>
 </defs>
 <g id="figure_1">
  <g id="patch_1">
   <path d="M 0 280.800454 
L 388.987813 280.800454 
L 388.987813 0 
L 0 0 
z
" style="fill: #ffffff"/>
  </g>
  <g id="axes_1">
   <g id="patch_2">
    <path d="M 40.617813 234.772017 
L 381.787813 234.772017 
L 381.787813 24.477373 
L 40.617813 24.477373 
z
" style="fill: #ffffff"/>
   </g>
   <g id="line2d_1">
    <path d="M 40.617813 234.772017 
L 381.787813 234.772017 
" clip-path="url(#p9ca8bb38e2)" style="fill: none; stroke: #000000; stroke-width: 0.5; stroke-linecap: round"/>
   </g>
   <g id="patch_3">
    <path d="M 65.465514 231.829676 
Q 67.652112 232.517166 70.217036 232.924566 
L 68.030438 234.772017 
Q 66.690266 234.596608 65.407804 234.288228 
Q 65.125662 234.225986 61.457821 233.136754 
Q 58.572281 233.694102 55.064747 233.694102 
Q 48.293348 233.694102 44.452374 231.934356 
Q 40.617813 230.17461 40.617813 226.99179 
Q 40.617813 223.817458 44.465199 222.054883 
Q 48.312585 220.292308 54.90444 220.292308 
Q 61.438584 220.292308 65.266733 222.054883 
Q 69.094882 223.817458 69.094882 226.99179 
Q 69.094882 228.672319 68.030438 229.945447 
Q 67.2289 230.918683 65.465514 231.829676 
z
M 60.694756 230.352848 
Q 61.842559 229.758722 62.413255 228.921286 
Q 62.98395 228.081022 62.98395 226.99179 
Q 62.98395 224.748256 60.739642 223.63922 
Q 58.495333 222.527355 54.865966 222.527355 
Q 51.236598 222.527355 48.979465 223.642049 
Q 46.728744 224.756744 46.728744 226.99179 
Q 46.728744 229.263616 48.979465 230.392456 
Q 51.236598 231.518467 54.686421 231.518467 
Q 55.968883 231.518467 57.110274 231.334571 
Q 55.308415 230.811174 53.442433 230.519769 
L 55.109633 229.025966 
Q 58.033647 229.467317 60.694756 230.352848 
z
" clip-path="url(#p9ca8bb38e2)" style="fill: #0000ff"/>
   </g>
   <g id="patch_4">
    <path d="M 40.617813 205.8126 
L 54.742436 205.8126 
Q 58.938937 205.8126 60.998618 205.954837 
Q 63.058298 206.097074 64.685985 206.552231 
Q 66.313672 207.007389 67.393654 207.762825 
Q 68.481351 208.51826 68.481351 209.457023 
Q 68.481351 210.474807 67.139087 211.325067 
Q 65.804538 212.172166 63.521147 212.598877 
Q 66.745665 212.981336 68.481351 213.910616 
Q 70.217036 214.839897 70.217036 216.094742 
Q 70.217036 217.080917 69.098483 218.016519 
Q 67.97993 218.94896 66.035963 219.508425 
Q 64.099709 220.064729 61.253185 220.194323 
Q 59.471214 220.273343 52.644185 220.292308 
L 40.617813 220.292308 
L 40.617813 205.8126 
z
M 47.753409 208.221143 
L 47.753409 211.571611 
L 52.428188 211.571611 
Q 56.601548 211.571611 57.612102 211.521038 
Q 59.440358 211.432535 60.489483 211.002663 
Q 61.538609 210.572792 61.538609 209.871091 
Q 61.538609 209.200997 60.636052 208.780608 
Q 59.733496 208.360219 57.951525 208.271716 
Q 56.886971 208.221143 51.849626 208.221143 
L 47.753409 208.221143 
z
M 47.753409 213.980154 
L 47.753409 217.852157 
L 54.356728 217.852157 
Q 58.213807 217.852157 59.247504 217.763654 
Q 60.844334 217.643543 61.839461 217.185224 
Q 62.842301 216.726905 62.842301 215.955666 
Q 62.842301 215.304537 62.070886 214.849379 
Q 61.29947 214.394221 59.841494 214.188768 
Q 58.383518 213.980154 53.515884 213.980154 
L 47.753409 213.980154 
z
" clip-path="url(#p9ca8bb38e2)" style="fill: #ffd700"/>
   </g>
   <g id="patch_5">
    <path d="M 51.488136 205.8126 
L 51.488136 61.015516 
L 59.346713 61.015516 
L 59.346713 205.8126 
L 51.488136 205.8126 
z
" clip-path="url(#p9ca8bb38e2)" style="fill: #add8e6"/>
   </g>
   <g id="patch_6">
    <path d="M 87.600286 229.928065 
L 87.600286 227.805744 
L 101.374114 227.805744 
L 101.374114 232.82289 
Q 99.363992 233.595393 95.550976 234.183705 
Q 91.744868 234.772017 87.835146 234.772017 
Q 82.875462 234.772017 79.179877 233.944531 
Q 75.491199 233.114297 73.633044 231.57204 
Q 71.77489 230.029783 71.77489 228.218112 
Q 71.77489 226.249742 73.847181 224.72123 
Q 75.919472 223.192719 79.912086 222.37623 
Q 82.958354 221.74943 87.489764 221.74943 
Q 93.381978 221.74943 96.697644 222.733616 
Q 100.013309 223.715052 100.959656 225.449747 
L 94.618445 225.922596 
Q 93.948404 224.996142 92.097158 224.460064 
Q 90.252819 223.921236 87.489764 223.921236 
Q 83.303736 223.921236 80.830802 224.979648 
Q 78.357868 226.03531 78.357868 228.113646 
Q 78.357868 230.356928 80.858433 231.47857 
Q 83.365905 232.597462 87.427595 232.597462 
Q 89.437717 232.597462 91.454747 232.284062 
Q 93.471777 231.970662 94.915473 231.525305 
L 94.915473 229.928065 
L 87.600286 229.928065 
z
" clip-path="url(#p9ca8bb38e2)" style="fill: #ff69b4"/>
   </g>
   <g id="patch_7">
    <path d="M 82.825809 221.74943 
L 82.825809 210.929967 
L 71.77489 210.929967 
L 71.77489 208.726844 
L 101.374114 208.726844 
L 101.374114 210.929967 
L 90.34759 210.929967 
L 90.34759 221.74943 
L 82.825809 221.74943 
z
" clip-path="url(#p9ca8bb38e2)" style="fill: #a0522d"/>
   </g>
   <g id="patch_8">
    <path d="M 71.77489 195.704258 
L 85.899513 195.704258 
Q 90.096015 195.704258 92.155695 195.832182 
Q 94.215375 195.960105 95.843063 196.369459 
Q 97.47075 196.778814 98.550732 197.458228 
Q 99.638428 198.137643 99.638428 198.981936 
Q 99.638428 199.897298 98.296165 200.661995 
Q 96.961616 201.423849 94.678225 201.807618 
Q 97.902743 202.15159 99.638428 202.987355 
Q 101.374114 203.82312 101.374114 204.951687 
Q 101.374114 205.838622 100.255561 206.680073 
Q 99.137008 207.51868 97.19304 208.021845 
Q 95.256787 208.522167 92.410262 208.63872 
Q 90.628292 208.709788 83.801262 208.726844 
L 71.77489 208.726844 
L 71.77489 195.704258 
z
M 78.910486 197.870425 
L 78.910486 200.883728 
L 83.585266 200.883728 
Q 87.758625 200.883728 88.76918 200.838244 
Q 90.597435 200.758648 91.646561 200.372035 
Q 92.695686 199.985423 92.695686 199.354335 
Q 92.695686 198.751674 91.79313 198.37359 
Q 90.890573 197.995506 89.108603 197.915909 
Q 88.044049 197.870425 83.006704 197.870425 
L 78.910486 197.870425 
z
M 78.910486 203.049895 
L 78.910486 206.53225 
L 85.513805 206.53225 
Q 89.370884 206.53225 90.404581 206.452653 
Q 92.001412 206.344629 92.996538 205.932432 
Q 93.999379 205.520235 93.999379 204.826607 
Q 93.999379 204.241003 93.227963 203.831648 
Q 92.456547 203.422294 90.998572 203.237516 
Q 89.540596 203.049895 84.672962 203.049895 
L 78.910486 203.049895 
z
" clip-path="url(#p9ca8bb38e2)" style="fill: #ffd700"/>
   </g>
   <g id="patch_9">
    <path d="M 71.77489 195.704258 
L 82.658286 134.531364 
L 72.796512 78.500984 
L 80.309252 78.500984 
L 86.696124 116.161586 
L 92.950949 78.500984 
L 100.401141 78.500984 
L 90.497667 135.426827 
L 101.374114 195.704258 
L 93.62508 195.704258 
L 86.564077 155.178175 
L 79.482225 195.704258 
L 71.77489 195.704258 
z
" clip-path="url(#p9ca8bb38e2)" style="fill: #bdb76b"/>
   </g>
   <g id="patch_10">
    <path d="M 113.982887 234.772017 
L 113.982887 222.741942 
L 102.931968 222.741942 
L 102.931968 220.292308 
L 132.531191 220.292308 
L 132.531191 222.741942 
L 121.504667 222.741942 
L 121.504667 234.772017 
L 113.982887 234.772017 
z
" clip-path="url(#p9ca8bb38e2)" style="fill: #a0522d"/>
   </g>
   <g id="patch_11">
    <path d="M 102.931968 220.292308 
L 102.931968 205.8126 
L 112.196358 205.8126 
L 117.754991 215.690157 
L 123.253424 205.8126 
L 132.531191 205.8126 
L 132.531191 220.292308 
L 126.785263 220.292308 
L 126.785263 208.894398 
L 120.698191 220.292308 
L 114.744901 220.292308 
L 108.684585 208.894398 
L 108.684585 220.292308 
L 102.931968 220.292308 
z
" clip-path="url(#p9ca8bb38e2)" style="fill: #ff8c00"/>
   </g>
   <g id="patch_12">
    <path d="M 127.77967 176.389199 
Q 129.966267 183.26409 132.531191 187.338099 
L 130.344594 205.8126 
Q 129.004421 204.058513 127.721959 200.974714 
Q 127.439817 200.352296 123.771976 189.459979 
Q 120.886436 195.03345 117.378903 195.03345 
Q 110.607503 195.03345 106.766529 177.435993 
Q 102.931968 159.838536 102.931968 128.010337 
Q 102.931968 96.267014 106.779354 78.641265 
Q 110.62674 61.015516 117.218595 61.015516 
Q 123.752739 61.015516 127.580888 78.641265 
Q 131.409037 96.267014 131.409037 128.010337 
Q 131.409037 144.815626 130.344594 157.546905 
Q 129.543055 167.279261 127.77967 176.389199 
z
M 123.008911 161.620915 
Q 124.156714 155.679651 124.72741 147.305299 
Q 125.298106 138.902654 125.298106 128.010337 
Q 125.298106 105.574994 123.053797 94.484635 
Q 120.809489 83.365985 117.180121 83.365985 
Q 113.550753 83.365985 111.29362 94.512927 
Q 109.042899 105.659869 109.042899 128.010337 
Q 109.042899 150.728598 111.29362 162.016999 
Q 113.550753 173.277108 117.000576 173.277108 
Q 118.283038 173.277108 119.42443 171.438146 
Q 117.62257 166.204175 115.756588 163.290127 
L 117.423789 148.352093 
Q 120.347802 152.765603 123.008911 161.620915 
z
" clip-path="url(#p9ca8bb38e2)" style="fill: #0000ff"/>
   </g>
   <g id="patch_13">
    <path d="M 158.936747 231.829676 
Q 161.123345 232.517166 163.688269 232.924566 
L 161.501671 234.772017 
Q 160.161499 234.596608 158.879036 234.288228 
Q 158.596895 234.225986 154.929053 233.136754 
Q 152.043514 233.694102 148.53598 233.694102 
Q 141.764581 233.694102 137.923607 231.934356 
Q 134.089045 230.17461 134.089045 226.99179 
Q 134.089045 223.817458 137.936431 222.054883 
Q 141.783818 220.292308 148.375672 220.292308 
Q 154.909816 220.292308 158.737966 222.054883 
Q 162.566115 223.817458 162.566115 226.99179 
Q 162.566115 228.672319 161.501671 229.945447 
Q 160.700133 230.918683 158.936747 231.829676 
z
M 154.165989 230.352848 
Q 155.313792 229.758722 155.884488 228.921286 
Q 156.455183 228.081022 156.455183 226.99179 
Q 156.455183 224.748256 154.210875 223.63922 
Q 151.966566 222.527355 148.337199 222.527355 
Q 144.707831 222.527355 142.450698 223.642049 
Q 140.199977 224.756744 140.199977 226.99179 
Q 140.199977 229.263616 142.450698 230.392456 
Q 144.707831 231.518467 148.157654 231.518467 
Q 149.440116 231.518467 150.581507 231.334571 
Q 148.779648 230.811174 146.913666 230.519769 
L 148.580866 229.025966 
Q 151.50488 229.467317 154.165989 230.352848 
z
" clip-path="url(#p9ca8bb38e2)" style="fill: #0000ff"/>
   </g>
   <g id="patch_14">
    <path d="M 157.035675 214.906358 
L 163.688269 215.774468 
Q 162.160472 218.067012 158.600555 219.17966 
Q 155.040638 220.292308 149.574683 220.292308 
Q 142.803425 220.292308 138.442527 218.387968 
Q 134.089045 216.480572 134.089045 213.176251 
Q 134.089045 209.679358 138.464776 207.747507 
Q 142.847924 205.8126 149.990006 205.8126 
Q 156.227277 205.8126 160.120936 207.328736 
Q 162.434882 208.227413 163.591855 209.908612 
L 156.805764 210.578035 
Q 156.197611 209.489841 154.284156 208.860155 
Q 152.378117 208.227413 149.641431 208.227413 
Q 145.866436 208.227413 143.507992 209.346174 
Q 141.156963 210.461879 141.156963 212.965337 
Q 141.156963 215.621632 143.470909 216.749563 
Q 145.792271 217.874438 149.500518 217.874438 
Q 152.237204 217.874438 154.202575 217.159165 
Q 156.175362 216.443891 157.035675 214.906358 
z
" clip-path="url(#p9ca8bb38e2)" style="fill: #00ff7f"/>
   </g>
   <g id="patch_15">
    <path d="M 145.139964 205.8126 
L 145.139964 85.511858 
L 134.089045 85.511858 
L 134.089045 61.015516 
L 163.688269 61.015516 
L 163.688269 85.511858 
L 152.661745 85.511858 
L 152.661745 205.8126 
L 145.139964 205.8126 
z
" clip-path="url(#p9ca8bb38e2)" style="fill: #a0522d"/>
   </g>
   <g id="patch_16">
    <path d="M 184.667428 221.128051 
L 192.500517 221.128051 
L 192.500517 229.620753 
Q 192.500517 231.284151 191.650941 232.183207 
Q 190.504014 233.354614 187.505011 234.063315 
Q 184.506008 234.772017 179.59546 234.772017 
Q 173.835335 234.772017 170.725887 233.662108 
Q 167.624935 232.549271 167.590952 230.39681 
L 174.999254 230.103959 
Q 175.135186 231.257795 175.984762 231.735143 
Q 177.259126 232.455559 179.858828 232.455559 
Q 182.492513 232.455559 183.579971 231.94014 
Q 184.667428 231.421792 184.667428 229.793536 
L 184.667428 221.128051 
z
" clip-path="url(#p9ca8bb38e2)" style="fill: #7b68ee"/>
   </g>
   <g id="patch_17">
    <path d="M 176.297042 221.128051 
L 176.297042 198.45661 
L 165.246123 198.45661 
L 165.246123 193.840119 
L 194.845347 193.840119 
L 194.845347 198.45661 
L 183.818823 198.45661 
L 183.818823 221.128051 
L 176.297042 221.128051 
z
" clip-path="url(#p9ca8bb38e2)" style="fill: #a0522d"/>
   </g>
   <g id="patch_18">
    <path d="M 190.093825 168.887496 
Q 192.280423 174.717772 194.845347 178.172751 
L 192.658749 193.840119 
Q 191.318576 192.352558 190.036114 189.737332 
Q 189.753972 189.209488 186.086131 179.972219 
Q 183.200591 184.698821 179.693058 184.698821 
Q 172.921658 184.698821 169.080684 169.775234 
Q 165.246123 154.851646 165.246123 127.859626 
Q 165.246123 100.939586 169.093509 85.992005 
Q 172.940895 71.044424 179.53275 71.044424 
Q 186.066894 71.044424 189.895043 85.992005 
Q 193.723192 100.939586 193.723192 127.859626 
Q 193.723192 142.111413 192.658749 152.90822 
Q 191.85721 161.16178 190.093825 168.887496 
z
M 185.323066 156.363199 
Q 186.47087 151.324689 187.041565 144.222788 
Q 187.612261 137.096895 187.612261 127.859626 
Q 187.612261 108.833252 185.367952 99.428032 
Q 183.123644 89.99882 179.494276 89.99882 
Q 175.864909 89.99882 173.607775 99.452025 
Q 171.357055 108.90523 171.357055 127.859626 
Q 171.357055 147.12593 173.607775 156.6991 
Q 175.864909 166.248276 179.314732 166.248276 
Q 180.597194 166.248276 181.738585 164.688737 
Q 179.936726 160.25005 178.070743 157.77878 
L 179.737944 145.110526 
Q 182.661957 148.853419 185.323066 156.363199 
z
" clip-path="url(#p9ca8bb38e2)" style="fill: #0000ff"/>
   </g>
   <g id="patch_19">
    <path d="M 196.403201 234.772017 
L 207.286597 228.766024 
L 197.424822 223.264927 
L 204.937562 223.264927 
L 211.324434 226.962468 
L 217.57926 223.264927 
L 225.029452 223.264927 
L 215.125978 228.853941 
L 226.002424 234.772017 
L 218.253391 234.772017 
L 211.192388 230.793141 
L 204.110535 234.772017 
L 196.403201 234.772017 
z
" clip-path="url(#p9ca8bb38e2)" style="fill: #bdb76b"/>
   </g>
   <g id="patch_20">
    <path d="M 215.824505 200.250747 
L 223.657595 200.250747 
L 223.657595 214.57595 
Q 223.657595 217.381714 222.808019 218.89821 
Q 221.661092 220.8741 218.662089 222.069513 
Q 215.663086 223.264927 210.752537 223.264927 
Q 204.992413 223.264927 201.882965 221.392771 
Q 198.782013 219.515675 198.74803 215.884977 
L 206.156332 215.391005 
Q 206.292264 217.337256 207.14184 218.142432 
Q 208.416204 219.357604 211.015906 219.357604 
Q 213.649591 219.357604 214.737048 218.488212 
Q 215.824505 217.613881 215.824505 214.867394 
L 215.824505 200.250747 
z
" clip-path="url(#p9ca8bb38e2)" style="fill: #7b68ee"/>
   </g>
   <g id="patch_21">
    <path d="M 207.273524 200.250747 
L 207.273524 177.236567 
L 215.132101 177.236567 
L 215.132101 200.250747 
L 207.273524 200.250747 
z
" clip-path="url(#p9ca8bb38e2)" style="fill: #add8e6"/>
   </g>
   <g id="patch_22">
    <path d="M 221.250903 160.86853 
Q 223.4375 164.692984 226.002424 166.959328 
L 223.815827 177.236567 
Q 222.475654 176.26078 221.193192 174.545284 
Q 220.91105 174.199037 217.243209 168.139715 
Q 214.357669 171.240199 210.850135 171.240199 
Q 204.078736 171.240199 200.237762 161.450854 
Q 196.403201 151.661509 196.403201 133.955699 
Q 196.403201 116.297105 200.250587 106.492021 
Q 204.097973 96.686937 210.689828 96.686937 
Q 217.223972 96.686937 221.052121 106.492021 
Q 224.88027 116.297105 224.88027 133.955699 
Q 224.88027 143.304366 223.815827 150.38669 
Q 223.014288 155.800733 221.250903 160.86853 
z
M 216.480144 152.653034 
Q 217.627947 149.347949 218.198643 144.689354 
Q 218.769339 140.015021 218.769339 133.955699 
Q 218.769339 121.475071 216.52503 115.30558 
Q 214.280721 109.12035 210.651354 109.12035 
Q 207.021986 109.12035 204.764853 115.321318 
Q 202.514132 121.522286 202.514132 133.955699 
Q 202.514132 146.593712 204.764853 152.873373 
Q 207.021986 159.137295 210.471809 159.137295 
Q 211.754271 159.137295 212.895662 158.114293 
Q 211.093803 155.20267 209.227821 153.581605 
L 210.895022 145.271679 
Q 213.819035 147.726884 216.480144 152.653034 
z
" clip-path="url(#p9ca8bb38e2)" style="fill: #0000ff"/>
   </g>
   <g id="patch_23">
    <path d="M 227.560278 234.772017 
L 238.443674 222.157347 
L 228.5819 210.603132 
L 236.09464 210.603132 
L 242.481512 218.369253 
L 248.736337 210.603132 
L 256.186529 210.603132 
L 246.283056 222.342003 
L 257.159502 234.772017 
L 249.410468 234.772017 
L 242.349465 226.414996 
L 235.267613 234.772017 
L 227.560278 234.772017 
z
" clip-path="url(#p9ca8bb38e2)" style="fill: #bdb76b"/>
   </g>
   <g id="patch_24">
    <path d="M 252.40798 200.780686 
Q 254.594578 203.075738 257.159502 204.435769 
L 254.972904 210.603132 
Q 253.632731 210.017563 252.350269 208.988095 
Q 252.068128 208.780313 248.400286 205.144119 
Q 245.514747 207.004717 242.007213 207.004717 
Q 235.235814 207.004717 231.39484 201.130138 
Q 227.560278 195.25556 227.560278 184.630318 
Q 227.560278 174.03341 231.407664 168.149387 
Q 235.25505 162.265363 241.846905 162.265363 
Q 248.381049 162.265363 252.209199 168.149387 
Q 256.037348 174.03341 256.037348 184.630318 
Q 256.037348 190.240446 254.972904 194.490543 
Q 254.171365 197.739506 252.40798 200.780686 
z
M 247.637221 195.850574 
Q 248.785025 193.867195 249.355721 191.071576 
Q 249.926416 188.266512 249.926416 184.630318 
Q 249.926416 177.140703 247.682108 173.438396 
Q 245.437799 169.726645 241.808431 169.726645 
Q 238.179064 169.726645 235.921931 173.447841 
Q 233.67121 177.169037 233.67121 184.630318 
Q 233.67121 192.21438 235.921931 195.982799 
Q 238.179064 199.741773 241.628887 199.741773 
Q 242.911349 199.741773 244.05274 199.127871 
Q 242.250881 197.380609 240.384899 196.407809 
L 242.052099 191.421028 
Q 244.976113 192.894395 247.637221 195.850574 
z
" clip-path="url(#p9ca8bb38e2)" style="fill: #0000ff"/>
   </g>
   <g id="patch_25">
    <path d="M 238.611197 162.265363 
L 238.611197 102.025171 
L 227.560278 102.025171 
L 227.560278 89.75871 
L 257.159502 89.75871 
L 257.159502 102.025171 
L 246.132978 102.025171 
L 246.132978 162.265363 
L 238.611197 162.265363 
z
" clip-path="url(#p9ca8bb38e2)" style="fill: #a0522d"/>
   </g>
   <g id="patch_26">
    <path d="M 274.542752 229.105626 
L 274.542752 226.622962 
L 288.31658 226.622962 
L 288.31658 232.491953 
Q 286.306457 233.395617 282.493442 234.083817 
Q 278.687334 234.772017 274.777611 234.772017 
Q 269.817928 234.772017 266.122343 233.804035 
Q 262.433664 232.832837 260.57551 231.028725 
Q 258.717356 229.224613 258.717356 227.105345 
Q 258.717356 224.80277 260.789647 223.014738 
Q 262.861938 221.226705 266.854552 220.271587 
Q 269.90082 219.538365 274.43223 219.538365 
Q 280.324444 219.538365 283.64011 220.689652 
Q 286.955775 221.837723 287.902121 223.866947 
L 281.560911 224.42008 
Q 280.89087 223.336326 279.039623 222.709229 
Q 277.195284 222.078915 274.43223 222.078915 
Q 270.246202 222.078915 267.773268 223.317031 
Q 265.300334 224.551931 265.300334 226.983141 
Q 265.300334 229.607304 267.800898 230.919385 
Q 270.30837 232.228251 274.370061 232.228251 
Q 276.380183 232.228251 278.397213 231.86164 
Q 280.414243 231.495029 281.857939 230.974055 
L 281.857939 229.105626 
L 274.542752 229.105626 
z
" clip-path="url(#p9ca8bb38e2)" style="fill: #ff69b4"/>
   </g>
   <g id="patch_27">
    <path d="M 269.768275 219.538365 
L 269.768275 181.568962 
L 258.717356 181.568962 
L 258.717356 173.83741 
L 288.31658 173.83741 
L 288.31658 181.568962 
L 277.290056 181.568962 
L 277.290056 219.538365 
L 269.768275 219.538365 
z
" clip-path="url(#p9ca8bb38e2)" style="fill: #a0522d"/>
   </g>
   <g id="patch_28">
    <path d="M 283.565058 155.264142 
Q 285.751656 159.603858 288.31658 162.175541 
L 286.129982 173.83741 
Q 284.789809 172.730158 283.507347 170.783536 
Q 283.225205 170.39064 279.557364 163.514959 
Q 276.671824 167.033165 273.164291 167.033165 
Q 266.392891 167.033165 262.551917 155.924922 
Q 258.717356 144.816679 258.717356 124.725404 
Q 258.717356 104.687705 262.564742 93.561603 
Q 266.412128 82.435501 273.003983 82.435501 
Q 279.538127 82.435501 283.366276 93.561603 
Q 287.194425 104.687705 287.194425 124.725404 
Q 287.194425 135.333597 286.129982 143.370107 
Q 285.328443 149.513573 283.565058 155.264142 
z
M 278.794299 145.941791 
Q 279.942103 142.191419 280.512798 136.905181 
Q 281.083494 131.601085 281.083494 124.725404 
Q 281.083494 110.563287 278.839185 103.562593 
Q 276.594877 96.544041 272.965509 96.544041 
Q 269.336142 96.544041 267.079008 103.580452 
Q 264.828287 110.616863 264.828287 124.725404 
Q 264.828287 139.06611 267.079008 146.191815 
Q 269.336142 153.299662 272.785964 153.299662 
Q 274.068426 153.299662 275.209818 152.138833 
Q 273.407958 148.834934 271.541976 146.995466 
L 273.209177 137.565961 
Q 276.13319 140.351951 278.794299 145.941791 
z
" clip-path="url(#p9ca8bb38e2)" style="fill: #0000ff"/>
   </g>
   <g id="patch_29">
    <path d="M 289.874434 227.891956 
L 297.025924 227.511189 
Q 297.677504 229.493802 299.648137 230.426024 
Q 301.61877 231.353869 304.972024 231.353869 
Q 308.523931 231.353869 310.31975 230.526687 
Q 312.123514 229.699504 312.123514 228.592217 
Q 312.123514 227.878826 311.368635 227.37989 
Q 310.613755 226.880955 308.722583 226.513318 
Q 307.435315 226.26385 302.842469 225.637992 
Q 296.930571 224.828316 294.546741 223.655379 
Q 291.193486 221.996637 291.193486 219.620128 
Q 291.193486 218.088307 292.766814 216.753436 
Q 294.348088 215.418564 297.311983 214.72268 
Q 300.283825 214.026796 304.479366 214.026796 
Q 311.328904 214.026796 314.793404 215.681162 
Q 318.257904 217.335527 318.432718 220.09718 
L 311.082575 220.276622 
Q 310.613755 218.731672 309.05632 218.053294 
Q 307.50683 217.374917 304.399905 217.374917 
Q 301.197626 217.374917 299.385916 218.101437 
Q 298.217839 218.56536 298.217839 219.3444 
Q 298.217839 220.05779 299.314401 220.561103 
Q 300.704968 221.204467 306.068586 221.904728 
Q 311.432204 222.600612 313.998794 223.349015 
Q 316.573331 224.093042 318.019521 225.384148 
Q 319.473657 226.675253 319.473657 228.579087 
Q 319.473657 230.299102 317.733461 231.804662 
Q 316.001211 233.310223 312.822771 234.04112 
Q 309.644331 234.772017 304.900509 234.772017 
Q 297.995348 234.772017 294.292465 233.016988 
Q 290.597529 231.257584 289.874434 227.891956 
z
" clip-path="url(#p9ca8bb38e2)" style="fill: #ffff00"/>
   </g>
   <g id="patch_30">
    <path d="M 295.260586 214.026796 
L 289.874434 193.281575 
L 294.536853 193.281575 
L 297.933969 207.532876 
L 302.059743 193.281575 
L 307.475436 193.281575 
L 311.428892 207.772888 
L 314.890012 193.281575 
L 319.473657 193.281575 
L 313.998884 214.026796 
L 309.169071 214.026796 
L 304.674045 198.516562 
L 300.198714 214.026796 
L 295.260586 214.026796 
z
" clip-path="url(#p9ca8bb38e2)" style="fill: #9acd32"/>
   </g>
   <g id="patch_31">
    <path d="M 314.722135 184.850536 
Q 316.908733 186.820481 319.473657 187.987855 
L 317.287059 193.281575 
Q 315.946887 192.778955 314.664425 191.895318 
Q 314.382283 191.716969 310.714442 188.595863 
Q 307.828902 190.192896 304.321368 190.192896 
Q 297.549969 190.192896 293.708995 185.150486 
Q 289.874434 180.108076 289.874434 170.987962 
Q 289.874434 161.892167 293.72182 156.841651 
Q 297.569206 151.791134 304.161061 151.791134 
Q 310.695205 151.791134 314.523354 156.841651 
Q 318.351503 161.892167 318.351503 170.987962 
Q 318.351503 175.803382 317.287059 179.451428 
Q 316.485521 182.240156 314.722135 184.850536 
z
M 309.951377 180.618803 
Q 311.09918 178.916381 311.669876 176.516778 
Q 312.240571 174.109068 312.240571 170.987962 
Q 312.240571 164.559294 309.996263 161.381441 
Q 307.751954 158.195481 304.122587 158.195481 
Q 300.493219 158.195481 298.236086 161.389548 
Q 295.985365 164.583614 295.985365 170.987962 
Q 295.985365 177.497697 298.236086 180.732297 
Q 300.493219 183.958791 303.943042 183.958791 
Q 305.225504 183.958791 306.366895 183.431851 
Q 304.565036 181.932099 302.699054 181.097102 
L 304.366254 176.816728 
Q 307.290268 178.081384 309.951377 180.618803 
z
" clip-path="url(#p9ca8bb38e2)" style="fill: #0000ff"/>
   </g>
   <g id="patch_32">
    <path d="M 300.925352 151.791134 
L 300.925352 117.319922 
L 289.874434 117.319922 
L 289.874434 110.300692 
L 319.473657 110.300692 
L 319.473657 117.319922 
L 308.447133 117.319922 
L 308.447133 151.791134 
L 300.925352 151.791134 
z
" clip-path="url(#p9ca8bb38e2)" style="fill: #a0522d"/>
   </g>
   <g id="patch_33">
    <path d="M 321.031511 130.845531 
Q 321.031511 99.769692 322.430214 78.682515 
Q 323.469251 63.144596 325.267584 50.803048 
Q 327.065916 38.461501 329.210595 32.512697 
Q 332.061285 24.477373 335.79116 24.477373 
Q 342.531577 24.477373 346.581156 52.35684 
Q 350.630735 80.236307 350.630735 129.913256 
Q 350.630735 179.146264 346.614459 206.981337 
Q 342.598182 234.772017 335.871086 234.772017 
Q 329.064064 234.772017 325.047787 207.11452 
Q 321.031511 179.412629 321.031511 130.845531 
z
M 327.378959 129.469316 
Q 327.378959 164.007891 329.770076 181.854302 
Q 332.167853 199.656318 335.851104 199.656318 
Q 339.534356 199.656318 341.898831 181.987484 
Q 344.263305 164.31865 344.263305 128.936587 
Q 344.263305 93.954071 341.958775 76.773571 
Q 339.660906 59.548677 335.851104 59.548677 
Q 332.041303 59.548677 329.710131 76.995541 
Q 327.378959 94.398011 327.378959 129.469316 
z
" clip-path="url(#p9ca8bb38e2)" style="fill: #006400"/>
   </g>
   <g id="patch_34">
    <path d="M 371.609893 24.477373 
L 379.442983 24.477373 
L 379.442983 155.37552 
Q 379.442983 181.013502 378.593407 194.87065 
Q 377.44648 212.925567 374.447477 223.848792 
Q 371.448474 234.772017 366.537925 234.772017 
Q 360.777801 234.772017 357.668353 217.664983 
Q 354.567401 200.512812 354.533418 167.336902 
L 361.94172 162.823173 
Q 362.077652 180.607266 362.927228 187.964645 
Q 364.201592 199.068419 366.801294 199.068419 
Q 369.434979 199.068419 370.522436 191.124255 
Q 371.609893 183.134954 371.609893 158.03862 
L 371.609893 24.477373 
z
" clip-path="url(#p9ca8bb38e2)" style="fill: #7b68ee"/>
   </g>
   <g id="matplotlib.axis_1">
    <g id="xtick_1">
     <g id="line2d_2">
      <path d="M 55.417424 234.772017 
L 55.417424 24.477373 
" clip-path="url(#p9ca8bb38e2)" style="fill: none; stroke: #cccccc; stroke-width: 0.8; stroke-linecap: round"/>
     </g>
     <g id="text_1">
      <!-- 0 -->
      <g style="fill: #262626" transform="translate(51.524768 251.792954) scale(0.14 -0.14)">
       <defs>
        <path id="ArialMT-30" d="M 266 2259 
Q 266 3072 433 3567 
Q 600 4063 929 4331 
Q 1259 4600 1759 4600 
Q 2128 4600 2406 4451 
Q 2684 4303 2865 4023 
Q 3047 3744 3150 3342 
Q 3253 2941 3253 2259 
Q 3253 1453 3087 958 
Q 2922 463 2592 192 
Q 2263 -78 1759 -78 
Q 1097 -78 719 397 
Q 266 969 266 2259 
z
M 844 2259 
Q 844 1131 1108 757 
Q 1372 384 1759 384 
Q 2147 384 2411 759 
Q 2675 1134 2675 2259 
Q 2675 3391 2411 3762 
Q 2147 4134 1753 4134 
Q 1366 4134 1134 3806 
Q 844 3388 844 2259 
z
" transform="scale(0.015625)"/>
       </defs>
       <use xlink:href="#ArialMT-30"/>
      </g>
     </g>
    </g>
    <g id="xtick_2">
     <g id="line2d_3">
      <path d="M 86.574502 234.772017 
L 86.574502 24.477373 
" clip-path="url(#p9ca8bb38e2)" style="fill: none; stroke: #cccccc; stroke-width: 0.8; stroke-linecap: round"/>
     </g>
     <g id="text_2">
      <!-- 1 -->
      <g style="fill: #262626" transform="translate(82.681846 251.792954) scale(0.14 -0.14)">
       <defs>
        <path id="ArialMT-31" d="M 2384 0 
L 1822 0 
L 1822 3584 
Q 1619 3391 1289 3197 
Q 959 3003 697 2906 
L 697 3450 
Q 1169 3672 1522 3987 
Q 1875 4303 2022 4600 
L 2384 4600 
L 2384 0 
z
" transform="scale(0.015625)"/>
       </defs>
       <use xlink:href="#ArialMT-31"/>
      </g>
     </g>
    </g>
    <g id="xtick_3">
     <g id="line2d_4">
      <path d="M 117.73158 234.772017 
L 117.73158 24.477373 
" clip-path="url(#p9ca8bb38e2)" style="fill: none; stroke: #cccccc; stroke-width: 0.8; stroke-linecap: round"/>
     </g>
     <g id="text_3">
      <!-- 2 -->
      <g style="fill: #262626" transform="translate(113.838923 251.792954) scale(0.14 -0.14)">
       <defs>
        <path id="ArialMT-32" d="M 3222 541 
L 3222 0 
L 194 0 
Q 188 203 259 391 
Q 375 700 629 1000 
Q 884 1300 1366 1694 
Q 2113 2306 2375 2664 
Q 2638 3022 2638 3341 
Q 2638 3675 2398 3904 
Q 2159 4134 1775 4134 
Q 1369 4134 1125 3890 
Q 881 3647 878 3216 
L 300 3275 
Q 359 3922 746 4261 
Q 1134 4600 1788 4600 
Q 2447 4600 2831 4234 
Q 3216 3869 3216 3328 
Q 3216 3053 3103 2787 
Q 2991 2522 2730 2228 
Q 2469 1934 1863 1422 
Q 1356 997 1212 845 
Q 1069 694 975 541 
L 3222 541 
z
" transform="scale(0.015625)"/>
       </defs>
       <use xlink:href="#ArialMT-32"/>
      </g>
     </g>
    </g>
    <g id="xtick_4">
     <g id="line2d_5">
      <path d="M 148.888657 234.772017 
L 148.888657 24.477373 
" clip-path="url(#p9ca8bb38e2)" style="fill: none; stroke: #cccccc; stroke-width: 0.8; stroke-linecap: round"/>
     </g>
     <g id="text_4">
      <!-- 3 -->
      <g style="fill: #262626" transform="translate(144.996001 251.792954) scale(0.14 -0.14)">
       <defs>
        <path id="ArialMT-33" d="M 269 1209 
L 831 1284 
Q 928 806 1161 595 
Q 1394 384 1728 384 
Q 2125 384 2398 659 
Q 2672 934 2672 1341 
Q 2672 1728 2419 1979 
Q 2166 2231 1775 2231 
Q 1616 2231 1378 2169 
L 1441 2663 
Q 1497 2656 1531 2656 
Q 1891 2656 2178 2843 
Q 2466 3031 2466 3422 
Q 2466 3731 2256 3934 
Q 2047 4138 1716 4138 
Q 1388 4138 1169 3931 
Q 950 3725 888 3313 
L 325 3413 
Q 428 3978 793 4289 
Q 1159 4600 1703 4600 
Q 2078 4600 2393 4439 
Q 2709 4278 2876 4000 
Q 3044 3722 3044 3409 
Q 3044 3113 2884 2869 
Q 2725 2625 2413 2481 
Q 2819 2388 3044 2092 
Q 3269 1797 3269 1353 
Q 3269 753 2831 336 
Q 2394 -81 1725 -81 
Q 1122 -81 723 278 
Q 325 638 269 1209 
z
" transform="scale(0.015625)"/>
       </defs>
       <use xlink:href="#ArialMT-33"/>
      </g>
     </g>
    </g>
    <g id="xtick_5">
     <g id="line2d_6">
      <path d="M 180.045735 234.772017 
L 180.045735 24.477373 
" clip-path="url(#p9ca8bb38e2)" style="fill: none; stroke: #cccccc; stroke-width: 0.8; stroke-linecap: round"/>
     </g>
     <g id="text_5">
      <!-- 4 -->
      <g style="fill: #262626" transform="translate(176.153079 251.792954) scale(0.14 -0.14)">
       <defs>
        <path id="ArialMT-34" d="M 2069 0 
L 2069 1097 
L 81 1097 
L 81 1613 
L 2172 4581 
L 2631 4581 
L 2631 1613 
L 3250 1613 
L 3250 1097 
L 2631 1097 
L 2631 0 
L 2069 0 
z
M 2069 1613 
L 2069 3678 
L 634 1613 
L 2069 1613 
z
" transform="scale(0.015625)"/>
       </defs>
       <use xlink:href="#ArialMT-34"/>
      </g>
     </g>
    </g>
    <g id="xtick_6">
     <g id="line2d_7">
      <path d="M 211.202813 234.772017 
L 211.202813 24.477373 
" clip-path="url(#p9ca8bb38e2)" style="fill: none; stroke: #cccccc; stroke-width: 0.8; stroke-linecap: round"/>
     </g>
     <g id="text_6">
      <!-- 5 -->
      <g style="fill: #262626" transform="translate(207.310156 251.792954) scale(0.14 -0.14)">
       <defs>
        <path id="ArialMT-35" d="M 266 1200 
L 856 1250 
Q 922 819 1161 601 
Q 1400 384 1738 384 
Q 2144 384 2425 690 
Q 2706 997 2706 1503 
Q 2706 1984 2436 2262 
Q 2166 2541 1728 2541 
Q 1456 2541 1237 2417 
Q 1019 2294 894 2097 
L 366 2166 
L 809 4519 
L 3088 4519 
L 3088 3981 
L 1259 3981 
L 1013 2750 
Q 1425 3038 1878 3038 
Q 2478 3038 2890 2622 
Q 3303 2206 3303 1553 
Q 3303 931 2941 478 
Q 2500 -78 1738 -78 
Q 1113 -78 717 272 
Q 322 622 266 1200 
z
" transform="scale(0.015625)"/>
       </defs>
       <use xlink:href="#ArialMT-35"/>
      </g>
     </g>
    </g>
    <g id="xtick_7">
     <g id="line2d_8">
      <path d="M 242.35989 234.772017 
L 242.35989 24.477373 
" clip-path="url(#p9ca8bb38e2)" style="fill: none; stroke: #cccccc; stroke-width: 0.8; stroke-linecap: round"/>
     </g>
     <g id="text_7">
      <!-- 6 -->
      <g style="fill: #262626" transform="translate(238.467234 251.792954) scale(0.14 -0.14)">
       <defs>
        <path id="ArialMT-36" d="M 3184 3459 
L 2625 3416 
Q 2550 3747 2413 3897 
Q 2184 4138 1850 4138 
Q 1581 4138 1378 3988 
Q 1113 3794 959 3422 
Q 806 3050 800 2363 
Q 1003 2672 1297 2822 
Q 1591 2972 1913 2972 
Q 2475 2972 2870 2558 
Q 3266 2144 3266 1488 
Q 3266 1056 3080 686 
Q 2894 316 2569 119 
Q 2244 -78 1831 -78 
Q 1128 -78 684 439 
Q 241 956 241 2144 
Q 241 3472 731 4075 
Q 1159 4600 1884 4600 
Q 2425 4600 2770 4297 
Q 3116 3994 3184 3459 
z
M 888 1484 
Q 888 1194 1011 928 
Q 1134 663 1356 523 
Q 1578 384 1822 384 
Q 2178 384 2434 671 
Q 2691 959 2691 1453 
Q 2691 1928 2437 2201 
Q 2184 2475 1800 2475 
Q 1419 2475 1153 2201 
Q 888 1928 888 1484 
z
" transform="scale(0.015625)"/>
       </defs>
       <use xlink:href="#ArialMT-36"/>
      </g>
     </g>
    </g>
    <g id="xtick_8">
     <g id="line2d_9">
      <path d="M 273.516968 234.772017 
L 273.516968 24.477373 
" clip-path="url(#p9ca8bb38e2)" style="fill: none; stroke: #cccccc; stroke-width: 0.8; stroke-linecap: round"/>
     </g>
     <g id="text_8">
      <!-- 7 -->
      <g style="fill: #262626" transform="translate(269.624312 251.792954) scale(0.14 -0.14)">
       <defs>
        <path id="ArialMT-37" d="M 303 3981 
L 303 4522 
L 3269 4522 
L 3269 4084 
Q 2831 3619 2401 2847 
Q 1972 2075 1738 1259 
Q 1569 684 1522 0 
L 944 0 
Q 953 541 1156 1306 
Q 1359 2072 1739 2783 
Q 2119 3494 2547 3981 
L 303 3981 
z
" transform="scale(0.015625)"/>
       </defs>
       <use xlink:href="#ArialMT-37"/>
      </g>
     </g>
    </g>
    <g id="xtick_9">
     <g id="line2d_10">
      <path d="M 304.674045 234.772017 
L 304.674045 24.477373 
" clip-path="url(#p9ca8bb38e2)" style="fill: none; stroke: #cccccc; stroke-width: 0.8; stroke-linecap: round"/>
     </g>
     <g id="text_9">
      <!-- 8 -->
      <g style="fill: #262626" transform="translate(300.781389 251.792954) scale(0.14 -0.14)">
       <defs>
        <path id="ArialMT-38" d="M 1131 2484 
Q 781 2613 612 2850 
Q 444 3088 444 3419 
Q 444 3919 803 4259 
Q 1163 4600 1759 4600 
Q 2359 4600 2725 4251 
Q 3091 3903 3091 3403 
Q 3091 3084 2923 2848 
Q 2756 2613 2416 2484 
Q 2838 2347 3058 2040 
Q 3278 1734 3278 1309 
Q 3278 722 2862 322 
Q 2447 -78 1769 -78 
Q 1091 -78 675 323 
Q 259 725 259 1325 
Q 259 1772 486 2073 
Q 713 2375 1131 2484 
z
M 1019 3438 
Q 1019 3113 1228 2906 
Q 1438 2700 1772 2700 
Q 2097 2700 2305 2904 
Q 2513 3109 2513 3406 
Q 2513 3716 2298 3927 
Q 2084 4138 1766 4138 
Q 1444 4138 1231 3931 
Q 1019 3725 1019 3438 
z
M 838 1322 
Q 838 1081 952 856 
Q 1066 631 1291 507 
Q 1516 384 1775 384 
Q 2178 384 2440 643 
Q 2703 903 2703 1303 
Q 2703 1709 2433 1975 
Q 2163 2241 1756 2241 
Q 1359 2241 1098 1978 
Q 838 1716 838 1322 
z
" transform="scale(0.015625)"/>
       </defs>
       <use xlink:href="#ArialMT-38"/>
      </g>
     </g>
    </g>
    <g id="xtick_10">
     <g id="line2d_11">
      <path d="M 335.831123 234.772017 
L 335.831123 24.477373 
" clip-path="url(#p9ca8bb38e2)" style="fill: none; stroke: #cccccc; stroke-width: 0.8; stroke-linecap: round"/>
     </g>
     <g id="text_10">
      <!-- 9 -->
      <g style="fill: #262626" transform="translate(331.938467 251.792954) scale(0.14 -0.14)">
       <defs>
        <path id="ArialMT-39" d="M 350 1059 
L 891 1109 
Q 959 728 1153 556 
Q 1347 384 1650 384 
Q 1909 384 2104 503 
Q 2300 622 2425 820 
Q 2550 1019 2634 1356 
Q 2719 1694 2719 2044 
Q 2719 2081 2716 2156 
Q 2547 1888 2255 1720 
Q 1963 1553 1622 1553 
Q 1053 1553 659 1965 
Q 266 2378 266 3053 
Q 266 3750 677 4175 
Q 1088 4600 1706 4600 
Q 2153 4600 2523 4359 
Q 2894 4119 3086 3673 
Q 3278 3228 3278 2384 
Q 3278 1506 3087 986 
Q 2897 466 2520 194 
Q 2144 -78 1638 -78 
Q 1100 -78 759 220 
Q 419 519 350 1059 
z
M 2653 3081 
Q 2653 3566 2395 3850 
Q 2138 4134 1775 4134 
Q 1400 4134 1122 3828 
Q 844 3522 844 3034 
Q 844 2597 1108 2323 
Q 1372 2050 1759 2050 
Q 2150 2050 2401 2323 
Q 2653 2597 2653 3081 
z
" transform="scale(0.015625)"/>
       </defs>
       <use xlink:href="#ArialMT-39"/>
      </g>
     </g>
    </g>
    <g id="xtick_11">
     <g id="line2d_12">
      <path d="M 366.988201 234.772017 
L 366.988201 24.477373 
" clip-path="url(#p9ca8bb38e2)" style="fill: none; stroke: #cccccc; stroke-width: 0.8; stroke-linecap: round"/>
     </g>
     <g id="text_11">
      <!-- 10 -->
      <g style="fill: #262626" transform="translate(359.202888 251.792954) scale(0.14 -0.14)">
       <use xlink:href="#ArialMT-31"/>
       <use xlink:href="#ArialMT-30" transform="translate(55.615234 0)"/>
      </g>
     </g>
    </g>
    <g id="text_12">
     <!-- Original Position -->
     <g style="fill: #262626" transform="translate(152.955313 270.232954) scale(0.16 -0.16)">
      <defs>
       <path id="ArialMT-4f" d="M 309 2231 
Q 309 3372 921 4017 
Q 1534 4663 2503 4663 
Q 3138 4663 3647 4359 
Q 4156 4056 4423 3514 
Q 4691 2972 4691 2284 
Q 4691 1588 4409 1038 
Q 4128 488 3612 205 
Q 3097 -78 2500 -78 
Q 1853 -78 1343 234 
Q 834 547 571 1087 
Q 309 1628 309 2231 
z
M 934 2222 
Q 934 1394 1379 917 
Q 1825 441 2497 441 
Q 3181 441 3623 922 
Q 4066 1403 4066 2288 
Q 4066 2847 3877 3264 
Q 3688 3681 3323 3911 
Q 2959 4141 2506 4141 
Q 1863 4141 1398 3698 
Q 934 3256 934 2222 
z
" transform="scale(0.015625)"/>
       <path id="ArialMT-72" d="M 416 0 
L 416 3319 
L 922 3319 
L 922 2816 
Q 1116 3169 1280 3281 
Q 1444 3394 1641 3394 
Q 1925 3394 2219 3213 
L 2025 2691 
Q 1819 2813 1613 2813 
Q 1428 2813 1281 2702 
Q 1134 2591 1072 2394 
Q 978 2094 978 1738 
L 978 0 
L 416 0 
z
" transform="scale(0.015625)"/>
       <path id="ArialMT-69" d="M 425 3934 
L 425 4581 
L 988 4581 
L 988 3934 
L 425 3934 
z
M 425 0 
L 425 3319 
L 988 3319 
L 988 0 
L 425 0 
z
" transform="scale(0.015625)"/>
       <path id="ArialMT-67" d="M 319 -275 
L 866 -356 
Q 900 -609 1056 -725 
Q 1266 -881 1628 -881 
Q 2019 -881 2231 -725 
Q 2444 -569 2519 -288 
Q 2563 -116 2559 434 
Q 2191 0 1641 0 
Q 956 0 581 494 
Q 206 988 206 1678 
Q 206 2153 378 2554 
Q 550 2956 876 3175 
Q 1203 3394 1644 3394 
Q 2231 3394 2613 2919 
L 2613 3319 
L 3131 3319 
L 3131 450 
Q 3131 -325 2973 -648 
Q 2816 -972 2473 -1159 
Q 2131 -1347 1631 -1347 
Q 1038 -1347 672 -1080 
Q 306 -813 319 -275 
z
M 784 1719 
Q 784 1066 1043 766 
Q 1303 466 1694 466 
Q 2081 466 2343 764 
Q 2606 1063 2606 1700 
Q 2606 2309 2336 2618 
Q 2066 2928 1684 2928 
Q 1309 2928 1046 2623 
Q 784 2319 784 1719 
z
" transform="scale(0.015625)"/>
       <path id="ArialMT-6e" d="M 422 0 
L 422 3319 
L 928 3319 
L 928 2847 
Q 1294 3394 1984 3394 
Q 2284 3394 2536 3286 
Q 2788 3178 2913 3003 
Q 3038 2828 3088 2588 
Q 3119 2431 3119 2041 
L 3119 0 
L 2556 0 
L 2556 2019 
Q 2556 2363 2490 2533 
Q 2425 2703 2258 2804 
Q 2091 2906 1866 2906 
Q 1506 2906 1245 2678 
Q 984 2450 984 1813 
L 984 0 
L 422 0 
z
" transform="scale(0.015625)"/>
       <path id="ArialMT-61" d="M 2588 409 
Q 2275 144 1986 34 
Q 1697 -75 1366 -75 
Q 819 -75 525 192 
Q 231 459 231 875 
Q 231 1119 342 1320 
Q 453 1522 633 1644 
Q 813 1766 1038 1828 
Q 1203 1872 1538 1913 
Q 2219 1994 2541 2106 
Q 2544 2222 2544 2253 
Q 2544 2597 2384 2738 
Q 2169 2928 1744 2928 
Q 1347 2928 1158 2789 
Q 969 2650 878 2297 
L 328 2372 
Q 403 2725 575 2942 
Q 747 3159 1072 3276 
Q 1397 3394 1825 3394 
Q 2250 3394 2515 3294 
Q 2781 3194 2906 3042 
Q 3031 2891 3081 2659 
Q 3109 2516 3109 2141 
L 3109 1391 
Q 3109 606 3145 398 
Q 3181 191 3288 0 
L 2700 0 
Q 2613 175 2588 409 
z
M 2541 1666 
Q 2234 1541 1622 1453 
Q 1275 1403 1131 1340 
Q 988 1278 909 1158 
Q 831 1038 831 891 
Q 831 666 1001 516 
Q 1172 366 1500 366 
Q 1825 366 2078 508 
Q 2331 650 2450 897 
Q 2541 1088 2541 1459 
L 2541 1666 
z
" transform="scale(0.015625)"/>
       <path id="ArialMT-6c" d="M 409 0 
L 409 4581 
L 972 4581 
L 972 0 
L 409 0 
z
" transform="scale(0.015625)"/>
       <path id="ArialMT-20" transform="scale(0.015625)"/>
       <path id="ArialMT-50" d="M 494 0 
L 494 4581 
L 2222 4581 
Q 2678 4581 2919 4538 
Q 3256 4481 3484 4323 
Q 3713 4166 3852 3881 
Q 3991 3597 3991 3256 
Q 3991 2672 3619 2267 
Q 3247 1863 2275 1863 
L 1100 1863 
L 1100 0 
L 494 0 
z
M 1100 2403 
L 2284 2403 
Q 2872 2403 3119 2622 
Q 3366 2841 3366 3238 
Q 3366 3525 3220 3729 
Q 3075 3934 2838 4000 
Q 2684 4041 2272 4041 
L 1100 4041 
L 1100 2403 
z
" transform="scale(0.015625)"/>
       <path id="ArialMT-6f" d="M 213 1659 
Q 213 2581 725 3025 
Q 1153 3394 1769 3394 
Q 2453 3394 2887 2945 
Q 3322 2497 3322 1706 
Q 3322 1066 3130 698 
Q 2938 331 2570 128 
Q 2203 -75 1769 -75 
Q 1072 -75 642 372 
Q 213 819 213 1659 
z
M 791 1659 
Q 791 1022 1069 705 
Q 1347 388 1769 388 
Q 2188 388 2466 706 
Q 2744 1025 2744 1678 
Q 2744 2294 2464 2611 
Q 2184 2928 1769 2928 
Q 1347 2928 1069 2612 
Q 791 2297 791 1659 
z
" transform="scale(0.015625)"/>
       <path id="ArialMT-73" d="M 197 991 
L 753 1078 
Q 800 744 1014 566 
Q 1228 388 1613 388 
Q 2000 388 2187 545 
Q 2375 703 2375 916 
Q 2375 1106 2209 1216 
Q 2094 1291 1634 1406 
Q 1016 1563 777 1677 
Q 538 1791 414 1992 
Q 291 2194 291 2438 
Q 291 2659 392 2848 
Q 494 3038 669 3163 
Q 800 3259 1026 3326 
Q 1253 3394 1513 3394 
Q 1903 3394 2198 3281 
Q 2494 3169 2634 2976 
Q 2775 2784 2828 2463 
L 2278 2388 
Q 2241 2644 2061 2787 
Q 1881 2931 1553 2931 
Q 1166 2931 1000 2803 
Q 834 2675 834 2503 
Q 834 2394 903 2306 
Q 972 2216 1119 2156 
Q 1203 2125 1616 2013 
Q 2213 1853 2448 1751 
Q 2684 1650 2818 1456 
Q 2953 1263 2953 975 
Q 2953 694 2789 445 
Q 2625 197 2315 61 
Q 2006 -75 1616 -75 
Q 969 -75 630 194 
Q 291 463 197 991 
z
" transform="scale(0.015625)"/>
       <path id="ArialMT-74" d="M 1650 503 
L 1731 6 
Q 1494 -44 1306 -44 
Q 1000 -44 831 53 
Q 663 150 594 308 
Q 525 466 525 972 
L 525 2881 
L 113 2881 
L 113 3319 
L 525 3319 
L 525 4141 
L 1084 4478 
L 1084 3319 
L 1650 3319 
L 1650 2881 
L 1084 2881 
L 1084 941 
Q 1084 700 1114 631 
Q 1144 563 1211 522 
Q 1278 481 1403 481 
Q 1497 481 1650 503 
z
" transform="scale(0.015625)"/>
      </defs>
      <use xlink:href="#ArialMT-4f"/>
      <use xlink:href="#ArialMT-72" transform="translate(77.783203 0)"/>
      <use xlink:href="#ArialMT-69" transform="translate(111.083984 0)"/>
      <use xlink:href="#ArialMT-67" transform="translate(133.300781 0)"/>
      <use xlink:href="#ArialMT-69" transform="translate(188.916016 0)"/>
      <use xlink:href="#ArialMT-6e" transform="translate(211.132812 0)"/>
      <use xlink:href="#ArialMT-61" transform="translate(266.748047 0)"/>
      <use xlink:href="#ArialMT-6c" transform="translate(322.363281 0)"/>
      <use xlink:href="#ArialMT-20" transform="translate(344.580078 0)"/>
      <use xlink:href="#ArialMT-50" transform="translate(372.363281 0)"/>
      <use xlink:href="#ArialMT-6f" transform="translate(439.0625 0)"/>
      <use xlink:href="#ArialMT-73" transform="translate(494.677734 0)"/>
      <use xlink:href="#ArialMT-69" transform="translate(544.677734 0)"/>
      <use xlink:href="#ArialMT-74" transform="translate(566.894531 0)"/>
      <use xlink:href="#ArialMT-69" transform="translate(594.677734 0)"/>
      <use xlink:href="#ArialMT-6f" transform="translate(616.894531 0)"/>
      <use xlink:href="#ArialMT-6e" transform="translate(672.509766 0)"/>
     </g>
    </g>
   </g>
   <g id="matplotlib.axis_2">
    <g id="ytick_1">
     <g id="line2d_13">
      <path d="M 40.617813 234.772017 
L 381.787813 234.772017 
" clip-path="url(#p9ca8bb38e2)" style="fill: none; stroke: #cccccc; stroke-width: 0.8; stroke-linecap: round"/>
     </g>
     <g id="text_13">
      <!-- 0 -->
      <g style="fill: #262626" transform="translate(25.8325 239.782485) scale(0.14 -0.14)">
       <use xlink:href="#ArialMT-30"/>
      </g>
     </g>
    </g>
    <g id="ytick_2">
     <g id="line2d_14">
      <path d="M 40.617813 190.032661 
L 381.787813 190.032661 
" clip-path="url(#p9ca8bb38e2)" style="fill: none; stroke: #cccccc; stroke-width: 0.8; stroke-linecap: round"/>
     </g>
     <g id="text_14">
      <!-- 1 -->
      <g style="fill: #262626" transform="translate(25.8325 195.04313) scale(0.14 -0.14)">
       <use xlink:href="#ArialMT-31"/>
      </g>
     </g>
    </g>
    <g id="ytick_3">
     <g id="line2d_15">
      <path d="M 40.617813 145.293306 
L 381.787813 145.293306 
" clip-path="url(#p9ca8bb38e2)" style="fill: none; stroke: #cccccc; stroke-width: 0.8; stroke-linecap: round"/>
     </g>
     <g id="text_15">
      <!-- 2 -->
      <g style="fill: #262626" transform="translate(25.8325 150.303774) scale(0.14 -0.14)">
       <use xlink:href="#ArialMT-32"/>
      </g>
     </g>
    </g>
    <g id="ytick_4">
     <g id="line2d_16">
      <path d="M 40.617813 100.55395 
L 381.787813 100.55395 
" clip-path="url(#p9ca8bb38e2)" style="fill: none; stroke: #cccccc; stroke-width: 0.8; stroke-linecap: round"/>
     </g>
     <g id="text_16">
      <!-- 3 -->
      <g style="fill: #262626" transform="translate(25.8325 105.564419) scale(0.14 -0.14)">
       <use xlink:href="#ArialMT-33"/>
      </g>
     </g>
    </g>
    <g id="ytick_5">
     <g id="line2d_17">
      <path d="M 40.617813 55.814595 
L 381.787813 55.814595 
" clip-path="url(#p9ca8bb38e2)" style="fill: none; stroke: #cccccc; stroke-width: 0.8; stroke-linecap: round"/>
     </g>
     <g id="text_17">
      <!-- 4 -->
      <g style="fill: #262626" transform="translate(25.8325 60.825063) scale(0.14 -0.14)">
       <use xlink:href="#ArialMT-34"/>
      </g>
     </g>
    </g>
    <g id="text_18">
     <!-- Information Content -->
     <g style="fill: #262626" transform="translate(18.6525 199.880945) rotate(-90) scale(0.16 -0.16)">
      <defs>
       <path id="ArialMT-49" d="M 597 0 
L 597 4581 
L 1203 4581 
L 1203 0 
L 597 0 
z
" transform="scale(0.015625)"/>
       <path id="ArialMT-66" d="M 556 0 
L 556 2881 
L 59 2881 
L 59 3319 
L 556 3319 
L 556 3672 
Q 556 4006 616 4169 
Q 697 4388 901 4523 
Q 1106 4659 1475 4659 
Q 1713 4659 2000 4603 
L 1916 4113 
Q 1741 4144 1584 4144 
Q 1328 4144 1222 4034 
Q 1116 3925 1116 3625 
L 1116 3319 
L 1763 3319 
L 1763 2881 
L 1116 2881 
L 1116 0 
L 556 0 
z
" transform="scale(0.015625)"/>
       <path id="ArialMT-6d" d="M 422 0 
L 422 3319 
L 925 3319 
L 925 2853 
Q 1081 3097 1340 3245 
Q 1600 3394 1931 3394 
Q 2300 3394 2536 3241 
Q 2772 3088 2869 2813 
Q 3263 3394 3894 3394 
Q 4388 3394 4653 3120 
Q 4919 2847 4919 2278 
L 4919 0 
L 4359 0 
L 4359 2091 
Q 4359 2428 4304 2576 
Q 4250 2725 4106 2815 
Q 3963 2906 3769 2906 
Q 3419 2906 3187 2673 
Q 2956 2441 2956 1928 
L 2956 0 
L 2394 0 
L 2394 2156 
Q 2394 2531 2256 2718 
Q 2119 2906 1806 2906 
Q 1569 2906 1367 2781 
Q 1166 2656 1075 2415 
Q 984 2175 984 1722 
L 984 0 
L 422 0 
z
" transform="scale(0.015625)"/>
       <path id="ArialMT-43" d="M 3763 1606 
L 4369 1453 
Q 4178 706 3683 314 
Q 3188 -78 2472 -78 
Q 1731 -78 1267 223 
Q 803 525 561 1097 
Q 319 1669 319 2325 
Q 319 3041 592 3573 
Q 866 4106 1370 4382 
Q 1875 4659 2481 4659 
Q 3169 4659 3637 4309 
Q 4106 3959 4291 3325 
L 3694 3184 
Q 3534 3684 3231 3912 
Q 2928 4141 2469 4141 
Q 1941 4141 1586 3887 
Q 1231 3634 1087 3207 
Q 944 2781 944 2328 
Q 944 1744 1114 1308 
Q 1284 872 1643 656 
Q 2003 441 2422 441 
Q 2931 441 3284 734 
Q 3638 1028 3763 1606 
z
" transform="scale(0.015625)"/>
       <path id="ArialMT-65" d="M 2694 1069 
L 3275 997 
Q 3138 488 2766 206 
Q 2394 -75 1816 -75 
Q 1088 -75 661 373 
Q 234 822 234 1631 
Q 234 2469 665 2931 
Q 1097 3394 1784 3394 
Q 2450 3394 2872 2941 
Q 3294 2488 3294 1666 
Q 3294 1616 3291 1516 
L 816 1516 
Q 847 969 1125 678 
Q 1403 388 1819 388 
Q 2128 388 2347 550 
Q 2566 713 2694 1069 
z
M 847 1978 
L 2700 1978 
Q 2663 2397 2488 2606 
Q 2219 2931 1791 2931 
Q 1403 2931 1139 2672 
Q 875 2413 847 1978 
z
" transform="scale(0.015625)"/>
      </defs>
      <use xlink:href="#ArialMT-49"/>
      <use xlink:href="#ArialMT-6e" transform="translate(27.783203 0)"/>
      <use xlink:href="#ArialMT-66" transform="translate(83.398438 0)"/>
      <use xlink:href="#ArialMT-6f" transform="translate(111.181641 0)"/>
      <use xlink:href="#ArialMT-72" transform="translate(166.796875 0)"/>
      <use xlink:href="#ArialMT-6d" transform="translate(200.097656 0)"/>
      <use xlink:href="#ArialMT-61" transform="translate(283.398438 0)"/>
      <use xlink:href="#ArialMT-74" transform="translate(339.013672 0)"/>
      <use xlink:href="#ArialMT-69" transform="translate(366.796875 0)"/>
      <use xlink:href="#ArialMT-6f" transform="translate(389.013672 0)"/>
      <use xlink:href="#ArialMT-6e" transform="translate(444.628906 0)"/>
      <use xlink:href="#ArialMT-20" transform="translate(500.244141 0)"/>
      <use xlink:href="#ArialMT-43" transform="translate(528.027344 0)"/>
      <use xlink:href="#ArialMT-6f" transform="translate(600.244141 0)"/>
      <use xlink:href="#ArialMT-6e" transform="translate(655.859375 0)"/>
      <use xlink:href="#ArialMT-74" transform="translate(711.474609 0)"/>
      <use xlink:href="#ArialMT-65" transform="translate(739.257812 0)"/>
      <use xlink:href="#ArialMT-6e" transform="translate(794.873047 0)"/>
      <use xlink:href="#ArialMT-74" transform="translate(850.488281 0)"/>
     </g>
    </g>
   </g>
   <g id="patch_35">
    <path d="M 40.617813 234.772017 
L 40.617813 24.477373 
" style="fill: none; stroke: #cccccc; stroke-width: 0.8; stroke-linejoin: miter; stroke-linecap: square"/>
   </g>
   <g id="patch_36">
    <path d="M 381.787813 234.772017 
L 381.787813 24.477373 
" style="fill: none; stroke: #cccccc; stroke-width: 0.8; stroke-linejoin: miter; stroke-linecap: square"/>
   </g>
   <g id="patch_37">
    <path d="M 40.617813 234.772017 
L 381.787813 234.772017 
" style="fill: none; stroke: #cccccc; stroke-width: 0.8; stroke-linejoin: miter; stroke-linecap: square"/>
   </g>
   <g id="patch_38">
    <path d="M 40.617813 24.477373 
L 381.787813 24.477373 
" style="fill: none; stroke: #cccccc; stroke-width: 0.8; stroke-linejoin: miter; stroke-linecap: square"/>
   </g>
   <g id="text_19">
    <!-- 12 -->
    <g style="fill: #000080; opacity: 0.6" transform="translate(47.632112 17.220937) scale(0.14 -0.14)">
     <defs>
      <path id="Arial-ItalicMT-31" d="M 1541 0 
L 2266 3459 
Q 1797 3091 947 2869 
L 1053 3381 
Q 1475 3550 1886 3822 
Q 2297 4094 2503 4297 
Q 2628 4422 2741 4600 
L 3069 4600 
L 2109 0 
L 1541 0 
z
" transform="scale(0.015625)"/>
      <path id="Arial-ItalicMT-32" d="M 375 0 
Q 463 409 617 686 
Q 772 963 1028 1211 
Q 1284 1459 2016 2044 
Q 2459 2397 2622 2566 
Q 2856 2809 2963 3044 
Q 3034 3203 3034 3391 
Q 3034 3706 2811 3926 
Q 2588 4147 2263 4147 
Q 1941 4147 1700 3923 
Q 1459 3700 1356 3206 
L 803 3288 
Q 884 3897 1276 4248 
Q 1669 4600 2253 4600 
Q 2644 4600 2961 4437 
Q 3278 4275 3437 3981 
Q 3597 3688 3597 3375 
Q 3597 2919 3272 2497 
Q 3072 2234 2097 1463 
Q 1678 1131 1473 918 
Q 1269 706 1166 519 
L 3216 519 
L 3106 0 
L 375 0 
z
" transform="scale(0.015625)"/>
     </defs>
     <use xlink:href="#Arial-ItalicMT-31"/>
     <use xlink:href="#Arial-ItalicMT-32" transform="translate(55.615234 0)"/>
    </g>
   </g>
   <g id="text_20">
    <!-- 12 -->
    <g style="fill: #000080; opacity: 0.6" transform="translate(78.789189 17.220937) scale(0.14 -0.14)">
     <use xlink:href="#Arial-ItalicMT-31"/>
     <use xlink:href="#Arial-ItalicMT-32" transform="translate(55.615234 0)"/>
    </g>
   </g>
   <g id="text_21">
    <!-- 12 -->
    <g style="fill: #000080; opacity: 0.6" transform="translate(109.946267 17.220937) scale(0.14 -0.14)">
     <use xlink:href="#Arial-ItalicMT-31"/>
     <use xlink:href="#Arial-ItalicMT-32" transform="translate(55.615234 0)"/>
    </g>
   </g>
   <g id="text_22">
    <!-- 12 -->
    <g style="fill: #000080; opacity: 0.6" transform="translate(141.103345 17.220937) scale(0.14 -0.14)">
     <use xlink:href="#Arial-ItalicMT-31"/>
     <use xlink:href="#Arial-ItalicMT-32" transform="translate(55.615234 0)"/>
    </g>
   </g>
   <g id="text_23">
    <!-- 12 -->
    <g style="fill: #000080; opacity: 0.6" transform="translate(172.260422 17.220937) scale(0.14 -0.14)">
     <use xlink:href="#Arial-ItalicMT-31"/>
     <use xlink:href="#Arial-ItalicMT-32" transform="translate(55.615234 0)"/>
    </g>
   </g>
   <g id="text_24">
    <!-- 12 -->
    <g style="fill: #000080; opacity: 0.6" transform="translate(203.4175 17.220937) scale(0.14 -0.14)">
     <use xlink:href="#Arial-ItalicMT-31"/>
     <use xlink:href="#Arial-ItalicMT-32" transform="translate(55.615234 0)"/>
    </g>
   </g>
   <g id="text_25">
    <!-- 12 -->
    <g style="fill: #000080; opacity: 0.6" transform="translate(234.574578 17.220937) scale(0.14 -0.14)">
     <use xlink:href="#Arial-ItalicMT-31"/>
     <use xlink:href="#Arial-ItalicMT-32" transform="translate(55.615234 0)"/>
    </g>
   </g>
   <g id="text_26">
    <!-- 10 -->
    <g style="fill: #000080; opacity: 0.6" transform="translate(265.731655 17.220937) scale(0.14 -0.14)">
     <defs>
      <path id="Arial-ItalicMT-30" d="M 453 1503 
Q 453 2084 626 2684 
Q 800 3284 1012 3643 
Q 1225 4003 1453 4206 
Q 1681 4409 1901 4504 
Q 2122 4600 2391 4600 
Q 2916 4600 3267 4209 
Q 3619 3819 3619 3081 
Q 3619 2322 3375 1578 
Q 3088 697 2575 256 
Q 2181 -78 1678 -78 
Q 1163 -78 808 326 
Q 453 731 453 1503 
z
M 1000 1359 
Q 1000 938 1141 700 
Q 1331 372 1706 372 
Q 2034 372 2303 669 
Q 2691 1088 2886 1895 
Q 3081 2703 3081 3216 
Q 3081 3709 2892 3928 
Q 2703 4147 2394 4147 
Q 2169 4147 1973 4031 
Q 1778 3916 1600 3634 
Q 1347 3238 1159 2447 
Q 1000 1772 1000 1359 
z
" transform="scale(0.015625)"/>
     </defs>
     <use xlink:href="#Arial-ItalicMT-31"/>
     <use xlink:href="#Arial-ItalicMT-30" transform="translate(55.615234 0)"/>
    </g>
   </g>
   <g id="text_27">
    <!-- 6 -->
    <g style="fill: #000080; opacity: 0.6" transform="translate(300.781389 17.220937) scale(0.14 -0.14)">
     <defs>
      <path id="Arial-ItalicMT-36" d="M 1288 2656 
Q 1525 2853 1761 2951 
Q 1997 3050 2228 3050 
Q 2750 3050 3090 2694 
Q 3431 2338 3431 1734 
Q 3431 956 2925 400 
Q 2488 -78 1863 -78 
Q 1294 -78 914 339 
Q 534 756 534 1528 
Q 534 2219 778 2956 
Q 966 3522 1242 3889 
Q 1519 4256 1830 4428 
Q 2141 4600 2531 4600 
Q 3000 4600 3297 4308 
Q 3594 4016 3634 3472 
L 3109 3422 
Q 3066 3794 2898 3959 
Q 2731 4125 2491 4125 
Q 2238 4125 1981 3928 
Q 1725 3731 1540 3345 
Q 1356 2959 1288 2656 
z
M 1091 1288 
Q 1091 900 1331 636 
Q 1572 372 1875 372 
Q 2088 372 2325 533 
Q 2563 694 2728 1022 
Q 2894 1350 2894 1675 
Q 2894 2094 2664 2345 
Q 2434 2597 2109 2597 
Q 1734 2597 1412 2230 
Q 1091 1863 1091 1288 
z
" transform="scale(0.015625)"/>
     </defs>
     <use xlink:href="#Arial-ItalicMT-36"/>
    </g>
   </g>
   <g id="text_28">
    <!-- 1 -->
    <g style="fill: #000080; opacity: 0.6" transform="translate(331.938467 17.220937) scale(0.14 -0.14)">
     <use xlink:href="#Arial-ItalicMT-31"/>
    </g>
   </g>
   <g id="text_29">
    <!-- 1 -->
    <g style="fill: #000080; opacity: 0.6" transform="translate(363.095544 17.220937) scale(0.14 -0.14)">
     <use xlink:href="#Arial-ItalicMT-31"/>
    </g>
   </g>
  </g>
 </g>
 <defs>
  <clipPath id="p9ca8bb38e2">
   <rect x="40.617813" y="24.477373" width="341.17" height="210.294644"/>
  </clipPath>
 </defs>
</svg>
