<?xml version="1.0" encoding="utf-8" standalone="no"?>
<!DOCTYPE svg PUBLIC "-//W3C//DTD SVG 1.1//EN"
  "http://www.w3.org/Graphics/SVG/1.1/DTD/svg11.dtd">
<svg xmlns:xlink="http://www.w3.org/1999/xlink" width="460.987812pt" height="280.800454pt" viewBox="0 0 460.987812 280.800454" xmlns="http://www.w3.org/2000/svg" version="1.1">
 <metadata>
  <rdf:RDF xmlns:dc="http://purl.org/dc/elements/1.1/" xmlns:cc="http://creativecommons.org/ns#" xmlns:rdf="http://www.w3.org/1999/02/22-rdf-syntax-ns#">
   <cc:Work>
    <dc:type rdf:resource="http://purl.org/dc/dcmitype/StillImage"/>
    <dc:date>2025-05-09T14:59:09.516740</dc:date>
    <dc:format>image/svg+xml</dc:format>
    <dc:creator>
     <cc:Agent>
      <dc:title>Matplotlib v3.10.1, https://matplotlib.org/</dc:title>
     </cc:Agent>
    </dc:creator>
   </cc:Work>
  </rdf:RDF>
 </metadata>
 <defs>
  <style type="text/css">*{stroke-linejoin: round; stroke-linecap: butt}</style>
 </defs>
 <g id="figure_1">
  <g id="patch_1">
   <path d="M 0 280.800454 
L 460.987812 280.800454 
L 460.987812 0 
L 0 0 
z
" style="fill: #ffffff"/>
  </g>
  <g id="axes_1">
   <g id="patch_2">
    <path d="M 40.617813 234.772017 
L 453.787812 234.772017 
L 453.787812 24.477373 
L 40.617813 24.477373 
z
" style="fill: #ffffff"/>
   </g>
   <g id="line2d_1">
    <path d="M 40.617813 234.772017 
L 453.787812 234.772017 
" clip-path="url(#p3a79e6f8a2)" style="fill: none; stroke: #000000; stroke-width: 0.5; stroke-linecap: round"/>
   </g>
   <g id="patch_3">
    <path d="M 46.133263 234.772017 
L 40.617812 226.984687 
L 45.392156 226.984687 
L 48.870822 232.334332 
L 53.095636 226.984687 
L 58.641336 226.984687 
L 62.689696 232.424428 
L 66.233902 226.984687 
L 70.927581 226.984687 
L 65.321383 234.772017 
L 60.375627 234.772017 
L 55.772697 228.949793 
L 51.189932 234.772017 
L 46.133263 234.772017 
z
" clip-path="url(#p3a79e6f8a2)" style="fill: #9acd32"/>
   </g>
   <g id="patch_4">
    <path d="M 66.061996 214.32533 
Q 68.301084 217.283238 70.927581 219.036071 
L 68.688493 226.984687 
Q 67.316148 226.229994 66.0029 224.903196 
Q 65.713986 224.635402 61.958096 219.949006 
Q 59.003287 222.34698 55.411553 222.34698 
Q 48.477603 222.34698 44.544425 214.775711 
Q 40.617812 207.204442 40.617812 193.510427 
Q 40.617812 179.852929 44.557557 172.269488 
Q 48.497302 164.686046 55.247397 164.686046 
Q 61.938397 164.686046 65.858443 172.269488 
Q 69.778489 179.852929 69.778489 193.510427 
Q 69.778489 200.740867 68.688493 206.218473 
Q 67.867713 210.405799 66.061996 214.32533 
z
M 61.176713 207.971307 
Q 62.35207 205.415091 62.936466 201.812043 
Q 63.520861 198.196823 63.520861 193.510427 
Q 63.520861 183.857668 61.222677 179.086064 
Q 58.924492 174.302288 55.208 174.302288 
Q 51.491508 174.302288 49.180191 179.098237 
Q 46.87544 183.894185 46.87544 193.510427 
Q 46.87544 203.284911 49.180191 208.141722 
Q 51.491508 212.98636 55.024145 212.98636 
Q 56.337393 212.98636 57.506184 212.19515 
Q 55.661071 209.943245 53.750294 208.689482 
L 55.457517 202.262424 
Q 58.451723 204.161328 61.176713 207.971307 
z
" clip-path="url(#p3a79e6f8a2)" style="fill: #0000ff"/>
   </g>
   <g id="patch_5">
    <path d="M 51.749084 164.686046 
L 51.749084 79.025416 
L 59.79631 79.025416 
L 59.79631 164.686046 
L 51.749084 164.686046 
z
" clip-path="url(#p3a79e6f8a2)" style="fill: #add8e6"/>
   </g>
   <g id="patch_6">
    <path d="M 72.522832 234.772017 
L 72.522832 228.913525 
L 79.309696 228.913525 
L 79.309696 231.514741 
L 93.02283 228.913525 
L 102.150245 228.913525 
L 89.493661 231.195024 
L 102.8326 234.772017 
L 94.057368 234.772017 
L 84.812559 232.022451 
L 79.309696 233.002064 
L 79.309696 234.772017 
L 72.522832 234.772017 
z
" clip-path="url(#p3a79e6f8a2)" style="fill: #6495ed"/>
   </g>
   <g id="patch_7">
    <path d="M 84.394865 228.913525 
L 84.394865 226.447868 
L 72.522832 223.055033 
L 80.19225 223.055033 
L 87.819218 225.372341 
L 95.290534 223.055033 
L 102.8326 223.055033 
L 90.918116 226.455541 
L 90.918116 228.913525 
L 84.394865 228.913525 
z
" clip-path="url(#p3a79e6f8a2)" style="fill: #ffc0cb"/>
   </g>
   <g id="patch_8">
    <path d="M 83.839034 223.055033 
L 83.839034 218.187663 
L 72.522832 218.187663 
L 72.522832 217.196541 
L 102.8326 217.196541 
L 102.8326 218.187663 
L 91.541379 218.187663 
L 91.541379 223.055033 
L 83.839034 223.055033 
z
" clip-path="url(#p3a79e6f8a2)" style="fill: #a0522d"/>
   </g>
   <g id="patch_9">
    <path d="M 72.522832 211.338049 
L 80.195666 211.338049 
L 80.195666 214.457799 
Q 80.195666 215.200956 80.485989 215.421011 
Q 80.975392 215.774357 82.825167 215.988125 
Q 84.683237 216.201892 87.90168 216.201892 
Q 91.161597 216.201892 92.820589 216.000699 
Q 94.47958 215.798249 94.819673 215.504004 
Q 95.159766 215.208501 95.159766 214.524445 
L 95.159766 211.338049 
L 102.8326 211.338049 
L 102.8326 214.36349 
Q 102.8326 215.400892 102.210478 215.829685 
Q 101.588357 216.25722 99.912776 216.552723 
Q 98.237195 216.846968 95.4335 217.021754 
Q 92.6381 217.196541 88.133939 217.196541 
Q 82.684153 217.196541 79.872163 217.006665 
Q 77.060173 216.815531 75.426066 216.511227 
Q 73.800255 216.206922 73.277673 215.872438 
Q 72.522832 215.377 72.522832 214.410016 
L 72.522832 211.338049 
z
" clip-path="url(#p3a79e6f8a2)" style="fill: #f08080"/>
   </g>
   <g id="patch_10">
    <path d="M 72.522832 207.452163 
L 79.845997 207.237104 
Q 80.513219 208.356892 82.531158 208.883415 
Q 84.549097 209.407465 87.982848 209.407465 
Q 91.62002 209.407465 93.458948 208.940269 
Q 95.306013 208.473073 95.306013 207.847673 
Q 95.306013 207.444747 94.533013 207.162946 
Q 93.760012 206.881145 91.823441 206.673503 
Q 90.505272 206.532602 85.802172 206.179115 
Q 79.748355 205.721807 77.3073 205.059327 
Q 73.873549 204.122463 73.873549 202.780201 
Q 73.873549 201.915023 75.484645 201.161082 
Q 77.103879 200.407141 80.138924 200.014103 
Q 83.182106 199.621065 87.478363 199.621065 
Q 94.492328 199.621065 98.039995 200.555457 
Q 101.587662 201.48985 101.766673 203.049642 
L 94.240086 203.150992 
Q 93.760012 202.278398 92.165189 201.895247 
Q 90.578503 201.512097 87.396995 201.512097 
Q 84.117844 201.512097 82.262642 201.922439 
Q 81.066525 202.184464 81.066525 202.624469 
Q 81.066525 203.027395 82.18941 203.311668 
Q 83.613359 203.675042 89.105733 204.070552 
Q 94.598107 204.46359 97.22631 204.886292 
Q 99.86265 205.306521 101.343556 206.035743 
Q 102.8326 206.764964 102.8326 207.840257 
Q 102.8326 208.811729 101.05063 209.662075 
Q 99.276796 210.512422 96.022056 210.925235 
Q 92.767316 211.338049 87.909616 211.338049 
Q 80.838693 211.338049 77.046921 210.346802 
Q 73.263285 209.353083 72.522832 207.452163 
z
" clip-path="url(#p3a79e6f8a2)" style="fill: #ffff00"/>
   </g>
   <g id="patch_11">
    <path d="M 97.967016 196.049651 
Q 100.206104 196.884126 102.8326 197.378629 
L 100.593512 199.621065 
Q 99.221168 199.408154 97.907919 199.033842 
Q 97.619005 198.958293 93.863115 197.636183 
Q 90.908307 198.312691 87.316573 198.312691 
Q 80.382622 198.312691 76.449444 196.176711 
Q 72.522832 194.040731 72.522832 190.177423 
Q 72.522832 186.324417 76.462576 184.185003 
Q 80.402321 182.045589 87.152417 182.045589 
Q 93.843416 182.045589 97.763462 184.185003 
Q 101.683508 186.324417 101.683508 190.177423 
Q 101.683508 192.21725 100.593512 193.762573 
Q 99.772732 194.943887 97.967016 196.049651 
z
M 93.081732 194.257076 
Q 94.257089 193.535925 94.841485 192.519446 
Q 95.42588 191.499533 95.42588 190.177423 
Q 95.42588 187.45422 93.127696 186.108072 
Q 90.829512 184.75849 87.113019 184.75849 
Q 83.396527 184.75849 81.08521 186.111506 
Q 78.780459 187.464522 78.780459 190.177423 
Q 78.780459 192.934966 81.08521 194.305153 
Q 83.396527 195.671905 86.929165 195.671905 
Q 88.242413 195.671905 89.411204 195.448692 
Q 87.56609 194.813393 85.655314 194.459685 
L 87.362536 192.646506 
Q 90.356742 193.182218 93.081732 194.257076 
z
" clip-path="url(#p3a79e6f8a2)" style="fill: #0000ff"/>
   </g>
   <g id="patch_12">
    <path d="M 88.728125 158.074871 
L 88.728125 147.572377 
L 102.8326 147.572377 
L 102.8326 172.400164 
Q 100.774224 176.222963 96.869675 179.134276 
Q 92.972199 182.045589 88.968622 182.045589 
Q 83.889879 182.045589 80.105579 177.950705 
Q 76.328352 173.842216 74.425592 166.210222 
Q 72.522832 158.578229 72.522832 149.613017 
Q 72.522832 139.872362 74.644869 132.30839 
Q 76.766907 124.744417 80.855366 120.70395 
Q 83.974761 117.602177 88.614949 117.602177 
Q 94.648609 117.602177 98.043869 122.472505 
Q 101.439129 127.329228 102.408193 135.91352 
L 95.914758 138.253454 
Q 95.228633 133.668816 93.332946 131.015984 
Q 91.444332 128.349548 88.614949 128.349548 
Q 84.328434 128.349548 81.796135 133.587191 
Q 79.263837 138.811229 79.263837 149.096055 
Q 79.263837 160.197136 81.824429 165.747677 
Q 84.392095 171.284614 88.551288 171.284614 
Q 90.609664 171.284614 92.675114 169.733727 
Q 94.740564 168.182841 96.218917 165.97895 
L 96.218917 158.074871 
L 88.728125 158.074871 
z
" clip-path="url(#p3a79e6f8a2)" style="fill: #ff69b4"/>
   </g>
   <g id="patch_13">
    <path d="M 115.559122 234.772017 
L 115.559122 228.350244 
L 123.606348 228.350244 
L 123.606348 234.772017 
L 115.559122 234.772017 
z
" clip-path="url(#p3a79e6f8a2)" style="fill: #add8e6"/>
   </g>
   <g id="patch_14">
    <path d="M 104.427851 221.928472 
L 117.767306 221.928472 
Q 122.282199 221.928472 124.65015 222.050431 
Q 127.831097 222.217249 130.096436 222.642002 
Q 132.369669 223.066756 133.553644 223.682159 
Q 134.737619 224.297561 134.737619 225.200338 
Q 134.737619 225.993772 133.632576 226.56712 
Q 132.274951 227.268033 129.75703 227.701198 
Q 127.854776 228.030628 124.62647 228.214267 
Q 122.211161 228.350244 118.161965 228.350244 
L 104.427851 228.350244 
L 104.427851 221.928472 
z
M 111.729032 223.014889 
L 111.729032 227.268033 
L 117.175319 227.268033 
Q 120.237868 227.268033 121.595493 227.206353 
Q 123.371456 227.127851 124.539645 226.940006 
Q 125.707834 226.750759 126.449792 226.320398 
Q 127.19175 225.888635 127.19175 225.142863 
Q 127.19175 224.398492 126.449792 224.000373 
Q 125.707834 223.600853 124.373889 223.377962 
Q 123.047836 223.155071 121.003506 223.075167 
Q 119.472231 223.014889 115.004697 223.014889 
L 111.729032 223.014889 
z
" clip-path="url(#p3a79e6f8a2)" style="fill: #c71585"/>
   </g>
   <g id="patch_15">
    <path d="M 127.925326 219.539795 
L 134.737619 219.924803 
Q 133.173146 220.94155 129.527772 221.435011 
Q 125.882398 221.928472 120.285229 221.928472 
Q 113.351424 221.928472 108.88584 221.083895 
Q 104.427851 220.237961 104.427851 218.77249 
Q 104.427851 217.221613 108.908624 216.364834 
Q 113.396991 215.5067 120.710523 215.5067 
Q 127.097522 215.5067 131.084651 216.179109 
Q 133.454144 216.577673 134.638891 217.323287 
L 127.689896 217.620178 
Q 127.067144 217.137562 125.107756 216.858295 
Q 123.155962 216.577673 120.35358 216.577673 
Q 116.487964 216.577673 114.072904 217.073846 
Q 111.665438 217.568662 111.665438 218.67895 
Q 111.665438 219.85702 114.034931 220.35726 
Q 116.412019 220.856143 120.209284 220.856143 
Q 123.011665 220.856143 125.024216 220.538918 
Q 127.044361 220.221693 127.925326 219.539795 
z
" clip-path="url(#p3a79e6f8a2)" style="fill: #00ff7f"/>
   </g>
   <g id="patch_16">
    <path d="M 104.427851 211.247195 
L 111.751017 211.011459 
Q 112.418238 212.238912 114.436177 212.816059 
Q 116.454116 213.390496 119.887867 213.390496 
Q 123.525039 213.390496 125.363968 212.87838 
Q 127.211033 212.366264 127.211033 211.680733 
Q 127.211033 211.239067 126.438032 210.930171 
Q 125.665031 210.621276 123.728461 210.393669 
Q 122.410291 210.239221 117.707191 209.851747 
Q 111.653374 209.350469 109.212319 208.624294 
Q 105.778568 207.597353 105.778568 206.126035 
Q 105.778568 205.177672 107.389665 204.351242 
Q 109.008898 203.524811 112.043943 203.093983 
Q 115.087125 202.663156 119.383382 202.663156 
Q 126.397348 202.663156 129.945014 203.687388 
Q 133.492681 204.71162 133.671692 206.421383 
L 126.145105 206.532477 
Q 125.665031 205.575985 124.070208 205.155995 
Q 122.483523 204.736006 119.302014 204.736006 
Q 116.022863 204.736006 114.167661 205.185801 
Q 112.971544 205.47302 112.971544 205.95533 
Q 112.971544 206.396996 114.09443 206.708601 
Q 115.518378 207.106914 121.010753 207.540451 
Q 126.503127 207.971279 129.131329 208.434622 
Q 131.767669 208.895255 133.248576 209.69459 
Q 134.737619 210.493924 134.737619 211.672604 
Q 134.737619 212.73748 132.955649 213.669585 
Q 131.181816 214.601691 127.927076 215.054195 
Q 124.672335 215.5067 119.814636 215.5067 
Q 112.743712 215.5067 108.95194 214.420147 
Q 105.168305 213.330884 104.427851 211.247195 
z
" clip-path="url(#p3a79e6f8a2)" style="fill: #ffff00"/>
   </g>
   <g id="patch_17">
    <path d="M 129.872035 197.443427 
Q 132.111123 198.663037 134.737619 199.385768 
L 132.498531 202.663156 
Q 131.126187 202.35198 129.812939 201.804912 
Q 129.524024 201.694494 125.768134 199.762191 
Q 122.813326 200.750928 119.221592 200.750928 
Q 112.287642 200.750928 108.354463 197.629129 
Q 104.427851 194.507329 104.427851 188.860988 
Q 104.427851 183.229704 108.367596 180.102885 
Q 112.30734 176.976067 119.057436 176.976067 
Q 125.748436 176.976067 129.668481 180.102885 
Q 133.588527 183.229704 133.588527 188.860988 
Q 133.588527 191.842256 132.498531 194.100793 
Q 131.677751 195.827318 129.872035 197.443427 
z
M 124.986752 194.823524 
Q 126.162109 193.769541 126.746504 192.283926 
Q 127.3309 190.793291 127.3309 188.860988 
Q 127.3309 184.880945 125.032715 182.913508 
Q 122.734531 180.941053 119.018039 180.941053 
Q 115.301546 180.941053 112.990229 182.918527 
Q 110.685479 184.896002 110.685479 188.860988 
Q 110.685479 192.891221 112.990229 194.89379 
Q 115.301546 196.89134 118.834184 196.89134 
Q 120.147432 196.89134 121.316223 196.565107 
Q 119.471109 195.636598 117.560333 195.119644 
L 119.267556 192.469627 
Q 122.261762 193.252587 124.986752 194.823524 
z
" clip-path="url(#p3a79e6f8a2)" style="fill: #0000ff"/>
   </g>
   <g id="patch_18">
    <path d="M 104.427851 176.976067 
L 104.427851 112.758345 
L 113.914637 112.758345 
L 119.606709 156.565457 
L 125.237134 112.758345 
L 134.737619 112.758345 
L 134.737619 176.976067 
L 128.853757 176.976067 
L 128.853757 126.426164 
L 122.620562 176.976067 
L 116.52436 176.976067 
L 110.318563 126.426164 
L 110.318563 176.976067 
L 104.427851 176.976067 
z
" clip-path="url(#p3a79e6f8a2)" style="fill: #ff8c00"/>
   </g>
   <g id="patch_19">
    <path d="M 137.82487 234.772017 
L 137.82487 227.553194 
L 165.15064 227.553194 
L 165.15064 228.774453 
L 145.872096 228.774453 
L 145.872096 230.48264 
L 162.50593 230.48264 
L 162.50593 231.703899 
L 145.872096 231.703899 
L 145.872096 234.772017 
L 137.82487 234.772017 
z
" clip-path="url(#p3a79e6f8a2)" style="fill: #ff0000"/>
   </g>
   <g id="patch_20">
    <path d="M 136.33287 227.553194 
L 147.477528 223.785414 
L 137.379016 220.334372 
L 145.072104 220.334372 
L 151.612296 222.653976 
L 158.017271 220.334372 
L 165.646309 220.334372 
L 155.505098 223.840567 
L 166.642639 227.553194 
L 158.707586 227.553194 
L 151.47708 225.057099 
L 144.225224 227.553194 
L 136.33287 227.553194 
z
" clip-path="url(#p3a79e6f8a2)" style="fill: #bdb76b"/>
   </g>
   <g id="patch_21">
    <path d="M 136.33287 213.152101 
L 143.656036 212.754609 
Q 144.323258 214.824309 146.341197 215.79748 
Q 148.359136 216.766081 151.792886 216.766081 
Q 155.430059 216.766081 157.268987 215.902564 
Q 159.116052 215.039046 159.116052 213.883121 
Q 159.116052 213.138394 158.343051 212.617543 
Q 157.57005 212.096691 155.63348 211.712906 
Q 154.31531 211.45248 149.612211 210.799131 
Q 143.558394 209.953889 141.117339 208.72943 
Q 137.683588 206.997827 137.683588 204.516928 
Q 137.683588 202.917822 139.294684 201.524315 
Q 140.913917 200.130808 143.948963 199.404357 
Q 146.992145 198.677906 151.288402 198.677906 
Q 158.302367 198.677906 161.850034 200.40494 
Q 165.397701 202.131975 165.576711 205.014935 
L 158.050125 205.202259 
Q 157.57005 203.589446 155.975228 202.881271 
Q 154.388542 202.173095 151.207033 202.173095 
Q 147.927882 202.173095 146.072681 202.931528 
Q 144.876564 203.415829 144.876564 204.229089 
Q 144.876564 204.973815 145.999449 205.499236 
Q 147.423398 206.17086 152.915772 206.90188 
Q 158.408146 207.628331 161.036349 208.409609 
Q 163.672688 209.186318 165.153595 210.534136 
Q 166.642639 211.881954 166.642639 213.869414 
Q 166.642639 215.664982 164.860668 217.236675 
Q 163.086835 218.808368 159.832095 219.57137 
Q 156.577355 220.334372 151.719655 220.334372 
Q 144.648732 220.334372 140.856959 218.502253 
Q 137.073324 216.665566 136.33287 213.152101 
z
" clip-path="url(#p3a79e6f8a2)" style="fill: #ffff00"/>
   </g>
   <g id="patch_22">
    <path d="M 147.649072 198.677906 
L 147.649072 180.685216 
L 136.33287 180.685216 
L 136.33287 177.021439 
L 166.642639 177.021439 
L 166.642639 180.685216 
L 155.351417 180.685216 
L 155.351417 198.677906 
L 147.649072 198.677906 
z
" clip-path="url(#p3a79e6f8a2)" style="fill: #a0522d"/>
   </g>
   <g id="patch_23">
    <path d="M 161.777054 162.352477 
Q 164.016142 165.779936 166.642639 167.811023 
L 164.403551 177.021439 
Q 163.031206 176.146943 161.717958 174.609523 
Q 161.429043 174.299218 157.673154 168.868881 
Q 154.718345 171.647521 151.126611 171.647521 
Q 144.192661 171.647521 140.259483 162.874353 
Q 136.33287 154.101185 136.33287 138.233317 
Q 136.33287 122.407763 140.272615 113.62049 
Q 144.21236 104.833218 150.962455 104.833218 
Q 157.653455 104.833218 161.573501 113.62049 
Q 165.493547 122.407763 165.493547 138.233317 
Q 165.493547 146.611551 164.403551 152.958699 
Q 163.58277 157.81074 161.777054 162.352477 
z
M 156.891771 154.989786 
Q 158.067128 152.027784 158.651523 147.852771 
Q 159.235919 143.663654 159.235919 138.233317 
Q 159.235919 127.048233 156.937735 121.519163 
Q 154.63955 115.975987 150.923058 115.975987 
Q 147.206565 115.975987 144.895249 121.533267 
Q 142.590498 127.090547 142.590498 138.233317 
Q 142.590498 149.559449 144.895249 155.187253 
Q 147.206565 160.800952 150.739203 160.800952 
Q 152.052451 160.800952 153.221242 159.884142 
Q 151.376128 157.274759 149.465352 155.821967 
L 151.172575 148.374648 
Q 154.166781 150.574992 156.891771 154.989786 
z
" clip-path="url(#p3a79e6f8a2)" style="fill: #0000ff"/>
   </g>
   <g id="patch_24">
    <path d="M 184.443182 231.96861 
L 184.443182 230.74033 
L 198.547658 230.74033 
L 198.547658 233.643972 
Q 196.489282 234.091053 192.584733 234.431535 
Q 188.687257 234.772017 184.68368 234.772017 
Q 179.604937 234.772017 175.820637 234.293115 
Q 172.04341 233.812622 170.14065 232.92005 
Q 168.23789 232.027479 168.23789 230.978986 
Q 168.23789 229.839804 170.359927 228.955187 
Q 172.481965 228.070571 176.570423 227.598033 
Q 179.689819 227.235277 184.330007 227.235277 
Q 190.363667 227.235277 193.758927 227.804868 
Q 197.154187 228.372868 198.123251 229.376812 
L 191.629816 229.65047 
Q 190.943691 229.114291 189.048004 228.804039 
Q 187.15939 228.492196 184.330007 228.492196 
Q 180.043491 228.492196 177.511193 229.104745 
Q 174.978895 229.715703 174.978895 230.918526 
Q 174.978895 232.216812 177.539487 232.865955 
Q 180.107153 233.513507 184.266346 233.513507 
Q 186.324722 233.513507 188.390172 233.332129 
Q 190.455622 233.15075 191.933975 232.893003 
L 191.933975 231.96861 
L 184.443182 231.96861 
z
" clip-path="url(#p3a79e6f8a2)" style="fill: #ff69b4"/>
   </g>
   <g id="patch_25">
    <path d="M 168.23789 223.510661 
Q 168.23789 222.396935 169.67017 221.641193 
Q 170.734149 221.08433 172.575651 220.642022 
Q 174.417154 220.199714 176.613316 219.986515 
Q 179.532439 219.698538 183.351852 219.698538 
Q 190.254076 219.698538 194.400867 220.697708 
Q 198.547658 221.696879 198.547658 223.477249 
Q 198.547658 225.241708 194.434969 226.239288 
Q 190.32228 227.235277 183.433696 227.235277 
Q 176.463268 227.235277 172.350579 226.244061 
Q 168.23789 225.251255 168.23789 223.510661 
z
M 174.737712 223.461339 
Q 174.737712 224.699165 177.186228 225.338762 
Q 179.641565 225.976767 183.413235 225.976767 
Q 187.184905 225.976767 189.60614 225.343535 
Q 192.027375 224.710302 192.027375 223.442246 
Q 192.027375 222.18851 189.667523 221.572778 
Q 187.314492 220.955456 183.413235 220.955456 
Q 179.511978 220.955456 177.124845 221.580734 
Q 174.737712 222.20442 174.737712 223.461339 
z
" clip-path="url(#p3a79e6f8a2)" style="fill: #006400"/>
   </g>
   <g id="patch_26">
    <path d="M 168.23789 217.199011 
L 175.561055 217.060679 
Q 176.228277 217.780962 178.246216 218.119638 
Q 180.264155 218.456725 183.697906 218.456725 
Q 187.335078 218.456725 189.174006 218.156209 
Q 191.021071 217.855693 191.021071 217.453416 
Q 191.021071 217.194241 190.24807 217.012978 
Q 189.47507 216.831715 187.538499 216.698152 
Q 186.220329 216.60752 181.51723 216.380146 
Q 175.463413 216.085991 173.022358 215.659863 
Q 169.588607 215.057242 169.588607 214.193856 
Q 169.588607 213.637345 171.199703 213.152386 
Q 172.818937 212.667427 175.853982 212.414613 
Q 178.897164 212.161798 183.193421 212.161798 
Q 190.207386 212.161798 193.755053 212.762829 
Q 197.30272 213.36386 197.481731 214.367169 
L 189.955144 214.43236 
Q 189.47507 213.87108 187.880247 213.624625 
Q 186.293561 213.378171 183.112053 213.378171 
Q 179.832902 213.378171 177.9777 213.642115 
Q 176.781583 213.810659 176.781583 214.093684 
Q 176.781583 214.352859 177.904468 214.535712 
Q 179.328417 214.769446 184.820791 215.023851 
Q 190.313165 215.276666 192.941368 215.548561 
Q 195.577708 215.818866 197.058614 216.287924 
Q 198.547658 216.756983 198.547658 217.448646 
Q 198.547658 218.073527 196.765688 218.620498 
Q 194.991854 219.167468 191.737114 219.433003 
Q 188.482374 219.698538 183.624674 219.698538 
Q 176.553751 219.698538 172.761979 219.060936 
Q 168.978343 218.421744 168.23789 217.199011 
z
" clip-path="url(#p3a79e6f8a2)" style="fill: #ffff00"/>
   </g>
   <g id="patch_27">
    <path d="M 168.23789 212.161798 
L 179.382547 208.228084 
L 169.284036 204.625059 
L 176.977123 204.625059 
L 183.517315 207.046818 
L 189.922291 204.625059 
L 197.551329 204.625059 
L 187.410117 208.285667 
L 198.547658 212.161798 
L 190.612605 212.161798 
L 183.382099 209.555774 
L 176.130243 212.161798 
L 168.23789 212.161798 
z
" clip-path="url(#p3a79e6f8a2)" style="fill: #bdb76b"/>
   </g>
   <g id="patch_28">
    <path d="M 188.125413 197.088319 
L 196.14654 197.088319 
L 196.14654 201.779571 
Q 196.14654 202.69841 195.276569 203.195035 
Q 194.102109 203.842105 191.031114 204.233582 
Q 187.960118 204.625059 182.93169 204.625059 
Q 177.03329 204.625059 173.849199 204.01196 
Q 170.673807 203.397245 170.639008 202.208255 
L 178.22515 202.046487 
Q 178.364345 202.683851 179.234315 202.947531 
Q 180.539271 203.345479 183.20138 203.345479 
Q 185.898289 203.345479 187.011851 203.060769 
Q 188.125413 202.77444 188.125413 201.875014 
L 188.125413 197.088319 
z
" clip-path="url(#p3a79e6f8a2)" style="fill: #7b68ee"/>
   </g>
   <g id="patch_29">
    <path d="M 193.682073 194.025322 
Q 195.921162 194.741003 198.547658 195.16511 
L 196.30857 197.088319 
Q 194.936226 196.905717 193.622977 196.584692 
Q 193.334063 196.519898 189.578173 195.386 
Q 186.623364 195.966202 183.031631 195.966202 
Q 176.09768 195.966202 172.164502 194.134294 
Q 168.23789 192.302386 168.23789 188.989048 
Q 168.23789 185.684546 172.177634 183.849693 
Q 176.117379 182.01484 182.867475 182.01484 
Q 189.558474 182.01484 193.47852 183.849693 
Q 197.398566 185.684546 197.398566 188.989048 
Q 197.398566 190.738491 196.30857 192.063826 
Q 195.48779 193.076971 193.682073 194.025322 
z
M 188.79679 192.487933 
Q 189.972147 191.869444 190.556543 190.997668 
Q 191.140938 190.122946 191.140938 188.989048 
Q 191.140938 186.653513 188.842754 185.498999 
Q 186.54457 184.34154 182.828077 184.34154 
Q 179.111585 184.34154 176.800268 185.501944 
Q 174.495517 186.662349 174.495517 188.989048 
Q 174.495517 191.354035 176.800268 192.529166 
Q 179.111585 193.701351 182.644222 193.701351 
Q 183.957471 193.701351 185.126262 193.509914 
Q 183.281148 192.965054 181.370372 192.6617 
L 183.077594 191.10664 
Q 186.0718 191.566089 188.79679 192.487933 
z
" clip-path="url(#p3a79e6f8a2)" style="fill: #0000ff"/>
   </g>
   <g id="patch_30">
    <path d="M 179.554092 182.01484 
L 179.554092 131.92127 
L 168.23789 131.92127 
L 168.23789 121.720924 
L 198.547658 121.720924 
L 198.547658 131.92127 
L 187.256437 131.92127 
L 187.256437 182.01484 
L 179.554092 182.01484 
z
" clip-path="url(#p3a79e6f8a2)" style="fill: #a0522d"/>
   </g>
   <g id="patch_31">
    <path d="M 216.348202 233.040339 
L 216.348202 232.281625 
L 230.452677 232.281625 
L 230.452677 234.075218 
Q 228.394301 234.351382 224.489752 234.561699 
Q 220.592277 234.772017 216.588699 234.772017 
Q 211.509956 234.772017 207.725656 234.476197 
Q 203.94843 234.179394 202.045669 233.628048 
Q 200.142909 233.076702 200.142909 232.429043 
Q 200.142909 231.725365 202.264946 231.178933 
Q 204.386984 230.632501 208.475443 230.340613 
Q 211.594838 230.116536 216.235026 230.116536 
Q 222.268686 230.116536 225.663946 230.468375 
Q 229.059206 230.819232 230.02827 231.439373 
L 223.534835 231.608413 
Q 222.84871 231.277212 220.953023 231.085568 
Q 219.06441 230.892941 216.235026 230.892941 
Q 211.948511 230.892941 209.416213 231.271316 
Q 206.883915 231.648707 206.883915 232.391697 
Q 206.883915 233.193654 209.444507 233.594633 
Q 212.012172 233.994629 216.171365 233.994629 
Q 218.229742 233.994629 220.295191 233.882591 
Q 222.360641 233.770553 223.838994 233.611341 
L 223.838994 233.040339 
L 216.348202 233.040339 
z
" clip-path="url(#p3a79e6f8a2)" style="fill: #ff69b4"/>
   </g>
   <g id="patch_32">
    <path d="M 200.142909 225.461056 
L 207.815743 225.461056 
L 207.815743 227.940182 
Q 207.815743 228.530735 208.106067 228.705603 
Q 208.595469 228.986391 210.445244 229.156262 
Q 212.303314 229.326134 215.521757 229.326134 
Q 218.781675 229.326134 220.440666 229.166255 
Q 222.099657 229.005376 222.43975 228.771553 
Q 222.779843 228.536731 222.779843 227.993142 
L 222.779843 225.461056 
L 230.452677 225.461056 
L 230.452677 227.865238 
Q 230.452677 228.689615 229.830556 229.030357 
Q 229.208434 229.370101 227.532853 229.604923 
Q 225.857272 229.838746 223.053577 229.977641 
Q 220.258177 230.116536 215.754016 230.116536 
Q 210.30423 230.116536 207.49224 229.96565 
Q 204.68025 229.813765 203.046144 229.571948 
Q 201.420332 229.330131 200.89775 229.064332 
Q 200.142909 228.670629 200.142909 227.90221 
L 200.142909 225.461056 
z
" clip-path="url(#p3a79e6f8a2)" style="fill: #f08080"/>
   </g>
   <g id="patch_33">
    <path d="M 200.142909 225.461056 
L 200.142909 220.805576 
L 206.929773 220.805576 
L 206.929773 222.872646 
L 220.642907 220.805576 
L 229.770322 220.805576 
L 217.113738 222.618581 
L 230.452677 225.461056 
L 221.677445 225.461056 
L 212.432636 223.2761 
L 206.929773 224.054554 
L 206.929773 225.461056 
L 200.142909 225.461056 
z
" clip-path="url(#p3a79e6f8a2)" style="fill: #6495ed"/>
   </g>
   <g id="patch_34">
    <path d="M 205.658359 220.805576 
L 200.142909 216.150095 
L 204.917252 216.150095 
L 208.395918 219.348261 
L 212.620733 216.150095 
L 218.166432 216.150095 
L 222.214793 219.402123 
L 225.758999 216.150095 
L 230.452677 216.150095 
L 224.846479 220.805576 
L 219.900724 220.805576 
L 215.297793 217.32489 
L 210.715029 220.805576 
L 205.658359 220.805576 
z
" clip-path="url(#p3a79e6f8a2)" style="fill: #9acd32"/>
   </g>
   <g id="patch_35">
    <path d="M 200.142909 216.150095 
L 211.287567 213.720221 
L 201.189055 211.494615 
L 208.882143 211.494615 
L 215.422334 212.990548 
L 221.82731 211.494615 
L 229.456348 211.494615 
L 219.315136 213.75579 
L 230.452677 216.150095 
L 222.517624 216.150095 
L 215.287118 214.540342 
L 208.035262 216.150095 
L 200.142909 216.150095 
z
" clip-path="url(#p3a79e6f8a2)" style="fill: #bdb76b"/>
   </g>
   <g id="patch_36">
    <path d="M 201.634908 211.494615 
L 201.634908 206.839135 
L 228.960678 206.839135 
L 228.960678 207.626735 
L 209.682134 207.626735 
L 209.682134 208.72836 
L 226.315968 208.72836 
L 226.315968 209.51596 
L 209.682134 209.51596 
L 209.682134 211.494615 
L 201.634908 211.494615 
z
" clip-path="url(#p3a79e6f8a2)" style="fill: #ff0000"/>
   </g>
   <g id="patch_37">
    <path d="M 220.030432 202.183655 
L 228.051559 202.183655 
L 228.051559 205.081464 
Q 228.051559 205.649035 227.181589 205.955803 
Q 226.007129 206.355501 222.936133 206.597318 
Q 219.865138 206.839135 214.836709 206.839135 
Q 208.93831 206.839135 205.754218 206.460421 
Q 202.578826 206.080708 202.544027 205.346264 
L 210.130169 205.246339 
Q 210.269364 205.640042 211.139335 205.802918 
Q 212.44429 206.048733 215.1064 206.048733 
Q 217.803308 206.048733 218.91687 205.872866 
Q 220.030432 205.695999 220.030432 205.140419 
L 220.030432 202.183655 
z
" clip-path="url(#p3a79e6f8a2)" style="fill: #7b68ee"/>
   </g>
   <g id="patch_38">
    <path d="M 211.459111 202.183655 
L 211.459111 194.447895 
L 200.142909 194.447895 
L 200.142909 192.872694 
L 230.452677 192.872694 
L 230.452677 194.447895 
L 219.161456 194.447895 
L 219.161456 202.183655 
L 211.459111 202.183655 
z
" clip-path="url(#p3a79e6f8a2)" style="fill: #a0522d"/>
   </g>
   <g id="patch_39">
    <path d="M 225.587093 190.034652 
Q 227.826181 190.697772 230.452677 191.090731 
L 228.213589 192.872694 
Q 226.841245 192.703503 225.527997 192.406055 
Q 225.239082 192.346019 221.483192 191.295398 
Q 218.528384 191.832988 214.93665 191.832988 
Q 208.002699 191.832988 204.069521 190.135621 
Q 200.142909 188.438254 200.142909 185.368256 
Q 200.142909 182.306446 204.082654 180.60635 
Q 208.022398 178.906253 214.772494 178.906253 
Q 221.463493 178.906253 225.383539 180.60635 
Q 229.303585 182.306446 229.303585 185.368256 
Q 229.303585 186.989215 228.213589 188.217214 
Q 227.392809 189.155951 225.587093 190.034652 
z
M 220.70181 188.610174 
Q 221.877167 188.037107 222.461562 187.229357 
Q 223.045958 186.418878 223.045958 185.368256 
Q 223.045958 183.20425 220.747773 182.134526 
Q 218.449589 181.062074 214.733096 181.062074 
Q 211.016604 181.062074 208.705287 182.137255 
Q 206.400537 183.212436 206.400537 185.368256 
Q 206.400537 187.559552 208.705287 188.648378 
Q 211.016604 189.734475 214.549242 189.734475 
Q 215.86249 189.734475 217.031281 189.557097 
Q 215.186167 189.052253 213.275391 188.771178 
L 214.982614 187.330326 
Q 217.97682 187.756032 220.70181 188.610174 
z
" clip-path="url(#p3a79e6f8a2)" style="fill: #0000ff"/>
   </g>
   <g id="patch_40">
    <path d="M 200.142909 174.274345 
L 207.466075 174.017999 
Q 208.133296 175.352767 210.151235 175.980372 
Q 212.169174 176.605032 215.602925 176.605032 
Q 219.240097 176.605032 221.079026 176.048142 
Q 222.926091 175.491252 222.926091 174.745786 
Q 222.926091 174.265506 222.15309 173.929604 
Q 221.380089 173.593702 219.443519 173.346196 
Q 218.125349 173.178245 213.422249 172.756894 
Q 207.368432 172.211791 204.927377 171.422127 
Q 201.493626 170.305401 201.493626 168.705448 
Q 201.493626 167.674171 203.104723 166.775486 
Q 204.723956 165.876802 207.759001 165.408307 
Q 210.802183 164.939813 215.09844 164.939813 
Q 222.112406 164.939813 225.660072 166.053592 
Q 229.207739 167.167371 229.38675 169.026617 
L 221.860163 169.147424 
Q 221.380089 168.107307 219.785266 167.650599 
Q 218.19858 167.19389 215.017072 167.19389 
Q 211.737921 167.19389 209.882719 167.68301 
Q 208.686602 167.99534 208.686602 168.519818 
Q 208.686602 169.000099 209.809487 169.338947 
Q 211.233436 169.772083 216.72581 170.243524 
Q 222.218185 170.712019 224.846387 171.215871 
Q 227.482727 171.716778 228.963634 172.585997 
Q 230.452677 173.455216 230.452677 174.736947 
Q 230.452677 175.894924 228.670707 176.908522 
Q 226.896874 177.92212 223.642133 178.414187 
Q 220.387393 178.906253 215.529693 178.906253 
Q 208.45877 178.906253 204.666998 177.724704 
Q 200.883362 176.540209 200.142909 174.274345 
z
" clip-path="url(#p3a79e6f8a2)" style="fill: #ffff00"/>
   </g>
   <g id="patch_41">
    <path d="M 232.047928 234.772017 
L 232.047928 226.565389 
L 239.704 226.565389 
L 239.704 229.795372 
L 254.701625 229.795372 
L 254.701625 226.565389 
L 262.357697 226.565389 
L 262.357697 234.772017 
L 254.701625 234.772017 
L 254.701625 231.183744 
L 239.704 231.183744 
L 239.704 234.772017 
L 232.047928 234.772017 
z
" clip-path="url(#p3a79e6f8a2)" style="fill: #00ffff"/>
   </g>
   <g id="patch_42">
    <path d="M 232.047928 222.509718 
Q 232.047928 221.297001 233.480208 220.474086 
Q 234.544187 219.867728 236.38569 219.386106 
Q 238.227193 218.904484 240.423355 218.672336 
Q 243.342477 218.358762 247.16189 218.358762 
Q 254.064115 218.358762 258.210906 219.446742 
Q 262.357697 220.534722 262.357697 222.473336 
Q 262.357697 224.394626 258.245008 225.480874 
Q 254.132318 226.565389 247.243735 226.565389 
Q 240.273307 226.565389 236.160617 225.486071 
Q 232.047928 224.405021 232.047928 222.509718 
z
M 238.54775 222.456012 
Q 238.54775 223.80386 240.996267 224.500306 
Q 243.451604 225.195019 247.223274 225.195019 
Q 250.994944 225.195019 253.416179 224.505503 
Q 255.837413 223.815987 255.837413 222.435223 
Q 255.837413 221.07005 253.477562 220.399591 
Q 251.124531 219.727399 247.223274 219.727399 
Q 243.322016 219.727399 240.934883 220.408253 
Q 238.54775 221.087375 238.54775 222.456012 
z
" clip-path="url(#p3a79e6f8a2)" style="fill: #006400"/>
   </g>
   <g id="patch_43">
    <path d="M 232.047928 218.358762 
L 232.047928 210.152135 
L 238.834792 210.152135 
L 238.834792 213.795942 
L 252.547927 210.152135 
L 261.675342 210.152135 
L 249.018757 213.348079 
L 262.357697 218.358762 
L 253.582465 218.358762 
L 244.337655 214.507147 
L 238.834792 215.879397 
L 238.834792 218.358762 
L 232.047928 218.358762 
z
" clip-path="url(#p3a79e6f8a2)" style="fill: #6495ed"/>
   </g>
   <g id="patch_44">
    <path d="M 232.047928 204.708751 
L 239.371094 204.407495 
Q 240.038316 205.976104 242.056255 206.713662 
Q 244.074193 207.447757 247.507944 207.447757 
Q 251.145117 207.447757 252.984045 206.793304 
Q 254.83111 206.138851 254.83111 205.262785 
Q 254.83111 204.698363 254.058109 204.303614 
Q 253.285108 203.908865 251.348538 203.617997 
Q 250.030368 203.420623 245.327268 202.925455 
Q 239.273452 202.284853 236.832396 201.356846 
Q 233.398646 200.044478 233.398646 198.164226 
Q 233.398646 196.952277 235.009742 195.896149 
Q 236.628975 194.840022 239.66402 194.289451 
Q 242.707203 193.73888 247.00346 193.73888 
Q 254.017425 193.73888 257.565092 195.047785 
Q 261.112759 196.35669 261.291769 198.541661 
L 253.765182 198.683633 
Q 253.285108 197.461295 251.690286 196.924575 
Q 250.1036 196.387855 246.922091 196.387855 
Q 243.64294 196.387855 241.787738 196.962665 
Q 240.591621 197.329712 240.591621 197.946075 
Q 240.591621 198.510497 241.714507 198.908709 
Q 243.138456 199.417727 248.63083 199.971761 
Q 254.123204 200.522333 256.751407 201.114456 
Q 259.387746 201.703117 260.868653 202.724617 
Q 262.357697 203.746117 262.357697 205.252397 
Q 262.357697 206.613243 260.575726 207.804416 
Q 258.801893 208.995589 255.547153 209.573862 
Q 252.292413 210.152135 247.434713 210.152135 
Q 240.36379 210.152135 236.572017 208.763587 
Q 232.788382 207.371577 232.047928 204.708751 
z
" clip-path="url(#p3a79e6f8a2)" style="fill: #ffff00"/>
   </g>
   <g id="patch_45">
    <path d="M 257.492112 187.068389 
Q 259.7312 188.626975 262.357697 189.550582 
L 260.118608 193.73888 
Q 258.746264 193.341216 257.433016 192.642097 
Q 257.144101 192.500991 253.388211 190.031627 
Q 250.433403 191.295171 246.841669 191.295171 
Q 239.907719 191.295171 235.97454 187.305705 
Q 232.047928 183.316239 232.047928 176.100564 
Q 232.047928 168.904131 235.987673 164.908251 
Q 239.927417 160.912371 246.677513 160.912371 
Q 253.368513 160.912371 257.288559 164.908251 
Q 261.208604 168.904131 261.208604 176.100564 
Q 261.208604 179.91044 260.118608 182.79671 
Q 259.297828 185.003103 257.492112 187.068389 
z
M 252.606829 183.720316 
Q 253.782186 182.373391 254.366581 180.474866 
Q 254.950977 178.569928 254.950977 176.100564 
Q 254.950977 171.014315 252.652793 168.500053 
Q 250.354608 165.979378 246.638116 165.979378 
Q 242.921623 165.979378 240.610307 168.506467 
Q 238.305556 171.033557 238.305556 176.100564 
Q 238.305556 181.250952 240.610307 183.810112 
Q 242.921623 186.362857 246.454261 186.362857 
Q 247.767509 186.362857 248.9363 185.945951 
Q 247.091186 184.759374 245.18041 184.098738 
L 246.887633 180.712182 
Q 249.881839 181.712755 252.606829 183.720316 
z
" clip-path="url(#p3a79e6f8a2)" style="fill: #0000ff"/>
   </g>
   <g id="patch_46">
    <path d="M 243.36413 160.912371 
L 243.36413 133.639353 
L 232.047928 133.639353 
L 232.047928 128.085861 
L 262.357697 128.085861 
L 262.357697 133.639353 
L 251.066475 133.639353 
L 251.066475 160.912371 
L 243.36413 160.912371 
z
" clip-path="url(#p3a79e6f8a2)" style="fill: #a0522d"/>
   </g>
   <g id="patch_47">
    <path d="M 263.952948 234.772017 
L 263.952948 224.537464 
L 271.459495 224.537464 
L 287.098134 231.37167 
L 287.098134 224.537464 
L 294.262716 224.537464 
L 294.262716 234.772017 
L 286.522632 234.772017 
L 271.11753 228.096434 
L 271.11753 234.772017 
L 263.952948 234.772017 
z
" clip-path="url(#p3a79e6f8a2)" style="fill: #00bfff"/>
   </g>
   <g id="patch_48">
    <path d="M 263.952948 224.537464 
L 263.952948 214.302911 
L 293.505842 214.302911 
L 293.505842 216.034362 
L 272.000174 216.034362 
L 272.000174 218.302005 
L 292.009493 218.302005 
L 292.009493 220.026754 
L 272.000174 220.026754 
L 272.000174 222.812715 
L 294.262716 222.812715 
L 294.262716 224.537464 
L 263.952948 224.537464 
z
" clip-path="url(#p3a79e6f8a2)" style="fill: #c0c0c0"/>
   </g>
   <g id="patch_49">
    <path d="M 263.952948 214.302911 
L 263.952948 204.068358 
L 278.279998 204.068358 
Q 283.681156 204.068358 286.131545 204.34539 
Q 288.581934 204.620188 290.053639 205.326174 
Q 291.525344 206.029925 291.525344 206.936982 
Q 291.525344 208.089793 289.288352 208.840461 
Q 287.058719 209.591129 282.621528 209.785499 
Q 284.829086 210.176471 286.263998 210.645639 
Q 287.706269 211.112572 290.141941 212.305598 
L 294.262716 214.302911 
L 286.116828 214.302911 
L 281.201332 212.075483 
Q 278.574339 210.882457 277.610372 210.571913 
Q 276.646405 210.261368 275.564702 210.145194 
Q 274.482998 210.029019 272.135628 210.029019 
L 270.759584 210.029019 
L 270.759584 214.302911 
L 263.952948 214.302911 
z
M 270.759584 208.395869 
L 275.792816 208.395869 
Q 280.693594 208.395869 281.907751 208.270758 
Q 283.129266 208.145647 283.820968 207.839571 
Q 284.512669 207.531261 284.512669 207.068796 
Q 284.512669 206.552711 283.600212 206.235465 
Q 282.695113 205.918218 281.039445 205.833321 
Q 280.207931 205.799809 276.07244 205.799809 
L 270.759584 205.799809 
L 270.759584 208.395869 
z
" clip-path="url(#p3a79e6f8a2)" style="fill: #ffe4b5"/>
   </g>
   <g id="patch_50">
    <path d="M 263.952948 200.674114 
L 271.276113 200.486265 
Q 271.943335 201.464377 273.961274 201.924284 
Q 275.979213 202.382032 279.412964 202.382032 
Q 283.050136 202.382032 284.889064 201.973945 
Q 286.736129 201.565859 286.736129 201.019584 
Q 286.736129 200.667636 285.963128 200.421489 
Q 285.190128 200.175341 283.253557 199.99397 
Q 281.935387 199.870896 277.232288 199.562132 
Q 271.178471 199.162682 268.737416 198.58402 
Q 265.303665 197.765687 265.303665 196.593248 
Q 265.303665 195.837532 266.914761 195.17898 
Q 268.533995 194.520427 271.56904 194.177116 
Q 274.612222 193.833805 278.908479 193.833805 
Q 285.922444 193.833805 289.470111 194.649978 
Q 293.017778 195.466152 293.196789 196.828599 
L 285.670202 196.917126 
Q 285.190128 196.154933 283.595305 195.820258 
Q 282.008619 195.485584 278.82711 195.485584 
Q 275.54796 195.485584 273.692758 195.84401 
Q 272.496641 196.072884 272.496641 196.457219 
Q 272.496641 196.809167 273.619526 197.057473 
Q 275.043475 197.374874 280.535849 197.720344 
Q 286.028223 198.063655 288.656426 198.432876 
Q 291.292766 198.799938 292.773672 199.436899 
Q 294.262716 200.07386 294.262716 201.013107 
Q 294.262716 201.861668 292.480746 202.604428 
Q 290.706912 203.347189 287.452172 203.707774 
Q 284.197432 204.068358 279.339732 204.068358 
Q 272.268809 204.068358 268.477037 203.202524 
Q 264.693401 202.33453 263.952948 200.674114 
z
" clip-path="url(#p3a79e6f8a2)" style="fill: #ffff00"/>
   </g>
   <g id="patch_51">
    <path d="M 269.468398 193.833805 
L 263.952948 183.599252 
L 268.727291 183.599252 
L 272.205957 190.630062 
L 276.430771 183.599252 
L 281.976471 183.599252 
L 286.024831 190.748471 
L 289.569038 183.599252 
L 294.262716 183.599252 
L 288.656518 193.833805 
L 283.710762 193.833805 
L 279.107832 186.181907 
L 274.525067 193.833805 
L 269.468398 193.833805 
z
" clip-path="url(#p3a79e6f8a2)" style="fill: #9acd32"/>
   </g>
   <g id="patch_52">
    <path d="M 263.952948 183.599252 
L 275.097605 178.257446 
L 264.999094 173.3647 
L 272.692181 173.3647 
L 279.232373 176.65334 
L 285.637349 173.3647 
L 293.266386 173.3647 
L 283.125175 178.33564 
L 294.262716 183.599252 
L 286.327663 183.599252 
L 279.097157 180.060389 
L 271.845301 183.599252 
L 263.952948 183.599252 
z
" clip-path="url(#p3a79e6f8a2)" style="fill: #bdb76b"/>
   </g>
   <g id="patch_53">
    <path d="M 265.444947 173.3647 
L 265.444947 142.661041 
L 292.770717 142.661041 
L 292.770717 147.855395 
L 273.492173 147.855395 
L 273.492173 155.120788 
L 290.126007 155.120788 
L 290.126007 160.315142 
L 273.492173 160.315142 
L 273.492173 173.3647 
L 265.444947 173.3647 
z
" clip-path="url(#p3a79e6f8a2)" style="fill: #ff0000"/>
   </g>
   <g id="patch_54">
    <path d="M 312.06326 231.120209 
L 312.06326 229.520212 
L 326.167735 229.520212 
L 326.167735 233.302589 
Q 324.109359 233.884971 320.20481 234.328494 
Q 316.307335 234.772017 312.303757 234.772017 
Q 307.225014 234.772017 303.440714 234.148183 
Q 299.663487 233.522278 297.760727 232.359585 
Q 295.857967 231.196893 295.857967 229.831092 
Q 295.857967 228.347157 297.980004 227.194827 
Q 300.102042 226.042498 304.190501 225.426955 
Q 307.309896 224.954417 311.950084 224.954417 
Q 317.983744 224.954417 321.379004 225.696384 
Q 324.774264 226.436279 325.743328 227.744049 
L 319.249893 228.100525 
Q 318.563768 227.402081 316.668081 226.997936 
Q 314.779468 226.59172 311.950084 226.59172 
Q 307.663569 226.59172 305.131271 227.389646 
Q 302.598973 228.185499 302.598973 229.752336 
Q 302.598973 231.443525 305.159564 232.289119 
Q 307.72723 233.132641 311.886423 233.132641 
Q 313.9448 233.132641 316.010249 232.896372 
Q 318.075699 232.660103 319.554052 232.324352 
L 319.554052 231.120209 
L 312.06326 231.120209 
z
" clip-path="url(#p3a79e6f8a2)" style="fill: #ff69b4"/>
   </g>
   <g id="patch_55">
    <path d="M 295.857967 221.698453 
L 303.181132 221.518257 
Q 303.848354 222.456521 305.866293 222.897692 
Q 307.884232 223.336791 311.317983 223.336791 
Q 314.955155 223.336791 316.794083 222.94533 
Q 318.641149 222.553868 318.641149 222.029849 
Q 318.641149 221.692239 317.868148 221.45612 
Q 317.095147 221.22 315.158576 221.046018 
Q 313.840407 220.927958 309.137307 220.631773 
Q 303.08349 220.248596 300.642435 219.693509 
Q 297.208684 218.908515 297.208684 217.78384 
Q 297.208684 217.058912 298.819781 216.427189 
Q 300.439014 215.795466 303.474059 215.466141 
Q 306.517241 215.136817 310.813498 215.136817 
Q 317.827463 215.136817 321.37513 215.919739 
Q 324.922797 216.702662 325.101808 218.009604 
L 317.575221 218.094524 
Q 317.095147 217.363382 315.500324 217.042342 
Q 313.913638 216.721303 310.73213 216.721303 
Q 307.452979 216.721303 305.597777 217.065126 
Q 304.40166 217.284675 304.40166 217.653353 
Q 304.40166 217.990963 305.524545 218.229153 
Q 306.948494 218.533623 312.440868 218.865019 
Q 317.933243 219.194344 320.561445 219.548523 
Q 323.197785 219.900631 324.678692 220.511642 
Q 326.167735 221.122653 326.167735 222.023635 
Q 326.167735 222.837626 324.385765 223.550127 
Q 322.611932 224.262628 319.357191 224.608522 
Q 316.102451 224.954417 311.244751 224.954417 
Q 304.173828 224.954417 300.382056 224.123856 
Q 296.59842 223.291224 295.857967 221.698453 
z
" clip-path="url(#p3a79e6f8a2)" style="fill: #ffff00"/>
   </g>
   <g id="patch_56">
    <path d="M 307.174169 215.136817 
L 307.174169 206.980129 
L 295.857967 206.980129 
L 295.857967 205.319217 
L 326.167735 205.319217 
L 326.167735 206.980129 
L 314.876514 206.980129 
L 314.876514 215.136817 
L 307.174169 215.136817 
z
" clip-path="url(#p3a79e6f8a2)" style="fill: #a0522d"/>
   </g>
   <g id="patch_57">
    <path d="M 301.373417 205.319217 
L 295.857967 195.501617 
L 300.63231 195.501617 
L 304.110976 202.245993 
L 308.335791 195.501617 
L 313.88149 195.501617 
L 317.929851 202.359578 
L 321.474057 195.501617 
L 326.167735 195.501617 
L 320.561537 205.319217 
L 315.615782 205.319217 
L 311.012851 197.979055 
L 306.430087 205.319217 
L 301.373417 205.319217 
z
" clip-path="url(#p3a79e6f8a2)" style="fill: #9acd32"/>
   </g>
   <g id="patch_58">
    <path d="M 295.857967 195.501617 
L 307.002625 190.377434 
L 296.904113 185.684017 
L 304.5972 185.684017 
L 311.137392 188.838679 
L 317.542368 185.684017 
L 325.171406 185.684017 
L 315.030194 190.452443 
L 326.167735 195.501617 
L 318.232682 195.501617 
L 311.002176 192.106926 
L 303.75032 195.501617 
L 295.857967 195.501617 
z
" clip-path="url(#p3a79e6f8a2)" style="fill: #bdb76b"/>
   </g>
   <g id="patch_59">
    <path d="M 295.857967 175.980406 
Q 295.857967 173.078857 297.290247 171.109948 
Q 298.354226 169.659173 300.195729 168.506844 
Q 302.037231 167.354514 304.233393 166.799074 
Q 307.152516 166.048817 310.971929 166.048817 
Q 317.874153 166.048817 322.020944 168.651921 
Q 326.167735 171.255025 326.167735 175.89336 
Q 326.167735 180.490243 322.055046 183.089202 
Q 317.942357 185.684017 311.053773 185.684017 
Q 304.083345 185.684017 299.970656 183.101638 
Q 295.857967 180.515113 295.857967 175.980406 
z
M 302.357789 175.851909 
Q 302.357789 179.076774 304.806305 180.743092 
Q 307.261642 182.405266 311.033312 182.405266 
Q 314.804982 182.405266 317.226217 180.755527 
Q 319.647452 179.105789 319.647452 175.802168 
Q 319.647452 172.535852 317.287601 170.93171 
Q 314.93457 169.323422 311.033312 169.323422 
Q 307.132055 169.323422 304.744922 170.952435 
Q 302.357789 172.577303 302.357789 175.851909 
z
" clip-path="url(#p3a79e6f8a2)" style="fill: #006400"/>
   </g>
   <g id="patch_60">
    <path d="M 321.302151 162.058858 
Q 323.541239 162.991127 326.167735 163.543583 
L 323.928647 166.048817 
Q 322.556303 165.810954 321.243055 165.392775 
Q 320.95414 165.308372 317.19825 163.83132 
Q 314.243442 164.587111 310.651708 164.587111 
Q 303.717757 164.587111 299.784579 162.200808 
Q 295.857967 159.814506 295.857967 155.498445 
Q 295.857967 151.193894 299.797712 148.803755 
Q 303.737456 146.413617 310.487552 146.413617 
Q 317.178551 146.413617 321.098597 148.803755 
Q 325.018643 151.193894 325.018643 155.498445 
Q 325.018643 157.777326 323.928647 159.50375 
Q 323.107867 160.823505 321.302151 162.058858 
z
M 316.416867 160.056206 
Q 317.592225 159.250541 318.17662 158.114937 
Q 318.761015 156.975497 318.761015 155.498445 
Q 318.761015 152.456102 316.462831 150.952194 
Q 314.164647 149.44445 310.448154 149.44445 
Q 306.731662 149.44445 304.420345 150.956031 
Q 302.115595 152.467611 302.115595 155.498445 
Q 302.115595 158.579154 304.420345 160.109917 
Q 306.731662 161.636843 310.2643 161.636843 
Q 311.577548 161.636843 312.746339 161.387471 
Q 310.901225 160.677718 308.990449 160.282559 
L 310.697672 158.256888 
Q 313.691877 158.855382 316.416867 160.056206 
z
" clip-path="url(#p3a79e6f8a2)" style="fill: #0000ff"/>
   </g>
   <g id="patch_61">
    <path d="M 327.762986 211.811002 
Q 327.762986 204.945256 329.195266 200.286358 
Q 330.259245 196.853485 332.100748 194.126803 
Q 333.94225 191.400121 336.138413 190.085821 
Q 339.057535 188.310536 342.876948 188.310536 
Q 349.779173 188.310536 353.925964 194.47009 
Q 358.072755 200.629645 358.072755 211.605029 
Q 358.072755 222.482332 353.960065 228.632078 
Q 349.847376 234.772017 342.958793 234.772017 
Q 335.988364 234.772017 331.875675 228.661503 
Q 327.762986 222.541181 327.762986 211.811002 
z
M 334.262808 211.506947 
Q 334.262808 219.137733 336.711325 223.080633 
Q 339.166661 227.013724 342.938332 227.013724 
Q 346.710002 227.013724 349.131237 223.110057 
Q 351.552471 219.206391 351.552471 211.389249 
Q 351.552471 203.660381 349.19262 199.864605 
Q 346.839589 196.05902 342.938332 196.05902 
Q 339.037074 196.05902 336.649941 199.913646 
Q 334.262808 203.758463 334.262808 211.506947 
z
" clip-path="url(#p3a79e6f8a2)" style="fill: #006400"/>
   </g>
   <g id="patch_62">
    <path d="M 327.762986 188.310536 
L 327.762986 141.849055 
L 335.419058 141.849055 
L 335.419058 160.135466 
L 350.416683 160.135466 
L 350.416683 141.849055 
L 358.072755 141.849055 
L 358.072755 188.310536 
L 350.416683 188.310536 
L 350.416683 167.995682 
L 335.419058 167.995682 
L 335.419058 188.310536 
L 327.762986 188.310536 
z
" clip-path="url(#p3a79e6f8a2)" style="fill: #00ffff"/>
   </g>
   <g id="patch_63">
    <path d="M 343.968279 124.566992 
L 343.968279 116.995056 
L 358.072755 116.995056 
L 358.072755 134.895035 
Q 356.014378 137.651142 352.109829 139.750098 
Q 348.212354 141.849055 344.208777 141.849055 
Q 339.130034 141.849055 335.345733 138.896784 
Q 331.568507 135.934705 329.665746 130.432301 
Q 327.762986 124.929896 327.762986 118.466287 
Q 327.762986 111.44361 329.885024 105.990247 
Q 332.007061 100.536883 336.09552 97.623845 
Q 339.214915 95.387574 343.855104 95.387574 
Q 349.888763 95.387574 353.284023 98.898912 
Q 356.679283 102.400442 357.648347 108.589422 
L 351.154912 110.276433 
Q 350.468787 106.971067 348.5731 105.058467 
Q 346.684487 103.136058 343.855104 103.136058 
Q 339.568588 103.136058 337.03629 106.912218 
Q 334.503992 110.67857 334.503992 118.093575 
Q 334.503992 126.097073 337.064584 130.098822 
Q 339.632249 134.090762 343.791443 134.090762 
Q 345.849819 134.090762 347.915269 132.972627 
Q 349.980718 131.854491 351.459071 130.265561 
L 351.459071 124.566992 
L 343.968279 124.566992 
z
" clip-path="url(#p3a79e6f8a2)" style="fill: #ff69b4"/>
   </g>
   <g id="patch_64">
    <path d="M 359.668006 234.772017 
L 359.668006 151.994373 
L 367.324078 151.994373 
L 367.324078 184.574179 
L 382.321702 184.574179 
L 382.321702 151.994373 
L 389.977774 151.994373 
L 389.977774 234.772017 
L 382.321702 234.772017 
L 382.321702 198.578255 
L 367.324078 198.578255 
L 367.324078 234.772017 
L 359.668006 234.772017 
z
" clip-path="url(#p3a79e6f8a2)" style="fill: #00ffff"/>
   </g>
   <g id="patch_65">
    <path d="M 359.668006 124.541534 
L 366.991171 123.022197 
Q 367.658393 130.933225 369.676332 134.65298 
Q 371.694271 138.355271 375.128022 138.355271 
Q 378.765194 138.355271 380.604122 135.054644 
Q 382.451187 131.754016 382.451187 127.335716 
Q 382.451187 124.489143 381.678186 122.498288 
Q 380.905186 120.507433 378.968615 119.040488 
Q 377.650445 118.04506 372.947346 115.54776 
Q 366.893529 112.316987 364.452474 107.636732 
Q 361.018723 101.018013 361.018723 91.535258 
Q 361.018723 85.422985 362.629819 80.096575 
Q 364.249052 74.770165 367.284098 71.993447 
Q 370.32728 69.216729 374.623537 69.216729 
Q 381.637502 69.216729 385.185169 75.817984 
Q 388.732836 82.419239 388.911846 93.438794 
L 381.38526 94.154804 
Q 380.905186 87.990139 379.310363 85.283275 
Q 377.723677 82.576412 374.542168 82.576412 
Q 371.263018 82.576412 369.407816 85.475375 
Q 368.211699 87.326521 368.211699 90.435049 
Q 368.211699 93.281622 369.334584 95.28994 
Q 370.758533 97.857095 376.250907 100.651277 
Q 381.743281 103.427995 384.371484 106.414277 
Q 387.007823 109.383096 388.48873 114.534869 
Q 389.977774 119.686642 389.977774 127.283325 
Q 389.977774 134.146535 388.195804 140.154026 
Q 386.42197 146.161517 383.16723 149.077945 
Q 379.91249 151.994373 375.05479 151.994373 
Q 367.983867 151.994373 364.192094 144.991454 
Q 360.408459 137.971071 359.668006 124.541534 
z
" clip-path="url(#p3a79e6f8a2)" style="fill: #ffff00"/>
   </g>
   <g id="patch_66">
    <path d="M 417.017209 192.039225 
Q 419.256297 202.023906 421.882793 207.940754 
L 419.643705 234.772017 
Q 418.271361 232.224485 416.958112 227.745759 
Q 416.669198 226.841797 412.913308 211.022446 
Q 409.9585 219.117023 406.366766 219.117023 
Q 399.432815 219.117023 395.499637 193.559526 
Q 391.573025 168.002029 391.573025 121.776653 
Q 391.573025 75.674545 395.512769 50.075959 
Q 399.452514 24.477373 406.20261 24.477373 
Q 412.893609 24.477373 416.813655 50.075959 
Q 420.733701 75.674545 420.733701 121.776653 
Q 420.733701 146.183652 419.643705 164.673802 
Q 418.822925 178.808495 417.017209 192.039225 
z
M 412.131925 170.59065 
Q 413.307282 161.961913 413.891678 149.799503 
Q 414.476073 137.596004 414.476073 121.776653 
Q 414.476073 89.192899 412.177889 73.085924 
Q 409.879705 56.937859 406.163212 56.937859 
Q 402.44672 56.937859 400.135403 73.127013 
Q 397.830653 89.316167 397.830653 121.776653 
Q 397.830653 154.771299 400.135403 171.165899 
Q 402.44672 187.51941 405.979358 187.51941 
Q 407.292606 187.51941 408.461397 184.848611 
Q 406.616283 177.247104 404.705507 173.014914 
L 406.412729 151.319805 
Q 409.406935 157.729723 412.131925 170.59065 
z
" clip-path="url(#p3a79e6f8a2)" style="fill: #0000ff"/>
   </g>
   <g id="patch_67">
    <path d="M 434.794246 234.772017 
L 434.794246 60.054397 
L 423.478044 60.054397 
L 423.478044 24.477373 
L 453.787812 24.477373 
L 453.787812 60.054397 
L 442.496591 60.054397 
L 442.496591 234.772017 
L 434.794246 234.772017 
z
" clip-path="url(#p3a79e6f8a2)" style="fill: #a0522d"/>
   </g>
   <g id="matplotlib.axis_1">
    <g id="xtick_1">
     <g id="line2d_2">
      <path d="M 55.772697 234.772017 
L 55.772697 24.477373 
" clip-path="url(#p3a79e6f8a2)" style="fill: none; stroke: #cccccc; stroke-width: 0.8; stroke-linecap: round"/>
     </g>
     <g id="text_1">
      <!-- 0 -->
      <g style="fill: #262626" transform="translate(51.88004 251.792954) scale(0.14 -0.14)">
       <defs>
        <path id="ArialMT-30" d="M 266 2259 
Q 266 3072 433 3567 
Q 600 4063 929 4331 
Q 1259 4600 1759 4600 
Q 2128 4600 2406 4451 
Q 2684 4303 2865 4023 
Q 3047 3744 3150 3342 
Q 3253 2941 3253 2259 
Q 3253 1453 3087 958 
Q 2922 463 2592 192 
Q 2263 -78 1759 -78 
Q 1097 -78 719 397 
Q 266 969 266 2259 
z
M 844 2259 
Q 844 1131 1108 757 
Q 1372 384 1759 384 
Q 2147 384 2411 759 
Q 2675 1134 2675 2259 
Q 2675 3391 2411 3762 
Q 2147 4134 1753 4134 
Q 1366 4134 1134 3806 
Q 844 3388 844 2259 
z
" transform="scale(0.015625)"/>
       </defs>
       <use xlink:href="#ArialMT-30"/>
      </g>
     </g>
    </g>
    <g id="xtick_2">
     <g id="line2d_3">
      <path d="M 87.677716 234.772017 
L 87.677716 24.477373 
" clip-path="url(#p3a79e6f8a2)" style="fill: none; stroke: #cccccc; stroke-width: 0.8; stroke-linecap: round"/>
     </g>
     <g id="text_2">
      <!-- 1 -->
      <g style="fill: #262626" transform="translate(83.78506 251.792954) scale(0.14 -0.14)">
       <defs>
        <path id="ArialMT-31" d="M 2384 0 
L 1822 0 
L 1822 3584 
Q 1619 3391 1289 3197 
Q 959 3003 697 2906 
L 697 3450 
Q 1169 3672 1522 3987 
Q 1875 4303 2022 4600 
L 2384 4600 
L 2384 0 
z
" transform="scale(0.015625)"/>
       </defs>
       <use xlink:href="#ArialMT-31"/>
      </g>
     </g>
    </g>
    <g id="xtick_3">
     <g id="line2d_4">
      <path d="M 119.582735 234.772017 
L 119.582735 24.477373 
" clip-path="url(#p3a79e6f8a2)" style="fill: none; stroke: #cccccc; stroke-width: 0.8; stroke-linecap: round"/>
     </g>
     <g id="text_3">
      <!-- 2 -->
      <g style="fill: #262626" transform="translate(115.690079 251.792954) scale(0.14 -0.14)">
       <defs>
        <path id="ArialMT-32" d="M 3222 541 
L 3222 0 
L 194 0 
Q 188 203 259 391 
Q 375 700 629 1000 
Q 884 1300 1366 1694 
Q 2113 2306 2375 2664 
Q 2638 3022 2638 3341 
Q 2638 3675 2398 3904 
Q 2159 4134 1775 4134 
Q 1369 4134 1125 3890 
Q 881 3647 878 3216 
L 300 3275 
Q 359 3922 746 4261 
Q 1134 4600 1788 4600 
Q 2447 4600 2831 4234 
Q 3216 3869 3216 3328 
Q 3216 3053 3103 2787 
Q 2991 2522 2730 2228 
Q 2469 1934 1863 1422 
Q 1356 997 1212 845 
Q 1069 694 975 541 
L 3222 541 
z
" transform="scale(0.015625)"/>
       </defs>
       <use xlink:href="#ArialMT-32"/>
      </g>
     </g>
    </g>
    <g id="xtick_4">
     <g id="line2d_5">
      <path d="M 151.487755 234.772017 
L 151.487755 24.477373 
" clip-path="url(#p3a79e6f8a2)" style="fill: none; stroke: #cccccc; stroke-width: 0.8; stroke-linecap: round"/>
     </g>
     <g id="text_4">
      <!-- 3 -->
      <g style="fill: #262626" transform="translate(147.595098 251.792954) scale(0.14 -0.14)">
       <defs>
        <path id="ArialMT-33" d="M 269 1209 
L 831 1284 
Q 928 806 1161 595 
Q 1394 384 1728 384 
Q 2125 384 2398 659 
Q 2672 934 2672 1341 
Q 2672 1728 2419 1979 
Q 2166 2231 1775 2231 
Q 1616 2231 1378 2169 
L 1441 2663 
Q 1497 2656 1531 2656 
Q 1891 2656 2178 2843 
Q 2466 3031 2466 3422 
Q 2466 3731 2256 3934 
Q 2047 4138 1716 4138 
Q 1388 4138 1169 3931 
Q 950 3725 888 3313 
L 325 3413 
Q 428 3978 793 4289 
Q 1159 4600 1703 4600 
Q 2078 4600 2393 4439 
Q 2709 4278 2876 4000 
Q 3044 3722 3044 3409 
Q 3044 3113 2884 2869 
Q 2725 2625 2413 2481 
Q 2819 2388 3044 2092 
Q 3269 1797 3269 1353 
Q 3269 753 2831 336 
Q 2394 -81 1725 -81 
Q 1122 -81 723 278 
Q 325 638 269 1209 
z
" transform="scale(0.015625)"/>
       </defs>
       <use xlink:href="#ArialMT-33"/>
      </g>
     </g>
    </g>
    <g id="xtick_5">
     <g id="line2d_6">
      <path d="M 183.392774 234.772017 
L 183.392774 24.477373 
" clip-path="url(#p3a79e6f8a2)" style="fill: none; stroke: #cccccc; stroke-width: 0.8; stroke-linecap: round"/>
     </g>
     <g id="text_5">
      <!-- 4 -->
      <g style="fill: #262626" transform="translate(179.500118 251.792954) scale(0.14 -0.14)">
       <defs>
        <path id="ArialMT-34" d="M 2069 0 
L 2069 1097 
L 81 1097 
L 81 1613 
L 2172 4581 
L 2631 4581 
L 2631 1613 
L 3250 1613 
L 3250 1097 
L 2631 1097 
L 2631 0 
L 2069 0 
z
M 2069 1613 
L 2069 3678 
L 634 1613 
L 2069 1613 
z
" transform="scale(0.015625)"/>
       </defs>
       <use xlink:href="#ArialMT-34"/>
      </g>
     </g>
    </g>
    <g id="xtick_6">
     <g id="line2d_7">
      <path d="M 215.297793 234.772017 
L 215.297793 24.477373 
" clip-path="url(#p3a79e6f8a2)" style="fill: none; stroke: #cccccc; stroke-width: 0.8; stroke-linecap: round"/>
     </g>
     <g id="text_6">
      <!-- 5 -->
      <g style="fill: #262626" transform="translate(211.405137 251.792954) scale(0.14 -0.14)">
       <defs>
        <path id="ArialMT-35" d="M 266 1200 
L 856 1250 
Q 922 819 1161 601 
Q 1400 384 1738 384 
Q 2144 384 2425 690 
Q 2706 997 2706 1503 
Q 2706 1984 2436 2262 
Q 2166 2541 1728 2541 
Q 1456 2541 1237 2417 
Q 1019 2294 894 2097 
L 366 2166 
L 809 4519 
L 3088 4519 
L 3088 3981 
L 1259 3981 
L 1013 2750 
Q 1425 3038 1878 3038 
Q 2478 3038 2890 2622 
Q 3303 2206 3303 1553 
Q 3303 931 2941 478 
Q 2500 -78 1738 -78 
Q 1113 -78 717 272 
Q 322 622 266 1200 
z
" transform="scale(0.015625)"/>
       </defs>
       <use xlink:href="#ArialMT-35"/>
      </g>
     </g>
    </g>
    <g id="xtick_7">
     <g id="line2d_8">
      <path d="M 247.202812 234.772017 
L 247.202812 24.477373 
" clip-path="url(#p3a79e6f8a2)" style="fill: none; stroke: #cccccc; stroke-width: 0.8; stroke-linecap: round"/>
     </g>
     <g id="text_7">
      <!-- 6 -->
      <g style="fill: #262626" transform="translate(243.310156 251.792954) scale(0.14 -0.14)">
       <defs>
        <path id="ArialMT-36" d="M 3184 3459 
L 2625 3416 
Q 2550 3747 2413 3897 
Q 2184 4138 1850 4138 
Q 1581 4138 1378 3988 
Q 1113 3794 959 3422 
Q 806 3050 800 2363 
Q 1003 2672 1297 2822 
Q 1591 2972 1913 2972 
Q 2475 2972 2870 2558 
Q 3266 2144 3266 1488 
Q 3266 1056 3080 686 
Q 2894 316 2569 119 
Q 2244 -78 1831 -78 
Q 1128 -78 684 439 
Q 241 956 241 2144 
Q 241 3472 731 4075 
Q 1159 4600 1884 4600 
Q 2425 4600 2770 4297 
Q 3116 3994 3184 3459 
z
M 888 1484 
Q 888 1194 1011 928 
Q 1134 663 1356 523 
Q 1578 384 1822 384 
Q 2178 384 2434 671 
Q 2691 959 2691 1453 
Q 2691 1928 2437 2201 
Q 2184 2475 1800 2475 
Q 1419 2475 1153 2201 
Q 888 1928 888 1484 
z
" transform="scale(0.015625)"/>
       </defs>
       <use xlink:href="#ArialMT-36"/>
      </g>
     </g>
    </g>
    <g id="xtick_8">
     <g id="line2d_9">
      <path d="M 279.107832 234.772017 
L 279.107832 24.477373 
" clip-path="url(#p3a79e6f8a2)" style="fill: none; stroke: #cccccc; stroke-width: 0.8; stroke-linecap: round"/>
     </g>
     <g id="text_8">
      <!-- 7 -->
      <g style="fill: #262626" transform="translate(275.215176 251.792954) scale(0.14 -0.14)">
       <defs>
        <path id="ArialMT-37" d="M 303 3981 
L 303 4522 
L 3269 4522 
L 3269 4084 
Q 2831 3619 2401 2847 
Q 1972 2075 1738 1259 
Q 1569 684 1522 0 
L 944 0 
Q 953 541 1156 1306 
Q 1359 2072 1739 2783 
Q 2119 3494 2547 3981 
L 303 3981 
z
" transform="scale(0.015625)"/>
       </defs>
       <use xlink:href="#ArialMT-37"/>
      </g>
     </g>
    </g>
    <g id="xtick_9">
     <g id="line2d_10">
      <path d="M 311.012851 234.772017 
L 311.012851 24.477373 
" clip-path="url(#p3a79e6f8a2)" style="fill: none; stroke: #cccccc; stroke-width: 0.8; stroke-linecap: round"/>
     </g>
     <g id="text_9">
      <!-- 8 -->
      <g style="fill: #262626" transform="translate(307.120195 251.792954) scale(0.14 -0.14)">
       <defs>
        <path id="ArialMT-38" d="M 1131 2484 
Q 781 2613 612 2850 
Q 444 3088 444 3419 
Q 444 3919 803 4259 
Q 1163 4600 1759 4600 
Q 2359 4600 2725 4251 
Q 3091 3903 3091 3403 
Q 3091 3084 2923 2848 
Q 2756 2613 2416 2484 
Q 2838 2347 3058 2040 
Q 3278 1734 3278 1309 
Q 3278 722 2862 322 
Q 2447 -78 1769 -78 
Q 1091 -78 675 323 
Q 259 725 259 1325 
Q 259 1772 486 2073 
Q 713 2375 1131 2484 
z
M 1019 3438 
Q 1019 3113 1228 2906 
Q 1438 2700 1772 2700 
Q 2097 2700 2305 2904 
Q 2513 3109 2513 3406 
Q 2513 3716 2298 3927 
Q 2084 4138 1766 4138 
Q 1444 4138 1231 3931 
Q 1019 3725 1019 3438 
z
M 838 1322 
Q 838 1081 952 856 
Q 1066 631 1291 507 
Q 1516 384 1775 384 
Q 2178 384 2440 643 
Q 2703 903 2703 1303 
Q 2703 1709 2433 1975 
Q 2163 2241 1756 2241 
Q 1359 2241 1098 1978 
Q 838 1716 838 1322 
z
" transform="scale(0.015625)"/>
       </defs>
       <use xlink:href="#ArialMT-38"/>
      </g>
     </g>
    </g>
    <g id="xtick_10">
     <g id="line2d_11">
      <path d="M 342.91787 234.772017 
L 342.91787 24.477373 
" clip-path="url(#p3a79e6f8a2)" style="fill: none; stroke: #cccccc; stroke-width: 0.8; stroke-linecap: round"/>
     </g>
     <g id="text_10">
      <!-- 9 -->
      <g style="fill: #262626" transform="translate(339.025214 251.792954) scale(0.14 -0.14)">
       <defs>
        <path id="ArialMT-39" d="M 350 1059 
L 891 1109 
Q 959 728 1153 556 
Q 1347 384 1650 384 
Q 1909 384 2104 503 
Q 2300 622 2425 820 
Q 2550 1019 2634 1356 
Q 2719 1694 2719 2044 
Q 2719 2081 2716 2156 
Q 2547 1888 2255 1720 
Q 1963 1553 1622 1553 
Q 1053 1553 659 1965 
Q 266 2378 266 3053 
Q 266 3750 677 4175 
Q 1088 4600 1706 4600 
Q 2153 4600 2523 4359 
Q 2894 4119 3086 3673 
Q 3278 3228 3278 2384 
Q 3278 1506 3087 986 
Q 2897 466 2520 194 
Q 2144 -78 1638 -78 
Q 1100 -78 759 220 
Q 419 519 350 1059 
z
M 2653 3081 
Q 2653 3566 2395 3850 
Q 2138 4134 1775 4134 
Q 1400 4134 1122 3828 
Q 844 3522 844 3034 
Q 844 2597 1108 2323 
Q 1372 2050 1759 2050 
Q 2150 2050 2401 2323 
Q 2653 2597 2653 3081 
z
" transform="scale(0.015625)"/>
       </defs>
       <use xlink:href="#ArialMT-39"/>
      </g>
     </g>
    </g>
    <g id="xtick_11">
     <g id="line2d_12">
      <path d="M 374.82289 234.772017 
L 374.82289 24.477373 
" clip-path="url(#p3a79e6f8a2)" style="fill: none; stroke: #cccccc; stroke-width: 0.8; stroke-linecap: round"/>
     </g>
     <g id="text_11">
      <!-- 10 -->
      <g style="fill: #262626" transform="translate(367.037577 251.792954) scale(0.14 -0.14)">
       <use xlink:href="#ArialMT-31"/>
       <use xlink:href="#ArialMT-30" transform="translate(55.615234 0)"/>
      </g>
     </g>
    </g>
    <g id="xtick_12">
     <g id="line2d_13">
      <path d="M 406.727909 234.772017 
L 406.727909 24.477373 
" clip-path="url(#p3a79e6f8a2)" style="fill: none; stroke: #cccccc; stroke-width: 0.8; stroke-linecap: round"/>
     </g>
     <g id="text_12">
      <!-- 11 -->
      <g style="fill: #262626" transform="translate(399.458847 251.792954) scale(0.14 -0.14)">
       <use xlink:href="#ArialMT-31"/>
       <use xlink:href="#ArialMT-31" transform="translate(48.240234 0)"/>
      </g>
     </g>
    </g>
    <g id="xtick_13">
     <g id="line2d_14">
      <path d="M 438.632928 234.772017 
L 438.632928 24.477373 
" clip-path="url(#p3a79e6f8a2)" style="fill: none; stroke: #cccccc; stroke-width: 0.8; stroke-linecap: round"/>
     </g>
     <g id="text_13">
      <!-- 12 -->
      <g style="fill: #262626" transform="translate(430.847616 251.792954) scale(0.14 -0.14)">
       <use xlink:href="#ArialMT-31"/>
       <use xlink:href="#ArialMT-32" transform="translate(55.615234 0)"/>
      </g>
     </g>
    </g>
    <g id="text_14">
     <!-- Original Position -->
     <g style="fill: #262626" transform="translate(188.955312 270.232954) scale(0.16 -0.16)">
      <defs>
       <path id="ArialMT-4f" d="M 309 2231 
Q 309 3372 921 4017 
Q 1534 4663 2503 4663 
Q 3138 4663 3647 4359 
Q 4156 4056 4423 3514 
Q 4691 2972 4691 2284 
Q 4691 1588 4409 1038 
Q 4128 488 3612 205 
Q 3097 -78 2500 -78 
Q 1853 -78 1343 234 
Q 834 547 571 1087 
Q 309 1628 309 2231 
z
M 934 2222 
Q 934 1394 1379 917 
Q 1825 441 2497 441 
Q 3181 441 3623 922 
Q 4066 1403 4066 2288 
Q 4066 2847 3877 3264 
Q 3688 3681 3323 3911 
Q 2959 4141 2506 4141 
Q 1863 4141 1398 3698 
Q 934 3256 934 2222 
z
" transform="scale(0.015625)"/>
       <path id="ArialMT-72" d="M 416 0 
L 416 3319 
L 922 3319 
L 922 2816 
Q 1116 3169 1280 3281 
Q 1444 3394 1641 3394 
Q 1925 3394 2219 3213 
L 2025 2691 
Q 1819 2813 1613 2813 
Q 1428 2813 1281 2702 
Q 1134 2591 1072 2394 
Q 978 2094 978 1738 
L 978 0 
L 416 0 
z
" transform="scale(0.015625)"/>
       <path id="ArialMT-69" d="M 425 3934 
L 425 4581 
L 988 4581 
L 988 3934 
L 425 3934 
z
M 425 0 
L 425 3319 
L 988 3319 
L 988 0 
L 425 0 
z
" transform="scale(0.015625)"/>
       <path id="ArialMT-67" d="M 319 -275 
L 866 -356 
Q 900 -609 1056 -725 
Q 1266 -881 1628 -881 
Q 2019 -881 2231 -725 
Q 2444 -569 2519 -288 
Q 2563 -116 2559 434 
Q 2191 0 1641 0 
Q 956 0 581 494 
Q 206 988 206 1678 
Q 206 2153 378 2554 
Q 550 2956 876 3175 
Q 1203 3394 1644 3394 
Q 2231 3394 2613 2919 
L 2613 3319 
L 3131 3319 
L 3131 450 
Q 3131 -325 2973 -648 
Q 2816 -972 2473 -1159 
Q 2131 -1347 1631 -1347 
Q 1038 -1347 672 -1080 
Q 306 -813 319 -275 
z
M 784 1719 
Q 784 1066 1043 766 
Q 1303 466 1694 466 
Q 2081 466 2343 764 
Q 2606 1063 2606 1700 
Q 2606 2309 2336 2618 
Q 2066 2928 1684 2928 
Q 1309 2928 1046 2623 
Q 784 2319 784 1719 
z
" transform="scale(0.015625)"/>
       <path id="ArialMT-6e" d="M 422 0 
L 422 3319 
L 928 3319 
L 928 2847 
Q 1294 3394 1984 3394 
Q 2284 3394 2536 3286 
Q 2788 3178 2913 3003 
Q 3038 2828 3088 2588 
Q 3119 2431 3119 2041 
L 3119 0 
L 2556 0 
L 2556 2019 
Q 2556 2363 2490 2533 
Q 2425 2703 2258 2804 
Q 2091 2906 1866 2906 
Q 1506 2906 1245 2678 
Q 984 2450 984 1813 
L 984 0 
L 422 0 
z
" transform="scale(0.015625)"/>
       <path id="ArialMT-61" d="M 2588 409 
Q 2275 144 1986 34 
Q 1697 -75 1366 -75 
Q 819 -75 525 192 
Q 231 459 231 875 
Q 231 1119 342 1320 
Q 453 1522 633 1644 
Q 813 1766 1038 1828 
Q 1203 1872 1538 1913 
Q 2219 1994 2541 2106 
Q 2544 2222 2544 2253 
Q 2544 2597 2384 2738 
Q 2169 2928 1744 2928 
Q 1347 2928 1158 2789 
Q 969 2650 878 2297 
L 328 2372 
Q 403 2725 575 2942 
Q 747 3159 1072 3276 
Q 1397 3394 1825 3394 
Q 2250 3394 2515 3294 
Q 2781 3194 2906 3042 
Q 3031 2891 3081 2659 
Q 3109 2516 3109 2141 
L 3109 1391 
Q 3109 606 3145 398 
Q 3181 191 3288 0 
L 2700 0 
Q 2613 175 2588 409 
z
M 2541 1666 
Q 2234 1541 1622 1453 
Q 1275 1403 1131 1340 
Q 988 1278 909 1158 
Q 831 1038 831 891 
Q 831 666 1001 516 
Q 1172 366 1500 366 
Q 1825 366 2078 508 
Q 2331 650 2450 897 
Q 2541 1088 2541 1459 
L 2541 1666 
z
" transform="scale(0.015625)"/>
       <path id="ArialMT-6c" d="M 409 0 
L 409 4581 
L 972 4581 
L 972 0 
L 409 0 
z
" transform="scale(0.015625)"/>
       <path id="ArialMT-20" transform="scale(0.015625)"/>
       <path id="ArialMT-50" d="M 494 0 
L 494 4581 
L 2222 4581 
Q 2678 4581 2919 4538 
Q 3256 4481 3484 4323 
Q 3713 4166 3852 3881 
Q 3991 3597 3991 3256 
Q 3991 2672 3619 2267 
Q 3247 1863 2275 1863 
L 1100 1863 
L 1100 0 
L 494 0 
z
M 1100 2403 
L 2284 2403 
Q 2872 2403 3119 2622 
Q 3366 2841 3366 3238 
Q 3366 3525 3220 3729 
Q 3075 3934 2838 4000 
Q 2684 4041 2272 4041 
L 1100 4041 
L 1100 2403 
z
" transform="scale(0.015625)"/>
       <path id="ArialMT-6f" d="M 213 1659 
Q 213 2581 725 3025 
Q 1153 3394 1769 3394 
Q 2453 3394 2887 2945 
Q 3322 2497 3322 1706 
Q 3322 1066 3130 698 
Q 2938 331 2570 128 
Q 2203 -75 1769 -75 
Q 1072 -75 642 372 
Q 213 819 213 1659 
z
M 791 1659 
Q 791 1022 1069 705 
Q 1347 388 1769 388 
Q 2188 388 2466 706 
Q 2744 1025 2744 1678 
Q 2744 2294 2464 2611 
Q 2184 2928 1769 2928 
Q 1347 2928 1069 2612 
Q 791 2297 791 1659 
z
" transform="scale(0.015625)"/>
       <path id="ArialMT-73" d="M 197 991 
L 753 1078 
Q 800 744 1014 566 
Q 1228 388 1613 388 
Q 2000 388 2187 545 
Q 2375 703 2375 916 
Q 2375 1106 2209 1216 
Q 2094 1291 1634 1406 
Q 1016 1563 777 1677 
Q 538 1791 414 1992 
Q 291 2194 291 2438 
Q 291 2659 392 2848 
Q 494 3038 669 3163 
Q 800 3259 1026 3326 
Q 1253 3394 1513 3394 
Q 1903 3394 2198 3281 
Q 2494 3169 2634 2976 
Q 2775 2784 2828 2463 
L 2278 2388 
Q 2241 2644 2061 2787 
Q 1881 2931 1553 2931 
Q 1166 2931 1000 2803 
Q 834 2675 834 2503 
Q 834 2394 903 2306 
Q 972 2216 1119 2156 
Q 1203 2125 1616 2013 
Q 2213 1853 2448 1751 
Q 2684 1650 2818 1456 
Q 2953 1263 2953 975 
Q 2953 694 2789 445 
Q 2625 197 2315 61 
Q 2006 -75 1616 -75 
Q 969 -75 630 194 
Q 291 463 197 991 
z
" transform="scale(0.015625)"/>
       <path id="ArialMT-74" d="M 1650 503 
L 1731 6 
Q 1494 -44 1306 -44 
Q 1000 -44 831 53 
Q 663 150 594 308 
Q 525 466 525 972 
L 525 2881 
L 113 2881 
L 113 3319 
L 525 3319 
L 525 4141 
L 1084 4478 
L 1084 3319 
L 1650 3319 
L 1650 2881 
L 1084 2881 
L 1084 941 
Q 1084 700 1114 631 
Q 1144 563 1211 522 
Q 1278 481 1403 481 
Q 1497 481 1650 503 
z
" transform="scale(0.015625)"/>
      </defs>
      <use xlink:href="#ArialMT-4f"/>
      <use xlink:href="#ArialMT-72" transform="translate(77.783203 0)"/>
      <use xlink:href="#ArialMT-69" transform="translate(111.083984 0)"/>
      <use xlink:href="#ArialMT-67" transform="translate(133.300781 0)"/>
      <use xlink:href="#ArialMT-69" transform="translate(188.916016 0)"/>
      <use xlink:href="#ArialMT-6e" transform="translate(211.132812 0)"/>
      <use xlink:href="#ArialMT-61" transform="translate(266.748047 0)"/>
      <use xlink:href="#ArialMT-6c" transform="translate(322.363281 0)"/>
      <use xlink:href="#ArialMT-20" transform="translate(344.580078 0)"/>
      <use xlink:href="#ArialMT-50" transform="translate(372.363281 0)"/>
      <use xlink:href="#ArialMT-6f" transform="translate(439.0625 0)"/>
      <use xlink:href="#ArialMT-73" transform="translate(494.677734 0)"/>
      <use xlink:href="#ArialMT-69" transform="translate(544.677734 0)"/>
      <use xlink:href="#ArialMT-74" transform="translate(566.894531 0)"/>
      <use xlink:href="#ArialMT-69" transform="translate(594.677734 0)"/>
      <use xlink:href="#ArialMT-6f" transform="translate(616.894531 0)"/>
      <use xlink:href="#ArialMT-6e" transform="translate(672.509766 0)"/>
     </g>
    </g>
   </g>
   <g id="matplotlib.axis_2">
    <g id="ytick_1">
     <g id="line2d_15">
      <path d="M 40.617813 234.772017 
L 453.787812 234.772017 
" clip-path="url(#p3a79e6f8a2)" style="fill: none; stroke: #cccccc; stroke-width: 0.8; stroke-linecap: round"/>
     </g>
     <g id="text_15">
      <!-- 0 -->
      <g style="fill: #262626" transform="translate(25.8325 239.782485) scale(0.14 -0.14)">
       <use xlink:href="#ArialMT-30"/>
      </g>
     </g>
    </g>
    <g id="ytick_2">
     <g id="line2d_16">
      <path d="M 40.617813 190.032661 
L 453.787812 190.032661 
" clip-path="url(#p3a79e6f8a2)" style="fill: none; stroke: #cccccc; stroke-width: 0.8; stroke-linecap: round"/>
     </g>
     <g id="text_16">
      <!-- 1 -->
      <g style="fill: #262626" transform="translate(25.8325 195.04313) scale(0.14 -0.14)">
       <use xlink:href="#ArialMT-31"/>
      </g>
     </g>
    </g>
    <g id="ytick_3">
     <g id="line2d_17">
      <path d="M 40.617813 145.293306 
L 453.787812 145.293306 
" clip-path="url(#p3a79e6f8a2)" style="fill: none; stroke: #cccccc; stroke-width: 0.8; stroke-linecap: round"/>
     </g>
     <g id="text_17">
      <!-- 2 -->
      <g style="fill: #262626" transform="translate(25.8325 150.303774) scale(0.14 -0.14)">
       <use xlink:href="#ArialMT-32"/>
      </g>
     </g>
    </g>
    <g id="ytick_4">
     <g id="line2d_18">
      <path d="M 40.617813 100.55395 
L 453.787812 100.55395 
" clip-path="url(#p3a79e6f8a2)" style="fill: none; stroke: #cccccc; stroke-width: 0.8; stroke-linecap: round"/>
     </g>
     <g id="text_18">
      <!-- 3 -->
      <g style="fill: #262626" transform="translate(25.8325 105.564419) scale(0.14 -0.14)">
       <use xlink:href="#ArialMT-33"/>
      </g>
     </g>
    </g>
    <g id="ytick_5">
     <g id="line2d_19">
      <path d="M 40.617813 55.814595 
L 453.787812 55.814595 
" clip-path="url(#p3a79e6f8a2)" style="fill: none; stroke: #cccccc; stroke-width: 0.8; stroke-linecap: round"/>
     </g>
     <g id="text_19">
      <!-- 4 -->
      <g style="fill: #262626" transform="translate(25.8325 60.825063) scale(0.14 -0.14)">
       <use xlink:href="#ArialMT-34"/>
      </g>
     </g>
    </g>
    <g id="text_20">
     <!-- Information Content -->
     <g style="fill: #262626" transform="translate(18.6525 199.880945) rotate(-90) scale(0.16 -0.16)">
      <defs>
       <path id="ArialMT-49" d="M 597 0 
L 597 4581 
L 1203 4581 
L 1203 0 
L 597 0 
z
" transform="scale(0.015625)"/>
       <path id="ArialMT-66" d="M 556 0 
L 556 2881 
L 59 2881 
L 59 3319 
L 556 3319 
L 556 3672 
Q 556 4006 616 4169 
Q 697 4388 901 4523 
Q 1106 4659 1475 4659 
Q 1713 4659 2000 4603 
L 1916 4113 
Q 1741 4144 1584 4144 
Q 1328 4144 1222 4034 
Q 1116 3925 1116 3625 
L 1116 3319 
L 1763 3319 
L 1763 2881 
L 1116 2881 
L 1116 0 
L 556 0 
z
" transform="scale(0.015625)"/>
       <path id="ArialMT-6d" d="M 422 0 
L 422 3319 
L 925 3319 
L 925 2853 
Q 1081 3097 1340 3245 
Q 1600 3394 1931 3394 
Q 2300 3394 2536 3241 
Q 2772 3088 2869 2813 
Q 3263 3394 3894 3394 
Q 4388 3394 4653 3120 
Q 4919 2847 4919 2278 
L 4919 0 
L 4359 0 
L 4359 2091 
Q 4359 2428 4304 2576 
Q 4250 2725 4106 2815 
Q 3963 2906 3769 2906 
Q 3419 2906 3187 2673 
Q 2956 2441 2956 1928 
L 2956 0 
L 2394 0 
L 2394 2156 
Q 2394 2531 2256 2718 
Q 2119 2906 1806 2906 
Q 1569 2906 1367 2781 
Q 1166 2656 1075 2415 
Q 984 2175 984 1722 
L 984 0 
L 422 0 
z
" transform="scale(0.015625)"/>
       <path id="ArialMT-43" d="M 3763 1606 
L 4369 1453 
Q 4178 706 3683 314 
Q 3188 -78 2472 -78 
Q 1731 -78 1267 223 
Q 803 525 561 1097 
Q 319 1669 319 2325 
Q 319 3041 592 3573 
Q 866 4106 1370 4382 
Q 1875 4659 2481 4659 
Q 3169 4659 3637 4309 
Q 4106 3959 4291 3325 
L 3694 3184 
Q 3534 3684 3231 3912 
Q 2928 4141 2469 4141 
Q 1941 4141 1586 3887 
Q 1231 3634 1087 3207 
Q 944 2781 944 2328 
Q 944 1744 1114 1308 
Q 1284 872 1643 656 
Q 2003 441 2422 441 
Q 2931 441 3284 734 
Q 3638 1028 3763 1606 
z
" transform="scale(0.015625)"/>
       <path id="ArialMT-65" d="M 2694 1069 
L 3275 997 
Q 3138 488 2766 206 
Q 2394 -75 1816 -75 
Q 1088 -75 661 373 
Q 234 822 234 1631 
Q 234 2469 665 2931 
Q 1097 3394 1784 3394 
Q 2450 3394 2872 2941 
Q 3294 2488 3294 1666 
Q 3294 1616 3291 1516 
L 816 1516 
Q 847 969 1125 678 
Q 1403 388 1819 388 
Q 2128 388 2347 550 
Q 2566 713 2694 1069 
z
M 847 1978 
L 2700 1978 
Q 2663 2397 2488 2606 
Q 2219 2931 1791 2931 
Q 1403 2931 1139 2672 
Q 875 2413 847 1978 
z
" transform="scale(0.015625)"/>
      </defs>
      <use xlink:href="#ArialMT-49"/>
      <use xlink:href="#ArialMT-6e" transform="translate(27.783203 0)"/>
      <use xlink:href="#ArialMT-66" transform="translate(83.398438 0)"/>
      <use xlink:href="#ArialMT-6f" transform="translate(111.181641 0)"/>
      <use xlink:href="#ArialMT-72" transform="translate(166.796875 0)"/>
      <use xlink:href="#ArialMT-6d" transform="translate(200.097656 0)"/>
      <use xlink:href="#ArialMT-61" transform="translate(283.398438 0)"/>
      <use xlink:href="#ArialMT-74" transform="translate(339.013672 0)"/>
      <use xlink:href="#ArialMT-69" transform="translate(366.796875 0)"/>
      <use xlink:href="#ArialMT-6f" transform="translate(389.013672 0)"/>
      <use xlink:href="#ArialMT-6e" transform="translate(444.628906 0)"/>
      <use xlink:href="#ArialMT-20" transform="translate(500.244141 0)"/>
      <use xlink:href="#ArialMT-43" transform="translate(528.027344 0)"/>
      <use xlink:href="#ArialMT-6f" transform="translate(600.244141 0)"/>
      <use xlink:href="#ArialMT-6e" transform="translate(655.859375 0)"/>
      <use xlink:href="#ArialMT-74" transform="translate(711.474609 0)"/>
      <use xlink:href="#ArialMT-65" transform="translate(739.257812 0)"/>
      <use xlink:href="#ArialMT-6e" transform="translate(794.873047 0)"/>
      <use xlink:href="#ArialMT-74" transform="translate(850.488281 0)"/>
     </g>
    </g>
   </g>
   <g id="patch_68">
    <path d="M 40.617813 234.772017 
L 40.617813 24.477373 
" style="fill: none; stroke: #cccccc; stroke-width: 0.8; stroke-linejoin: miter; stroke-linecap: square"/>
   </g>
   <g id="patch_69">
    <path d="M 453.787812 234.772017 
L 453.787812 24.477373 
" style="fill: none; stroke: #cccccc; stroke-width: 0.8; stroke-linejoin: miter; stroke-linecap: square"/>
   </g>
   <g id="patch_70">
    <path d="M 40.617812 234.772017 
L 453.787812 234.772017 
" style="fill: none; stroke: #cccccc; stroke-width: 0.8; stroke-linejoin: miter; stroke-linecap: square"/>
   </g>
   <g id="patch_71">
    <path d="M 40.617812 24.477373 
L 453.787812 24.477373 
" style="fill: none; stroke: #cccccc; stroke-width: 0.8; stroke-linejoin: miter; stroke-linecap: square"/>
   </g>
   <g id="text_21">
    <!-- 20 -->
    <g style="fill: #000080; opacity: 0.6" transform="translate(47.987384 17.220937) scale(0.14 -0.14)">
     <defs>
      <path id="Arial-ItalicMT-32" d="M 375 0 
Q 463 409 617 686 
Q 772 963 1028 1211 
Q 1284 1459 2016 2044 
Q 2459 2397 2622 2566 
Q 2856 2809 2963 3044 
Q 3034 3203 3034 3391 
Q 3034 3706 2811 3926 
Q 2588 4147 2263 4147 
Q 1941 4147 1700 3923 
Q 1459 3700 1356 3206 
L 803 3288 
Q 884 3897 1276 4248 
Q 1669 4600 2253 4600 
Q 2644 4600 2961 4437 
Q 3278 4275 3437 3981 
Q 3597 3688 3597 3375 
Q 3597 2919 3272 2497 
Q 3072 2234 2097 1463 
Q 1678 1131 1473 918 
Q 1269 706 1166 519 
L 3216 519 
L 3106 0 
L 375 0 
z
" transform="scale(0.015625)"/>
      <path id="Arial-ItalicMT-30" d="M 453 1503 
Q 453 2084 626 2684 
Q 800 3284 1012 3643 
Q 1225 4003 1453 4206 
Q 1681 4409 1901 4504 
Q 2122 4600 2391 4600 
Q 2916 4600 3267 4209 
Q 3619 3819 3619 3081 
Q 3619 2322 3375 1578 
Q 3088 697 2575 256 
Q 2181 -78 1678 -78 
Q 1163 -78 808 326 
Q 453 731 453 1503 
z
M 1000 1359 
Q 1000 938 1141 700 
Q 1331 372 1706 372 
Q 2034 372 2303 669 
Q 2691 1088 2886 1895 
Q 3081 2703 3081 3216 
Q 3081 3709 2892 3928 
Q 2703 4147 2394 4147 
Q 2169 4147 1973 4031 
Q 1778 3916 1600 3634 
Q 1347 3238 1159 2447 
Q 1000 1772 1000 1359 
z
" transform="scale(0.015625)"/>
     </defs>
     <use xlink:href="#Arial-ItalicMT-32"/>
     <use xlink:href="#Arial-ItalicMT-30" transform="translate(55.615234 0)"/>
    </g>
   </g>
   <g id="text_22">
    <!-- 20 -->
    <g style="fill: #000080; opacity: 0.6" transform="translate(79.892403 17.220937) scale(0.14 -0.14)">
     <use xlink:href="#Arial-ItalicMT-32"/>
     <use xlink:href="#Arial-ItalicMT-30" transform="translate(55.615234 0)"/>
    </g>
   </g>
   <g id="text_23">
    <!-- 19 -->
    <g style="fill: #000080; opacity: 0.6" transform="translate(111.797423 17.220937) scale(0.14 -0.14)">
     <defs>
      <path id="Arial-ItalicMT-31" d="M 1541 0 
L 2266 3459 
Q 1797 3091 947 2869 
L 1053 3381 
Q 1475 3550 1886 3822 
Q 2297 4094 2503 4297 
Q 2628 4422 2741 4600 
L 3069 4600 
L 2109 0 
L 1541 0 
z
" transform="scale(0.015625)"/>
      <path id="Arial-ItalicMT-39" d="M 431 1050 
L 963 1103 
Q 1016 719 1181 556 
Q 1347 394 1575 394 
Q 1900 394 2178 675 
Q 2588 1088 2781 1859 
Q 2497 1647 2276 1556 
Q 2056 1466 1825 1466 
Q 1406 1466 1075 1747 
Q 638 2113 638 2797 
Q 638 3572 1144 4125 
Q 1578 4600 2209 4600 
Q 2778 4600 3153 4179 
Q 3528 3759 3528 2991 
Q 3528 2244 3278 1516 
Q 2981 659 2475 253 
Q 2063 -78 1547 -78 
Q 1072 -78 770 217 
Q 469 513 431 1050 
z
M 1184 2863 
Q 1184 2431 1414 2175 
Q 1644 1919 1959 1919 
Q 2194 1919 2425 2078 
Q 2656 2238 2822 2555 
Q 2988 2872 2988 3206 
Q 2988 3469 2878 3694 
Q 2769 3919 2580 4033 
Q 2391 4147 2197 4147 
Q 2009 4147 1828 4047 
Q 1647 3947 1492 3753 
Q 1338 3559 1261 3307 
Q 1184 3056 1184 2863 
z
" transform="scale(0.015625)"/>
     </defs>
     <use xlink:href="#Arial-ItalicMT-31"/>
     <use xlink:href="#Arial-ItalicMT-39" transform="translate(55.615234 0)"/>
    </g>
   </g>
   <g id="text_24">
    <!-- 18 -->
    <g style="fill: #000080; opacity: 0.6" transform="translate(143.702442 17.220937) scale(0.14 -0.14)">
     <defs>
      <path id="Arial-ItalicMT-38" d="M 1444 2519 
Q 1188 2659 1059 2879 
Q 931 3100 931 3353 
Q 931 3769 1231 4122 
Q 1631 4600 2316 4600 
Q 2919 4600 3266 4276 
Q 3613 3953 3613 3484 
Q 3613 3150 3425 2881 
Q 3238 2613 2838 2453 
Q 3113 2281 3231 2088 
Q 3384 1834 3384 1497 
Q 3384 881 2948 400 
Q 2513 -81 1788 -81 
Q 1209 -81 843 275 
Q 478 631 478 1166 
Q 478 1669 737 2030 
Q 997 2391 1444 2519 
z
M 1488 3328 
Q 1488 3034 1677 2854 
Q 1866 2675 2197 2675 
Q 2584 2675 2826 2911 
Q 3069 3147 3069 3491 
Q 3069 3781 2880 3964 
Q 2691 4147 2359 4147 
Q 2109 4147 1900 4031 
Q 1691 3916 1589 3717 
Q 1488 3519 1488 3328 
z
M 1047 1119 
Q 1047 928 1139 753 
Q 1231 578 1418 475 
Q 1606 372 1847 372 
Q 2306 372 2591 803 
Q 2816 1141 2816 1531 
Q 2816 1850 2608 2053 
Q 2400 2256 2063 2256 
Q 1638 2256 1342 1940 
Q 1047 1625 1047 1119 
z
" transform="scale(0.015625)"/>
     </defs>
     <use xlink:href="#Arial-ItalicMT-31"/>
     <use xlink:href="#Arial-ItalicMT-38" transform="translate(55.615234 0)"/>
    </g>
   </g>
   <g id="text_25">
    <!-- 15 -->
    <g style="fill: #000080; opacity: 0.6" transform="translate(175.607461 17.220937) scale(0.14 -0.14)">
     <defs>
      <path id="Arial-ItalicMT-35" d="M 447 1309 
L 1022 1366 
Q 1016 1244 1016 1219 
Q 1016 1013 1120 803 
Q 1225 594 1404 483 
Q 1584 372 1784 372 
Q 2047 372 2319 553 
Q 2591 734 2759 1081 
Q 2928 1428 2928 1769 
Q 2928 2153 2701 2384 
Q 2475 2616 2106 2616 
Q 1859 2616 1639 2497 
Q 1419 2378 1228 2141 
L 734 2175 
L 1425 4519 
L 3663 4519 
L 3553 4000 
L 1813 4000 
L 1469 2834 
Q 1663 2975 1867 3045 
Q 2072 3116 2288 3116 
Q 2813 3116 3150 2769 
Q 3488 2422 3488 1819 
Q 3488 1291 3256 845 
Q 3025 400 2620 161 
Q 2216 -78 1747 -78 
Q 1353 -78 1050 100 
Q 747 278 595 590 
Q 444 903 444 1216 
Q 444 1247 447 1309 
z
" transform="scale(0.015625)"/>
     </defs>
     <use xlink:href="#Arial-ItalicMT-31"/>
     <use xlink:href="#Arial-ItalicMT-35" transform="translate(55.615234 0)"/>
    </g>
   </g>
   <g id="text_26">
    <!-- 15 -->
    <g style="fill: #000080; opacity: 0.6" transform="translate(207.512481 17.220937) scale(0.14 -0.14)">
     <use xlink:href="#Arial-ItalicMT-31"/>
     <use xlink:href="#Arial-ItalicMT-35" transform="translate(55.615234 0)"/>
    </g>
   </g>
   <g id="text_27">
    <!-- 13 -->
    <g style="fill: #000080; opacity: 0.6" transform="translate(239.4175 17.220937) scale(0.14 -0.14)">
     <defs>
      <path id="Arial-ItalicMT-33" d="M 350 1200 
L 900 1269 
Q 963 788 1177 580 
Q 1391 372 1738 372 
Q 2156 372 2461 672 
Q 2766 972 2766 1359 
Q 2766 1697 2537 1917 
Q 2309 2138 1925 2138 
Q 1881 2138 1744 2125 
L 1841 2597 
Q 1922 2584 1997 2584 
Q 2481 2584 2742 2820 
Q 3003 3056 3003 3400 
Q 3003 3716 2789 3931 
Q 2575 4147 2266 4147 
Q 1963 4147 1720 3926 
Q 1478 3706 1409 3303 
L 853 3416 
Q 991 3981 1381 4290 
Q 1772 4600 2306 4600 
Q 2869 4600 3217 4259 
Q 3566 3919 3566 3422 
Q 3566 3059 3377 2789 
Q 3188 2519 2809 2341 
Q 3078 2181 3211 1956 
Q 3344 1731 3344 1441 
Q 3344 825 2883 373 
Q 2422 -78 1781 -78 
Q 1159 -78 776 270 
Q 394 619 350 1200 
z
" transform="scale(0.015625)"/>
     </defs>
     <use xlink:href="#Arial-ItalicMT-31"/>
     <use xlink:href="#Arial-ItalicMT-33" transform="translate(55.615234 0)"/>
    </g>
   </g>
   <g id="text_28">
    <!-- 9 -->
    <g style="fill: #000080; opacity: 0.6" transform="translate(275.215176 17.220937) scale(0.14 -0.14)">
     <use xlink:href="#Arial-ItalicMT-39"/>
    </g>
   </g>
   <g id="text_29">
    <!-- 9 -->
    <g style="fill: #000080; opacity: 0.6" transform="translate(307.120195 17.220937) scale(0.14 -0.14)">
     <use xlink:href="#Arial-ItalicMT-39"/>
    </g>
   </g>
   <g id="text_30">
    <!-- 3 -->
    <g style="fill: #000080; opacity: 0.6" transform="translate(339.025214 17.220937) scale(0.14 -0.14)">
     <use xlink:href="#Arial-ItalicMT-33"/>
    </g>
   </g>
   <g id="text_31">
    <!-- 2 -->
    <g style="fill: #000080; opacity: 0.6" transform="translate(370.930233 17.220937) scale(0.14 -0.14)">
     <use xlink:href="#Arial-ItalicMT-32"/>
    </g>
   </g>
   <g id="text_32">
    <!-- 1 -->
    <g style="fill: #000080; opacity: 0.6" transform="translate(402.835253 17.220937) scale(0.14 -0.14)">
     <use xlink:href="#Arial-ItalicMT-31"/>
    </g>
   </g>
   <g id="text_33">
    <!-- 1 -->
    <g style="fill: #000080; opacity: 0.6" transform="translate(434.740272 17.220937) scale(0.14 -0.14)">
     <use xlink:href="#Arial-ItalicMT-31"/>
    </g>
   </g>
  </g>
 </g>
 <defs>
  <clipPath id="p3a79e6f8a2">
   <rect x="40.617813" y="24.477373" width="413.17" height="210.294644"/>
  </clipPath>
 </defs>
</svg>
