<?xml version="1.0" encoding="utf-8" standalone="no"?>
<!DOCTYPE svg PUBLIC "-//W3C//DTD SVG 1.1//EN"
  "http://www.w3.org/Graphics/SVG/1.1/DTD/svg11.dtd">
<svg xmlns:xlink="http://www.w3.org/1999/xlink" width="640.987812pt" height="280.800454pt" viewBox="0 0 640.987812 280.800454" xmlns="http://www.w3.org/2000/svg" version="1.1">
 <metadata>
  <rdf:RDF xmlns:dc="http://purl.org/dc/elements/1.1/" xmlns:cc="http://creativecommons.org/ns#" xmlns:rdf="http://www.w3.org/1999/02/22-rdf-syntax-ns#">
   <cc:Work>
    <dc:type rdf:resource="http://purl.org/dc/dcmitype/StillImage"/>
    <dc:date>2025-05-09T14:59:09.837180</dc:date>
    <dc:format>image/svg+xml</dc:format>
    <dc:creator>
     <cc:Agent>
      <dc:title>Matplotlib v3.10.1, https://matplotlib.org/</dc:title>
     </cc:Agent>
    </dc:creator>
   </cc:Work>
  </rdf:RDF>
 </metadata>
 <defs>
  <style type="text/css">*{stroke-linejoin: round; stroke-linecap: butt}</style>
 </defs>
 <g id="figure_1">
  <g id="patch_1">
   <path d="M 0 280.800454 
L 640.987812 280.800454 
L 640.987812 0 
L 0 0 
z
" style="fill: #ffffff"/>
  </g>
  <g id="axes_1">
   <g id="patch_2">
    <path d="M 40.617813 234.772017 
L 633.787812 234.772017 
L 633.787812 24.477373 
L 40.617813 24.477373 
z
" style="fill: #ffffff"/>
   </g>
   <g id="line2d_1">
    <path d="M 40.617813 234.772017 
L 633.787812 234.772017 
" clip-path="url(#p101e7e9b6c)" style="fill: none; stroke: #000000; stroke-width: 0.5; stroke-linecap: round"/>
   </g>
   <g id="patch_3">
    <path d="M 66.971673 230.048126 
Q 69.290812 231.151882 72.011211 231.805959 
L 69.692071 234.772017 
Q 68.270663 234.4904 66.910464 233.9953 
Q 66.61122 233.895372 62.72105 232.146624 
Q 59.660602 233.041438 55.940457 233.041438 
Q 48.758605 233.041438 44.684808 230.216188 
Q 40.617812 227.390938 40.617812 222.280961 
Q 40.617812 217.18461 44.69841 214.354818 
Q 48.779008 211.525026 55.770432 211.525026 
Q 62.700647 211.525026 66.760842 214.354818 
Q 70.821036 217.18461 70.821036 222.280961 
Q 70.821036 224.979029 69.692071 227.02302 
Q 68.841947 228.585537 66.971673 230.048126 
z
M 61.911732 227.677097 
Q 63.12911 226.723235 63.734398 225.378743 
Q 64.339687 224.029709 64.339687 222.280961 
Q 64.339687 218.678995 61.959338 216.898452 
Q 59.57899 215.113366 55.729626 215.113366 
Q 51.880262 215.113366 49.486312 216.902994 
Q 47.099162 218.692621 47.099162 222.280961 
Q 47.099162 225.928349 49.486312 227.740688 
Q 51.880262 229.548484 55.539198 229.548484 
Q 56.899397 229.548484 58.109975 229.253241 
Q 56.198895 228.412934 54.219805 227.945087 
L 55.988064 225.546804 
Q 59.089318 226.255388 61.911732 227.677097 
z
" clip-path="url(#p101e7e9b6c)" style="fill: #0000ff"/>
   </g>
   <g id="patch_4">
    <path d="M 52.147047 211.525026 
L 52.147047 48.796096 
L 60.481976 48.796096 
L 60.481976 211.525026 
L 52.147047 211.525026 
z
" clip-path="url(#p101e7e9b6c)" style="fill: #add8e6"/>
   </g>
   <g id="patch_5">
    <path d="M 73.663495 234.772017 
L 73.663495 223.498048 
L 86.940156 223.498048 
Q 94.491033 223.498048 96.781347 223.665398 
Q 100.306282 223.921345 102.677114 224.770399 
Q 105.056893 225.619454 105.056893 226.965636 
Q 105.056893 228.00419 103.688073 228.712966 
Q 102.319253 229.419281 100.20787 229.822889 
Q 98.096487 230.226498 95.913532 230.356933 
Q 92.952229 230.51936 87.333803 230.51936 
L 81.939042 230.51936 
L 81.939042 234.772017 
L 73.663495 234.772017 
z
M 81.939042 225.405344 
L 81.939042 228.604681 
L 86.465989 228.604681 
Q 91.359745 228.604681 93.005908 228.427487 
Q 94.661017 228.250293 95.591457 227.873755 
Q 96.530844 227.497218 96.530844 226.997629 
Q 96.530844 226.382372 95.215703 225.983686 
Q 93.900562 225.582538 91.887591 225.481636 
Q 90.411412 225.405344 85.938144 225.405344 
L 81.939042 225.405344 
z
" clip-path="url(#p101e7e9b6c)" style="fill: #f0fff0"/>
   </g>
   <g id="patch_6">
    <path d="M 73.663495 223.498048 
L 73.663495 212.224079 
L 104.272959 212.224079 
L 104.272959 214.131376 
L 81.998424 214.131376 
L 81.998424 216.629319 
L 102.723113 216.629319 
L 102.723113 218.529232 
L 81.998424 218.529232 
L 81.998424 221.598134 
L 105.056893 221.598134 
L 105.056893 223.498048 
L 73.663495 223.498048 
z
" clip-path="url(#p101e7e9b6c)" style="fill: #c0c0c0"/>
   </g>
   <g id="patch_7">
    <path d="M 90.448157 153.514714 
L 90.448157 127.791882 
L 105.056893 127.791882 
L 105.056893 188.60039 
Q 102.924926 197.963234 98.880782 205.093657 
Q 94.843965 212.224079 90.697253 212.224079 
Q 85.436935 212.224079 81.517339 202.19484 
Q 77.60507 192.132281 75.634282 173.439913 
Q 73.663495 154.747544 73.663495 132.789841 
Q 73.663495 108.932914 75.861399 90.407144 
Q 78.059303 71.881374 82.293932 61.985414 
Q 85.524851 54.388515 90.330935 54.388515 
Q 96.580309 54.388515 100.096956 66.316979 
Q 103.613603 78.212123 104.617312 99.236873 
L 97.891726 104.967866 
Q 97.18107 93.739117 95.217609 87.24177 
Q 93.261474 80.711102 90.330935 80.711102 
Q 85.891169 80.711102 83.268336 93.539199 
Q 80.645504 106.333975 80.645504 131.523692 
Q 80.645504 158.712592 83.297642 172.307042 
Q 85.957106 185.868172 90.264998 185.868172 
Q 92.396965 185.868172 94.536259 182.069723 
Q 96.675552 178.271273 98.206759 172.873477 
L 98.206759 153.514714 
L 90.448157 153.514714 
z
" clip-path="url(#p101e7e9b6c)" style="fill: #ff69b4"/>
   </g>
   <g id="patch_8">
    <path d="M 106.709177 234.772017 
L 106.709177 223.498048 
L 137.318642 223.498048 
L 137.318642 225.405344 
L 115.044107 225.405344 
L 115.044107 227.903288 
L 135.768796 227.903288 
L 135.768796 229.803201 
L 115.044107 229.803201 
L 115.044107 232.872103 
L 138.102576 232.872103 
L 138.102576 234.772017 
L 106.709177 234.772017 
z
" clip-path="url(#p101e7e9b6c)" style="fill: #c0c0c0"/>
   </g>
   <g id="patch_9">
    <path d="M 131.046731 219.304522 
L 138.102576 219.980436 
Q 136.48217 221.765422 132.706467 222.631735 
Q 128.930764 223.498048 123.133486 223.498048 
Q 115.951784 223.498048 111.326548 222.01532 
Q 106.709177 220.530212 106.709177 217.957453 
Q 106.709177 215.234755 111.350146 213.730607 
Q 115.99898 212.224079 123.573985 212.224079 
Q 130.189331 212.224079 134.319007 213.404549 
Q 136.773214 214.104264 138.000317 215.413253 
L 130.802883 215.934469 
Q 130.157867 215.087196 128.128427 214.59692 
Q 126.106852 214.104264 123.20428 214.104264 
Q 119.200462 214.104264 116.699059 214.975337 
Q 114.205521 215.84403 114.205521 217.793234 
Q 114.205521 219.861437 116.659728 220.73965 
Q 119.121801 221.615483 123.054826 221.615483 
Q 125.957397 221.615483 128.0419 221.058567 
Q 130.134269 220.501652 131.046731 219.304522 
z
" clip-path="url(#p101e7e9b6c)" style="fill: #00ff7f"/>
   </g>
   <g id="patch_10">
    <path d="M 106.709177 212.224079 
L 106.709177 54.388515 
L 116.535134 54.388515 
L 122.430708 162.058486 
L 128.26243 54.388515 
L 138.102576 54.388515 
L 138.102576 212.224079 
L 132.008354 212.224079 
L 132.008354 87.981546 
L 125.552311 212.224079 
L 119.238159 212.224079 
L 112.810493 87.981546 
L 112.810493 212.224079 
L 106.709177 212.224079 
z
" clip-path="url(#p101e7e9b6c)" style="fill: #ff8c00"/>
   </g>
   <g id="patch_11">
    <path d="M 139.75486 234.772017 
L 139.75486 226.163049 
L 147.684651 226.163049 
L 147.684651 229.551385 
L 163.218468 229.551385 
L 163.218468 226.163049 
L 171.148258 226.163049 
L 171.148258 234.772017 
L 163.218468 234.772017 
L 163.218468 231.007825 
L 147.684651 231.007825 
L 147.684651 234.772017 
L 139.75486 234.772017 
z
" clip-path="url(#p101e7e9b6c)" style="fill: #00ffff"/>
   </g>
   <g id="patch_12">
    <path d="M 139.75486 226.163049 
L 139.75486 217.554081 
L 153.031521 217.554081 
Q 160.582398 217.554081 162.872711 217.681872 
Q 166.397647 217.877317 168.768479 218.525668 
Q 171.148258 219.174018 171.148258 220.201983 
Q 171.148258 220.995037 169.779438 221.536269 
Q 168.410618 222.075622 166.299235 222.383823 
Q 164.187852 222.692025 162.004897 222.791626 
Q 159.043594 222.915658 153.425168 222.915658 
L 148.030407 222.915658 
L 148.030407 226.163049 
L 139.75486 226.163049 
z
M 148.030407 219.010521 
L 148.030407 221.453581 
L 152.557354 221.453581 
Q 157.45111 221.453581 159.097273 221.318273 
Q 160.752382 221.182965 161.682822 220.895436 
Q 162.622208 220.607906 162.622208 220.226413 
Q 162.622208 219.756594 161.307067 219.452151 
Q 159.991927 219.145829 157.978956 219.068779 
Q 156.502777 219.010521 152.029509 219.010521 
L 148.030407 219.010521 
z
" clip-path="url(#p101e7e9b6c)" style="fill: #f0fff0"/>
   </g>
   <g id="patch_13">
    <path d="M 156.539522 214.351844 
L 156.539522 212.94882 
L 171.148258 212.94882 
L 171.148258 216.265553 
Q 169.016291 216.776239 164.972147 217.16516 
Q 160.93533 217.554081 156.788617 217.554081 
Q 151.5283 217.554081 147.608704 217.007048 
Q 143.696435 216.458196 141.725647 215.438642 
Q 139.75486 214.419087 139.75486 213.221428 
Q 139.75486 211.920178 141.952764 210.90971 
Q 144.150668 209.899243 148.385297 209.359478 
Q 151.616216 208.945114 156.4223 208.945114 
Q 162.671674 208.945114 166.188321 209.595739 
Q 169.704968 210.244546 170.708677 211.391318 
L 163.98309 211.703909 
Q 163.272435 211.091449 161.308974 210.737059 
Q 159.352839 210.380851 156.4223 210.380851 
Q 151.982534 210.380851 149.359701 211.080545 
Q 146.736869 211.778422 146.736869 213.152367 
Q 146.736869 214.635356 149.389007 215.37685 
Q 152.048471 216.116527 156.356363 216.116527 
Q 158.48833 216.116527 160.627623 215.909345 
Q 162.766917 215.702163 164.298123 215.407746 
L 164.298123 214.351844 
L 156.539522 214.351844 
z
" clip-path="url(#p101e7e9b6c)" style="fill: #ff69b4"/>
   </g>
   <g id="patch_14">
    <path d="M 139.75486 200.336146 
L 147.702012 200.336146 
L 147.702012 204.920574 
Q 147.702012 206.012632 148.002715 206.336 
Q 148.509614 206.855236 150.425522 207.169364 
Q 152.350022 207.483493 155.68353 207.483493 
Q 159.059996 207.483493 160.778299 207.187842 
Q 162.496602 206.890344 162.848854 206.457956 
Q 163.201106 206.023719 163.201106 205.018508 
L 163.201106 200.336146 
L 171.148258 200.336146 
L 171.148258 204.781988 
Q 171.148258 206.306435 170.503895 206.93654 
Q 169.859531 207.564796 168.124045 207.999033 
Q 166.388558 208.431421 163.484626 208.688268 
Q 160.589285 208.945114 155.924092 208.945114 
Q 150.279467 208.945114 147.366943 208.666094 
Q 144.454419 208.385226 142.76189 207.938055 
Q 141.077953 207.490884 140.536688 206.999365 
Q 139.75486 206.271326 139.75486 204.850357 
L 139.75486 200.336146 
z
" clip-path="url(#p101e7e9b6c)" style="fill: #f08080"/>
   </g>
   <g id="patch_15">
    <path d="M 139.75486 200.336146 
L 139.75486 191.727179 
L 149.580816 191.727179 
L 155.47639 197.599919 
L 161.308113 191.727179 
L 171.148258 191.727179 
L 171.148258 200.336146 
L 165.054037 200.336146 
L 165.054037 193.559474 
L 158.597993 200.336146 
L 152.283841 200.336146 
L 145.856176 193.559474 
L 145.856176 200.336146 
L 139.75486 200.336146 
z
" clip-path="url(#p101e7e9b6c)" style="fill: #ff8c00"/>
   </g>
   <g id="patch_16">
    <path d="M 166.10872 172.484 
Q 168.42786 176.980243 171.148258 179.644683 
L 168.829118 191.727179 
Q 167.40771 190.579989 166.047511 188.563156 
Q 165.748267 188.156089 161.858097 181.032412 
Q 158.797649 184.677514 155.077504 184.677514 
Q 147.895652 184.677514 143.821856 173.168613 
Q 139.75486 161.659712 139.75486 140.843773 
Q 139.75486 120.083344 143.835458 108.55594 
Q 147.916055 97.028536 154.907479 97.028536 
Q 161.837694 97.028536 165.897889 108.55594 
Q 169.958084 120.083344 169.958084 140.843773 
Q 169.958084 151.834589 168.829118 160.160964 
Q 167.978994 166.526016 166.10872 172.484 
z
M 161.048779 162.825405 
Q 162.266157 158.939763 162.871446 153.462858 
Q 163.476735 147.96745 163.476735 140.843773 
Q 163.476735 126.17085 161.096386 118.917651 
Q 158.716037 111.64595 154.866673 111.64595 
Q 151.01731 111.64595 148.623359 118.936154 
Q 146.236209 126.226359 146.236209 140.843773 
Q 146.236209 155.701728 148.623359 163.084447 
Q 151.01731 170.448664 154.676245 170.448664 
Q 156.036445 170.448664 157.247022 169.245965 
Q 155.335942 165.8229 153.356852 163.917085 
L 155.125111 154.147471 
Q 158.226365 157.033948 161.048779 162.825405 
z
" clip-path="url(#p101e7e9b6c)" style="fill: #0000ff"/>
   </g>
   <g id="patch_17">
    <path d="M 172.800542 234.772017 
L 172.800542 225.813523 
L 180.730333 225.813523 
L 180.730333 229.339426 
L 196.26415 229.339426 
L 196.26415 225.813523 
L 204.193941 225.813523 
L 204.193941 234.772017 
L 196.26415 234.772017 
L 196.26415 230.854998 
L 180.730333 230.854998 
L 180.730333 234.772017 
L 172.800542 234.772017 
z
" clip-path="url(#p101e7e9b6c)" style="fill: #00ffff"/>
   </g>
   <g id="patch_18">
    <path d="M 189.585204 222.481273 
L 189.585204 221.021287 
L 204.193941 221.021287 
L 204.193941 224.47268 
Q 202.061974 225.0041 198.01783 225.408811 
Q 193.981012 225.813523 189.8343 225.813523 
Q 184.573982 225.813523 180.654387 225.244279 
Q 176.742117 224.673145 174.77133 223.612196 
Q 172.800542 222.551247 172.800542 221.304963 
Q 172.800542 219.950882 174.998447 218.899389 
Q 177.196351 217.847896 181.430979 217.286217 
Q 184.661899 216.855029 189.467982 216.855029 
Q 195.717357 216.855029 199.234003 217.532069 
Q 202.75065 218.207219 203.75436 219.40055 
L 197.028773 219.725832 
Q 196.318117 219.088506 194.354656 218.719727 
Q 192.398521 218.349057 189.467982 218.349057 
Q 185.028216 218.349057 182.405384 219.077159 
Q 179.782551 219.80337 179.782551 221.233098 
Q 179.782551 222.776296 182.434689 223.547896 
Q 185.094153 224.317604 189.402045 224.317604 
Q 191.534012 224.317604 193.673306 224.10201 
Q 195.812599 223.886416 197.343806 223.580046 
L 197.343806 222.481273 
L 189.585204 222.481273 
z
" clip-path="url(#p101e7e9b6c)" style="fill: #ff69b4"/>
   </g>
   <g id="patch_19">
    <path d="M 172.800542 207.896535 
L 186.616908 207.896535 
Q 191.293216 207.896535 193.745825 208.06667 
Q 197.040497 208.299384 199.386827 208.891923 
Q 201.741331 209.484463 202.967636 210.342961 
Q 204.193941 211.201459 204.193941 212.46085 
Q 204.193941 213.567706 203.04939 214.367536 
Q 201.643227 215.345324 199.035286 215.949597 
Q 197.065023 216.409158 193.721299 216.665338 
Q 191.219638 216.855029 187.025676 216.855029 
L 172.800542 216.855029 
L 172.800542 207.896535 
z
M 180.362754 209.412107 
L 180.362754 215.345324 
L 186.003755 215.345324 
Q 189.175797 215.345324 190.581959 215.259279 
Q 192.421416 215.149767 193.63137 214.88772 
Q 194.841324 214.623717 195.609808 214.023355 
Q 196.378293 213.421038 196.378293 212.380671 
Q 196.378293 211.34226 195.609808 210.786877 
Q 194.841324 210.229537 193.459688 209.918601 
Q 192.086226 209.607664 189.968807 209.496196 
Q 188.382786 209.412107 183.75553 209.412107 
L 180.362754 209.412107 
z
" clip-path="url(#p101e7e9b6c)" style="fill: #c71585"/>
   </g>
   <g id="patch_20">
    <path d="M 199.154402 204.255725 
Q 201.473542 205.106414 204.193941 205.610526 
L 201.874801 207.896535 
Q 200.453393 207.679487 199.093194 207.297902 
Q 198.79395 207.220885 194.90378 205.873085 
Q 191.843332 206.562738 188.123187 206.562738 
Q 180.941335 206.562738 176.867538 204.385254 
Q 172.800542 202.207769 172.800542 198.269393 
Q 172.800542 194.341518 176.88114 192.160533 
Q 180.961738 189.979548 187.953162 189.979548 
Q 194.883377 189.979548 198.943572 192.160533 
Q 203.003766 194.341518 203.003766 198.269393 
Q 203.003766 200.348855 201.874801 201.924206 
Q 201.024676 203.128474 199.154402 204.255725 
z
M 194.094461 202.428318 
Q 195.31184 201.693155 195.917128 200.656924 
Q 196.522417 199.617193 196.522417 198.269393 
Q 196.522417 195.493275 194.142068 194.120969 
Q 191.76172 192.745163 187.912356 192.745163 
Q 184.062992 192.745163 181.669041 194.12447 
Q 179.281892 195.503777 179.281892 198.269393 
Q 179.281892 201.080518 181.669041 202.477329 
Q 184.062992 203.870639 187.721928 203.870639 
Q 189.082127 203.870639 190.292704 203.643089 
Q 188.381625 202.995444 186.402535 202.634864 
L 188.170794 200.786453 
Q 191.272048 201.332574 194.094461 202.428318 
z
" clip-path="url(#p101e7e9b6c)" style="fill: #0000ff"/>
   </g>
   <g id="patch_21">
    <path d="M 184.521319 189.979548 
L 184.521319 108.107402 
L 172.800542 108.107402 
L 172.800542 91.436116 
L 204.193941 91.436116 
L 204.193941 108.107402 
L 192.499037 108.107402 
L 192.499037 189.979548 
L 184.521319 189.979548 
z
" clip-path="url(#p101e7e9b6c)" style="fill: #a0522d"/>
   </g>
   <g id="patch_22">
    <path d="M 205.846225 234.772017 
L 205.846225 225.29521 
L 213.776015 225.29521 
L 213.776015 229.025112 
L 229.309832 229.025112 
L 229.309832 225.29521 
L 237.239623 225.29521 
L 237.239623 234.772017 
L 229.309832 234.772017 
L 229.309832 230.62837 
L 213.776015 230.62837 
L 213.776015 234.772017 
L 205.846225 234.772017 
z
" clip-path="url(#p101e7e9b6c)" style="fill: #00ffff"/>
   </g>
   <g id="patch_23">
    <path d="M 222.630886 221.770166 
L 222.630886 220.225709 
L 237.239623 220.225709 
L 237.239623 223.87679 
Q 235.107656 224.438956 231.063512 224.867083 
Q 227.026695 225.29521 222.879982 225.29521 
Q 217.619665 225.29521 213.700069 224.693032 
Q 209.7878 224.088853 207.817012 222.96652 
Q 205.846225 221.844188 205.846225 220.525798 
Q 205.846225 219.093373 208.044129 217.981044 
Q 210.242033 216.868714 214.476662 216.274538 
Q 217.707581 215.818403 222.513665 215.818403 
Q 228.763039 215.818403 232.279686 216.534616 
Q 235.796333 217.248827 236.800042 218.511201 
L 230.074455 218.855303 
Q 229.3638 218.181103 227.400339 217.790988 
Q 225.444204 217.398871 222.513665 217.398871 
Q 218.073898 217.398871 215.451066 218.1691 
Q 212.828234 218.937327 212.828234 220.449775 
Q 212.828234 222.082258 215.480372 222.8985 
Q 218.139836 223.712741 222.447728 223.712741 
Q 224.579695 223.712741 226.718988 223.484674 
Q 228.858282 223.256606 230.389488 222.93251 
L 230.389488 221.770166 
L 222.630886 221.770166 
z
" clip-path="url(#p101e7e9b6c)" style="fill: #ff69b4"/>
   </g>
   <g id="patch_24">
    <path d="M 205.846225 212.675462 
L 213.431207 212.501521 
Q 214.122283 213.407216 216.212367 213.833072 
Q 218.302451 214.25693 221.858965 214.25693 
Q 225.626173 214.25693 227.530846 213.879057 
Q 229.443947 213.501184 229.443947 212.995355 
Q 229.443947 212.669464 228.64331 212.441541 
Q 227.842673 212.213618 225.836867 212.045675 
Q 224.47157 211.931713 219.600326 211.645809 
Q 213.330074 211.275934 210.801746 210.740115 
Q 207.245233 209.98237 207.245233 208.896736 
Q 207.245233 208.196972 208.913929 207.587177 
Q 210.591052 206.977383 213.734606 206.65949 
Q 216.886588 206.341597 221.336444 206.341597 
Q 228.601171 206.341597 232.275674 207.097342 
Q 235.950176 207.853087 236.135587 209.114662 
L 228.339911 209.196635 
Q 227.842673 208.490873 226.190832 208.180977 
Q 224.54742 207.871081 221.252166 207.871081 
Q 217.85578 207.871081 215.934251 208.20297 
Q 214.695371 208.414898 214.695371 208.770778 
Q 214.695371 209.096668 215.858401 209.326591 
Q 217.333259 209.620492 223.021995 209.940384 
Q 228.710732 210.258277 231.432898 210.600162 
Q 234.163491 210.940047 235.697343 211.529849 
Q 237.239623 212.11965 237.239623 212.989357 
Q 237.239623 213.775092 235.393944 214.46286 
Q 233.556693 215.150628 230.18559 215.484516 
Q 226.814487 215.818403 221.783115 215.818403 
Q 214.459393 215.818403 210.532058 215.016674 
Q 206.613151 214.212944 205.846225 212.675462 
z
" clip-path="url(#p101e7e9b6c)" style="fill: #ffff00"/>
   </g>
   <g id="patch_25">
    <path d="M 205.846225 206.341597 
L 205.846225 196.86479 
L 215.672181 196.86479 
L 221.567755 203.32954 
L 227.399478 196.86479 
L 237.239623 196.86479 
L 237.239623 206.341597 
L 231.145402 206.341597 
L 231.145402 198.881792 
L 224.689358 206.341597 
L 218.375206 206.341597 
L 211.947541 198.881792 
L 211.947541 206.341597 
L 205.846225 206.341597 
z
" clip-path="url(#p101e7e9b6c)" style="fill: #ff8c00"/>
   </g>
   <g id="patch_26">
    <path d="M 217.567002 196.86479 
L 217.567002 102.382208 
L 205.846225 102.382208 
L 205.846225 83.143111 
L 237.239623 83.143111 
L 237.239623 102.382208 
L 225.54472 102.382208 
L 225.54472 196.86479 
L 217.567002 196.86479 
z
" clip-path="url(#p101e7e9b6c)" style="fill: #a0522d"/>
   </g>
   <g id="patch_27">
    <path d="M 250.612684 234.772017 
L 250.612684 231.262974 
L 238.891907 231.262974 
L 238.891907 230.548442 
L 270.285306 230.548442 
L 270.285306 231.262974 
L 258.590402 231.262974 
L 258.590402 234.772017 
L 250.612684 234.772017 
z
" clip-path="url(#p101e7e9b6c)" style="fill: #a0522d"/>
   </g>
   <g id="patch_28">
    <path d="M 238.891907 230.548442 
L 238.891907 226.324867 
L 253.731176 226.324867 
Q 259.325435 226.324867 261.86343 226.439192 
Q 264.401425 226.552595 265.925746 226.84394 
Q 267.450068 227.134362 267.450068 227.508685 
Q 267.450068 227.984425 265.133099 228.294209 
Q 262.823752 228.603993 258.227924 228.684205 
Q 260.514406 228.845551 262.000619 229.039166 
Q 263.494454 229.231859 266.017206 229.724195 
L 270.285306 230.548442 
L 261.848187 230.548442 
L 256.756954 229.629231 
Q 254.03604 229.136896 253.037609 229.008741 
Q 252.039179 228.880586 250.918803 228.832643 
Q 249.798427 228.7847 247.367134 228.7847 
L 245.941893 228.7847 
L 245.941893 230.548442 
L 238.891907 230.548442 
z
M 245.941893 228.110736 
L 251.155073 228.110736 
Q 256.231063 228.110736 257.488628 228.059105 
Q 258.753814 228.007474 259.470246 227.881163 
Q 260.186677 227.753931 260.186677 227.563081 
Q 260.186677 227.350105 259.241597 227.219184 
Q 258.30414 227.088264 256.589278 227.053228 
Q 255.728037 227.039399 251.444694 227.039399 
L 245.941893 227.039399 
L 245.941893 228.110736 
z
" clip-path="url(#p101e7e9b6c)" style="fill: #ffe4b5"/>
   </g>
   <g id="patch_29">
    <path d="M 238.891907 226.324867 
L 238.891907 225.555938 
L 259.185437 222.815824 
L 241.186105 222.815824 
L 241.186105 222.101292 
L 269.467154 222.101292 
L 269.467154 222.763271 
L 248.296431 225.613101 
L 270.285306 225.613101 
L 270.285306 226.324867 
L 238.891907 226.324867 
z
" clip-path="url(#p101e7e9b6c)" style="fill: #dda0dd"/>
   </g>
   <g id="patch_30">
    <path d="M 238.891907 222.101292 
L 238.891907 217.877717 
L 246.821698 217.877717 
L 246.821698 219.540041 
L 262.355515 219.540041 
L 262.355515 217.877717 
L 270.285306 217.877717 
L 270.285306 222.101292 
L 262.355515 222.101292 
L 262.355515 220.254573 
L 246.821698 220.254573 
L 246.821698 222.101292 
L 238.891907 222.101292 
z
" clip-path="url(#p101e7e9b6c)" style="fill: #00ffff"/>
   </g>
   <g id="patch_31">
    <path d="M 255.676569 216.306694 
L 255.676569 215.618368 
L 270.285306 215.618368 
L 270.285306 217.245563 
Q 268.153338 217.496107 264.109195 217.686912 
Q 260.072377 217.877717 255.925665 217.877717 
Q 250.665347 217.877717 246.745752 217.609341 
Q 242.833482 217.340074 240.862695 216.839879 
Q 238.891907 216.339683 238.891907 215.75211 
Q 238.891907 215.113714 241.089811 214.617977 
Q 243.287716 214.12224 247.522344 213.85743 
Q 250.753264 213.654142 255.559347 213.654142 
Q 261.808722 213.654142 265.325368 213.97334 
Q 268.842015 214.291646 269.845725 214.854255 
L 263.120138 215.007612 
Q 262.409482 214.707138 260.446021 214.533274 
Q 258.489886 214.358517 255.559347 214.358517 
Q 251.119581 214.358517 248.496749 214.701789 
Q 245.873916 215.044168 245.873916 215.718228 
Q 245.873916 216.445785 248.526054 216.809564 
Q 251.185518 217.172451 255.49341 217.172451 
Q 257.625377 217.172451 259.764671 217.070807 
Q 261.903964 216.969163 263.435171 216.824721 
L 263.435171 216.306694 
L 255.676569 216.306694 
z
" clip-path="url(#p101e7e9b6c)" style="fill: #ff69b4"/>
   </g>
   <g id="patch_32">
    <path d="M 238.891907 213.654142 
L 238.891907 209.430568 
L 269.501372 209.430568 
L 269.501372 210.145099 
L 247.226836 210.145099 
L 247.226836 211.080906 
L 267.951525 211.080906 
L 267.951525 211.792672 
L 247.226836 211.792672 
L 247.226836 212.942376 
L 270.285306 212.942376 
L 270.285306 213.654142 
L 238.891907 213.654142 
z
" clip-path="url(#p101e7e9b6c)" style="fill: #c0c0c0"/>
   </g>
   <g id="patch_33">
    <path d="M 238.891907 205.206993 
L 252.708273 205.206993 
Q 257.384581 205.206993 259.83719 205.287205 
Q 263.131862 205.39692 265.478191 205.676279 
Q 267.832696 205.955638 269.059001 206.360385 
Q 270.285306 206.765133 270.285306 207.358886 
Q 270.285306 207.880725 269.140755 208.257813 
Q 267.734592 208.718802 265.126651 209.003692 
Q 263.156388 209.220357 259.812664 209.341136 
Q 257.311003 209.430568 253.117041 209.430568 
L 238.891907 209.430568 
L 238.891907 205.206993 
z
M 246.454119 205.921525 
L 246.454119 208.718802 
L 252.09512 208.718802 
Q 255.267162 208.718802 256.673324 208.678235 
Q 258.512781 208.626604 259.722735 208.503059 
Q 260.932689 208.378592 261.701173 208.095545 
Q 262.469657 207.811577 262.469657 207.321085 
Q 262.469657 206.831516 261.701173 206.569674 
Q 260.932689 206.306911 259.551052 206.160317 
Q 258.177591 206.013722 256.060172 205.96117 
Q 254.474151 205.921525 249.846895 205.921525 
L 246.454119 205.921525 
z
" clip-path="url(#p101e7e9b6c)" style="fill: #c71585"/>
   </g>
   <g id="patch_34">
    <path d="M 263.22946 203.635969 
L 270.285306 203.889187 
Q 268.6649 204.557898 264.889196 204.882445 
Q 261.113493 205.206993 255.316216 205.206993 
Q 248.134514 205.206993 243.509277 204.651517 
Q 238.891907 204.09515 238.891907 203.131316 
Q 238.891907 202.111309 243.532876 201.547809 
Q 248.18171 200.983418 255.756715 200.983418 
Q 262.372061 200.983418 266.501736 201.425658 
Q 268.955943 201.687793 270.183047 202.17818 
L 262.985613 202.373444 
Q 262.340597 202.056029 260.311156 201.872357 
Q 258.289582 201.687793 255.38701 201.687793 
Q 251.383192 201.687793 248.881788 202.014124 
Q 246.388251 202.339563 246.388251 203.069794 
Q 246.388251 203.844607 248.842458 204.173612 
Q 251.304531 204.501726 255.237555 204.501726 
Q 258.140127 204.501726 260.22463 204.293089 
Q 262.316999 204.084451 263.22946 203.635969 
z
" clip-path="url(#p101e7e9b6c)" style="fill: #00ff7f"/>
   </g>
   <g id="patch_35">
    <path d="M 259.490446 192.536268 
L 267.798343 192.536268 
L 267.798343 197.794206 
Q 267.798343 198.824037 266.897269 199.380653 
Q 265.68082 200.105886 262.500031 200.544652 
Q 259.319242 200.983418 254.111037 200.983418 
Q 248.00176 200.983418 244.703831 200.29626 
Q 241.414913 199.607289 241.37887 198.274673 
L 249.23623 198.093365 
Q 249.380402 198.807719 250.281475 199.103252 
Q 251.633086 199.54927 254.39037 199.54927 
Q 257.183698 199.54927 258.337072 199.230167 
Q 259.490446 198.909252 259.490446 197.901178 
L 259.490446 192.536268 
z
" clip-path="url(#p101e7e9b6c)" style="fill: #7b68ee"/>
   </g>
   <g id="patch_36">
    <path d="M 265.245767 190.81977 
Q 267.564907 191.220837 270.285306 191.458506 
L 267.966166 192.536268 
Q 266.544758 192.433939 265.184558 192.254036 
Q 264.885315 192.217726 260.995145 191.582292 
Q 257.934696 191.907436 254.214552 191.907436 
Q 247.0327 191.907436 242.958903 190.880838 
Q 238.891907 189.85424 238.891907 187.997452 
Q 238.891907 186.145615 242.972505 185.117367 
Q 247.053103 184.089119 254.044527 184.089119 
Q 260.974742 184.089119 265.034936 185.117367 
Q 269.095131 186.145615 269.095131 187.997452 
Q 269.095131 188.977836 267.966166 189.720552 
Q 267.116041 190.288316 265.245767 190.81977 
z
M 260.185826 189.958221 
Q 261.403205 189.61162 262.008493 189.123078 
Q 262.613782 188.632886 262.613782 187.997452 
Q 262.613782 186.688622 260.233433 186.041635 
Q 257.853085 185.392997 254.003721 185.392997 
Q 250.154357 185.392997 247.760406 186.043285 
Q 245.373257 186.693574 245.373257 187.997452 
Q 245.373257 189.322786 247.760406 189.981327 
Q 250.154357 190.638218 253.813293 190.638218 
Q 255.173492 190.638218 256.384069 190.530937 
Q 254.472989 190.225598 252.4939 190.055599 
L 254.262159 189.184146 
Q 257.363413 189.441621 260.185826 189.958221 
z
" clip-path="url(#p101e7e9b6c)" style="fill: #0000ff"/>
   </g>
   <g id="patch_37">
    <path d="M 238.891907 184.089119 
L 238.891907 175.641969 
L 248.717864 175.641969 
L 254.613437 181.404323 
L 260.44516 175.641969 
L 270.285306 175.641969 
L 270.285306 184.089119 
L 264.191084 184.089119 
L 264.191084 177.439823 
L 257.735041 184.089119 
L 251.420888 184.089119 
L 244.993223 177.439823 
L 244.993223 184.089119 
L 238.891907 184.089119 
z
" clip-path="url(#p101e7e9b6c)" style="fill: #ff8c00"/>
   </g>
   <g id="patch_38">
    <path d="M 298.29145 233.171374 
Q 300.61059 233.54537 303.330988 233.766998 
L 301.011848 234.772017 
Q 299.59044 234.676594 298.230241 234.508834 
Q 297.930997 234.474974 294.040827 233.882429 
Q 290.980379 234.185627 287.260234 234.185627 
Q 280.078382 234.185627 276.004585 233.22832 
Q 271.93759 232.271012 271.93759 230.539548 
Q 271.93759 228.812701 276.018187 227.853854 
Q 280.098785 226.895008 287.090209 226.895008 
Q 294.020424 226.895008 298.080619 227.853854 
Q 302.140814 228.812701 302.140814 230.539548 
Q 302.140814 231.453761 301.011848 232.146347 
Q 300.161724 232.67579 298.29145 233.171374 
z
M 293.231509 232.367974 
Q 294.448887 232.044768 295.054176 231.5892 
Q 295.659464 231.132094 295.659464 230.539548 
Q 295.659464 229.319058 293.279116 228.715739 
Q 290.898767 228.110881 287.049403 228.110881 
Q 283.200039 228.110881 280.806089 228.717278 
Q 278.418939 229.323675 278.418939 230.539548 
Q 278.418939 231.775429 280.806089 232.389522 
Q 283.200039 233.002075 286.858975 233.002075 
Q 288.219174 233.002075 289.429752 232.902035 
Q 287.518672 232.617305 285.539582 232.45878 
L 287.307841 231.646146 
Q 290.409095 231.886243 293.231509 232.367974 
z
" clip-path="url(#p101e7e9b6c)" style="fill: #0000ff"/>
   </g>
   <g id="patch_39">
    <path d="M 271.93759 224.282633 
L 279.522572 224.138055 
Q 280.213648 224.890857 282.303732 225.244824 
Q 284.393816 225.597129 287.95033 225.597129 
Q 291.717538 225.597129 293.622211 225.283046 
Q 295.535312 224.968963 295.535312 224.548523 
Q 295.535312 224.277647 294.734675 224.0882 
Q 293.934038 223.898753 291.928231 223.759161 
Q 290.562935 223.664437 285.691691 223.426797 
Q 279.421439 223.119361 276.893111 222.673995 
Q 273.336597 222.044166 273.336597 221.1418 
Q 273.336597 220.560164 275.005294 220.05331 
Q 276.682417 219.546456 279.825971 219.282228 
Q 282.977953 219.017999 287.427809 219.017999 
Q 294.692536 219.017999 298.367039 219.646165 
Q 302.041541 220.274332 302.226952 221.322938 
L 294.431276 221.391072 
Q 293.934038 220.804451 292.282197 220.54687 
Q 290.638785 220.289288 287.343531 220.289288 
Q 283.947145 220.289288 282.025616 220.56515 
Q 280.786735 220.741302 280.786735 221.037106 
Q 280.786735 221.307982 281.949766 221.499091 
Q 283.424624 221.743378 289.11336 222.009268 
Q 294.802097 222.273497 297.524263 222.557667 
Q 300.254856 222.840176 301.788708 223.330412 
Q 303.330988 223.820648 303.330988 224.543538 
Q 303.330988 225.196632 301.485309 225.768296 
Q 299.648058 226.339961 296.276955 226.617484 
Q 292.905851 226.895008 287.87448 226.895008 
Q 280.550758 226.895008 276.623423 226.228619 
Q 272.704516 225.560569 271.93759 224.282633 
z
" clip-path="url(#p101e7e9b6c)" style="fill: #ffff00"/>
   </g>
   <g id="patch_40">
    <path d="M 271.93759 219.017999 
L 271.93759 203.263981 
L 281.763546 203.263981 
L 287.65912 214.010828 
L 293.490843 203.263981 
L 303.330988 203.263981 
L 303.330988 219.017999 
L 297.236767 219.017999 
L 297.236767 206.616998 
L 290.780723 219.017999 
L 284.466571 219.017999 
L 278.038905 206.616998 
L 278.038905 219.017999 
L 271.93759 219.017999 
z
" clip-path="url(#p101e7e9b6c)" style="fill: #ff8c00"/>
   </g>
   <g id="patch_41">
    <path d="M 292.536128 187.509964 
L 300.844025 187.509964 
L 300.844025 197.31607 
Q 300.844025 199.236715 299.942952 200.274809 
Q 298.726503 201.627376 295.545714 202.445679 
Q 292.364924 203.263981 287.15672 203.263981 
Q 281.047442 203.263981 277.749513 201.982425 
Q 274.460595 200.697486 274.424552 198.212146 
L 282.281913 197.874004 
Q 282.426084 199.206282 283.327158 199.757453 
Q 284.678768 200.589281 287.436053 200.589281 
Q 290.22938 200.589281 291.382754 199.994152 
Q 292.536128 199.395641 292.536128 197.515574 
L 292.536128 187.509964 
z
" clip-path="url(#p101e7e9b6c)" style="fill: #7b68ee"/>
   </g>
   <g id="patch_42">
    <path d="M 271.93759 187.509964 
L 271.93759 183.207786 
L 292.231119 167.876764 
L 274.231787 167.876764 
L 274.231787 163.878937 
L 302.512837 163.878937 
L 302.512837 167.582731 
L 281.342114 183.527612 
L 303.330988 183.527612 
L 303.330988 187.509964 
L 271.93759 187.509964 
z
" clip-path="url(#p101e7e9b6c)" style="fill: #dda0dd"/>
   </g>
   <g id="patch_43">
    <path d="M 271.93759 163.878937 
L 271.93759 132.370902 
L 279.86738 132.370902 
L 279.86738 144.771903 
L 295.401197 144.771903 
L 295.401197 132.370902 
L 303.330988 132.370902 
L 303.330988 163.878937 
L 295.401197 163.878937 
L 295.401197 150.102339 
L 279.86738 150.102339 
L 279.86738 163.878937 
L 271.93759 163.878937 
z
" clip-path="url(#p101e7e9b6c)" style="fill: #00ffff"/>
   </g>
   <g id="patch_44">
    <path d="M 304.983272 234.772017 
L 304.983272 225.262444 
L 312.012779 225.262444 
L 312.012779 229.484769 
L 326.216183 225.262444 
L 335.66992 225.262444 
L 322.560839 228.965801 
L 336.37667 234.772017 
L 327.287708 234.772017 
L 317.712379 230.308891 
L 312.012779 231.899009 
L 312.012779 234.772017 
L 304.983272 234.772017 
z
" clip-path="url(#p101e7e9b6c)" style="fill: #6495ed"/>
   </g>
   <g id="patch_45">
    <path d="M 304.983272 225.262444 
L 304.983272 215.752872 
L 312.758192 215.752872 
L 328.955941 222.102966 
L 328.955941 215.752872 
L 336.37667 215.752872 
L 336.37667 225.262444 
L 328.359864 225.262444 
L 312.404001 219.059737 
L 312.404001 225.262444 
L 304.983272 225.262444 
z
" clip-path="url(#p101e7e9b6c)" style="fill: #00bfff"/>
   </g>
   <g id="patch_46">
    <path d="M 304.983272 215.752872 
L 304.983272 206.2433 
L 318.259933 206.2433 
Q 325.81081 206.2433 328.101124 206.38446 
Q 331.626059 206.60035 333.996892 207.316526 
Q 336.37667 208.032702 336.37667 209.168205 
Q 336.37667 210.044223 335.00785 210.642074 
Q 333.63903 211.23785 331.527647 211.578293 
Q 329.416265 211.918736 327.23331 212.028757 
Q 324.272006 212.165765 318.653581 212.165765 
L 313.258819 212.165765 
L 313.258819 215.752872 
L 304.983272 215.752872 
z
M 313.258819 207.852101 
L 313.258819 210.550736 
L 317.785767 210.550736 
Q 322.679522 210.550736 324.325685 210.401273 
Q 325.980794 210.25181 326.911234 209.934202 
Q 327.850621 209.616593 327.850621 209.195191 
Q 327.850621 208.676223 326.53548 208.339931 
Q 325.220339 208.001564 323.207368 207.916453 
Q 321.731189 207.852101 317.257921 207.852101 
L 313.258819 207.852101 
z
" clip-path="url(#p101e7e9b6c)" style="fill: #f0fff0"/>
   </g>
   <g id="patch_47">
    <path d="M 331.337132 204.310913 
Q 333.656272 204.762423 336.37667 205.029984 
L 334.057531 206.2433 
Q 332.636123 206.1281 331.275923 205.925571 
Q 330.976679 205.884694 327.08651 205.169339 
Q 324.026061 205.535378 320.305916 205.535378 
Q 313.124065 205.535378 309.050268 204.379662 
Q 304.983272 203.223946 304.983272 201.133624 
Q 304.983272 199.048876 309.06387 197.891302 
Q 313.144468 196.733728 320.135892 196.733728 
Q 327.066107 196.733728 331.126301 197.891302 
Q 335.186496 199.048876 335.186496 201.133624 
Q 335.186496 202.237314 334.057531 203.073443 
Q 333.207406 203.712617 331.337132 204.310913 
z
M 326.277191 203.341004 
Q 327.494569 202.950811 328.099858 202.400824 
Q 328.705147 201.848979 328.705147 201.133624 
Q 328.705147 199.660179 326.324798 198.931818 
Q 323.944449 198.201599 320.095086 198.201599 
Q 316.245722 198.201599 313.851771 198.933676 
Q 311.464621 199.665753 311.464621 201.133624 
Q 311.464621 202.625649 313.851771 203.367017 
Q 316.245722 204.106526 319.904658 204.106526 
Q 321.264857 204.106526 322.475434 203.985752 
Q 320.564354 203.64201 318.585264 203.45063 
L 320.353523 202.469572 
Q 323.454778 202.75943 326.277191 203.341004 
z
" clip-path="url(#p101e7e9b6c)" style="fill: #0000ff"/>
   </g>
   <g id="patch_48">
    <path d="M 304.983272 196.733728 
L 304.983272 187.224156 
L 319.822541 187.224156 
Q 325.4168 187.224156 327.954795 187.481564 
Q 330.49279 187.736896 332.017111 188.392872 
Q 333.541433 189.046772 333.541433 189.889576 
Q 333.541433 190.960726 331.224464 191.65822 
Q 328.915117 192.355713 324.319289 192.536314 
Q 326.605771 192.899591 328.091984 193.335525 
Q 329.585819 193.769382 332.108571 194.877898 
L 336.37667 196.733728 
L 327.939552 196.733728 
L 322.848318 194.664083 
Q 320.127405 193.555567 319.128974 193.267021 
Q 318.130544 192.978475 317.010168 192.870529 
Q 315.889791 192.762584 313.458499 192.762584 
L 312.033258 192.762584 
L 312.033258 196.733728 
L 304.983272 196.733728 
z
M 312.033258 191.245121 
L 317.246437 191.245121 
Q 322.322428 191.245121 323.579993 191.128872 
Q 324.845179 191.012623 325.56161 190.728229 
Q 326.278041 190.441758 326.278041 190.012053 
Q 326.278041 189.532526 325.332962 189.237752 
Q 324.395505 188.942978 322.680643 188.864095 
Q 321.819401 188.832957 317.536058 188.832957 
L 312.033258 188.832957 
L 312.033258 191.245121 
z
" clip-path="url(#p101e7e9b6c)" style="fill: #ffe4b5"/>
   </g>
   <g id="patch_49">
    <path d="M 304.983272 184.070348 
L 312.568254 183.895806 
Q 313.25933 184.804632 315.349414 185.231961 
Q 317.439498 185.657283 320.996012 185.657283 
Q 324.76322 185.657283 326.667893 185.278104 
Q 328.580994 184.898925 328.580994 184.391347 
Q 328.580994 184.06433 327.780357 183.835619 
Q 326.97972 183.606907 324.973914 183.438383 
Q 323.608617 183.324028 318.737373 183.037135 
Q 312.467121 182.665981 309.938794 182.128309 
Q 306.38228 181.367945 306.38228 180.278557 
Q 306.38228 179.576373 308.050976 178.964471 
Q 309.7281 178.352568 312.871654 178.033576 
Q 316.023635 177.714584 320.473491 177.714584 
Q 327.738219 177.714584 331.412721 178.472942 
Q 335.087223 179.2313 335.272634 180.497237 
L 327.476958 180.579493 
Q 326.97972 179.871291 325.32788 179.560324 
Q 323.684467 179.249357 320.389214 179.249357 
Q 316.992827 179.249357 315.071298 179.582392 
Q 313.832418 179.795053 313.832418 180.152164 
Q 313.832418 180.479181 314.995449 180.709898 
Q 316.470306 181.004815 322.159043 181.325814 
Q 327.847779 181.644806 330.569945 181.987873 
Q 333.300539 182.328933 334.834391 182.920774 
Q 336.37667 183.512614 336.37667 184.385328 
Q 336.37667 185.17378 334.530991 185.863926 
Q 332.69374 186.554072 329.322637 186.889114 
Q 325.951534 187.224156 320.920162 187.224156 
Q 313.596441 187.224156 309.669106 186.419654 
Q 305.750198 185.613146 304.983272 184.070348 
z
" clip-path="url(#p101e7e9b6c)" style="fill: #ffff00"/>
   </g>
   <g id="patch_50">
    <path d="M 304.983272 168.205012 
L 319.964068 168.205012 
Q 324.414943 168.205012 326.599472 168.298426 
Q 328.784001 168.39184 330.510351 168.690766 
Q 332.236702 168.989691 333.382148 169.485825 
Q 334.535775 169.981959 334.535775 170.598493 
Q 334.535775 171.266924 333.11215 171.825333 
Q 331.696706 172.381667 329.274906 172.66191 
Q 332.69488 172.913091 334.535775 173.523397 
Q 336.37667 174.133704 336.37667 174.957825 
Q 336.37667 175.605497 335.190316 176.219956 
Q 334.003961 176.832338 331.942159 177.199767 
Q 329.888538 177.565121 326.86947 177.650232 
Q 324.979484 177.702129 317.73863 177.714584 
L 304.983272 177.714584 
L 304.983272 168.205012 
z
M 312.551397 169.786827 
L 312.551397 171.987251 
L 317.509541 171.987251 
Q 321.935871 171.987251 323.007681 171.954037 
Q 324.946757 171.895913 326.059476 171.613594 
Q 327.172195 171.331276 327.172195 170.870432 
Q 327.172195 170.430347 326.214929 170.154256 
Q 325.257664 169.878165 323.367678 169.82004 
Q 322.238596 169.786827 316.895909 169.786827 
L 312.551397 169.786827 
z
M 312.551397 173.569066 
L 312.551397 176.11201 
L 319.55498 176.11201 
Q 323.645858 176.11201 324.742213 176.053886 
Q 326.435837 175.975003 327.491283 175.674001 
Q 328.554912 175.373 328.554912 174.866487 
Q 328.554912 174.438857 327.736736 174.139931 
Q 326.91856 173.841006 325.372208 173.706074 
Q 323.825857 173.569066 318.663168 173.569066 
L 312.551397 173.569066 
z
" clip-path="url(#p101e7e9b6c)" style="fill: #ffd700"/>
   </g>
   <g id="patch_51">
    <path d="M 304.983272 168.205012 
L 304.983272 158.69544 
L 314.809228 158.69544 
L 320.704802 165.182541 
L 326.536525 158.69544 
L 336.37667 158.69544 
L 336.37667 168.205012 
L 330.282449 168.205012 
L 330.282449 160.719415 
L 323.826406 168.205012 
L 317.512253 168.205012 
L 311.084588 160.719415 
L 311.084588 168.205012 
L 304.983272 168.205012 
z
" clip-path="url(#p101e7e9b6c)" style="fill: #ff8c00"/>
   </g>
   <g id="patch_52">
    <path d="M 349.558189 234.772017 
L 349.558189 218.997835 
L 357.893118 218.997835 
L 357.893118 234.772017 
L 349.558189 234.772017 
z
" clip-path="url(#p101e7e9b6c)" style="fill: #add8e6"/>
   </g>
   <g id="patch_53">
    <path d="M 338.028955 218.997835 
L 338.028955 203.223654 
L 345.958745 203.223654 
L 345.958745 209.432091 
L 361.492562 209.432091 
L 361.492562 203.223654 
L 369.422353 203.223654 
L 369.422353 218.997835 
L 361.492562 218.997835 
L 361.492562 212.10072 
L 345.958745 212.10072 
L 345.958745 218.997835 
L 338.028955 218.997835 
z
" clip-path="url(#p101e7e9b6c)" style="fill: #00ffff"/>
   </g>
   <g id="patch_54">
    <path d="M 339.574295 203.223654 
L 339.574295 187.449473 
L 367.877012 187.449473 
L 367.877012 190.118102 
L 347.909225 190.118102 
L 347.909225 193.85074 
L 365.137749 193.85074 
L 365.137749 196.519369 
L 347.909225 196.519369 
L 347.909225 203.223654 
L 339.574295 203.223654 
z
" clip-path="url(#p101e7e9b6c)" style="fill: #ff0000"/>
   </g>
   <g id="patch_55">
    <path d="M 349.749732 187.449473 
L 349.749732 174.343921 
L 338.028955 174.343921 
L 338.028955 171.675292 
L 369.422353 171.675292 
L 369.422353 174.343921 
L 357.72745 174.343921 
L 357.72745 187.449473 
L 349.749732 187.449473 
z
" clip-path="url(#p101e7e9b6c)" style="fill: #a0522d"/>
   </g>
   <g id="patch_56">
    <path d="M 362.366508 165.807842 
L 369.422353 166.753561 
Q 367.801947 169.251056 364.026244 170.463174 
Q 360.250541 171.675292 354.453263 171.675292 
Q 347.271561 171.675292 342.646325 169.600706 
Q 338.028955 167.522789 338.028955 163.923066 
Q 338.028955 160.113553 342.669923 158.008997 
Q 347.318757 155.901111 354.893762 155.901111 
Q 361.509108 155.901111 365.638784 157.552787 
Q 368.092991 158.531806 369.320094 160.363302 
L 362.12266 161.092571 
Q 361.477644 159.907093 359.448204 159.221114 
Q 357.426629 158.531806 354.524058 158.531806 
Q 350.520239 158.531806 348.018836 159.750583 
Q 345.525298 160.966031 345.525298 163.693296 
Q 345.525298 166.587061 347.979506 167.815829 
Q 350.441579 169.041267 354.374603 169.041267 
Q 357.277174 169.041267 359.361677 168.262048 
Q 361.454046 167.482829 362.366508 165.807842 
z
" clip-path="url(#p101e7e9b6c)" style="fill: #00ff7f"/>
   </g>
   <g id="patch_57">
    <path d="M 338.028955 155.901111 
L 338.028955 140.126929 
L 347.854911 140.126929 
L 353.750485 150.887531 
L 359.582207 140.126929 
L 369.422353 140.126929 
L 369.422353 155.901111 
L 363.328132 155.901111 
L 363.328132 143.484237 
L 356.872088 155.901111 
L 350.557936 155.901111 
L 344.13027 143.484237 
L 344.13027 155.901111 
L 338.028955 155.901111 
z
" clip-path="url(#p101e7e9b6c)" style="fill: #ff8c00"/>
   </g>
   <g id="patch_58">
    <path d="M 371.074637 234.772017 
L 371.074637 210.603132 
L 385.913905 210.603132 
Q 391.508165 210.603132 394.04616 211.257343 
Q 396.584155 211.906279 398.108476 213.573462 
Q 399.632798 215.23537 399.632798 217.377384 
Q 399.632798 220.099747 397.315829 221.872448 
Q 395.006482 223.64515 390.410653 224.104153 
Q 392.697135 225.027435 394.183349 226.135373 
Q 395.677184 227.238036 398.199936 230.055365 
L 402.468035 234.772017 
L 394.030917 234.772017 
L 388.939683 229.511947 
Q 386.21877 226.694618 385.220339 225.961269 
Q 384.221909 225.227919 383.101533 224.953572 
Q 381.981156 224.679226 379.549864 224.679226 
L 378.124623 224.679226 
L 378.124623 234.772017 
L 371.074637 234.772017 
z
M 378.124623 220.822545 
L 383.337802 220.822545 
Q 388.413792 220.822545 389.671358 220.527095 
Q 390.936544 220.231644 391.652975 219.508846 
Q 392.369406 218.780773 392.369406 217.688662 
Q 392.369406 216.46993 391.424327 215.720752 
Q 390.486869 214.971575 388.772008 214.771091 
Q 387.910766 214.691952 383.627423 214.691952 
L 378.124623 214.691952 
L 378.124623 220.822545 
z
" clip-path="url(#p101e7e9b6c)" style="fill: #ffe4b5"/>
   </g>
   <g id="patch_59">
    <path d="M 371.074637 210.603132 
L 371.074637 162.265363 
L 380.900593 162.265363 
L 386.796167 195.23972 
L 392.62789 162.265363 
L 402.468035 162.265363 
L 402.468035 210.603132 
L 396.373814 210.603132 
L 396.373814 172.553363 
L 389.917771 210.603132 
L 383.603618 210.603132 
L 377.175953 172.553363 
L 377.175953 210.603132 
L 371.074637 210.603132 
z
" clip-path="url(#p101e7e9b6c)" style="fill: #ff8c00"/>
   </g>
   <g id="patch_60">
    <path d="M 397.428497 147.531694 
Q 399.747637 150.974273 402.468035 153.014319 
L 400.148896 162.265363 
Q 398.727487 161.38701 397.367288 159.842808 
Q 397.068044 159.531134 393.177875 154.076843 
Q 390.117426 156.86774 386.397281 156.86774 
Q 379.215429 156.86774 375.141633 148.055873 
Q 371.074637 139.244005 371.074637 123.306142 
Q 371.074637 107.41078 375.155235 98.584745 
Q 379.235832 89.75871 386.227256 89.75871 
Q 393.157472 89.75871 397.217666 98.584745 
Q 401.277861 107.41078 401.277861 123.306142 
Q 401.277861 131.721334 400.148896 138.096479 
Q 399.298771 142.969924 397.428497 147.531694 
z
M 392.368556 140.136526 
Q 393.585934 137.161458 394.191223 132.968029 
Q 394.796512 128.760433 394.796512 123.306142 
Q 394.796512 112.071719 392.416163 106.518259 
Q 390.035814 100.950632 386.186451 100.950632 
Q 382.337087 100.950632 379.943136 106.532426 
Q 377.555986 112.11422 377.555986 123.306142 
Q 377.555986 134.682235 379.943136 140.334864 
Q 382.337087 145.973325 385.996023 145.973325 
Q 387.356222 145.973325 388.566799 145.052471 
Q 386.655719 142.431578 384.676629 140.972378 
L 386.444888 133.492207 
Q 389.546143 135.702258 392.368556 140.136526 
z
" clip-path="url(#p101e7e9b6c)" style="fill: #0000ff"/>
   </g>
   <g id="patch_61">
    <path d="M 404.120319 219.84537 
Q 404.120319 215.382041 405.603806 212.353354 
Q 406.705824 210.12169 408.613164 208.34911 
Q 410.520504 206.576531 412.795183 205.722123 
Q 415.81867 204.568033 419.774633 204.568033 
Q 426.923625 204.568033 431.218671 208.572277 
Q 435.513718 212.57652 435.513718 219.71147 
Q 435.513718 226.782658 431.253993 230.780525 
Q 426.994267 234.772017 419.859404 234.772017 
Q 412.63977 234.772017 408.380045 230.799654 
Q 404.120319 226.820915 404.120319 219.84537 
z
M 410.852522 219.647708 
Q 410.852522 224.608379 413.388577 227.171605 
Q 415.931697 229.728455 419.838211 229.728455 
Q 423.744726 229.728455 426.252524 227.190734 
Q 428.760322 224.653013 428.760322 219.571194 
Q 428.760322 214.546761 426.316102 212.079178 
Q 423.878946 209.605219 419.838211 209.605219 
Q 415.797477 209.605219 413.324999 212.111059 
Q 410.852522 214.610523 410.852522 219.647708 
z
" clip-path="url(#p101e7e9b6c)" style="fill: #006400"/>
   </g>
   <g id="patch_62">
    <path d="M 404.120319 204.568033 
L 404.120319 174.36405 
L 417.39698 174.36405 
Q 424.947858 174.36405 427.238171 174.812396 
Q 430.763107 175.498101 433.133939 177.772795 
Q 435.513718 180.047489 435.513718 183.654033 
Q 435.513718 186.436413 434.144898 188.335288 
Q 432.776077 190.22757 430.664695 191.308874 
Q 428.553312 192.390178 426.370357 192.739624 
Q 423.409053 193.174782 417.790628 193.174782 
L 412.395866 193.174782 
L 412.395866 204.568033 
L 404.120319 204.568033 
z
M 412.395866 179.473871 
L 412.395866 188.045182 
L 416.922814 188.045182 
Q 421.81657 188.045182 423.462732 187.570463 
Q 425.117842 187.095745 426.048282 186.086967 
Q 426.987668 185.07819 426.987668 183.739746 
Q 426.987668 182.091417 425.672527 181.0233 
Q 424.357386 179.948589 422.344415 179.678263 
Q 420.868237 179.473871 416.394968 179.473871 
L 412.395866 179.473871 
z
" clip-path="url(#p101e7e9b6c)" style="fill: #f0fff0"/>
   </g>
   <g id="patch_63">
    <path d="M 430.47418 168.226469 
Q 432.793319 169.660538 435.513718 170.510357 
L 433.194578 174.36405 
Q 431.77317 173.998156 430.412971 173.35489 
Q 430.113727 173.225057 426.223557 170.952971 
Q 423.163109 172.115571 419.442964 172.115571 
Q 412.261112 172.115571 408.187315 168.444825 
Q 404.120319 164.774079 404.120319 158.134868 
Q 404.120319 151.513362 408.200917 147.836715 
Q 412.281515 144.160067 419.272939 144.160067 
Q 426.203154 144.160067 430.263349 147.836715 
Q 434.323543 151.513362 434.323543 158.134868 
Q 434.323543 161.640372 433.194578 164.296056 
Q 432.344454 166.326179 430.47418 168.226469 
z
M 425.414238 165.145875 
Q 426.631617 163.906556 427.236905 162.159705 
Q 427.842194 160.406954 427.842194 158.134868 
Q 427.842194 153.454962 425.461845 151.141566 
Q 423.081497 148.822269 419.232133 148.822269 
Q 415.382769 148.822269 412.988818 151.147468 
Q 410.601669 153.472667 410.601669 158.134868 
Q 410.601669 162.873789 412.988818 165.228496 
Q 415.382769 167.577301 419.041705 167.577301 
Q 420.401904 167.577301 421.612482 167.193703 
Q 419.701402 166.101921 417.722312 165.494065 
L 419.490571 162.378062 
Q 422.591825 163.298699 425.414238 165.145875 
z
" clip-path="url(#p101e7e9b6c)" style="fill: #0000ff"/>
   </g>
   <g id="patch_64">
    <path d="M 404.120319 144.160067 
L 404.120319 113.956084 
L 413.946276 113.956084 
L 419.84185 134.560198 
L 425.673572 113.956084 
L 435.513718 113.956084 
L 435.513718 144.160067 
L 429.419497 144.160067 
L 429.419497 120.384568 
L 422.963453 144.160067 
L 416.649301 144.160067 
L 410.221635 120.384568 
L 410.221635 144.160067 
L 404.120319 144.160067 
z
" clip-path="url(#p101e7e9b6c)" style="fill: #ff8c00"/>
   </g>
   <g id="patch_65">
    <path d="M 437.166002 234.772017 
L 437.166002 188.310536 
L 446.991958 188.310536 
L 452.887532 220.004953 
L 458.719255 188.310536 
L 468.5594 188.310536 
L 468.5594 234.772017 
L 462.465179 234.772017 
L 462.465179 198.199194 
L 456.009135 234.772017 
L 449.694983 234.772017 
L 443.267318 198.199194 
L 443.267318 234.772017 
L 437.166002 234.772017 
z
" clip-path="url(#p101e7e9b6c)" style="fill: #ff8c00"/>
   </g>
   <g id="patch_66">
    <path d="M 437.166002 141.849055 
L 452.146797 141.849055 
Q 456.597673 141.849055 458.782202 142.305454 
Q 460.966731 142.761854 462.693081 144.222333 
Q 464.419432 145.682812 465.564877 148.106801 
Q 466.718505 150.53079 466.718505 153.543027 
Q 466.718505 156.80882 465.29488 159.537075 
Q 463.879436 162.255189 461.457636 163.624388 
Q 464.87761 164.851595 466.718505 167.833406 
Q 468.5594 170.815217 468.5594 174.841676 
Q 468.5594 178.006047 467.373046 181.008142 
Q 466.186691 184.000095 464.124888 185.795267 
Q 462.071268 187.580296 459.0522 187.996127 
Q 457.162214 188.249682 449.92136 188.310536 
L 437.166002 188.310536 
L 437.166002 141.849055 
z
M 444.734126 149.577422 
L 444.734126 160.328168 
L 449.692271 160.328168 
Q 454.118601 160.328168 455.190411 160.165893 
Q 457.129487 159.881911 458.242206 158.50257 
Q 459.354925 157.123229 459.354925 154.871657 
Q 459.354925 152.721508 458.397659 151.372593 
Q 457.440394 150.023679 455.550408 149.739697 
Q 454.421326 149.577422 449.078639 149.577422 
L 444.734126 149.577422 
z
M 444.734126 168.056535 
L 444.734126 180.480747 
L 451.73771 180.480747 
Q 455.828588 180.480747 456.924943 180.196765 
Q 458.618567 179.811361 459.674013 178.34074 
Q 460.737641 176.870119 460.737641 174.395418 
Q 460.737641 172.306122 459.919466 170.845644 
Q 459.10129 169.385165 457.554938 168.725921 
Q 456.008586 168.056535 450.845898 168.056535 
L 444.734126 168.056535 
z
" clip-path="url(#p101e7e9b6c)" style="fill: #ffd700"/>
   </g>
   <g id="patch_67">
    <path d="M 437.166002 141.849055 
L 437.166002 133.390449 
L 457.459531 103.247789 
L 439.4602 103.247789 
L 439.4602 95.387574 
L 467.741249 95.387574 
L 467.741249 102.669683 
L 446.570526 134.019266 
L 468.5594 134.019266 
L 468.5594 141.849055 
L 437.166002 141.849055 
z
" clip-path="url(#p101e7e9b6c)" style="fill: #dda0dd"/>
   </g>
   <g id="patch_68">
    <path d="M 490.810223 188.310536 
L 499.11812 188.310536 
L 499.11812 217.230539 
Q 499.11812 222.89487 498.217047 225.956402 
Q 497.000597 229.945368 493.819808 232.358692 
Q 490.639019 234.772017 485.430815 234.772017 
Q 479.321537 234.772017 476.023608 230.992471 
Q 472.73469 227.202954 472.698647 219.873229 
L 480.556007 218.875987 
Q 480.700179 222.805119 481.601253 224.430622 
Q 482.952863 226.883836 485.710147 226.883836 
Q 488.503475 226.883836 489.656849 225.128691 
Q 490.810223 223.363574 490.810223 217.818911 
L 490.810223 188.310536 
z
" clip-path="url(#p101e7e9b6c)" style="fill: #7b68ee"/>
   </g>
   <g id="patch_69">
    <path d="M 481.740919 188.310536 
L 481.740919 141.849055 
L 490.075848 141.849055 
L 490.075848 188.310536 
L 481.740919 188.310536 
z
" clip-path="url(#p101e7e9b6c)" style="fill: #add8e6"/>
   </g>
   <g id="patch_70">
    <path d="M 470.211684 141.849055 
L 470.211684 95.387574 
L 480.037641 95.387574 
L 485.933214 127.081992 
L 491.764937 95.387574 
L 501.605083 95.387574 
L 501.605083 141.849055 
L 495.510861 141.849055 
L 495.510861 105.276232 
L 489.054818 141.849055 
L 482.740665 141.849055 
L 476.313 105.276232 
L 476.313 141.849055 
L 470.211684 141.849055 
z
" clip-path="url(#p101e7e9b6c)" style="fill: #ff8c00"/>
   </g>
   <g id="patch_71">
    <path d="M 520.042029 156.54969 
L 520.042029 122.277479 
L 534.650765 122.277479 
L 534.650765 203.296631 
Q 532.518798 215.771361 528.474654 225.271689 
Q 524.437837 234.772017 520.291124 234.772017 
Q 515.030807 234.772017 511.111211 221.409406 
Q 507.198942 208.002401 505.228154 183.097335 
Q 503.257367 158.19227 503.257367 128.936587 
Q 503.257367 97.150443 505.455271 72.467348 
Q 507.653175 47.784252 511.887804 34.599218 
Q 515.118723 24.477373 519.924807 24.477373 
Q 526.174181 24.477373 529.690828 40.370445 
Q 533.207475 56.219123 534.211184 84.231772 
L 527.485597 91.86755 
Q 526.774942 76.906753 524.811481 68.249912 
Q 522.855346 59.548677 519.924807 59.548677 
Q 515.485041 59.548677 512.862208 76.640389 
Q 510.239376 93.687706 510.239376 127.249613 
Q 510.239376 163.475163 512.891514 181.587937 
Q 515.550978 199.656318 519.85887 199.656318 
Q 521.990837 199.656318 524.13013 194.595396 
Q 526.269424 189.534473 527.80063 182.342636 
L 527.80063 156.54969 
L 520.042029 156.54969 
z
" clip-path="url(#p101e7e9b6c)" style="fill: #ff69b4"/>
   </g>
   <g id="patch_72">
    <path d="M 536.303049 234.772017 
L 536.303049 24.477373 
L 546.129006 24.477373 
L 552.024579 167.933117 
L 557.856302 24.477373 
L 567.696448 24.477373 
L 567.696448 234.772017 
L 561.602226 234.772017 
L 561.602226 69.235565 
L 555.146183 234.772017 
L 548.83203 234.772017 
L 542.404365 69.235565 
L 542.404365 234.772017 
L 536.303049 234.772017 
z
" clip-path="url(#p101e7e9b6c)" style="fill: #ff8c00"/>
   </g>
   <g id="patch_73">
    <path d="M 595.702592 192.039225 
Q 598.021732 202.023906 600.74213 207.940754 
L 598.42299 234.772017 
Q 597.001582 232.224485 595.641383 227.745759 
Q 595.342139 226.841797 591.451969 211.022446 
Q 588.391521 219.117023 584.671376 219.117023 
Q 577.489524 219.117023 573.415727 193.559526 
Q 569.348732 168.002029 569.348732 121.776653 
Q 569.348732 75.674545 573.429329 50.075959 
Q 577.509927 24.477373 584.501351 24.477373 
Q 591.431566 24.477373 595.491761 50.075959 
Q 599.551956 75.674545 599.551956 121.776653 
Q 599.551956 146.183652 598.42299 164.673802 
Q 597.572866 178.808495 595.702592 192.039225 
z
M 590.642651 170.59065 
Q 591.860029 161.961913 592.465318 149.799503 
Q 593.070606 137.596004 593.070606 121.776653 
Q 593.070606 89.192899 590.690258 73.085924 
Q 588.309909 56.937859 584.460545 56.937859 
Q 580.611181 56.937859 578.217231 73.127013 
Q 575.830081 89.316167 575.830081 121.776653 
Q 575.830081 154.771299 578.217231 171.165899 
Q 580.611181 187.51941 584.270117 187.51941 
Q 585.630317 187.51941 586.840894 184.848611 
Q 584.929814 177.247104 582.950724 173.014914 
L 584.718983 151.319805 
Q 587.820237 157.729723 590.642651 170.59065 
z
" clip-path="url(#p101e7e9b6c)" style="fill: #0000ff"/>
   </g>
   <g id="patch_74">
    <path d="M 614.115191 234.772017 
L 614.115191 60.054397 
L 602.394414 60.054397 
L 602.394414 24.477373 
L 633.787812 24.477373 
L 633.787812 60.054397 
L 622.092909 60.054397 
L 622.092909 234.772017 
L 614.115191 234.772017 
z
" clip-path="url(#p101e7e9b6c)" style="fill: #a0522d"/>
   </g>
   <g id="matplotlib.axis_1">
    <g id="xtick_1">
     <g id="line2d_2">
      <path d="M 56.314512 234.772017 
L 56.314512 24.477373 
" clip-path="url(#p101e7e9b6c)" style="fill: none; stroke: #cccccc; stroke-width: 0.8; stroke-linecap: round"/>
     </g>
     <g id="text_1">
      <!-- 0 -->
      <g style="fill: #262626" transform="translate(52.421855 251.792954) scale(0.14 -0.14)">
       <defs>
        <path id="ArialMT-30" d="M 266 2259 
Q 266 3072 433 3567 
Q 600 4063 929 4331 
Q 1259 4600 1759 4600 
Q 2128 4600 2406 4451 
Q 2684 4303 2865 4023 
Q 3047 3744 3150 3342 
Q 3253 2941 3253 2259 
Q 3253 1453 3087 958 
Q 2922 463 2592 192 
Q 2263 -78 1759 -78 
Q 1097 -78 719 397 
Q 266 969 266 2259 
z
M 844 2259 
Q 844 1131 1108 757 
Q 1372 384 1759 384 
Q 2147 384 2411 759 
Q 2675 1134 2675 2259 
Q 2675 3391 2411 3762 
Q 2147 4134 1753 4134 
Q 1366 4134 1134 3806 
Q 844 3388 844 2259 
z
" transform="scale(0.015625)"/>
       </defs>
       <use xlink:href="#ArialMT-30"/>
      </g>
     </g>
    </g>
    <g id="xtick_2">
     <g id="line2d_3">
      <path d="M 89.360194 234.772017 
L 89.360194 24.477373 
" clip-path="url(#p101e7e9b6c)" style="fill: none; stroke: #cccccc; stroke-width: 0.8; stroke-linecap: round"/>
     </g>
     <g id="text_2">
      <!-- 1 -->
      <g style="fill: #262626" transform="translate(85.467538 251.792954) scale(0.14 -0.14)">
       <defs>
        <path id="ArialMT-31" d="M 2384 0 
L 1822 0 
L 1822 3584 
Q 1619 3391 1289 3197 
Q 959 3003 697 2906 
L 697 3450 
Q 1169 3672 1522 3987 
Q 1875 4303 2022 4600 
L 2384 4600 
L 2384 0 
z
" transform="scale(0.015625)"/>
       </defs>
       <use xlink:href="#ArialMT-31"/>
      </g>
     </g>
    </g>
    <g id="xtick_3">
     <g id="line2d_4">
      <path d="M 122.405877 234.772017 
L 122.405877 24.477373 
" clip-path="url(#p101e7e9b6c)" style="fill: none; stroke: #cccccc; stroke-width: 0.8; stroke-linecap: round"/>
     </g>
     <g id="text_3">
      <!-- 2 -->
      <g style="fill: #262626" transform="translate(118.51322 251.792954) scale(0.14 -0.14)">
       <defs>
        <path id="ArialMT-32" d="M 3222 541 
L 3222 0 
L 194 0 
Q 188 203 259 391 
Q 375 700 629 1000 
Q 884 1300 1366 1694 
Q 2113 2306 2375 2664 
Q 2638 3022 2638 3341 
Q 2638 3675 2398 3904 
Q 2159 4134 1775 4134 
Q 1369 4134 1125 3890 
Q 881 3647 878 3216 
L 300 3275 
Q 359 3922 746 4261 
Q 1134 4600 1788 4600 
Q 2447 4600 2831 4234 
Q 3216 3869 3216 3328 
Q 3216 3053 3103 2787 
Q 2991 2522 2730 2228 
Q 2469 1934 1863 1422 
Q 1356 997 1212 845 
Q 1069 694 975 541 
L 3222 541 
z
" transform="scale(0.015625)"/>
       </defs>
       <use xlink:href="#ArialMT-32"/>
      </g>
     </g>
    </g>
    <g id="xtick_4">
     <g id="line2d_5">
      <path d="M 155.451559 234.772017 
L 155.451559 24.477373 
" clip-path="url(#p101e7e9b6c)" style="fill: none; stroke: #cccccc; stroke-width: 0.8; stroke-linecap: round"/>
     </g>
     <g id="text_4">
      <!-- 3 -->
      <g style="fill: #262626" transform="translate(151.558903 251.792954) scale(0.14 -0.14)">
       <defs>
        <path id="ArialMT-33" d="M 269 1209 
L 831 1284 
Q 928 806 1161 595 
Q 1394 384 1728 384 
Q 2125 384 2398 659 
Q 2672 934 2672 1341 
Q 2672 1728 2419 1979 
Q 2166 2231 1775 2231 
Q 1616 2231 1378 2169 
L 1441 2663 
Q 1497 2656 1531 2656 
Q 1891 2656 2178 2843 
Q 2466 3031 2466 3422 
Q 2466 3731 2256 3934 
Q 2047 4138 1716 4138 
Q 1388 4138 1169 3931 
Q 950 3725 888 3313 
L 325 3413 
Q 428 3978 793 4289 
Q 1159 4600 1703 4600 
Q 2078 4600 2393 4439 
Q 2709 4278 2876 4000 
Q 3044 3722 3044 3409 
Q 3044 3113 2884 2869 
Q 2725 2625 2413 2481 
Q 2819 2388 3044 2092 
Q 3269 1797 3269 1353 
Q 3269 753 2831 336 
Q 2394 -81 1725 -81 
Q 1122 -81 723 278 
Q 325 638 269 1209 
z
" transform="scale(0.015625)"/>
       </defs>
       <use xlink:href="#ArialMT-33"/>
      </g>
     </g>
    </g>
    <g id="xtick_5">
     <g id="line2d_6">
      <path d="M 188.497241 234.772017 
L 188.497241 24.477373 
" clip-path="url(#p101e7e9b6c)" style="fill: none; stroke: #cccccc; stroke-width: 0.8; stroke-linecap: round"/>
     </g>
     <g id="text_5">
      <!-- 4 -->
      <g style="fill: #262626" transform="translate(184.604585 251.792954) scale(0.14 -0.14)">
       <defs>
        <path id="ArialMT-34" d="M 2069 0 
L 2069 1097 
L 81 1097 
L 81 1613 
L 2172 4581 
L 2631 4581 
L 2631 1613 
L 3250 1613 
L 3250 1097 
L 2631 1097 
L 2631 0 
L 2069 0 
z
M 2069 1613 
L 2069 3678 
L 634 1613 
L 2069 1613 
z
" transform="scale(0.015625)"/>
       </defs>
       <use xlink:href="#ArialMT-34"/>
      </g>
     </g>
    </g>
    <g id="xtick_6">
     <g id="line2d_7">
      <path d="M 221.542924 234.772017 
L 221.542924 24.477373 
" clip-path="url(#p101e7e9b6c)" style="fill: none; stroke: #cccccc; stroke-width: 0.8; stroke-linecap: round"/>
     </g>
     <g id="text_6">
      <!-- 5 -->
      <g style="fill: #262626" transform="translate(217.650268 251.792954) scale(0.14 -0.14)">
       <defs>
        <path id="ArialMT-35" d="M 266 1200 
L 856 1250 
Q 922 819 1161 601 
Q 1400 384 1738 384 
Q 2144 384 2425 690 
Q 2706 997 2706 1503 
Q 2706 1984 2436 2262 
Q 2166 2541 1728 2541 
Q 1456 2541 1237 2417 
Q 1019 2294 894 2097 
L 366 2166 
L 809 4519 
L 3088 4519 
L 3088 3981 
L 1259 3981 
L 1013 2750 
Q 1425 3038 1878 3038 
Q 2478 3038 2890 2622 
Q 3303 2206 3303 1553 
Q 3303 931 2941 478 
Q 2500 -78 1738 -78 
Q 1113 -78 717 272 
Q 322 622 266 1200 
z
" transform="scale(0.015625)"/>
       </defs>
       <use xlink:href="#ArialMT-35"/>
      </g>
     </g>
    </g>
    <g id="xtick_7">
     <g id="line2d_8">
      <path d="M 254.588606 234.772017 
L 254.588606 24.477373 
" clip-path="url(#p101e7e9b6c)" style="fill: none; stroke: #cccccc; stroke-width: 0.8; stroke-linecap: round"/>
     </g>
     <g id="text_7">
      <!-- 6 -->
      <g style="fill: #262626" transform="translate(250.69595 251.792954) scale(0.14 -0.14)">
       <defs>
        <path id="ArialMT-36" d="M 3184 3459 
L 2625 3416 
Q 2550 3747 2413 3897 
Q 2184 4138 1850 4138 
Q 1581 4138 1378 3988 
Q 1113 3794 959 3422 
Q 806 3050 800 2363 
Q 1003 2672 1297 2822 
Q 1591 2972 1913 2972 
Q 2475 2972 2870 2558 
Q 3266 2144 3266 1488 
Q 3266 1056 3080 686 
Q 2894 316 2569 119 
Q 2244 -78 1831 -78 
Q 1128 -78 684 439 
Q 241 956 241 2144 
Q 241 3472 731 4075 
Q 1159 4600 1884 4600 
Q 2425 4600 2770 4297 
Q 3116 3994 3184 3459 
z
M 888 1484 
Q 888 1194 1011 928 
Q 1134 663 1356 523 
Q 1578 384 1822 384 
Q 2178 384 2434 671 
Q 2691 959 2691 1453 
Q 2691 1928 2437 2201 
Q 2184 2475 1800 2475 
Q 1419 2475 1153 2201 
Q 888 1928 888 1484 
z
" transform="scale(0.015625)"/>
       </defs>
       <use xlink:href="#ArialMT-36"/>
      </g>
     </g>
    </g>
    <g id="xtick_8">
     <g id="line2d_9">
      <path d="M 287.634289 234.772017 
L 287.634289 24.477373 
" clip-path="url(#p101e7e9b6c)" style="fill: none; stroke: #cccccc; stroke-width: 0.8; stroke-linecap: round"/>
     </g>
     <g id="text_8">
      <!-- 7 -->
      <g style="fill: #262626" transform="translate(283.741633 251.792954) scale(0.14 -0.14)">
       <defs>
        <path id="ArialMT-37" d="M 303 3981 
L 303 4522 
L 3269 4522 
L 3269 4084 
Q 2831 3619 2401 2847 
Q 1972 2075 1738 1259 
Q 1569 684 1522 0 
L 944 0 
Q 953 541 1156 1306 
Q 1359 2072 1739 2783 
Q 2119 3494 2547 3981 
L 303 3981 
z
" transform="scale(0.015625)"/>
       </defs>
       <use xlink:href="#ArialMT-37"/>
      </g>
     </g>
    </g>
    <g id="xtick_9">
     <g id="line2d_10">
      <path d="M 320.679971 234.772017 
L 320.679971 24.477373 
" clip-path="url(#p101e7e9b6c)" style="fill: none; stroke: #cccccc; stroke-width: 0.8; stroke-linecap: round"/>
     </g>
     <g id="text_9">
      <!-- 8 -->
      <g style="fill: #262626" transform="translate(316.787315 251.792954) scale(0.14 -0.14)">
       <defs>
        <path id="ArialMT-38" d="M 1131 2484 
Q 781 2613 612 2850 
Q 444 3088 444 3419 
Q 444 3919 803 4259 
Q 1163 4600 1759 4600 
Q 2359 4600 2725 4251 
Q 3091 3903 3091 3403 
Q 3091 3084 2923 2848 
Q 2756 2613 2416 2484 
Q 2838 2347 3058 2040 
Q 3278 1734 3278 1309 
Q 3278 722 2862 322 
Q 2447 -78 1769 -78 
Q 1091 -78 675 323 
Q 259 725 259 1325 
Q 259 1772 486 2073 
Q 713 2375 1131 2484 
z
M 1019 3438 
Q 1019 3113 1228 2906 
Q 1438 2700 1772 2700 
Q 2097 2700 2305 2904 
Q 2513 3109 2513 3406 
Q 2513 3716 2298 3927 
Q 2084 4138 1766 4138 
Q 1444 4138 1231 3931 
Q 1019 3725 1019 3438 
z
M 838 1322 
Q 838 1081 952 856 
Q 1066 631 1291 507 
Q 1516 384 1775 384 
Q 2178 384 2440 643 
Q 2703 903 2703 1303 
Q 2703 1709 2433 1975 
Q 2163 2241 1756 2241 
Q 1359 2241 1098 1978 
Q 838 1716 838 1322 
z
" transform="scale(0.015625)"/>
       </defs>
       <use xlink:href="#ArialMT-38"/>
      </g>
     </g>
    </g>
    <g id="xtick_10">
     <g id="line2d_11">
      <path d="M 353.725654 234.772017 
L 353.725654 24.477373 
" clip-path="url(#p101e7e9b6c)" style="fill: none; stroke: #cccccc; stroke-width: 0.8; stroke-linecap: round"/>
     </g>
     <g id="text_10">
      <!-- 9 -->
      <g style="fill: #262626" transform="translate(349.832997 251.792954) scale(0.14 -0.14)">
       <defs>
        <path id="ArialMT-39" d="M 350 1059 
L 891 1109 
Q 959 728 1153 556 
Q 1347 384 1650 384 
Q 1909 384 2104 503 
Q 2300 622 2425 820 
Q 2550 1019 2634 1356 
Q 2719 1694 2719 2044 
Q 2719 2081 2716 2156 
Q 2547 1888 2255 1720 
Q 1963 1553 1622 1553 
Q 1053 1553 659 1965 
Q 266 2378 266 3053 
Q 266 3750 677 4175 
Q 1088 4600 1706 4600 
Q 2153 4600 2523 4359 
Q 2894 4119 3086 3673 
Q 3278 3228 3278 2384 
Q 3278 1506 3087 986 
Q 2897 466 2520 194 
Q 2144 -78 1638 -78 
Q 1100 -78 759 220 
Q 419 519 350 1059 
z
M 2653 3081 
Q 2653 3566 2395 3850 
Q 2138 4134 1775 4134 
Q 1400 4134 1122 3828 
Q 844 3522 844 3034 
Q 844 2597 1108 2323 
Q 1372 2050 1759 2050 
Q 2150 2050 2401 2323 
Q 2653 2597 2653 3081 
z
" transform="scale(0.015625)"/>
       </defs>
       <use xlink:href="#ArialMT-39"/>
      </g>
     </g>
    </g>
    <g id="xtick_11">
     <g id="line2d_12">
      <path d="M 386.771336 234.772017 
L 386.771336 24.477373 
" clip-path="url(#p101e7e9b6c)" style="fill: none; stroke: #cccccc; stroke-width: 0.8; stroke-linecap: round"/>
     </g>
     <g id="text_11">
      <!-- 10 -->
      <g style="fill: #262626" transform="translate(378.986024 251.792954) scale(0.14 -0.14)">
       <use xlink:href="#ArialMT-31"/>
       <use xlink:href="#ArialMT-30" transform="translate(55.615234 0)"/>
      </g>
     </g>
    </g>
    <g id="xtick_12">
     <g id="line2d_13">
      <path d="M 419.817019 234.772017 
L 419.817019 24.477373 
" clip-path="url(#p101e7e9b6c)" style="fill: none; stroke: #cccccc; stroke-width: 0.8; stroke-linecap: round"/>
     </g>
     <g id="text_12">
      <!-- 11 -->
      <g style="fill: #262626" transform="translate(412.547956 251.792954) scale(0.14 -0.14)">
       <use xlink:href="#ArialMT-31"/>
       <use xlink:href="#ArialMT-31" transform="translate(48.240234 0)"/>
      </g>
     </g>
    </g>
    <g id="xtick_13">
     <g id="line2d_14">
      <path d="M 452.862701 234.772017 
L 452.862701 24.477373 
" clip-path="url(#p101e7e9b6c)" style="fill: none; stroke: #cccccc; stroke-width: 0.8; stroke-linecap: round"/>
     </g>
     <g id="text_13">
      <!-- 12 -->
      <g style="fill: #262626" transform="translate(445.077389 251.792954) scale(0.14 -0.14)">
       <use xlink:href="#ArialMT-31"/>
       <use xlink:href="#ArialMT-32" transform="translate(55.615234 0)"/>
      </g>
     </g>
    </g>
    <g id="xtick_14">
     <g id="line2d_15">
      <path d="M 485.908384 234.772017 
L 485.908384 24.477373 
" clip-path="url(#p101e7e9b6c)" style="fill: none; stroke: #cccccc; stroke-width: 0.8; stroke-linecap: round"/>
     </g>
     <g id="text_14">
      <!-- 13 -->
      <g style="fill: #262626" transform="translate(478.123071 251.792954) scale(0.14 -0.14)">
       <use xlink:href="#ArialMT-31"/>
       <use xlink:href="#ArialMT-33" transform="translate(55.615234 0)"/>
      </g>
     </g>
    </g>
    <g id="xtick_15">
     <g id="line2d_16">
      <path d="M 518.954066 234.772017 
L 518.954066 24.477373 
" clip-path="url(#p101e7e9b6c)" style="fill: none; stroke: #cccccc; stroke-width: 0.8; stroke-linecap: round"/>
     </g>
     <g id="text_15">
      <!-- 14 -->
      <g style="fill: #262626" transform="translate(511.168753 251.792954) scale(0.14 -0.14)">
       <use xlink:href="#ArialMT-31"/>
       <use xlink:href="#ArialMT-34" transform="translate(55.615234 0)"/>
      </g>
     </g>
    </g>
    <g id="xtick_16">
     <g id="line2d_17">
      <path d="M 551.999748 234.772017 
L 551.999748 24.477373 
" clip-path="url(#p101e7e9b6c)" style="fill: none; stroke: #cccccc; stroke-width: 0.8; stroke-linecap: round"/>
     </g>
     <g id="text_16">
      <!-- 15 -->
      <g style="fill: #262626" transform="translate(544.214436 251.792954) scale(0.14 -0.14)">
       <use xlink:href="#ArialMT-31"/>
       <use xlink:href="#ArialMT-35" transform="translate(55.615234 0)"/>
      </g>
     </g>
    </g>
    <g id="xtick_17">
     <g id="line2d_18">
      <path d="M 585.045431 234.772017 
L 585.045431 24.477373 
" clip-path="url(#p101e7e9b6c)" style="fill: none; stroke: #cccccc; stroke-width: 0.8; stroke-linecap: round"/>
     </g>
     <g id="text_17">
      <!-- 16 -->
      <g style="fill: #262626" transform="translate(577.260118 251.792954) scale(0.14 -0.14)">
       <use xlink:href="#ArialMT-31"/>
       <use xlink:href="#ArialMT-36" transform="translate(55.615234 0)"/>
      </g>
     </g>
    </g>
    <g id="xtick_18">
     <g id="line2d_19">
      <path d="M 618.091113 234.772017 
L 618.091113 24.477373 
" clip-path="url(#p101e7e9b6c)" style="fill: none; stroke: #cccccc; stroke-width: 0.8; stroke-linecap: round"/>
     </g>
     <g id="text_18">
      <!-- 17 -->
      <g style="fill: #262626" transform="translate(610.305801 251.792954) scale(0.14 -0.14)">
       <use xlink:href="#ArialMT-31"/>
       <use xlink:href="#ArialMT-37" transform="translate(55.615234 0)"/>
      </g>
     </g>
    </g>
    <g id="text_19">
     <!-- Original Position -->
     <g style="fill: #262626" transform="translate(278.955312 270.232954) scale(0.16 -0.16)">
      <defs>
       <path id="ArialMT-4f" d="M 309 2231 
Q 309 3372 921 4017 
Q 1534 4663 2503 4663 
Q 3138 4663 3647 4359 
Q 4156 4056 4423 3514 
Q 4691 2972 4691 2284 
Q 4691 1588 4409 1038 
Q 4128 488 3612 205 
Q 3097 -78 2500 -78 
Q 1853 -78 1343 234 
Q 834 547 571 1087 
Q 309 1628 309 2231 
z
M 934 2222 
Q 934 1394 1379 917 
Q 1825 441 2497 441 
Q 3181 441 3623 922 
Q 4066 1403 4066 2288 
Q 4066 2847 3877 3264 
Q 3688 3681 3323 3911 
Q 2959 4141 2506 4141 
Q 1863 4141 1398 3698 
Q 934 3256 934 2222 
z
" transform="scale(0.015625)"/>
       <path id="ArialMT-72" d="M 416 0 
L 416 3319 
L 922 3319 
L 922 2816 
Q 1116 3169 1280 3281 
Q 1444 3394 1641 3394 
Q 1925 3394 2219 3213 
L 2025 2691 
Q 1819 2813 1613 2813 
Q 1428 2813 1281 2702 
Q 1134 2591 1072 2394 
Q 978 2094 978 1738 
L 978 0 
L 416 0 
z
" transform="scale(0.015625)"/>
       <path id="ArialMT-69" d="M 425 3934 
L 425 4581 
L 988 4581 
L 988 3934 
L 425 3934 
z
M 425 0 
L 425 3319 
L 988 3319 
L 988 0 
L 425 0 
z
" transform="scale(0.015625)"/>
       <path id="ArialMT-67" d="M 319 -275 
L 866 -356 
Q 900 -609 1056 -725 
Q 1266 -881 1628 -881 
Q 2019 -881 2231 -725 
Q 2444 -569 2519 -288 
Q 2563 -116 2559 434 
Q 2191 0 1641 0 
Q 956 0 581 494 
Q 206 988 206 1678 
Q 206 2153 378 2554 
Q 550 2956 876 3175 
Q 1203 3394 1644 3394 
Q 2231 3394 2613 2919 
L 2613 3319 
L 3131 3319 
L 3131 450 
Q 3131 -325 2973 -648 
Q 2816 -972 2473 -1159 
Q 2131 -1347 1631 -1347 
Q 1038 -1347 672 -1080 
Q 306 -813 319 -275 
z
M 784 1719 
Q 784 1066 1043 766 
Q 1303 466 1694 466 
Q 2081 466 2343 764 
Q 2606 1063 2606 1700 
Q 2606 2309 2336 2618 
Q 2066 2928 1684 2928 
Q 1309 2928 1046 2623 
Q 784 2319 784 1719 
z
" transform="scale(0.015625)"/>
       <path id="ArialMT-6e" d="M 422 0 
L 422 3319 
L 928 3319 
L 928 2847 
Q 1294 3394 1984 3394 
Q 2284 3394 2536 3286 
Q 2788 3178 2913 3003 
Q 3038 2828 3088 2588 
Q 3119 2431 3119 2041 
L 3119 0 
L 2556 0 
L 2556 2019 
Q 2556 2363 2490 2533 
Q 2425 2703 2258 2804 
Q 2091 2906 1866 2906 
Q 1506 2906 1245 2678 
Q 984 2450 984 1813 
L 984 0 
L 422 0 
z
" transform="scale(0.015625)"/>
       <path id="ArialMT-61" d="M 2588 409 
Q 2275 144 1986 34 
Q 1697 -75 1366 -75 
Q 819 -75 525 192 
Q 231 459 231 875 
Q 231 1119 342 1320 
Q 453 1522 633 1644 
Q 813 1766 1038 1828 
Q 1203 1872 1538 1913 
Q 2219 1994 2541 2106 
Q 2544 2222 2544 2253 
Q 2544 2597 2384 2738 
Q 2169 2928 1744 2928 
Q 1347 2928 1158 2789 
Q 969 2650 878 2297 
L 328 2372 
Q 403 2725 575 2942 
Q 747 3159 1072 3276 
Q 1397 3394 1825 3394 
Q 2250 3394 2515 3294 
Q 2781 3194 2906 3042 
Q 3031 2891 3081 2659 
Q 3109 2516 3109 2141 
L 3109 1391 
Q 3109 606 3145 398 
Q 3181 191 3288 0 
L 2700 0 
Q 2613 175 2588 409 
z
M 2541 1666 
Q 2234 1541 1622 1453 
Q 1275 1403 1131 1340 
Q 988 1278 909 1158 
Q 831 1038 831 891 
Q 831 666 1001 516 
Q 1172 366 1500 366 
Q 1825 366 2078 508 
Q 2331 650 2450 897 
Q 2541 1088 2541 1459 
L 2541 1666 
z
" transform="scale(0.015625)"/>
       <path id="ArialMT-6c" d="M 409 0 
L 409 4581 
L 972 4581 
L 972 0 
L 409 0 
z
" transform="scale(0.015625)"/>
       <path id="ArialMT-20" transform="scale(0.015625)"/>
       <path id="ArialMT-50" d="M 494 0 
L 494 4581 
L 2222 4581 
Q 2678 4581 2919 4538 
Q 3256 4481 3484 4323 
Q 3713 4166 3852 3881 
Q 3991 3597 3991 3256 
Q 3991 2672 3619 2267 
Q 3247 1863 2275 1863 
L 1100 1863 
L 1100 0 
L 494 0 
z
M 1100 2403 
L 2284 2403 
Q 2872 2403 3119 2622 
Q 3366 2841 3366 3238 
Q 3366 3525 3220 3729 
Q 3075 3934 2838 4000 
Q 2684 4041 2272 4041 
L 1100 4041 
L 1100 2403 
z
" transform="scale(0.015625)"/>
       <path id="ArialMT-6f" d="M 213 1659 
Q 213 2581 725 3025 
Q 1153 3394 1769 3394 
Q 2453 3394 2887 2945 
Q 3322 2497 3322 1706 
Q 3322 1066 3130 698 
Q 2938 331 2570 128 
Q 2203 -75 1769 -75 
Q 1072 -75 642 372 
Q 213 819 213 1659 
z
M 791 1659 
Q 791 1022 1069 705 
Q 1347 388 1769 388 
Q 2188 388 2466 706 
Q 2744 1025 2744 1678 
Q 2744 2294 2464 2611 
Q 2184 2928 1769 2928 
Q 1347 2928 1069 2612 
Q 791 2297 791 1659 
z
" transform="scale(0.015625)"/>
       <path id="ArialMT-73" d="M 197 991 
L 753 1078 
Q 800 744 1014 566 
Q 1228 388 1613 388 
Q 2000 388 2187 545 
Q 2375 703 2375 916 
Q 2375 1106 2209 1216 
Q 2094 1291 1634 1406 
Q 1016 1563 777 1677 
Q 538 1791 414 1992 
Q 291 2194 291 2438 
Q 291 2659 392 2848 
Q 494 3038 669 3163 
Q 800 3259 1026 3326 
Q 1253 3394 1513 3394 
Q 1903 3394 2198 3281 
Q 2494 3169 2634 2976 
Q 2775 2784 2828 2463 
L 2278 2388 
Q 2241 2644 2061 2787 
Q 1881 2931 1553 2931 
Q 1166 2931 1000 2803 
Q 834 2675 834 2503 
Q 834 2394 903 2306 
Q 972 2216 1119 2156 
Q 1203 2125 1616 2013 
Q 2213 1853 2448 1751 
Q 2684 1650 2818 1456 
Q 2953 1263 2953 975 
Q 2953 694 2789 445 
Q 2625 197 2315 61 
Q 2006 -75 1616 -75 
Q 969 -75 630 194 
Q 291 463 197 991 
z
" transform="scale(0.015625)"/>
       <path id="ArialMT-74" d="M 1650 503 
L 1731 6 
Q 1494 -44 1306 -44 
Q 1000 -44 831 53 
Q 663 150 594 308 
Q 525 466 525 972 
L 525 2881 
L 113 2881 
L 113 3319 
L 525 3319 
L 525 4141 
L 1084 4478 
L 1084 3319 
L 1650 3319 
L 1650 2881 
L 1084 2881 
L 1084 941 
Q 1084 700 1114 631 
Q 1144 563 1211 522 
Q 1278 481 1403 481 
Q 1497 481 1650 503 
z
" transform="scale(0.015625)"/>
      </defs>
      <use xlink:href="#ArialMT-4f"/>
      <use xlink:href="#ArialMT-72" transform="translate(77.783203 0)"/>
      <use xlink:href="#ArialMT-69" transform="translate(111.083984 0)"/>
      <use xlink:href="#ArialMT-67" transform="translate(133.300781 0)"/>
      <use xlink:href="#ArialMT-69" transform="translate(188.916016 0)"/>
      <use xlink:href="#ArialMT-6e" transform="translate(211.132812 0)"/>
      <use xlink:href="#ArialMT-61" transform="translate(266.748047 0)"/>
      <use xlink:href="#ArialMT-6c" transform="translate(322.363281 0)"/>
      <use xlink:href="#ArialMT-20" transform="translate(344.580078 0)"/>
      <use xlink:href="#ArialMT-50" transform="translate(372.363281 0)"/>
      <use xlink:href="#ArialMT-6f" transform="translate(439.0625 0)"/>
      <use xlink:href="#ArialMT-73" transform="translate(494.677734 0)"/>
      <use xlink:href="#ArialMT-69" transform="translate(544.677734 0)"/>
      <use xlink:href="#ArialMT-74" transform="translate(566.894531 0)"/>
      <use xlink:href="#ArialMT-69" transform="translate(594.677734 0)"/>
      <use xlink:href="#ArialMT-6f" transform="translate(616.894531 0)"/>
      <use xlink:href="#ArialMT-6e" transform="translate(672.509766 0)"/>
     </g>
    </g>
   </g>
   <g id="matplotlib.axis_2">
    <g id="ytick_1">
     <g id="line2d_20">
      <path d="M 40.617813 234.772017 
L 633.787812 234.772017 
" clip-path="url(#p101e7e9b6c)" style="fill: none; stroke: #cccccc; stroke-width: 0.8; stroke-linecap: round"/>
     </g>
     <g id="text_20">
      <!-- 0 -->
      <g style="fill: #262626" transform="translate(25.8325 239.782485) scale(0.14 -0.14)">
       <use xlink:href="#ArialMT-30"/>
      </g>
     </g>
    </g>
    <g id="ytick_2">
     <g id="line2d_21">
      <path d="M 40.617813 190.032661 
L 633.787812 190.032661 
" clip-path="url(#p101e7e9b6c)" style="fill: none; stroke: #cccccc; stroke-width: 0.8; stroke-linecap: round"/>
     </g>
     <g id="text_21">
      <!-- 1 -->
      <g style="fill: #262626" transform="translate(25.8325 195.04313) scale(0.14 -0.14)">
       <use xlink:href="#ArialMT-31"/>
      </g>
     </g>
    </g>
    <g id="ytick_3">
     <g id="line2d_22">
      <path d="M 40.617813 145.293306 
L 633.787812 145.293306 
" clip-path="url(#p101e7e9b6c)" style="fill: none; stroke: #cccccc; stroke-width: 0.8; stroke-linecap: round"/>
     </g>
     <g id="text_22">
      <!-- 2 -->
      <g style="fill: #262626" transform="translate(25.8325 150.303774) scale(0.14 -0.14)">
       <use xlink:href="#ArialMT-32"/>
      </g>
     </g>
    </g>
    <g id="ytick_4">
     <g id="line2d_23">
      <path d="M 40.617813 100.55395 
L 633.787812 100.55395 
" clip-path="url(#p101e7e9b6c)" style="fill: none; stroke: #cccccc; stroke-width: 0.8; stroke-linecap: round"/>
     </g>
     <g id="text_23">
      <!-- 3 -->
      <g style="fill: #262626" transform="translate(25.8325 105.564419) scale(0.14 -0.14)">
       <use xlink:href="#ArialMT-33"/>
      </g>
     </g>
    </g>
    <g id="ytick_5">
     <g id="line2d_24">
      <path d="M 40.617813 55.814595 
L 633.787812 55.814595 
" clip-path="url(#p101e7e9b6c)" style="fill: none; stroke: #cccccc; stroke-width: 0.8; stroke-linecap: round"/>
     </g>
     <g id="text_24">
      <!-- 4 -->
      <g style="fill: #262626" transform="translate(25.8325 60.825063) scale(0.14 -0.14)">
       <use xlink:href="#ArialMT-34"/>
      </g>
     </g>
    </g>
    <g id="text_25">
     <!-- Information Content -->
     <g style="fill: #262626" transform="translate(18.6525 199.880945) rotate(-90) scale(0.16 -0.16)">
      <defs>
       <path id="ArialMT-49" d="M 597 0 
L 597 4581 
L 1203 4581 
L 1203 0 
L 597 0 
z
" transform="scale(0.015625)"/>
       <path id="ArialMT-66" d="M 556 0 
L 556 2881 
L 59 2881 
L 59 3319 
L 556 3319 
L 556 3672 
Q 556 4006 616 4169 
Q 697 4388 901 4523 
Q 1106 4659 1475 4659 
Q 1713 4659 2000 4603 
L 1916 4113 
Q 1741 4144 1584 4144 
Q 1328 4144 1222 4034 
Q 1116 3925 1116 3625 
L 1116 3319 
L 1763 3319 
L 1763 2881 
L 1116 2881 
L 1116 0 
L 556 0 
z
" transform="scale(0.015625)"/>
       <path id="ArialMT-6d" d="M 422 0 
L 422 3319 
L 925 3319 
L 925 2853 
Q 1081 3097 1340 3245 
Q 1600 3394 1931 3394 
Q 2300 3394 2536 3241 
Q 2772 3088 2869 2813 
Q 3263 3394 3894 3394 
Q 4388 3394 4653 3120 
Q 4919 2847 4919 2278 
L 4919 0 
L 4359 0 
L 4359 2091 
Q 4359 2428 4304 2576 
Q 4250 2725 4106 2815 
Q 3963 2906 3769 2906 
Q 3419 2906 3187 2673 
Q 2956 2441 2956 1928 
L 2956 0 
L 2394 0 
L 2394 2156 
Q 2394 2531 2256 2718 
Q 2119 2906 1806 2906 
Q 1569 2906 1367 2781 
Q 1166 2656 1075 2415 
Q 984 2175 984 1722 
L 984 0 
L 422 0 
z
" transform="scale(0.015625)"/>
       <path id="ArialMT-43" d="M 3763 1606 
L 4369 1453 
Q 4178 706 3683 314 
Q 3188 -78 2472 -78 
Q 1731 -78 1267 223 
Q 803 525 561 1097 
Q 319 1669 319 2325 
Q 319 3041 592 3573 
Q 866 4106 1370 4382 
Q 1875 4659 2481 4659 
Q 3169 4659 3637 4309 
Q 4106 3959 4291 3325 
L 3694 3184 
Q 3534 3684 3231 3912 
Q 2928 4141 2469 4141 
Q 1941 4141 1586 3887 
Q 1231 3634 1087 3207 
Q 944 2781 944 2328 
Q 944 1744 1114 1308 
Q 1284 872 1643 656 
Q 2003 441 2422 441 
Q 2931 441 3284 734 
Q 3638 1028 3763 1606 
z
" transform="scale(0.015625)"/>
       <path id="ArialMT-65" d="M 2694 1069 
L 3275 997 
Q 3138 488 2766 206 
Q 2394 -75 1816 -75 
Q 1088 -75 661 373 
Q 234 822 234 1631 
Q 234 2469 665 2931 
Q 1097 3394 1784 3394 
Q 2450 3394 2872 2941 
Q 3294 2488 3294 1666 
Q 3294 1616 3291 1516 
L 816 1516 
Q 847 969 1125 678 
Q 1403 388 1819 388 
Q 2128 388 2347 550 
Q 2566 713 2694 1069 
z
M 847 1978 
L 2700 1978 
Q 2663 2397 2488 2606 
Q 2219 2931 1791 2931 
Q 1403 2931 1139 2672 
Q 875 2413 847 1978 
z
" transform="scale(0.015625)"/>
      </defs>
      <use xlink:href="#ArialMT-49"/>
      <use xlink:href="#ArialMT-6e" transform="translate(27.783203 0)"/>
      <use xlink:href="#ArialMT-66" transform="translate(83.398438 0)"/>
      <use xlink:href="#ArialMT-6f" transform="translate(111.181641 0)"/>
      <use xlink:href="#ArialMT-72" transform="translate(166.796875 0)"/>
      <use xlink:href="#ArialMT-6d" transform="translate(200.097656 0)"/>
      <use xlink:href="#ArialMT-61" transform="translate(283.398438 0)"/>
      <use xlink:href="#ArialMT-74" transform="translate(339.013672 0)"/>
      <use xlink:href="#ArialMT-69" transform="translate(366.796875 0)"/>
      <use xlink:href="#ArialMT-6f" transform="translate(389.013672 0)"/>
      <use xlink:href="#ArialMT-6e" transform="translate(444.628906 0)"/>
      <use xlink:href="#ArialMT-20" transform="translate(500.244141 0)"/>
      <use xlink:href="#ArialMT-43" transform="translate(528.027344 0)"/>
      <use xlink:href="#ArialMT-6f" transform="translate(600.244141 0)"/>
      <use xlink:href="#ArialMT-6e" transform="translate(655.859375 0)"/>
      <use xlink:href="#ArialMT-74" transform="translate(711.474609 0)"/>
      <use xlink:href="#ArialMT-65" transform="translate(739.257812 0)"/>
      <use xlink:href="#ArialMT-6e" transform="translate(794.873047 0)"/>
      <use xlink:href="#ArialMT-74" transform="translate(850.488281 0)"/>
     </g>
    </g>
   </g>
   <g id="patch_75">
    <path d="M 40.617813 234.772017 
L 40.617813 24.477373 
" style="fill: none; stroke: #cccccc; stroke-width: 0.8; stroke-linejoin: miter; stroke-linecap: square"/>
   </g>
   <g id="patch_76">
    <path d="M 633.787812 234.772017 
L 633.787812 24.477373 
" style="fill: none; stroke: #cccccc; stroke-width: 0.8; stroke-linejoin: miter; stroke-linecap: square"/>
   </g>
   <g id="patch_77">
    <path d="M 40.617812 234.772017 
L 633.787812 234.772017 
" style="fill: none; stroke: #cccccc; stroke-width: 0.8; stroke-linejoin: miter; stroke-linecap: square"/>
   </g>
   <g id="patch_78">
    <path d="M 40.617812 24.477373 
L 633.787812 24.477373 
" style="fill: none; stroke: #cccccc; stroke-width: 0.8; stroke-linejoin: miter; stroke-linecap: square"/>
   </g>
   <g id="text_26">
    <!-- 16 -->
    <g style="fill: #000080; opacity: 0.6" transform="translate(48.529199 17.220937) scale(0.14 -0.14)">
     <defs>
      <path id="Arial-ItalicMT-31" d="M 1541 0 
L 2266 3459 
Q 1797 3091 947 2869 
L 1053 3381 
Q 1475 3550 1886 3822 
Q 2297 4094 2503 4297 
Q 2628 4422 2741 4600 
L 3069 4600 
L 2109 0 
L 1541 0 
z
" transform="scale(0.015625)"/>
      <path id="Arial-ItalicMT-36" d="M 1288 2656 
Q 1525 2853 1761 2951 
Q 1997 3050 2228 3050 
Q 2750 3050 3090 2694 
Q 3431 2338 3431 1734 
Q 3431 956 2925 400 
Q 2488 -78 1863 -78 
Q 1294 -78 914 339 
Q 534 756 534 1528 
Q 534 2219 778 2956 
Q 966 3522 1242 3889 
Q 1519 4256 1830 4428 
Q 2141 4600 2531 4600 
Q 3000 4600 3297 4308 
Q 3594 4016 3634 3472 
L 3109 3422 
Q 3066 3794 2898 3959 
Q 2731 4125 2491 4125 
Q 2238 4125 1981 3928 
Q 1725 3731 1540 3345 
Q 1356 2959 1288 2656 
z
M 1091 1288 
Q 1091 900 1331 636 
Q 1572 372 1875 372 
Q 2088 372 2325 533 
Q 2563 694 2728 1022 
Q 2894 1350 2894 1675 
Q 2894 2094 2664 2345 
Q 2434 2597 2109 2597 
Q 1734 2597 1412 2230 
Q 1091 1863 1091 1288 
z
" transform="scale(0.015625)"/>
     </defs>
     <use xlink:href="#Arial-ItalicMT-31"/>
     <use xlink:href="#Arial-ItalicMT-36" transform="translate(55.615234 0)"/>
    </g>
   </g>
   <g id="text_27">
    <!-- 16 -->
    <g style="fill: #000080; opacity: 0.6" transform="translate(81.574882 17.220937) scale(0.14 -0.14)">
     <use xlink:href="#Arial-ItalicMT-31"/>
     <use xlink:href="#Arial-ItalicMT-36" transform="translate(55.615234 0)"/>
    </g>
   </g>
   <g id="text_28">
    <!-- 16 -->
    <g style="fill: #000080; opacity: 0.6" transform="translate(114.620564 17.220937) scale(0.14 -0.14)">
     <use xlink:href="#Arial-ItalicMT-31"/>
     <use xlink:href="#Arial-ItalicMT-36" transform="translate(55.615234 0)"/>
    </g>
   </g>
   <g id="text_29">
    <!-- 16 -->
    <g style="fill: #000080; opacity: 0.6" transform="translate(147.666247 17.220937) scale(0.14 -0.14)">
     <use xlink:href="#Arial-ItalicMT-31"/>
     <use xlink:href="#Arial-ItalicMT-36" transform="translate(55.615234 0)"/>
    </g>
   </g>
   <g id="text_30">
    <!-- 16 -->
    <g style="fill: #000080; opacity: 0.6" transform="translate(180.711929 17.220937) scale(0.14 -0.14)">
     <use xlink:href="#Arial-ItalicMT-31"/>
     <use xlink:href="#Arial-ItalicMT-36" transform="translate(55.615234 0)"/>
    </g>
   </g>
   <g id="text_31">
    <!-- 16 -->
    <g style="fill: #000080; opacity: 0.6" transform="translate(213.757611 17.220937) scale(0.14 -0.14)">
     <use xlink:href="#Arial-ItalicMT-31"/>
     <use xlink:href="#Arial-ItalicMT-36" transform="translate(55.615234 0)"/>
    </g>
   </g>
   <g id="text_32">
    <!-- 14 -->
    <g style="fill: #000080; opacity: 0.6" transform="translate(246.803294 17.220937) scale(0.14 -0.14)">
     <defs>
      <path id="Arial-ItalicMT-34" d="M 1913 0 
L 2159 1169 
L 291 1169 
L 409 1728 
L 2975 4581 
L 3438 4581 
L 2828 1669 
L 3472 1669 
L 3369 1169 
L 2725 1169 
L 2478 0 
L 1913 0 
z
M 2263 1669 
L 2663 3581 
L 956 1669 
L 2263 1669 
z
" transform="scale(0.015625)"/>
     </defs>
     <use xlink:href="#Arial-ItalicMT-31"/>
     <use xlink:href="#Arial-ItalicMT-34" transform="translate(55.615234 0)"/>
    </g>
   </g>
   <g id="text_33">
    <!-- 13 -->
    <g style="fill: #000080; opacity: 0.6" transform="translate(279.848976 17.220937) scale(0.14 -0.14)">
     <defs>
      <path id="Arial-ItalicMT-33" d="M 350 1200 
L 900 1269 
Q 963 788 1177 580 
Q 1391 372 1738 372 
Q 2156 372 2461 672 
Q 2766 972 2766 1359 
Q 2766 1697 2537 1917 
Q 2309 2138 1925 2138 
Q 1881 2138 1744 2125 
L 1841 2597 
Q 1922 2584 1997 2584 
Q 2481 2584 2742 2820 
Q 3003 3056 3003 3400 
Q 3003 3716 2789 3931 
Q 2575 4147 2266 4147 
Q 1963 4147 1720 3926 
Q 1478 3706 1409 3303 
L 853 3416 
Q 991 3981 1381 4290 
Q 1772 4600 2306 4600 
Q 2869 4600 3217 4259 
Q 3566 3919 3566 3422 
Q 3566 3059 3377 2789 
Q 3188 2519 2809 2341 
Q 3078 2181 3211 1956 
Q 3344 1731 3344 1441 
Q 3344 825 2883 373 
Q 2422 -78 1781 -78 
Q 1159 -78 776 270 
Q 394 619 350 1200 
z
" transform="scale(0.015625)"/>
     </defs>
     <use xlink:href="#Arial-ItalicMT-31"/>
     <use xlink:href="#Arial-ItalicMT-33" transform="translate(55.615234 0)"/>
    </g>
   </g>
   <g id="text_34">
    <!-- 8 -->
    <g style="fill: #000080; opacity: 0.6" transform="translate(316.787315 17.220937) scale(0.14 -0.14)">
     <defs>
      <path id="Arial-ItalicMT-38" d="M 1444 2519 
Q 1188 2659 1059 2879 
Q 931 3100 931 3353 
Q 931 3769 1231 4122 
Q 1631 4600 2316 4600 
Q 2919 4600 3266 4276 
Q 3613 3953 3613 3484 
Q 3613 3150 3425 2881 
Q 3238 2613 2838 2453 
Q 3113 2281 3231 2088 
Q 3384 1834 3384 1497 
Q 3384 881 2948 400 
Q 2513 -81 1788 -81 
Q 1209 -81 843 275 
Q 478 631 478 1166 
Q 478 1669 737 2030 
Q 997 2391 1444 2519 
z
M 1488 3328 
Q 1488 3034 1677 2854 
Q 1866 2675 2197 2675 
Q 2584 2675 2826 2911 
Q 3069 3147 3069 3491 
Q 3069 3781 2880 3964 
Q 2691 4147 2359 4147 
Q 2109 4147 1900 4031 
Q 1691 3916 1589 3717 
Q 1488 3519 1488 3328 
z
M 1047 1119 
Q 1047 928 1139 753 
Q 1231 578 1418 475 
Q 1606 372 1847 372 
Q 2306 372 2591 803 
Q 2816 1141 2816 1531 
Q 2816 1850 2608 2053 
Q 2400 2256 2063 2256 
Q 1638 2256 1342 1940 
Q 1047 1625 1047 1119 
z
" transform="scale(0.015625)"/>
     </defs>
     <use xlink:href="#Arial-ItalicMT-38"/>
    </g>
   </g>
   <g id="text_35">
    <!-- 6 -->
    <g style="fill: #000080; opacity: 0.6" transform="translate(349.832997 17.220937) scale(0.14 -0.14)">
     <use xlink:href="#Arial-ItalicMT-36"/>
    </g>
   </g>
   <g id="text_36">
    <!-- 6 -->
    <g style="fill: #000080; opacity: 0.6" transform="translate(382.87868 17.220937) scale(0.14 -0.14)">
     <use xlink:href="#Arial-ItalicMT-36"/>
    </g>
   </g>
   <g id="text_37">
    <!-- 4 -->
    <g style="fill: #000080; opacity: 0.6" transform="translate(415.924362 17.220937) scale(0.14 -0.14)">
     <use xlink:href="#Arial-ItalicMT-34"/>
    </g>
   </g>
   <g id="text_38">
    <!-- 3 -->
    <g style="fill: #000080; opacity: 0.6" transform="translate(448.970045 17.220937) scale(0.14 -0.14)">
     <use xlink:href="#Arial-ItalicMT-33"/>
    </g>
   </g>
   <g id="text_39">
    <!-- 3 -->
    <g style="fill: #000080; opacity: 0.6" transform="translate(482.015727 17.220937) scale(0.14 -0.14)">
     <use xlink:href="#Arial-ItalicMT-33"/>
    </g>
   </g>
   <g id="text_40">
    <!-- 1 -->
    <g style="fill: #000080; opacity: 0.6" transform="translate(515.06141 17.220937) scale(0.14 -0.14)">
     <use xlink:href="#Arial-ItalicMT-31"/>
    </g>
   </g>
   <g id="text_41">
    <!-- 1 -->
    <g style="fill: #000080; opacity: 0.6" transform="translate(548.107092 17.220937) scale(0.14 -0.14)">
     <use xlink:href="#Arial-ItalicMT-31"/>
    </g>
   </g>
   <g id="text_42">
    <!-- 1 -->
    <g style="fill: #000080; opacity: 0.6" transform="translate(581.152775 17.220937) scale(0.14 -0.14)">
     <use xlink:href="#Arial-ItalicMT-31"/>
    </g>
   </g>
   <g id="text_43">
    <!-- 1 -->
    <g style="fill: #000080; opacity: 0.6" transform="translate(614.198457 17.220937) scale(0.14 -0.14)">
     <use xlink:href="#Arial-ItalicMT-31"/>
    </g>
   </g>
  </g>
 </g>
 <defs>
  <clipPath id="p101e7e9b6c">
   <rect x="40.617813" y="24.477373" width="593.17" height="210.294644"/>
  </clipPath>
 </defs>
</svg>
