<?xml version="1.0" encoding="utf-8" standalone="no"?>
<!DOCTYPE svg PUBLIC "-//W3C//DTD SVG 1.1//EN"
  "http://www.w3.org/Graphics/SVG/1.1/DTD/svg11.dtd">
<svg xmlns:xlink="http://www.w3.org/1999/xlink" width="532.987813pt" height="280.800454pt" viewBox="0 0 532.987813 280.800454" xmlns="http://www.w3.org/2000/svg" version="1.1">
 <metadata>
  <rdf:RDF xmlns:dc="http://purl.org/dc/elements/1.1/" xmlns:cc="http://creativecommons.org/ns#" xmlns:rdf="http://www.w3.org/1999/02/22-rdf-syntax-ns#">
   <cc:Work>
    <dc:type rdf:resource="http://purl.org/dc/dcmitype/StillImage"/>
    <dc:date>2025-05-09T14:59:10.629352</dc:date>
    <dc:format>image/svg+xml</dc:format>
    <dc:creator>
     <cc:Agent>
      <dc:title>Matplotlib v3.10.1, https://matplotlib.org/</dc:title>
     </cc:Agent>
    </dc:creator>
   </cc:Work>
  </rdf:RDF>
 </metadata>
 <defs>
  <style type="text/css">*{stroke-linejoin: round; stroke-linecap: butt}</style>
 </defs>
 <g id="figure_1">
  <g id="patch_1">
   <path d="M 0 280.800454 
L 532.987813 280.800454 
L 532.987813 0 
L 0 0 
z
" style="fill: #ffffff"/>
  </g>
  <g id="axes_1">
   <g id="patch_2">
    <path d="M 40.617813 234.772017 
L 525.787813 234.772017 
L 525.787813 24.477373 
L 40.617813 24.477373 
z
" style="fill: #ffffff"/>
   </g>
   <g id="line2d_1">
    <path d="M 40.617813 234.772017 
L 525.787813 234.772017 
" clip-path="url(#pebaf7ee165)" style="fill: none; stroke: #000000; stroke-width: 0.5; stroke-linecap: round"/>
   </g>
   <g id="patch_3">
    <path d="M 66.498884 222.208452 
Q 68.776419 225.143978 71.448013 226.883548 
L 69.170479 234.772017 
Q 67.774571 234.023035 66.438773 232.706277 
Q 66.144898 232.440509 62.324518 227.789574 
Q 59.318974 230.169403 55.665569 230.169403 
Q 48.612559 230.169403 44.611846 222.655425 
Q 40.617813 215.141448 40.617813 201.551054 
Q 40.617813 187.996901 44.625204 180.470843 
Q 48.632596 172.944785 55.498594 172.944785 
Q 62.304481 172.944785 66.291836 180.470843 
Q 70.279191 187.996901 70.279191 201.551054 
Q 70.279191 208.726782 69.170479 214.162939 
Q 68.335606 218.31858 66.498884 222.208452 
z
M 61.529719 215.90251 
Q 62.725257 213.365636 63.319687 209.789853 
Q 63.914117 206.201989 63.914117 201.551054 
Q 63.914117 191.971336 61.576471 187.235839 
Q 59.238826 182.488261 55.45852 182.488261 
Q 51.678214 182.488261 49.327211 187.247919 
Q 46.982886 192.007577 46.982886 201.551054 
Q 46.982886 211.251575 49.327211 216.071635 
Q 51.678214 220.879614 55.271508 220.879614 
Q 56.607306 220.879614 57.796165 220.094391 
Q 55.91937 217.859526 53.975785 216.61525 
L 55.712321 210.236825 
Q 58.757939 212.12136 61.529719 215.90251 
z
" clip-path="url(#pebaf7ee165)" style="fill: #0000ff"/>
   </g>
   <g id="patch_4">
    <path d="M 51.940213 172.944785 
L 51.940213 66.955244 
L 60.125613 66.955244 
L 60.125613 172.944785 
L 51.940213 172.944785 
z
" clip-path="url(#pebaf7ee165)" style="fill: #add8e6"/>
   </g>
   <g id="patch_5">
    <path d="M 73.070655 234.772017 
L 73.070655 228.127134 
L 82.720334 228.127134 
L 88.510141 232.660043 
L 94.237243 228.127134 
L 103.900856 228.127134 
L 103.900856 234.772017 
L 97.915965 234.772017 
L 97.915965 229.541402 
L 91.575743 234.772017 
L 85.374866 234.772017 
L 79.062514 229.541402 
L 79.062514 234.772017 
L 73.070655 234.772017 
z
" clip-path="url(#pebaf7ee165)" style="fill: #ff8c00"/>
   </g>
   <g id="patch_6">
    <path d="M 84.393055 228.127134 
L 84.393055 221.482251 
L 92.578456 221.482251 
L 92.578456 228.127134 
L 84.393055 228.127134 
z
" clip-path="url(#pebaf7ee165)" style="fill: #add8e6"/>
   </g>
   <g id="patch_7">
    <path d="M 73.070655 214.837369 
L 87.782695 214.837369 
Q 92.153722 214.837369 94.29906 214.902643 
Q 96.444399 214.967916 98.139779 215.176793 
Q 99.835158 215.385669 100.960055 215.732346 
Q 102.092987 216.079023 102.092987 216.509831 
Q 102.092987 216.976902 100.694901 217.367095 
Q 99.30485 217.755837 96.926497 217.951659 
Q 100.285117 218.127173 102.092987 218.553629 
Q 103.900856 218.980085 103.900856 219.555946 
Q 103.900856 220.008512 102.735785 220.437869 
Q 101.570713 220.865776 99.545899 221.12252 
Q 97.52912 221.377813 94.564215 221.437285 
Q 92.708135 221.473548 85.597182 221.482251 
L 73.070655 221.482251 
L 73.070655 214.837369 
z
M 80.503008 215.942673 
L 80.503008 217.480236 
L 85.372203 217.480236 
Q 89.719124 217.480236 90.771706 217.457028 
Q 92.675995 217.416413 93.768752 217.219141 
Q 94.861509 217.021868 94.861509 216.69985 
Q 94.861509 216.392338 93.921417 216.199417 
Q 92.981324 216.006497 91.125245 215.965882 
Q 90.016418 215.942673 84.76958 215.942673 
L 80.503008 215.942673 
z
M 80.503008 218.585541 
L 80.503008 220.362441 
L 87.380947 220.362441 
Q 91.398434 220.362441 92.475121 220.321826 
Q 94.138361 220.266706 95.174873 220.056379 
Q 96.219419 219.846052 96.219419 219.492123 
Q 96.219419 219.193313 95.415922 218.984437 
Q 94.612424 218.77556 93.093814 218.681276 
Q 91.575204 218.585541 86.505134 218.585541 
L 80.503008 218.585541 
z
" clip-path="url(#pebaf7ee165)" style="fill: #ffd700"/>
   </g>
   <g id="patch_8">
    <path d="M 73.070655 214.837369 
L 73.070655 208.192486 
L 87.643707 208.192486 
Q 93.137606 208.192486 95.630069 208.372352 
Q 98.122532 208.550767 99.619507 209.009135 
Q 101.116482 209.466052 101.116482 210.054968 
Q 101.116482 210.803442 98.84108 211.29082 
Q 96.573163 211.778199 92.059784 211.904395 
Q 94.305246 212.158238 95.764797 212.462849 
Q 97.231832 212.76601 99.709326 213.540594 
L 103.900856 214.837369 
L 95.615099 214.837369 
L 90.615203 213.391189 
Q 87.943102 212.616606 86.962584 212.414982 
Q 85.982065 212.213358 84.881788 212.13793 
Q 83.781512 212.062503 81.393836 212.062503 
L 79.994165 212.062503 
L 79.994165 214.837369 
L 73.070655 214.837369 
z
M 79.994165 211.002165 
L 85.113819 211.002165 
Q 90.098746 211.002165 91.333751 210.920935 
Q 92.57624 210.839705 93.279818 210.640982 
Q 93.983396 210.440809 93.983396 210.140549 
Q 93.983396 209.805476 93.055272 209.599501 
Q 92.134632 209.393526 90.450535 209.338405 
Q 89.604744 209.316648 85.398245 209.316648 
L 79.994165 209.316648 
L 79.994165 211.002165 
z
" clip-path="url(#pebaf7ee165)" style="fill: #ffe4b5"/>
   </g>
   <g id="patch_9">
    <path d="M 73.070655 208.192486 
L 73.070655 206.982743 
L 93.000119 202.671765 
L 75.323695 202.671765 
L 75.323695 201.547603 
L 103.097382 201.547603 
L 103.097382 202.589085 
L 82.306462 207.072676 
L 103.900856 207.072676 
L 103.900856 208.192486 
L 73.070655 208.192486 
z
" clip-path="url(#pebaf7ee165)" style="fill: #dda0dd"/>
   </g>
   <g id="patch_10">
    <path d="M 98.951727 198.847065 
Q 101.229261 199.478056 103.900856 199.851977 
L 101.623322 201.547603 
Q 100.227414 201.38661 98.891616 201.103572 
Q 98.597741 201.046446 94.777361 200.046727 
Q 91.771817 200.558271 88.118411 200.558271 
Q 81.065402 200.558271 77.064689 198.943142 
Q 73.070655 197.328012 73.070655 194.406756 
Q 73.070655 191.493291 77.078047 189.875564 
Q 81.085439 188.257838 87.951437 188.257838 
Q 94.757324 188.257838 98.744679 189.875564 
Q 102.732033 191.493291 102.732033 194.406756 
Q 102.732033 195.949179 101.623322 197.117682 
Q 100.788448 198.010937 98.951727 198.847065 
z
M 93.982561 197.491602 
Q 95.1781 196.946301 95.77253 196.177686 
Q 96.366959 195.406475 96.366959 194.406756 
Q 96.366959 192.347596 94.029314 191.329701 
Q 91.691669 190.309209 87.911363 190.309209 
Q 84.131057 190.309209 81.780053 191.332297 
Q 79.435729 192.355386 79.435729 194.406756 
Q 79.435729 196.491884 81.780053 197.527956 
Q 84.131057 198.561431 87.724351 198.561431 
Q 89.060148 198.561431 90.249008 198.392647 
Q 88.372213 197.912263 86.428628 197.644806 
L 88.165164 196.273763 
Q 91.210782 196.678844 93.982561 197.491602 
z
" clip-path="url(#pebaf7ee165)" style="fill: #0000ff"/>
   </g>
   <g id="patch_11">
    <path d="M 89.5542 158.597843 
L 89.5542 145.602657 
L 103.900856 145.602657 
L 103.900856 176.323141 
Q 101.807136 181.053253 97.835545 184.655546 
Q 93.871148 188.257838 89.798827 188.257838 
Q 84.63288 188.257838 80.783602 183.191062 
Q 76.941518 178.107454 75.006087 168.664061 
Q 73.070655 159.220669 73.070655 148.127628 
Q 73.070655 136.075099 75.229129 126.715872 
Q 77.387603 117.356646 81.546262 112.357203 
Q 84.719219 108.519246 89.439082 108.519246 
Q 95.576342 108.519246 99.0299 114.545511 
Q 102.483458 120.554943 103.469161 131.176655 
L 96.864231 134.071955 
Q 96.166325 128.399187 94.238088 125.116724 
Q 92.317047 121.817428 89.439082 121.817428 
Q 85.078965 121.817428 82.503186 128.298188 
Q 79.927407 134.762114 79.927407 147.487969 
Q 79.927407 161.223813 82.531965 168.091734 
Q 85.143719 174.942823 89.374327 174.942823 
Q 91.468047 174.942823 93.568961 173.023845 
Q 95.669876 171.104867 97.173613 168.377898 
L 97.173613 158.597843 
L 89.5542 158.597843 
z
" clip-path="url(#pebaf7ee165)" style="fill: #ff69b4"/>
   </g>
   <g id="patch_12">
    <path d="M 122.007043 231.97369 
L 122.007043 230.747635 
L 136.353699 230.747635 
L 136.353699 233.646016 
Q 134.259979 234.092287 130.288387 234.432152 
Q 126.323991 234.772017 122.25167 234.772017 
Q 117.085723 234.772017 113.236444 234.293982 
Q 109.394361 233.81436 107.45893 232.923406 
Q 105.523498 232.032452 105.523498 230.985858 
Q 105.523498 229.84874 107.681972 228.965727 
Q 109.840446 228.082714 113.999105 227.611032 
Q 117.172062 227.248933 121.891924 227.248933 
Q 128.029185 227.248933 131.482743 227.817492 
Q 134.936301 228.384463 135.922004 229.386588 
L 129.317074 229.65975 
Q 128.619168 229.124542 126.690931 228.814852 
Q 124.769889 228.503574 121.891924 228.503574 
Q 117.531807 228.503574 114.956029 229.115014 
Q 112.38025 229.724864 112.38025 230.925509 
Q 112.38025 232.221442 114.984808 232.869409 
Q 117.596562 233.515787 121.82717 233.515787 
Q 123.92089 233.515787 126.021804 233.334738 
Q 128.122719 233.153688 129.626455 232.896407 
L 129.626455 231.97369 
L 122.007043 231.97369 
z
" clip-path="url(#pebaf7ee165)" style="fill: #ff69b4"/>
   </g>
   <g id="patch_13">
    <path d="M 117.034004 227.248933 
L 117.034004 220.998582 
L 105.523498 220.998582 
L 105.523498 219.72585 
L 136.353699 219.72585 
L 136.353699 220.998582 
L 124.868602 220.998582 
L 124.868602 227.248933 
L 117.034004 227.248933 
z
" clip-path="url(#pebaf7ee165)" style="fill: #a0522d"/>
   </g>
   <g id="patch_14">
    <path d="M 131.40457 216.668403 
Q 133.682104 217.382787 136.353699 217.806126 
L 134.076164 219.72585 
Q 132.680256 219.543579 131.344459 219.223135 
Q 131.050584 219.158458 127.230204 218.026615 
Q 124.22466 218.605766 120.571254 218.605766 
Q 113.518245 218.605766 109.517532 216.777177 
Q 105.523498 214.948589 105.523498 211.641254 
Q 105.523498 208.342739 109.53089 206.511211 
Q 113.538282 204.679682 120.40428 204.679682 
Q 127.210167 204.679682 131.197521 206.511211 
Q 135.184876 208.342739 135.184876 211.641254 
Q 135.184876 213.387527 134.076164 214.710461 
Q 133.241291 215.72177 131.40457 216.668403 
z
M 126.435404 215.133799 
Q 127.630943 214.51643 128.225372 213.646234 
Q 128.819802 212.773097 128.819802 211.641254 
Q 128.819802 209.309951 126.482157 208.157528 
Q 124.144512 207.002166 120.364206 207.002166 
Q 116.583899 207.002166 114.232896 208.160468 
Q 111.888572 209.31877 111.888572 211.641254 
Q 111.888572 214.001956 114.232896 215.174957 
Q 116.583899 216.345019 120.177194 216.345019 
Q 121.512991 216.345019 122.701851 216.153928 
Q 120.825056 215.610056 118.881471 215.307251 
L 120.618007 213.755008 
Q 123.663625 214.213625 126.435404 215.133799 
z
" clip-path="url(#pebaf7ee165)" style="fill: #0000ff"/>
   </g>
   <g id="patch_15">
    <path d="M 105.523498 189.633515 
L 120.235538 189.633515 
Q 124.606565 189.633515 126.751903 189.781317 
Q 128.897242 189.929118 130.592621 190.402082 
Q 132.288001 190.875046 133.412898 191.660035 
Q 134.545829 192.445024 134.545829 193.420512 
Q 134.545829 194.478112 133.147744 195.361635 
Q 131.757693 196.241873 129.37934 196.685277 
Q 132.73796 197.082698 134.545829 198.048333 
Q 136.353699 199.013968 136.353699 200.317903 
Q 136.353699 201.342659 135.188627 202.314863 
Q 134.023556 203.283782 131.998742 203.865133 
Q 129.981963 204.443201 127.017057 204.577864 
Q 125.160978 204.659976 118.050025 204.679682 
L 105.523498 204.679682 
L 105.523498 189.633515 
z
M 112.95585 192.136283 
L 112.95585 195.617824 
L 117.825045 195.617824 
Q 122.171967 195.617824 123.224549 195.565272 
Q 125.128838 195.473307 126.221595 195.026619 
Q 127.314351 194.579931 127.314351 193.850778 
Q 127.314351 193.15447 126.374259 192.717635 
Q 125.434167 192.2808 123.578088 192.188835 
Q 122.469261 192.136283 117.222422 192.136283 
L 112.95585 192.136283 
z
M 112.95585 198.120592 
L 112.95585 202.14407 
L 119.833789 202.14407 
Q 123.851277 202.14407 124.927964 202.052105 
Q 126.591204 201.927295 127.627715 201.451046 
Q 128.672262 200.974798 128.672262 200.173387 
Q 128.672262 199.496785 127.868765 199.023821 
Q 127.065267 198.550857 125.546657 198.337367 
Q 124.028047 198.120592 118.957977 198.120592 
L 112.95585 198.120592 
z
" clip-path="url(#pebaf7ee165)" style="fill: #ffd700"/>
   </g>
   <g id="patch_16">
    <path d="M 105.523498 189.633515 
L 105.523498 91.83343 
L 115.173177 91.83343 
L 120.962984 158.549271 
L 126.690086 91.83343 
L 136.353699 91.83343 
L 136.353699 189.633515 
L 130.368808 189.633515 
L 130.368808 112.648772 
L 124.028586 189.633515 
L 117.827709 189.633515 
L 111.515356 112.648772 
L 111.515356 189.633515 
L 105.523498 189.633515 
z
" clip-path="url(#pebaf7ee165)" style="fill: #ff8c00"/>
   </g>
   <g id="patch_17">
    <path d="M 158.205342 228.150759 
L 166.364195 228.150759 
L 166.364195 232.272168 
Q 166.364195 233.079396 165.479287 233.515697 
Q 164.284661 234.084168 161.160935 234.428092 
Q 158.037209 234.772017 152.92244 234.772017 
Q 146.922763 234.772017 143.683999 234.233391 
Q 140.454084 233.693344 140.418687 232.64878 
L 148.135087 232.506662 
Q 148.276672 233.066606 149.16158 233.298257 
Q 150.488942 233.647867 153.196761 233.647867 
Q 155.939977 233.647867 157.072659 233.39774 
Q 158.205342 233.146192 158.205342 232.356018 
L 158.205342 228.150759 
z
" clip-path="url(#pebaf7ee165)" style="fill: #7b68ee"/>
   </g>
   <g id="patch_18">
    <path d="M 137.976341 228.150759 
L 137.976341 221.529501 
L 168.036671 221.529501 
L 168.036671 222.649666 
L 146.161742 222.649666 
L 146.161742 224.11672 
L 166.514629 224.11672 
L 166.514629 225.232549 
L 146.161742 225.232549 
L 146.161742 227.03493 
L 168.806542 227.03493 
L 168.806542 228.150759 
L 137.976341 228.150759 
z
" clip-path="url(#pebaf7ee165)" style="fill: #c0c0c0"/>
   </g>
   <g id="patch_19">
    <path d="M 137.976341 214.908243 
L 152.688381 214.908243 
Q 157.059408 214.908243 159.204746 214.973285 
Q 161.350084 215.038327 163.045464 215.246461 
Q 164.740844 215.454595 165.865741 215.800039 
Q 166.998672 216.145483 166.998672 216.574759 
Q 166.998672 217.04017 165.600586 217.428975 
Q 164.210536 217.816336 161.832183 218.011461 
Q 165.190803 218.186351 166.998672 218.611291 
Q 168.806542 219.036231 168.806542 219.610045 
Q 168.806542 220.061001 167.64147 220.488832 
Q 166.476399 220.915217 164.451585 221.171048 
Q 162.434806 221.425434 159.4699 221.484695 
Q 157.613821 221.520829 150.502868 221.529501 
L 137.976341 221.529501 
L 137.976341 214.908243 
z
M 145.408693 216.009618 
L 145.408693 217.541715 
L 150.277888 217.541715 
Q 154.62481 217.541715 155.677392 217.518589 
Q 157.581681 217.478118 158.674438 217.281547 
Q 159.767194 217.084976 159.767194 216.764103 
Q 159.767194 216.457684 158.827102 216.265449 
Q 157.88701 216.073215 156.030931 216.032744 
Q 154.922104 216.009618 149.675265 216.009618 
L 145.408693 216.009618 
z
M 145.408693 218.64309 
L 145.408693 220.413673 
L 152.286632 220.413673 
Q 156.30412 220.413673 157.380807 220.373202 
Q 159.044046 220.318278 160.080558 220.108699 
Q 161.125105 219.899119 161.125105 219.546448 
Q 161.125105 219.248701 160.321608 219.040567 
Q 159.51811 218.832433 157.9995 218.738484 
Q 156.480889 218.64309 151.41082 218.64309 
L 145.408693 218.64309 
z
" clip-path="url(#pebaf7ee165)" style="fill: #ffd700"/>
   </g>
   <g id="patch_20">
    <path d="M 137.976341 214.908243 
L 137.976341 208.286986 
L 147.62602 208.286986 
L 153.415827 212.803779 
L 159.142928 208.286986 
L 168.806542 208.286986 
L 168.806542 214.908243 
L 162.821651 214.908243 
L 162.821651 209.696225 
L 156.481429 214.908243 
L 150.280552 214.908243 
L 143.968199 209.696225 
L 143.968199 214.908243 
L 137.976341 214.908243 
z
" clip-path="url(#pebaf7ee165)" style="fill: #ff8c00"/>
   </g>
   <g id="patch_21">
    <path d="M 149.486847 208.286986 
L 149.486847 180.781521 
L 137.976341 180.781521 
L 137.976341 175.180697 
L 168.806542 175.180697 
L 168.806542 180.781521 
L 157.321445 180.781521 
L 157.321445 208.286986 
L 149.486847 208.286986 
z
" clip-path="url(#pebaf7ee165)" style="fill: #a0522d"/>
   </g>
   <g id="patch_22">
    <path d="M 163.857413 161.726012 
Q 166.134947 164.869751 168.806542 166.732707 
L 166.529007 175.180697 
Q 165.133099 174.378591 163.797302 172.968436 
Q 163.503426 172.683818 159.683046 167.702997 
Q 156.677503 170.251625 153.024097 170.251625 
Q 145.971088 170.251625 141.970375 162.204688 
Q 137.976341 154.157751 137.976341 139.603404 
Q 137.976341 125.087868 141.983733 117.027994 
Q 145.991124 108.96812 152.857122 108.96812 
Q 159.663009 108.96812 163.650364 117.027994 
Q 167.637719 125.087868 167.637719 139.603404 
Q 167.637719 147.288099 166.529007 153.109838 
Q 165.694134 157.560234 163.857413 161.726012 
z
M 158.888247 154.972795 
Q 160.083786 152.255983 160.678215 148.426573 
Q 161.272645 144.584225 161.272645 139.603404 
Q 161.272645 129.344206 158.935 124.272825 
Q 156.597355 119.188506 152.817048 119.188506 
Q 149.036742 119.188506 146.685739 124.285762 
Q 144.341415 129.383018 144.341415 139.603404 
Q 144.341415 149.991973 146.685739 155.153915 
Q 149.036742 160.30292 152.630037 160.30292 
Q 153.965834 160.30292 155.154694 159.462002 
Q 153.277898 157.068621 151.334313 155.736089 
L 153.07085 148.905249 
Q 156.116468 150.923452 158.888247 154.972795 
z
" clip-path="url(#pebaf7ee165)" style="fill: #0000ff"/>
   </g>
   <g id="patch_23">
    <path d="M 170.429184 234.772017 
L 170.429184 229.093835 
L 183.467661 229.093835 
Q 190.883076 229.093835 193.132301 229.178121 
Q 196.593999 229.30703 198.922299 229.73466 
Q 201.259384 230.16229 201.259384 230.8403 
Q 201.259384 231.363372 199.915121 231.72035 
Q 198.570857 232.076089 196.497353 232.279368 
Q 194.423848 232.482647 192.280056 232.548341 
Q 189.371878 232.630148 183.854247 232.630148 
L 178.556267 232.630148 
L 178.556267 234.772017 
L 170.429184 234.772017 
z
M 178.556267 230.054453 
L 178.556267 231.665812 
L 183.002001 231.665812 
Q 187.807963 231.665812 189.424594 231.576567 
Q 191.05001 231.487323 191.963758 231.297678 
Q 192.886292 231.108034 192.886292 230.856414 
Q 192.886292 230.546537 191.594745 230.345737 
Q 190.303197 230.143697 188.326339 230.092877 
Q 186.876643 230.054453 182.483625 230.054453 
L 178.556267 230.054453 
z
" clip-path="url(#pebaf7ee165)" style="fill: #f0fff0"/>
   </g>
   <g id="patch_24">
    <path d="M 170.429184 229.093835 
L 170.429184 223.415653 
L 185.002236 223.415653 
Q 190.496134 223.415653 192.988597 223.569352 
Q 195.481061 223.721811 196.978036 224.113495 
Q 198.475011 224.50394 198.475011 225.00718 
Q 198.475011 225.646766 196.199609 226.06324 
Q 193.931692 226.479714 189.418312 226.587552 
Q 191.663774 226.804465 193.123325 227.064762 
Q 194.590361 227.323819 197.067854 227.985715 
L 201.259384 229.093835 
L 192.973628 229.093835 
L 187.973731 227.858046 
Q 185.301631 227.196149 184.321112 227.023858 
Q 183.340593 226.851567 182.240317 226.787112 
Q 181.14004 226.722658 178.752365 226.722658 
L 177.352693 226.722658 
L 177.352693 229.093835 
L 170.429184 229.093835 
z
M 177.352693 225.816578 
L 182.472348 225.816578 
Q 187.457275 225.816578 188.692279 225.747166 
Q 189.934768 225.677753 190.638347 225.507941 
Q 191.341925 225.336889 191.341925 225.080311 
Q 191.341925 224.793985 190.4138 224.617975 
Q 189.493161 224.441965 187.809064 224.394864 
Q 186.963273 224.376271 182.756773 224.376271 
L 177.352693 224.376271 
L 177.352693 225.816578 
z
" clip-path="url(#pebaf7ee165)" style="fill: #ffe4b5"/>
   </g>
   <g id="patch_25">
    <path d="M 176.039337 223.415653 
L 170.429184 217.737471 
L 175.285504 217.737471 
L 178.823901 221.6382 
L 183.121257 217.737471 
L 188.762179 217.737471 
L 192.880052 221.703894 
L 196.485113 217.737471 
L 201.259384 217.737471 
L 195.556925 223.415653 
L 190.526249 223.415653 
L 185.844284 219.170341 
L 181.182832 223.415653 
L 176.039337 223.415653 
z
" clip-path="url(#pebaf7ee165)" style="fill: #9acd32"/>
   </g>
   <g id="patch_26">
    <path d="M 170.429184 212.059289 
L 185.141224 212.059289 
Q 189.51225 212.059289 191.657589 212.115067 
Q 193.802927 212.170845 195.498307 212.349334 
Q 197.193687 212.527823 198.318583 212.824065 
Q 199.451515 213.120307 199.451515 213.488441 
Q 199.451515 213.887562 198.053429 214.22099 
Q 196.663378 214.553178 194.285026 214.720511 
Q 197.643645 214.870491 199.451515 215.234906 
Q 201.259384 215.599322 201.259384 216.091406 
Q 201.259384 216.478132 200.094313 216.845026 
Q 198.929242 217.210681 196.904428 217.430073 
Q 194.887649 217.648227 191.922743 217.699046 
Q 190.066664 217.730034 182.95571 217.737471 
L 170.429184 217.737471 
L 170.429184 212.059289 
z
M 177.861536 213.003794 
L 177.861536 214.317671 
L 182.730731 214.317671 
Q 187.077653 214.317671 188.130235 214.297839 
Q 190.034524 214.263133 191.12728 214.09456 
Q 192.220037 213.925987 192.220037 213.650816 
Q 192.220037 213.388041 191.279945 213.223187 
Q 190.339853 213.058332 188.483773 213.023626 
Q 187.374947 213.003794 182.128108 213.003794 
L 177.861536 213.003794 
z
M 177.861536 215.262176 
L 177.861536 216.780572 
L 184.739475 216.780572 
Q 188.756963 216.780572 189.833649 216.745866 
Q 191.496889 216.698764 192.533401 216.519036 
Q 193.577948 216.339307 193.577948 216.036868 
Q 193.577948 215.781529 192.77445 215.60304 
Q 191.970953 215.424551 190.452342 215.343983 
Q 188.933732 215.262176 183.863663 215.262176 
L 177.861536 215.262176 
z
" clip-path="url(#pebaf7ee165)" style="fill: #ffd700"/>
   </g>
   <g id="patch_27">
    <path d="M 190.658185 206.381108 
L 198.817038 206.381108 
L 198.817038 209.915499 
Q 198.817038 210.607752 197.93213 210.98191 
Q 196.737504 211.469412 193.613778 211.764351 
Q 190.490052 212.059289 185.375283 212.059289 
Q 179.375605 212.059289 176.136841 211.597381 
Q 172.906927 211.134254 172.87153 210.238469 
L 180.58793 210.116593 
Q 180.729515 210.596783 181.614423 210.79544 
Q 182.941785 211.095254 185.649604 211.095254 
Q 188.39282 211.095254 189.525502 210.880753 
Q 190.658185 210.665033 190.658185 209.987405 
L 190.658185 206.381108 
z
" clip-path="url(#pebaf7ee165)" style="fill: #7b68ee"/>
   </g>
   <g id="patch_28">
    <path d="M 196.310256 204.073445 
Q 198.58779 204.612639 201.259384 204.932162 
L 198.98185 206.381108 
Q 197.585942 206.243535 196.250145 206.001675 
Q 195.956269 205.952859 192.135889 205.09858 
Q 189.130345 205.535704 185.47694 205.535704 
Q 178.42393 205.535704 174.423218 204.155544 
Q 170.429184 202.775385 170.429184 200.279115 
Q 170.429184 197.789502 174.436576 196.407123 
Q 178.443967 195.024744 185.309965 195.024744 
Q 192.115852 195.024744 196.103207 196.407123 
Q 200.090562 197.789502 200.090562 200.279115 
Q 200.090562 201.597145 198.98185 202.595653 
Q 198.146977 203.358957 196.310256 204.073445 
z
M 191.34109 202.915176 
Q 192.536628 202.449205 193.131058 201.792409 
Q 193.725488 201.133394 193.725488 200.279115 
Q 193.725488 198.519522 191.387843 197.64971 
Q 189.050197 196.77768 185.269891 196.77768 
Q 181.489585 196.77768 179.138582 197.651929 
Q 176.794258 198.526179 176.794258 200.279115 
Q 176.794258 202.060897 179.138582 202.94624 
Q 181.489585 203.829365 185.08288 203.829365 
Q 186.418677 203.829365 187.607536 203.685136 
Q 185.730741 203.274639 183.787156 203.046091 
L 185.523693 201.874508 
Q 188.56931 202.220658 191.34109 202.915176 
z
" clip-path="url(#pebaf7ee165)" style="fill: #0000ff"/>
   </g>
   <g id="patch_29">
    <path d="M 170.429184 183.66838 
L 178.233764 183.66838 
L 178.233764 189.715845 
Q 178.233764 191.156414 178.529072 191.582979 
Q 179.026878 192.267919 180.908415 192.682296 
Q 182.798388 193.096673 186.072093 193.096673 
Q 189.387985 193.096673 191.075462 192.706671 
Q 192.762939 192.314232 193.108872 191.743854 
Q 193.454804 191.171039 193.454804 189.845033 
L 193.454804 183.66838 
L 201.259384 183.66838 
L 201.259384 189.533032 
Q 201.259384 191.543978 200.626581 192.37517 
Q 199.993777 193.203923 198.289425 193.776738 
Q 196.585074 194.347116 193.733238 194.68593 
Q 190.88984 195.024744 186.30834 195.024744 
Q 180.764979 195.024744 177.904706 194.65668 
Q 175.044433 194.286178 173.382268 193.696301 
Q 171.728541 193.106423 171.196986 192.458045 
Q 170.429184 191.497666 170.429184 189.62322 
L 170.429184 183.66838 
z
" clip-path="url(#pebaf7ee165)" style="fill: #f08080"/>
   </g>
   <g id="patch_30">
    <path d="M 181.93969 183.66838 
L 181.93969 136.492742 
L 170.429184 136.492742 
L 170.429184 126.886563 
L 201.259384 126.886563 
L 201.259384 136.492742 
L 189.774288 136.492742 
L 189.774288 183.66838 
L 181.93969 183.66838 
z
" clip-path="url(#pebaf7ee165)" style="fill: #a0522d"/>
   </g>
   <g id="patch_31">
    <path d="M 223.111027 226.95821 
L 231.269881 226.95821 
L 231.269881 231.821923 
Q 231.269881 232.77454 230.384972 233.289423 
Q 229.190346 233.96028 226.066621 234.366148 
Q 222.942895 234.772017 217.828126 234.772017 
Q 211.828448 234.772017 208.589684 234.13638 
Q 205.359769 233.499065 205.324373 232.266366 
L 213.040772 232.098652 
Q 213.182358 232.759446 214.067266 233.03282 
Q 215.394628 233.445397 218.102447 233.445397 
Q 220.845662 233.445397 221.978345 233.15022 
Q 223.111027 232.853366 223.111027 231.920874 
L 223.111027 226.95821 
z
" clip-path="url(#pebaf7ee165)" style="fill: #7b68ee"/>
   </g>
   <g id="patch_32">
    <path d="M 214.204427 226.95821 
L 214.204427 219.144403 
L 222.389827 219.144403 
L 222.389827 226.95821 
L 214.204427 226.95821 
z
" clip-path="url(#pebaf7ee165)" style="fill: #add8e6"/>
   </g>
   <g id="patch_33">
    <path d="M 202.882027 219.144403 
L 202.882027 211.330597 
L 217.455078 211.330597 
Q 222.948977 211.330597 225.44144 211.542104 
Q 227.933904 211.751904 229.430879 212.290905 
Q 230.927854 212.8282 230.927854 213.520714 
Q 230.927854 214.400855 228.652452 214.97397 
Q 226.384534 215.547084 221.871155 215.69548 
Q 224.116617 215.993978 225.576168 216.352174 
Q 227.043203 216.708665 229.520697 217.619509 
L 233.712227 219.144403 
L 225.42647 219.144403 
L 220.426574 217.443822 
Q 217.754473 216.532978 216.773955 216.295886 
Q 215.793436 216.058794 214.69316 215.970098 
Q 213.592883 215.881401 211.205208 215.881401 
L 209.805536 215.881401 
L 209.805536 219.144403 
L 202.882027 219.144403 
z
M 209.805536 214.634536 
L 214.925191 214.634536 
Q 219.910117 214.634536 221.145122 214.539016 
Q 222.387611 214.443497 223.091189 214.209817 
Q 223.794768 213.97443 223.794768 213.62135 
Q 223.794768 213.227334 222.866643 212.985125 
Q 221.946004 212.742916 220.261907 212.678099 
Q 219.416116 212.652513 215.209616 212.652513 
L 209.805536 212.652513 
L 209.805536 214.634536 
z
" clip-path="url(#pebaf7ee165)" style="fill: #ffe4b5"/>
   </g>
   <g id="patch_34">
    <path d="M 202.882027 208.739183 
L 210.330934 208.595765 
Q 211.009612 209.342527 213.0622 209.693654 
Q 215.114788 210.043132 218.607498 210.043132 
Q 222.307122 210.043132 224.177626 209.731569 
Q 226.056406 209.420006 226.056406 209.00294 
Q 226.056406 208.734237 225.270132 208.54631 
Q 224.483858 208.358383 222.514036 208.219911 
Q 221.173233 208.125947 216.389379 207.890214 
Q 210.231615 207.585245 207.748646 207.143452 
Q 204.255936 206.518677 204.255936 205.623551 
Q 204.255936 205.046582 205.894696 204.543795 
Q 207.541732 204.041008 210.62889 203.778899 
Q 213.724325 203.51679 218.094351 203.51679 
Q 225.228749 203.51679 228.837331 204.139917 
Q 232.445913 204.763043 232.627997 205.803235 
L 224.972176 205.870823 
Q 224.483858 205.288909 222.861652 205.033394 
Q 221.247722 204.777879 218.011585 204.777879 
Q 214.67613 204.777879 212.789074 205.051527 
Q 211.572419 205.226267 211.572419 205.519696 
Q 211.572419 205.788399 212.714585 205.977975 
Q 214.162983 206.220301 219.749664 206.484059 
Q 225.336345 206.746167 228.009675 207.028058 
Q 230.691281 207.3083 232.197616 207.794602 
Q 233.712227 208.280904 233.712227 208.997994 
Q 233.712227 209.645848 231.89966 210.212926 
Q 230.095369 210.780004 226.784743 211.0553 
Q 223.474118 211.330597 218.533009 211.330597 
Q 211.340675 211.330597 207.483796 210.669555 
Q 203.635194 210.006865 202.882027 208.739183 
z
" clip-path="url(#pebaf7ee165)" style="fill: #ffff00"/>
   </g>
   <g id="patch_35">
    <path d="M 202.882027 187.889177 
L 217.594067 187.889177 
Q 221.965093 187.889177 224.110432 188.04269 
Q 226.25577 188.196203 227.95115 188.687444 
Q 229.64653 189.178686 230.771426 189.99401 
Q 231.904358 190.809334 231.904358 191.822519 
Q 231.904358 192.920989 230.506272 193.838655 
Q 229.116221 194.752909 226.737869 195.213448 
Q 230.096488 195.626227 231.904358 196.629178 
Q 233.712227 197.632129 233.712227 198.986454 
Q 233.712227 200.05081 232.547156 201.060584 
Q 231.382084 202.066946 229.357271 202.670764 
Q 227.340492 203.27117 224.375586 203.411037 
Q 222.519506 203.496322 215.408553 203.51679 
L 202.882027 203.51679 
L 202.882027 187.889177 
z
M 210.314379 190.488662 
L 210.314379 194.104744 
L 215.183574 194.104744 
Q 219.530496 194.104744 220.583077 194.050162 
Q 222.487367 193.954642 223.580123 193.490692 
Q 224.67288 193.026742 224.67288 192.269412 
Q 224.67288 191.546196 223.732788 191.09248 
Q 222.792696 190.638764 220.936616 190.543245 
Q 219.82779 190.488662 214.580951 190.488662 
L 210.314379 190.488662 
z
M 210.314379 196.704229 
L 210.314379 200.883191 
L 217.192318 200.883191 
Q 221.209805 200.883191 222.286492 200.787672 
Q 223.949732 200.658039 224.986244 200.163386 
Q 226.030791 199.668734 226.030791 198.836353 
Q 226.030791 198.133605 225.227293 197.642363 
Q 224.423796 197.151122 222.905185 196.929381 
Q 221.386575 196.704229 216.316505 196.704229 
L 210.314379 196.704229 
z
" clip-path="url(#pebaf7ee165)" style="fill: #ffd700"/>
   </g>
   <g id="patch_36">
    <path d="M 214.392533 187.889177 
L 214.392533 116.478388 
L 202.882027 116.478388 
L 202.882027 101.937305 
L 233.712227 101.937305 
L 233.712227 116.478388 
L 222.22713 116.478388 
L 222.22713 187.889177 
L 214.392533 187.889177 
z
" clip-path="url(#pebaf7ee165)" style="fill: #a0522d"/>
   </g>
   <g id="patch_37">
    <path d="M 251.818414 232.521748 
L 251.818414 231.535819 
L 266.16507 231.535819 
L 266.16507 233.866545 
Q 264.07135 234.225413 260.099759 234.498715 
Q 256.135362 234.772017 252.063041 234.772017 
Q 246.897094 234.772017 243.047816 234.387606 
Q 239.205732 234.001919 237.270301 233.28546 
Q 235.334869 232.569001 235.334869 231.727386 
Q 235.334869 230.812975 237.493343 230.102902 
Q 239.651817 229.392828 243.810476 229.013527 
Q 246.983433 228.722346 251.703296 228.722346 
Q 257.840556 228.722346 261.294114 229.179551 
Q 264.747672 229.635479 265.733375 230.441336 
L 259.128445 230.660999 
Q 258.430539 230.230613 256.502302 229.981576 
Q 254.581261 229.731263 251.703296 229.731263 
Q 247.343179 229.731263 244.7674 230.22295 
Q 242.191621 230.71336 242.191621 231.678856 
Q 242.191621 232.720978 244.796179 233.242039 
Q 247.407933 233.761822 251.638541 233.761822 
Q 253.732261 233.761822 255.833175 233.616232 
Q 257.93409 233.470641 259.437827 233.263749 
L 259.437827 232.521748 
L 251.818414 232.521748 
z
" clip-path="url(#pebaf7ee165)" style="fill: #ff69b4"/>
   </g>
   <g id="patch_38">
    <path d="M 236.852487 228.722346 
L 236.852487 222.672675 
L 264.647453 222.672675 
L 264.647453 223.69614 
L 245.037887 223.69614 
L 245.037887 225.127671 
L 261.957332 225.127671 
L 261.957332 226.151136 
L 245.037887 226.151136 
L 245.037887 228.722346 
L 236.852487 228.722346 
z
" clip-path="url(#pebaf7ee165)" style="fill: #ff0000"/>
   </g>
   <g id="patch_39">
    <path d="M 235.334869 216.623004 
L 250.046909 216.623004 
Q 254.417936 216.623004 256.563274 216.682431 
Q 258.708613 216.741858 260.403993 216.932024 
Q 262.099372 217.122191 263.224269 217.437814 
Q 264.357201 217.753438 264.357201 218.145656 
Q 264.357201 218.570889 262.959115 218.926131 
Q 261.569064 219.280052 259.190711 219.458333 
Q 262.549331 219.618126 264.357201 220.006382 
Q 266.16507 220.394639 266.16507 220.918917 
Q 266.16507 221.330944 264.999999 221.721842 
Q 263.834927 222.111419 261.810113 222.345166 
Q 259.793335 222.577591 256.828429 222.631736 
Q 254.972349 222.664751 247.861396 222.672675 
L 235.334869 222.672675 
L 235.334869 216.623004 
z
M 242.767222 217.629301 
L 242.767222 219.029138 
L 247.636417 219.029138 
Q 251.983338 219.029138 253.03592 219.008008 
Q 254.940209 218.971031 256.032966 218.79143 
Q 257.125723 218.611828 257.125723 218.318655 
Q 257.125723 218.038687 256.185631 217.863048 
Q 255.245538 217.687408 253.389459 217.650431 
Q 252.280633 217.629301 247.033794 217.629301 
L 242.767222 217.629301 
z
M 242.767222 220.035435 
L 242.767222 221.653171 
L 249.645161 221.653171 
Q 253.662648 221.653171 254.739335 221.616194 
Q 256.402575 221.566011 257.439087 221.374524 
Q 258.483634 221.183037 258.483634 220.860811 
Q 258.483634 220.588767 257.680136 220.398601 
Q 256.876638 220.208434 255.358028 220.122595 
Q 253.839418 220.035435 248.769348 220.035435 
L 242.767222 220.035435 
z
" clip-path="url(#pebaf7ee165)" style="fill: #ffd700"/>
   </g>
   <g id="patch_40">
    <path d="M 235.334869 216.623004 
L 235.334869 210.573333 
L 244.984548 210.573333 
L 250.774355 214.700209 
L 256.501457 210.573333 
L 266.16507 210.573333 
L 266.16507 216.623004 
L 260.180179 216.623004 
L 260.180179 211.860918 
L 253.839957 216.623004 
L 247.639081 216.623004 
L 241.326728 211.860918 
L 241.326728 216.623004 
L 235.334869 216.623004 
z
" clip-path="url(#pebaf7ee165)" style="fill: #ff8c00"/>
   </g>
   <g id="patch_41">
    <path d="M 255.56387 198.473991 
L 263.722723 198.473991 
L 263.722723 206.00524 
Q 263.722723 207.480326 262.837815 208.2776 
Q 261.643189 209.316393 258.519463 209.944863 
Q 255.395738 210.573333 250.280968 210.573333 
Q 244.281291 210.573333 241.042527 209.589076 
Q 237.812612 208.602223 237.777216 206.693441 
L 245.493615 206.433742 
Q 245.6352 207.456954 246.520109 207.880262 
Q 247.847471 208.519119 250.55529 208.519119 
Q 253.298505 208.519119 254.431188 208.06205 
Q 255.56387 207.602385 255.56387 206.158462 
L 255.56387 198.473991 
z
" clip-path="url(#pebaf7ee165)" style="fill: #7b68ee"/>
   </g>
   <g id="patch_42">
    <path d="M 246.657269 198.473991 
L 246.657269 186.374649 
L 254.84267 186.374649 
L 254.84267 198.473991 
L 246.657269 198.473991 
z
" clip-path="url(#pebaf7ee165)" style="fill: #add8e6"/>
   </g>
   <g id="patch_43">
    <path d="M 246.845376 186.374649 
L 246.845376 176.322238 
L 235.334869 176.322238 
L 235.334869 174.275307 
L 266.16507 174.275307 
L 266.16507 176.322238 
L 254.679973 176.322238 
L 254.679973 186.374649 
L 246.845376 186.374649 
z
" clip-path="url(#pebaf7ee165)" style="fill: #a0522d"/>
   </g>
   <g id="patch_44">
    <path d="M 261.215941 169.358028 
Q 263.493476 170.506969 266.16507 171.187823 
L 263.887536 174.275307 
Q 262.491628 173.982161 261.15583 173.466793 
Q 260.861955 173.362773 257.041575 171.542435 
Q 254.036031 172.473881 250.382625 172.473881 
Q 243.329616 172.473881 239.328903 169.53297 
Q 235.334869 166.592059 235.334869 161.272888 
Q 235.334869 155.967901 239.342261 153.022262 
Q 243.349653 150.076623 250.215651 150.076623 
Q 257.021538 150.076623 261.008893 153.022262 
Q 264.996247 155.967901 264.996247 161.272888 
Q 264.996247 164.08141 263.887536 166.209079 
Q 263.052662 167.835563 261.215941 169.358028 
z
M 256.246775 166.889933 
Q 257.442314 165.897021 258.036744 164.497488 
Q 258.631174 163.093226 258.631174 161.272888 
Q 258.631174 157.523463 256.293528 155.670027 
Q 253.955883 153.811863 250.175577 153.811863 
Q 246.395271 153.811863 244.044267 155.674755 
Q 241.699943 157.537647 241.699943 161.272888 
Q 241.699943 165.069594 244.044267 166.956127 
Q 246.395271 168.837932 249.988565 168.837932 
Q 251.324363 168.837932 252.513222 168.530602 
Q 250.636427 167.655893 248.692842 167.168894 
L 250.429378 164.672429 
Q 253.474996 165.410021 256.246775 166.889933 
z
" clip-path="url(#pebaf7ee165)" style="fill: #0000ff"/>
   </g>
   <g id="patch_45">
    <path d="M 279.110112 234.772017 
L 279.110112 227.506306 
L 287.295513 227.506306 
L 287.295513 234.772017 
L 279.110112 234.772017 
z
" clip-path="url(#pebaf7ee165)" style="fill: #add8e6"/>
   </g>
   <g id="patch_46">
    <path d="M 267.787712 227.506306 
L 267.787712 220.240595 
L 275.575242 220.240595 
L 275.575242 223.10025 
L 290.830383 223.10025 
L 290.830383 220.240595 
L 298.617913 220.240595 
L 298.617913 227.506306 
L 290.830383 227.506306 
L 290.830383 224.329441 
L 275.575242 224.329441 
L 275.575242 227.506306 
L 267.787712 227.506306 
z
" clip-path="url(#pebaf7ee165)" style="fill: #00ffff"/>
   </g>
   <g id="patch_47">
    <path d="M 267.787712 216.64992 
Q 267.787712 215.576245 269.244585 214.84768 
Q 270.326833 214.310843 272.199955 213.88444 
Q 274.073077 213.458038 276.306949 213.252506 
Q 279.276194 212.974885 283.161188 212.974885 
Q 290.181926 212.974885 294.39992 213.938124 
Q 298.617913 214.901364 298.617913 216.61771 
Q 298.617913 218.318717 294.434607 219.280423 
Q 290.251301 220.240595 283.244437 220.240595 
Q 276.154324 220.240595 271.971018 219.285025 
Q 267.787712 218.32792 267.787712 216.64992 
z
M 274.399139 216.602372 
Q 274.399139 217.795684 276.889698 218.41228 
Q 279.387194 219.027343 283.223625 219.027343 
Q 287.060056 219.027343 289.522865 218.416882 
Q 291.985673 217.806421 291.985673 216.583966 
Q 291.985673 215.375315 289.585302 214.781726 
Q 287.191869 214.186603 283.223625 214.186603 
Q 279.255381 214.186603 276.82726 214.789395 
Q 274.399139 215.390653 274.399139 216.602372 
z
" clip-path="url(#pebaf7ee165)" style="fill: #006400"/>
   </g>
   <g id="patch_48">
    <path d="M 293.668784 211.49846 
Q 295.946318 211.843433 298.617913 212.047861 
L 296.340379 212.974885 
Q 294.94447 212.886867 293.608673 212.732126 
Q 293.314798 212.700894 289.494418 212.154333 
Q 286.488874 212.434002 282.835468 212.434002 
Q 275.782459 212.434002 271.781746 211.550987 
Q 267.787712 210.667972 267.787712 209.070878 
Q 267.787712 207.478044 271.795104 206.593609 
Q 275.802496 205.709174 282.668494 205.709174 
Q 289.474381 205.709174 293.461735 206.593609 
Q 297.44909 207.478044 297.44909 209.070878 
Q 297.44909 209.914144 296.340379 210.552981 
Q 295.505505 211.041337 293.668784 211.49846 
z
M 288.699618 210.757409 
Q 289.895157 210.459285 290.489587 210.039072 
Q 291.084016 209.617439 291.084016 209.070878 
Q 291.084016 207.945105 288.746371 207.388606 
Q 286.408726 206.830688 282.62842 206.830688 
Q 278.848113 206.830688 276.49711 207.390026 
Q 274.152786 207.949364 274.152786 209.070878 
Q 274.152786 210.210848 276.49711 210.777284 
Q 278.848113 211.3423 282.441408 211.3423 
Q 283.777205 211.3423 284.966065 211.250024 
Q 283.08927 210.98739 281.145685 210.841168 
L 282.882221 210.091598 
Q 285.927839 210.313062 288.699618 210.757409 
z
" clip-path="url(#pebaf7ee165)" style="fill: #0000ff"/>
   </g>
   <g id="patch_49">
    <path d="M 267.787712 205.709174 
L 267.787712 198.443463 
L 282.360764 198.443463 
Q 287.854662 198.443463 290.347126 198.640134 
Q 292.839589 198.835218 294.336564 199.336411 
Q 295.833539 199.836018 295.833539 200.479956 
Q 295.833539 201.298359 293.558137 201.831273 
Q 291.29022 202.364187 286.77684 202.502174 
Q 289.022303 202.779733 290.481854 203.112804 
Q 291.948889 203.44429 294.426383 204.291242 
L 298.617913 205.709174 
L 290.332156 205.709174 
L 285.332259 204.127879 
Q 282.660159 203.280926 281.67964 203.060465 
Q 280.699122 202.840003 279.598845 202.757528 
Q 278.498568 202.675054 276.110893 202.675054 
L 274.711222 202.675054 
L 274.711222 205.709174 
L 267.787712 205.709174 
z
M 274.711222 201.515649 
L 279.830876 201.515649 
Q 284.815803 201.515649 286.050807 201.42683 
Q 287.293297 201.338011 287.996875 201.120721 
Q 288.700453 200.901846 288.700453 200.573533 
Q 288.700453 200.207155 287.772329 199.981935 
Q 286.851689 199.756715 285.167592 199.696445 
Q 284.321801 199.672655 280.115302 199.672655 
L 274.711222 199.672655 
L 274.711222 201.515649 
z
" clip-path="url(#pebaf7ee165)" style="fill: #ffe4b5"/>
   </g>
   <g id="patch_50">
    <path d="M 267.787712 198.443463 
L 267.787712 191.177753 
L 277.437391 191.177753 
L 283.227198 196.134169 
L 288.9543 191.177753 
L 298.617913 191.177753 
L 298.617913 198.443463 
L 292.633022 198.443463 
L 292.633022 192.724155 
L 286.2928 198.443463 
L 280.091923 198.443463 
L 273.77957 192.724155 
L 273.77957 198.443463 
L 267.787712 198.443463 
z
" clip-path="url(#pebaf7ee165)" style="fill: #ff8c00"/>
   </g>
   <g id="patch_51">
    <path d="M 284.271257 185.772567 
L 284.271257 183.404347 
L 298.617913 183.404347 
L 298.617913 189.002794 
Q 296.524193 189.864802 292.552601 190.521277 
Q 288.588205 191.177753 284.515884 191.177753 
Q 279.349937 191.177753 275.500659 190.254392 
Q 271.658575 189.327964 269.723144 187.607017 
Q 267.787712 185.88607 267.787712 183.864493 
Q 267.787712 181.668062 269.946186 179.962452 
Q 272.10466 178.256843 276.263319 177.345754 
Q 279.436276 176.646331 284.156138 176.646331 
Q 290.293399 176.646331 293.746957 177.744547 
Q 297.200515 178.839695 298.186218 180.775378 
L 291.581288 181.303012 
Q 290.883382 180.269217 288.955145 179.671026 
Q 287.034103 179.069769 284.156138 179.069769 
Q 279.796021 179.069769 277.220243 180.250811 
Q 274.644464 181.428785 274.644464 183.747923 
Q 274.644464 186.251119 277.249022 187.502717 
Q 279.860776 188.751248 284.091384 188.751248 
Q 286.185104 188.751248 288.286018 188.401536 
Q 290.386933 188.051825 291.89067 187.554867 
L 291.89067 185.772567 
L 284.271257 185.772567 
z
" clip-path="url(#pebaf7ee165)" style="fill: #ff69b4"/>
   </g>
   <g id="patch_52">
    <path d="M 279.298218 176.646331 
L 279.298218 152.500254 
L 267.787712 152.500254 
L 267.787712 147.583489 
L 298.617913 147.583489 
L 298.617913 152.500254 
L 287.132816 152.500254 
L 287.132816 176.646331 
L 279.298218 176.646331 
z
" clip-path="url(#pebaf7ee165)" style="fill: #a0522d"/>
   </g>
   <g id="patch_53">
    <path d="M 320.469556 221.06813 
L 328.628409 221.06813 
L 328.628409 229.59813 
Q 328.628409 231.268834 327.743501 232.171837 
Q 326.548875 233.348389 323.425149 234.060203 
Q 320.301423 234.772017 315.186654 234.772017 
Q 309.186977 234.772017 305.948213 233.657234 
Q 302.718298 232.53951 302.682902 230.377596 
L 310.399301 230.083458 
Q 310.540886 231.242361 311.425794 231.721806 
Q 312.753157 232.445385 315.460976 232.445385 
Q 318.204191 232.445385 319.336873 231.927703 
Q 320.469556 231.407079 320.469556 229.771672 
L 320.469556 221.06813 
z
" clip-path="url(#pebaf7ee165)" style="fill: #7b68ee"/>
   </g>
   <g id="patch_54">
    <path d="M 300.240555 221.06813 
L 300.240555 207.364243 
L 313.279033 207.364243 
Q 320.694447 207.364243 322.943672 207.567663 
Q 326.40537 207.878775 328.73367 208.910829 
Q 331.070756 209.942883 331.070756 211.579213 
Q 331.070756 212.84161 329.726492 213.703151 
Q 328.382229 214.5617 326.308724 215.0523 
Q 324.23522 215.5429 322.091427 215.701447 
Q 319.183249 215.898884 313.665618 215.898884 
L 308.367638 215.898884 
L 308.367638 221.06813 
L 300.240555 221.06813 
z
M 308.367638 209.682626 
L 308.367638 213.571526 
L 312.813373 213.571526 
Q 317.619334 213.571526 319.235965 213.356141 
Q 320.861382 213.140756 321.775129 212.683062 
Q 322.697663 212.225369 322.697663 211.618102 
Q 322.697663 210.870236 321.406116 210.38562 
Q 320.114569 209.898011 318.137711 209.775361 
Q 316.688015 209.682626 312.294997 209.682626 
L 308.367638 209.682626 
z
" clip-path="url(#pebaf7ee165)" style="fill: #f0fff0"/>
   </g>
   <g id="patch_55">
    <path d="M 326.121627 201.794864 
Q 328.399161 203.096171 331.070756 203.867315 
L 328.793221 207.364243 
Q 327.397313 207.032222 326.061516 206.448509 
Q 325.767641 206.330695 321.94726 204.268953 
Q 318.941717 205.323922 315.288311 205.323922 
Q 308.235302 205.323922 304.234589 201.993005 
Q 300.240555 198.662088 300.240555 192.637518 
Q 300.240555 186.629015 304.247947 183.292742 
Q 308.255339 179.95647 315.121336 179.95647 
Q 321.927223 179.95647 325.914578 183.292742 
Q 329.901933 186.629015 329.901933 192.637518 
Q 329.901933 195.818491 328.793221 198.228319 
Q 327.958348 200.070498 326.121627 201.794864 
z
M 321.152461 198.999464 
Q 322.348 197.874877 322.942429 196.289746 
Q 323.536859 194.69926 323.536859 192.637518 
Q 323.536859 188.390867 321.199214 186.291639 
Q 318.861569 184.187056 315.081262 184.187056 
Q 311.300956 184.187056 308.949953 186.296994 
Q 306.605629 188.406932 306.605629 192.637518 
Q 306.605629 196.937722 308.949953 199.074436 
Q 311.300956 201.205795 314.894251 201.205795 
Q 316.230048 201.205795 317.418908 200.857708 
Q 315.542113 199.867001 313.598528 199.315419 
L 315.335064 196.487888 
Q 318.380682 197.323295 321.152461 198.999464 
z
" clip-path="url(#pebaf7ee165)" style="fill: #0000ff"/>
   </g>
   <g id="patch_56">
    <path d="M 316.7241 169.761727 
L 316.7241 165.295018 
L 331.070756 165.295018 
L 331.070756 175.854272 
Q 328.977036 177.480108 325.005444 178.718289 
Q 321.041047 179.95647 316.968727 179.95647 
Q 311.80278 179.95647 307.953501 178.214916 
Q 304.111418 176.467576 302.175986 173.221691 
Q 300.240555 169.975805 300.240555 166.162902 
Q 300.240555 162.020203 302.399029 158.803246 
Q 304.557503 155.58629 308.716162 153.86788 
Q 311.889119 152.548696 316.608981 152.548696 
Q 322.746242 152.548696 326.1998 154.620046 
Q 329.653358 156.68561 330.639061 160.336508 
L 324.034131 161.331681 
Q 323.336225 159.381836 321.407988 158.253586 
Q 319.486946 157.119552 316.608981 157.119552 
Q 312.248864 157.119552 309.673085 159.34712 
Q 307.097307 161.568903 307.097307 165.943038 
Q 307.097307 170.664326 309.701865 173.02497 
Q 312.313618 175.379829 316.544227 175.379829 
Q 318.637947 175.379829 320.738861 174.720237 
Q 322.839776 174.060645 324.343512 173.123331 
L 324.343512 169.761727 
L 316.7241 169.761727 
z
" clip-path="url(#pebaf7ee165)" style="fill: #ff69b4"/>
   </g>
   <g id="patch_57">
    <path d="M 300.240555 152.548696 
L 300.240555 125.140923 
L 309.890234 125.140923 
L 315.680041 143.837559 
L 321.407142 125.140923 
L 331.070756 125.140923 
L 331.070756 152.548696 
L 325.085865 152.548696 
L 325.085865 130.974274 
L 318.745643 152.548696 
L 312.544766 152.548696 
L 306.232413 130.974274 
L 306.232413 152.548696 
L 300.240555 152.548696 
z
" clip-path="url(#pebaf7ee165)" style="fill: #ff8c00"/>
   </g>
   <g id="patch_58">
    <path d="M 352.922399 216.512316 
L 361.081252 216.512316 
L 361.081252 227.878088 
Q 361.081252 230.104211 360.196344 231.307416 
Q 359.001718 232.875108 355.877992 233.823562 
Q 352.754266 234.772017 347.639497 234.772017 
Q 341.639819 234.772017 338.401055 233.286628 
Q 335.171141 231.79732 335.135744 228.916684 
L 342.852144 228.524761 
Q 342.993729 230.068938 343.878637 230.707773 
Q 345.205999 231.671904 347.913818 231.671904 
Q 350.657034 231.671904 351.789716 230.982119 
Q 352.922399 230.288415 352.922399 228.109323 
L 352.922399 216.512316 
z
" clip-path="url(#pebaf7ee165)" style="fill: #7b68ee"/>
   </g>
   <g id="patch_59">
    <path d="M 358.57447 212.801864 
Q 360.852004 213.668826 363.523598 214.18258 
L 361.246064 216.512316 
Q 359.850156 216.291116 358.514359 215.902232 
Q 358.220483 215.823741 354.400103 214.450161 
Q 351.394559 215.153006 347.741154 215.153006 
Q 340.688144 215.153006 336.687432 212.933871 
Q 332.693398 210.714736 332.693398 206.701027 
Q 332.693398 202.698021 336.70079 200.475318 
Q 340.708181 198.252615 347.574179 198.252615 
Q 354.380066 198.252615 358.367421 200.475318 
Q 362.354776 202.698021 362.354776 206.701027 
Q 362.354776 208.820265 361.246064 210.425749 
Q 360.411191 211.653052 358.57447 212.801864 
z
M 353.605304 210.939503 
Q 354.800842 210.190278 355.395272 209.134226 
Q 355.989702 208.074607 355.989702 206.701027 
Q 355.989702 203.871807 353.652057 202.473253 
Q 351.314412 201.07113 347.534105 201.07113 
Q 343.753799 201.07113 341.402796 202.476821 
Q 339.058472 203.882511 339.058472 206.701027 
Q 339.058472 209.565923 341.402796 210.989452 
Q 343.753799 212.409413 347.347094 212.409413 
Q 348.682891 212.409413 349.87175 212.17751 
Q 347.994955 211.517478 346.05137 211.15 
L 347.787907 209.266233 
Q 350.833525 209.8228 353.605304 210.939503 
z
" clip-path="url(#pebaf7ee165)" style="fill: #0000ff"/>
   </g>
   <g id="patch_60">
    <path d="M 332.693398 192.196866 
L 340.142305 191.861719 
Q 340.820984 193.606792 342.873571 194.427323 
Q 344.926159 195.244001 348.418869 195.244001 
Q 352.118493 195.244001 353.988997 194.515925 
Q 355.867777 193.787848 355.867777 192.813227 
Q 355.867777 192.185309 355.081503 191.746152 
Q 354.29523 191.306994 352.325407 190.983405 
Q 350.984604 190.763826 346.20075 190.212953 
Q 340.042987 189.500285 337.560017 188.46788 
Q 334.067307 187.007875 334.067307 184.916099 
Q 334.067307 183.567809 335.706067 182.39287 
Q 337.353103 181.217932 340.440262 180.605423 
Q 343.535697 179.992914 347.905722 179.992914 
Q 355.04012 179.992914 358.648702 181.449067 
Q 362.257284 182.90522 362.439369 185.335995 
L 354.783547 185.493938 
Q 354.29523 184.134091 352.673023 183.536991 
Q 351.059093 182.939891 347.822957 182.939891 
Q 344.487501 182.939891 342.600445 183.579365 
Q 341.38379 183.987705 341.38379 184.673407 
Q 341.38379 185.301325 342.525956 185.744334 
Q 343.974354 186.310616 349.561035 186.926977 
Q 355.147716 187.539486 357.821046 188.198222 
Q 360.502653 188.853106 362.008987 189.989522 
Q 363.523598 191.125938 363.523598 192.80167 
Q 363.523598 194.315607 361.711031 195.640784 
Q 359.90674 196.965961 356.596114 197.609288 
Q 353.285489 198.252615 348.34438 198.252615 
Q 341.152046 198.252615 337.295167 196.707859 
Q 333.446565 195.159252 332.693398 192.196866 
z
" clip-path="url(#pebaf7ee165)" style="fill: #ffff00"/>
   </g>
   <g id="patch_61">
    <path d="M 344.203904 179.992914 
L 344.203904 164.822335 
L 332.693398 164.822335 
L 332.693398 161.733213 
L 363.523598 161.733213 
L 363.523598 164.822335 
L 352.038502 164.822335 
L 352.038502 179.992914 
L 344.203904 179.992914 
z
" clip-path="url(#pebaf7ee165)" style="fill: #a0522d"/>
   </g>
   <g id="patch_62">
    <path d="M 332.693398 161.733213 
L 332.693398 125.213811 
L 342.343076 125.213811 
L 348.132884 150.126086 
L 353.859985 125.213811 
L 363.523598 125.213811 
L 363.523598 161.733213 
L 357.538708 161.733213 
L 357.538708 132.986441 
L 351.198485 161.733213 
L 344.997609 161.733213 
L 338.685256 132.986441 
L 338.685256 161.733213 
L 332.693398 161.733213 
z
" clip-path="url(#pebaf7ee165)" style="fill: #ff8c00"/>
   </g>
   <g id="patch_63">
    <path d="M 385.375241 198.975614 
L 393.534095 198.975614 
L 393.534095 221.257127 
Q 393.534095 225.62123 392.649187 227.979997 
Q 391.454561 231.053309 388.330835 232.912663 
Q 385.207109 234.772017 380.09234 234.772017 
Q 374.092662 234.772017 370.853898 231.860053 
Q 367.623983 228.940407 367.588587 223.293196 
L 375.304986 222.524868 
Q 375.446572 225.55208 376.33148 226.804455 
Q 377.658842 228.694542 380.366661 228.694542 
Q 383.109876 228.694542 384.242559 227.342285 
Q 385.375241 225.982344 385.375241 221.71044 
L 385.375241 198.975614 
z
" clip-path="url(#pebaf7ee165)" style="fill: #7b68ee"/>
   </g>
   <g id="patch_64">
    <path d="M 365.146241 198.975614 
L 365.146241 163.179211 
L 372.933771 163.179211 
L 372.933771 177.268038 
L 388.188911 177.268038 
L 388.188911 163.179211 
L 395.976441 163.179211 
L 395.976441 198.975614 
L 388.188911 198.975614 
L 388.188911 183.323967 
L 372.933771 183.323967 
L 372.933771 198.975614 
L 365.146241 198.975614 
z
" clip-path="url(#pebaf7ee165)" style="fill: #00ffff"/>
   </g>
   <g id="patch_65">
    <path d="M 391.027312 148.63124 
Q 393.304847 152.03043 395.976441 154.044764 
L 393.698907 163.179211 
Q 392.302999 162.311929 390.967202 160.787189 
Q 390.673326 160.479444 386.852946 155.093897 
Q 383.847402 157.849618 380.193997 157.849618 
Q 373.140987 157.849618 369.140274 149.148812 
Q 365.146241 140.448006 365.146241 124.711018 
Q 365.146241 109.015995 369.153632 100.301201 
Q 373.161024 91.586406 380.027022 91.586406 
Q 386.832909 91.586406 390.820264 100.301201 
Q 394.807619 109.015995 394.807619 124.711018 
Q 394.807619 133.020148 393.698907 139.314943 
Q 392.864034 144.126964 391.027312 148.63124 
z
M 386.058147 141.329278 
Q 387.253685 138.391706 387.848115 134.25113 
Q 388.442545 130.096565 388.442545 124.711018 
Q 388.442545 113.61819 386.1049 108.134724 
Q 383.767254 102.637269 379.986948 102.637269 
Q 376.206642 102.637269 373.855639 108.148712 
Q 371.511315 113.660155 371.511315 124.711018 
Q 371.511315 135.94373 373.855639 141.525116 
Q 376.206642 147.092512 379.799936 147.092512 
Q 381.135734 147.092512 382.324593 146.183264 
Q 380.447798 143.595404 378.504213 142.154595 
L 380.24075 134.768702 
Q 383.286367 136.950898 386.058147 141.329278 
z
" clip-path="url(#pebaf7ee165)" style="fill: #0000ff"/>
   </g>
   <g id="patch_66">
    <path d="M 417.828084 24.477373 
L 425.986938 24.477373 
L 425.986938 155.37552 
Q 425.986938 181.013502 425.102029 194.87065 
Q 423.907403 212.925567 420.783677 223.848792 
Q 417.659952 234.772017 412.545182 234.772017 
Q 406.545505 234.772017 403.306741 217.664983 
Q 400.076826 200.512812 400.04143 167.336902 
L 407.757829 162.823173 
Q 407.899415 180.607266 408.784323 187.964645 
Q 410.111685 199.068419 412.819504 199.068419 
Q 415.562719 199.068419 416.695402 191.124255 
Q 417.828084 183.134954 417.828084 158.03862 
L 417.828084 24.477373 
z
" clip-path="url(#pebaf7ee165)" style="fill: #7b68ee"/>
   </g>
   <g id="patch_67">
    <path d="M 460.882127 234.772017 
L 454.135296 234.772017 
L 451.452659 215.96138 
L 439.166184 215.96138 
L 436.631092 234.772017 
L 430.051926 234.772017 
L 442.016485 151.994373 
L 448.582238 151.994373 
L 460.882127 234.772017 
z
M 449.460802 202.011513 
L 445.228943 171.292893 
L 441.077562 202.011513 
L 449.460802 202.011513 
z
" clip-path="url(#pebaf7ee165)" style="fill: #40e0d0"/>
   </g>
   <g id="patch_68">
    <path d="M 430.051926 151.994373 
L 430.051926 69.216729 
L 439.701605 69.216729 
L 445.491412 125.684779 
L 451.218514 69.216729 
L 460.882127 69.216729 
L 460.882127 151.994373 
L 454.897236 151.994373 
L 454.897236 86.83476 
L 448.557014 151.994373 
L 442.356137 151.994373 
L 436.043784 86.83476 
L 436.043784 151.994373 
L 430.051926 151.994373 
z
" clip-path="url(#pebaf7ee165)" style="fill: #ff8c00"/>
   </g>
   <g id="patch_69">
    <path d="M 488.385841 192.039225 
Q 490.663375 202.023906 493.33497 207.940754 
L 491.057435 234.772017 
Q 489.661527 232.224485 488.32573 227.745759 
Q 488.031855 226.841797 484.211474 211.022446 
Q 481.205931 219.117023 477.552525 219.117023 
Q 470.499516 219.117023 466.498803 193.559526 
Q 462.504769 168.002029 462.504769 121.776653 
Q 462.504769 75.674545 466.512161 50.075959 
Q 470.519553 24.477373 477.38555 24.477373 
Q 484.191437 24.477373 488.178792 50.075959 
Q 492.166147 75.674545 492.166147 121.776653 
Q 492.166147 146.183652 491.057435 164.673802 
Q 490.222562 178.808495 488.385841 192.039225 
z
M 483.416675 170.59065 
Q 484.612214 161.961913 485.206643 149.799503 
Q 485.801073 137.596004 485.801073 121.776653 
Q 485.801073 89.192899 483.463428 73.085924 
Q 481.125783 56.937859 477.345477 56.937859 
Q 473.56517 56.937859 471.214167 73.127013 
Q 468.869843 89.316167 468.869843 121.776653 
Q 468.869843 154.771299 471.214167 171.165899 
Q 473.56517 187.51941 477.158465 187.51941 
Q 478.494262 187.51941 479.683122 184.848611 
Q 477.806327 177.247104 475.862742 173.014914 
L 477.599278 151.319805 
Q 480.644896 157.729723 483.416675 170.59065 
z
" clip-path="url(#pebaf7ee165)" style="fill: #0000ff"/>
   </g>
   <g id="patch_70">
    <path d="M 518.858549 156.54969 
L 525.787813 169.157602 
Q 524.196477 202.453144 520.48851 218.61258 
Q 516.780543 234.772017 511.087268 234.772017 
Q 504.034406 234.772017 499.492146 207.11452 
Q 494.957612 179.412629 494.957612 131.422654 
Q 494.957612 80.635854 499.515321 52.578811 
Q 504.080756 24.477373 511.519864 24.477373 
Q 518.016532 24.477373 522.072121 46.496825 
Q 524.482299 59.548677 525.687388 83.965408 
L 518.619076 93.687706 
Q 517.985632 77.883422 515.9926 68.738247 
Q 514.007292 59.548677 511.156793 59.548677 
Q 507.224803 59.548677 504.768275 75.796902 
Q 502.319471 92.000732 502.319471 128.359464 
Q 502.319471 166.937899 504.72965 183.319306 
Q 507.147553 199.656318 511.010019 199.656318 
Q 513.860519 199.656318 515.907625 189.268109 
Q 517.962457 178.8799 518.858549 156.54969 
z
" clip-path="url(#pebaf7ee165)" style="fill: #00ff7f"/>
   </g>
   <g id="matplotlib.axis_1">
    <g id="xtick_1">
     <g id="line2d_2">
      <path d="M 56.032913 234.772017 
L 56.032913 24.477373 
" clip-path="url(#pebaf7ee165)" style="fill: none; stroke: #cccccc; stroke-width: 0.8; stroke-linecap: round"/>
     </g>
     <g id="text_1">
      <!-- 0 -->
      <g style="fill: #262626" transform="translate(52.140257 251.792954) scale(0.14 -0.14)">
       <defs>
        <path id="ArialMT-30" d="M 266 2259 
Q 266 3072 433 3567 
Q 600 4063 929 4331 
Q 1259 4600 1759 4600 
Q 2128 4600 2406 4451 
Q 2684 4303 2865 4023 
Q 3047 3744 3150 3342 
Q 3253 2941 3253 2259 
Q 3253 1453 3087 958 
Q 2922 463 2592 192 
Q 2263 -78 1759 -78 
Q 1097 -78 719 397 
Q 266 969 266 2259 
z
M 844 2259 
Q 844 1131 1108 757 
Q 1372 384 1759 384 
Q 2147 384 2411 759 
Q 2675 1134 2675 2259 
Q 2675 3391 2411 3762 
Q 2147 4134 1753 4134 
Q 1366 4134 1134 3806 
Q 844 3388 844 2259 
z
" transform="scale(0.015625)"/>
       </defs>
       <use xlink:href="#ArialMT-30"/>
      </g>
     </g>
    </g>
    <g id="xtick_2">
     <g id="line2d_3">
      <path d="M 88.485756 234.772017 
L 88.485756 24.477373 
" clip-path="url(#pebaf7ee165)" style="fill: none; stroke: #cccccc; stroke-width: 0.8; stroke-linecap: round"/>
     </g>
     <g id="text_2">
      <!-- 1 -->
      <g style="fill: #262626" transform="translate(84.593099 251.792954) scale(0.14 -0.14)">
       <defs>
        <path id="ArialMT-31" d="M 2384 0 
L 1822 0 
L 1822 3584 
Q 1619 3391 1289 3197 
Q 959 3003 697 2906 
L 697 3450 
Q 1169 3672 1522 3987 
Q 1875 4303 2022 4600 
L 2384 4600 
L 2384 0 
z
" transform="scale(0.015625)"/>
       </defs>
       <use xlink:href="#ArialMT-31"/>
      </g>
     </g>
    </g>
    <g id="xtick_3">
     <g id="line2d_4">
      <path d="M 120.938598 234.772017 
L 120.938598 24.477373 
" clip-path="url(#pebaf7ee165)" style="fill: none; stroke: #cccccc; stroke-width: 0.8; stroke-linecap: round"/>
     </g>
     <g id="text_3">
      <!-- 2 -->
      <g style="fill: #262626" transform="translate(117.045942 251.792954) scale(0.14 -0.14)">
       <defs>
        <path id="ArialMT-32" d="M 3222 541 
L 3222 0 
L 194 0 
Q 188 203 259 391 
Q 375 700 629 1000 
Q 884 1300 1366 1694 
Q 2113 2306 2375 2664 
Q 2638 3022 2638 3341 
Q 2638 3675 2398 3904 
Q 2159 4134 1775 4134 
Q 1369 4134 1125 3890 
Q 881 3647 878 3216 
L 300 3275 
Q 359 3922 746 4261 
Q 1134 4600 1788 4600 
Q 2447 4600 2831 4234 
Q 3216 3869 3216 3328 
Q 3216 3053 3103 2787 
Q 2991 2522 2730 2228 
Q 2469 1934 1863 1422 
Q 1356 997 1212 845 
Q 1069 694 975 541 
L 3222 541 
z
" transform="scale(0.015625)"/>
       </defs>
       <use xlink:href="#ArialMT-32"/>
      </g>
     </g>
    </g>
    <g id="xtick_4">
     <g id="line2d_5">
      <path d="M 153.391441 234.772017 
L 153.391441 24.477373 
" clip-path="url(#pebaf7ee165)" style="fill: none; stroke: #cccccc; stroke-width: 0.8; stroke-linecap: round"/>
     </g>
     <g id="text_4">
      <!-- 3 -->
      <g style="fill: #262626" transform="translate(149.498785 251.792954) scale(0.14 -0.14)">
       <defs>
        <path id="ArialMT-33" d="M 269 1209 
L 831 1284 
Q 928 806 1161 595 
Q 1394 384 1728 384 
Q 2125 384 2398 659 
Q 2672 934 2672 1341 
Q 2672 1728 2419 1979 
Q 2166 2231 1775 2231 
Q 1616 2231 1378 2169 
L 1441 2663 
Q 1497 2656 1531 2656 
Q 1891 2656 2178 2843 
Q 2466 3031 2466 3422 
Q 2466 3731 2256 3934 
Q 2047 4138 1716 4138 
Q 1388 4138 1169 3931 
Q 950 3725 888 3313 
L 325 3413 
Q 428 3978 793 4289 
Q 1159 4600 1703 4600 
Q 2078 4600 2393 4439 
Q 2709 4278 2876 4000 
Q 3044 3722 3044 3409 
Q 3044 3113 2884 2869 
Q 2725 2625 2413 2481 
Q 2819 2388 3044 2092 
Q 3269 1797 3269 1353 
Q 3269 753 2831 336 
Q 2394 -81 1725 -81 
Q 1122 -81 723 278 
Q 325 638 269 1209 
z
" transform="scale(0.015625)"/>
       </defs>
       <use xlink:href="#ArialMT-33"/>
      </g>
     </g>
    </g>
    <g id="xtick_5">
     <g id="line2d_6">
      <path d="M 185.844284 234.772017 
L 185.844284 24.477373 
" clip-path="url(#pebaf7ee165)" style="fill: none; stroke: #cccccc; stroke-width: 0.8; stroke-linecap: round"/>
     </g>
     <g id="text_5">
      <!-- 4 -->
      <g style="fill: #262626" transform="translate(181.951628 251.792954) scale(0.14 -0.14)">
       <defs>
        <path id="ArialMT-34" d="M 2069 0 
L 2069 1097 
L 81 1097 
L 81 1613 
L 2172 4581 
L 2631 4581 
L 2631 1613 
L 3250 1613 
L 3250 1097 
L 2631 1097 
L 2631 0 
L 2069 0 
z
M 2069 1613 
L 2069 3678 
L 634 1613 
L 2069 1613 
z
" transform="scale(0.015625)"/>
       </defs>
       <use xlink:href="#ArialMT-34"/>
      </g>
     </g>
    </g>
    <g id="xtick_6">
     <g id="line2d_7">
      <path d="M 218.297127 234.772017 
L 218.297127 24.477373 
" clip-path="url(#pebaf7ee165)" style="fill: none; stroke: #cccccc; stroke-width: 0.8; stroke-linecap: round"/>
     </g>
     <g id="text_6">
      <!-- 5 -->
      <g style="fill: #262626" transform="translate(214.404471 251.792954) scale(0.14 -0.14)">
       <defs>
        <path id="ArialMT-35" d="M 266 1200 
L 856 1250 
Q 922 819 1161 601 
Q 1400 384 1738 384 
Q 2144 384 2425 690 
Q 2706 997 2706 1503 
Q 2706 1984 2436 2262 
Q 2166 2541 1728 2541 
Q 1456 2541 1237 2417 
Q 1019 2294 894 2097 
L 366 2166 
L 809 4519 
L 3088 4519 
L 3088 3981 
L 1259 3981 
L 1013 2750 
Q 1425 3038 1878 3038 
Q 2478 3038 2890 2622 
Q 3303 2206 3303 1553 
Q 3303 931 2941 478 
Q 2500 -78 1738 -78 
Q 1113 -78 717 272 
Q 322 622 266 1200 
z
" transform="scale(0.015625)"/>
       </defs>
       <use xlink:href="#ArialMT-35"/>
      </g>
     </g>
    </g>
    <g id="xtick_7">
     <g id="line2d_8">
      <path d="M 250.74997 234.772017 
L 250.74997 24.477373 
" clip-path="url(#pebaf7ee165)" style="fill: none; stroke: #cccccc; stroke-width: 0.8; stroke-linecap: round"/>
     </g>
     <g id="text_7">
      <!-- 6 -->
      <g style="fill: #262626" transform="translate(246.857313 251.792954) scale(0.14 -0.14)">
       <defs>
        <path id="ArialMT-36" d="M 3184 3459 
L 2625 3416 
Q 2550 3747 2413 3897 
Q 2184 4138 1850 4138 
Q 1581 4138 1378 3988 
Q 1113 3794 959 3422 
Q 806 3050 800 2363 
Q 1003 2672 1297 2822 
Q 1591 2972 1913 2972 
Q 2475 2972 2870 2558 
Q 3266 2144 3266 1488 
Q 3266 1056 3080 686 
Q 2894 316 2569 119 
Q 2244 -78 1831 -78 
Q 1128 -78 684 439 
Q 241 956 241 2144 
Q 241 3472 731 4075 
Q 1159 4600 1884 4600 
Q 2425 4600 2770 4297 
Q 3116 3994 3184 3459 
z
M 888 1484 
Q 888 1194 1011 928 
Q 1134 663 1356 523 
Q 1578 384 1822 384 
Q 2178 384 2434 671 
Q 2691 959 2691 1453 
Q 2691 1928 2437 2201 
Q 2184 2475 1800 2475 
Q 1419 2475 1153 2201 
Q 888 1928 888 1484 
z
" transform="scale(0.015625)"/>
       </defs>
       <use xlink:href="#ArialMT-36"/>
      </g>
     </g>
    </g>
    <g id="xtick_8">
     <g id="line2d_9">
      <path d="M 283.202813 234.772017 
L 283.202813 24.477373 
" clip-path="url(#pebaf7ee165)" style="fill: none; stroke: #cccccc; stroke-width: 0.8; stroke-linecap: round"/>
     </g>
     <g id="text_8">
      <!-- 7 -->
      <g style="fill: #262626" transform="translate(279.310156 251.792954) scale(0.14 -0.14)">
       <defs>
        <path id="ArialMT-37" d="M 303 3981 
L 303 4522 
L 3269 4522 
L 3269 4084 
Q 2831 3619 2401 2847 
Q 1972 2075 1738 1259 
Q 1569 684 1522 0 
L 944 0 
Q 953 541 1156 1306 
Q 1359 2072 1739 2783 
Q 2119 3494 2547 3981 
L 303 3981 
z
" transform="scale(0.015625)"/>
       </defs>
       <use xlink:href="#ArialMT-37"/>
      </g>
     </g>
    </g>
    <g id="xtick_9">
     <g id="line2d_10">
      <path d="M 315.655655 234.772017 
L 315.655655 24.477373 
" clip-path="url(#pebaf7ee165)" style="fill: none; stroke: #cccccc; stroke-width: 0.8; stroke-linecap: round"/>
     </g>
     <g id="text_9">
      <!-- 8 -->
      <g style="fill: #262626" transform="translate(311.762999 251.792954) scale(0.14 -0.14)">
       <defs>
        <path id="ArialMT-38" d="M 1131 2484 
Q 781 2613 612 2850 
Q 444 3088 444 3419 
Q 444 3919 803 4259 
Q 1163 4600 1759 4600 
Q 2359 4600 2725 4251 
Q 3091 3903 3091 3403 
Q 3091 3084 2923 2848 
Q 2756 2613 2416 2484 
Q 2838 2347 3058 2040 
Q 3278 1734 3278 1309 
Q 3278 722 2862 322 
Q 2447 -78 1769 -78 
Q 1091 -78 675 323 
Q 259 725 259 1325 
Q 259 1772 486 2073 
Q 713 2375 1131 2484 
z
M 1019 3438 
Q 1019 3113 1228 2906 
Q 1438 2700 1772 2700 
Q 2097 2700 2305 2904 
Q 2513 3109 2513 3406 
Q 2513 3716 2298 3927 
Q 2084 4138 1766 4138 
Q 1444 4138 1231 3931 
Q 1019 3725 1019 3438 
z
M 838 1322 
Q 838 1081 952 856 
Q 1066 631 1291 507 
Q 1516 384 1775 384 
Q 2178 384 2440 643 
Q 2703 903 2703 1303 
Q 2703 1709 2433 1975 
Q 2163 2241 1756 2241 
Q 1359 2241 1098 1978 
Q 838 1716 838 1322 
z
" transform="scale(0.015625)"/>
       </defs>
       <use xlink:href="#ArialMT-38"/>
      </g>
     </g>
    </g>
    <g id="xtick_10">
     <g id="line2d_11">
      <path d="M 348.108498 234.772017 
L 348.108498 24.477373 
" clip-path="url(#pebaf7ee165)" style="fill: none; stroke: #cccccc; stroke-width: 0.8; stroke-linecap: round"/>
     </g>
     <g id="text_10">
      <!-- 9 -->
      <g style="fill: #262626" transform="translate(344.215842 251.792954) scale(0.14 -0.14)">
       <defs>
        <path id="ArialMT-39" d="M 350 1059 
L 891 1109 
Q 959 728 1153 556 
Q 1347 384 1650 384 
Q 1909 384 2104 503 
Q 2300 622 2425 820 
Q 2550 1019 2634 1356 
Q 2719 1694 2719 2044 
Q 2719 2081 2716 2156 
Q 2547 1888 2255 1720 
Q 1963 1553 1622 1553 
Q 1053 1553 659 1965 
Q 266 2378 266 3053 
Q 266 3750 677 4175 
Q 1088 4600 1706 4600 
Q 2153 4600 2523 4359 
Q 2894 4119 3086 3673 
Q 3278 3228 3278 2384 
Q 3278 1506 3087 986 
Q 2897 466 2520 194 
Q 2144 -78 1638 -78 
Q 1100 -78 759 220 
Q 419 519 350 1059 
z
M 2653 3081 
Q 2653 3566 2395 3850 
Q 2138 4134 1775 4134 
Q 1400 4134 1122 3828 
Q 844 3522 844 3034 
Q 844 2597 1108 2323 
Q 1372 2050 1759 2050 
Q 2150 2050 2401 2323 
Q 2653 2597 2653 3081 
z
" transform="scale(0.015625)"/>
       </defs>
       <use xlink:href="#ArialMT-39"/>
      </g>
     </g>
    </g>
    <g id="xtick_11">
     <g id="line2d_12">
      <path d="M 380.561341 234.772017 
L 380.561341 24.477373 
" clip-path="url(#pebaf7ee165)" style="fill: none; stroke: #cccccc; stroke-width: 0.8; stroke-linecap: round"/>
     </g>
     <g id="text_11">
      <!-- 10 -->
      <g style="fill: #262626" transform="translate(372.776028 251.792954) scale(0.14 -0.14)">
       <use xlink:href="#ArialMT-31"/>
       <use xlink:href="#ArialMT-30" transform="translate(55.615234 0)"/>
      </g>
     </g>
    </g>
    <g id="xtick_12">
     <g id="line2d_13">
      <path d="M 413.014184 234.772017 
L 413.014184 24.477373 
" clip-path="url(#pebaf7ee165)" style="fill: none; stroke: #cccccc; stroke-width: 0.8; stroke-linecap: round"/>
     </g>
     <g id="text_12">
      <!-- 11 -->
      <g style="fill: #262626" transform="translate(405.745121 251.792954) scale(0.14 -0.14)">
       <use xlink:href="#ArialMT-31"/>
       <use xlink:href="#ArialMT-31" transform="translate(48.240234 0)"/>
      </g>
     </g>
    </g>
    <g id="xtick_13">
     <g id="line2d_14">
      <path d="M 445.467027 234.772017 
L 445.467027 24.477373 
" clip-path="url(#pebaf7ee165)" style="fill: none; stroke: #cccccc; stroke-width: 0.8; stroke-linecap: round"/>
     </g>
     <g id="text_13">
      <!-- 12 -->
      <g style="fill: #262626" transform="translate(437.681714 251.792954) scale(0.14 -0.14)">
       <use xlink:href="#ArialMT-31"/>
       <use xlink:href="#ArialMT-32" transform="translate(55.615234 0)"/>
      </g>
     </g>
    </g>
    <g id="xtick_14">
     <g id="line2d_15">
      <path d="M 477.919869 234.772017 
L 477.919869 24.477373 
" clip-path="url(#pebaf7ee165)" style="fill: none; stroke: #cccccc; stroke-width: 0.8; stroke-linecap: round"/>
     </g>
     <g id="text_14">
      <!-- 13 -->
      <g style="fill: #262626" transform="translate(470.134557 251.792954) scale(0.14 -0.14)">
       <use xlink:href="#ArialMT-31"/>
       <use xlink:href="#ArialMT-33" transform="translate(55.615234 0)"/>
      </g>
     </g>
    </g>
    <g id="xtick_15">
     <g id="line2d_16">
      <path d="M 510.372712 234.772017 
L 510.372712 24.477373 
" clip-path="url(#pebaf7ee165)" style="fill: none; stroke: #cccccc; stroke-width: 0.8; stroke-linecap: round"/>
     </g>
     <g id="text_15">
      <!-- 14 -->
      <g style="fill: #262626" transform="translate(502.5874 251.792954) scale(0.14 -0.14)">
       <use xlink:href="#ArialMT-31"/>
       <use xlink:href="#ArialMT-34" transform="translate(55.615234 0)"/>
      </g>
     </g>
    </g>
    <g id="text_16">
     <!-- Original Position -->
     <g style="fill: #262626" transform="translate(224.955313 270.232954) scale(0.16 -0.16)">
      <defs>
       <path id="ArialMT-4f" d="M 309 2231 
Q 309 3372 921 4017 
Q 1534 4663 2503 4663 
Q 3138 4663 3647 4359 
Q 4156 4056 4423 3514 
Q 4691 2972 4691 2284 
Q 4691 1588 4409 1038 
Q 4128 488 3612 205 
Q 3097 -78 2500 -78 
Q 1853 -78 1343 234 
Q 834 547 571 1087 
Q 309 1628 309 2231 
z
M 934 2222 
Q 934 1394 1379 917 
Q 1825 441 2497 441 
Q 3181 441 3623 922 
Q 4066 1403 4066 2288 
Q 4066 2847 3877 3264 
Q 3688 3681 3323 3911 
Q 2959 4141 2506 4141 
Q 1863 4141 1398 3698 
Q 934 3256 934 2222 
z
" transform="scale(0.015625)"/>
       <path id="ArialMT-72" d="M 416 0 
L 416 3319 
L 922 3319 
L 922 2816 
Q 1116 3169 1280 3281 
Q 1444 3394 1641 3394 
Q 1925 3394 2219 3213 
L 2025 2691 
Q 1819 2813 1613 2813 
Q 1428 2813 1281 2702 
Q 1134 2591 1072 2394 
Q 978 2094 978 1738 
L 978 0 
L 416 0 
z
" transform="scale(0.015625)"/>
       <path id="ArialMT-69" d="M 425 3934 
L 425 4581 
L 988 4581 
L 988 3934 
L 425 3934 
z
M 425 0 
L 425 3319 
L 988 3319 
L 988 0 
L 425 0 
z
" transform="scale(0.015625)"/>
       <path id="ArialMT-67" d="M 319 -275 
L 866 -356 
Q 900 -609 1056 -725 
Q 1266 -881 1628 -881 
Q 2019 -881 2231 -725 
Q 2444 -569 2519 -288 
Q 2563 -116 2559 434 
Q 2191 0 1641 0 
Q 956 0 581 494 
Q 206 988 206 1678 
Q 206 2153 378 2554 
Q 550 2956 876 3175 
Q 1203 3394 1644 3394 
Q 2231 3394 2613 2919 
L 2613 3319 
L 3131 3319 
L 3131 450 
Q 3131 -325 2973 -648 
Q 2816 -972 2473 -1159 
Q 2131 -1347 1631 -1347 
Q 1038 -1347 672 -1080 
Q 306 -813 319 -275 
z
M 784 1719 
Q 784 1066 1043 766 
Q 1303 466 1694 466 
Q 2081 466 2343 764 
Q 2606 1063 2606 1700 
Q 2606 2309 2336 2618 
Q 2066 2928 1684 2928 
Q 1309 2928 1046 2623 
Q 784 2319 784 1719 
z
" transform="scale(0.015625)"/>
       <path id="ArialMT-6e" d="M 422 0 
L 422 3319 
L 928 3319 
L 928 2847 
Q 1294 3394 1984 3394 
Q 2284 3394 2536 3286 
Q 2788 3178 2913 3003 
Q 3038 2828 3088 2588 
Q 3119 2431 3119 2041 
L 3119 0 
L 2556 0 
L 2556 2019 
Q 2556 2363 2490 2533 
Q 2425 2703 2258 2804 
Q 2091 2906 1866 2906 
Q 1506 2906 1245 2678 
Q 984 2450 984 1813 
L 984 0 
L 422 0 
z
" transform="scale(0.015625)"/>
       <path id="ArialMT-61" d="M 2588 409 
Q 2275 144 1986 34 
Q 1697 -75 1366 -75 
Q 819 -75 525 192 
Q 231 459 231 875 
Q 231 1119 342 1320 
Q 453 1522 633 1644 
Q 813 1766 1038 1828 
Q 1203 1872 1538 1913 
Q 2219 1994 2541 2106 
Q 2544 2222 2544 2253 
Q 2544 2597 2384 2738 
Q 2169 2928 1744 2928 
Q 1347 2928 1158 2789 
Q 969 2650 878 2297 
L 328 2372 
Q 403 2725 575 2942 
Q 747 3159 1072 3276 
Q 1397 3394 1825 3394 
Q 2250 3394 2515 3294 
Q 2781 3194 2906 3042 
Q 3031 2891 3081 2659 
Q 3109 2516 3109 2141 
L 3109 1391 
Q 3109 606 3145 398 
Q 3181 191 3288 0 
L 2700 0 
Q 2613 175 2588 409 
z
M 2541 1666 
Q 2234 1541 1622 1453 
Q 1275 1403 1131 1340 
Q 988 1278 909 1158 
Q 831 1038 831 891 
Q 831 666 1001 516 
Q 1172 366 1500 366 
Q 1825 366 2078 508 
Q 2331 650 2450 897 
Q 2541 1088 2541 1459 
L 2541 1666 
z
" transform="scale(0.015625)"/>
       <path id="ArialMT-6c" d="M 409 0 
L 409 4581 
L 972 4581 
L 972 0 
L 409 0 
z
" transform="scale(0.015625)"/>
       <path id="ArialMT-20" transform="scale(0.015625)"/>
       <path id="ArialMT-50" d="M 494 0 
L 494 4581 
L 2222 4581 
Q 2678 4581 2919 4538 
Q 3256 4481 3484 4323 
Q 3713 4166 3852 3881 
Q 3991 3597 3991 3256 
Q 3991 2672 3619 2267 
Q 3247 1863 2275 1863 
L 1100 1863 
L 1100 0 
L 494 0 
z
M 1100 2403 
L 2284 2403 
Q 2872 2403 3119 2622 
Q 3366 2841 3366 3238 
Q 3366 3525 3220 3729 
Q 3075 3934 2838 4000 
Q 2684 4041 2272 4041 
L 1100 4041 
L 1100 2403 
z
" transform="scale(0.015625)"/>
       <path id="ArialMT-6f" d="M 213 1659 
Q 213 2581 725 3025 
Q 1153 3394 1769 3394 
Q 2453 3394 2887 2945 
Q 3322 2497 3322 1706 
Q 3322 1066 3130 698 
Q 2938 331 2570 128 
Q 2203 -75 1769 -75 
Q 1072 -75 642 372 
Q 213 819 213 1659 
z
M 791 1659 
Q 791 1022 1069 705 
Q 1347 388 1769 388 
Q 2188 388 2466 706 
Q 2744 1025 2744 1678 
Q 2744 2294 2464 2611 
Q 2184 2928 1769 2928 
Q 1347 2928 1069 2612 
Q 791 2297 791 1659 
z
" transform="scale(0.015625)"/>
       <path id="ArialMT-73" d="M 197 991 
L 753 1078 
Q 800 744 1014 566 
Q 1228 388 1613 388 
Q 2000 388 2187 545 
Q 2375 703 2375 916 
Q 2375 1106 2209 1216 
Q 2094 1291 1634 1406 
Q 1016 1563 777 1677 
Q 538 1791 414 1992 
Q 291 2194 291 2438 
Q 291 2659 392 2848 
Q 494 3038 669 3163 
Q 800 3259 1026 3326 
Q 1253 3394 1513 3394 
Q 1903 3394 2198 3281 
Q 2494 3169 2634 2976 
Q 2775 2784 2828 2463 
L 2278 2388 
Q 2241 2644 2061 2787 
Q 1881 2931 1553 2931 
Q 1166 2931 1000 2803 
Q 834 2675 834 2503 
Q 834 2394 903 2306 
Q 972 2216 1119 2156 
Q 1203 2125 1616 2013 
Q 2213 1853 2448 1751 
Q 2684 1650 2818 1456 
Q 2953 1263 2953 975 
Q 2953 694 2789 445 
Q 2625 197 2315 61 
Q 2006 -75 1616 -75 
Q 969 -75 630 194 
Q 291 463 197 991 
z
" transform="scale(0.015625)"/>
       <path id="ArialMT-74" d="M 1650 503 
L 1731 6 
Q 1494 -44 1306 -44 
Q 1000 -44 831 53 
Q 663 150 594 308 
Q 525 466 525 972 
L 525 2881 
L 113 2881 
L 113 3319 
L 525 3319 
L 525 4141 
L 1084 4478 
L 1084 3319 
L 1650 3319 
L 1650 2881 
L 1084 2881 
L 1084 941 
Q 1084 700 1114 631 
Q 1144 563 1211 522 
Q 1278 481 1403 481 
Q 1497 481 1650 503 
z
" transform="scale(0.015625)"/>
      </defs>
      <use xlink:href="#ArialMT-4f"/>
      <use xlink:href="#ArialMT-72" transform="translate(77.783203 0)"/>
      <use xlink:href="#ArialMT-69" transform="translate(111.083984 0)"/>
      <use xlink:href="#ArialMT-67" transform="translate(133.300781 0)"/>
      <use xlink:href="#ArialMT-69" transform="translate(188.916016 0)"/>
      <use xlink:href="#ArialMT-6e" transform="translate(211.132812 0)"/>
      <use xlink:href="#ArialMT-61" transform="translate(266.748047 0)"/>
      <use xlink:href="#ArialMT-6c" transform="translate(322.363281 0)"/>
      <use xlink:href="#ArialMT-20" transform="translate(344.580078 0)"/>
      <use xlink:href="#ArialMT-50" transform="translate(372.363281 0)"/>
      <use xlink:href="#ArialMT-6f" transform="translate(439.0625 0)"/>
      <use xlink:href="#ArialMT-73" transform="translate(494.677734 0)"/>
      <use xlink:href="#ArialMT-69" transform="translate(544.677734 0)"/>
      <use xlink:href="#ArialMT-74" transform="translate(566.894531 0)"/>
      <use xlink:href="#ArialMT-69" transform="translate(594.677734 0)"/>
      <use xlink:href="#ArialMT-6f" transform="translate(616.894531 0)"/>
      <use xlink:href="#ArialMT-6e" transform="translate(672.509766 0)"/>
     </g>
    </g>
   </g>
   <g id="matplotlib.axis_2">
    <g id="ytick_1">
     <g id="line2d_17">
      <path d="M 40.617813 234.772017 
L 525.787813 234.772017 
" clip-path="url(#pebaf7ee165)" style="fill: none; stroke: #cccccc; stroke-width: 0.8; stroke-linecap: round"/>
     </g>
     <g id="text_17">
      <!-- 0 -->
      <g style="fill: #262626" transform="translate(25.8325 239.782485) scale(0.14 -0.14)">
       <use xlink:href="#ArialMT-30"/>
      </g>
     </g>
    </g>
    <g id="ytick_2">
     <g id="line2d_18">
      <path d="M 40.617813 190.032661 
L 525.787813 190.032661 
" clip-path="url(#pebaf7ee165)" style="fill: none; stroke: #cccccc; stroke-width: 0.8; stroke-linecap: round"/>
     </g>
     <g id="text_18">
      <!-- 1 -->
      <g style="fill: #262626" transform="translate(25.8325 195.04313) scale(0.14 -0.14)">
       <use xlink:href="#ArialMT-31"/>
      </g>
     </g>
    </g>
    <g id="ytick_3">
     <g id="line2d_19">
      <path d="M 40.617813 145.293306 
L 525.787813 145.293306 
" clip-path="url(#pebaf7ee165)" style="fill: none; stroke: #cccccc; stroke-width: 0.8; stroke-linecap: round"/>
     </g>
     <g id="text_19">
      <!-- 2 -->
      <g style="fill: #262626" transform="translate(25.8325 150.303774) scale(0.14 -0.14)">
       <use xlink:href="#ArialMT-32"/>
      </g>
     </g>
    </g>
    <g id="ytick_4">
     <g id="line2d_20">
      <path d="M 40.617813 100.55395 
L 525.787813 100.55395 
" clip-path="url(#pebaf7ee165)" style="fill: none; stroke: #cccccc; stroke-width: 0.8; stroke-linecap: round"/>
     </g>
     <g id="text_20">
      <!-- 3 -->
      <g style="fill: #262626" transform="translate(25.8325 105.564419) scale(0.14 -0.14)">
       <use xlink:href="#ArialMT-33"/>
      </g>
     </g>
    </g>
    <g id="ytick_5">
     <g id="line2d_21">
      <path d="M 40.617813 55.814595 
L 525.787813 55.814595 
" clip-path="url(#pebaf7ee165)" style="fill: none; stroke: #cccccc; stroke-width: 0.8; stroke-linecap: round"/>
     </g>
     <g id="text_21">
      <!-- 4 -->
      <g style="fill: #262626" transform="translate(25.8325 60.825063) scale(0.14 -0.14)">
       <use xlink:href="#ArialMT-34"/>
      </g>
     </g>
    </g>
    <g id="text_22">
     <!-- Information Content -->
     <g style="fill: #262626" transform="translate(18.6525 199.880945) rotate(-90) scale(0.16 -0.16)">
      <defs>
       <path id="ArialMT-49" d="M 597 0 
L 597 4581 
L 1203 4581 
L 1203 0 
L 597 0 
z
" transform="scale(0.015625)"/>
       <path id="ArialMT-66" d="M 556 0 
L 556 2881 
L 59 2881 
L 59 3319 
L 556 3319 
L 556 3672 
Q 556 4006 616 4169 
Q 697 4388 901 4523 
Q 1106 4659 1475 4659 
Q 1713 4659 2000 4603 
L 1916 4113 
Q 1741 4144 1584 4144 
Q 1328 4144 1222 4034 
Q 1116 3925 1116 3625 
L 1116 3319 
L 1763 3319 
L 1763 2881 
L 1116 2881 
L 1116 0 
L 556 0 
z
" transform="scale(0.015625)"/>
       <path id="ArialMT-6d" d="M 422 0 
L 422 3319 
L 925 3319 
L 925 2853 
Q 1081 3097 1340 3245 
Q 1600 3394 1931 3394 
Q 2300 3394 2536 3241 
Q 2772 3088 2869 2813 
Q 3263 3394 3894 3394 
Q 4388 3394 4653 3120 
Q 4919 2847 4919 2278 
L 4919 0 
L 4359 0 
L 4359 2091 
Q 4359 2428 4304 2576 
Q 4250 2725 4106 2815 
Q 3963 2906 3769 2906 
Q 3419 2906 3187 2673 
Q 2956 2441 2956 1928 
L 2956 0 
L 2394 0 
L 2394 2156 
Q 2394 2531 2256 2718 
Q 2119 2906 1806 2906 
Q 1569 2906 1367 2781 
Q 1166 2656 1075 2415 
Q 984 2175 984 1722 
L 984 0 
L 422 0 
z
" transform="scale(0.015625)"/>
       <path id="ArialMT-43" d="M 3763 1606 
L 4369 1453 
Q 4178 706 3683 314 
Q 3188 -78 2472 -78 
Q 1731 -78 1267 223 
Q 803 525 561 1097 
Q 319 1669 319 2325 
Q 319 3041 592 3573 
Q 866 4106 1370 4382 
Q 1875 4659 2481 4659 
Q 3169 4659 3637 4309 
Q 4106 3959 4291 3325 
L 3694 3184 
Q 3534 3684 3231 3912 
Q 2928 4141 2469 4141 
Q 1941 4141 1586 3887 
Q 1231 3634 1087 3207 
Q 944 2781 944 2328 
Q 944 1744 1114 1308 
Q 1284 872 1643 656 
Q 2003 441 2422 441 
Q 2931 441 3284 734 
Q 3638 1028 3763 1606 
z
" transform="scale(0.015625)"/>
       <path id="ArialMT-65" d="M 2694 1069 
L 3275 997 
Q 3138 488 2766 206 
Q 2394 -75 1816 -75 
Q 1088 -75 661 373 
Q 234 822 234 1631 
Q 234 2469 665 2931 
Q 1097 3394 1784 3394 
Q 2450 3394 2872 2941 
Q 3294 2488 3294 1666 
Q 3294 1616 3291 1516 
L 816 1516 
Q 847 969 1125 678 
Q 1403 388 1819 388 
Q 2128 388 2347 550 
Q 2566 713 2694 1069 
z
M 847 1978 
L 2700 1978 
Q 2663 2397 2488 2606 
Q 2219 2931 1791 2931 
Q 1403 2931 1139 2672 
Q 875 2413 847 1978 
z
" transform="scale(0.015625)"/>
      </defs>
      <use xlink:href="#ArialMT-49"/>
      <use xlink:href="#ArialMT-6e" transform="translate(27.783203 0)"/>
      <use xlink:href="#ArialMT-66" transform="translate(83.398438 0)"/>
      <use xlink:href="#ArialMT-6f" transform="translate(111.181641 0)"/>
      <use xlink:href="#ArialMT-72" transform="translate(166.796875 0)"/>
      <use xlink:href="#ArialMT-6d" transform="translate(200.097656 0)"/>
      <use xlink:href="#ArialMT-61" transform="translate(283.398438 0)"/>
      <use xlink:href="#ArialMT-74" transform="translate(339.013672 0)"/>
      <use xlink:href="#ArialMT-69" transform="translate(366.796875 0)"/>
      <use xlink:href="#ArialMT-6f" transform="translate(389.013672 0)"/>
      <use xlink:href="#ArialMT-6e" transform="translate(444.628906 0)"/>
      <use xlink:href="#ArialMT-20" transform="translate(500.244141 0)"/>
      <use xlink:href="#ArialMT-43" transform="translate(528.027344 0)"/>
      <use xlink:href="#ArialMT-6f" transform="translate(600.244141 0)"/>
      <use xlink:href="#ArialMT-6e" transform="translate(655.859375 0)"/>
      <use xlink:href="#ArialMT-74" transform="translate(711.474609 0)"/>
      <use xlink:href="#ArialMT-65" transform="translate(739.257812 0)"/>
      <use xlink:href="#ArialMT-6e" transform="translate(794.873047 0)"/>
      <use xlink:href="#ArialMT-74" transform="translate(850.488281 0)"/>
     </g>
    </g>
   </g>
   <g id="patch_71">
    <path d="M 40.617813 234.772017 
L 40.617813 24.477373 
" style="fill: none; stroke: #cccccc; stroke-width: 0.8; stroke-linejoin: miter; stroke-linecap: square"/>
   </g>
   <g id="patch_72">
    <path d="M 525.787813 234.772017 
L 525.787813 24.477373 
" style="fill: none; stroke: #cccccc; stroke-width: 0.8; stroke-linejoin: miter; stroke-linecap: square"/>
   </g>
   <g id="patch_73">
    <path d="M 40.617813 234.772017 
L 525.787813 234.772017 
" style="fill: none; stroke: #cccccc; stroke-width: 0.8; stroke-linejoin: miter; stroke-linecap: square"/>
   </g>
   <g id="patch_74">
    <path d="M 40.617813 24.477373 
L 525.787813 24.477373 
" style="fill: none; stroke: #cccccc; stroke-width: 0.8; stroke-linejoin: miter; stroke-linecap: square"/>
   </g>
   <g id="text_23">
    <!-- 19 -->
    <g style="fill: #000080; opacity: 0.6" transform="translate(48.2476 17.220937) scale(0.14 -0.14)">
     <defs>
      <path id="Arial-ItalicMT-31" d="M 1541 0 
L 2266 3459 
Q 1797 3091 947 2869 
L 1053 3381 
Q 1475 3550 1886 3822 
Q 2297 4094 2503 4297 
Q 2628 4422 2741 4600 
L 3069 4600 
L 2109 0 
L 1541 0 
z
" transform="scale(0.015625)"/>
      <path id="Arial-ItalicMT-39" d="M 431 1050 
L 963 1103 
Q 1016 719 1181 556 
Q 1347 394 1575 394 
Q 1900 394 2178 675 
Q 2588 1088 2781 1859 
Q 2497 1647 2276 1556 
Q 2056 1466 1825 1466 
Q 1406 1466 1075 1747 
Q 638 2113 638 2797 
Q 638 3572 1144 4125 
Q 1578 4600 2209 4600 
Q 2778 4600 3153 4179 
Q 3528 3759 3528 2991 
Q 3528 2244 3278 1516 
Q 2981 659 2475 253 
Q 2063 -78 1547 -78 
Q 1072 -78 770 217 
Q 469 513 431 1050 
z
M 1184 2863 
Q 1184 2431 1414 2175 
Q 1644 1919 1959 1919 
Q 2194 1919 2425 2078 
Q 2656 2238 2822 2555 
Q 2988 2872 2988 3206 
Q 2988 3469 2878 3694 
Q 2769 3919 2580 4033 
Q 2391 4147 2197 4147 
Q 2009 4147 1828 4047 
Q 1647 3947 1492 3753 
Q 1338 3559 1261 3307 
Q 1184 3056 1184 2863 
z
" transform="scale(0.015625)"/>
     </defs>
     <use xlink:href="#Arial-ItalicMT-31"/>
     <use xlink:href="#Arial-ItalicMT-39" transform="translate(55.615234 0)"/>
    </g>
   </g>
   <g id="text_24">
    <!-- 19 -->
    <g style="fill: #000080; opacity: 0.6" transform="translate(80.700443 17.220937) scale(0.14 -0.14)">
     <use xlink:href="#Arial-ItalicMT-31"/>
     <use xlink:href="#Arial-ItalicMT-39" transform="translate(55.615234 0)"/>
    </g>
   </g>
   <g id="text_25">
    <!-- 19 -->
    <g style="fill: #000080; opacity: 0.6" transform="translate(113.153286 17.220937) scale(0.14 -0.14)">
     <use xlink:href="#Arial-ItalicMT-31"/>
     <use xlink:href="#Arial-ItalicMT-39" transform="translate(55.615234 0)"/>
    </g>
   </g>
   <g id="text_26">
    <!-- 19 -->
    <g style="fill: #000080; opacity: 0.6" transform="translate(145.606129 17.220937) scale(0.14 -0.14)">
     <use xlink:href="#Arial-ItalicMT-31"/>
     <use xlink:href="#Arial-ItalicMT-39" transform="translate(55.615234 0)"/>
    </g>
   </g>
   <g id="text_27">
    <!-- 19 -->
    <g style="fill: #000080; opacity: 0.6" transform="translate(178.058972 17.220937) scale(0.14 -0.14)">
     <use xlink:href="#Arial-ItalicMT-31"/>
     <use xlink:href="#Arial-ItalicMT-39" transform="translate(55.615234 0)"/>
    </g>
   </g>
   <g id="text_28">
    <!-- 17 -->
    <g style="fill: #000080; opacity: 0.6" transform="translate(210.511814 17.220937) scale(0.14 -0.14)">
     <defs>
      <path id="Arial-ItalicMT-37" d="M 928 0 
Q 1003 463 1247 1113 
Q 1538 1897 2009 2670 
Q 2481 3444 3059 4000 
L 775 4000 
L 884 4519 
L 3809 4519 
L 3703 4000 
Q 2959 3347 2403 2316 
Q 1756 1125 1519 0 
L 928 0 
z
" transform="scale(0.015625)"/>
     </defs>
     <use xlink:href="#Arial-ItalicMT-31"/>
     <use xlink:href="#Arial-ItalicMT-37" transform="translate(55.615234 0)"/>
    </g>
   </g>
   <g id="text_29">
    <!-- 14 -->
    <g style="fill: #000080; opacity: 0.6" transform="translate(242.964657 17.220937) scale(0.14 -0.14)">
     <defs>
      <path id="Arial-ItalicMT-34" d="M 1913 0 
L 2159 1169 
L 291 1169 
L 409 1728 
L 2975 4581 
L 3438 4581 
L 2828 1669 
L 3472 1669 
L 3369 1169 
L 2725 1169 
L 2478 0 
L 1913 0 
z
M 2263 1669 
L 2663 3581 
L 956 1669 
L 2263 1669 
z
" transform="scale(0.015625)"/>
     </defs>
     <use xlink:href="#Arial-ItalicMT-31"/>
     <use xlink:href="#Arial-ItalicMT-34" transform="translate(55.615234 0)"/>
    </g>
   </g>
   <g id="text_30">
    <!-- 12 -->
    <g style="fill: #000080; opacity: 0.6" transform="translate(275.4175 17.220937) scale(0.14 -0.14)">
     <defs>
      <path id="Arial-ItalicMT-32" d="M 375 0 
Q 463 409 617 686 
Q 772 963 1028 1211 
Q 1284 1459 2016 2044 
Q 2459 2397 2622 2566 
Q 2856 2809 2963 3044 
Q 3034 3203 3034 3391 
Q 3034 3706 2811 3926 
Q 2588 4147 2263 4147 
Q 1941 4147 1700 3923 
Q 1459 3700 1356 3206 
L 803 3288 
Q 884 3897 1276 4248 
Q 1669 4600 2253 4600 
Q 2644 4600 2961 4437 
Q 3278 4275 3437 3981 
Q 3597 3688 3597 3375 
Q 3597 2919 3272 2497 
Q 3072 2234 2097 1463 
Q 1678 1131 1473 918 
Q 1269 706 1166 519 
L 3216 519 
L 3106 0 
L 375 0 
z
" transform="scale(0.015625)"/>
     </defs>
     <use xlink:href="#Arial-ItalicMT-31"/>
     <use xlink:href="#Arial-ItalicMT-32" transform="translate(55.615234 0)"/>
    </g>
   </g>
   <g id="text_31">
    <!-- 8 -->
    <g style="fill: #000080; opacity: 0.6" transform="translate(311.762999 17.220937) scale(0.14 -0.14)">
     <defs>
      <path id="Arial-ItalicMT-38" d="M 1444 2519 
Q 1188 2659 1059 2879 
Q 931 3100 931 3353 
Q 931 3769 1231 4122 
Q 1631 4600 2316 4600 
Q 2919 4600 3266 4276 
Q 3613 3953 3613 3484 
Q 3613 3150 3425 2881 
Q 3238 2613 2838 2453 
Q 3113 2281 3231 2088 
Q 3384 1834 3384 1497 
Q 3384 881 2948 400 
Q 2513 -81 1788 -81 
Q 1209 -81 843 275 
Q 478 631 478 1166 
Q 478 1669 737 2030 
Q 997 2391 1444 2519 
z
M 1488 3328 
Q 1488 3034 1677 2854 
Q 1866 2675 2197 2675 
Q 2584 2675 2826 2911 
Q 3069 3147 3069 3491 
Q 3069 3781 2880 3964 
Q 2691 4147 2359 4147 
Q 2109 4147 1900 4031 
Q 1691 3916 1589 3717 
Q 1488 3519 1488 3328 
z
M 1047 1119 
Q 1047 928 1139 753 
Q 1231 578 1418 475 
Q 1606 372 1847 372 
Q 2306 372 2591 803 
Q 2816 1141 2816 1531 
Q 2816 1850 2608 2053 
Q 2400 2256 2063 2256 
Q 1638 2256 1342 1940 
Q 1047 1625 1047 1119 
z
" transform="scale(0.015625)"/>
     </defs>
     <use xlink:href="#Arial-ItalicMT-38"/>
    </g>
   </g>
   <g id="text_32">
    <!-- 6 -->
    <g style="fill: #000080; opacity: 0.6" transform="translate(344.215842 17.220937) scale(0.14 -0.14)">
     <defs>
      <path id="Arial-ItalicMT-36" d="M 1288 2656 
Q 1525 2853 1761 2951 
Q 1997 3050 2228 3050 
Q 2750 3050 3090 2694 
Q 3431 2338 3431 1734 
Q 3431 956 2925 400 
Q 2488 -78 1863 -78 
Q 1294 -78 914 339 
Q 534 756 534 1528 
Q 534 2219 778 2956 
Q 966 3522 1242 3889 
Q 1519 4256 1830 4428 
Q 2141 4600 2531 4600 
Q 3000 4600 3297 4308 
Q 3594 4016 3634 3472 
L 3109 3422 
Q 3066 3794 2898 3959 
Q 2731 4125 2491 4125 
Q 2238 4125 1981 3928 
Q 1725 3731 1540 3345 
Q 1356 2959 1288 2656 
z
M 1091 1288 
Q 1091 900 1331 636 
Q 1572 372 1875 372 
Q 2088 372 2325 533 
Q 2563 694 2728 1022 
Q 2894 1350 2894 1675 
Q 2894 2094 2664 2345 
Q 2434 2597 2109 2597 
Q 1734 2597 1412 2230 
Q 1091 1863 1091 1288 
z
" transform="scale(0.015625)"/>
     </defs>
     <use xlink:href="#Arial-ItalicMT-36"/>
    </g>
   </g>
   <g id="text_33">
    <!-- 4 -->
    <g style="fill: #000080; opacity: 0.6" transform="translate(376.668685 17.220937) scale(0.14 -0.14)">
     <use xlink:href="#Arial-ItalicMT-34"/>
    </g>
   </g>
   <g id="text_34">
    <!-- 3 -->
    <g style="fill: #000080; opacity: 0.6" transform="translate(409.121527 17.220937) scale(0.14 -0.14)">
     <defs>
      <path id="Arial-ItalicMT-33" d="M 350 1200 
L 900 1269 
Q 963 788 1177 580 
Q 1391 372 1738 372 
Q 2156 372 2461 672 
Q 2766 972 2766 1359 
Q 2766 1697 2537 1917 
Q 2309 2138 1925 2138 
Q 1881 2138 1744 2125 
L 1841 2597 
Q 1922 2584 1997 2584 
Q 2481 2584 2742 2820 
Q 3003 3056 3003 3400 
Q 3003 3716 2789 3931 
Q 2575 4147 2266 4147 
Q 1963 4147 1720 3926 
Q 1478 3706 1409 3303 
L 853 3416 
Q 991 3981 1381 4290 
Q 1772 4600 2306 4600 
Q 2869 4600 3217 4259 
Q 3566 3919 3566 3422 
Q 3566 3059 3377 2789 
Q 3188 2519 2809 2341 
Q 3078 2181 3211 1956 
Q 3344 1731 3344 1441 
Q 3344 825 2883 373 
Q 2422 -78 1781 -78 
Q 1159 -78 776 270 
Q 394 619 350 1200 
z
" transform="scale(0.015625)"/>
     </defs>
     <use xlink:href="#Arial-ItalicMT-33"/>
    </g>
   </g>
   <g id="text_35">
    <!-- 2 -->
    <g style="fill: #000080; opacity: 0.6" transform="translate(441.57437 17.220937) scale(0.14 -0.14)">
     <use xlink:href="#Arial-ItalicMT-32"/>
    </g>
   </g>
   <g id="text_36">
    <!-- 1 -->
    <g style="fill: #000080; opacity: 0.6" transform="translate(474.027213 17.220937) scale(0.14 -0.14)">
     <use xlink:href="#Arial-ItalicMT-31"/>
    </g>
   </g>
   <g id="text_37">
    <!-- 1 -->
    <g style="fill: #000080; opacity: 0.6" transform="translate(506.480056 17.220937) scale(0.14 -0.14)">
     <use xlink:href="#Arial-ItalicMT-31"/>
    </g>
   </g>
  </g>
 </g>
 <defs>
  <clipPath id="pebaf7ee165">
   <rect x="40.617813" y="24.477373" width="485.17" height="210.294644"/>
  </clipPath>
 </defs>
</svg>
