<?xml version="1.0" encoding="utf-8" standalone="no"?>
<!DOCTYPE svg PUBLIC "-//W3C//DTD SVG 1.1//EN"
  "http://www.w3.org/Graphics/SVG/1.1/DTD/svg11.dtd">
<svg xmlns:xlink="http://www.w3.org/1999/xlink" width="460.987812pt" height="280.800454pt" viewBox="0 0 460.987812 280.800454" xmlns="http://www.w3.org/2000/svg" version="1.1">
 <metadata>
  <rdf:RDF xmlns:dc="http://purl.org/dc/elements/1.1/" xmlns:cc="http://creativecommons.org/ns#" xmlns:rdf="http://www.w3.org/1999/02/22-rdf-syntax-ns#">
   <cc:Work>
    <dc:type rdf:resource="http://purl.org/dc/dcmitype/StillImage"/>
    <dc:date>2025-05-09T14:59:11.028133</dc:date>
    <dc:format>image/svg+xml</dc:format>
    <dc:creator>
     <cc:Agent>
      <dc:title>Matplotlib v3.10.1, https://matplotlib.org/</dc:title>
     </cc:Agent>
    </dc:creator>
   </cc:Work>
  </rdf:RDF>
 </metadata>
 <defs>
  <style type="text/css">*{stroke-linejoin: round; stroke-linecap: butt}</style>
 </defs>
 <g id="figure_1">
  <g id="patch_1">
   <path d="M 0 280.800454 
L 460.987812 280.800454 
L 460.987812 0 
L 0 0 
z
" style="fill: #ffffff"/>
  </g>
  <g id="axes_1">
   <g id="patch_2">
    <path d="M 40.617813 234.772017 
L 453.787812 234.772017 
L 453.787812 24.477373 
L 40.617813 24.477373 
z
" style="fill: #ffffff"/>
   </g>
   <g id="line2d_1">
    <path d="M 40.617813 234.772017 
L 453.787812 234.772017 
" clip-path="url(#p12ebafc2b1)" style="fill: none; stroke: #000000; stroke-width: 0.5; stroke-linecap: round"/>
   </g>
   <g id="patch_3">
    <path d="M 40.617812 234.772017 
L 40.617812 208.511504 
L 50.104599 208.511504 
L 55.79667 226.425519 
L 61.427095 208.511504 
L 70.927581 208.511504 
L 70.927581 234.772017 
L 65.043718 234.772017 
L 65.043718 214.100677 
L 58.810523 234.772017 
L 52.714321 234.772017 
L 46.508525 214.100677 
L 46.508525 234.772017 
L 40.617812 234.772017 
z
" clip-path="url(#p12ebafc2b1)" style="fill: #ff8c00"/>
   </g>
   <g id="patch_4">
    <path d="M 51.749084 208.511504 
L 51.749084 50.948432 
L 59.79631 50.948432 
L 59.79631 208.511504 
L 51.749084 208.511504 
z
" clip-path="url(#p12ebafc2b1)" style="fill: #add8e6"/>
   </g>
   <g id="patch_5">
    <path d="M 72.522832 234.772017 
L 72.522832 213.542194 
L 85.341212 213.542194 
Q 92.63145 213.542194 94.842707 213.857328 
Q 98.245969 214.339297 100.534966 215.938138 
Q 102.8326 217.536978 102.8326 220.071952 
Q 102.8326 222.027635 101.511029 223.362319 
Q 100.189457 224.692369 98.150955 225.452398 
Q 96.112452 226.212426 94.004848 226.458045 
Q 91.145762 226.763911 85.721272 226.763911 
L 80.512725 226.763911 
L 80.512725 234.772017 
L 72.522832 234.772017 
z
M 80.512725 217.133792 
L 80.512725 223.158409 
L 84.883413 223.158409 
Q 89.608247 223.158409 91.197588 222.824738 
Q 92.795567 222.491067 93.69389 221.782016 
Q 94.600851 221.072965 94.600851 220.132198 
Q 94.600851 218.973618 93.331105 218.222858 
Q 92.06136 217.467463 90.117873 217.277456 
Q 88.692648 217.133792 84.373787 217.133792 
L 80.512725 217.133792 
z
" clip-path="url(#p12ebafc2b1)" style="fill: #f0fff0"/>
   </g>
   <g id="patch_6">
    <path d="M 72.522832 213.542194 
L 83.66749 191.380873 
L 73.568978 171.082549 
L 81.262065 171.082549 
L 87.802257 184.725988 
L 94.207233 171.082549 
L 101.836271 171.082549 
L 91.695059 191.705275 
L 102.8326 213.542194 
L 94.897547 213.542194 
L 87.667041 198.860666 
L 80.415185 213.542194 
L 72.522832 213.542194 
z
" clip-path="url(#p12ebafc2b1)" style="fill: #bdb76b"/>
   </g>
   <g id="patch_7">
    <path d="M 88.728125 139.495512 
L 88.728125 125.656016 
L 102.8326 125.656016 
L 102.8326 158.372442 
Q 100.774224 163.409875 96.869675 167.246212 
Q 92.972199 171.082549 88.968622 171.082549 
Q 83.889879 171.082549 80.105579 165.686579 
Q 76.328352 160.272683 74.425592 150.215744 
Q 72.522832 140.158804 72.522832 128.345038 
Q 72.522832 115.509443 74.644869 105.542138 
Q 76.766907 95.574832 80.855366 90.25057 
Q 83.974761 86.163258 88.614949 86.163258 
Q 94.648609 86.163258 98.043869 92.581055 
Q 101.439129 98.980926 102.408193 110.292742 
L 95.914758 113.376153 
Q 95.228633 107.334818 93.332946 103.839091 
Q 91.444332 100.325436 88.614949 100.325436 
Q 84.328434 100.325436 81.796135 107.227258 
Q 79.263837 114.111152 79.263837 127.663819 
Q 79.263837 142.292095 81.824429 149.606232 
Q 84.392095 156.902443 88.551288 156.902443 
Q 90.609664 156.902443 92.675114 154.858787 
Q 94.740564 152.815131 96.218917 149.910988 
L 96.218917 139.495512 
L 88.728125 139.495512 
z
" clip-path="url(#p12ebafc2b1)" style="fill: #ff69b4"/>
   </g>
   <g id="patch_8">
    <path d="M 104.427851 234.772017 
L 104.427851 213.542194 
L 111.214715 213.542194 
L 111.214715 222.968402 
L 124.927849 213.542194 
L 134.055264 213.542194 
L 121.39868 221.809822 
L 134.737619 234.772017 
L 125.962388 234.772017 
L 116.717578 224.808227 
L 111.214715 228.358117 
L 111.214715 234.772017 
L 104.427851 234.772017 
z
" clip-path="url(#p12ebafc2b1)" style="fill: #6495ed"/>
   </g>
   <g id="patch_9">
    <path d="M 129.872035 204.914208 
Q 132.111123 206.93017 134.737619 208.124814 
L 132.498531 213.542194 
Q 131.126187 213.027833 129.812939 212.123554 
Q 129.524024 211.941039 125.768134 208.747025 
Q 122.813326 210.381365 119.221592 210.381365 
Q 112.287642 210.381365 108.354463 205.221165 
Q 104.427851 200.060966 104.427851 190.727808 
Q 104.427851 181.419539 108.367596 176.251044 
Q 112.30734 171.082549 119.057436 171.082549 
Q 125.748436 171.082549 129.668481 176.251044 
Q 133.588527 181.419539 133.588527 190.727808 
Q 133.588527 195.655716 132.498531 199.388979 
Q 131.677751 202.242851 129.872035 204.914208 
z
M 124.986752 200.583623 
Q 126.162109 198.841434 126.746504 196.385776 
Q 127.3309 193.921822 127.3309 190.727808 
Q 127.3309 184.148969 125.032715 180.896882 
Q 122.734531 177.636499 119.018039 177.636499 
Q 115.301546 177.636499 112.990229 180.905179 
Q 110.685479 184.173858 110.685479 190.727808 
Q 110.685479 197.389609 112.990229 200.699769 
Q 115.301546 204.001633 118.834184 204.001633 
Q 120.147432 204.001633 121.316223 203.462384 
Q 119.471109 201.927598 117.560333 201.073095 
L 119.267556 196.692733 
Q 122.261762 197.986931 124.986752 200.583623 
z
" clip-path="url(#p12ebafc2b1)" style="fill: #0000ff"/>
   </g>
   <g id="patch_10">
    <path d="M 104.427851 171.082549 
L 104.427851 86.163258 
L 113.914637 86.163258 
L 119.606709 144.092265 
L 125.237134 86.163258 
L 134.737619 86.163258 
L 134.737619 171.082549 
L 128.853757 171.082549 
L 128.853757 104.237108 
L 122.620562 171.082549 
L 116.52436 171.082549 
L 110.318563 104.237108 
L 110.318563 171.082549 
L 104.427851 171.082549 
z
" clip-path="url(#p12ebafc2b1)" style="fill: #ff8c00"/>
   </g>
   <g id="patch_11">
    <path d="M 136.33287 234.772017 
L 136.33287 213.542194 
L 143.988942 213.542194 
L 143.988942 221.897874 
L 158.986567 221.897874 
L 158.986567 213.542194 
L 166.642639 213.542194 
L 166.642639 234.772017 
L 158.986567 234.772017 
L 158.986567 225.489472 
L 143.988942 225.489472 
L 143.988942 234.772017 
L 136.33287 234.772017 
z
" clip-path="url(#p12ebafc2b1)" style="fill: #00ffff"/>
   </g>
   <g id="patch_12">
    <path d="M 147.649072 213.542194 
L 147.649072 178.265745 
L 136.33287 178.265745 
L 136.33287 171.082549 
L 166.642639 171.082549 
L 166.642639 178.265745 
L 155.351417 178.265745 
L 155.351417 213.542194 
L 147.649072 213.542194 
z
" clip-path="url(#p12ebafc2b1)" style="fill: #a0522d"/>
   </g>
   <g id="patch_13">
    <path d="M 161.777054 153.826577 
Q 164.016142 157.858501 166.642639 160.24779 
L 164.403551 171.082549 
Q 163.031206 170.053827 161.717958 168.245269 
Q 161.429043 167.880238 157.673154 161.492211 
Q 154.718345 164.76089 151.126611 164.76089 
Q 144.192661 164.76089 140.259483 154.440491 
Q 136.33287 144.120093 136.33287 125.453778 
Q 136.33287 106.837239 140.272615 96.500249 
Q 144.21236 86.163258 150.962455 86.163258 
Q 157.653455 86.163258 161.573501 96.500249 
Q 165.493547 106.837239 165.493547 125.453778 
Q 165.493547 135.309592 164.403551 142.776118 
Q 163.58277 148.483863 161.777054 153.826577 
z
M 156.891771 145.165407 
Q 158.067128 141.681028 158.651523 136.769713 
Q 159.235919 131.841806 159.235919 125.453778 
Q 159.235919 112.296099 156.937735 105.791926 
Q 154.63955 99.271159 150.923058 99.271159 
Q 147.206565 99.271159 144.895249 105.808518 
Q 142.590498 112.345876 142.590498 125.453778 
Q 142.590498 138.777379 144.895249 145.397699 
Q 147.206565 152.001426 150.739203 152.001426 
Q 152.052451 152.001426 153.221242 150.922928 
Q 151.376128 147.853356 149.465352 146.144351 
L 151.172575 137.383627 
Q 154.166781 139.972023 156.891771 145.165407 
z
" clip-path="url(#p12ebafc2b1)" style="fill: #0000ff"/>
   </g>
   <g id="patch_14">
    <path d="M 193.682073 220.296651 
Q 195.921162 223.678876 198.547658 225.683157 
L 196.30857 234.772017 
Q 194.936226 233.909062 193.622977 232.391932 
Q 193.334063 232.085723 189.578173 226.727054 
Q 186.623364 229.469022 183.031631 229.469022 
Q 176.09768 229.469022 172.164502 220.81164 
Q 168.23789 212.154257 168.23789 196.495809 
Q 168.23789 180.879116 172.177634 172.207815 
Q 176.117379 163.536514 182.867475 163.536514 
Q 189.558474 163.536514 193.47852 172.207815 
Q 197.398566 180.879116 197.398566 196.495809 
Q 197.398566 204.76347 196.30857 211.026849 
Q 195.48779 215.814855 193.682073 220.296651 
z
M 188.79679 213.031131 
Q 189.972147 210.10822 190.556543 205.988308 
Q 191.140938 201.854478 191.140938 196.495809 
Q 191.140938 185.458342 188.842754 180.002243 
Q 186.54457 174.532225 182.828077 174.532225 
Q 179.111585 174.532225 176.800268 180.016162 
Q 174.495517 185.500098 174.495517 196.495809 
Q 174.495517 207.672462 176.800268 213.225991 
Q 179.111585 218.765602 182.644222 218.765602 
Q 183.957471 218.765602 185.126262 217.860892 
Q 183.281148 215.285947 181.370372 213.852329 
L 183.077594 206.503297 
Q 186.0718 208.674602 188.79679 213.031131 
z
" clip-path="url(#p12ebafc2b1)" style="fill: #0000ff"/>
   </g>
   <g id="patch_15">
    <path d="M 179.554092 163.536514 
L 179.554092 84.624393 
L 168.23789 84.624393 
L 168.23789 68.555845 
L 198.547658 68.555845 
L 198.547658 84.624393 
L 187.256437 84.624393 
L 187.256437 163.536514 
L 179.554092 163.536514 
z
" clip-path="url(#p12ebafc2b1)" style="fill: #a0522d"/>
   </g>
   <g id="patch_16">
    <path d="M 211.27418 234.772017 
L 211.27418 216.512316 
L 219.321406 216.512316 
L 219.321406 234.772017 
L 211.27418 234.772017 
z
" clip-path="url(#p12ebafc2b1)" style="fill: #add8e6"/>
   </g>
   <g id="patch_17">
    <path d="M 211.459111 216.512316 
L 211.459111 201.341737 
L 200.142909 201.341737 
L 200.142909 198.252615 
L 230.452677 198.252615 
L 230.452677 201.341737 
L 219.161456 201.341737 
L 219.161456 216.512316 
L 211.459111 216.512316 
z
" clip-path="url(#p12ebafc2b1)" style="fill: #a0522d"/>
   </g>
   <g id="patch_18">
    <path d="M 200.142909 179.992914 
L 213.482364 179.992914 
Q 217.997257 179.992914 220.365208 180.339693 
Q 223.546155 180.814022 225.811494 182.021769 
Q 228.084727 183.229516 229.268702 184.979355 
Q 230.452677 186.729193 230.452677 189.296154 
Q 230.452677 191.552209 229.347634 193.182468 
Q 227.990009 195.17545 225.472088 196.407113 
Q 223.569834 197.343815 220.341528 197.865976 
Q 217.926218 198.252615 213.877023 198.252615 
L 200.142909 198.252615 
L 200.142909 179.992914 
z
M 207.44409 183.082036 
L 207.44409 195.17545 
L 212.890377 195.17545 
Q 215.952926 195.17545 217.310551 195.000068 
Q 219.086514 194.776854 220.254703 194.242735 
Q 221.422892 193.70463 222.16485 192.480939 
Q 222.906808 191.253262 222.906808 189.132729 
Q 222.906808 187.016182 222.16485 185.884168 
Q 221.422892 184.748169 220.088947 184.1144 
Q 218.762894 183.480632 216.718564 183.253432 
Q 215.187289 183.082036 210.719755 183.082036 
L 207.44409 183.082036 
z
" clip-path="url(#p12ebafc2b1)" style="fill: #c71585"/>
   </g>
   <g id="patch_19">
    <path d="M 200.142909 179.992914 
L 211.287567 170.462474 
L 201.189055 161.733213 
L 208.882143 161.733213 
L 215.422334 167.600552 
L 221.82731 161.733213 
L 229.456348 161.733213 
L 219.315136 170.601983 
L 230.452677 179.992914 
L 222.517624 179.992914 
L 215.287118 173.679147 
L 208.035262 179.992914 
L 200.142909 179.992914 
z
" clip-path="url(#p12ebafc2b1)" style="fill: #bdb76b"/>
   </g>
   <g id="patch_20">
    <path d="M 225.587093 154.31231 
Q 227.826181 156.046233 230.452677 157.073742 
L 228.213589 161.733213 
Q 226.841245 161.290813 225.527997 160.513045 
Q 225.239082 160.356065 221.483192 157.608904 
Q 218.528384 159.014594 214.93665 159.014594 
Q 208.002699 159.014594 204.069521 154.576323 
Q 200.142909 150.138053 200.142909 142.110635 
Q 200.142909 134.104623 204.082654 129.659217 
Q 208.022398 125.213811 214.772494 125.213811 
Q 221.463493 125.213811 225.383539 129.659217 
Q 229.303585 134.104623 229.303585 142.110635 
Q 229.303585 146.349111 228.213589 149.560079 
Q 227.392809 152.014685 225.587093 154.31231 
z
M 220.70181 150.587588 
Q 221.877167 149.089137 222.461562 146.977034 
Q 223.045958 144.857795 223.045958 142.110635 
Q 223.045958 136.452197 220.747773 133.655087 
Q 218.449589 130.850842 214.733096 130.850842 
Q 211.016604 130.850842 208.705287 133.662223 
Q 206.400537 136.473603 206.400537 142.110635 
Q 206.400537 147.840427 208.705287 150.687485 
Q 211.016604 153.527407 214.549242 153.527407 
Q 215.86249 153.527407 217.031281 153.063601 
Q 215.186167 151.743537 213.275391 151.008582 
L 214.982614 147.241047 
Q 217.97682 148.354182 220.70181 150.587588 
z
" clip-path="url(#p12ebafc2b1)" style="fill: #0000ff"/>
   </g>
   <g id="patch_21">
    <path d="M 232.047928 234.772017 
L 232.047928 214.026796 
L 239.704 214.026796 
L 239.704 222.191745 
L 254.701625 222.191745 
L 254.701625 214.026796 
L 262.357697 214.026796 
L 262.357697 234.772017 
L 254.701625 234.772017 
L 254.701625 225.70136 
L 239.704 225.70136 
L 239.704 234.772017 
L 232.047928 234.772017 
z
" clip-path="url(#p12ebafc2b1)" style="fill: #00ffff"/>
   </g>
   <g id="patch_22">
    <path d="M 248.253221 206.310292 
L 248.253221 202.929395 
L 262.357697 202.929395 
L 262.357697 210.921801 
Q 260.29932 212.152412 256.394771 213.089604 
Q 252.497296 214.026796 248.493719 214.026796 
Q 243.414976 214.026796 239.630676 212.708596 
Q 235.853449 211.386017 233.950689 208.929174 
Q 232.047928 206.47233 232.047928 203.586305 
Q 232.047928 200.450654 234.169966 198.015707 
Q 236.292003 195.58076 240.380462 194.280078 
Q 243.499857 193.281575 248.140046 193.281575 
Q 254.173706 193.281575 257.568965 194.849401 
Q 260.964225 196.412847 261.933289 199.176248 
L 255.439855 199.929505 
Q 254.753729 198.453647 252.858042 197.599664 
Q 250.969429 196.741302 248.140046 196.741302 
Q 243.85353 196.741302 241.321232 198.427371 
Q 238.788934 200.109061 238.788934 203.419888 
Q 238.788934 206.993478 241.349526 208.780274 
Q 243.917191 210.56269 248.076385 210.56269 
Q 250.134761 210.56269 252.200211 210.063438 
Q 254.265661 209.564187 255.744013 208.854724 
L 255.744013 206.310292 
L 248.253221 206.310292 
z
" clip-path="url(#p12ebafc2b1)" style="fill: #ff69b4"/>
   </g>
   <g id="patch_23">
    <path d="M 257.492112 184.850536 
Q 259.7312 186.820481 262.357697 187.987855 
L 260.118608 193.281575 
Q 258.746264 192.778955 257.433016 191.895318 
Q 257.144101 191.716969 253.388211 188.595863 
Q 250.433403 190.192896 246.841669 190.192896 
Q 239.907719 190.192896 235.97454 185.150486 
Q 232.047928 180.108076 232.047928 170.987962 
Q 232.047928 161.892167 235.987673 156.841651 
Q 239.927417 151.791134 246.677513 151.791134 
Q 253.368513 151.791134 257.288559 156.841651 
Q 261.208604 161.892167 261.208604 170.987962 
Q 261.208604 175.803382 260.118608 179.451428 
Q 259.297828 182.240156 257.492112 184.850536 
z
M 252.606829 180.618803 
Q 253.782186 178.916381 254.366581 176.516778 
Q 254.950977 174.109068 254.950977 170.987962 
Q 254.950977 164.559294 252.652793 161.381441 
Q 250.354608 158.195481 246.638116 158.195481 
Q 242.921623 158.195481 240.610307 161.389548 
Q 238.305556 164.583614 238.305556 170.987962 
Q 238.305556 177.497697 240.610307 180.732297 
Q 242.921623 183.958791 246.454261 183.958791 
Q 247.767509 183.958791 248.9363 183.431851 
Q 247.091186 181.932099 245.18041 181.097102 
L 246.887633 176.816728 
Q 249.881839 178.081384 252.606829 180.618803 
z
" clip-path="url(#p12ebafc2b1)" style="fill: #0000ff"/>
   </g>
   <g id="patch_24">
    <path d="M 243.36413 151.791134 
L 243.36413 117.319922 
L 232.047928 117.319922 
L 232.047928 110.300692 
L 262.357697 110.300692 
L 262.357697 117.319922 
L 251.066475 117.319922 
L 251.066475 151.791134 
L 243.36413 151.791134 
z
" clip-path="url(#p12ebafc2b1)" style="fill: #a0522d"/>
   </g>
   <g id="patch_25">
    <path d="M 289.397131 229.719997 
Q 291.63622 230.900421 294.262716 231.599931 
L 292.023628 234.772017 
Q 290.651283 234.470838 289.338035 233.941348 
Q 289.049121 233.834478 285.293231 231.96426 
Q 282.338422 232.921229 278.746689 232.921229 
Q 271.812738 232.921229 267.87956 229.899733 
Q 263.952948 226.878237 263.952948 221.413312 
Q 263.952948 215.96296 267.892692 212.936607 
Q 271.832437 209.910253 278.582533 209.910253 
Q 285.273532 209.910253 289.193578 212.936607 
Q 293.113624 215.96296 293.113624 221.413312 
Q 293.113624 224.298792 292.023628 226.484762 
Q 291.202848 228.155814 289.397131 229.719997 
z
M 284.511848 227.184272 
Q 285.687205 226.164153 286.271601 224.726271 
Q 286.855996 223.283531 286.855996 221.413312 
Q 286.855996 217.561147 284.557812 215.656925 
Q 282.259627 213.747844 278.543135 213.747844 
Q 274.826643 213.747844 272.515326 215.661782 
Q 270.210575 217.57572 270.210575 221.413312 
Q 270.210575 225.314054 272.515326 227.25228 
Q 274.826643 229.185649 278.35928 229.185649 
Q 279.672529 229.185649 280.841319 228.869898 
Q 278.996206 227.971221 277.08543 227.470877 
L 278.792652 224.906006 
Q 281.786858 225.663809 284.511848 227.184272 
z
" clip-path="url(#p12ebafc2b1)" style="fill: #0000ff"/>
   </g>
   <g id="patch_26">
    <path d="M 275.26915 209.910253 
L 275.26915 189.254528 
L 263.952948 189.254528 
L 263.952948 185.048489 
L 294.262716 185.048489 
L 294.262716 189.254528 
L 282.971495 189.254528 
L 282.971495 209.910253 
L 275.26915 209.910253 
z
" clip-path="url(#p12ebafc2b1)" style="fill: #a0522d"/>
   </g>
   <g id="patch_27">
    <path d="M 263.952948 160.186725 
L 277.292403 160.186725 
Q 281.807296 160.186725 284.175246 160.658887 
Q 287.356193 161.304717 289.621533 162.949143 
Q 291.894765 164.593569 293.078741 166.976087 
Q 294.262716 169.358605 294.262716 172.853688 
Q 294.262716 175.925453 293.157672 178.145157 
Q 291.800047 180.858731 289.282126 182.535719 
Q 287.379873 183.811099 284.151567 184.522056 
Q 281.736257 185.048489 277.687061 185.048489 
L 263.952948 185.048489 
L 263.952948 160.186725 
z
M 271.254129 164.392765 
L 271.254129 180.858731 
L 276.700415 180.858731 
Q 279.762965 180.858731 281.12059 180.619936 
Q 282.896553 180.316016 284.064742 179.588778 
Q 285.232931 178.856113 285.974889 177.189979 
Q 286.716847 175.518417 286.716847 172.631175 
Q 286.716847 169.749359 285.974889 168.208049 
Q 285.232931 166.661312 283.898985 165.798396 
Q 282.572933 164.935479 280.528602 164.626132 
Q 278.997327 164.392765 274.529794 164.392765 
L 271.254129 164.392765 
z
" clip-path="url(#p12ebafc2b1)" style="fill: #c71585"/>
   </g>
   <g id="patch_28">
    <path d="M 263.952948 160.186725 
L 263.952948 110.463197 
L 273.439734 110.463197 
L 279.131806 144.382871 
L 284.76223 110.463197 
L 294.262716 110.463197 
L 294.262716 160.186725 
L 288.378854 160.186725 
L 288.378854 121.046135 
L 282.145658 160.186725 
L 276.049456 160.186725 
L 269.84366 121.046135 
L 269.84366 160.186725 
L 263.952948 160.186725 
z
" clip-path="url(#p12ebafc2b1)" style="fill: #ff8c00"/>
   </g>
   <g id="patch_29">
    <path d="M 295.857967 234.772017 
L 295.857967 191.272371 
L 303.514039 191.272371 
L 303.514039 208.393057 
L 318.511663 208.393057 
L 318.511663 191.272371 
L 326.167735 191.272371 
L 326.167735 234.772017 
L 318.511663 234.772017 
L 318.511663 215.752198 
L 303.514039 215.752198 
L 303.514039 234.772017 
L 295.857967 234.772017 
z
" clip-path="url(#p12ebafc2b1)" style="fill: #00ffff"/>
   </g>
   <g id="patch_30">
    <path d="M 321.302151 164.754416 
Q 323.541239 170.950438 326.167735 174.622155 
L 323.928647 191.272371 
Q 322.556303 189.691493 321.243055 186.912207 
Q 320.95414 186.35125 317.19825 176.534507 
Q 314.243442 181.55762 310.651708 181.55762 
Q 303.717757 181.55762 299.784579 165.697843 
Q 295.857967 149.838066 295.857967 121.152778 
Q 295.857967 92.543984 299.797712 76.658709 
Q 303.737456 60.773433 310.487552 60.773433 
Q 317.178551 60.773433 321.098597 76.658709 
Q 325.018643 92.543984 325.018643 121.152778 
Q 325.018643 136.29861 323.928647 147.772725 
Q 323.107867 156.544049 321.302151 164.754416 
z
M 316.416867 151.444442 
Q 317.592225 146.089855 318.17662 138.542437 
Q 318.761015 130.969521 318.761015 121.152778 
Q 318.761015 100.932837 316.462831 90.937608 
Q 314.164647 80.91688 310.448154 80.91688 
Q 306.731662 80.91688 304.420345 90.963106 
Q 302.115595 101.009331 302.115595 121.152778 
Q 302.115595 141.627699 304.420345 151.801414 
Q 306.731662 161.949632 310.2643 161.949632 
Q 311.577548 161.949632 312.746339 160.29226 
Q 310.901225 155.575123 308.990449 152.948826 
L 310.697672 139.485864 
Q 313.691877 143.463557 316.416867 151.444442 
z
" clip-path="url(#p12ebafc2b1)" style="fill: #0000ff"/>
   </g>
   <g id="patch_31">
    <path d="M 353.20717 225.33084 
Q 355.446258 227.536807 358.072755 228.844047 
L 355.833666 234.772017 
Q 354.461322 234.209177 353.148074 233.219669 
Q 352.859159 233.019952 349.103269 229.524901 
Q 346.148461 231.313278 342.556727 231.313278 
Q 335.622777 231.313278 331.689598 225.666728 
Q 327.762986 220.020179 327.762986 209.807368 
Q 327.762986 199.621791 331.702731 193.966163 
Q 335.642475 188.310536 342.392571 188.310536 
Q 349.083571 188.310536 353.003617 193.966163 
Q 356.923662 199.621791 356.923662 209.807368 
Q 356.923662 215.199732 355.833666 219.284856 
Q 355.012886 222.407707 353.20717 225.33084 
z
M 348.321887 220.592096 
Q 349.497244 218.685705 350.081639 215.998601 
Q 350.666035 213.302419 350.666035 209.807368 
Q 350.666035 202.608471 348.36785 199.049874 
Q 346.069666 195.482198 342.353174 195.482198 
Q 338.636681 195.482198 336.325364 199.058952 
Q 334.020614 202.635705 334.020614 209.807368 
Q 334.020614 217.097045 336.325364 220.719189 
Q 338.636681 224.332254 342.169319 224.332254 
Q 343.482567 224.332254 344.651358 223.742181 
Q 342.806244 222.062741 340.895468 221.127701 
L 342.602691 216.334489 
Q 345.596897 217.750665 348.321887 220.592096 
z
" clip-path="url(#p12ebafc2b1)" style="fill: #0000ff"/>
   </g>
   <g id="patch_32">
    <path d="M 339.079188 188.310536 
L 339.079188 149.70927 
L 327.762986 149.70927 
L 327.762986 141.849055 
L 358.072755 141.849055 
L 358.072755 149.70927 
L 346.781533 149.70927 
L 346.781533 188.310536 
L 339.079188 188.310536 
z
" clip-path="url(#p12ebafc2b1)" style="fill: #a0522d"/>
   </g>
   <g id="patch_33">
    <path d="M 333.278436 141.849055 
L 327.762986 95.387574 
L 332.537329 95.387574 
L 336.015995 127.30512 
L 340.24081 95.387574 
L 345.78651 95.387574 
L 349.83487 127.842658 
L 353.379076 95.387574 
L 358.072755 95.387574 
L 352.466557 141.849055 
L 347.520801 141.849055 
L 342.91787 107.111973 
L 338.335106 141.849055 
L 333.278436 141.849055 
z
" clip-path="url(#p12ebafc2b1)" style="fill: #9acd32"/>
   </g>
   <g id="patch_34">
    <path d="M 385.112189 192.039225 
Q 387.351278 202.023906 389.977774 207.940754 
L 387.738686 234.772017 
Q 386.366341 232.224485 385.053093 227.745759 
Q 384.764179 226.841797 381.008289 211.022446 
Q 378.05348 219.117023 374.461746 219.117023 
Q 367.527796 219.117023 363.594618 193.559526 
Q 359.668006 168.002029 359.668006 121.776653 
Q 359.668006 75.674545 363.60775 50.075959 
Q 367.547495 24.477373 374.29759 24.477373 
Q 380.98859 24.477373 384.908636 50.075959 
Q 388.828682 75.674545 388.828682 121.776653 
Q 388.828682 146.183652 387.738686 164.673802 
Q 386.917906 178.808495 385.112189 192.039225 
z
M 380.226906 170.59065 
Q 381.402263 161.961913 381.986659 149.799503 
Q 382.571054 137.596004 382.571054 121.776653 
Q 382.571054 89.192899 380.27287 73.085924 
Q 377.974685 56.937859 374.258193 56.937859 
Q 370.541701 56.937859 368.230384 73.127013 
Q 365.925633 89.316167 365.925633 121.776653 
Q 365.925633 154.771299 368.230384 171.165899 
Q 370.541701 187.51941 374.074338 187.51941 
Q 375.387586 187.51941 376.556377 184.848611 
Q 374.711264 177.247104 372.800487 173.014914 
L 374.50771 151.319805 
Q 377.501916 157.729723 380.226906 170.59065 
z
" clip-path="url(#p12ebafc2b1)" style="fill: #0000ff"/>
   </g>
   <g id="patch_35">
    <path d="M 397.088475 234.772017 
L 391.573025 24.477373 
L 396.347368 24.477373 
L 399.826034 168.943045 
L 404.050849 24.477373 
L 409.596548 24.477373 
L 413.644909 171.376054 
L 417.189115 24.477373 
L 421.882793 24.477373 
L 416.276595 234.772017 
L 411.33084 234.772017 
L 406.727909 77.544522 
L 402.145145 234.772017 
L 397.088475 234.772017 
z
" clip-path="url(#p12ebafc2b1)" style="fill: #9acd32"/>
   </g>
   <g id="patch_36">
    <path d="M 423.478044 130.845531 
Q 423.478044 99.769692 424.910324 78.682515 
Q 425.974303 63.144596 427.815806 50.803048 
Q 429.657308 38.461501 431.853471 32.512697 
Q 434.772593 24.477373 438.592006 24.477373 
Q 445.494231 24.477373 449.641022 52.35684 
Q 453.787812 80.236307 453.787812 129.913256 
Q 453.787812 179.146264 449.675123 206.981337 
Q 445.562434 234.772017 438.673851 234.772017 
Q 431.703422 234.772017 427.590733 207.11452 
Q 423.478044 179.412629 423.478044 130.845531 
z
M 429.977866 129.469316 
Q 429.977866 164.007891 432.426383 181.854302 
Q 434.881719 199.656318 438.653389 199.656318 
Q 442.42506 199.656318 444.846294 181.987484 
Q 447.267529 164.31865 447.267529 128.936587 
Q 447.267529 93.954071 444.907678 76.773571 
Q 442.554647 59.548677 438.653389 59.548677 
Q 434.752132 59.548677 432.364999 76.995541 
Q 429.977866 94.398011 429.977866 129.469316 
z
" clip-path="url(#p12ebafc2b1)" style="fill: #006400"/>
   </g>
   <g id="matplotlib.axis_1">
    <g id="xtick_1">
     <g id="line2d_2">
      <path d="M 55.772697 234.772017 
L 55.772697 24.477373 
" clip-path="url(#p12ebafc2b1)" style="fill: none; stroke: #cccccc; stroke-width: 0.8; stroke-linecap: round"/>
     </g>
     <g id="text_1">
      <!-- 0 -->
      <g style="fill: #262626" transform="translate(51.88004 251.792954) scale(0.14 -0.14)">
       <defs>
        <path id="ArialMT-30" d="M 266 2259 
Q 266 3072 433 3567 
Q 600 4063 929 4331 
Q 1259 4600 1759 4600 
Q 2128 4600 2406 4451 
Q 2684 4303 2865 4023 
Q 3047 3744 3150 3342 
Q 3253 2941 3253 2259 
Q 3253 1453 3087 958 
Q 2922 463 2592 192 
Q 2263 -78 1759 -78 
Q 1097 -78 719 397 
Q 266 969 266 2259 
z
M 844 2259 
Q 844 1131 1108 757 
Q 1372 384 1759 384 
Q 2147 384 2411 759 
Q 2675 1134 2675 2259 
Q 2675 3391 2411 3762 
Q 2147 4134 1753 4134 
Q 1366 4134 1134 3806 
Q 844 3388 844 2259 
z
" transform="scale(0.015625)"/>
       </defs>
       <use xlink:href="#ArialMT-30"/>
      </g>
     </g>
    </g>
    <g id="xtick_2">
     <g id="line2d_3">
      <path d="M 87.677716 234.772017 
L 87.677716 24.477373 
" clip-path="url(#p12ebafc2b1)" style="fill: none; stroke: #cccccc; stroke-width: 0.8; stroke-linecap: round"/>
     </g>
     <g id="text_2">
      <!-- 1 -->
      <g style="fill: #262626" transform="translate(83.78506 251.792954) scale(0.14 -0.14)">
       <defs>
        <path id="ArialMT-31" d="M 2384 0 
L 1822 0 
L 1822 3584 
Q 1619 3391 1289 3197 
Q 959 3003 697 2906 
L 697 3450 
Q 1169 3672 1522 3987 
Q 1875 4303 2022 4600 
L 2384 4600 
L 2384 0 
z
" transform="scale(0.015625)"/>
       </defs>
       <use xlink:href="#ArialMT-31"/>
      </g>
     </g>
    </g>
    <g id="xtick_3">
     <g id="line2d_4">
      <path d="M 119.582735 234.772017 
L 119.582735 24.477373 
" clip-path="url(#p12ebafc2b1)" style="fill: none; stroke: #cccccc; stroke-width: 0.8; stroke-linecap: round"/>
     </g>
     <g id="text_3">
      <!-- 2 -->
      <g style="fill: #262626" transform="translate(115.690079 251.792954) scale(0.14 -0.14)">
       <defs>
        <path id="ArialMT-32" d="M 3222 541 
L 3222 0 
L 194 0 
Q 188 203 259 391 
Q 375 700 629 1000 
Q 884 1300 1366 1694 
Q 2113 2306 2375 2664 
Q 2638 3022 2638 3341 
Q 2638 3675 2398 3904 
Q 2159 4134 1775 4134 
Q 1369 4134 1125 3890 
Q 881 3647 878 3216 
L 300 3275 
Q 359 3922 746 4261 
Q 1134 4600 1788 4600 
Q 2447 4600 2831 4234 
Q 3216 3869 3216 3328 
Q 3216 3053 3103 2787 
Q 2991 2522 2730 2228 
Q 2469 1934 1863 1422 
Q 1356 997 1212 845 
Q 1069 694 975 541 
L 3222 541 
z
" transform="scale(0.015625)"/>
       </defs>
       <use xlink:href="#ArialMT-32"/>
      </g>
     </g>
    </g>
    <g id="xtick_4">
     <g id="line2d_5">
      <path d="M 151.487755 234.772017 
L 151.487755 24.477373 
" clip-path="url(#p12ebafc2b1)" style="fill: none; stroke: #cccccc; stroke-width: 0.8; stroke-linecap: round"/>
     </g>
     <g id="text_4">
      <!-- 3 -->
      <g style="fill: #262626" transform="translate(147.595098 251.792954) scale(0.14 -0.14)">
       <defs>
        <path id="ArialMT-33" d="M 269 1209 
L 831 1284 
Q 928 806 1161 595 
Q 1394 384 1728 384 
Q 2125 384 2398 659 
Q 2672 934 2672 1341 
Q 2672 1728 2419 1979 
Q 2166 2231 1775 2231 
Q 1616 2231 1378 2169 
L 1441 2663 
Q 1497 2656 1531 2656 
Q 1891 2656 2178 2843 
Q 2466 3031 2466 3422 
Q 2466 3731 2256 3934 
Q 2047 4138 1716 4138 
Q 1388 4138 1169 3931 
Q 950 3725 888 3313 
L 325 3413 
Q 428 3978 793 4289 
Q 1159 4600 1703 4600 
Q 2078 4600 2393 4439 
Q 2709 4278 2876 4000 
Q 3044 3722 3044 3409 
Q 3044 3113 2884 2869 
Q 2725 2625 2413 2481 
Q 2819 2388 3044 2092 
Q 3269 1797 3269 1353 
Q 3269 753 2831 336 
Q 2394 -81 1725 -81 
Q 1122 -81 723 278 
Q 325 638 269 1209 
z
" transform="scale(0.015625)"/>
       </defs>
       <use xlink:href="#ArialMT-33"/>
      </g>
     </g>
    </g>
    <g id="xtick_5">
     <g id="line2d_6">
      <path d="M 183.392774 234.772017 
L 183.392774 24.477373 
" clip-path="url(#p12ebafc2b1)" style="fill: none; stroke: #cccccc; stroke-width: 0.8; stroke-linecap: round"/>
     </g>
     <g id="text_5">
      <!-- 4 -->
      <g style="fill: #262626" transform="translate(179.500118 251.792954) scale(0.14 -0.14)">
       <defs>
        <path id="ArialMT-34" d="M 2069 0 
L 2069 1097 
L 81 1097 
L 81 1613 
L 2172 4581 
L 2631 4581 
L 2631 1613 
L 3250 1613 
L 3250 1097 
L 2631 1097 
L 2631 0 
L 2069 0 
z
M 2069 1613 
L 2069 3678 
L 634 1613 
L 2069 1613 
z
" transform="scale(0.015625)"/>
       </defs>
       <use xlink:href="#ArialMT-34"/>
      </g>
     </g>
    </g>
    <g id="xtick_6">
     <g id="line2d_7">
      <path d="M 215.297793 234.772017 
L 215.297793 24.477373 
" clip-path="url(#p12ebafc2b1)" style="fill: none; stroke: #cccccc; stroke-width: 0.8; stroke-linecap: round"/>
     </g>
     <g id="text_6">
      <!-- 5 -->
      <g style="fill: #262626" transform="translate(211.405137 251.792954) scale(0.14 -0.14)">
       <defs>
        <path id="ArialMT-35" d="M 266 1200 
L 856 1250 
Q 922 819 1161 601 
Q 1400 384 1738 384 
Q 2144 384 2425 690 
Q 2706 997 2706 1503 
Q 2706 1984 2436 2262 
Q 2166 2541 1728 2541 
Q 1456 2541 1237 2417 
Q 1019 2294 894 2097 
L 366 2166 
L 809 4519 
L 3088 4519 
L 3088 3981 
L 1259 3981 
L 1013 2750 
Q 1425 3038 1878 3038 
Q 2478 3038 2890 2622 
Q 3303 2206 3303 1553 
Q 3303 931 2941 478 
Q 2500 -78 1738 -78 
Q 1113 -78 717 272 
Q 322 622 266 1200 
z
" transform="scale(0.015625)"/>
       </defs>
       <use xlink:href="#ArialMT-35"/>
      </g>
     </g>
    </g>
    <g id="xtick_7">
     <g id="line2d_8">
      <path d="M 247.202812 234.772017 
L 247.202812 24.477373 
" clip-path="url(#p12ebafc2b1)" style="fill: none; stroke: #cccccc; stroke-width: 0.8; stroke-linecap: round"/>
     </g>
     <g id="text_7">
      <!-- 6 -->
      <g style="fill: #262626" transform="translate(243.310156 251.792954) scale(0.14 -0.14)">
       <defs>
        <path id="ArialMT-36" d="M 3184 3459 
L 2625 3416 
Q 2550 3747 2413 3897 
Q 2184 4138 1850 4138 
Q 1581 4138 1378 3988 
Q 1113 3794 959 3422 
Q 806 3050 800 2363 
Q 1003 2672 1297 2822 
Q 1591 2972 1913 2972 
Q 2475 2972 2870 2558 
Q 3266 2144 3266 1488 
Q 3266 1056 3080 686 
Q 2894 316 2569 119 
Q 2244 -78 1831 -78 
Q 1128 -78 684 439 
Q 241 956 241 2144 
Q 241 3472 731 4075 
Q 1159 4600 1884 4600 
Q 2425 4600 2770 4297 
Q 3116 3994 3184 3459 
z
M 888 1484 
Q 888 1194 1011 928 
Q 1134 663 1356 523 
Q 1578 384 1822 384 
Q 2178 384 2434 671 
Q 2691 959 2691 1453 
Q 2691 1928 2437 2201 
Q 2184 2475 1800 2475 
Q 1419 2475 1153 2201 
Q 888 1928 888 1484 
z
" transform="scale(0.015625)"/>
       </defs>
       <use xlink:href="#ArialMT-36"/>
      </g>
     </g>
    </g>
    <g id="xtick_8">
     <g id="line2d_9">
      <path d="M 279.107832 234.772017 
L 279.107832 24.477373 
" clip-path="url(#p12ebafc2b1)" style="fill: none; stroke: #cccccc; stroke-width: 0.8; stroke-linecap: round"/>
     </g>
     <g id="text_8">
      <!-- 7 -->
      <g style="fill: #262626" transform="translate(275.215176 251.792954) scale(0.14 -0.14)">
       <defs>
        <path id="ArialMT-37" d="M 303 3981 
L 303 4522 
L 3269 4522 
L 3269 4084 
Q 2831 3619 2401 2847 
Q 1972 2075 1738 1259 
Q 1569 684 1522 0 
L 944 0 
Q 953 541 1156 1306 
Q 1359 2072 1739 2783 
Q 2119 3494 2547 3981 
L 303 3981 
z
" transform="scale(0.015625)"/>
       </defs>
       <use xlink:href="#ArialMT-37"/>
      </g>
     </g>
    </g>
    <g id="xtick_9">
     <g id="line2d_10">
      <path d="M 311.012851 234.772017 
L 311.012851 24.477373 
" clip-path="url(#p12ebafc2b1)" style="fill: none; stroke: #cccccc; stroke-width: 0.8; stroke-linecap: round"/>
     </g>
     <g id="text_9">
      <!-- 8 -->
      <g style="fill: #262626" transform="translate(307.120195 251.792954) scale(0.14 -0.14)">
       <defs>
        <path id="ArialMT-38" d="M 1131 2484 
Q 781 2613 612 2850 
Q 444 3088 444 3419 
Q 444 3919 803 4259 
Q 1163 4600 1759 4600 
Q 2359 4600 2725 4251 
Q 3091 3903 3091 3403 
Q 3091 3084 2923 2848 
Q 2756 2613 2416 2484 
Q 2838 2347 3058 2040 
Q 3278 1734 3278 1309 
Q 3278 722 2862 322 
Q 2447 -78 1769 -78 
Q 1091 -78 675 323 
Q 259 725 259 1325 
Q 259 1772 486 2073 
Q 713 2375 1131 2484 
z
M 1019 3438 
Q 1019 3113 1228 2906 
Q 1438 2700 1772 2700 
Q 2097 2700 2305 2904 
Q 2513 3109 2513 3406 
Q 2513 3716 2298 3927 
Q 2084 4138 1766 4138 
Q 1444 4138 1231 3931 
Q 1019 3725 1019 3438 
z
M 838 1322 
Q 838 1081 952 856 
Q 1066 631 1291 507 
Q 1516 384 1775 384 
Q 2178 384 2440 643 
Q 2703 903 2703 1303 
Q 2703 1709 2433 1975 
Q 2163 2241 1756 2241 
Q 1359 2241 1098 1978 
Q 838 1716 838 1322 
z
" transform="scale(0.015625)"/>
       </defs>
       <use xlink:href="#ArialMT-38"/>
      </g>
     </g>
    </g>
    <g id="xtick_10">
     <g id="line2d_11">
      <path d="M 342.91787 234.772017 
L 342.91787 24.477373 
" clip-path="url(#p12ebafc2b1)" style="fill: none; stroke: #cccccc; stroke-width: 0.8; stroke-linecap: round"/>
     </g>
     <g id="text_10">
      <!-- 9 -->
      <g style="fill: #262626" transform="translate(339.025214 251.792954) scale(0.14 -0.14)">
       <defs>
        <path id="ArialMT-39" d="M 350 1059 
L 891 1109 
Q 959 728 1153 556 
Q 1347 384 1650 384 
Q 1909 384 2104 503 
Q 2300 622 2425 820 
Q 2550 1019 2634 1356 
Q 2719 1694 2719 2044 
Q 2719 2081 2716 2156 
Q 2547 1888 2255 1720 
Q 1963 1553 1622 1553 
Q 1053 1553 659 1965 
Q 266 2378 266 3053 
Q 266 3750 677 4175 
Q 1088 4600 1706 4600 
Q 2153 4600 2523 4359 
Q 2894 4119 3086 3673 
Q 3278 3228 3278 2384 
Q 3278 1506 3087 986 
Q 2897 466 2520 194 
Q 2144 -78 1638 -78 
Q 1100 -78 759 220 
Q 419 519 350 1059 
z
M 2653 3081 
Q 2653 3566 2395 3850 
Q 2138 4134 1775 4134 
Q 1400 4134 1122 3828 
Q 844 3522 844 3034 
Q 844 2597 1108 2323 
Q 1372 2050 1759 2050 
Q 2150 2050 2401 2323 
Q 2653 2597 2653 3081 
z
" transform="scale(0.015625)"/>
       </defs>
       <use xlink:href="#ArialMT-39"/>
      </g>
     </g>
    </g>
    <g id="xtick_11">
     <g id="line2d_12">
      <path d="M 374.82289 234.772017 
L 374.82289 24.477373 
" clip-path="url(#p12ebafc2b1)" style="fill: none; stroke: #cccccc; stroke-width: 0.8; stroke-linecap: round"/>
     </g>
     <g id="text_11">
      <!-- 10 -->
      <g style="fill: #262626" transform="translate(367.037577 251.792954) scale(0.14 -0.14)">
       <use xlink:href="#ArialMT-31"/>
       <use xlink:href="#ArialMT-30" transform="translate(55.615234 0)"/>
      </g>
     </g>
    </g>
    <g id="xtick_12">
     <g id="line2d_13">
      <path d="M 406.727909 234.772017 
L 406.727909 24.477373 
" clip-path="url(#p12ebafc2b1)" style="fill: none; stroke: #cccccc; stroke-width: 0.8; stroke-linecap: round"/>
     </g>
     <g id="text_12">
      <!-- 11 -->
      <g style="fill: #262626" transform="translate(399.458847 251.792954) scale(0.14 -0.14)">
       <use xlink:href="#ArialMT-31"/>
       <use xlink:href="#ArialMT-31" transform="translate(48.240234 0)"/>
      </g>
     </g>
    </g>
    <g id="xtick_13">
     <g id="line2d_14">
      <path d="M 438.632928 234.772017 
L 438.632928 24.477373 
" clip-path="url(#p12ebafc2b1)" style="fill: none; stroke: #cccccc; stroke-width: 0.8; stroke-linecap: round"/>
     </g>
     <g id="text_13">
      <!-- 12 -->
      <g style="fill: #262626" transform="translate(430.847616 251.792954) scale(0.14 -0.14)">
       <use xlink:href="#ArialMT-31"/>
       <use xlink:href="#ArialMT-32" transform="translate(55.615234 0)"/>
      </g>
     </g>
    </g>
    <g id="text_14">
     <!-- Original Position -->
     <g style="fill: #262626" transform="translate(188.955312 270.232954) scale(0.16 -0.16)">
      <defs>
       <path id="ArialMT-4f" d="M 309 2231 
Q 309 3372 921 4017 
Q 1534 4663 2503 4663 
Q 3138 4663 3647 4359 
Q 4156 4056 4423 3514 
Q 4691 2972 4691 2284 
Q 4691 1588 4409 1038 
Q 4128 488 3612 205 
Q 3097 -78 2500 -78 
Q 1853 -78 1343 234 
Q 834 547 571 1087 
Q 309 1628 309 2231 
z
M 934 2222 
Q 934 1394 1379 917 
Q 1825 441 2497 441 
Q 3181 441 3623 922 
Q 4066 1403 4066 2288 
Q 4066 2847 3877 3264 
Q 3688 3681 3323 3911 
Q 2959 4141 2506 4141 
Q 1863 4141 1398 3698 
Q 934 3256 934 2222 
z
" transform="scale(0.015625)"/>
       <path id="ArialMT-72" d="M 416 0 
L 416 3319 
L 922 3319 
L 922 2816 
Q 1116 3169 1280 3281 
Q 1444 3394 1641 3394 
Q 1925 3394 2219 3213 
L 2025 2691 
Q 1819 2813 1613 2813 
Q 1428 2813 1281 2702 
Q 1134 2591 1072 2394 
Q 978 2094 978 1738 
L 978 0 
L 416 0 
z
" transform="scale(0.015625)"/>
       <path id="ArialMT-69" d="M 425 3934 
L 425 4581 
L 988 4581 
L 988 3934 
L 425 3934 
z
M 425 0 
L 425 3319 
L 988 3319 
L 988 0 
L 425 0 
z
" transform="scale(0.015625)"/>
       <path id="ArialMT-67" d="M 319 -275 
L 866 -356 
Q 900 -609 1056 -725 
Q 1266 -881 1628 -881 
Q 2019 -881 2231 -725 
Q 2444 -569 2519 -288 
Q 2563 -116 2559 434 
Q 2191 0 1641 0 
Q 956 0 581 494 
Q 206 988 206 1678 
Q 206 2153 378 2554 
Q 550 2956 876 3175 
Q 1203 3394 1644 3394 
Q 2231 3394 2613 2919 
L 2613 3319 
L 3131 3319 
L 3131 450 
Q 3131 -325 2973 -648 
Q 2816 -972 2473 -1159 
Q 2131 -1347 1631 -1347 
Q 1038 -1347 672 -1080 
Q 306 -813 319 -275 
z
M 784 1719 
Q 784 1066 1043 766 
Q 1303 466 1694 466 
Q 2081 466 2343 764 
Q 2606 1063 2606 1700 
Q 2606 2309 2336 2618 
Q 2066 2928 1684 2928 
Q 1309 2928 1046 2623 
Q 784 2319 784 1719 
z
" transform="scale(0.015625)"/>
       <path id="ArialMT-6e" d="M 422 0 
L 422 3319 
L 928 3319 
L 928 2847 
Q 1294 3394 1984 3394 
Q 2284 3394 2536 3286 
Q 2788 3178 2913 3003 
Q 3038 2828 3088 2588 
Q 3119 2431 3119 2041 
L 3119 0 
L 2556 0 
L 2556 2019 
Q 2556 2363 2490 2533 
Q 2425 2703 2258 2804 
Q 2091 2906 1866 2906 
Q 1506 2906 1245 2678 
Q 984 2450 984 1813 
L 984 0 
L 422 0 
z
" transform="scale(0.015625)"/>
       <path id="ArialMT-61" d="M 2588 409 
Q 2275 144 1986 34 
Q 1697 -75 1366 -75 
Q 819 -75 525 192 
Q 231 459 231 875 
Q 231 1119 342 1320 
Q 453 1522 633 1644 
Q 813 1766 1038 1828 
Q 1203 1872 1538 1913 
Q 2219 1994 2541 2106 
Q 2544 2222 2544 2253 
Q 2544 2597 2384 2738 
Q 2169 2928 1744 2928 
Q 1347 2928 1158 2789 
Q 969 2650 878 2297 
L 328 2372 
Q 403 2725 575 2942 
Q 747 3159 1072 3276 
Q 1397 3394 1825 3394 
Q 2250 3394 2515 3294 
Q 2781 3194 2906 3042 
Q 3031 2891 3081 2659 
Q 3109 2516 3109 2141 
L 3109 1391 
Q 3109 606 3145 398 
Q 3181 191 3288 0 
L 2700 0 
Q 2613 175 2588 409 
z
M 2541 1666 
Q 2234 1541 1622 1453 
Q 1275 1403 1131 1340 
Q 988 1278 909 1158 
Q 831 1038 831 891 
Q 831 666 1001 516 
Q 1172 366 1500 366 
Q 1825 366 2078 508 
Q 2331 650 2450 897 
Q 2541 1088 2541 1459 
L 2541 1666 
z
" transform="scale(0.015625)"/>
       <path id="ArialMT-6c" d="M 409 0 
L 409 4581 
L 972 4581 
L 972 0 
L 409 0 
z
" transform="scale(0.015625)"/>
       <path id="ArialMT-20" transform="scale(0.015625)"/>
       <path id="ArialMT-50" d="M 494 0 
L 494 4581 
L 2222 4581 
Q 2678 4581 2919 4538 
Q 3256 4481 3484 4323 
Q 3713 4166 3852 3881 
Q 3991 3597 3991 3256 
Q 3991 2672 3619 2267 
Q 3247 1863 2275 1863 
L 1100 1863 
L 1100 0 
L 494 0 
z
M 1100 2403 
L 2284 2403 
Q 2872 2403 3119 2622 
Q 3366 2841 3366 3238 
Q 3366 3525 3220 3729 
Q 3075 3934 2838 4000 
Q 2684 4041 2272 4041 
L 1100 4041 
L 1100 2403 
z
" transform="scale(0.015625)"/>
       <path id="ArialMT-6f" d="M 213 1659 
Q 213 2581 725 3025 
Q 1153 3394 1769 3394 
Q 2453 3394 2887 2945 
Q 3322 2497 3322 1706 
Q 3322 1066 3130 698 
Q 2938 331 2570 128 
Q 2203 -75 1769 -75 
Q 1072 -75 642 372 
Q 213 819 213 1659 
z
M 791 1659 
Q 791 1022 1069 705 
Q 1347 388 1769 388 
Q 2188 388 2466 706 
Q 2744 1025 2744 1678 
Q 2744 2294 2464 2611 
Q 2184 2928 1769 2928 
Q 1347 2928 1069 2612 
Q 791 2297 791 1659 
z
" transform="scale(0.015625)"/>
       <path id="ArialMT-73" d="M 197 991 
L 753 1078 
Q 800 744 1014 566 
Q 1228 388 1613 388 
Q 2000 388 2187 545 
Q 2375 703 2375 916 
Q 2375 1106 2209 1216 
Q 2094 1291 1634 1406 
Q 1016 1563 777 1677 
Q 538 1791 414 1992 
Q 291 2194 291 2438 
Q 291 2659 392 2848 
Q 494 3038 669 3163 
Q 800 3259 1026 3326 
Q 1253 3394 1513 3394 
Q 1903 3394 2198 3281 
Q 2494 3169 2634 2976 
Q 2775 2784 2828 2463 
L 2278 2388 
Q 2241 2644 2061 2787 
Q 1881 2931 1553 2931 
Q 1166 2931 1000 2803 
Q 834 2675 834 2503 
Q 834 2394 903 2306 
Q 972 2216 1119 2156 
Q 1203 2125 1616 2013 
Q 2213 1853 2448 1751 
Q 2684 1650 2818 1456 
Q 2953 1263 2953 975 
Q 2953 694 2789 445 
Q 2625 197 2315 61 
Q 2006 -75 1616 -75 
Q 969 -75 630 194 
Q 291 463 197 991 
z
" transform="scale(0.015625)"/>
       <path id="ArialMT-74" d="M 1650 503 
L 1731 6 
Q 1494 -44 1306 -44 
Q 1000 -44 831 53 
Q 663 150 594 308 
Q 525 466 525 972 
L 525 2881 
L 113 2881 
L 113 3319 
L 525 3319 
L 525 4141 
L 1084 4478 
L 1084 3319 
L 1650 3319 
L 1650 2881 
L 1084 2881 
L 1084 941 
Q 1084 700 1114 631 
Q 1144 563 1211 522 
Q 1278 481 1403 481 
Q 1497 481 1650 503 
z
" transform="scale(0.015625)"/>
      </defs>
      <use xlink:href="#ArialMT-4f"/>
      <use xlink:href="#ArialMT-72" transform="translate(77.783203 0)"/>
      <use xlink:href="#ArialMT-69" transform="translate(111.083984 0)"/>
      <use xlink:href="#ArialMT-67" transform="translate(133.300781 0)"/>
      <use xlink:href="#ArialMT-69" transform="translate(188.916016 0)"/>
      <use xlink:href="#ArialMT-6e" transform="translate(211.132812 0)"/>
      <use xlink:href="#ArialMT-61" transform="translate(266.748047 0)"/>
      <use xlink:href="#ArialMT-6c" transform="translate(322.363281 0)"/>
      <use xlink:href="#ArialMT-20" transform="translate(344.580078 0)"/>
      <use xlink:href="#ArialMT-50" transform="translate(372.363281 0)"/>
      <use xlink:href="#ArialMT-6f" transform="translate(439.0625 0)"/>
      <use xlink:href="#ArialMT-73" transform="translate(494.677734 0)"/>
      <use xlink:href="#ArialMT-69" transform="translate(544.677734 0)"/>
      <use xlink:href="#ArialMT-74" transform="translate(566.894531 0)"/>
      <use xlink:href="#ArialMT-69" transform="translate(594.677734 0)"/>
      <use xlink:href="#ArialMT-6f" transform="translate(616.894531 0)"/>
      <use xlink:href="#ArialMT-6e" transform="translate(672.509766 0)"/>
     </g>
    </g>
   </g>
   <g id="matplotlib.axis_2">
    <g id="ytick_1">
     <g id="line2d_15">
      <path d="M 40.617813 234.772017 
L 453.787812 234.772017 
" clip-path="url(#p12ebafc2b1)" style="fill: none; stroke: #cccccc; stroke-width: 0.8; stroke-linecap: round"/>
     </g>
     <g id="text_15">
      <!-- 0 -->
      <g style="fill: #262626" transform="translate(25.8325 239.782485) scale(0.14 -0.14)">
       <use xlink:href="#ArialMT-30"/>
      </g>
     </g>
    </g>
    <g id="ytick_2">
     <g id="line2d_16">
      <path d="M 40.617813 190.032661 
L 453.787812 190.032661 
" clip-path="url(#p12ebafc2b1)" style="fill: none; stroke: #cccccc; stroke-width: 0.8; stroke-linecap: round"/>
     </g>
     <g id="text_16">
      <!-- 1 -->
      <g style="fill: #262626" transform="translate(25.8325 195.04313) scale(0.14 -0.14)">
       <use xlink:href="#ArialMT-31"/>
      </g>
     </g>
    </g>
    <g id="ytick_3">
     <g id="line2d_17">
      <path d="M 40.617813 145.293306 
L 453.787812 145.293306 
" clip-path="url(#p12ebafc2b1)" style="fill: none; stroke: #cccccc; stroke-width: 0.8; stroke-linecap: round"/>
     </g>
     <g id="text_17">
      <!-- 2 -->
      <g style="fill: #262626" transform="translate(25.8325 150.303774) scale(0.14 -0.14)">
       <use xlink:href="#ArialMT-32"/>
      </g>
     </g>
    </g>
    <g id="ytick_4">
     <g id="line2d_18">
      <path d="M 40.617813 100.55395 
L 453.787812 100.55395 
" clip-path="url(#p12ebafc2b1)" style="fill: none; stroke: #cccccc; stroke-width: 0.8; stroke-linecap: round"/>
     </g>
     <g id="text_18">
      <!-- 3 -->
      <g style="fill: #262626" transform="translate(25.8325 105.564419) scale(0.14 -0.14)">
       <use xlink:href="#ArialMT-33"/>
      </g>
     </g>
    </g>
    <g id="ytick_5">
     <g id="line2d_19">
      <path d="M 40.617813 55.814595 
L 453.787812 55.814595 
" clip-path="url(#p12ebafc2b1)" style="fill: none; stroke: #cccccc; stroke-width: 0.8; stroke-linecap: round"/>
     </g>
     <g id="text_19">
      <!-- 4 -->
      <g style="fill: #262626" transform="translate(25.8325 60.825063) scale(0.14 -0.14)">
       <use xlink:href="#ArialMT-34"/>
      </g>
     </g>
    </g>
    <g id="text_20">
     <!-- Information Content -->
     <g style="fill: #262626" transform="translate(18.6525 199.880945) rotate(-90) scale(0.16 -0.16)">
      <defs>
       <path id="ArialMT-49" d="M 597 0 
L 597 4581 
L 1203 4581 
L 1203 0 
L 597 0 
z
" transform="scale(0.015625)"/>
       <path id="ArialMT-66" d="M 556 0 
L 556 2881 
L 59 2881 
L 59 3319 
L 556 3319 
L 556 3672 
Q 556 4006 616 4169 
Q 697 4388 901 4523 
Q 1106 4659 1475 4659 
Q 1713 4659 2000 4603 
L 1916 4113 
Q 1741 4144 1584 4144 
Q 1328 4144 1222 4034 
Q 1116 3925 1116 3625 
L 1116 3319 
L 1763 3319 
L 1763 2881 
L 1116 2881 
L 1116 0 
L 556 0 
z
" transform="scale(0.015625)"/>
       <path id="ArialMT-6d" d="M 422 0 
L 422 3319 
L 925 3319 
L 925 2853 
Q 1081 3097 1340 3245 
Q 1600 3394 1931 3394 
Q 2300 3394 2536 3241 
Q 2772 3088 2869 2813 
Q 3263 3394 3894 3394 
Q 4388 3394 4653 3120 
Q 4919 2847 4919 2278 
L 4919 0 
L 4359 0 
L 4359 2091 
Q 4359 2428 4304 2576 
Q 4250 2725 4106 2815 
Q 3963 2906 3769 2906 
Q 3419 2906 3187 2673 
Q 2956 2441 2956 1928 
L 2956 0 
L 2394 0 
L 2394 2156 
Q 2394 2531 2256 2718 
Q 2119 2906 1806 2906 
Q 1569 2906 1367 2781 
Q 1166 2656 1075 2415 
Q 984 2175 984 1722 
L 984 0 
L 422 0 
z
" transform="scale(0.015625)"/>
       <path id="ArialMT-43" d="M 3763 1606 
L 4369 1453 
Q 4178 706 3683 314 
Q 3188 -78 2472 -78 
Q 1731 -78 1267 223 
Q 803 525 561 1097 
Q 319 1669 319 2325 
Q 319 3041 592 3573 
Q 866 4106 1370 4382 
Q 1875 4659 2481 4659 
Q 3169 4659 3637 4309 
Q 4106 3959 4291 3325 
L 3694 3184 
Q 3534 3684 3231 3912 
Q 2928 4141 2469 4141 
Q 1941 4141 1586 3887 
Q 1231 3634 1087 3207 
Q 944 2781 944 2328 
Q 944 1744 1114 1308 
Q 1284 872 1643 656 
Q 2003 441 2422 441 
Q 2931 441 3284 734 
Q 3638 1028 3763 1606 
z
" transform="scale(0.015625)"/>
       <path id="ArialMT-65" d="M 2694 1069 
L 3275 997 
Q 3138 488 2766 206 
Q 2394 -75 1816 -75 
Q 1088 -75 661 373 
Q 234 822 234 1631 
Q 234 2469 665 2931 
Q 1097 3394 1784 3394 
Q 2450 3394 2872 2941 
Q 3294 2488 3294 1666 
Q 3294 1616 3291 1516 
L 816 1516 
Q 847 969 1125 678 
Q 1403 388 1819 388 
Q 2128 388 2347 550 
Q 2566 713 2694 1069 
z
M 847 1978 
L 2700 1978 
Q 2663 2397 2488 2606 
Q 2219 2931 1791 2931 
Q 1403 2931 1139 2672 
Q 875 2413 847 1978 
z
" transform="scale(0.015625)"/>
      </defs>
      <use xlink:href="#ArialMT-49"/>
      <use xlink:href="#ArialMT-6e" transform="translate(27.783203 0)"/>
      <use xlink:href="#ArialMT-66" transform="translate(83.398438 0)"/>
      <use xlink:href="#ArialMT-6f" transform="translate(111.181641 0)"/>
      <use xlink:href="#ArialMT-72" transform="translate(166.796875 0)"/>
      <use xlink:href="#ArialMT-6d" transform="translate(200.097656 0)"/>
      <use xlink:href="#ArialMT-61" transform="translate(283.398438 0)"/>
      <use xlink:href="#ArialMT-74" transform="translate(339.013672 0)"/>
      <use xlink:href="#ArialMT-69" transform="translate(366.796875 0)"/>
      <use xlink:href="#ArialMT-6f" transform="translate(389.013672 0)"/>
      <use xlink:href="#ArialMT-6e" transform="translate(444.628906 0)"/>
      <use xlink:href="#ArialMT-20" transform="translate(500.244141 0)"/>
      <use xlink:href="#ArialMT-43" transform="translate(528.027344 0)"/>
      <use xlink:href="#ArialMT-6f" transform="translate(600.244141 0)"/>
      <use xlink:href="#ArialMT-6e" transform="translate(655.859375 0)"/>
      <use xlink:href="#ArialMT-74" transform="translate(711.474609 0)"/>
      <use xlink:href="#ArialMT-65" transform="translate(739.257812 0)"/>
      <use xlink:href="#ArialMT-6e" transform="translate(794.873047 0)"/>
      <use xlink:href="#ArialMT-74" transform="translate(850.488281 0)"/>
     </g>
    </g>
   </g>
   <g id="patch_37">
    <path d="M 40.617813 234.772017 
L 40.617813 24.477373 
" style="fill: none; stroke: #cccccc; stroke-width: 0.8; stroke-linejoin: miter; stroke-linecap: square"/>
   </g>
   <g id="patch_38">
    <path d="M 453.787812 234.772017 
L 453.787812 24.477373 
" style="fill: none; stroke: #cccccc; stroke-width: 0.8; stroke-linejoin: miter; stroke-linecap: square"/>
   </g>
   <g id="patch_39">
    <path d="M 40.617812 234.772017 
L 453.787812 234.772017 
" style="fill: none; stroke: #cccccc; stroke-width: 0.8; stroke-linejoin: miter; stroke-linecap: square"/>
   </g>
   <g id="patch_40">
    <path d="M 40.617812 24.477373 
L 453.787812 24.477373 
" style="fill: none; stroke: #cccccc; stroke-width: 0.8; stroke-linejoin: miter; stroke-linecap: square"/>
   </g>
   <g id="text_21">
    <!-- 7 -->
    <g style="fill: #000080; opacity: 0.6" transform="translate(51.88004 17.220937) scale(0.14 -0.14)">
     <defs>
      <path id="Arial-ItalicMT-37" d="M 928 0 
Q 1003 463 1247 1113 
Q 1538 1897 2009 2670 
Q 2481 3444 3059 4000 
L 775 4000 
L 884 4519 
L 3809 4519 
L 3703 4000 
Q 2959 3347 2403 2316 
Q 1756 1125 1519 0 
L 928 0 
z
" transform="scale(0.015625)"/>
     </defs>
     <use xlink:href="#Arial-ItalicMT-37"/>
    </g>
   </g>
   <g id="text_22">
    <!-- 7 -->
    <g style="fill: #000080; opacity: 0.6" transform="translate(83.78506 17.220937) scale(0.14 -0.14)">
     <use xlink:href="#Arial-ItalicMT-37"/>
    </g>
   </g>
   <g id="text_23">
    <!-- 7 -->
    <g style="fill: #000080; opacity: 0.6" transform="translate(115.690079 17.220937) scale(0.14 -0.14)">
     <use xlink:href="#Arial-ItalicMT-37"/>
    </g>
   </g>
   <g id="text_24">
    <!-- 7 -->
    <g style="fill: #000080; opacity: 0.6" transform="translate(147.595098 17.220937) scale(0.14 -0.14)">
     <use xlink:href="#Arial-ItalicMT-37"/>
    </g>
   </g>
   <g id="text_25">
    <!-- 7 -->
    <g style="fill: #000080; opacity: 0.6" transform="translate(179.500118 17.220937) scale(0.14 -0.14)">
     <use xlink:href="#Arial-ItalicMT-37"/>
    </g>
   </g>
   <g id="text_26">
    <!-- 6 -->
    <g style="fill: #000080; opacity: 0.6" transform="translate(211.405137 17.220937) scale(0.14 -0.14)">
     <defs>
      <path id="Arial-ItalicMT-36" d="M 1288 2656 
Q 1525 2853 1761 2951 
Q 1997 3050 2228 3050 
Q 2750 3050 3090 2694 
Q 3431 2338 3431 1734 
Q 3431 956 2925 400 
Q 2488 -78 1863 -78 
Q 1294 -78 914 339 
Q 534 756 534 1528 
Q 534 2219 778 2956 
Q 966 3522 1242 3889 
Q 1519 4256 1830 4428 
Q 2141 4600 2531 4600 
Q 3000 4600 3297 4308 
Q 3594 4016 3634 3472 
L 3109 3422 
Q 3066 3794 2898 3959 
Q 2731 4125 2491 4125 
Q 2238 4125 1981 3928 
Q 1725 3731 1540 3345 
Q 1356 2959 1288 2656 
z
M 1091 1288 
Q 1091 900 1331 636 
Q 1572 372 1875 372 
Q 2088 372 2325 533 
Q 2563 694 2728 1022 
Q 2894 1350 2894 1675 
Q 2894 2094 2664 2345 
Q 2434 2597 2109 2597 
Q 1734 2597 1412 2230 
Q 1091 1863 1091 1288 
z
" transform="scale(0.015625)"/>
     </defs>
     <use xlink:href="#Arial-ItalicMT-36"/>
    </g>
   </g>
   <g id="text_27">
    <!-- 6 -->
    <g style="fill: #000080; opacity: 0.6" transform="translate(243.310156 17.220937) scale(0.14 -0.14)">
     <use xlink:href="#Arial-ItalicMT-36"/>
    </g>
   </g>
   <g id="text_28">
    <!-- 5 -->
    <g style="fill: #000080; opacity: 0.6" transform="translate(275.215176 17.220937) scale(0.14 -0.14)">
     <defs>
      <path id="Arial-ItalicMT-35" d="M 447 1309 
L 1022 1366 
Q 1016 1244 1016 1219 
Q 1016 1013 1120 803 
Q 1225 594 1404 483 
Q 1584 372 1784 372 
Q 2047 372 2319 553 
Q 2591 734 2759 1081 
Q 2928 1428 2928 1769 
Q 2928 2153 2701 2384 
Q 2475 2616 2106 2616 
Q 1859 2616 1639 2497 
Q 1419 2378 1228 2141 
L 734 2175 
L 1425 4519 
L 3663 4519 
L 3553 4000 
L 1813 4000 
L 1469 2834 
Q 1663 2975 1867 3045 
Q 2072 3116 2288 3116 
Q 2813 3116 3150 2769 
Q 3488 2422 3488 1819 
Q 3488 1291 3256 845 
Q 3025 400 2620 161 
Q 2216 -78 1747 -78 
Q 1353 -78 1050 100 
Q 747 278 595 590 
Q 444 903 444 1216 
Q 444 1247 447 1309 
z
" transform="scale(0.015625)"/>
     </defs>
     <use xlink:href="#Arial-ItalicMT-35"/>
    </g>
   </g>
   <g id="text_29">
    <!-- 4 -->
    <g style="fill: #000080; opacity: 0.6" transform="translate(307.120195 17.220937) scale(0.14 -0.14)">
     <defs>
      <path id="Arial-ItalicMT-34" d="M 1913 0 
L 2159 1169 
L 291 1169 
L 409 1728 
L 2975 4581 
L 3438 4581 
L 2828 1669 
L 3472 1669 
L 3369 1169 
L 2725 1169 
L 2478 0 
L 1913 0 
z
M 2263 1669 
L 2663 3581 
L 956 1669 
L 2263 1669 
z
" transform="scale(0.015625)"/>
     </defs>
     <use xlink:href="#Arial-ItalicMT-34"/>
    </g>
   </g>
   <g id="text_30">
    <!-- 3 -->
    <g style="fill: #000080; opacity: 0.6" transform="translate(339.025214 17.220937) scale(0.14 -0.14)">
     <defs>
      <path id="Arial-ItalicMT-33" d="M 350 1200 
L 900 1269 
Q 963 788 1177 580 
Q 1391 372 1738 372 
Q 2156 372 2461 672 
Q 2766 972 2766 1359 
Q 2766 1697 2537 1917 
Q 2309 2138 1925 2138 
Q 1881 2138 1744 2125 
L 1841 2597 
Q 1922 2584 1997 2584 
Q 2481 2584 2742 2820 
Q 3003 3056 3003 3400 
Q 3003 3716 2789 3931 
Q 2575 4147 2266 4147 
Q 1963 4147 1720 3926 
Q 1478 3706 1409 3303 
L 853 3416 
Q 991 3981 1381 4290 
Q 1772 4600 2306 4600 
Q 2869 4600 3217 4259 
Q 3566 3919 3566 3422 
Q 3566 3059 3377 2789 
Q 3188 2519 2809 2341 
Q 3078 2181 3211 1956 
Q 3344 1731 3344 1441 
Q 3344 825 2883 373 
Q 2422 -78 1781 -78 
Q 1159 -78 776 270 
Q 394 619 350 1200 
z
" transform="scale(0.015625)"/>
     </defs>
     <use xlink:href="#Arial-ItalicMT-33"/>
    </g>
   </g>
   <g id="text_31">
    <!-- 1 -->
    <g style="fill: #000080; opacity: 0.6" transform="translate(370.930233 17.220937) scale(0.14 -0.14)">
     <defs>
      <path id="Arial-ItalicMT-31" d="M 1541 0 
L 2266 3459 
Q 1797 3091 947 2869 
L 1053 3381 
Q 1475 3550 1886 3822 
Q 2297 4094 2503 4297 
Q 2628 4422 2741 4600 
L 3069 4600 
L 2109 0 
L 1541 0 
z
" transform="scale(0.015625)"/>
     </defs>
     <use xlink:href="#Arial-ItalicMT-31"/>
    </g>
   </g>
   <g id="text_32">
    <!-- 1 -->
    <g style="fill: #000080; opacity: 0.6" transform="translate(402.835253 17.220937) scale(0.14 -0.14)">
     <use xlink:href="#Arial-ItalicMT-31"/>
    </g>
   </g>
   <g id="text_33">
    <!-- 1 -->
    <g style="fill: #000080; opacity: 0.6" transform="translate(434.740272 17.220937) scale(0.14 -0.14)">
     <use xlink:href="#Arial-ItalicMT-31"/>
    </g>
   </g>
  </g>
 </g>
 <defs>
  <clipPath id="p12ebafc2b1">
   <rect x="40.617813" y="24.477373" width="413.17" height="210.294644"/>
  </clipPath>
 </defs>
</svg>
