<?xml version="1.0" encoding="utf-8" standalone="no"?>
<!DOCTYPE svg PUBLIC "-//W3C//DTD SVG 1.1//EN"
  "http://www.w3.org/Graphics/SVG/1.1/DTD/svg11.dtd">
<svg xmlns:xlink="http://www.w3.org/1999/xlink" width="244.987813pt" height="280.800454pt" viewBox="0 0 244.987813 280.800454" xmlns="http://www.w3.org/2000/svg" version="1.1">
 <metadata>
  <rdf:RDF xmlns:dc="http://purl.org/dc/elements/1.1/" xmlns:cc="http://creativecommons.org/ns#" xmlns:rdf="http://www.w3.org/1999/02/22-rdf-syntax-ns#">
   <cc:Work>
    <dc:type rdf:resource="http://purl.org/dc/dcmitype/StillImage"/>
    <dc:date>2025-05-09T14:59:11.296900</dc:date>
    <dc:format>image/svg+xml</dc:format>
    <dc:creator>
     <cc:Agent>
      <dc:title>Matplotlib v3.10.1, https://matplotlib.org/</dc:title>
     </cc:Agent>
    </dc:creator>
   </cc:Work>
  </rdf:RDF>
 </metadata>
 <defs>
  <style type="text/css">*{stroke-linejoin: round; stroke-linecap: butt}</style>
 </defs>
 <g id="figure_1">
  <g id="patch_1">
   <path d="M 0 280.800454 
L 244.987813 280.800454 
L 244.987813 0 
L 0 0 
z
" style="fill: #ffffff"/>
  </g>
  <g id="axes_1">
   <g id="patch_2">
    <path d="M 40.617813 234.772017 
L 237.787813 234.772017 
L 237.787813 24.477373 
L 40.617813 24.477373 
z
" style="fill: #ffffff"/>
   </g>
   <g id="line2d_1">
    <path d="M 40.617813 234.772017 
L 237.787813 234.772017 
" clip-path="url(#p817c555dc9)" style="fill: none; stroke: #000000; stroke-width: 0.5; stroke-linecap: round"/>
   </g>
   <g id="patch_3">
    <path d="M 50.515683 234.772017 
L 50.515683 24.477373 
L 57.671237 24.477373 
L 57.671237 234.772017 
L 50.515683 234.772017 
z
" clip-path="url(#p817c555dc9)" style="fill: #add8e6"/>
   </g>
   <g id="patch_4">
    <path d="M 79.049907 234.772017 
L 79.049907 229.631202 
L 68.987597 229.631202 
L 68.987597 228.584399 
L 95.938892 228.584399 
L 95.938892 229.631202 
L 85.898794 229.631202 
L 85.898794 234.772017 
L 79.049907 234.772017 
z
" clip-path="url(#p817c555dc9)" style="fill: #a0522d"/>
   </g>
   <g id="patch_5">
    <path d="M 68.987597 222.396782 
L 80.848974 222.396782 
Q 84.863594 222.396782 86.969164 222.514294 
Q 89.797646 222.675029 91.811975 223.084295 
Q 93.833322 223.493561 94.886107 224.086524 
Q 95.938892 224.679488 95.938892 225.549347 
Q 95.938892 226.313851 94.956292 226.866292 
Q 93.749099 227.541649 91.510176 227.959019 
Q 89.818702 228.276437 86.948108 228.45338 
Q 84.800427 228.584399 81.199902 228.584399 
L 68.987597 228.584399 
L 68.987597 222.396782 
z
M 75.479771 223.443585 
L 75.479771 227.541649 
L 80.322581 227.541649 
Q 83.045785 227.541649 84.252979 227.482217 
Q 85.832156 227.406577 86.870904 227.225582 
Q 87.909652 227.043236 88.569397 226.628567 
Q 89.229142 226.212547 89.229142 225.493968 
Q 89.229142 224.776739 88.569397 224.393136 
Q 87.909652 224.008183 86.723514 223.79342 
Q 85.544395 223.578656 83.726586 223.501666 
Q 82.364984 223.443585 78.392476 223.443585 
L 75.479771 223.443585 
z
" clip-path="url(#p817c555dc9)" style="fill: #c71585"/>
   </g>
   <g id="patch_6">
    <path d="M 69.989374 222.396782 
L 69.989374 210.021548 
L 77.144927 210.021548 
L 77.144927 220.2943 
L 94.937114 220.2943 
L 94.937114 222.396782 
L 69.989374 222.396782 
z
" clip-path="url(#p817c555dc9)" style="fill: #adff2f"/>
   </g>
   <g id="patch_7">
    <path d="M 91.612438 207.506846 
Q 93.603424 208.094416 95.938892 208.442605 
L 93.947906 210.021548 
Q 92.727624 209.871633 91.55989 209.608073 
Q 91.302989 209.554877 87.96327 208.623954 
Q 85.335869 209.100297 82.142117 209.100297 
Q 75.976483 209.100297 72.479121 207.596311 
Q 68.987597 206.092326 68.987597 203.372096 
Q 68.987597 200.65912 72.490798 199.152717 
Q 75.993999 197.646314 81.996151 197.646314 
Q 87.945754 197.646314 91.431439 199.152717 
Q 94.917125 200.65912 94.917125 203.372096 
Q 94.917125 204.808378 93.947906 205.89647 
Q 93.218072 206.728256 91.612438 207.506846 
z
M 87.268469 206.244659 
Q 88.31359 205.736883 88.833232 205.02116 
Q 89.352873 204.303019 89.352873 203.372096 
Q 89.352873 201.454636 87.309339 200.506787 
Q 85.265805 199.55652 81.961119 199.55652 
Q 78.656432 199.55652 76.601221 200.509205 
Q 74.551848 201.46189 74.551848 203.372096 
Q 74.551848 205.313736 76.601221 206.278511 
Q 78.656432 207.240868 81.797636 207.240868 
Q 82.96537 207.240868 84.004653 207.083699 
Q 82.363987 206.636372 80.664934 206.38732 
L 82.182988 205.110626 
Q 84.845421 205.487831 87.268469 206.244659 
z
" clip-path="url(#p817c555dc9)" style="fill: #0000ff"/>
   </g>
   <g id="patch_8">
    <path d="M 83.397262 186.138417 
L 83.397262 181.096364 
L 95.938892 181.096364 
L 95.938892 193.015724 
Q 94.108594 194.850979 90.636688 196.248646 
Q 87.171072 197.646314 83.611111 197.646314 
Q 79.095118 197.646314 75.730138 195.680436 
Q 72.371447 193.708027 70.679522 190.044048 
Q 68.987597 186.38007 68.987597 182.076038 
Q 68.987597 177.39973 70.874502 173.768407 
Q 72.761407 170.137085 76.396844 168.197331 
Q 79.170595 166.708228 83.296627 166.708228 
Q 88.661728 166.708228 91.680776 169.046382 
Q 94.699824 171.378004 95.561511 175.499164 
L 89.787581 176.622523 
Q 89.177482 174.421523 87.491846 173.147948 
Q 85.812501 171.867841 83.296627 171.867841 
Q 79.485079 171.867841 77.233372 174.382336 
Q 74.981665 176.8903 74.981665 181.827854 
Q 74.981665 187.157277 77.258531 189.821989 
Q 79.541686 192.480169 83.24002 192.480169 
Q 85.070318 192.480169 86.906906 191.735617 
Q 88.743493 190.991066 90.058037 189.933018 
L 90.058037 186.138417 
L 83.397262 186.138417 
z
" clip-path="url(#p817c555dc9)" style="fill: #ff69b4"/>
   </g>
   <g id="patch_9">
    <path d="M 68.987597 166.708228 
L 78.897371 144.101341 
L 69.917825 123.394908 
L 76.75848 123.394908 
L 82.573986 137.312656 
L 88.269258 123.394908 
L 95.05296 123.394908 
L 86.035446 144.432266 
L 95.938892 166.708228 
L 88.883082 166.708228 
L 82.453752 151.73152 
L 76.005438 166.708228 
L 68.987597 166.708228 
z
" clip-path="url(#p817c555dc9)" style="fill: #bdb76b"/>
   </g>
   <g id="patch_10">
    <path d="M 97.357381 234.772017 
L 97.357381 233.523623 
L 114.779416 229.074912 
L 99.326954 229.074912 
L 99.326954 227.914834 
L 123.606291 227.914834 
L 123.606291 228.98959 
L 105.431184 233.616429 
L 124.308676 233.616429 
L 124.308676 234.772017 
L 97.357381 234.772017 
z
" clip-path="url(#p817c555dc9)" style="fill: #dda0dd"/>
   </g>
   <g id="patch_11">
    <path d="M 98.359158 227.914834 
L 98.359158 214.200469 
L 105.514712 214.200469 
L 105.514712 225.584841 
L 123.306898 225.584841 
L 123.306898 227.914834 
L 98.359158 227.914834 
z
" clip-path="url(#p817c555dc9)" style="fill: #adff2f"/>
   </g>
   <g id="patch_12">
    <path d="M 107.419691 214.200469 
L 107.419691 197.109155 
L 97.357381 197.109155 
L 97.357381 193.628922 
L 124.308676 193.628922 
L 124.308676 197.109155 
L 114.268578 197.109155 
L 114.268578 214.200469 
L 107.419691 214.200469 
z
" clip-path="url(#p817c555dc9)" style="fill: #a0522d"/>
   </g>
   <g id="patch_13">
    <path d="M 119.982222 186.661875 
Q 121.973208 188.289752 124.308676 189.25442 
L 122.31769 193.628922 
Q 121.097408 193.213579 119.929674 192.483379 
Q 119.672773 192.335999 116.333054 189.756851 
Q 113.705653 191.076571 110.511902 191.076571 
Q 104.346267 191.076571 100.848905 186.909741 
Q 97.357381 182.74291 97.357381 175.206441 
Q 97.357381 167.690069 100.860582 163.516539 
Q 104.363783 159.34301 110.365935 159.34301 
Q 116.315538 159.34301 119.801224 163.516539 
Q 123.286909 167.690069 123.286909 175.206441 
Q 123.286909 179.185697 122.31769 182.200285 
Q 121.587856 184.50477 119.982222 186.661875 
z
M 115.638253 183.164953 
Q 116.683374 181.758145 117.203016 179.775216 
Q 117.722657 177.785588 117.722657 175.206441 
Q 117.722657 169.894067 115.679123 167.268026 
Q 113.635589 164.635286 110.330903 164.635286 
Q 107.026216 164.635286 104.971005 167.274725 
Q 102.921632 169.914165 102.921632 175.206441 
Q 102.921632 180.585805 104.971005 183.25874 
Q 107.026216 185.924975 110.16742 185.924975 
Q 111.335154 185.924975 112.374437 185.489535 
Q 110.733771 184.250204 109.034718 183.560199 
L 110.552772 180.023082 
Q 113.215205 181.068139 115.638253 183.164953 
z
" clip-path="url(#p817c555dc9)" style="fill: #0000ff"/>
   </g>
   <g id="patch_14">
    <path d="M 97.357381 159.34301 
L 97.357381 118.199915 
L 105.792984 118.199915 
L 110.854346 146.266314 
L 115.860891 118.199915 
L 124.308676 118.199915 
L 124.308676 159.34301 
L 119.076775 159.34301 
L 119.076775 126.956632 
L 113.534249 159.34301 
L 108.113536 159.34301 
L 102.595373 126.956632 
L 102.595373 159.34301 
L 97.357381 159.34301 
z
" clip-path="url(#p817c555dc9)" style="fill: #ff8c00"/>
   </g>
   <g id="patch_15">
    <path d="M 125.727165 230.000574 
Q 125.727165 228.573829 127.000741 227.605681 
Q 127.946826 226.892309 129.584281 226.325687 
Q 131.221736 225.759065 133.174553 225.485946 
Q 135.770222 225.11703 139.166425 225.11703 
Q 145.303848 225.11703 148.991154 226.397024 
Q 152.67846 227.677018 152.67846 229.957772 
Q 152.67846 232.218143 149.021477 233.496099 
Q 145.364495 234.772017 139.2392 234.772017 
Q 133.04113 234.772017 129.384148 233.502214 
Q 125.727165 232.230373 125.727165 230.000574 
z
M 131.506774 229.93739 
Q 131.506774 231.523115 133.683983 232.342474 
Q 135.867256 233.159795 139.221006 233.159795 
Q 142.574757 233.159795 144.727707 232.348589 
Q 146.880657 231.537382 146.880657 229.912931 
Q 146.880657 228.306824 144.782289 227.518038 
Q 142.689985 226.727214 139.221006 226.727214 
Q 135.752028 226.727214 133.629401 227.528229 
Q 131.506774 228.327206 131.506774 229.93739 
z
" clip-path="url(#p817c555dc9)" style="fill: #006400"/>
   </g>
   <g id="patch_16">
    <path d="M 135.789475 225.11703 
L 135.789475 176.987524 
L 125.727165 176.987524 
L 125.727165 167.187112 
L 152.67846 167.187112 
L 152.67846 176.987524 
L 142.638362 176.987524 
L 142.638362 225.11703 
L 135.789475 225.11703 
z
" clip-path="url(#p817c555dc9)" style="fill: #a0522d"/>
   </g>
   <g id="patch_17">
    <path d="M 148.352006 149.529693 
Q 150.342992 153.655417 152.67846 156.10029 
L 150.687474 167.187112 
Q 149.467192 166.134459 148.299458 164.283825 
Q 148.042557 163.910303 144.702838 157.373662 
Q 142.075438 160.718385 138.881686 160.718385 
Q 132.716052 160.718385 129.218689 150.15789 
Q 125.727165 139.597395 125.727165 120.496821 
Q 125.727165 101.447182 129.230366 90.869709 
Q 132.733568 80.292236 138.735719 80.292236 
Q 144.685322 80.292236 148.171008 90.869709 
Q 151.656693 101.447182 151.656693 120.496821 
Q 151.656693 130.581924 150.687474 138.222153 
Q 149.95764 144.062684 148.352006 149.529693 
z
M 144.008037 140.667027 
Q 145.053159 137.101586 145.5728 132.076013 
Q 146.092442 127.033462 146.092442 120.496821 
Q 146.092442 107.033039 144.048908 100.37755 
Q 142.005374 93.705083 138.700687 93.705083 
Q 135.396 93.705083 133.340789 100.394528 
Q 131.291416 107.083974 131.291416 120.496821 
Q 131.291416 134.130386 133.340789 140.904723 
Q 135.396 147.662081 138.537204 147.662081 
Q 139.704938 147.662081 140.744221 146.558493 
Q 139.103555 143.417509 137.404503 141.668746 
L 138.922556 132.70421 
Q 141.584989 135.352823 144.008037 140.667027 
z
" clip-path="url(#p817c555dc9)" style="fill: #0000ff"/>
   </g>
   <g id="patch_18">
    <path d="M 171.780836 225.354365 
L 178.913182 225.354365 
L 178.913182 231.216393 
Q 178.913182 232.364542 178.139608 232.985109 
Q 177.095284 233.793664 174.364571 234.28284 
Q 171.633857 234.772017 167.162603 234.772017 
Q 161.917776 234.772017 159.086497 234.00591 
Q 156.262955 233.237782 156.232012 231.752061 
L 162.977571 231.549922 
Q 163.101343 232.34635 163.874916 232.675836 
Q 165.035276 233.173098 167.402411 233.173098 
Q 169.800488 233.173098 170.790662 232.817333 
Q 171.780836 232.459548 171.780836 231.335655 
L 171.780836 225.354365 
z
" clip-path="url(#p817c555dc9)" style="fill: #7b68ee"/>
   </g>
   <g id="patch_19">
    <path d="M 154.096949 225.354365 
L 154.096949 215.936714 
L 180.375235 215.936714 
L 180.375235 217.529964 
L 161.252503 217.529964 
L 161.252503 219.616608 
L 179.044689 219.616608 
L 179.044689 221.203691 
L 161.252503 221.203691 
L 161.252503 223.767282 
L 181.048244 223.767282 
L 181.048244 225.354365 
L 154.096949 225.354365 
z
" clip-path="url(#p817c555dc9)" style="fill: #c0c0c0"/>
   </g>
   <g id="patch_20">
    <path d="M 154.096949 215.936714 
L 164.006723 211.02128 
L 155.027177 206.519062 
L 161.867832 206.519062 
L 167.683338 209.54521 
L 173.378611 206.519062 
L 180.162313 206.519062 
L 171.144798 211.093233 
L 181.048244 215.936714 
L 173.992434 215.936714 
L 167.563105 212.680316 
L 161.11479 215.936714 
L 154.096949 215.936714 
z
" clip-path="url(#p817c555dc9)" style="fill: #bdb76b"/>
   </g>
   <g id="patch_21">
    <path d="M 176.721791 200.777939 
Q 178.712777 202.119374 181.048244 202.914299 
L 179.057258 206.519062 
Q 177.836976 206.176803 176.669243 205.575089 
Q 176.412341 205.453642 173.072623 203.328322 
Q 170.445222 204.415824 167.25147 204.415824 
Q 161.085836 204.415824 157.588473 200.98219 
Q 154.096949 197.548556 154.096949 191.338206 
Q 154.096949 185.144416 157.60015 181.705262 
Q 161.103352 178.266108 167.105503 178.266108 
Q 173.055107 178.266108 176.540792 181.705262 
Q 180.026477 185.144416 180.026477 191.338206 
Q 180.026477 194.617271 179.057258 197.101411 
Q 178.327425 199.000398 176.721791 200.777939 
z
M 172.377821 197.896336 
Q 173.422943 196.737071 173.942584 195.103058 
Q 174.462226 193.463526 174.462226 191.338206 
Q 174.462226 186.960599 172.418692 184.796637 
Q 170.375158 182.627154 167.070471 182.627154 
Q 163.765785 182.627154 161.710573 184.802157 
Q 159.661201 186.97716 159.661201 191.338206 
Q 159.661201 195.771016 161.710573 197.97362 
Q 163.765785 200.170704 166.906988 200.170704 
Q 168.074722 200.170704 169.114005 199.811884 
Q 167.473339 198.790626 165.774287 198.222034 
L 167.292341 195.30731 
Q 169.954774 196.168478 172.377821 197.896336 
z
" clip-path="url(#p817c555dc9)" style="fill: #0000ff"/>
   </g>
   <g id="patch_22">
    <path d="M 164.15926 178.266108 
L 164.15926 115.6709 
L 154.096949 115.6709 
L 154.096949 102.924897 
L 181.048244 102.924897 
L 181.048244 115.6709 
L 171.008146 115.6709 
L 171.008146 178.266108 
L 164.15926 178.266108 
z
" clip-path="url(#p817c555dc9)" style="fill: #a0522d"/>
   </g>
   <g id="patch_23">
    <path d="M 192.529044 234.772017 
L 192.529044 224.353298 
L 182.466733 224.353298 
L 182.466733 222.231778 
L 209.418028 222.231778 
L 209.418028 224.353298 
L 199.377931 224.353298 
L 199.377931 234.772017 
L 192.529044 234.772017 
z
" clip-path="url(#p817c555dc9)" style="fill: #a0522d"/>
   </g>
   <g id="patch_24">
    <path d="M 182.466733 222.231778 
L 192.376507 215.686545 
L 183.396961 209.691539 
L 190.237616 209.691539 
L 196.053122 213.721059 
L 201.748395 209.691539 
L 208.532097 209.691539 
L 199.514582 215.782356 
L 209.418028 222.231778 
L 202.362219 222.231778 
L 195.932889 217.895664 
L 189.484575 222.231778 
L 182.466733 222.231778 
z
" clip-path="url(#p817c555dc9)" style="fill: #bdb76b"/>
   </g>
   <g id="patch_25">
    <path d="M 205.091575 202.046845 
Q 207.082561 203.833058 209.418028 204.891554 
L 207.427042 209.691539 
Q 206.206761 209.235798 205.039027 208.434575 
Q 204.782125 208.272861 201.442407 205.442854 
Q 198.815006 206.890935 195.621254 206.890935 
Q 189.45562 206.890935 185.958257 202.31882 
Q 182.466733 197.746705 182.466733 189.477204 
Q 182.466733 181.229755 185.969935 176.650289 
Q 189.473136 172.070824 195.475287 172.070824 
Q 201.424891 172.070824 204.910576 176.650289 
Q 208.396261 181.229755 208.396261 189.477204 
Q 208.396261 193.843501 207.427042 197.151301 
Q 206.697209 199.67993 205.091575 202.046845 
z
M 200.747605 198.209797 
Q 201.792727 196.666157 202.312368 194.490359 
Q 202.83201 192.307211 202.83201 189.477204 
Q 202.83201 183.648125 200.788476 180.766663 
Q 198.744942 177.877851 195.440255 177.877851 
Q 192.135569 177.877851 190.080357 180.774014 
Q 188.030985 183.670177 188.030985 189.477204 
Q 188.030985 195.37979 190.080357 198.312706 
Q 192.135569 201.238272 195.276773 201.238272 
Q 196.444506 201.238272 197.483789 200.760479 
Q 195.843123 199.400605 194.144071 198.643486 
L 195.662125 194.762334 
Q 198.324558 195.909038 200.747605 198.209797 
z
" clip-path="url(#p817c555dc9)" style="fill: #0000ff"/>
   </g>
   <g id="patch_26">
    <path d="M 200.15062 96.829392 
L 207.282966 96.829392 
L 207.282966 143.663509 
Q 207.282966 152.836536 206.509393 157.794493 
Q 205.465069 164.254371 202.734355 168.162597 
Q 200.003641 172.070824 195.532387 172.070824 
Q 190.28756 172.070824 187.456281 165.950089 
Q 184.632739 159.813205 184.601796 147.943179 
L 191.347355 146.328209 
Q 191.471127 152.691189 192.2447 155.323589 
Q 193.40506 159.296415 195.772195 159.296415 
Q 198.170272 159.296415 199.160446 156.454068 
Q 200.15062 153.595572 200.15062 144.616341 
L 200.15062 96.829392 
z
" clip-path="url(#p817c555dc9)" style="fill: #7b68ee"/>
   </g>
   <g id="patch_27">
    <path d="M 228.520404 151.994373 
L 235.65275 151.994373 
L 235.65275 203.519414 
Q 235.65275 213.611215 234.879177 219.065763 
Q 233.834853 226.172665 231.104139 230.472341 
Q 228.373425 234.772017 223.902171 234.772017 
Q 218.657344 234.772017 215.826066 228.038227 
Q 213.002523 221.28667 212.97158 208.227737 
L 219.717139 206.451011 
Q 219.840911 213.45131 220.614484 216.347372 
Q 221.774844 220.718117 224.141979 220.718117 
Q 226.540056 220.718117 227.53023 217.59108 
Q 228.520404 214.446276 228.520404 204.567682 
L 228.520404 151.994373 
z
" clip-path="url(#p817c555dc9)" style="fill: #7b68ee"/>
   </g>
   <g id="patch_28">
    <path d="M 220.898828 151.994373 
L 220.898828 83.220805 
L 210.836518 83.220805 
L 210.836518 69.216729 
L 237.787813 69.216729 
L 237.787813 83.220805 
L 227.747715 83.220805 
L 227.747715 151.994373 
L 220.898828 151.994373 
z
" clip-path="url(#p817c555dc9)" style="fill: #a0522d"/>
   </g>
   <g id="matplotlib.axis_1">
    <g id="xtick_1">
     <g id="line2d_2">
      <path d="M 54.09346 234.772017 
L 54.09346 24.477373 
" clip-path="url(#p817c555dc9)" style="fill: none; stroke: #cccccc; stroke-width: 0.8; stroke-linecap: round"/>
     </g>
     <g id="text_1">
      <!-- 0 -->
      <g style="fill: #262626" transform="translate(50.200804 251.792954) scale(0.14 -0.14)">
       <defs>
        <path id="ArialMT-30" d="M 266 2259 
Q 266 3072 433 3567 
Q 600 4063 929 4331 
Q 1259 4600 1759 4600 
Q 2128 4600 2406 4451 
Q 2684 4303 2865 4023 
Q 3047 3744 3150 3342 
Q 3253 2941 3253 2259 
Q 3253 1453 3087 958 
Q 2922 463 2592 192 
Q 2263 -78 1759 -78 
Q 1097 -78 719 397 
Q 266 969 266 2259 
z
M 844 2259 
Q 844 1131 1108 757 
Q 1372 384 1759 384 
Q 2147 384 2411 759 
Q 2675 1134 2675 2259 
Q 2675 3391 2411 3762 
Q 2147 4134 1753 4134 
Q 1366 4134 1134 3806 
Q 844 3388 844 2259 
z
" transform="scale(0.015625)"/>
       </defs>
       <use xlink:href="#ArialMT-30"/>
      </g>
     </g>
    </g>
    <g id="xtick_2">
     <g id="line2d_3">
      <path d="M 82.463244 234.772017 
L 82.463244 24.477373 
" clip-path="url(#p817c555dc9)" style="fill: none; stroke: #cccccc; stroke-width: 0.8; stroke-linecap: round"/>
     </g>
     <g id="text_2">
      <!-- 1 -->
      <g style="fill: #262626" transform="translate(78.570588 251.792954) scale(0.14 -0.14)">
       <defs>
        <path id="ArialMT-31" d="M 2384 0 
L 1822 0 
L 1822 3584 
Q 1619 3391 1289 3197 
Q 959 3003 697 2906 
L 697 3450 
Q 1169 3672 1522 3987 
Q 1875 4303 2022 4600 
L 2384 4600 
L 2384 0 
z
" transform="scale(0.015625)"/>
       </defs>
       <use xlink:href="#ArialMT-31"/>
      </g>
     </g>
    </g>
    <g id="xtick_3">
     <g id="line2d_4">
      <path d="M 110.833028 234.772017 
L 110.833028 24.477373 
" clip-path="url(#p817c555dc9)" style="fill: none; stroke: #cccccc; stroke-width: 0.8; stroke-linecap: round"/>
     </g>
     <g id="text_3">
      <!-- 2 -->
      <g style="fill: #262626" transform="translate(106.940372 251.792954) scale(0.14 -0.14)">
       <defs>
        <path id="ArialMT-32" d="M 3222 541 
L 3222 0 
L 194 0 
Q 188 203 259 391 
Q 375 700 629 1000 
Q 884 1300 1366 1694 
Q 2113 2306 2375 2664 
Q 2638 3022 2638 3341 
Q 2638 3675 2398 3904 
Q 2159 4134 1775 4134 
Q 1369 4134 1125 3890 
Q 881 3647 878 3216 
L 300 3275 
Q 359 3922 746 4261 
Q 1134 4600 1788 4600 
Q 2447 4600 2831 4234 
Q 3216 3869 3216 3328 
Q 3216 3053 3103 2787 
Q 2991 2522 2730 2228 
Q 2469 1934 1863 1422 
Q 1356 997 1212 845 
Q 1069 694 975 541 
L 3222 541 
z
" transform="scale(0.015625)"/>
       </defs>
       <use xlink:href="#ArialMT-32"/>
      </g>
     </g>
    </g>
    <g id="xtick_4">
     <g id="line2d_5">
      <path d="M 139.202813 234.772017 
L 139.202813 24.477373 
" clip-path="url(#p817c555dc9)" style="fill: none; stroke: #cccccc; stroke-width: 0.8; stroke-linecap: round"/>
     </g>
     <g id="text_4">
      <!-- 3 -->
      <g style="fill: #262626" transform="translate(135.310156 251.792954) scale(0.14 -0.14)">
       <defs>
        <path id="ArialMT-33" d="M 269 1209 
L 831 1284 
Q 928 806 1161 595 
Q 1394 384 1728 384 
Q 2125 384 2398 659 
Q 2672 934 2672 1341 
Q 2672 1728 2419 1979 
Q 2166 2231 1775 2231 
Q 1616 2231 1378 2169 
L 1441 2663 
Q 1497 2656 1531 2656 
Q 1891 2656 2178 2843 
Q 2466 3031 2466 3422 
Q 2466 3731 2256 3934 
Q 2047 4138 1716 4138 
Q 1388 4138 1169 3931 
Q 950 3725 888 3313 
L 325 3413 
Q 428 3978 793 4289 
Q 1159 4600 1703 4600 
Q 2078 4600 2393 4439 
Q 2709 4278 2876 4000 
Q 3044 3722 3044 3409 
Q 3044 3113 2884 2869 
Q 2725 2625 2413 2481 
Q 2819 2388 3044 2092 
Q 3269 1797 3269 1353 
Q 3269 753 2831 336 
Q 2394 -81 1725 -81 
Q 1122 -81 723 278 
Q 325 638 269 1209 
z
" transform="scale(0.015625)"/>
       </defs>
       <use xlink:href="#ArialMT-33"/>
      </g>
     </g>
    </g>
    <g id="xtick_5">
     <g id="line2d_6">
      <path d="M 167.572597 234.772017 
L 167.572597 24.477373 
" clip-path="url(#p817c555dc9)" style="fill: none; stroke: #cccccc; stroke-width: 0.8; stroke-linecap: round"/>
     </g>
     <g id="text_5">
      <!-- 4 -->
      <g style="fill: #262626" transform="translate(163.67994 251.792954) scale(0.14 -0.14)">
       <defs>
        <path id="ArialMT-34" d="M 2069 0 
L 2069 1097 
L 81 1097 
L 81 1613 
L 2172 4581 
L 2631 4581 
L 2631 1613 
L 3250 1613 
L 3250 1097 
L 2631 1097 
L 2631 0 
L 2069 0 
z
M 2069 1613 
L 2069 3678 
L 634 1613 
L 2069 1613 
z
" transform="scale(0.015625)"/>
       </defs>
       <use xlink:href="#ArialMT-34"/>
      </g>
     </g>
    </g>
    <g id="xtick_6">
     <g id="line2d_7">
      <path d="M 195.942381 234.772017 
L 195.942381 24.477373 
" clip-path="url(#p817c555dc9)" style="fill: none; stroke: #cccccc; stroke-width: 0.8; stroke-linecap: round"/>
     </g>
     <g id="text_6">
      <!-- 5 -->
      <g style="fill: #262626" transform="translate(192.049725 251.792954) scale(0.14 -0.14)">
       <defs>
        <path id="ArialMT-35" d="M 266 1200 
L 856 1250 
Q 922 819 1161 601 
Q 1400 384 1738 384 
Q 2144 384 2425 690 
Q 2706 997 2706 1503 
Q 2706 1984 2436 2262 
Q 2166 2541 1728 2541 
Q 1456 2541 1237 2417 
Q 1019 2294 894 2097 
L 366 2166 
L 809 4519 
L 3088 4519 
L 3088 3981 
L 1259 3981 
L 1013 2750 
Q 1425 3038 1878 3038 
Q 2478 3038 2890 2622 
Q 3303 2206 3303 1553 
Q 3303 931 2941 478 
Q 2500 -78 1738 -78 
Q 1113 -78 717 272 
Q 322 622 266 1200 
z
" transform="scale(0.015625)"/>
       </defs>
       <use xlink:href="#ArialMT-35"/>
      </g>
     </g>
    </g>
    <g id="xtick_7">
     <g id="line2d_8">
      <path d="M 224.312165 234.772017 
L 224.312165 24.477373 
" clip-path="url(#p817c555dc9)" style="fill: none; stroke: #cccccc; stroke-width: 0.8; stroke-linecap: round"/>
     </g>
     <g id="text_7">
      <!-- 6 -->
      <g style="fill: #262626" transform="translate(220.419509 251.792954) scale(0.14 -0.14)">
       <defs>
        <path id="ArialMT-36" d="M 3184 3459 
L 2625 3416 
Q 2550 3747 2413 3897 
Q 2184 4138 1850 4138 
Q 1581 4138 1378 3988 
Q 1113 3794 959 3422 
Q 806 3050 800 2363 
Q 1003 2672 1297 2822 
Q 1591 2972 1913 2972 
Q 2475 2972 2870 2558 
Q 3266 2144 3266 1488 
Q 3266 1056 3080 686 
Q 2894 316 2569 119 
Q 2244 -78 1831 -78 
Q 1128 -78 684 439 
Q 241 956 241 2144 
Q 241 3472 731 4075 
Q 1159 4600 1884 4600 
Q 2425 4600 2770 4297 
Q 3116 3994 3184 3459 
z
M 888 1484 
Q 888 1194 1011 928 
Q 1134 663 1356 523 
Q 1578 384 1822 384 
Q 2178 384 2434 671 
Q 2691 959 2691 1453 
Q 2691 1928 2437 2201 
Q 2184 2475 1800 2475 
Q 1419 2475 1153 2201 
Q 888 1928 888 1484 
z
" transform="scale(0.015625)"/>
       </defs>
       <use xlink:href="#ArialMT-36"/>
      </g>
     </g>
    </g>
    <g id="text_8">
     <!-- Original Position -->
     <g style="fill: #262626" transform="translate(80.955312 270.232954) scale(0.16 -0.16)">
      <defs>
       <path id="ArialMT-4f" d="M 309 2231 
Q 309 3372 921 4017 
Q 1534 4663 2503 4663 
Q 3138 4663 3647 4359 
Q 4156 4056 4423 3514 
Q 4691 2972 4691 2284 
Q 4691 1588 4409 1038 
Q 4128 488 3612 205 
Q 3097 -78 2500 -78 
Q 1853 -78 1343 234 
Q 834 547 571 1087 
Q 309 1628 309 2231 
z
M 934 2222 
Q 934 1394 1379 917 
Q 1825 441 2497 441 
Q 3181 441 3623 922 
Q 4066 1403 4066 2288 
Q 4066 2847 3877 3264 
Q 3688 3681 3323 3911 
Q 2959 4141 2506 4141 
Q 1863 4141 1398 3698 
Q 934 3256 934 2222 
z
" transform="scale(0.015625)"/>
       <path id="ArialMT-72" d="M 416 0 
L 416 3319 
L 922 3319 
L 922 2816 
Q 1116 3169 1280 3281 
Q 1444 3394 1641 3394 
Q 1925 3394 2219 3213 
L 2025 2691 
Q 1819 2813 1613 2813 
Q 1428 2813 1281 2702 
Q 1134 2591 1072 2394 
Q 978 2094 978 1738 
L 978 0 
L 416 0 
z
" transform="scale(0.015625)"/>
       <path id="ArialMT-69" d="M 425 3934 
L 425 4581 
L 988 4581 
L 988 3934 
L 425 3934 
z
M 425 0 
L 425 3319 
L 988 3319 
L 988 0 
L 425 0 
z
" transform="scale(0.015625)"/>
       <path id="ArialMT-67" d="M 319 -275 
L 866 -356 
Q 900 -609 1056 -725 
Q 1266 -881 1628 -881 
Q 2019 -881 2231 -725 
Q 2444 -569 2519 -288 
Q 2563 -116 2559 434 
Q 2191 0 1641 0 
Q 956 0 581 494 
Q 206 988 206 1678 
Q 206 2153 378 2554 
Q 550 2956 876 3175 
Q 1203 3394 1644 3394 
Q 2231 3394 2613 2919 
L 2613 3319 
L 3131 3319 
L 3131 450 
Q 3131 -325 2973 -648 
Q 2816 -972 2473 -1159 
Q 2131 -1347 1631 -1347 
Q 1038 -1347 672 -1080 
Q 306 -813 319 -275 
z
M 784 1719 
Q 784 1066 1043 766 
Q 1303 466 1694 466 
Q 2081 466 2343 764 
Q 2606 1063 2606 1700 
Q 2606 2309 2336 2618 
Q 2066 2928 1684 2928 
Q 1309 2928 1046 2623 
Q 784 2319 784 1719 
z
" transform="scale(0.015625)"/>
       <path id="ArialMT-6e" d="M 422 0 
L 422 3319 
L 928 3319 
L 928 2847 
Q 1294 3394 1984 3394 
Q 2284 3394 2536 3286 
Q 2788 3178 2913 3003 
Q 3038 2828 3088 2588 
Q 3119 2431 3119 2041 
L 3119 0 
L 2556 0 
L 2556 2019 
Q 2556 2363 2490 2533 
Q 2425 2703 2258 2804 
Q 2091 2906 1866 2906 
Q 1506 2906 1245 2678 
Q 984 2450 984 1813 
L 984 0 
L 422 0 
z
" transform="scale(0.015625)"/>
       <path id="ArialMT-61" d="M 2588 409 
Q 2275 144 1986 34 
Q 1697 -75 1366 -75 
Q 819 -75 525 192 
Q 231 459 231 875 
Q 231 1119 342 1320 
Q 453 1522 633 1644 
Q 813 1766 1038 1828 
Q 1203 1872 1538 1913 
Q 2219 1994 2541 2106 
Q 2544 2222 2544 2253 
Q 2544 2597 2384 2738 
Q 2169 2928 1744 2928 
Q 1347 2928 1158 2789 
Q 969 2650 878 2297 
L 328 2372 
Q 403 2725 575 2942 
Q 747 3159 1072 3276 
Q 1397 3394 1825 3394 
Q 2250 3394 2515 3294 
Q 2781 3194 2906 3042 
Q 3031 2891 3081 2659 
Q 3109 2516 3109 2141 
L 3109 1391 
Q 3109 606 3145 398 
Q 3181 191 3288 0 
L 2700 0 
Q 2613 175 2588 409 
z
M 2541 1666 
Q 2234 1541 1622 1453 
Q 1275 1403 1131 1340 
Q 988 1278 909 1158 
Q 831 1038 831 891 
Q 831 666 1001 516 
Q 1172 366 1500 366 
Q 1825 366 2078 508 
Q 2331 650 2450 897 
Q 2541 1088 2541 1459 
L 2541 1666 
z
" transform="scale(0.015625)"/>
       <path id="ArialMT-6c" d="M 409 0 
L 409 4581 
L 972 4581 
L 972 0 
L 409 0 
z
" transform="scale(0.015625)"/>
       <path id="ArialMT-20" transform="scale(0.015625)"/>
       <path id="ArialMT-50" d="M 494 0 
L 494 4581 
L 2222 4581 
Q 2678 4581 2919 4538 
Q 3256 4481 3484 4323 
Q 3713 4166 3852 3881 
Q 3991 3597 3991 3256 
Q 3991 2672 3619 2267 
Q 3247 1863 2275 1863 
L 1100 1863 
L 1100 0 
L 494 0 
z
M 1100 2403 
L 2284 2403 
Q 2872 2403 3119 2622 
Q 3366 2841 3366 3238 
Q 3366 3525 3220 3729 
Q 3075 3934 2838 4000 
Q 2684 4041 2272 4041 
L 1100 4041 
L 1100 2403 
z
" transform="scale(0.015625)"/>
       <path id="ArialMT-6f" d="M 213 1659 
Q 213 2581 725 3025 
Q 1153 3394 1769 3394 
Q 2453 3394 2887 2945 
Q 3322 2497 3322 1706 
Q 3322 1066 3130 698 
Q 2938 331 2570 128 
Q 2203 -75 1769 -75 
Q 1072 -75 642 372 
Q 213 819 213 1659 
z
M 791 1659 
Q 791 1022 1069 705 
Q 1347 388 1769 388 
Q 2188 388 2466 706 
Q 2744 1025 2744 1678 
Q 2744 2294 2464 2611 
Q 2184 2928 1769 2928 
Q 1347 2928 1069 2612 
Q 791 2297 791 1659 
z
" transform="scale(0.015625)"/>
       <path id="ArialMT-73" d="M 197 991 
L 753 1078 
Q 800 744 1014 566 
Q 1228 388 1613 388 
Q 2000 388 2187 545 
Q 2375 703 2375 916 
Q 2375 1106 2209 1216 
Q 2094 1291 1634 1406 
Q 1016 1563 777 1677 
Q 538 1791 414 1992 
Q 291 2194 291 2438 
Q 291 2659 392 2848 
Q 494 3038 669 3163 
Q 800 3259 1026 3326 
Q 1253 3394 1513 3394 
Q 1903 3394 2198 3281 
Q 2494 3169 2634 2976 
Q 2775 2784 2828 2463 
L 2278 2388 
Q 2241 2644 2061 2787 
Q 1881 2931 1553 2931 
Q 1166 2931 1000 2803 
Q 834 2675 834 2503 
Q 834 2394 903 2306 
Q 972 2216 1119 2156 
Q 1203 2125 1616 2013 
Q 2213 1853 2448 1751 
Q 2684 1650 2818 1456 
Q 2953 1263 2953 975 
Q 2953 694 2789 445 
Q 2625 197 2315 61 
Q 2006 -75 1616 -75 
Q 969 -75 630 194 
Q 291 463 197 991 
z
" transform="scale(0.015625)"/>
       <path id="ArialMT-74" d="M 1650 503 
L 1731 6 
Q 1494 -44 1306 -44 
Q 1000 -44 831 53 
Q 663 150 594 308 
Q 525 466 525 972 
L 525 2881 
L 113 2881 
L 113 3319 
L 525 3319 
L 525 4141 
L 1084 4478 
L 1084 3319 
L 1650 3319 
L 1650 2881 
L 1084 2881 
L 1084 941 
Q 1084 700 1114 631 
Q 1144 563 1211 522 
Q 1278 481 1403 481 
Q 1497 481 1650 503 
z
" transform="scale(0.015625)"/>
      </defs>
      <use xlink:href="#ArialMT-4f"/>
      <use xlink:href="#ArialMT-72" transform="translate(77.783203 0)"/>
      <use xlink:href="#ArialMT-69" transform="translate(111.083984 0)"/>
      <use xlink:href="#ArialMT-67" transform="translate(133.300781 0)"/>
      <use xlink:href="#ArialMT-69" transform="translate(188.916016 0)"/>
      <use xlink:href="#ArialMT-6e" transform="translate(211.132812 0)"/>
      <use xlink:href="#ArialMT-61" transform="translate(266.748047 0)"/>
      <use xlink:href="#ArialMT-6c" transform="translate(322.363281 0)"/>
      <use xlink:href="#ArialMT-20" transform="translate(344.580078 0)"/>
      <use xlink:href="#ArialMT-50" transform="translate(372.363281 0)"/>
      <use xlink:href="#ArialMT-6f" transform="translate(439.0625 0)"/>
      <use xlink:href="#ArialMT-73" transform="translate(494.677734 0)"/>
      <use xlink:href="#ArialMT-69" transform="translate(544.677734 0)"/>
      <use xlink:href="#ArialMT-74" transform="translate(566.894531 0)"/>
      <use xlink:href="#ArialMT-69" transform="translate(594.677734 0)"/>
      <use xlink:href="#ArialMT-6f" transform="translate(616.894531 0)"/>
      <use xlink:href="#ArialMT-6e" transform="translate(672.509766 0)"/>
     </g>
    </g>
   </g>
   <g id="matplotlib.axis_2">
    <g id="ytick_1">
     <g id="line2d_9">
      <path d="M 40.617813 234.772017 
L 237.787813 234.772017 
" clip-path="url(#p817c555dc9)" style="fill: none; stroke: #cccccc; stroke-width: 0.8; stroke-linecap: round"/>
     </g>
     <g id="text_9">
      <!-- 0 -->
      <g style="fill: #262626" transform="translate(25.8325 239.782485) scale(0.14 -0.14)">
       <use xlink:href="#ArialMT-30"/>
      </g>
     </g>
    </g>
    <g id="ytick_2">
     <g id="line2d_10">
      <path d="M 40.617813 190.032661 
L 237.787813 190.032661 
" clip-path="url(#p817c555dc9)" style="fill: none; stroke: #cccccc; stroke-width: 0.8; stroke-linecap: round"/>
     </g>
     <g id="text_10">
      <!-- 1 -->
      <g style="fill: #262626" transform="translate(25.8325 195.04313) scale(0.14 -0.14)">
       <use xlink:href="#ArialMT-31"/>
      </g>
     </g>
    </g>
    <g id="ytick_3">
     <g id="line2d_11">
      <path d="M 40.617813 145.293306 
L 237.787813 145.293306 
" clip-path="url(#p817c555dc9)" style="fill: none; stroke: #cccccc; stroke-width: 0.8; stroke-linecap: round"/>
     </g>
     <g id="text_11">
      <!-- 2 -->
      <g style="fill: #262626" transform="translate(25.8325 150.303774) scale(0.14 -0.14)">
       <use xlink:href="#ArialMT-32"/>
      </g>
     </g>
    </g>
    <g id="ytick_4">
     <g id="line2d_12">
      <path d="M 40.617813 100.55395 
L 237.787813 100.55395 
" clip-path="url(#p817c555dc9)" style="fill: none; stroke: #cccccc; stroke-width: 0.8; stroke-linecap: round"/>
     </g>
     <g id="text_12">
      <!-- 3 -->
      <g style="fill: #262626" transform="translate(25.8325 105.564419) scale(0.14 -0.14)">
       <use xlink:href="#ArialMT-33"/>
      </g>
     </g>
    </g>
    <g id="ytick_5">
     <g id="line2d_13">
      <path d="M 40.617813 55.814595 
L 237.787813 55.814595 
" clip-path="url(#p817c555dc9)" style="fill: none; stroke: #cccccc; stroke-width: 0.8; stroke-linecap: round"/>
     </g>
     <g id="text_13">
      <!-- 4 -->
      <g style="fill: #262626" transform="translate(25.8325 60.825063) scale(0.14 -0.14)">
       <use xlink:href="#ArialMT-34"/>
      </g>
     </g>
    </g>
    <g id="text_14">
     <!-- Information Content -->
     <g style="fill: #262626" transform="translate(18.6525 199.880945) rotate(-90) scale(0.16 -0.16)">
      <defs>
       <path id="ArialMT-49" d="M 597 0 
L 597 4581 
L 1203 4581 
L 1203 0 
L 597 0 
z
" transform="scale(0.015625)"/>
       <path id="ArialMT-66" d="M 556 0 
L 556 2881 
L 59 2881 
L 59 3319 
L 556 3319 
L 556 3672 
Q 556 4006 616 4169 
Q 697 4388 901 4523 
Q 1106 4659 1475 4659 
Q 1713 4659 2000 4603 
L 1916 4113 
Q 1741 4144 1584 4144 
Q 1328 4144 1222 4034 
Q 1116 3925 1116 3625 
L 1116 3319 
L 1763 3319 
L 1763 2881 
L 1116 2881 
L 1116 0 
L 556 0 
z
" transform="scale(0.015625)"/>
       <path id="ArialMT-6d" d="M 422 0 
L 422 3319 
L 925 3319 
L 925 2853 
Q 1081 3097 1340 3245 
Q 1600 3394 1931 3394 
Q 2300 3394 2536 3241 
Q 2772 3088 2869 2813 
Q 3263 3394 3894 3394 
Q 4388 3394 4653 3120 
Q 4919 2847 4919 2278 
L 4919 0 
L 4359 0 
L 4359 2091 
Q 4359 2428 4304 2576 
Q 4250 2725 4106 2815 
Q 3963 2906 3769 2906 
Q 3419 2906 3187 2673 
Q 2956 2441 2956 1928 
L 2956 0 
L 2394 0 
L 2394 2156 
Q 2394 2531 2256 2718 
Q 2119 2906 1806 2906 
Q 1569 2906 1367 2781 
Q 1166 2656 1075 2415 
Q 984 2175 984 1722 
L 984 0 
L 422 0 
z
" transform="scale(0.015625)"/>
       <path id="ArialMT-43" d="M 3763 1606 
L 4369 1453 
Q 4178 706 3683 314 
Q 3188 -78 2472 -78 
Q 1731 -78 1267 223 
Q 803 525 561 1097 
Q 319 1669 319 2325 
Q 319 3041 592 3573 
Q 866 4106 1370 4382 
Q 1875 4659 2481 4659 
Q 3169 4659 3637 4309 
Q 4106 3959 4291 3325 
L 3694 3184 
Q 3534 3684 3231 3912 
Q 2928 4141 2469 4141 
Q 1941 4141 1586 3887 
Q 1231 3634 1087 3207 
Q 944 2781 944 2328 
Q 944 1744 1114 1308 
Q 1284 872 1643 656 
Q 2003 441 2422 441 
Q 2931 441 3284 734 
Q 3638 1028 3763 1606 
z
" transform="scale(0.015625)"/>
       <path id="ArialMT-65" d="M 2694 1069 
L 3275 997 
Q 3138 488 2766 206 
Q 2394 -75 1816 -75 
Q 1088 -75 661 373 
Q 234 822 234 1631 
Q 234 2469 665 2931 
Q 1097 3394 1784 3394 
Q 2450 3394 2872 2941 
Q 3294 2488 3294 1666 
Q 3294 1616 3291 1516 
L 816 1516 
Q 847 969 1125 678 
Q 1403 388 1819 388 
Q 2128 388 2347 550 
Q 2566 713 2694 1069 
z
M 847 1978 
L 2700 1978 
Q 2663 2397 2488 2606 
Q 2219 2931 1791 2931 
Q 1403 2931 1139 2672 
Q 875 2413 847 1978 
z
" transform="scale(0.015625)"/>
      </defs>
      <use xlink:href="#ArialMT-49"/>
      <use xlink:href="#ArialMT-6e" transform="translate(27.783203 0)"/>
      <use xlink:href="#ArialMT-66" transform="translate(83.398438 0)"/>
      <use xlink:href="#ArialMT-6f" transform="translate(111.181641 0)"/>
      <use xlink:href="#ArialMT-72" transform="translate(166.796875 0)"/>
      <use xlink:href="#ArialMT-6d" transform="translate(200.097656 0)"/>
      <use xlink:href="#ArialMT-61" transform="translate(283.398438 0)"/>
      <use xlink:href="#ArialMT-74" transform="translate(339.013672 0)"/>
      <use xlink:href="#ArialMT-69" transform="translate(366.796875 0)"/>
      <use xlink:href="#ArialMT-6f" transform="translate(389.013672 0)"/>
      <use xlink:href="#ArialMT-6e" transform="translate(444.628906 0)"/>
      <use xlink:href="#ArialMT-20" transform="translate(500.244141 0)"/>
      <use xlink:href="#ArialMT-43" transform="translate(528.027344 0)"/>
      <use xlink:href="#ArialMT-6f" transform="translate(600.244141 0)"/>
      <use xlink:href="#ArialMT-6e" transform="translate(655.859375 0)"/>
      <use xlink:href="#ArialMT-74" transform="translate(711.474609 0)"/>
      <use xlink:href="#ArialMT-65" transform="translate(739.257812 0)"/>
      <use xlink:href="#ArialMT-6e" transform="translate(794.873047 0)"/>
      <use xlink:href="#ArialMT-74" transform="translate(850.488281 0)"/>
     </g>
    </g>
   </g>
   <g id="patch_29">
    <path d="M 40.617813 234.772017 
L 40.617813 24.477373 
" style="fill: none; stroke: #cccccc; stroke-width: 0.8; stroke-linejoin: miter; stroke-linecap: square"/>
   </g>
   <g id="patch_30">
    <path d="M 237.787813 234.772017 
L 237.787813 24.477373 
" style="fill: none; stroke: #cccccc; stroke-width: 0.8; stroke-linejoin: miter; stroke-linecap: square"/>
   </g>
   <g id="patch_31">
    <path d="M 40.617813 234.772017 
L 237.787813 234.772017 
" style="fill: none; stroke: #cccccc; stroke-width: 0.8; stroke-linejoin: miter; stroke-linecap: square"/>
   </g>
   <g id="patch_32">
    <path d="M 40.617813 24.477373 
L 237.787813 24.477373 
" style="fill: none; stroke: #cccccc; stroke-width: 0.8; stroke-linejoin: miter; stroke-linecap: square"/>
   </g>
   <g id="text_15">
    <!-- 18 -->
    <g style="fill: #000080; opacity: 0.6" transform="translate(46.308147 17.220937) scale(0.14 -0.14)">
     <defs>
      <path id="Arial-ItalicMT-31" d="M 1541 0 
L 2266 3459 
Q 1797 3091 947 2869 
L 1053 3381 
Q 1475 3550 1886 3822 
Q 2297 4094 2503 4297 
Q 2628 4422 2741 4600 
L 3069 4600 
L 2109 0 
L 1541 0 
z
" transform="scale(0.015625)"/>
      <path id="Arial-ItalicMT-38" d="M 1444 2519 
Q 1188 2659 1059 2879 
Q 931 3100 931 3353 
Q 931 3769 1231 4122 
Q 1631 4600 2316 4600 
Q 2919 4600 3266 4276 
Q 3613 3953 3613 3484 
Q 3613 3150 3425 2881 
Q 3238 2613 2838 2453 
Q 3113 2281 3231 2088 
Q 3384 1834 3384 1497 
Q 3384 881 2948 400 
Q 2513 -81 1788 -81 
Q 1209 -81 843 275 
Q 478 631 478 1166 
Q 478 1669 737 2030 
Q 997 2391 1444 2519 
z
M 1488 3328 
Q 1488 3034 1677 2854 
Q 1866 2675 2197 2675 
Q 2584 2675 2826 2911 
Q 3069 3147 3069 3491 
Q 3069 3781 2880 3964 
Q 2691 4147 2359 4147 
Q 2109 4147 1900 4031 
Q 1691 3916 1589 3717 
Q 1488 3519 1488 3328 
z
M 1047 1119 
Q 1047 928 1139 753 
Q 1231 578 1418 475 
Q 1606 372 1847 372 
Q 2306 372 2591 803 
Q 2816 1141 2816 1531 
Q 2816 1850 2608 2053 
Q 2400 2256 2063 2256 
Q 1638 2256 1342 1940 
Q 1047 1625 1047 1119 
z
" transform="scale(0.015625)"/>
     </defs>
     <use xlink:href="#Arial-ItalicMT-31"/>
     <use xlink:href="#Arial-ItalicMT-38" transform="translate(55.615234 0)"/>
    </g>
   </g>
   <g id="text_16">
    <!-- 18 -->
    <g style="fill: #000080; opacity: 0.6" transform="translate(74.677932 17.220937) scale(0.14 -0.14)">
     <use xlink:href="#Arial-ItalicMT-31"/>
     <use xlink:href="#Arial-ItalicMT-38" transform="translate(55.615234 0)"/>
    </g>
   </g>
   <g id="text_17">
    <!-- 17 -->
    <g style="fill: #000080; opacity: 0.6" transform="translate(103.047716 17.220937) scale(0.14 -0.14)">
     <defs>
      <path id="Arial-ItalicMT-37" d="M 928 0 
Q 1003 463 1247 1113 
Q 1538 1897 2009 2670 
Q 2481 3444 3059 4000 
L 775 4000 
L 884 4519 
L 3809 4519 
L 3703 4000 
Q 2959 3347 2403 2316 
Q 1756 1125 1519 0 
L 928 0 
z
" transform="scale(0.015625)"/>
     </defs>
     <use xlink:href="#Arial-ItalicMT-31"/>
     <use xlink:href="#Arial-ItalicMT-37" transform="translate(55.615234 0)"/>
    </g>
   </g>
   <g id="text_18">
    <!-- 16 -->
    <g style="fill: #000080; opacity: 0.6" transform="translate(131.4175 17.220937) scale(0.14 -0.14)">
     <defs>
      <path id="Arial-ItalicMT-36" d="M 1288 2656 
Q 1525 2853 1761 2951 
Q 1997 3050 2228 3050 
Q 2750 3050 3090 2694 
Q 3431 2338 3431 1734 
Q 3431 956 2925 400 
Q 2488 -78 1863 -78 
Q 1294 -78 914 339 
Q 534 756 534 1528 
Q 534 2219 778 2956 
Q 966 3522 1242 3889 
Q 1519 4256 1830 4428 
Q 2141 4600 2531 4600 
Q 3000 4600 3297 4308 
Q 3594 4016 3634 3472 
L 3109 3422 
Q 3066 3794 2898 3959 
Q 2731 4125 2491 4125 
Q 2238 4125 1981 3928 
Q 1725 3731 1540 3345 
Q 1356 2959 1288 2656 
z
M 1091 1288 
Q 1091 900 1331 636 
Q 1572 372 1875 372 
Q 2088 372 2325 533 
Q 2563 694 2728 1022 
Q 2894 1350 2894 1675 
Q 2894 2094 2664 2345 
Q 2434 2597 2109 2597 
Q 1734 2597 1412 2230 
Q 1091 1863 1091 1288 
z
" transform="scale(0.015625)"/>
     </defs>
     <use xlink:href="#Arial-ItalicMT-31"/>
     <use xlink:href="#Arial-ItalicMT-36" transform="translate(55.615234 0)"/>
    </g>
   </g>
   <g id="text_19">
    <!-- 14 -->
    <g style="fill: #000080; opacity: 0.6" transform="translate(159.787284 17.220937) scale(0.14 -0.14)">
     <defs>
      <path id="Arial-ItalicMT-34" d="M 1913 0 
L 2159 1169 
L 291 1169 
L 409 1728 
L 2975 4581 
L 3438 4581 
L 2828 1669 
L 3472 1669 
L 3369 1169 
L 2725 1169 
L 2478 0 
L 1913 0 
z
M 2263 1669 
L 2663 3581 
L 956 1669 
L 2263 1669 
z
" transform="scale(0.015625)"/>
     </defs>
     <use xlink:href="#Arial-ItalicMT-31"/>
     <use xlink:href="#Arial-ItalicMT-34" transform="translate(55.615234 0)"/>
    </g>
   </g>
   <g id="text_20">
    <!-- 11 -->
    <g style="fill: #000080; opacity: 0.6" transform="translate(188.673318 17.220937) scale(0.14 -0.14)">
     <use xlink:href="#Arial-ItalicMT-31"/>
     <use xlink:href="#Arial-ItalicMT-31" transform="translate(48.240234 0)"/>
    </g>
   </g>
   <g id="text_21">
    <!-- 2 -->
    <g style="fill: #000080; opacity: 0.6" transform="translate(220.419509 17.220937) scale(0.14 -0.14)">
     <defs>
      <path id="Arial-ItalicMT-32" d="M 375 0 
Q 463 409 617 686 
Q 772 963 1028 1211 
Q 1284 1459 2016 2044 
Q 2459 2397 2622 2566 
Q 2856 2809 2963 3044 
Q 3034 3203 3034 3391 
Q 3034 3706 2811 3926 
Q 2588 4147 2263 4147 
Q 1941 4147 1700 3923 
Q 1459 3700 1356 3206 
L 803 3288 
Q 884 3897 1276 4248 
Q 1669 4600 2253 4600 
Q 2644 4600 2961 4437 
Q 3278 4275 3437 3981 
Q 3597 3688 3597 3375 
Q 3597 2919 3272 2497 
Q 3072 2234 2097 1463 
Q 1678 1131 1473 918 
Q 1269 706 1166 519 
L 3216 519 
L 3106 0 
L 375 0 
z
" transform="scale(0.015625)"/>
     </defs>
     <use xlink:href="#Arial-ItalicMT-32"/>
    </g>
   </g>
  </g>
 </g>
 <defs>
  <clipPath id="p817c555dc9">
   <rect x="40.617813" y="24.477373" width="197.17" height="210.294644"/>
  </clipPath>
 </defs>
</svg>
